<?xml version="1.0" encoding="utf-8" standalone="no"?>
<!DOCTYPE svg PUBLIC "-//W3C//DTD SVG 1.1//EN"
  "http://www.w3.org/Graphics/SVG/1.1/DTD/svg11.dtd">
<!-- Created with matplotlib (http://matplotlib.org/) -->
<svg height="1440pt" version="1.1" viewBox="0 0 360 1440" width="360pt" xmlns="http://www.w3.org/2000/svg" xmlns:xlink="http://www.w3.org/1999/xlink">
 <defs>
  <style type="text/css">
*{stroke-linecap:butt;stroke-linejoin:round;}
  </style>
 </defs>
 <g id="figure_1">
  <g id="patch_1">
   <path d="M 0 1440 
L 360 1440 
L 360 0 
L 0 0 
z
" style="fill:#ffffff;"/>
  </g>
  <g id="axes_1">
   <g id="patch_2">
    <path d="M 101.422543 305.368256 
L 334.9 305.368256 
L 334.9 25.1 
L 101.422543 25.1 
z
" style="fill:#ffffff;"/>
   </g>
   <g id="matplotlib.axis_1">
    <g id="xtick_1">
     <g id="line2d_1">
      <defs>
       <path d="M 0 0 
L 0 3.5 
" id="m02ecbd807b" style="stroke:#000000;stroke-width:0.8;"/>
      </defs>
      <g>
       <use style="stroke:#000000;stroke-width:0.8;" x="112.035155" xlink:href="#m02ecbd807b" y="305.368256"/>
      </g>
     </g>
     <g id="text_1">
      <!-- $0$ -->
      <defs>
       <path d="M 42 31.84375 
C 42 37.96875 41.90625 48.421875 37.703125 56.453125 
C 34 63.484375 28.09375 66 22.90625 66 
C 18.09375 66 12 63.78125 8.203125 56.5625 
C 4.203125 49.015625 3.796875 39.671875 3.796875 31.84375 
C 3.796875 26.109375 3.90625 17.375 7 9.734375 
C 11.296875 -0.609375 19 -2 22.90625 -2 
C 27.5 -2 34.5 -0.109375 38.59375 9.4375 
C 41.59375 16.375 42 24.5 42 31.84375 
z
M 22.90625 -0.40625 
C 16.5 -0.40625 12.703125 5.125 11.296875 12.75 
C 10.203125 18.6875 10.203125 27.328125 10.203125 32.953125 
C 10.203125 40.6875 10.203125 47.109375 11.5 53.234375 
C 13.40625 61.78125 19 64.390625 22.90625 64.390625 
C 27 64.390625 32.296875 61.671875 34.203125 53.4375 
C 35.5 47.71875 35.59375 40.984375 35.59375 32.953125 
C 35.59375 26.421875 35.59375 18.375 34.40625 12.453125 
C 32.296875 1.5 26.40625 -0.40625 22.90625 -0.40625 
z
" id="CMR17-48"/>
      </defs>
      <g transform="translate(107.466107 326.205253)scale(0.2 -0.2)">
       <use transform="scale(0.996264)" xlink:href="#CMR17-48"/>
      </g>
     </g>
    </g>
    <g id="xtick_2">
     <g id="line2d_2">
      <g>
       <use style="stroke:#000000;stroke-width:0.8;" x="182.820519" xlink:href="#m02ecbd807b" y="305.368256"/>
      </g>
     </g>
     <g id="text_2">
      <!-- $1$ -->
      <defs>
       <path d="M 26.59375 63.796875 
C 26.59375 65.890625 26.5 66 25.09375 66 
C 21.203125 61.359375 15.296875 59.890625 9.703125 59.6875 
C 9.40625 59.6875 8.90625 59.6875 8.796875 59.5 
C 8.703125 59.296875 8.703125 59.09375 8.703125 57 
C 11.796875 57 17 57.59375 21 59.984375 
L 21 7.296875 
C 21 3.796875 20.796875 2.59375 12.203125 2.59375 
L 9.203125 2.59375 
L 9.203125 0 
C 14 0.09375 19 0.1875 23.796875 0.1875 
C 28.59375 0.1875 33.59375 0.09375 38.40625 0 
L 38.40625 2.59375 
L 35.40625 2.59375 
C 26.796875 2.59375 26.59375 3.6875 26.59375 7.296875 
z
" id="CMR17-49"/>
      </defs>
      <g transform="translate(178.251472 326.205253)scale(0.2 -0.2)">
       <use transform="scale(0.996264)" xlink:href="#CMR17-49"/>
      </g>
     </g>
    </g>
    <g id="xtick_3">
     <g id="line2d_3">
      <g>
       <use style="stroke:#000000;stroke-width:0.8;" x="253.605884" xlink:href="#m02ecbd807b" y="305.368256"/>
      </g>
     </g>
     <g id="text_3">
      <!-- $2$ -->
      <defs>
       <path d="M 41.703125 15.46875 
L 39.90625 15.46875 
C 38.90625 8.390625 38.09375 7.1875 37.703125 6.59375 
C 37.203125 5.796875 30 5.796875 28.59375 5.796875 
L 9.40625 5.796875 
C 13 9.6875 20 16.765625 28.5 24.9375 
C 34.59375 30.71875 41.703125 37.5 41.703125 47.390625 
C 41.703125 59.1875 32.296875 66 21.796875 66 
C 10.796875 66 4.09375 56.296875 4.09375 47.296875 
C 4.09375 43.390625 7 42.890625 8.203125 42.890625 
C 9.203125 42.890625 12.203125 43.484375 12.203125 46.984375 
C 12.203125 50.09375 9.59375 51 8.203125 51 
C 7.59375 51 7 50.890625 6.59375 50.6875 
C 8.5 59.1875 14.296875 63.390625 20.40625 63.390625 
C 29.09375 63.390625 34.796875 56.5 34.796875 47.390625 
C 34.796875 38.703125 29.703125 31.21875 24 24.734375 
L 4.09375 2.296875 
L 4.09375 0 
L 39.296875 0 
z
" id="CMR17-50"/>
      </defs>
      <g transform="translate(249.036836 326.205253)scale(0.2 -0.2)">
       <use transform="scale(0.996264)" xlink:href="#CMR17-50"/>
      </g>
     </g>
    </g>
    <g id="xtick_4">
     <g id="line2d_4">
      <g>
       <use style="stroke:#000000;stroke-width:0.8;" x="324.391249" xlink:href="#m02ecbd807b" y="305.368256"/>
      </g>
     </g>
     <g id="text_4">
      <!-- $3$ -->
      <defs>
       <path d="M 22.09375 34 
C 31 34 34.90625 26.140625 34.90625 17.09375 
C 34.90625 5.03125 28.5 0.390625 22.703125 0.390625 
C 17.40625 0.390625 8.796875 3.015625 6.09375 10.796875 
C 6.59375 10.59375 7.09375 10.59375 7.59375 10.59375 
C 10 10.59375 11.796875 12.1875 11.796875 14.796875 
C 11.796875 17.6875 9.59375 19 7.59375 19 
C 5.90625 19 3.296875 18.1875 3.296875 14.484375 
C 3.296875 5.234375 12.296875 -2 22.90625 -2 
C 34 -2 42.5 6.75 42.5 16.984375 
C 42.5 26.84375 34.5 34 25 35.09375 
C 32.59375 36.671875 39.90625 43.375 39.90625 52.390625 
C 39.90625 60.25 32 66 23 66 
C 13.90625 66 5.90625 60.34375 5.90625 52.296875 
C 5.90625 48.796875 8.5 48.1875 9.796875 48.1875 
C 11.90625 48.1875 13.703125 49.484375 13.703125 52.09375 
C 13.703125 54.6875 11.90625 56 9.796875 56 
C 9.40625 56 8.90625 56 8.5 55.796875 
C 11.40625 62.484375 19.296875 63.6875 22.796875 63.6875 
C 26.296875 63.6875 32.90625 61.96875 32.90625 52.296875 
C 32.90625 49.484375 32.5 44.546875 29.09375 40.21875 
C 26.09375 36.390625 22.703125 36.1875 19.40625 35.890625 
C 18.90625 35.890625 16.59375 35.6875 16.203125 35.6875 
C 15.5 35.59375 15.09375 35.5 15.09375 34.796875 
C 15.09375 34.09375 15.203125 34 17.203125 34 
z
" id="CMR17-51"/>
      </defs>
      <g transform="translate(319.822201 326.205253)scale(0.2 -0.2)">
       <use transform="scale(0.996264)" xlink:href="#CMR17-51"/>
      </g>
     </g>
    </g>
    <g id="text_5">
     <!-- Time -->
     <defs>
      <path d="M 36.203125 62.296875 
L 44.5 62.296875 
C 45.703125 62.296875 46.90625 62.1875 48.09375 62.1875 
L 60.59375 62.1875 
L 60.59375 68.6875 
L 3.40625 68.6875 
L 3.40625 62.1875 
L 15.90625 62.1875 
C 17.09375 62.1875 18.296875 62.296875 19.5 62.296875 
L 27.796875 62.296875 
L 27.796875 0 
L 36.203125 0 
z
" id="CMSS17-84"/>
      <path d="M 15.296875 66 
L 6.90625 66 
L 6.90625 57.59375 
L 15.296875 57.59375 
z
M 14.796875 43 
L 7.40625 43 
L 7.40625 0 
L 14.796875 0 
z
" id="CMSS17-105"/>
      <path d="M 67 29.34375 
C 67 36.078125 65.296875 44 54.09375 44 
C 46.59375 44 42.09375 39.296875 40.09375 36.375 
C 38.296875 41.6875 34.09375 44 28.09375 44 
C 21.296875 44 17 40.09375 14.703125 37.28125 
L 14.703125 43.484375 
L 7.40625 43.484375 
L 7.40625 0 
L 15 0 
L 15 24.3125 
C 15 30.25 17.203125 37.890625 24.296875 37.890625 
C 33.40625 37.890625 33.40625 31.453125 33.40625 28.53125 
L 33.40625 0 
L 41 0 
L 41 24.3125 
C 41 30.25 43.203125 37.890625 50.296875 37.890625 
C 59.40625 37.890625 59.40625 31.453125 59.40625 28.53125 
L 59.40625 0 
L 67 0 
z
" id="CMSS17-109"/>
      <path d="M 39.09375 21.484375 
C 39.09375 24.796875 38.90625 31.265625 35.703125 36.671875 
C 32.203125 42.390625 26.5 44 22.203125 44 
C 11.796875 44 3 34.125 3 21.296875 
C 3 9.046875 12.09375 -1 23.59375 -1 
C 28.09375 -1 33.59375 0.296875 38.59375 3.890625 
C 38.59375 4.296875 38.40625 6.46875 38.296875 6.578125 
C 38.296875 6.765625 38 9.828125 38 10.234375 
C 33.203125 6.375 27.703125 5.09375 23.703125 5.09375 
C 17.296875 5.09375 10.40625 10.421875 10.09375 21.484375 
z
M 10.90625 27 
C 12.203125 32.59375 16.59375 37.890625 22.203125 37.890625 
C 23.703125 37.890625 30.703125 37.6875 32.5 27 
z
" id="CMSS17-101"/>
     </defs>
     <g transform="translate(197.974452 347.917883)scale(0.2 -0.2)">
      <use transform="scale(0.996264)" xlink:href="#CMSS17-84"/>
      <use transform="translate(63.819454 0)scale(0.996264)" xlink:href="#CMSS17-105"/>
      <use transform="translate(86.000177 0)scale(0.996264)" xlink:href="#CMSS17-109"/>
      <use transform="translate(160.229431 0)scale(0.996264)" xlink:href="#CMSS17-101"/>
     </g>
    </g>
   </g>
   <g id="matplotlib.axis_2">
    <g id="ytick_1">
     <g id="line2d_5">
      <defs>
       <path d="M 0 0 
L -3.5 0 
" id="me5b9e1d875" style="stroke:#000000;stroke-width:0.8;"/>
      </defs>
      <g>
       <use style="stroke:#000000;stroke-width:0.8;" x="101.422543" xlink:href="#me5b9e1d875" y="279.243288"/>
      </g>
     </g>
     <g id="text_6">
      <!-- $0.05$ -->
      <defs>
       <path d="M 18.40625 4.796875 
C 18.40625 7.6875 16 9.6875 13.59375 9.6875 
C 10.703125 9.6875 8.703125 7.296875 8.703125 4.890625 
C 8.703125 2 11.09375 0 13.5 0 
C 16.40625 0 18.40625 2.390625 18.40625 4.796875 
z
" id="CMMI12-58"/>
       <path d="M 11.40625 58.59375 
C 12.40625 58.1875 16.5 56.890625 20.703125 56.890625 
C 30 56.890625 35.09375 61.890625 38 64.6875 
C 38 65.484375 38 66 37.40625 66 
C 37.296875 66 37.09375 66 36.296875 65.59375 
C 32.796875 64.09375 28.703125 63 23.703125 63 
C 20.703125 63 16.203125 63.359375 11.296875 65.484375 
C 10.203125 66 10 66 9.90625 66 
C 9.40625 66 9.296875 65.890625 9.296875 63.90625 
L 9.296875 34.859375 
C 9.296875 33.015625 9.296875 32.5 10.296875 32.5 
C 10.796875 32.5 11 32.703125 11.5 33.421875 
C 14.703125 38.046875 19.09375 40 24.09375 40 
C 27.59375 40 35.09375 37.734375 35.09375 20.203125 
C 35.09375 16.984375 35.09375 11.1875 32.09375 6.59375 
C 29.59375 2.484375 25.703125 0.390625 21.40625 0.390625 
C 14.796875 0.390625 8.09375 4.984375 6.296875 12.6875 
C 6.703125 12.59375 7.5 12.390625 7.90625 12.390625 
C 9.203125 12.390625 11.703125 13.09375 11.703125 16.1875 
C 11.703125 18.890625 9.796875 20 7.90625 20 
C 5.59375 20 4.09375 18.59375 4.09375 15.796875 
C 4.09375 7.09375 11 -2 21.59375 -2 
C 31.90625 -2 41.703125 6.890625 41.703125 19.796875 
C 41.703125 32.09375 33.90625 41.59375 24.203125 41.59375 
C 19.09375 41.59375 14.796875 39.6875 11.40625 36 
z
" id="CMR17-53"/>
      </defs>
      <g transform="translate(61.588821 286.161786)scale(0.2 -0.2)">
       <use transform="scale(0.996264)" xlink:href="#CMR17-48"/>
       <use transform="translate(45.690477 0)scale(0.996264)" xlink:href="#CMMI12-58"/>
       <use transform="translate(72.787654 0)scale(0.996264)" xlink:href="#CMR17-48"/>
       <use transform="translate(118.478131 0)scale(0.996264)" xlink:href="#CMR17-53"/>
      </g>
     </g>
    </g>
    <g id="ytick_2">
     <g id="line2d_6">
      <g>
       <use style="stroke:#000000;stroke-width:0.8;" x="101.422543" xlink:href="#me5b9e1d875" y="212.263806"/>
      </g>
     </g>
     <g id="text_7">
      <!-- $0.10$ -->
      <g transform="translate(61.588821 219.182305)scale(0.2 -0.2)">
       <use transform="scale(0.996264)" xlink:href="#CMR17-48"/>
       <use transform="translate(45.690477 0)scale(0.996264)" xlink:href="#CMMI12-58"/>
       <use transform="translate(72.787654 0)scale(0.996264)" xlink:href="#CMR17-49"/>
       <use transform="translate(118.478131 0)scale(0.996264)" xlink:href="#CMR17-48"/>
      </g>
     </g>
    </g>
    <g id="ytick_3">
     <g id="line2d_7">
      <g>
       <use style="stroke:#000000;stroke-width:0.8;" x="101.422543" xlink:href="#me5b9e1d875" y="145.284325"/>
      </g>
     </g>
     <g id="text_8">
      <!-- $0.15$ -->
      <g transform="translate(61.588821 152.202824)scale(0.2 -0.2)">
       <use transform="scale(0.996264)" xlink:href="#CMR17-48"/>
       <use transform="translate(45.690477 0)scale(0.996264)" xlink:href="#CMMI12-58"/>
       <use transform="translate(72.787654 0)scale(0.996264)" xlink:href="#CMR17-49"/>
       <use transform="translate(118.478131 0)scale(0.996264)" xlink:href="#CMR17-53"/>
      </g>
     </g>
    </g>
    <g id="ytick_4">
     <g id="line2d_8">
      <g>
       <use style="stroke:#000000;stroke-width:0.8;" x="101.422543" xlink:href="#me5b9e1d875" y="78.304844"/>
      </g>
     </g>
     <g id="text_9">
      <!-- $0.20$ -->
      <g transform="translate(61.588821 85.223342)scale(0.2 -0.2)">
       <use transform="scale(0.996264)" xlink:href="#CMR17-48"/>
       <use transform="translate(45.690477 0)scale(0.996264)" xlink:href="#CMMI12-58"/>
       <use transform="translate(72.787654 0)scale(0.996264)" xlink:href="#CMR17-50"/>
       <use transform="translate(118.478131 0)scale(0.996264)" xlink:href="#CMR17-48"/>
      </g>
     </g>
    </g>
    <g id="text_10">
     <!-- Protein concentration at BL -->
     <defs>
      <path d="M 32.90625 29 
C 44.90625 29 54.703125 38.234375 54.703125 49.046875 
C 54.703125 59.65625 45.296875 69 32.296875 69 
L 8.90625 69 
L 8.90625 0 
L 17.296875 0 
L 17.296875 29 
z
M 30.09375 63.390625 
C 41.703125 63.390625 46.796875 56.21875 46.796875 49.046875 
C 46.796875 42.359375 42.09375 34.796875 30.09375 34.796875 
L 17.09375 34.796875 
L 17.09375 63.390625 
z
" id="CMSS17-80"/>
      <path d="M 14.90625 21.390625 
C 14.90625 30.84375 21.796875 37.171875 30.59375 37.375 
L 30.59375 44 
C 24.203125 43.890625 18.203125 40.6875 14.59375 35.46875 
L 14.59375 43.484375 
L 7.5 43.484375 
L 7.5 0 
L 14.90625 0 
z
" id="CMSS17-114"/>
      <path d="M 44.203125 21.1875 
C 44.203125 33.984375 34.703125 44 23.5 44 
C 12 44 2.703125 33.6875 2.703125 21.1875 
C 2.703125 8.5 12.296875 -1 23.40625 -1 
C 34.796875 -1 44.203125 8.796875 44.203125 21.1875 
z
M 23.5 5.296875 
C 16.40625 5.296875 10.296875 11.09375 10.296875 21.984375 
C 10.296875 33.59375 17.40625 37.890625 23.40625 37.890625 
C 29.90625 37.890625 36.59375 33.1875 36.59375 21.984375 
C 36.59375 10.6875 30.09375 5.296875 23.5 5.296875 
z
" id="CMSS17-111"/>
      <path d="M 16.703125 37.1875 
L 29.703125 37.1875 
L 29.703125 43 
L 16.703125 43 
L 16.703125 55 
L 9.59375 55 
L 9.59375 43 
L 1.703125 43 
L 1.703125 37.1875 
L 9.40625 37.1875 
L 9.40625 11.734375 
C 9.40625 6 10.703125 -1 17.296875 -1 
C 22.296875 -1 26.90625 0.390625 31.296875 2.6875 
L 29.703125 8.609375 
C 27.296875 6.5 24.40625 5.296875 21.296875 5.296875 
C 16.90625 5.296875 16.703125 10.921875 16.703125 13.4375 
z
" id="CMSS17-116"/>
      <path d="M 40.90625 29.34375 
C 40.90625 35.671875 39.40625 44 28.09375 44 
C 21.703125 44 17.5 40.6875 14.703125 37.28125 
L 14.703125 43.484375 
L 7.40625 43.484375 
L 7.40625 0 
L 15 0 
L 15 24.3125 
C 15 30.65625 17.40625 37.890625 24.203125 37.890625 
C 33 37.890625 33.296875 31.953125 33.296875 28.53125 
L 33.296875 0 
L 40.90625 0 
z
" id="CMSS17-110"/>
      <path d="M 38.5 39.6875 
C 38.5 40.390625 33.90625 42.390625 32.703125 42.796875 
C 29.40625 44 25.203125 44 24.09375 44 
C 11.09375 44 3.296875 32.6875 3.296875 21.296875 
C 3.296875 9.296875 12 -1 23.703125 -1 
C 30.40625 -1 35.203125 1.1875 39.09375 3.796875 
L 38.5 10.390625 
C 34.203125 7.09375 29.203125 5.296875 23.796875 5.296875 
C 16 5.296875 10.90625 12.09375 10.90625 21.390625 
C 10.90625 28.59375 14.203125 37.6875 24.203125 37.6875 
C 29.703125 37.6875 32.796875 36.59375 37.40625 33.484375 
z
" id="CMSS17-99"/>
      <path d="M 37.59375 27.953125 
C 37.59375 37.484375 30.90625 44 21.90625 44 
C 17.5 44 12.703125 43.1875 7.203125 39.984375 
L 7.796875 33.328125 
C 10.296875 35.15625 14.59375 38.09375 21.796875 38.09375 
C 26.90625 38.09375 30 34.140625 30 27.84375 
L 30 24 
C 14 23.5 4 18.890625 4 11.109375 
C 4 7.0625 6.5 -1 14.796875 -1 
C 16.296875 -1 24.40625 -0.8125 30.203125 3.5 
L 30.203125 -0.203125 
L 37.59375 -0.203125 
z
M 30 12.875 
C 30 11.109375 30 8.734375 27 6.96875 
C 24.40625 5.296875 21.09375 5.09375 19.703125 5.09375 
C 14.703125 5.09375 11.296875 7.859375 11.296875 11.296875 
C 11.296875 18.203125 26.90625 18.890625 30 19 
z
" id="CMSS17-97"/>
      <path d="M 8.90625 69 
L 8.90625 0 
L 33.796875 0 
C 47.40625 0 57.296875 8.984375 57.296875 18.75 
C 57.296875 26.3125 50.796875 33.984375 39.09375 36.1875 
C 52.09375 39.984375 54.703125 47.484375 54.703125 51.734375 
C 54.703125 60.625 44.90625 69 31.203125 69 
z
M 17 39 
L 17 63.390625 
L 28.5 63.390625 
C 38.796875 63.390625 46.90625 58.15625 46.90625 51.640625 
C 46.90625 45.703125 40.5 39 27.59375 39 
z
M 17 5.59375 
L 17 32.890625 
L 30.296875 32.890625 
C 41.09375 32.890625 49.40625 26.21875 49.40625 18.84375 
C 49.40625 12.0625 42.09375 5.59375 31 5.59375 
z
" id="CMSS17-66"/>
      <path d="M 26.09375 6.5 
C 24.90625 6.5 23.703125 6.390625 22.5 6.390625 
L 17.203125 6.390625 
L 17.203125 69 
L 8.796875 69 
L 8.796875 0 
L 46.90625 0 
L 46.90625 6.5 
z
" id="CMSS17-76"/>
     </defs>
     <g transform="translate(53.713188 275.204597)rotate(-90)scale(0.2 -0.2)">
      <use transform="scale(0.996264)" xlink:href="#CMSS17-80"/>
      <use transform="translate(59.735586 0)scale(0.996264)" xlink:href="#CMSS17-114"/>
      <use transform="translate(91.645359 0)scale(0.996264)" xlink:href="#CMSS17-111"/>
      <use transform="translate(138.488982 0)scale(0.996264)" xlink:href="#CMSS17-116"/>
      <use transform="translate(172.320549 0)scale(0.996264)" xlink:href="#CMSS17-101"/>
      <use transform="translate(213.959371 0)scale(0.996264)" xlink:href="#CMSS17-105"/>
      <use transform="translate(236.140094 0)scale(0.996264)" xlink:href="#CMSS17-110"/>
      <use transform="translate(315.57415 0)scale(0.996264)" xlink:href="#CMSS17-99"/>
      <use transform="translate(357.212972 0)scale(0.996264)" xlink:href="#CMSS17-111"/>
      <use transform="translate(404.056596 0)scale(0.996264)" xlink:href="#CMSS17-110"/>
      <use transform="translate(452.261539 0)scale(0.996264)" xlink:href="#CMSS17-99"/>
      <use transform="translate(493.900361 0)scale(0.996264)" xlink:href="#CMSS17-101"/>
      <use transform="translate(535.539183 0)scale(0.996264)" xlink:href="#CMSS17-110"/>
      <use transform="translate(583.744126 0)scale(0.996264)" xlink:href="#CMSS17-116"/>
      <use transform="translate(617.575693 0)scale(0.996264)" xlink:href="#CMSS17-114"/>
      <use transform="translate(649.485465 0)scale(0.996264)" xlink:href="#CMSS17-97"/>
      <use transform="translate(694.407386 0)scale(0.996264)" xlink:href="#CMSS17-116"/>
      <use transform="translate(728.238953 0)scale(0.996264)" xlink:href="#CMSS17-105"/>
      <use transform="translate(750.419676 0)scale(0.996264)" xlink:href="#CMSS17-111"/>
      <use transform="translate(797.263299 0)scale(0.996264)" xlink:href="#CMSS17-110"/>
      <use transform="translate(876.697355 0)scale(0.996264)" xlink:href="#CMSS17-97"/>
      <use transform="translate(921.619276 0)scale(0.996264)" xlink:href="#CMSS17-116"/>
      <use transform="translate(986.679955 0)scale(0.996264)" xlink:href="#CMSS17-66"/>
      <use transform="translate(1049.017995 0)scale(0.996264)" xlink:href="#CMSS17-76"/>
     </g>
    </g>
   </g>
   <g id="line2d_9">
    <path clip-path="url(#p85296c0253)" d="M 112.035155 292.62879 
L 112.049078 291.521803 
L 112.19993 281.311521 
L 113.83437 234.603871 
L 120.596503 190.721487 
L 127.67504 173.5173 
L 134.753576 158.53582 
L 141.832113 143.666043 
L 148.910649 130.01116 
L 155.989186 118.460732 
L 163.067722 109.027933 
L 170.146258 101.370884 
L 177.224795 95.128482 
L 184.303331 90.006357 
L 191.381868 85.777605 
L 198.460404 82.268005 
L 205.538941 79.342296 
L 212.617477 76.894185 
L 219.696014 74.839155 
L 226.77455 73.109356 
L 233.853087 71.649895 
L 240.931623 70.416039 
L 248.01016 69.371137 
L 255.088696 68.484969 
L 262.167233 67.732542 
L 269.245769 67.093038 
L 276.324306 66.549128 
L 283.402842 66.086282 
L 290.481379 65.692283 
L 297.559915 65.356871 
L 304.638451 65.071343 
L 311.716988 64.828352 
L 318.795524 64.621672 
" style="fill:none;stroke:#cecece;stroke-linecap:square;stroke-width:5;"/>
   </g>
   <g id="line2d_10">
    <path clip-path="url(#p85296c0253)" d="M 112.035155 292.62879 
L 112.049078 291.521753 
L 112.19993 281.304625 
L 113.83437 233.855476 
L 120.596503 180.404766 
L 127.67504 146.853865 
L 134.753576 115.926487 
L 141.832113 92.437321 
L 148.910649 75.948152 
L 155.989186 64.427626 
L 163.067722 56.320247 
L 170.146258 50.584766 
L 177.224795 46.520717 
L 184.303331 43.646669 
L 191.381868 41.625952 
L 198.460404 40.220247 
L 205.538941 39.259343 
L 212.617477 38.620757 
L 219.696014 38.215799 
L 226.77455 37.979955 
L 233.853087 37.866055 
L 240.931623 37.839466 
L 248.01016 37.874698 
L 255.088696 37.952947 
L 262.167233 38.06034 
L 269.245769 38.186576 
L 276.324306 38.32413 
L 283.402842 38.467453 
L 290.481379 38.612453 
L 297.559915 38.756255 
L 304.638451 38.896744 
L 311.716988 39.032502 
L 318.795524 39.16253 
" style="fill:none;stroke:#6c6c6c;stroke-linecap:square;stroke-width:5;"/>
   </g>
   <g id="line2d_11">
    <path clip-path="url(#p85296c0253)" d="M 112.035155 292.62879 
L 112.049078 291.521514 
L 112.19993 281.270161 
L 113.83437 230.118455 
L 119.406802 143.78172 
L 126.088367 68.628651 
L 133.166904 43.570815 
L 140.24544 41.008804 
L 147.323977 45.598319 
L 154.402513 52.025084 
L 161.481049 58.453686 
L 168.559586 64.292967 
L 175.638122 69.408904 
L 182.716659 73.829745 
L 189.795195 77.633776 
L 196.873732 80.907333 
L 203.952268 83.73024 
L 211.030805 86.171604 
L 218.109341 88.289772 
L 225.187878 90.133431 
L 232.266414 91.743122 
L 239.344951 93.152579 
L 246.423487 94.390029 
L 253.502024 95.479125 
L 260.58056 96.439829 
L 267.659097 97.289009 
L 274.737633 98.041016 
L 281.816169 98.708088 
L 288.894706 99.300783 
L 295.973242 99.828084 
L 303.051779 100.297857 
L 310.130315 100.716847 
L 317.208852 101.090945 
L 324.287388 101.425299 
" style="fill:none;stroke:#000000;stroke-linecap:square;stroke-width:5;"/>
   </g>
   <g id="patch_3">
    <path d="M 101.422543 305.368256 
L 101.422543 25.1 
" style="fill:none;stroke:#000000;stroke-linecap:square;stroke-linejoin:miter;stroke-width:0.8;"/>
   </g>
   <g id="patch_4">
    <path d="M 334.9 305.368256 
L 334.9 25.1 
" style="fill:none;stroke:#000000;stroke-linecap:square;stroke-linejoin:miter;stroke-width:0.8;"/>
   </g>
   <g id="patch_5">
    <path d="M 101.422543 305.368256 
L 334.9 305.368256 
" style="fill:none;stroke:#000000;stroke-linecap:square;stroke-linejoin:miter;stroke-width:0.8;"/>
   </g>
   <g id="patch_6">
    <path d="M 101.422543 25.1 
L 334.9 25.1 
" style="fill:none;stroke:#000000;stroke-linecap:square;stroke-linejoin:miter;stroke-width:0.8;"/>
   </g>
   <g id="legend_1">
    <g id="patch_7">
     <path d="M 173.187539 295.368256 
L 320.9 295.368256 
Q 324.9 295.368256 324.9 291.368256 
L 324.9 209.741355 
Q 324.9 205.741355 320.9 205.741355 
L 173.187539 205.741355 
Q 169.187539 205.741355 169.187539 209.741355 
L 169.187539 291.368256 
Q 169.187539 295.368256 173.187539 295.368256 
z
" style="fill:#ffffff;opacity:0.8;stroke:#cccccc;stroke-linejoin:miter;"/>
    </g>
    <g id="line2d_12">
     <path d="M 177.187539 220.741355 
L 217.187539 220.741355 
" style="fill:none;stroke:#cecece;stroke-linecap:square;stroke-width:5;"/>
    </g>
    <g id="line2d_13"/>
    <g id="text_11">
     <!-- $k_{R}=$0.001 -->
     <defs>
      <path d="M 28.09375 66.484375 
C 28.203125 66.890625 28.40625 67.484375 28.40625 67.984375 
C 28.40625 69 27.40625 69 27.203125 69 
C 27.09375 69 23.5 68.6875 21.703125 68.484375 
C 20 68.390625 18.5 68.1875 16.703125 68.09375 
C 14.296875 67.890625 13.59375 67.796875 13.59375 65.984375 
C 13.59375 64.984375 14.59375 64.984375 15.59375 64.984375 
C 20.703125 64.984375 20.703125 64.109375 20.703125 63.125 
C 20.703125 62.71875 20.703125 62.53125 20.203125 60.75 
L 5.90625 3.90625 
C 5.5 2.390625 5.5 2.203125 5.5 1.59375 
C 5.5 -0.609375 7.203125 -1 8.203125 -1 
C 11 -1 11.59375 1.1875 12.40625 4.296875 
L 17.09375 23.0625 
C 24.296875 22.265625 28.59375 19.25 28.59375 14.4375 
C 28.59375 13.828125 28.59375 13.4375 28.296875 11.921875 
C 27.90625 10.421875 27.90625 9.21875 27.90625 8.71875 
C 27.90625 2.890625 31.703125 -1 36.796875 -1 
C 41.40625 -1 43.796875 3.203125 44.59375 4.609375 
C 46.703125 8.3125 48 13.9375 48 14.328125 
C 48 14.828125 47.59375 15.234375 47 15.234375 
C 46.09375 15.234375 46 14.828125 45.59375 13.234375 
C 44.203125 8.015625 42.09375 1 37 1 
C 35 1 33.703125 2 33.703125 5.8125 
C 33.703125 7.71875 34.09375 9.921875 34.5 11.421875 
C 34.90625 13.234375 34.90625 13.328125 34.90625 14.53125 
C 34.90625 20.453125 29.59375 23.765625 20.40625 24.96875 
C 24 27.171875 27.59375 31.078125 29 32.59375 
C 34.703125 38.984375 38.59375 41.984375 43.203125 41.984375 
C 45.5 41.984375 46.09375 41.484375 46.796875 41 
C 43.09375 40.59375 41.703125 37.984375 41.703125 35.984375 
C 41.703125 33.59375 43.59375 32.796875 45 32.796875 
C 47.703125 32.796875 50.09375 35.09375 50.09375 38.296875 
C 50.09375 41.15625 47.796875 44 43.296875 44 
C 37.796875 44 33.296875 40.296875 26.203125 32.296875 
C 25.203125 31.078125 21.5 27.28125 17.796875 25.875 
z
" id="CMMI12-107"/>
      <path d="M 36.796875 61.203125 
C 37.703125 64.890625 38.09375 65.09375 42 65.09375 
L 49.203125 65.09375 
C 57.796875 65.09375 64.203125 62.5 64.203125 54.734375 
C 64.203125 49.640625 61.59375 35 41.5 35 
L 30.203125 35 
z
M 50.703125 33.796875 
C 63.09375 36.484375 72.796875 44.46875 72.796875 53.03125 
C 72.796875 60.8125 64.90625 68 51 68 
L 23.90625 68 
C 21.90625 68 21 68 21 66.09375 
C 21 65.09375 21.703125 65.09375 23.59375 65.09375 
C 29.59375 65.09375 29.59375 64.296875 29.59375 63.203125 
C 29.59375 63 29.59375 62.40625 29.203125 60.90625 
L 15.703125 7.421875 
C 14.796875 3.953125 14.59375 2.96875 7.703125 2.96875 
C 5.40625 2.96875 4.703125 2.96875 4.703125 1.078125 
C 4.703125 0.09375 5.796875 0.09375 6.09375 0.09375 
C 7.90625 0.09375 10 0.296875 11.90625 0.296875 
L 23.703125 0.296875 
C 25.5 0.296875 27.59375 0.09375 29.40625 0.09375 
C 30.203125 0.09375 31.296875 0.09375 31.296875 1.96875 
C 31.296875 2.96875 30.40625 2.96875 28.90625 2.96875 
C 22.796875 2.96875 22.796875 3.765625 22.796875 4.75 
C 22.796875 4.84375 22.796875 5.546875 23 6.328125 
L 29.703125 33 
L 41.703125 33 
C 51.203125 33 53 27.046875 53 23.78125 
C 53 22.28125 52 18.421875 51.296875 15.84375 
C 50.203125 11.296875 49.90625 10.203125 49.90625 8.3125 
C 49.90625 1.28125 55.703125 -2 62.40625 -2 
C 70.5 -2 74 7.828125 74 9.203125 
C 74 9.90625 73.5 10.203125 72.90625 10.203125 
C 72.09375 10.203125 71.90625 9.609375 71.703125 8.8125 
C 69.296875 1.78125 65.203125 0 62.703125 0 
C 60.203125 0 58.59375 1.078125 58.59375 5.546875 
C 58.59375 7.921875 59.796875 16.9375 59.90625 17.4375 
C 60.40625 21.09375 60.40625 21.5 60.40625 22.28125 
C 60.40625 29.515625 54.5 32.59375 50.703125 33.796875 
z
" id="CMMI12-82"/>
      <path d="M 64.296875 32 
C 65.796875 32 67.296875 32 67.296875 33.6875 
C 67.296875 35.5 65.59375 35.5 63.90625 35.5 
L 8 35.5 
C 6.296875 35.5 4.59375 35.5 4.59375 33.6875 
C 4.59375 32 6.09375 32 7.59375 32 
z
M 63.90625 14.484375 
C 65.59375 14.484375 67.296875 14.484375 67.296875 16.296875 
C 67.296875 18 65.796875 18 64.296875 18 
L 7.59375 18 
C 6.09375 18 4.59375 18 4.59375 16.296875 
C 4.59375 14.484375 6.296875 14.484375 8 14.484375 
z
" id="CMR17-61"/>
      <path d="M 43.09375 32.390625 
C 43.09375 38.109375 43 48.75 38.90625 56.984375 
C 34.796875 64.890625 28.203125 67 23.5 67 
C 16.703125 67 10.90625 62.984375 7.90625 56.578125 
C 4.703125 49.859375 3.796875 42.9375 3.796875 32.390625 
C 3.796875 25.171875 4.09375 16.34375 7.703125 8.609375 
C 11.796875 0.09375 18.703125 -2 23.40625 -2 
C 29.59375 -2 35.59375 1.296875 39 8.203125 
C 42.5 15.4375 43.09375 23.359375 43.09375 32.390625 
z
M 23.40625 4.09375 
C 15.796875 4.09375 13.5 12.828125 12.796875 15.734375 
C 11.59375 20.75 11.40625 25.5625 11.40625 33.5 
C 11.40625 39.71875 11.40625 46.75 13.296875 52.265625 
C 15.59375 58.6875 19.59375 60.890625 23.40625 60.890625 
C 30.796875 60.890625 33.203125 53.46875 34 50.859375 
C 35.5 45.546875 35.5 39.3125 35.5 33.5 
C 35.5 24.15625 35.5 4.09375 23.40625 4.09375 
z
" id="CMSS17-48"/>
      <path d="M 17 8 
L 9 8 
L 9 0 
L 17 0 
z
" id="CMSS17-46"/>
      <path d="M 28.40625 67 
L 26.5 67 
C 21.09375 61.703125 14.796875 60.96875 8.40625 60.796875 
L 8.40625 55 
C 11.296875 55.09375 16 55.296875 20.703125 57.390625 
L 20.703125 5.796875 
L 8.90625 5.796875 
L 8.90625 0 
L 40.203125 0 
L 40.203125 5.796875 
L 28.40625 5.796875 
z
" id="CMSS17-49"/>
     </defs>
     <g transform="translate(233.187539 227.741355)scale(0.2 -0.2)">
      <use transform="translate(0 14.943915)scale(0.996264)" xlink:href="#CMMI12-107"/>
      <use transform="translate(50.735189 0)scale(0.697382)" xlink:href="#CMMI12-82"/>
      <use transform="translate(131.456759 14.943915)scale(0.996264)" xlink:href="#CMR17-61"/>
      <use transform="translate(203.171548 14.943915)scale(0.996264)" xlink:href="#CMSS17-48"/>
      <use transform="translate(250.015171 14.943915)scale(0.996264)" xlink:href="#CMSS17-46"/>
      <use transform="translate(276.039376 14.943915)scale(0.996264)" xlink:href="#CMSS17-48"/>
      <use transform="translate(322.883 14.943915)scale(0.996264)" xlink:href="#CMSS17-48"/>
      <use transform="translate(369.726623 14.943915)scale(0.996264)" xlink:href="#CMSS17-49"/>
     </g>
    </g>
    <g id="line2d_14">
     <path d="M 177.187539 248.616989 
L 217.187539 248.616989 
" style="fill:none;stroke:#6c6c6c;stroke-linecap:square;stroke-width:5;"/>
    </g>
    <g id="line2d_15"/>
    <g id="text_12">
     <!-- $k_{R}=$0.005 -->
     <defs>
      <path d="M 14.59375 59.59375 
L 39.09375 59.59375 
L 39.09375 66 
L 7.296875 66 
L 7.296875 28.59375 
L 14 28.59375 
C 15.796875 32.859375 19.5 36 24.296875 36 
C 28.796875 36 33.796875 31.9375 33.796875 20.296875 
C 33.796875 7.84375 26.703125 4.1875 21.5 4.1875 
C 15.09375 4.1875 9.203125 8.140625 6.59375 13.609375 
L 3.40625 7.9375 
C 8 0.796875 15.5 -2 21.5 -2 
C 33.09375 -2 42.203125 7.9375 42.203125 20.09375 
C 42.203125 32.546875 34.09375 42.09375 24.40625 42.09375 
C 20.90625 42.09375 17.5 40.890625 14.59375 38.5 
z
" id="CMSS17-53"/>
     </defs>
     <g transform="translate(233.187539 255.616989)scale(0.2 -0.2)">
      <use transform="translate(0 14.943915)scale(0.996264)" xlink:href="#CMMI12-107"/>
      <use transform="translate(50.735189 0)scale(0.697382)" xlink:href="#CMMI12-82"/>
      <use transform="translate(131.456759 14.943915)scale(0.996264)" xlink:href="#CMR17-61"/>
      <use transform="translate(203.171548 14.943915)scale(0.996264)" xlink:href="#CMSS17-48"/>
      <use transform="translate(250.015171 14.943915)scale(0.996264)" xlink:href="#CMSS17-46"/>
      <use transform="translate(276.039376 14.943915)scale(0.996264)" xlink:href="#CMSS17-48"/>
      <use transform="translate(322.883 14.943915)scale(0.996264)" xlink:href="#CMSS17-48"/>
      <use transform="translate(369.726623 14.943915)scale(0.996264)" xlink:href="#CMSS17-53"/>
     </g>
    </g>
    <g id="line2d_16">
     <path d="M 177.187539 276.492623 
L 217.187539 276.492623 
" style="fill:none;stroke:#000000;stroke-linecap:square;stroke-width:5;"/>
    </g>
    <g id="line2d_17"/>
    <g id="text_13">
     <!-- $k_{R}=$0.025 -->
     <defs>
      <path d="M 25.796875 21.140625 
C 28.59375 24.03125 32.796875 27.515625 35.703125 31 
C 38.5 34.390625 42.203125 39.171875 42.203125 46.140625 
C 42.203125 57.109375 34.796875 67 22.203125 67 
C 12.296875 67 6.59375 60.796875 3.90625 51.125 
L 7.796875 45.75 
C 10 54.8125 13.09375 60.59375 20.90625 60.59375 
C 29.5 60.59375 34.296875 53.609375 34.296875 45.9375 
C 34.296875 36.78125 27.296875 29.703125 22 24.421875 
C 16.09375 18.546875 10.296875 12.578125 4.703125 6.390625 
L 4.703125 0 
L 42.203125 0 
L 42.203125 6.796875 
L 25.203125 6.796875 
C 24 6.796875 22.796875 6.6875 21.59375 6.6875 
L 11.59375 6.6875 
L 11.59375 6.796875 
z
" id="CMSS17-50"/>
     </defs>
     <g transform="translate(233.187539 283.492623)scale(0.2 -0.2)">
      <use transform="translate(0 14.943915)scale(0.996264)" xlink:href="#CMMI12-107"/>
      <use transform="translate(50.735189 0)scale(0.697382)" xlink:href="#CMMI12-82"/>
      <use transform="translate(131.456759 14.943915)scale(0.996264)" xlink:href="#CMR17-61"/>
      <use transform="translate(203.171548 14.943915)scale(0.996264)" xlink:href="#CMSS17-48"/>
      <use transform="translate(250.015171 14.943915)scale(0.996264)" xlink:href="#CMSS17-46"/>
      <use transform="translate(276.039376 14.943915)scale(0.996264)" xlink:href="#CMSS17-48"/>
      <use transform="translate(322.883 14.943915)scale(0.996264)" xlink:href="#CMSS17-50"/>
      <use transform="translate(369.726623 14.943915)scale(0.996264)" xlink:href="#CMSS17-53"/>
     </g>
    </g>
   </g>
  </g>
  <g id="axes_2">
   <g id="patch_8">
    <path d="M 101.422543 660.903751 
L 334.9 660.903751 
L 334.9 380.635494 
L 101.422543 380.635494 
z
" style="fill:#ffffff;"/>
   </g>
   <g id="matplotlib.axis_3">
    <g id="xtick_5">
     <g id="line2d_18">
      <g>
       <use style="stroke:#000000;stroke-width:0.8;" x="112.035155" xlink:href="#m02ecbd807b" y="660.903751"/>
      </g>
     </g>
     <g id="text_14">
      <!-- $0$ -->
      <g transform="translate(107.466107 681.740747)scale(0.2 -0.2)">
       <use transform="scale(0.996264)" xlink:href="#CMR17-48"/>
      </g>
     </g>
    </g>
    <g id="xtick_6">
     <g id="line2d_19">
      <g>
       <use style="stroke:#000000;stroke-width:0.8;" x="182.820519" xlink:href="#m02ecbd807b" y="660.903751"/>
      </g>
     </g>
     <g id="text_15">
      <!-- $1$ -->
      <g transform="translate(178.251472 681.740747)scale(0.2 -0.2)">
       <use transform="scale(0.996264)" xlink:href="#CMR17-49"/>
      </g>
     </g>
    </g>
    <g id="xtick_7">
     <g id="line2d_20">
      <g>
       <use style="stroke:#000000;stroke-width:0.8;" x="253.605884" xlink:href="#m02ecbd807b" y="660.903751"/>
      </g>
     </g>
     <g id="text_16">
      <!-- $2$ -->
      <g transform="translate(249.036836 681.740747)scale(0.2 -0.2)">
       <use transform="scale(0.996264)" xlink:href="#CMR17-50"/>
      </g>
     </g>
    </g>
    <g id="xtick_8">
     <g id="line2d_21">
      <g>
       <use style="stroke:#000000;stroke-width:0.8;" x="324.391249" xlink:href="#m02ecbd807b" y="660.903751"/>
      </g>
     </g>
     <g id="text_17">
      <!-- $3$ -->
      <g transform="translate(319.822201 681.740747)scale(0.2 -0.2)">
       <use transform="scale(0.996264)" xlink:href="#CMR17-51"/>
      </g>
     </g>
    </g>
    <g id="text_18">
     <!-- Time -->
     <g transform="translate(197.974452 703.453378)scale(0.2 -0.2)">
      <use transform="scale(0.996264)" xlink:href="#CMSS17-84"/>
      <use transform="translate(63.819454 0)scale(0.996264)" xlink:href="#CMSS17-105"/>
      <use transform="translate(86.000177 0)scale(0.996264)" xlink:href="#CMSS17-109"/>
      <use transform="translate(160.229431 0)scale(0.996264)" xlink:href="#CMSS17-101"/>
     </g>
    </g>
   </g>
   <g id="matplotlib.axis_4">
    <g id="ytick_5">
     <g id="line2d_22">
      <g>
       <use style="stroke:#000000;stroke-width:0.8;" x="101.422543" xlink:href="#me5b9e1d875" y="648.164434"/>
      </g>
     </g>
     <g id="text_19">
      <!-- $0.000$ -->
      <g transform="translate(52.450726 655.082932)scale(0.2 -0.2)">
       <use transform="scale(0.996264)" xlink:href="#CMR17-48"/>
       <use transform="translate(45.690477 0)scale(0.996264)" xlink:href="#CMMI12-58"/>
       <use transform="translate(72.787654 0)scale(0.996264)" xlink:href="#CMR17-48"/>
       <use transform="translate(118.478131 0)scale(0.996264)" xlink:href="#CMR17-48"/>
       <use transform="translate(164.168608 0)scale(0.996264)" xlink:href="#CMR17-48"/>
      </g>
     </g>
    </g>
    <g id="ytick_6">
     <g id="line2d_23">
      <g>
       <use style="stroke:#000000;stroke-width:0.8;" x="101.422543" xlink:href="#me5b9e1d875" y="577.018187"/>
      </g>
     </g>
     <g id="text_20">
      <!-- $0.015$ -->
      <g transform="translate(52.450726 583.936685)scale(0.2 -0.2)">
       <use transform="scale(0.996264)" xlink:href="#CMR17-48"/>
       <use transform="translate(45.690477 0)scale(0.996264)" xlink:href="#CMMI12-58"/>
       <use transform="translate(72.787654 0)scale(0.996264)" xlink:href="#CMR17-48"/>
       <use transform="translate(118.478131 0)scale(0.996264)" xlink:href="#CMR17-49"/>
       <use transform="translate(164.168608 0)scale(0.996264)" xlink:href="#CMR17-53"/>
      </g>
     </g>
    </g>
    <g id="ytick_7">
     <g id="line2d_24">
      <g>
       <use style="stroke:#000000;stroke-width:0.8;" x="101.422543" xlink:href="#me5b9e1d875" y="505.87194"/>
      </g>
     </g>
     <g id="text_21">
      <!-- $0.030$ -->
      <g transform="translate(52.450726 512.790438)scale(0.2 -0.2)">
       <use transform="scale(0.996264)" xlink:href="#CMR17-48"/>
       <use transform="translate(45.690477 0)scale(0.996264)" xlink:href="#CMMI12-58"/>
       <use transform="translate(72.787654 0)scale(0.996264)" xlink:href="#CMR17-48"/>
       <use transform="translate(118.478131 0)scale(0.996264)" xlink:href="#CMR17-51"/>
       <use transform="translate(164.168608 0)scale(0.996264)" xlink:href="#CMR17-48"/>
      </g>
     </g>
    </g>
    <g id="ytick_8">
     <g id="line2d_25">
      <g>
       <use style="stroke:#000000;stroke-width:0.8;" x="101.422543" xlink:href="#me5b9e1d875" y="434.725692"/>
      </g>
     </g>
     <g id="text_22">
      <!-- $0.045$ -->
      <defs>
       <path d="M 33.59375 64.796875 
C 33.59375 66.890625 33.5 67 31.703125 67 
L 2 19.59375 
L 2 17 
L 27.796875 17 
L 27.796875 7.1875 
C 27.796875 3.59375 27.59375 2.59375 20.59375 2.59375 
L 18.703125 2.59375 
L 18.703125 0 
C 21.90625 0.1875 27.296875 0.1875 30.703125 0.1875 
C 34.09375 0.1875 39.5 0.1875 42.703125 0 
L 42.703125 2.59375 
L 40.796875 2.59375 
C 33.796875 2.59375 33.59375 3.59375 33.59375 7.1875 
L 33.59375 17 
L 43.796875 17 
L 43.796875 19.59375 
L 33.59375 19.59375 
z
M 28.09375 58.171875 
L 28.09375 19.59375 
L 4 19.59375 
z
" id="CMR17-52"/>
      </defs>
      <g transform="translate(52.450726 441.644191)scale(0.2 -0.2)">
       <use transform="scale(0.996264)" xlink:href="#CMR17-48"/>
       <use transform="translate(45.690477 0)scale(0.996264)" xlink:href="#CMMI12-58"/>
       <use transform="translate(72.787654 0)scale(0.996264)" xlink:href="#CMR17-48"/>
       <use transform="translate(118.478131 0)scale(0.996264)" xlink:href="#CMR17-52"/>
       <use transform="translate(164.168608 0)scale(0.996264)" xlink:href="#CMR17-53"/>
      </g>
     </g>
    </g>
    <g id="text_23">
     <!-- mRNA concentration at BL -->
     <defs>
      <path d="M 39.40625 32.796875 
L 39.59375 32.890625 
C 55.203125 38.28125 55.296875 48.828125 55.296875 50.6875 
C 55.296875 59.96875 45.703125 69 31.296875 69 
L 8.90625 69 
L 8.90625 0 
L 17.09375 0 
L 17.09375 31.890625 
L 31.796875 31.890625 
L 49.5 0 
L 57.90625 0 
z
M 17.09375 38 
L 17.09375 63.390625 
L 30.203125 63.390625 
C 42.90625 63.390625 47.40625 56.359375 47.40625 50.6875 
C 47.40625 45.421875 43.40625 38 30.203125 38 
z
" id="CMSS17-82"/>
      <path d="M 22.90625 65.296875 
L 21.09375 69 
L 8.796875 69 
L 8.796875 0 
L 16.59375 0 
L 16.59375 61.328125 
L 16.703125 61.421875 
C 17.40625 59.640625 17.796875 58.734375 21.90625 49.890625 
L 43.296875 3.6875 
L 45.09375 0 
L 57.40625 0 
L 57.40625 69 
L 49.59375 69 
L 49.59375 7.65625 
L 49.5 7.5625 
C 48.796875 9.34375 48.40625 10.234375 44.296875 19.09375 
z
" id="CMSS17-78"/>
      <path d="M 35.5 69 
L 26.90625 69 
L 2.59375 0 
L 10.203125 0 
L 17.203125 20 
L 44 20 
L 51.09375 0 
L 59.796875 0 
z
M 42.09375 25.59375 
L 19.09375 25.59375 
C 23.90625 39.53125 29.90625 56.84375 30.59375 61.3125 
L 30.703125 61.3125 
C 31.40625 57.234375 33.40625 51.265625 35.09375 46.1875 
z
" id="CMSS17-65"/>
     </defs>
     <g transform="translate(44.575092 628.598069)rotate(-90)scale(0.2 -0.2)">
      <use transform="scale(0.996264)" xlink:href="#CMSS17-109"/>
      <use transform="translate(74.229254 0)scale(0.996264)" xlink:href="#CMSS17-82"/>
      <use transform="translate(134.645409 0)scale(0.996264)" xlink:href="#CMSS17-78"/>
      <use transform="translate(200.706928 0)scale(0.996264)" xlink:href="#CMSS17-65"/>
      <use transform="translate(294.153896 0)scale(0.996264)" xlink:href="#CMSS17-99"/>
      <use transform="translate(335.792718 0)scale(0.996264)" xlink:href="#CMSS17-111"/>
      <use transform="translate(382.636342 0)scale(0.996264)" xlink:href="#CMSS17-110"/>
      <use transform="translate(430.841285 0)scale(0.996264)" xlink:href="#CMSS17-99"/>
      <use transform="translate(472.480107 0)scale(0.996264)" xlink:href="#CMSS17-101"/>
      <use transform="translate(514.118929 0)scale(0.996264)" xlink:href="#CMSS17-110"/>
      <use transform="translate(562.323872 0)scale(0.996264)" xlink:href="#CMSS17-116"/>
      <use transform="translate(596.155439 0)scale(0.996264)" xlink:href="#CMSS17-114"/>
      <use transform="translate(628.065211 0)scale(0.996264)" xlink:href="#CMSS17-97"/>
      <use transform="translate(672.987132 0)scale(0.996264)" xlink:href="#CMSS17-116"/>
      <use transform="translate(706.818699 0)scale(0.996264)" xlink:href="#CMSS17-105"/>
      <use transform="translate(728.999422 0)scale(0.996264)" xlink:href="#CMSS17-111"/>
      <use transform="translate(775.843045 0)scale(0.996264)" xlink:href="#CMSS17-110"/>
      <use transform="translate(855.277101 0)scale(0.996264)" xlink:href="#CMSS17-97"/>
      <use transform="translate(900.199022 0)scale(0.996264)" xlink:href="#CMSS17-116"/>
      <use transform="translate(965.259701 0)scale(0.996264)" xlink:href="#CMSS17-66"/>
      <use transform="translate(1027.597741 0)scale(0.996264)" xlink:href="#CMSS17-76"/>
     </g>
    </g>
   </g>
   <g id="line2d_26">
    <path clip-path="url(#pd463af76bf)" d="M 112.035155 648.164284 
L 112.049078 648.147948 
L 112.19993 647.950309 
L 113.83437 644.625805 
L 120.596503 627.166798 
L 127.67504 608.610322 
L 134.753576 590.795851 
L 141.832113 573.629545 
L 148.910649 557.094733 
L 155.989186 541.387192 
L 163.067722 526.732259 
L 170.146258 513.268108 
L 177.224795 501.037164 
L 184.303331 490.01423 
L 191.381868 480.134441 
L 198.460404 471.313066 
L 205.538941 463.457762 
L 212.617477 456.475891 
L 219.696014 450.278556 
L 226.77455 444.782714 
L 233.853087 439.912119 
L 240.931623 435.597543 
L 248.01016 431.776615 
L 255.088696 428.393497 
L 262.167233 425.398328 
L 269.245769 422.74674 
L 276.324306 420.399348 
L 283.402842 418.321219 
L 290.481379 416.481397 
L 297.559915 414.852476 
L 304.638451 413.410232 
L 311.716988 412.133179 
L 318.795524 411.002357 
" style="fill:none;stroke:#cecece;stroke-linecap:square;stroke-width:5;"/>
   </g>
   <g id="line2d_27">
    <path clip-path="url(#pd463af76bf)" d="M 112.035155 648.164284 
L 112.049078 648.147948 
L 112.19993 647.9503 
L 113.83437 644.614466 
L 120.596503 626.461519 
L 127.67504 605.366766 
L 134.753576 583.002054 
L 141.832113 560.51894 
L 148.910649 539.195846 
L 155.989186 519.735836 
L 163.067722 502.375618 
L 170.146258 487.096541 
L 177.224795 473.759371 
L 184.303331 462.176521 
L 191.381868 452.14907 
L 198.460404 443.484917 
L 205.538941 436.007119 
L 212.617477 429.556989 
L 219.696014 423.994515 
L 226.77455 419.197407 
L 233.853087 415.059667 
L 240.931623 411.489661 
L 248.01016 408.408495 
L 255.088696 405.748355 
L 262.167233 403.450896 
L 269.245769 401.466079 
L 276.324306 399.750861 
L 283.402842 398.268278 
L 290.481379 396.986543 
L 297.559915 395.87832 
L 304.638451 394.92004 
L 311.716988 394.091418 
L 318.795524 393.374961 
" style="fill:none;stroke:#6c6c6c;stroke-linecap:square;stroke-width:5;"/>
   </g>
   <g id="line2d_28">
    <path clip-path="url(#pd463af76bf)" d="M 112.035155 648.164284 
L 112.049078 648.147948 
L 112.19993 647.950254 
L 113.83437 644.55802 
L 119.406802 627.687519 
L 126.088367 599.277462 
L 133.166904 568.724786 
L 140.24544 542.100725 
L 147.323977 520.217159 
L 154.402513 502.620109 
L 161.481049 488.584054 
L 168.559586 477.413943 
L 175.638122 468.523568 
L 182.716659 461.441211 
L 189.795195 455.794065 
L 196.873732 451.289085 
L 203.952268 447.695808 
L 211.030805 444.832506 
L 218.109341 442.555226 
L 225.187878 440.749505 
L 232.266414 439.323888 
L 239.344951 438.205011 
L 246.423487 437.333841 
L 253.502024 436.662688 
L 260.58056 436.152927 
L 267.659097 435.773247 
L 274.737633 435.498171 
L 281.816169 435.306935 
L 288.894706 435.182649 
L 295.973242 435.111512 
L 303.051779 435.082287 
L 310.130315 435.085821 
L 317.208852 435.114622 
L 324.287388 435.162647 
" style="fill:none;stroke:#000000;stroke-linecap:square;stroke-width:5;"/>
   </g>
   <g id="patch_9">
    <path d="M 101.422543 660.903751 
L 101.422543 380.635494 
" style="fill:none;stroke:#000000;stroke-linecap:square;stroke-linejoin:miter;stroke-width:0.8;"/>
   </g>
   <g id="patch_10">
    <path d="M 334.9 660.903751 
L 334.9 380.635494 
" style="fill:none;stroke:#000000;stroke-linecap:square;stroke-linejoin:miter;stroke-width:0.8;"/>
   </g>
   <g id="patch_11">
    <path d="M 101.422543 660.903751 
L 334.9 660.903751 
" style="fill:none;stroke:#000000;stroke-linecap:square;stroke-linejoin:miter;stroke-width:0.8;"/>
   </g>
   <g id="patch_12">
    <path d="M 101.422543 380.635494 
L 334.9 380.635494 
" style="fill:none;stroke:#000000;stroke-linecap:square;stroke-linejoin:miter;stroke-width:0.8;"/>
   </g>
   <g id="legend_2">
    <g id="patch_13">
     <path d="M 173.187539 650.903751 
L 320.9 650.903751 
Q 324.9 650.903751 324.9 646.903751 
L 324.9 565.27685 
Q 324.9 561.27685 320.9 561.27685 
L 173.187539 561.27685 
Q 169.187539 561.27685 169.187539 565.27685 
L 169.187539 646.903751 
Q 169.187539 650.903751 173.187539 650.903751 
z
" style="fill:#ffffff;opacity:0.8;stroke:#cccccc;stroke-linejoin:miter;"/>
    </g>
    <g id="line2d_29">
     <path d="M 177.187539 576.27685 
L 217.187539 576.27685 
" style="fill:none;stroke:#cecece;stroke-linecap:square;stroke-width:5;"/>
    </g>
    <g id="line2d_30"/>
    <g id="text_24">
     <!-- $k_{R}=$0.001 -->
     <g transform="translate(233.187539 583.27685)scale(0.2 -0.2)">
      <use transform="translate(0 14.943915)scale(0.996264)" xlink:href="#CMMI12-107"/>
      <use transform="translate(50.735189 0)scale(0.697382)" xlink:href="#CMMI12-82"/>
      <use transform="translate(131.456759 14.943915)scale(0.996264)" xlink:href="#CMR17-61"/>
      <use transform="translate(203.171548 14.943915)scale(0.996264)" xlink:href="#CMSS17-48"/>
      <use transform="translate(250.015171 14.943915)scale(0.996264)" xlink:href="#CMSS17-46"/>
      <use transform="translate(276.039376 14.943915)scale(0.996264)" xlink:href="#CMSS17-48"/>
      <use transform="translate(322.883 14.943915)scale(0.996264)" xlink:href="#CMSS17-48"/>
      <use transform="translate(369.726623 14.943915)scale(0.996264)" xlink:href="#CMSS17-49"/>
     </g>
    </g>
    <g id="line2d_31">
     <path d="M 177.187539 604.152483 
L 217.187539 604.152483 
" style="fill:none;stroke:#6c6c6c;stroke-linecap:square;stroke-width:5;"/>
    </g>
    <g id="line2d_32"/>
    <g id="text_25">
     <!-- $k_{R}=$0.005 -->
     <g transform="translate(233.187539 611.152483)scale(0.2 -0.2)">
      <use transform="translate(0 14.943915)scale(0.996264)" xlink:href="#CMMI12-107"/>
      <use transform="translate(50.735189 0)scale(0.697382)" xlink:href="#CMMI12-82"/>
      <use transform="translate(131.456759 14.943915)scale(0.996264)" xlink:href="#CMR17-61"/>
      <use transform="translate(203.171548 14.943915)scale(0.996264)" xlink:href="#CMSS17-48"/>
      <use transform="translate(250.015171 14.943915)scale(0.996264)" xlink:href="#CMSS17-46"/>
      <use transform="translate(276.039376 14.943915)scale(0.996264)" xlink:href="#CMSS17-48"/>
      <use transform="translate(322.883 14.943915)scale(0.996264)" xlink:href="#CMSS17-48"/>
      <use transform="translate(369.726623 14.943915)scale(0.996264)" xlink:href="#CMSS17-53"/>
     </g>
    </g>
    <g id="line2d_33">
     <path d="M 177.187539 632.028117 
L 217.187539 632.028117 
" style="fill:none;stroke:#000000;stroke-linecap:square;stroke-width:5;"/>
    </g>
    <g id="line2d_34"/>
    <g id="text_26">
     <!-- $k_{R}=$0.025 -->
     <g transform="translate(233.187539 639.028117)scale(0.2 -0.2)">
      <use transform="translate(0 14.943915)scale(0.996264)" xlink:href="#CMMI12-107"/>
      <use transform="translate(50.735189 0)scale(0.697382)" xlink:href="#CMMI12-82"/>
      <use transform="translate(131.456759 14.943915)scale(0.996264)" xlink:href="#CMR17-61"/>
      <use transform="translate(203.171548 14.943915)scale(0.996264)" xlink:href="#CMSS17-48"/>
      <use transform="translate(250.015171 14.943915)scale(0.996264)" xlink:href="#CMSS17-46"/>
      <use transform="translate(276.039376 14.943915)scale(0.996264)" xlink:href="#CMSS17-48"/>
      <use transform="translate(322.883 14.943915)scale(0.996264)" xlink:href="#CMSS17-50"/>
      <use transform="translate(369.726623 14.943915)scale(0.996264)" xlink:href="#CMSS17-53"/>
     </g>
    </g>
   </g>
  </g>
  <g id="axes_3">
   <g id="patch_14">
    <path d="M 101.422543 1016.439245 
L 334.9 1016.439245 
L 334.9 736.170989 
L 101.422543 736.170989 
z
" style="fill:#ffffff;"/>
   </g>
   <g id="matplotlib.axis_5">
    <g id="xtick_9">
     <g id="line2d_35">
      <g>
       <use style="stroke:#000000;stroke-width:0.8;" x="112.035155" xlink:href="#m02ecbd807b" y="1016.439245"/>
      </g>
     </g>
     <g id="text_27">
      <!-- $0$ -->
      <g transform="translate(107.466107 1037.276242)scale(0.2 -0.2)">
       <use transform="scale(0.996264)" xlink:href="#CMR17-48"/>
      </g>
     </g>
    </g>
    <g id="xtick_10">
     <g id="line2d_36">
      <g>
       <use style="stroke:#000000;stroke-width:0.8;" x="182.820519" xlink:href="#m02ecbd807b" y="1016.439245"/>
      </g>
     </g>
     <g id="text_28">
      <!-- $1$ -->
      <g transform="translate(178.251472 1037.276242)scale(0.2 -0.2)">
       <use transform="scale(0.996264)" xlink:href="#CMR17-49"/>
      </g>
     </g>
    </g>
    <g id="xtick_11">
     <g id="line2d_37">
      <g>
       <use style="stroke:#000000;stroke-width:0.8;" x="253.605884" xlink:href="#m02ecbd807b" y="1016.439245"/>
      </g>
     </g>
     <g id="text_29">
      <!-- $2$ -->
      <g transform="translate(249.036836 1037.276242)scale(0.2 -0.2)">
       <use transform="scale(0.996264)" xlink:href="#CMR17-50"/>
      </g>
     </g>
    </g>
    <g id="xtick_12">
     <g id="line2d_38">
      <g>
       <use style="stroke:#000000;stroke-width:0.8;" x="324.391249" xlink:href="#m02ecbd807b" y="1016.439245"/>
      </g>
     </g>
     <g id="text_30">
      <!-- $3$ -->
      <g transform="translate(319.822201 1037.276242)scale(0.2 -0.2)">
       <use transform="scale(0.996264)" xlink:href="#CMR17-51"/>
      </g>
     </g>
    </g>
    <g id="text_31">
     <!-- Time -->
     <g transform="translate(197.974452 1058.988872)scale(0.2 -0.2)">
      <use transform="scale(0.996264)" xlink:href="#CMSS17-84"/>
      <use transform="translate(63.819454 0)scale(0.996264)" xlink:href="#CMSS17-105"/>
      <use transform="translate(86.000177 0)scale(0.996264)" xlink:href="#CMSS17-109"/>
      <use transform="translate(160.229431 0)scale(0.996264)" xlink:href="#CMSS17-101"/>
     </g>
    </g>
   </g>
   <g id="matplotlib.axis_6">
    <g id="ytick_9">
     <g id="line2d_39">
      <g>
       <use style="stroke:#000000;stroke-width:0.8;" x="101.422543" xlink:href="#me5b9e1d875" y="990.158209"/>
      </g>
     </g>
     <g id="text_32">
      <!-- $0.0004$ -->
      <g transform="translate(43.31263 997.076707)scale(0.2 -0.2)">
       <use transform="scale(0.996264)" xlink:href="#CMR17-48"/>
       <use transform="translate(45.690477 0)scale(0.996264)" xlink:href="#CMMI12-58"/>
       <use transform="translate(72.787654 0)scale(0.996264)" xlink:href="#CMR17-48"/>
       <use transform="translate(118.478131 0)scale(0.996264)" xlink:href="#CMR17-48"/>
       <use transform="translate(164.168608 0)scale(0.996264)" xlink:href="#CMR17-48"/>
       <use transform="translate(209.859086 0)scale(0.996264)" xlink:href="#CMR17-52"/>
      </g>
     </g>
    </g>
    <g id="ytick_10">
     <g id="line2d_40">
      <g>
       <use style="stroke:#000000;stroke-width:0.8;" x="101.422543" xlink:href="#me5b9e1d875" y="926.565506"/>
      </g>
     </g>
     <g id="text_33">
      <!-- $0.0008$ -->
      <defs>
       <path d="M 27.203125 35.765625 
C 33.5 38.96875 39.90625 43.796875 39.90625 51.53125 
C 39.90625 60.6875 31.09375 66 23 66 
C 13.90625 66 5.90625 59.375 5.90625 50.234375 
C 5.90625 47.71875 6.5 43.390625 10.40625 39.578125 
C 11.40625 38.578125 15.59375 35.5625 18.296875 33.65625 
C 13.796875 31.34375 3.296875 25.8125 3.296875 14.765625 
C 3.296875 4.40625 13.09375 -2 22.796875 -2 
C 33.5 -2 42.5 5.71875 42.5 15.96875 
C 42.5 25.109375 36.40625 29.328125 32.40625 32.046875 
z
M 14.09375 44.609375 
C 13.296875 45.109375 9.296875 48.21875 9.296875 52.9375 
C 9.296875 59.078125 15.59375 63.6875 22.796875 63.6875 
C 30.703125 63.6875 36.5 58.0625 36.5 51.53125 
C 36.5 42.1875 26.09375 36.859375 25.59375 36.859375 
C 25.5 36.859375 25.40625 36.859375 24.59375 37.46875 
z
M 32.5 24 
C 34 22.90625 38.796875 19.578125 38.796875 13.453125 
C 38.796875 6.015625 31.40625 0.390625 23 0.390625 
C 13.90625 0.390625 7 6.921875 7 14.859375 
C 7 22.796875 13.09375 29.4375 20 32.546875 
z
" id="CMR17-56"/>
      </defs>
      <g transform="translate(43.31263 933.484004)scale(0.2 -0.2)">
       <use transform="scale(0.996264)" xlink:href="#CMR17-48"/>
       <use transform="translate(45.690477 0)scale(0.996264)" xlink:href="#CMMI12-58"/>
       <use transform="translate(72.787654 0)scale(0.996264)" xlink:href="#CMR17-48"/>
       <use transform="translate(118.478131 0)scale(0.996264)" xlink:href="#CMR17-48"/>
       <use transform="translate(164.168608 0)scale(0.996264)" xlink:href="#CMR17-48"/>
       <use transform="translate(209.859086 0)scale(0.996264)" xlink:href="#CMR17-56"/>
      </g>
     </g>
    </g>
    <g id="ytick_11">
     <g id="line2d_41">
      <g>
       <use style="stroke:#000000;stroke-width:0.8;" x="101.422543" xlink:href="#me5b9e1d875" y="862.972803"/>
      </g>
     </g>
     <g id="text_34">
      <!-- $0.0012$ -->
      <g transform="translate(43.31263 869.891301)scale(0.2 -0.2)">
       <use transform="scale(0.996264)" xlink:href="#CMR17-48"/>
       <use transform="translate(45.690477 0)scale(0.996264)" xlink:href="#CMMI12-58"/>
       <use transform="translate(72.787654 0)scale(0.996264)" xlink:href="#CMR17-48"/>
       <use transform="translate(118.478131 0)scale(0.996264)" xlink:href="#CMR17-48"/>
       <use transform="translate(164.168608 0)scale(0.996264)" xlink:href="#CMR17-49"/>
       <use transform="translate(209.859086 0)scale(0.996264)" xlink:href="#CMR17-50"/>
      </g>
     </g>
    </g>
    <g id="ytick_12">
     <g id="line2d_42">
      <g>
       <use style="stroke:#000000;stroke-width:0.8;" x="101.422543" xlink:href="#me5b9e1d875" y="799.3801"/>
      </g>
     </g>
     <g id="text_35">
      <!-- $0.0016$ -->
      <defs>
       <path d="M 10.59375 34.34375 
C 10.59375 58 21.796875 63.6875 28.296875 63.6875 
C 30.40625 63.6875 35.5 63.265625 37.5 59.09375 
C 35.90625 59.09375 32.90625 59.09375 32.90625 55.59375 
C 32.90625 52.890625 35.09375 52 36.5 52 
C 37.40625 52 40.09375 52.390625 40.09375 55.796875 
C 40.09375 62.296875 35.09375 66 28.203125 66 
C 16.296875 66 3.796875 53.296875 3.796875 31.421875 
C 3.796875 4.015625 15.09375 -2 23.09375 -2 
C 32.796875 -2 42 6.734375 42 20.234375 
C 42 32.828125 33.90625 42 23.703125 42 
C 17.59375 42 13.09375 37.96875 10.59375 30.921875 
z
M 23.09375 0.390625 
C 10.796875 0.390625 10.796875 18.9375 10.796875 22.65625 
C 10.796875 29.90625 14.203125 40.390625 23.5 40.390625 
C 25.203125 40.390625 30.09375 40.390625 33.40625 33.4375 
C 35.203125 29.515625 35.203125 25.375 35.203125 20.34375 
C 35.203125 14.90625 35.203125 10.875 33.09375 6.84375 
C 30.90625 2.703125 27.703125 0.390625 23.09375 0.390625 
z
" id="CMR17-54"/>
      </defs>
      <g transform="translate(43.31263 806.298599)scale(0.2 -0.2)">
       <use transform="scale(0.996264)" xlink:href="#CMR17-48"/>
       <use transform="translate(45.690477 0)scale(0.996264)" xlink:href="#CMMI12-58"/>
       <use transform="translate(72.787654 0)scale(0.996264)" xlink:href="#CMR17-48"/>
       <use transform="translate(118.478131 0)scale(0.996264)" xlink:href="#CMR17-48"/>
       <use transform="translate(164.168608 0)scale(0.996264)" xlink:href="#CMR17-49"/>
       <use transform="translate(209.859086 0)scale(0.996264)" xlink:href="#CMR17-54"/>
      </g>
     </g>
    </g>
    <g id="ytick_13">
     <g id="line2d_43">
      <g>
       <use style="stroke:#000000;stroke-width:0.8;" x="101.422543" xlink:href="#me5b9e1d875" y="735.787398"/>
      </g>
     </g>
     <g id="text_36">
      <!-- $0.0020$ -->
      <g transform="translate(43.31263 742.705896)scale(0.2 -0.2)">
       <use transform="scale(0.996264)" xlink:href="#CMR17-48"/>
       <use transform="translate(45.690477 0)scale(0.996264)" xlink:href="#CMMI12-58"/>
       <use transform="translate(72.787654 0)scale(0.996264)" xlink:href="#CMR17-48"/>
       <use transform="translate(118.478131 0)scale(0.996264)" xlink:href="#CMR17-48"/>
       <use transform="translate(164.168608 0)scale(0.996264)" xlink:href="#CMR17-50"/>
       <use transform="translate(209.859086 0)scale(0.996264)" xlink:href="#CMR17-48"/>
      </g>
     </g>
    </g>
    <g id="text_37">
     <!-- mRNA production rate -->
     <defs>
      <path d="M 15.09375 4.296875 
C 18.40625 1.09375 22.90625 -1 27.703125 -1 
C 37 -1 45 8.640625 45 21.59375 
C 45 33.546875 39 44 30.40625 44 
C 25.40625 44 19.40625 42.1875 14.90625 38.59375 
L 14.90625 43.1875 
L 7.5 43.1875 
L 7.5 -20 
L 15.09375 -20 
z
M 15.09375 32.625 
C 15.90625 33.84375 19.296875 37.6875 24.796875 37.6875 
C 31.796875 37.6875 37.40625 30.40625 37.40625 21.59375 
C 37.40625 11.578125 30.59375 5.09375 23.90625 5.09375 
C 21.90625 5.09375 19.796875 5.59375 17.796875 7.3125 
C 15.09375 9.75 15.09375 11.265625 15.09375 12.6875 
z
" id="CMSS17-112"/>
      <path d="M 40.796875 69 
L 33.40625 69 
L 33.40625 38.984375 
C 30.296875 41.59375 25.203125 44 19.59375 44 
C 10.5 44 3.296875 34.046875 3.296875 21.484375 
C 3.296875 8.9375 10.40625 -1 19.296875 -1 
C 26.203125 -1 30.796875 2.6875 33.203125 4.796875 
L 33.203125 -0.203125 
L 40.796875 -0.203125 
z
M 33.203125 13.296875 
C 33.203125 11.875 33.203125 10.359375 30.09375 7.625 
C 28.09375 5.90625 25.703125 5.09375 23.40625 5.09375 
C 18 5.09375 10.90625 9.140625 10.90625 21.390625 
C 10.90625 34.140625 18.90625 37.890625 24.40625 37.890625 
C 28.09375 37.890625 31.09375 36.0625 33.203125 33.03125 
z
" id="CMSS17-100"/>
      <path d="M 40.90625 43 
L 33.296875 43 
L 33.296875 15.25 
C 33.296875 7.8125 27.90625 4.796875 22.203125 4.796875 
C 15.59375 4.796875 15 7 15 11.125 
L 15 43 
L 7.40625 43 
L 7.40625 10.625 
C 7.40625 2.796875 10.09375 -1 17 -1 
C 20.40625 -1 28.09375 -0.203125 33.5 4.796875 
L 33.5 -0.203125 
L 40.90625 -0.203125 
z
" id="CMSS17-117"/>
     </defs>
     <g transform="translate(35.436997 965.680378)rotate(-90)scale(0.2 -0.2)">
      <use transform="scale(0.996264)" xlink:href="#CMSS17-109"/>
      <use transform="translate(74.229254 0)scale(0.996264)" xlink:href="#CMSS17-82"/>
      <use transform="translate(134.645409 0)scale(0.996264)" xlink:href="#CMSS17-78"/>
      <use transform="translate(200.706928 0)scale(0.996264)" xlink:href="#CMSS17-65"/>
      <use transform="translate(294.153896 0)scale(0.996264)" xlink:href="#CMSS17-112"/>
      <use transform="translate(339.756385 0)scale(0.996264)" xlink:href="#CMSS17-114"/>
      <use transform="translate(371.666158 0)scale(0.996264)" xlink:href="#CMSS17-111"/>
      <use transform="translate(421.11222 0)scale(0.996264)" xlink:href="#CMSS17-100"/>
      <use transform="translate(469.317163 0)scale(0.996264)" xlink:href="#CMSS17-117"/>
      <use transform="translate(517.522106 0)scale(0.996264)" xlink:href="#CMSS17-99"/>
      <use transform="translate(559.160929 0)scale(0.996264)" xlink:href="#CMSS17-116"/>
      <use transform="translate(592.992495 0)scale(0.996264)" xlink:href="#CMSS17-105"/>
      <use transform="translate(615.173218 0)scale(0.996264)" xlink:href="#CMSS17-111"/>
      <use transform="translate(662.016842 0)scale(0.996264)" xlink:href="#CMSS17-110"/>
      <use transform="translate(741.450898 0)scale(0.996264)" xlink:href="#CMSS17-114"/>
      <use transform="translate(773.36067 0)scale(0.996264)" xlink:href="#CMSS17-97"/>
      <use transform="translate(818.282591 0)scale(0.996264)" xlink:href="#CMSS17-116"/>
      <use transform="translate(852.114157 0)scale(0.996264)" xlink:href="#CMSS17-101"/>
     </g>
    </g>
   </g>
   <g id="line2d_44">
    <path clip-path="url(#p7d357bbd9d)" d="M 112.035155 1003.699779 
L 112.049078 1002.61646 
L 112.19993 992.60882 
L 113.83437 946.700674 
L 120.596503 902.240356 
L 127.67504 883.92116 
L 134.753576 867.634752 
L 141.832113 851.419507 
L 148.910649 836.657911 
L 155.989186 824.328273 
L 163.067722 814.382491 
L 170.146258 806.397474 
L 177.224795 799.950521 
L 184.303331 794.705711 
L 191.381868 790.408581 
L 198.460404 786.86663 
L 205.538941 783.932293 
L 212.617477 781.490988 
L 219.696014 779.452508 
L 226.77455 777.745153 
L 233.853087 776.311364 
L 240.931623 775.104629 
L 248.01016 774.087101 
L 255.088696 773.227705 
L 262.167233 772.500955 
L 269.245769 771.885807 
L 276.324306 771.36468 
L 283.402842 770.923007 
L 290.481379 770.548555 
L 297.559915 770.23107 
L 304.638451 769.961984 
L 311.716988 769.734003 
L 318.795524 769.540929 
" style="fill:none;stroke:#cecfe5;stroke-linecap:square;stroke-width:5;"/>
   </g>
   <g id="line2d_45">
    <path clip-path="url(#p7d357bbd9d)" d="M 112.035155 1003.699779 
L 112.049078 1002.616409 
L 112.19993 992.602259 
L 113.83437 945.965558 
L 120.596503 891.674087 
L 127.67504 856.038768 
L 134.753576 823.485441 
L 141.832113 799.539441 
L 148.910649 783.223403 
L 155.989186 772.119636 
L 163.067722 764.495783 
L 170.146258 759.235001 
L 177.224795 755.606803 
L 184.303331 753.120357 
L 191.381868 751.438691 
L 198.460404 750.327032 
L 205.538941 749.620048 
L 212.617477 749.20027 
L 219.696014 748.983839 
L 226.77455 748.910455 
L 233.853087 748.936681 
L 240.931623 749.031071 
L 248.01016 749.170898 
L 255.088696 749.339727 
L 262.167233 749.525565 
L 269.245769 749.719935 
L 276.324306 749.916638 
L 283.402842 750.111415 
L 290.481379 750.30125 
L 297.559915 750.48409 
L 304.638451 750.658638 
L 311.716988 750.824136 
L 318.795524 750.980158 
" style="fill:none;stroke:#7b74b5;stroke-linecap:square;stroke-width:5;"/>
   </g>
   <g id="line2d_46">
    <path clip-path="url(#p7d357bbd9d)" d="M 112.035155 1003.699779 
L 112.049078 1002.616182 
L 112.19993 992.56949 
L 113.83437 942.303444 
L 119.406802 855.238393 
L 126.088367 781.809713 
L 133.166904 758.807339 
L 140.24544 757.281084 
L 147.323977 762.418769 
L 154.402513 769.157556 
L 161.481049 775.773764 
L 168.559586 781.731036 
L 175.638122 786.924467 
L 182.716659 791.398403 
L 189.795195 795.240368 
L 196.873732 798.542069 
L 203.952268 801.386531 
L 211.030805 803.844863 
L 218.109341 805.976678 
L 225.187878 807.831467 
L 232.266414 809.450336 
L 239.344951 810.867431 
L 246.423487 812.111256 
L 253.502024 813.205647 
L 260.58056 814.170761 
L 267.659097 815.023587 
L 274.737633 815.778617 
L 281.816169 816.448178 
L 288.894706 817.042855 
L 295.973242 817.571793 
L 303.051779 818.042819 
L 310.130315 818.462782 
L 317.208852 818.837623 
L 324.287388 819.172487 
" style="fill:none;stroke:#3f007d;stroke-linecap:square;stroke-width:5;"/>
   </g>
   <g id="patch_15">
    <path d="M 101.422543 1016.439245 
L 101.422543 736.170989 
" style="fill:none;stroke:#000000;stroke-linecap:square;stroke-linejoin:miter;stroke-width:0.8;"/>
   </g>
   <g id="patch_16">
    <path d="M 334.9 1016.439245 
L 334.9 736.170989 
" style="fill:none;stroke:#000000;stroke-linecap:square;stroke-linejoin:miter;stroke-width:0.8;"/>
   </g>
   <g id="patch_17">
    <path d="M 101.422543 1016.439245 
L 334.9 1016.439245 
" style="fill:none;stroke:#000000;stroke-linecap:square;stroke-linejoin:miter;stroke-width:0.8;"/>
   </g>
   <g id="patch_18">
    <path d="M 101.422543 736.170989 
L 334.9 736.170989 
" style="fill:none;stroke:#000000;stroke-linecap:square;stroke-linejoin:miter;stroke-width:0.8;"/>
   </g>
   <g id="legend_3">
    <g id="patch_19">
     <path d="M 173.187539 1006.439245 
L 320.9 1006.439245 
Q 324.9 1006.439245 324.9 1002.439245 
L 324.9 920.812344 
Q 324.9 916.812344 320.9 916.812344 
L 173.187539 916.812344 
Q 169.187539 916.812344 169.187539 920.812344 
L 169.187539 1002.439245 
Q 169.187539 1006.439245 173.187539 1006.439245 
z
" style="fill:#ffffff;opacity:0.8;stroke:#cccccc;stroke-linejoin:miter;"/>
    </g>
    <g id="line2d_47">
     <path d="M 177.187539 931.812344 
L 217.187539 931.812344 
" style="fill:none;stroke:#cecfe5;stroke-linecap:square;stroke-width:5;"/>
    </g>
    <g id="line2d_48"/>
    <g id="text_38">
     <!-- $k_{R}=$0.001 -->
     <g transform="translate(233.187539 938.812344)scale(0.2 -0.2)">
      <use transform="translate(0 14.943915)scale(0.996264)" xlink:href="#CMMI12-107"/>
      <use transform="translate(50.735189 0)scale(0.697382)" xlink:href="#CMMI12-82"/>
      <use transform="translate(131.456759 14.943915)scale(0.996264)" xlink:href="#CMR17-61"/>
      <use transform="translate(203.171548 14.943915)scale(0.996264)" xlink:href="#CMSS17-48"/>
      <use transform="translate(250.015171 14.943915)scale(0.996264)" xlink:href="#CMSS17-46"/>
      <use transform="translate(276.039376 14.943915)scale(0.996264)" xlink:href="#CMSS17-48"/>
      <use transform="translate(322.883 14.943915)scale(0.996264)" xlink:href="#CMSS17-48"/>
      <use transform="translate(369.726623 14.943915)scale(0.996264)" xlink:href="#CMSS17-49"/>
     </g>
    </g>
    <g id="line2d_49">
     <path d="M 177.187539 959.687978 
L 217.187539 959.687978 
" style="fill:none;stroke:#7b74b5;stroke-linecap:square;stroke-width:5;"/>
    </g>
    <g id="line2d_50"/>
    <g id="text_39">
     <!-- $k_{R}=$0.005 -->
     <g transform="translate(233.187539 966.687978)scale(0.2 -0.2)">
      <use transform="translate(0 14.943915)scale(0.996264)" xlink:href="#CMMI12-107"/>
      <use transform="translate(50.735189 0)scale(0.697382)" xlink:href="#CMMI12-82"/>
      <use transform="translate(131.456759 14.943915)scale(0.996264)" xlink:href="#CMR17-61"/>
      <use transform="translate(203.171548 14.943915)scale(0.996264)" xlink:href="#CMSS17-48"/>
      <use transform="translate(250.015171 14.943915)scale(0.996264)" xlink:href="#CMSS17-46"/>
      <use transform="translate(276.039376 14.943915)scale(0.996264)" xlink:href="#CMSS17-48"/>
      <use transform="translate(322.883 14.943915)scale(0.996264)" xlink:href="#CMSS17-48"/>
      <use transform="translate(369.726623 14.943915)scale(0.996264)" xlink:href="#CMSS17-53"/>
     </g>
    </g>
    <g id="line2d_51">
     <path d="M 177.187539 987.563611 
L 217.187539 987.563611 
" style="fill:none;stroke:#3f007d;stroke-linecap:square;stroke-width:5;"/>
    </g>
    <g id="line2d_52"/>
    <g id="text_40">
     <!-- $k_{R}=$0.025 -->
     <g transform="translate(233.187539 994.563611)scale(0.2 -0.2)">
      <use transform="translate(0 14.943915)scale(0.996264)" xlink:href="#CMMI12-107"/>
      <use transform="translate(50.735189 0)scale(0.697382)" xlink:href="#CMMI12-82"/>
      <use transform="translate(131.456759 14.943915)scale(0.996264)" xlink:href="#CMR17-61"/>
      <use transform="translate(203.171548 14.943915)scale(0.996264)" xlink:href="#CMSS17-48"/>
      <use transform="translate(250.015171 14.943915)scale(0.996264)" xlink:href="#CMSS17-46"/>
      <use transform="translate(276.039376 14.943915)scale(0.996264)" xlink:href="#CMSS17-48"/>
      <use transform="translate(322.883 14.943915)scale(0.996264)" xlink:href="#CMSS17-50"/>
      <use transform="translate(369.726623 14.943915)scale(0.996264)" xlink:href="#CMSS17-53"/>
     </g>
    </g>
   </g>
  </g>
  <g id="axes_4">
   <g id="patch_20">
    <path d="M 101.422543 1371.974739 
L 334.9 1371.974739 
L 334.9 1091.706483 
L 101.422543 1091.706483 
z
" style="fill:#ffffff;"/>
   </g>
   <g id="matplotlib.axis_7">
    <g id="xtick_13">
     <g id="line2d_53">
      <g>
       <use style="stroke:#000000;stroke-width:0.8;" x="112.035155" xlink:href="#m02ecbd807b" y="1371.974739"/>
      </g>
     </g>
     <g id="text_41">
      <!-- $0$ -->
      <g transform="translate(107.466107 1392.811736)scale(0.2 -0.2)">
       <use transform="scale(0.996264)" xlink:href="#CMR17-48"/>
      </g>
     </g>
    </g>
    <g id="xtick_14">
     <g id="line2d_54">
      <g>
       <use style="stroke:#000000;stroke-width:0.8;" x="182.820519" xlink:href="#m02ecbd807b" y="1371.974739"/>
      </g>
     </g>
     <g id="text_42">
      <!-- $1$ -->
      <g transform="translate(178.251472 1392.811736)scale(0.2 -0.2)">
       <use transform="scale(0.996264)" xlink:href="#CMR17-49"/>
      </g>
     </g>
    </g>
    <g id="xtick_15">
     <g id="line2d_55">
      <g>
       <use style="stroke:#000000;stroke-width:0.8;" x="253.605884" xlink:href="#m02ecbd807b" y="1371.974739"/>
      </g>
     </g>
     <g id="text_43">
      <!-- $2$ -->
      <g transform="translate(249.036836 1392.811736)scale(0.2 -0.2)">
       <use transform="scale(0.996264)" xlink:href="#CMR17-50"/>
      </g>
     </g>
    </g>
    <g id="xtick_16">
     <g id="line2d_56">
      <g>
       <use style="stroke:#000000;stroke-width:0.8;" x="324.391249" xlink:href="#m02ecbd807b" y="1371.974739"/>
      </g>
     </g>
     <g id="text_44">
      <!-- $3$ -->
      <g transform="translate(319.822201 1392.811736)scale(0.2 -0.2)">
       <use transform="scale(0.996264)" xlink:href="#CMR17-51"/>
      </g>
     </g>
    </g>
    <g id="text_45">
     <!-- Time -->
     <g transform="translate(197.974452 1414.524366)scale(0.2 -0.2)">
      <use transform="scale(0.996264)" xlink:href="#CMSS17-84"/>
      <use transform="translate(63.819454 0)scale(0.996264)" xlink:href="#CMSS17-105"/>
      <use transform="translate(86.000177 0)scale(0.996264)" xlink:href="#CMSS17-109"/>
      <use transform="translate(160.229431 0)scale(0.996264)" xlink:href="#CMSS17-101"/>
     </g>
    </g>
   </g>
   <g id="matplotlib.axis_8">
    <g id="ytick_14">
     <g id="line2d_57">
      <g>
       <use style="stroke:#000000;stroke-width:0.8;" x="101.422543" xlink:href="#me5b9e1d875" y="1362.36832"/>
      </g>
     </g>
     <g id="text_46">
      <!-- $0.0003$ -->
      <g transform="translate(43.31263 1369.286818)scale(0.2 -0.2)">
       <use transform="scale(0.996264)" xlink:href="#CMR17-48"/>
       <use transform="translate(45.690477 0)scale(0.996264)" xlink:href="#CMMI12-58"/>
       <use transform="translate(72.787654 0)scale(0.996264)" xlink:href="#CMR17-48"/>
       <use transform="translate(118.478131 0)scale(0.996264)" xlink:href="#CMR17-48"/>
       <use transform="translate(164.168608 0)scale(0.996264)" xlink:href="#CMR17-48"/>
       <use transform="translate(209.859086 0)scale(0.996264)" xlink:href="#CMR17-51"/>
      </g>
     </g>
    </g>
    <g id="ytick_15">
     <g id="line2d_58">
      <g>
       <use style="stroke:#000000;stroke-width:0.8;" x="101.422543" xlink:href="#me5b9e1d875" y="1298.956921"/>
      </g>
     </g>
     <g id="text_47">
      <!-- $0.0006$ -->
      <g transform="translate(43.31263 1305.875419)scale(0.2 -0.2)">
       <use transform="scale(0.996264)" xlink:href="#CMR17-48"/>
       <use transform="translate(45.690477 0)scale(0.996264)" xlink:href="#CMMI12-58"/>
       <use transform="translate(72.787654 0)scale(0.996264)" xlink:href="#CMR17-48"/>
       <use transform="translate(118.478131 0)scale(0.996264)" xlink:href="#CMR17-48"/>
       <use transform="translate(164.168608 0)scale(0.996264)" xlink:href="#CMR17-48"/>
       <use transform="translate(209.859086 0)scale(0.996264)" xlink:href="#CMR17-54"/>
      </g>
     </g>
    </g>
    <g id="ytick_16">
     <g id="line2d_59">
      <g>
       <use style="stroke:#000000;stroke-width:0.8;" x="101.422543" xlink:href="#me5b9e1d875" y="1235.545522"/>
      </g>
     </g>
     <g id="text_48">
      <!-- $0.0009$ -->
      <defs>
       <path d="M 35.203125 29.234375 
C 35.203125 7 26.09375 0.390625 18.59375 0.390625 
C 16.296875 0.390625 10.703125 0.671875 8.40625 4.390625 
C 11 4 12.90625 5.390625 12.90625 7.890625 
C 12.90625 10.59375 10.703125 11.5 9.296875 11.5 
C 8.40625 11.5 5.703125 11.09375 5.703125 7.6875 
C 5.703125 1.0625 11.59375 -2 18.796875 -2 
C 30.296875 -2 42 10.390625 42 32.65625 
C 42 60.265625 30.796875 66 23.203125 66 
C 13.296875 66 3.796875 57.25 3.796875 43.75 
C 3.796875 31.25 11.90625 22 22.09375 22 
C 30.5 22 34.203125 29.84375 35.203125 33.15625 
z
M 22.296875 23.59375 
C 19.59375 23.59375 15.796875 24.09375 12.703125 30.140625 
C 10.59375 34.078125 10.59375 38.703125 10.59375 43.640625 
C 10.59375 49.59375 10.59375 53.71875 13.40625 58.15625 
C 14.796875 60.265625 17.40625 63.6875 23.203125 63.6875 
C 35 63.6875 35 45.453125 35 41.421875 
C 35 34.265625 31.796875 23.59375 22.296875 23.59375 
z
" id="CMR17-57"/>
      </defs>
      <g transform="translate(43.31263 1242.46402)scale(0.2 -0.2)">
       <use transform="scale(0.996264)" xlink:href="#CMR17-48"/>
       <use transform="translate(45.690477 0)scale(0.996264)" xlink:href="#CMMI12-58"/>
       <use transform="translate(72.787654 0)scale(0.996264)" xlink:href="#CMR17-48"/>
       <use transform="translate(118.478131 0)scale(0.996264)" xlink:href="#CMR17-48"/>
       <use transform="translate(164.168608 0)scale(0.996264)" xlink:href="#CMR17-48"/>
       <use transform="translate(209.859086 0)scale(0.996264)" xlink:href="#CMR17-57"/>
      </g>
     </g>
    </g>
    <g id="ytick_17">
     <g id="line2d_60">
      <g>
       <use style="stroke:#000000;stroke-width:0.8;" x="101.422543" xlink:href="#me5b9e1d875" y="1172.134122"/>
      </g>
     </g>
     <g id="text_49">
      <!-- $0.0012$ -->
      <g transform="translate(43.31263 1179.052621)scale(0.2 -0.2)">
       <use transform="scale(0.996264)" xlink:href="#CMR17-48"/>
       <use transform="translate(45.690477 0)scale(0.996264)" xlink:href="#CMMI12-58"/>
       <use transform="translate(72.787654 0)scale(0.996264)" xlink:href="#CMR17-48"/>
       <use transform="translate(118.478131 0)scale(0.996264)" xlink:href="#CMR17-48"/>
       <use transform="translate(164.168608 0)scale(0.996264)" xlink:href="#CMR17-49"/>
       <use transform="translate(209.859086 0)scale(0.996264)" xlink:href="#CMR17-50"/>
      </g>
     </g>
    </g>
    <g id="ytick_18">
     <g id="line2d_61">
      <g>
       <use style="stroke:#000000;stroke-width:0.8;" x="101.422543" xlink:href="#me5b9e1d875" y="1108.722723"/>
      </g>
     </g>
     <g id="text_50">
      <!-- $0.0015$ -->
      <g transform="translate(43.31263 1115.641221)scale(0.2 -0.2)">
       <use transform="scale(0.996264)" xlink:href="#CMR17-48"/>
       <use transform="translate(45.690477 0)scale(0.996264)" xlink:href="#CMMI12-58"/>
       <use transform="translate(72.787654 0)scale(0.996264)" xlink:href="#CMR17-48"/>
       <use transform="translate(118.478131 0)scale(0.996264)" xlink:href="#CMR17-48"/>
       <use transform="translate(164.168608 0)scale(0.996264)" xlink:href="#CMR17-49"/>
       <use transform="translate(209.859086 0)scale(0.996264)" xlink:href="#CMR17-53"/>
      </g>
     </g>
    </g>
    <g id="text_51">
     <!-- Rate of mRNA change -->
     <defs>
      <path d="M 16.796875 37.1875 
L 26.90625 37.1875 
L 26.90625 43 
L 16.59375 43 
L 16.59375 55.671875 
C 16.59375 62.703125 22 63.890625 25.09375 63.890625 
C 26.09375 63.890625 28.90625 63.890625 32.5 62.609375 
L 32.5 69.1875 
C 30.203125 69.6875 27.40625 70 25.203125 70 
C 15.90625 70 9.40625 62.40625 9.40625 52.59375 
L 9.40625 43 
L 2.5 43 
L 2.5 37.1875 
L 9.40625 37.1875 
L 9.40625 0 
L 16.796875 0 
z
" id="CMSS17-102"/>
      <path d="M 40.90625 29.34375 
C 40.90625 35.671875 39.40625 44 28.09375 44 
C 21.796875 44 17.703125 40.890625 14.796875 37.484375 
L 14.796875 69 
L 7.40625 69 
L 7.40625 0 
L 15 0 
L 15 24.3125 
C 15 30.65625 17.40625 37.890625 24.203125 37.890625 
C 33 37.890625 33.296875 31.953125 33.296875 28.53125 
L 33.296875 0 
L 40.90625 0 
z
" id="CMSS17-104"/>
      <path d="M 44.5 44 
C 38.796875 43.890625 33.90625 42.796875 29.90625 40.890625 
C 26.59375 43.484375 23.203125 44 20.90625 44 
C 12.203125 44 5.59375 36.8125 5.59375 28.5 
C 5.59375 23.140625 8.59375 19.09375 8.796875 18.890625 
C 7 16.390625 6 13.6875 6 10.6875 
C 6 7.1875 7.40625 4.6875 8.5 3.296875 
C 3.296875 0.09375 2.59375 -4.8125 2.59375 -6.703125 
C 2.59375 -14 11.703125 -20 23.40625 -20 
C 35.203125 -20 44.296875 -14 44.296875 -6.609375 
C 44.296875 7.1875 29 7.296875 24.796875 7.296875 
L 16.703125 7.296875 
C 15.203125 7.296875 11.203125 7.296875 11.203125 12.390625 
C 11.203125 14.390625 12.09375 15.6875 12.203125 15.796875 
C 13.703125 14.6875 16.796875 13 20.90625 13 
C 29.203125 13 36.09375 19.984375 36.09375 28.5 
C 36.09375 33.25 33.90625 36.703125 33 37.890625 
L 33.296875 37.890625 
C 33.59375 37.890625 37.796875 38.1875 39.296875 38.1875 
C 42.5 38.1875 42.796875 38.09375 45.59375 37.796875 
z
M 20.90625 18.5 
C 17.5 18.5 12.703125 20.578125 12.703125 28.5 
C 12.703125 37.109375 18.203125 38.484375 20.796875 38.484375 
C 24.203125 38.484375 29 36.40625 29 28.5 
C 29 19.875 23.5 18.5 20.90625 18.5 
z
M 24.703125 0 
C 27.09375 0 37.203125 0 37.203125 -6.8125 
C 37.203125 -11.109375 31 -14.5 23.5 -14.5 
C 15.90625 -14.5 9.703125 -11.203125 9.703125 -6.703125 
C 9.703125 -6.203125 9.703125 0 16.59375 0 
z
" id="CMSS17-103"/>
     </defs>
     <g transform="translate(35.436997 1320.274974)rotate(-90)scale(0.2 -0.2)">
      <use transform="scale(0.996264)" xlink:href="#CMSS17-82"/>
      <use transform="translate(60.416155 0)scale(0.996264)" xlink:href="#CMSS17-97"/>
      <use transform="translate(105.338075 0)scale(0.996264)" xlink:href="#CMSS17-116"/>
      <use transform="translate(139.169642 0)scale(0.996264)" xlink:href="#CMSS17-101"/>
      <use transform="translate(212.037577 0)scale(0.996264)" xlink:href="#CMSS17-111"/>
      <use transform="translate(258.881201 0)scale(0.996264)" xlink:href="#CMSS17-102"/>
      <use transform="translate(318.736972 0)scale(0.996264)" xlink:href="#CMSS17-109"/>
      <use transform="translate(392.966227 0)scale(0.996264)" xlink:href="#CMSS17-82"/>
      <use transform="translate(453.382381 0)scale(0.996264)" xlink:href="#CMSS17-78"/>
      <use transform="translate(519.443901 0)scale(0.996264)" xlink:href="#CMSS17-65"/>
      <use transform="translate(612.890868 0)scale(0.996264)" xlink:href="#CMSS17-99"/>
      <use transform="translate(654.52969 0)scale(0.996264)" xlink:href="#CMSS17-104"/>
      <use transform="translate(702.734633 0)scale(0.996264)" xlink:href="#CMSS17-97"/>
      <use transform="translate(747.656554 0)scale(0.996264)" xlink:href="#CMSS17-110"/>
      <use transform="translate(795.861497 0)scale(0.996264)" xlink:href="#CMSS17-103"/>
      <use transform="translate(842.705121 0)scale(0.996264)" xlink:href="#CMSS17-101"/>
     </g>
    </g>
   </g>
   <g id="line2d_62">
    <path clip-path="url(#p97f91c3467)" d="M 112.035155 1359.235273 
L 112.049078 1357.809521 
L 112.19993 1344.680198 
L 113.83437 1286.606928 
L 120.596503 1243.056425 
L 127.67504 1235.239514 
L 134.753576 1229.463939 
L 141.832113 1223.20527 
L 148.910649 1218.316465 
L 155.989186 1215.923669 
L 163.067722 1215.7621 
L 170.146258 1217.146113 
L 177.224795 1219.475928 
L 184.303331 1222.327322 
L 191.381868 1225.419838 
L 198.460404 1228.573035 
L 205.538941 1231.673032 
L 212.617477 1234.650069 
L 219.696014 1237.463433 
L 226.77455 1240.09179 
L 233.853087 1242.526602 
L 240.931623 1244.767709 
L 248.01016 1246.820389 
L 255.088696 1248.693106 
L 262.167233 1250.396442 
L 269.245769 1251.941876 
L 276.324306 1253.341207 
L 283.402842 1254.606184 
L 290.481379 1255.74814 
L 297.559915 1256.777851 
L 304.638451 1257.705554 
L 311.716988 1258.540649 
L 318.795524 1259.291847 
" style="fill:none;stroke:#cecfe5;stroke-linecap:square;stroke-width:5;"/>
   </g>
   <g id="line2d_63">
    <path clip-path="url(#p97f91c3467)" d="M 112.035155 1359.235273 
L 112.049078 1357.809459 
L 112.19993 1344.671481 
L 113.83437 1285.639669 
L 120.596503 1229.636827 
L 127.67504 1201.059894 
L 134.753576 1177.712486 
L 141.832113 1165.914308 
L 148.910649 1163.226549 
L 155.989186 1165.80808 
L 163.067722 1171.144791 
L 170.146258 1177.768392 
L 177.224795 1184.831767 
L 184.303331 1191.849546 
L 191.381868 1198.551003 
L 198.460404 1204.79524 
L 205.538941 1210.520101 
L 212.617477 1215.710869 
L 219.696014 1220.38087 
L 226.77455 1224.558844 
L 233.853087 1228.281628 
L 240.931623 1231.589012 
L 248.01016 1234.521117 
L 255.088696 1237.116501 
L 262.167233 1239.411275 
L 269.245769 1241.43872 
L 276.324306 1243.228993 
L 283.402842 1244.809344 
L 290.481379 1246.204122 
L 297.559915 1247.43497 
L 304.638451 1248.521129 
L 311.716988 1249.479689 
L 318.795524 1250.32571 
" style="fill:none;stroke:#7b74b5;stroke-linecap:square;stroke-width:5;"/>
   </g>
   <g id="line2d_64">
    <path clip-path="url(#p97f91c3467)" d="M 112.035155 1359.235273 
L 112.049078 1357.809158 
L 112.19993 1344.627963 
L 113.83437 1280.82108 
L 119.406802 1180.101714 
L 126.088367 1107.797281 
L 133.166904 1104.445949 
L 140.24544 1126.146322 
L 147.323977 1152.481447 
L 154.402513 1177.124825 
L 161.481049 1198.431414 
L 168.559586 1216.307487 
L 175.638122 1231.136172 
L 182.716659 1243.396775 
L 189.795195 1253.538013 
L 196.873732 1261.942929 
L 203.952268 1268.927353 
L 211.030805 1274.747811 
L 218.109341 1279.611812 
L 225.187878 1283.687225 
L 232.266414 1287.1102 
L 239.344951 1289.991503 
L 246.423487 1292.421665 
L 253.502024 1294.474898 
L 260.58056 1296.212352 
L 267.659097 1297.684642 
L 274.737633 1298.933649 
L 281.816169 1299.994291 
L 288.894706 1300.895714 
L 295.973242 1301.662353 
L 303.051779 1302.314632 
L 310.130315 1302.869836 
L 317.208852 1303.342522 
L 324.287388 1303.744967 
" style="fill:none;stroke:#3f007d;stroke-linecap:square;stroke-width:5;"/>
   </g>
   <g id="patch_21">
    <path d="M 101.422543 1371.974739 
L 101.422543 1091.706483 
" style="fill:none;stroke:#000000;stroke-linecap:square;stroke-linejoin:miter;stroke-width:0.8;"/>
   </g>
   <g id="patch_22">
    <path d="M 334.9 1371.974739 
L 334.9 1091.706483 
" style="fill:none;stroke:#000000;stroke-linecap:square;stroke-linejoin:miter;stroke-width:0.8;"/>
   </g>
   <g id="patch_23">
    <path d="M 101.422543 1371.974739 
L 334.9 1371.974739 
" style="fill:none;stroke:#000000;stroke-linecap:square;stroke-linejoin:miter;stroke-width:0.8;"/>
   </g>
   <g id="patch_24">
    <path d="M 101.422543 1091.706483 
L 334.9 1091.706483 
" style="fill:none;stroke:#000000;stroke-linecap:square;stroke-linejoin:miter;stroke-width:0.8;"/>
   </g>
   <g id="legend_4">
    <g id="patch_25">
     <path d="M 173.187539 1191.333384 
L 320.9 1191.333384 
Q 324.9 1191.333384 324.9 1187.333384 
L 324.9 1105.706483 
Q 324.9 1101.706483 320.9 1101.706483 
L 173.187539 1101.706483 
Q 169.187539 1101.706483 169.187539 1105.706483 
L 169.187539 1187.333384 
Q 169.187539 1191.333384 173.187539 1191.333384 
z
" style="fill:#ffffff;opacity:0.8;stroke:#cccccc;stroke-linejoin:miter;"/>
    </g>
    <g id="line2d_65">
     <path d="M 177.187539 1116.706483 
L 217.187539 1116.706483 
" style="fill:none;stroke:#cecfe5;stroke-linecap:square;stroke-width:5;"/>
    </g>
    <g id="line2d_66"/>
    <g id="text_52">
     <!-- $k_{R}=$0.001 -->
     <g transform="translate(233.187539 1123.706483)scale(0.2 -0.2)">
      <use transform="translate(0 14.943915)scale(0.996264)" xlink:href="#CMMI12-107"/>
      <use transform="translate(50.735189 0)scale(0.697382)" xlink:href="#CMMI12-82"/>
      <use transform="translate(131.456759 14.943915)scale(0.996264)" xlink:href="#CMR17-61"/>
      <use transform="translate(203.171548 14.943915)scale(0.996264)" xlink:href="#CMSS17-48"/>
      <use transform="translate(250.015171 14.943915)scale(0.996264)" xlink:href="#CMSS17-46"/>
      <use transform="translate(276.039376 14.943915)scale(0.996264)" xlink:href="#CMSS17-48"/>
      <use transform="translate(322.883 14.943915)scale(0.996264)" xlink:href="#CMSS17-48"/>
      <use transform="translate(369.726623 14.943915)scale(0.996264)" xlink:href="#CMSS17-49"/>
     </g>
    </g>
    <g id="line2d_67">
     <path d="M 177.187539 1144.582117 
L 217.187539 1144.582117 
" style="fill:none;stroke:#7b74b5;stroke-linecap:square;stroke-width:5;"/>
    </g>
    <g id="line2d_68"/>
    <g id="text_53">
     <!-- $k_{R}=$0.005 -->
     <g transform="translate(233.187539 1151.582117)scale(0.2 -0.2)">
      <use transform="translate(0 14.943915)scale(0.996264)" xlink:href="#CMMI12-107"/>
      <use transform="translate(50.735189 0)scale(0.697382)" xlink:href="#CMMI12-82"/>
      <use transform="translate(131.456759 14.943915)scale(0.996264)" xlink:href="#CMR17-61"/>
      <use transform="translate(203.171548 14.943915)scale(0.996264)" xlink:href="#CMSS17-48"/>
      <use transform="translate(250.015171 14.943915)scale(0.996264)" xlink:href="#CMSS17-46"/>
      <use transform="translate(276.039376 14.943915)scale(0.996264)" xlink:href="#CMSS17-48"/>
      <use transform="translate(322.883 14.943915)scale(0.996264)" xlink:href="#CMSS17-48"/>
      <use transform="translate(369.726623 14.943915)scale(0.996264)" xlink:href="#CMSS17-53"/>
     </g>
    </g>
    <g id="line2d_69">
     <path d="M 177.187539 1172.45775 
L 217.187539 1172.45775 
" style="fill:none;stroke:#3f007d;stroke-linecap:square;stroke-width:5;"/>
    </g>
    <g id="line2d_70"/>
    <g id="text_54">
     <!-- $k_{R}=$0.025 -->
     <g transform="translate(233.187539 1179.45775)scale(0.2 -0.2)">
      <use transform="translate(0 14.943915)scale(0.996264)" xlink:href="#CMMI12-107"/>
      <use transform="translate(50.735189 0)scale(0.697382)" xlink:href="#CMMI12-82"/>
      <use transform="translate(131.456759 14.943915)scale(0.996264)" xlink:href="#CMR17-61"/>
      <use transform="translate(203.171548 14.943915)scale(0.996264)" xlink:href="#CMSS17-48"/>
      <use transform="translate(250.015171 14.943915)scale(0.996264)" xlink:href="#CMSS17-46"/>
      <use transform="translate(276.039376 14.943915)scale(0.996264)" xlink:href="#CMSS17-48"/>
      <use transform="translate(322.883 14.943915)scale(0.996264)" xlink:href="#CMSS17-50"/>
      <use transform="translate(369.726623 14.943915)scale(0.996264)" xlink:href="#CMSS17-53"/>
     </g>
    </g>
   </g>
  </g>
 </g>
 <defs>
  <clipPath id="p85296c0253">
   <rect height="280.268256" width="233.477457" x="101.422543" y="25.1"/>
  </clipPath>
  <clipPath id="pd463af76bf">
   <rect height="280.268256" width="233.477457" x="101.422543" y="380.635494"/>
  </clipPath>
  <clipPath id="p7d357bbd9d">
   <rect height="280.268256" width="233.477457" x="101.422543" y="736.170989"/>
  </clipPath>
  <clipPath id="p97f91c3467">
   <rect height="280.268256" width="233.477457" x="101.422543" y="1091.706483"/>
  </clipPath>
 </defs>
</svg>
