<?xml version="1.0" encoding="utf-8" standalone="no"?>
<!DOCTYPE svg PUBLIC "-//W3C//DTD SVG 1.1//EN"
  "http://www.w3.org/Graphics/SVG/1.1/DTD/svg11.dtd">
<!-- Created with matplotlib (http://matplotlib.org/) -->
<svg height="1296pt" version="1.1" viewBox="0 0 432 1296" width="432pt" xmlns="http://www.w3.org/2000/svg" xmlns:xlink="http://www.w3.org/1999/xlink">
 <defs>
  <style type="text/css">
*{stroke-linecap:butt;stroke-linejoin:round;}
  </style>
 </defs>
 <g id="figure_1">
  <g id="patch_1">
   <path d="M 0 1296 
L 432 1296 
L 432 0 
L 0 0 
z
" style="fill:#ffffff;"/>
  </g>
  <g id="axes_1">
   <g id="patch_2">
    <path d="M 83.146352 378.374739 
L 406.9 378.374739 
L 406.9 25.1 
L 83.146352 25.1 
z
" style="fill:#ffffff;"/>
   </g>
   <g id="matplotlib.axis_1">
    <g id="xtick_1">
     <g id="line2d_1">
      <defs>
       <path d="M 0 0 
L 0 3.5 
" id="m979f9d3a48" style="stroke:#000000;stroke-width:0.8;"/>
      </defs>
      <g>
       <use style="stroke:#000000;stroke-width:0.8;" x="97.862427" xlink:href="#m979f9d3a48" y="378.374739"/>
      </g>
     </g>
     <g id="text_1">
      <!-- $0$ -->
      <defs>
       <path d="M 42 31.84375 
C 42 37.96875 41.90625 48.421875 37.703125 56.453125 
C 34 63.484375 28.09375 66 22.90625 66 
C 18.09375 66 12 63.78125 8.203125 56.5625 
C 4.203125 49.015625 3.796875 39.671875 3.796875 31.84375 
C 3.796875 26.109375 3.90625 17.375 7 9.734375 
C 11.296875 -0.609375 19 -2 22.90625 -2 
C 27.5 -2 34.5 -0.109375 38.59375 9.4375 
C 41.59375 16.375 42 24.5 42 31.84375 
z
M 22.90625 -0.40625 
C 16.5 -0.40625 12.703125 5.125 11.296875 12.75 
C 10.203125 18.6875 10.203125 27.328125 10.203125 32.953125 
C 10.203125 40.6875 10.203125 47.109375 11.5 53.234375 
C 13.40625 61.78125 19 64.390625 22.90625 64.390625 
C 27 64.390625 32.296875 61.671875 34.203125 53.4375 
C 35.5 47.71875 35.59375 40.984375 35.59375 32.953125 
C 35.59375 26.421875 35.59375 18.375 34.40625 12.453125 
C 32.296875 1.5 26.40625 -0.40625 22.90625 -0.40625 
z
" id="CMR17-48"/>
      </defs>
      <g transform="translate(93.293379 399.211736)scale(0.2 -0.2)">
       <use transform="scale(0.996264)" xlink:href="#CMR17-48"/>
      </g>
     </g>
    </g>
    <g id="xtick_2">
     <g id="line2d_2">
      <g>
       <use style="stroke:#000000;stroke-width:0.8;" x="196.602619" xlink:href="#m979f9d3a48" y="378.374739"/>
      </g>
     </g>
     <g id="text_2">
      <!-- $1$ -->
      <defs>
       <path d="M 26.59375 63.796875 
C 26.59375 65.890625 26.5 66 25.09375 66 
C 21.203125 61.359375 15.296875 59.890625 9.703125 59.6875 
C 9.40625 59.6875 8.90625 59.6875 8.796875 59.5 
C 8.703125 59.296875 8.703125 59.09375 8.703125 57 
C 11.796875 57 17 57.59375 21 59.984375 
L 21 7.296875 
C 21 3.796875 20.796875 2.59375 12.203125 2.59375 
L 9.203125 2.59375 
L 9.203125 0 
C 14 0.09375 19 0.1875 23.796875 0.1875 
C 28.59375 0.1875 33.59375 0.09375 38.40625 0 
L 38.40625 2.59375 
L 35.40625 2.59375 
C 26.796875 2.59375 26.59375 3.6875 26.59375 7.296875 
z
" id="CMR17-49"/>
      </defs>
      <g transform="translate(192.033572 399.211736)scale(0.2 -0.2)">
       <use transform="scale(0.996264)" xlink:href="#CMR17-49"/>
      </g>
     </g>
    </g>
    <g id="xtick_3">
     <g id="line2d_3">
      <g>
       <use style="stroke:#000000;stroke-width:0.8;" x="295.342811" xlink:href="#m979f9d3a48" y="378.374739"/>
      </g>
     </g>
     <g id="text_3">
      <!-- $2$ -->
      <defs>
       <path d="M 41.703125 15.46875 
L 39.90625 15.46875 
C 38.90625 8.390625 38.09375 7.1875 37.703125 6.59375 
C 37.203125 5.796875 30 5.796875 28.59375 5.796875 
L 9.40625 5.796875 
C 13 9.6875 20 16.765625 28.5 24.9375 
C 34.59375 30.71875 41.703125 37.5 41.703125 47.390625 
C 41.703125 59.1875 32.296875 66 21.796875 66 
C 10.796875 66 4.09375 56.296875 4.09375 47.296875 
C 4.09375 43.390625 7 42.890625 8.203125 42.890625 
C 9.203125 42.890625 12.203125 43.484375 12.203125 46.984375 
C 12.203125 50.09375 9.59375 51 8.203125 51 
C 7.59375 51 7 50.890625 6.59375 50.6875 
C 8.5 59.1875 14.296875 63.390625 20.40625 63.390625 
C 29.09375 63.390625 34.796875 56.5 34.796875 47.390625 
C 34.796875 38.703125 29.703125 31.21875 24 24.734375 
L 4.09375 2.296875 
L 4.09375 0 
L 39.296875 0 
z
" id="CMR17-50"/>
      </defs>
      <g transform="translate(290.773764 399.211736)scale(0.2 -0.2)">
       <use transform="scale(0.996264)" xlink:href="#CMR17-50"/>
      </g>
     </g>
    </g>
    <g id="xtick_4">
     <g id="line2d_4">
      <g>
       <use style="stroke:#000000;stroke-width:0.8;" x="394.083004" xlink:href="#m979f9d3a48" y="378.374739"/>
      </g>
     </g>
     <g id="text_4">
      <!-- $3$ -->
      <defs>
       <path d="M 22.09375 34 
C 31 34 34.90625 26.140625 34.90625 17.09375 
C 34.90625 5.03125 28.5 0.390625 22.703125 0.390625 
C 17.40625 0.390625 8.796875 3.015625 6.09375 10.796875 
C 6.59375 10.59375 7.09375 10.59375 7.59375 10.59375 
C 10 10.59375 11.796875 12.1875 11.796875 14.796875 
C 11.796875 17.6875 9.59375 19 7.59375 19 
C 5.90625 19 3.296875 18.1875 3.296875 14.484375 
C 3.296875 5.234375 12.296875 -2 22.90625 -2 
C 34 -2 42.5 6.75 42.5 16.984375 
C 42.5 26.84375 34.5 34 25 35.09375 
C 32.59375 36.671875 39.90625 43.375 39.90625 52.390625 
C 39.90625 60.25 32 66 23 66 
C 13.90625 66 5.90625 60.34375 5.90625 52.296875 
C 5.90625 48.796875 8.5 48.1875 9.796875 48.1875 
C 11.90625 48.1875 13.703125 49.484375 13.703125 52.09375 
C 13.703125 54.6875 11.90625 56 9.796875 56 
C 9.40625 56 8.90625 56 8.5 55.796875 
C 11.40625 62.484375 19.296875 63.6875 22.796875 63.6875 
C 26.296875 63.6875 32.90625 61.96875 32.90625 52.296875 
C 32.90625 49.484375 32.5 44.546875 29.09375 40.21875 
C 26.09375 36.390625 22.703125 36.1875 19.40625 35.890625 
C 18.90625 35.890625 16.59375 35.6875 16.203125 35.6875 
C 15.5 35.59375 15.09375 35.5 15.09375 34.796875 
C 15.09375 34.09375 15.203125 34 17.203125 34 
z
" id="CMR17-51"/>
      </defs>
      <g transform="translate(389.513956 399.211736)scale(0.2 -0.2)">
       <use transform="scale(0.996264)" xlink:href="#CMR17-51"/>
      </g>
     </g>
    </g>
    <g id="text_5">
     <!-- Time -->
     <defs>
      <path d="M 36.203125 62.296875 
L 44.5 62.296875 
C 45.703125 62.296875 46.90625 62.1875 48.09375 62.1875 
L 60.59375 62.1875 
L 60.59375 68.6875 
L 3.40625 68.6875 
L 3.40625 62.1875 
L 15.90625 62.1875 
C 17.09375 62.1875 18.296875 62.296875 19.5 62.296875 
L 27.796875 62.296875 
L 27.796875 0 
L 36.203125 0 
z
" id="CMSS17-84"/>
      <path d="M 15.296875 66 
L 6.90625 66 
L 6.90625 57.59375 
L 15.296875 57.59375 
z
M 14.796875 43 
L 7.40625 43 
L 7.40625 0 
L 14.796875 0 
z
" id="CMSS17-105"/>
      <path d="M 67 29.34375 
C 67 36.078125 65.296875 44 54.09375 44 
C 46.59375 44 42.09375 39.296875 40.09375 36.375 
C 38.296875 41.6875 34.09375 44 28.09375 44 
C 21.296875 44 17 40.09375 14.703125 37.28125 
L 14.703125 43.484375 
L 7.40625 43.484375 
L 7.40625 0 
L 15 0 
L 15 24.3125 
C 15 30.25 17.203125 37.890625 24.296875 37.890625 
C 33.40625 37.890625 33.40625 31.453125 33.40625 28.53125 
L 33.40625 0 
L 41 0 
L 41 24.3125 
C 41 30.25 43.203125 37.890625 50.296875 37.890625 
C 59.40625 37.890625 59.40625 31.453125 59.40625 28.53125 
L 59.40625 0 
L 67 0 
z
" id="CMSS17-109"/>
      <path d="M 39.09375 21.484375 
C 39.09375 24.796875 38.90625 31.265625 35.703125 36.671875 
C 32.203125 42.390625 26.5 44 22.203125 44 
C 11.796875 44 3 34.125 3 21.296875 
C 3 9.046875 12.09375 -1 23.59375 -1 
C 28.09375 -1 33.59375 0.296875 38.59375 3.890625 
C 38.59375 4.296875 38.40625 6.46875 38.296875 6.578125 
C 38.296875 6.765625 38 9.828125 38 10.234375 
C 33.203125 6.375 27.703125 5.09375 23.703125 5.09375 
C 17.296875 5.09375 10.40625 10.421875 10.09375 21.484375 
z
M 10.90625 27 
C 12.203125 32.59375 16.59375 37.890625 22.203125 37.890625 
C 23.703125 37.890625 30.703125 37.6875 32.5 27 
z
" id="CMSS17-101"/>
     </defs>
     <g transform="translate(224.836357 420.924366)scale(0.2 -0.2)">
      <use transform="scale(0.996264)" xlink:href="#CMSS17-84"/>
      <use transform="translate(63.819454 0)scale(0.996264)" xlink:href="#CMSS17-105"/>
      <use transform="translate(86.000177 0)scale(0.996264)" xlink:href="#CMSS17-109"/>
      <use transform="translate(160.229431 0)scale(0.996264)" xlink:href="#CMSS17-101"/>
     </g>
    </g>
   </g>
   <g id="matplotlib.axis_2">
    <g id="ytick_1">
     <g id="line2d_5">
      <defs>
       <path d="M 0 0 
L -3.5 0 
" id="m60a607f2e3" style="stroke:#000000;stroke-width:0.8;"/>
      </defs>
      <g>
       <use style="stroke:#000000;stroke-width:0.8;" x="83.146352" xlink:href="#m60a607f2e3" y="340.333649"/>
      </g>
     </g>
     <g id="text_6">
      <!-- $0.05$ -->
      <defs>
       <path d="M 18.40625 4.796875 
C 18.40625 7.6875 16 9.6875 13.59375 9.6875 
C 10.703125 9.6875 8.703125 7.296875 8.703125 4.890625 
C 8.703125 2 11.09375 0 13.5 0 
C 16.40625 0 18.40625 2.390625 18.40625 4.796875 
z
" id="CMMI12-58"/>
       <path d="M 11.40625 58.59375 
C 12.40625 58.1875 16.5 56.890625 20.703125 56.890625 
C 30 56.890625 35.09375 61.890625 38 64.6875 
C 38 65.484375 38 66 37.40625 66 
C 37.296875 66 37.09375 66 36.296875 65.59375 
C 32.796875 64.09375 28.703125 63 23.703125 63 
C 20.703125 63 16.203125 63.359375 11.296875 65.484375 
C 10.203125 66 10 66 9.90625 66 
C 9.40625 66 9.296875 65.890625 9.296875 63.90625 
L 9.296875 34.859375 
C 9.296875 33.015625 9.296875 32.5 10.296875 32.5 
C 10.796875 32.5 11 32.703125 11.5 33.421875 
C 14.703125 38.046875 19.09375 40 24.09375 40 
C 27.59375 40 35.09375 37.734375 35.09375 20.203125 
C 35.09375 16.984375 35.09375 11.1875 32.09375 6.59375 
C 29.59375 2.484375 25.703125 0.390625 21.40625 0.390625 
C 14.796875 0.390625 8.09375 4.984375 6.296875 12.6875 
C 6.703125 12.59375 7.5 12.390625 7.90625 12.390625 
C 9.203125 12.390625 11.703125 13.09375 11.703125 16.1875 
C 11.703125 18.890625 9.796875 20 7.90625 20 
C 5.59375 20 4.09375 18.59375 4.09375 15.796875 
C 4.09375 7.09375 11 -2 21.59375 -2 
C 31.90625 -2 41.703125 6.890625 41.703125 19.796875 
C 41.703125 32.09375 33.90625 41.59375 24.203125 41.59375 
C 19.09375 41.59375 14.796875 39.6875 11.40625 36 
z
" id="CMR17-53"/>
      </defs>
      <g transform="translate(43.31263 347.252147)scale(0.2 -0.2)">
       <use transform="scale(0.996264)" xlink:href="#CMR17-48"/>
       <use transform="translate(45.690477 0)scale(0.996264)" xlink:href="#CMMI12-58"/>
       <use transform="translate(72.787654 0)scale(0.996264)" xlink:href="#CMR17-48"/>
       <use transform="translate(118.478131 0)scale(0.996264)" xlink:href="#CMR17-53"/>
      </g>
     </g>
    </g>
    <g id="ytick_2">
     <g id="line2d_6">
      <g>
       <use style="stroke:#000000;stroke-width:0.8;" x="83.146352" xlink:href="#m60a607f2e3" y="259.386482"/>
      </g>
     </g>
     <g id="text_7">
      <!-- $0.10$ -->
      <g transform="translate(43.31263 266.30498)scale(0.2 -0.2)">
       <use transform="scale(0.996264)" xlink:href="#CMR17-48"/>
       <use transform="translate(45.690477 0)scale(0.996264)" xlink:href="#CMMI12-58"/>
       <use transform="translate(72.787654 0)scale(0.996264)" xlink:href="#CMR17-49"/>
       <use transform="translate(118.478131 0)scale(0.996264)" xlink:href="#CMR17-48"/>
      </g>
     </g>
    </g>
    <g id="ytick_3">
     <g id="line2d_7">
      <g>
       <use style="stroke:#000000;stroke-width:0.8;" x="83.146352" xlink:href="#m60a607f2e3" y="178.439314"/>
      </g>
     </g>
     <g id="text_8">
      <!-- $0.15$ -->
      <g transform="translate(43.31263 185.357813)scale(0.2 -0.2)">
       <use transform="scale(0.996264)" xlink:href="#CMR17-48"/>
       <use transform="translate(45.690477 0)scale(0.996264)" xlink:href="#CMMI12-58"/>
       <use transform="translate(72.787654 0)scale(0.996264)" xlink:href="#CMR17-49"/>
       <use transform="translate(118.478131 0)scale(0.996264)" xlink:href="#CMR17-53"/>
      </g>
     </g>
    </g>
    <g id="ytick_4">
     <g id="line2d_8">
      <g>
       <use style="stroke:#000000;stroke-width:0.8;" x="83.146352" xlink:href="#m60a607f2e3" y="97.492147"/>
      </g>
     </g>
     <g id="text_9">
      <!-- $0.20$ -->
      <g transform="translate(43.31263 104.410645)scale(0.2 -0.2)">
       <use transform="scale(0.996264)" xlink:href="#CMR17-48"/>
       <use transform="translate(45.690477 0)scale(0.996264)" xlink:href="#CMMI12-58"/>
       <use transform="translate(72.787654 0)scale(0.996264)" xlink:href="#CMR17-50"/>
       <use transform="translate(118.478131 0)scale(0.996264)" xlink:href="#CMR17-48"/>
      </g>
     </g>
    </g>
    <g id="text_10">
     <!-- Protein concentration at BL -->
     <defs>
      <path d="M 32.90625 29 
C 44.90625 29 54.703125 38.234375 54.703125 49.046875 
C 54.703125 59.65625 45.296875 69 32.296875 69 
L 8.90625 69 
L 8.90625 0 
L 17.296875 0 
L 17.296875 29 
z
M 30.09375 63.390625 
C 41.703125 63.390625 46.796875 56.21875 46.796875 49.046875 
C 46.796875 42.359375 42.09375 34.796875 30.09375 34.796875 
L 17.09375 34.796875 
L 17.09375 63.390625 
z
" id="CMSS17-80"/>
      <path d="M 14.90625 21.390625 
C 14.90625 30.84375 21.796875 37.171875 30.59375 37.375 
L 30.59375 44 
C 24.203125 43.890625 18.203125 40.6875 14.59375 35.46875 
L 14.59375 43.484375 
L 7.5 43.484375 
L 7.5 0 
L 14.90625 0 
z
" id="CMSS17-114"/>
      <path d="M 44.203125 21.1875 
C 44.203125 33.984375 34.703125 44 23.5 44 
C 12 44 2.703125 33.6875 2.703125 21.1875 
C 2.703125 8.5 12.296875 -1 23.40625 -1 
C 34.796875 -1 44.203125 8.796875 44.203125 21.1875 
z
M 23.5 5.296875 
C 16.40625 5.296875 10.296875 11.09375 10.296875 21.984375 
C 10.296875 33.59375 17.40625 37.890625 23.40625 37.890625 
C 29.90625 37.890625 36.59375 33.1875 36.59375 21.984375 
C 36.59375 10.6875 30.09375 5.296875 23.5 5.296875 
z
" id="CMSS17-111"/>
      <path d="M 16.703125 37.1875 
L 29.703125 37.1875 
L 29.703125 43 
L 16.703125 43 
L 16.703125 55 
L 9.59375 55 
L 9.59375 43 
L 1.703125 43 
L 1.703125 37.1875 
L 9.40625 37.1875 
L 9.40625 11.734375 
C 9.40625 6 10.703125 -1 17.296875 -1 
C 22.296875 -1 26.90625 0.390625 31.296875 2.6875 
L 29.703125 8.609375 
C 27.296875 6.5 24.40625 5.296875 21.296875 5.296875 
C 16.90625 5.296875 16.703125 10.921875 16.703125 13.4375 
z
" id="CMSS17-116"/>
      <path d="M 40.90625 29.34375 
C 40.90625 35.671875 39.40625 44 28.09375 44 
C 21.703125 44 17.5 40.6875 14.703125 37.28125 
L 14.703125 43.484375 
L 7.40625 43.484375 
L 7.40625 0 
L 15 0 
L 15 24.3125 
C 15 30.65625 17.40625 37.890625 24.203125 37.890625 
C 33 37.890625 33.296875 31.953125 33.296875 28.53125 
L 33.296875 0 
L 40.90625 0 
z
" id="CMSS17-110"/>
      <path d="M 38.5 39.6875 
C 38.5 40.390625 33.90625 42.390625 32.703125 42.796875 
C 29.40625 44 25.203125 44 24.09375 44 
C 11.09375 44 3.296875 32.6875 3.296875 21.296875 
C 3.296875 9.296875 12 -1 23.703125 -1 
C 30.40625 -1 35.203125 1.1875 39.09375 3.796875 
L 38.5 10.390625 
C 34.203125 7.09375 29.203125 5.296875 23.796875 5.296875 
C 16 5.296875 10.90625 12.09375 10.90625 21.390625 
C 10.90625 28.59375 14.203125 37.6875 24.203125 37.6875 
C 29.703125 37.6875 32.796875 36.59375 37.40625 33.484375 
z
" id="CMSS17-99"/>
      <path d="M 37.59375 27.953125 
C 37.59375 37.484375 30.90625 44 21.90625 44 
C 17.5 44 12.703125 43.1875 7.203125 39.984375 
L 7.796875 33.328125 
C 10.296875 35.15625 14.59375 38.09375 21.796875 38.09375 
C 26.90625 38.09375 30 34.140625 30 27.84375 
L 30 24 
C 14 23.5 4 18.890625 4 11.109375 
C 4 7.0625 6.5 -1 14.796875 -1 
C 16.296875 -1 24.40625 -0.8125 30.203125 3.5 
L 30.203125 -0.203125 
L 37.59375 -0.203125 
z
M 30 12.875 
C 30 11.109375 30 8.734375 27 6.96875 
C 24.40625 5.296875 21.09375 5.09375 19.703125 5.09375 
C 14.703125 5.09375 11.296875 7.859375 11.296875 11.296875 
C 11.296875 18.203125 26.90625 18.890625 30 19 
z
" id="CMSS17-97"/>
      <path d="M 8.90625 69 
L 8.90625 0 
L 33.796875 0 
C 47.40625 0 57.296875 8.984375 57.296875 18.75 
C 57.296875 26.3125 50.796875 33.984375 39.09375 36.1875 
C 52.09375 39.984375 54.703125 47.484375 54.703125 51.734375 
C 54.703125 60.625 44.90625 69 31.203125 69 
z
M 17 39 
L 17 63.390625 
L 28.5 63.390625 
C 38.796875 63.390625 46.90625 58.15625 46.90625 51.640625 
C 46.90625 45.703125 40.5 39 27.59375 39 
z
M 17 5.59375 
L 17 32.890625 
L 30.296875 32.890625 
C 41.09375 32.890625 49.40625 26.21875 49.40625 18.84375 
C 49.40625 12.0625 42.09375 5.59375 31 5.59375 
z
" id="CMSS17-66"/>
      <path d="M 26.09375 6.5 
C 24.90625 6.5 23.703125 6.390625 22.5 6.390625 
L 17.203125 6.390625 
L 17.203125 69 
L 8.796875 69 
L 8.796875 0 
L 46.90625 0 
L 46.90625 6.5 
z
" id="CMSS17-76"/>
     </defs>
     <g transform="translate(35.436997 311.707839)rotate(-90)scale(0.2 -0.2)">
      <use transform="scale(0.996264)" xlink:href="#CMSS17-80"/>
      <use transform="translate(59.735586 0)scale(0.996264)" xlink:href="#CMSS17-114"/>
      <use transform="translate(91.645359 0)scale(0.996264)" xlink:href="#CMSS17-111"/>
      <use transform="translate(138.488982 0)scale(0.996264)" xlink:href="#CMSS17-116"/>
      <use transform="translate(172.320549 0)scale(0.996264)" xlink:href="#CMSS17-101"/>
      <use transform="translate(213.959371 0)scale(0.996264)" xlink:href="#CMSS17-105"/>
      <use transform="translate(236.140094 0)scale(0.996264)" xlink:href="#CMSS17-110"/>
      <use transform="translate(315.57415 0)scale(0.996264)" xlink:href="#CMSS17-99"/>
      <use transform="translate(357.212972 0)scale(0.996264)" xlink:href="#CMSS17-111"/>
      <use transform="translate(404.056596 0)scale(0.996264)" xlink:href="#CMSS17-110"/>
      <use transform="translate(452.261539 0)scale(0.996264)" xlink:href="#CMSS17-99"/>
      <use transform="translate(493.900361 0)scale(0.996264)" xlink:href="#CMSS17-101"/>
      <use transform="translate(535.539183 0)scale(0.996264)" xlink:href="#CMSS17-110"/>
      <use transform="translate(583.744126 0)scale(0.996264)" xlink:href="#CMSS17-116"/>
      <use transform="translate(617.575693 0)scale(0.996264)" xlink:href="#CMSS17-114"/>
      <use transform="translate(649.485465 0)scale(0.996264)" xlink:href="#CMSS17-97"/>
      <use transform="translate(694.407386 0)scale(0.996264)" xlink:href="#CMSS17-116"/>
      <use transform="translate(728.238953 0)scale(0.996264)" xlink:href="#CMSS17-105"/>
      <use transform="translate(750.419676 0)scale(0.996264)" xlink:href="#CMSS17-111"/>
      <use transform="translate(797.263299 0)scale(0.996264)" xlink:href="#CMSS17-110"/>
      <use transform="translate(876.697355 0)scale(0.996264)" xlink:href="#CMSS17-97"/>
      <use transform="translate(921.619276 0)scale(0.996264)" xlink:href="#CMSS17-116"/>
      <use transform="translate(986.679955 0)scale(0.996264)" xlink:href="#CMSS17-66"/>
      <use transform="translate(1049.017995 0)scale(0.996264)" xlink:href="#CMSS17-76"/>
     </g>
    </g>
   </g>
   <g id="line2d_9">
    <path clip-path="url(#p6d163612a0)" d="M 97.862427 356.510521 
L 97.881849 355.172717 
L 98.092276 342.83801 
L 100.372196 286.996167 
L 109.804856 243.131094 
L 119.678875 237.184386 
L 129.552895 236.09471 
L 139.426914 235.849911 
L 149.300933 235.789902 
L 159.174952 235.774704 
L 169.048972 235.77082 
L 178.922991 235.769819 
L 188.79701 235.769565 
L 198.671029 235.769505 
L 208.545048 235.769481 
L 218.419068 235.769481 
L 228.293087 235.769481 
L 238.167106 235.769481 
L 248.041125 235.769481 
L 257.915145 235.769481 
L 267.789164 235.769481 
L 277.663183 235.769481 
L 287.537202 235.769481 
L 297.411221 235.769481 
L 307.285241 235.769481 
L 317.15926 235.769481 
L 327.033279 235.769481 
L 336.907298 235.769481 
L 346.781318 235.769481 
L 356.655337 235.769481 
L 366.529356 235.769481 
L 376.403375 235.769481 
L 386.277394 235.769481 
" style="fill:none;stroke:#cecece;stroke-linecap:square;stroke-width:5;"/>
   </g>
   <g id="line2d_10">
    <path clip-path="url(#p6d163612a0)" d="M 97.862427 356.510521 
L 97.881849 355.172699 
L 98.092276 342.835266 
L 100.372196 286.611411 
L 109.804856 236.343503 
L 119.678875 219.866441 
L 129.552895 207.041797 
L 139.426914 194.46036 
L 149.300933 182.00999 
L 159.174952 170.358684 
L 169.048972 160.053722 
L 178.922991 151.234541 
L 188.79701 143.78315 
L 198.671029 137.501273 
L 208.545048 132.194036 
L 218.419068 127.694595 
L 228.293087 123.866119 
L 238.167106 120.59754 
L 248.041125 117.798537 
L 257.915145 115.39517 
L 267.789164 113.32667 
L 277.663183 111.542618 
L 287.537202 110.001061 
L 297.411221 108.666876 
L 307.285241 107.510437 
L 317.15926 106.506825 
L 327.033279 105.63481 
L 336.907298 104.876419 
L 346.781318 104.216262 
L 356.655337 103.641167 
L 366.529356 103.139868 
L 376.403375 102.702642 
L 386.277394 102.321119 
" style="fill:none;stroke:#8d8d8d;stroke-linecap:square;stroke-width:5;"/>
   </g>
   <g id="line2d_11">
    <path clip-path="url(#p6d163612a0)" d="M 97.862427 356.510521 
L 97.881849 355.17253 
L 98.092276 342.810623 
L 100.372196 283.128296 
L 106.966747 199.462403 
L 114.902147 95.475726 
L 124.776166 41.157943 
L 134.650185 47.247405 
L 144.524204 74.038078 
L 154.398224 99.941586 
L 164.272243 120.438417 
L 174.146262 136.038458 
L 184.020281 147.910356 
L 193.894301 157.032391 
L 203.76832 164.124139 
L 213.642339 169.701663 
L 223.516358 174.135486 
L 233.390377 177.694207 
L 243.264397 180.574966 
L 253.138416 182.92444 
L 263.012435 184.853213 
L 272.886454 186.445671 
L 282.760474 187.767046 
L 292.634493 188.868265 
L 302.508512 189.789517 
L 312.382531 190.562793 
L 322.25655 191.21371 
L 332.13057 191.763089 
L 342.004589 192.227744 
L 351.878608 192.621546 
L 361.752627 192.955859 
L 371.626647 193.240089 
L 381.500666 193.482078 
L 391.374685 193.688316 
" style="fill:none;stroke:#4b4b4b;stroke-linecap:square;stroke-width:5;"/>
   </g>
   <g id="line2d_12">
    <path clip-path="url(#p6d163612a0)" d="M 97.862427 356.510521 
L 97.881849 355.171788 
L 98.092276 342.701504 
L 100.289993 272.157025 
L 103.472126 179.264519 
L 107.61598 126.09765 
L 115.711387 236.766471 
L 125.585406 311.068966 
L 135.459425 336.397433 
L 145.333444 347.301977 
L 155.207464 352.896575 
L 165.081483 356.09567 
L 174.955502 358.06183 
L 184.829521 359.333968 
L 194.703541 360.18912 
L 204.57756 360.780915 
L 214.451579 361.199656 
L 224.325598 361.501021 
L 234.199617 361.720659 
L 244.073637 361.882182 
L 253.947656 362.001657 
L 263.821675 362.090289 
L 273.695694 362.156033 
L 283.569714 362.204662 
L 293.443733 362.240395 
L 303.317752 362.266377 
L 313.191771 362.284965 
L 323.065791 362.297956 
L 332.93981 362.306701 
L 342.813829 362.312243 
L 352.687848 362.315385 
L 362.561867 362.316742 
L 372.435887 362.316797 
L 382.309906 362.31591 
L 392.183925 362.31436 
" style="fill:none;stroke:#000000;stroke-linecap:square;stroke-width:5;"/>
   </g>
   <g id="line2d_13">
    <path clip-path="url(#p6d163612a0)" d="M 83.146352 178.439314 
L 406.9 178.439314 
" style="fill:none;stroke:#000000;stroke-dasharray:5.55,2.4;stroke-dashoffset:0;stroke-width:1.5;"/>
   </g>
   <g id="patch_3">
    <path d="M 83.146352 378.374739 
L 83.146352 25.1 
" style="fill:none;stroke:#000000;stroke-linecap:square;stroke-linejoin:miter;stroke-width:0.8;"/>
   </g>
   <g id="patch_4">
    <path d="M 406.9 378.374739 
L 406.9 25.1 
" style="fill:none;stroke:#000000;stroke-linecap:square;stroke-linejoin:miter;stroke-width:0.8;"/>
   </g>
   <g id="patch_5">
    <path d="M 83.146352 378.374739 
L 406.9 378.374739 
" style="fill:none;stroke:#000000;stroke-linecap:square;stroke-linejoin:miter;stroke-width:0.8;"/>
   </g>
   <g id="patch_6">
    <path d="M 83.146352 25.1 
L 406.9 25.1 
" style="fill:none;stroke:#000000;stroke-linecap:square;stroke-linejoin:miter;stroke-width:0.8;"/>
   </g>
   <g id="legend_1">
    <g id="patch_7">
     <path d="M 250.396992 152.602534 
L 392.9 152.602534 
Q 396.9 152.602534 396.9 148.602534 
L 396.9 39.1 
Q 396.9 35.1 392.9 35.1 
L 250.396992 35.1 
Q 246.396992 35.1 246.396992 39.1 
L 246.396992 148.602534 
Q 246.396992 152.602534 250.396992 152.602534 
z
" style="fill:#ffffff;opacity:0.8;stroke:#cccccc;stroke-linejoin:miter;"/>
    </g>
    <g id="line2d_14">
     <path d="M 254.396992 50.1 
L 294.396992 50.1 
" style="fill:none;stroke:#cecece;stroke-linecap:square;stroke-width:5;"/>
    </g>
    <g id="line2d_15"/>
    <g id="text_11">
     <!-- $k_{M}=$0.0 -->
     <defs>
      <path d="M 28.09375 66.484375 
C 28.203125 66.890625 28.40625 67.484375 28.40625 67.984375 
C 28.40625 69 27.40625 69 27.203125 69 
C 27.09375 69 23.5 68.6875 21.703125 68.484375 
C 20 68.390625 18.5 68.1875 16.703125 68.09375 
C 14.296875 67.890625 13.59375 67.796875 13.59375 65.984375 
C 13.59375 64.984375 14.59375 64.984375 15.59375 64.984375 
C 20.703125 64.984375 20.703125 64.109375 20.703125 63.125 
C 20.703125 62.71875 20.703125 62.53125 20.203125 60.75 
L 5.90625 3.90625 
C 5.5 2.390625 5.5 2.203125 5.5 1.59375 
C 5.5 -0.609375 7.203125 -1 8.203125 -1 
C 11 -1 11.59375 1.1875 12.40625 4.296875 
L 17.09375 23.0625 
C 24.296875 22.265625 28.59375 19.25 28.59375 14.4375 
C 28.59375 13.828125 28.59375 13.4375 28.296875 11.921875 
C 27.90625 10.421875 27.90625 9.21875 27.90625 8.71875 
C 27.90625 2.890625 31.703125 -1 36.796875 -1 
C 41.40625 -1 43.796875 3.203125 44.59375 4.609375 
C 46.703125 8.3125 48 13.9375 48 14.328125 
C 48 14.828125 47.59375 15.234375 47 15.234375 
C 46.09375 15.234375 46 14.828125 45.59375 13.234375 
C 44.203125 8.015625 42.09375 1 37 1 
C 35 1 33.703125 2 33.703125 5.8125 
C 33.703125 7.71875 34.09375 9.921875 34.5 11.421875 
C 34.90625 13.234375 34.90625 13.328125 34.90625 14.53125 
C 34.90625 20.453125 29.59375 23.765625 20.40625 24.96875 
C 24 27.171875 27.59375 31.078125 29 32.59375 
C 34.703125 38.984375 38.59375 41.984375 43.203125 41.984375 
C 45.5 41.984375 46.09375 41.484375 46.796875 41 
C 43.09375 40.59375 41.703125 37.984375 41.703125 35.984375 
C 41.703125 33.59375 43.59375 32.796875 45 32.796875 
C 47.703125 32.796875 50.09375 35.09375 50.09375 38.296875 
C 50.09375 41.15625 47.796875 44 43.296875 44 
C 37.796875 44 33.296875 40.296875 26.203125 32.296875 
C 25.203125 31.078125 21.5 27.28125 17.796875 25.875 
z
" id="CMMI12-107"/>
      <path d="M 90.796875 60.71875 
C 91.703125 64.09375 91.90625 65.09375 99 65.09375 
C 100.90625 65.09375 101.796875 65.09375 101.796875 66.984375 
C 101.796875 68 101.09375 68 99.203125 68 
L 87.203125 68 
C 84.703125 68 84.59375 67.890625 83.5 66.296875 
L 47 8.859375 
L 39.5 65.796875 
C 39.203125 68 39.09375 68 36.5 68 
L 24.09375 68 
C 22.203125 68 21.296875 68 21.296875 66.09375 
C 21.296875 65.09375 22.203125 65.09375 23.703125 65.09375 
C 29.796875 65.09375 29.796875 64.296875 29.796875 63.203125 
C 29.796875 63 29.796875 62.40625 29.40625 60.90625 
L 16.59375 10.15625 
C 15.40625 5.375 13.09375 3.1875 6.40625 2.890625 
C 6.09375 2.890625 4.90625 2.796875 4.90625 1.09375 
C 4.90625 0 5.796875 0 6.203125 0 
C 8.203125 0 13.296875 0.1875 15.296875 0.1875 
L 20.09375 0.1875 
C 21.5 0.1875 23.203125 0 24.59375 0 
C 25.296875 0 26.40625 0 26.40625 1.890625 
C 26.40625 2.796875 25.40625 2.890625 25 2.890625 
C 21.703125 2.984375 18.5 3.59375 18.5 7.171875 
C 18.5 8.171875 18.5 8.265625 18.90625 9.65625 
L 32.703125 64.5 
L 32.796875 64.5 
L 41.09375 2.6875 
C 41.40625 0.296875 41.5 0 42.40625 0 
C 43.5 0 44 0.796875 44.5 1.6875 
L 84.703125 64.984375 
L 84.796875 64.984375 
L 70.296875 7.375 
C 69.40625 3.890625 69.203125 2.890625 62.203125 2.890625 
C 60.296875 2.890625 59.296875 2.890625 59.296875 1.09375 
C 59.296875 0 60.203125 0 60.796875 0 
C 62.5 0 64.5 0.1875 66.203125 0.1875 
L 78 0.1875 
C 79.703125 0.1875 81.796875 0 83.5 0 
C 84.296875 0 85.40625 0 85.40625 1.890625 
C 85.40625 2.890625 84.5 2.890625 83 2.890625 
C 76.90625 2.890625 76.90625 3.6875 76.90625 4.6875 
C 76.90625 4.78125 76.90625 5.484375 77.09375 6.28125 
z
" id="CMMI12-77"/>
      <path d="M 64.296875 32 
C 65.796875 32 67.296875 32 67.296875 33.6875 
C 67.296875 35.5 65.59375 35.5 63.90625 35.5 
L 8 35.5 
C 6.296875 35.5 4.59375 35.5 4.59375 33.6875 
C 4.59375 32 6.09375 32 7.59375 32 
z
M 63.90625 14.484375 
C 65.59375 14.484375 67.296875 14.484375 67.296875 16.296875 
C 67.296875 18 65.796875 18 64.296875 18 
L 7.59375 18 
C 6.09375 18 4.59375 18 4.59375 16.296875 
C 4.59375 14.484375 6.296875 14.484375 8 14.484375 
z
" id="CMR17-61"/>
      <path d="M 43.09375 32.390625 
C 43.09375 38.109375 43 48.75 38.90625 56.984375 
C 34.796875 64.890625 28.203125 67 23.5 67 
C 16.703125 67 10.90625 62.984375 7.90625 56.578125 
C 4.703125 49.859375 3.796875 42.9375 3.796875 32.390625 
C 3.796875 25.171875 4.09375 16.34375 7.703125 8.609375 
C 11.796875 0.09375 18.703125 -2 23.40625 -2 
C 29.59375 -2 35.59375 1.296875 39 8.203125 
C 42.5 15.4375 43.09375 23.359375 43.09375 32.390625 
z
M 23.40625 4.09375 
C 15.796875 4.09375 13.5 12.828125 12.796875 15.734375 
C 11.59375 20.75 11.40625 25.5625 11.40625 33.5 
C 11.40625 39.71875 11.40625 46.75 13.296875 52.265625 
C 15.59375 58.6875 19.59375 60.890625 23.40625 60.890625 
C 30.796875 60.890625 33.203125 53.46875 34 50.859375 
C 35.5 45.546875 35.5 39.3125 35.5 33.5 
C 35.5 24.15625 35.5 4.09375 23.40625 4.09375 
z
" id="CMSS17-48"/>
      <path d="M 17 8 
L 9 8 
L 9 0 
L 17 0 
z
" id="CMSS17-46"/>
     </defs>
     <g transform="translate(310.396992 57.1)scale(0.2 -0.2)">
      <use transform="translate(0 14.943915)scale(0.996264)" xlink:href="#CMMI12-107"/>
      <use transform="translate(50.735189 0)scale(0.697382)" xlink:href="#CMMI12-77"/>
      <use transform="translate(152.253071 14.943915)scale(0.996264)" xlink:href="#CMR17-61"/>
      <use transform="translate(223.96786 14.943915)scale(0.996264)" xlink:href="#CMSS17-48"/>
      <use transform="translate(270.811483 14.943915)scale(0.996264)" xlink:href="#CMSS17-46"/>
      <use transform="translate(296.835688 14.943915)scale(0.996264)" xlink:href="#CMSS17-48"/>
     </g>
    </g>
    <g id="line2d_16">
     <path d="M 254.396992 77.975634 
L 294.396992 77.975634 
" style="fill:none;stroke:#8d8d8d;stroke-linecap:square;stroke-width:5;"/>
    </g>
    <g id="line2d_17"/>
    <g id="text_12">
     <!-- $k_{M}=$0.01 -->
     <defs>
      <path d="M 28.40625 67 
L 26.5 67 
C 21.09375 61.703125 14.796875 60.96875 8.40625 60.796875 
L 8.40625 55 
C 11.296875 55.09375 16 55.296875 20.703125 57.390625 
L 20.703125 5.796875 
L 8.90625 5.796875 
L 8.90625 0 
L 40.203125 0 
L 40.203125 5.796875 
L 28.40625 5.796875 
z
" id="CMSS17-49"/>
     </defs>
     <g transform="translate(310.396992 84.975634)scale(0.2 -0.2)">
      <use transform="translate(0 14.943915)scale(0.996264)" xlink:href="#CMMI12-107"/>
      <use transform="translate(50.735189 0)scale(0.697382)" xlink:href="#CMMI12-77"/>
      <use transform="translate(152.253071 14.943915)scale(0.996264)" xlink:href="#CMR17-61"/>
      <use transform="translate(223.96786 14.943915)scale(0.996264)" xlink:href="#CMSS17-48"/>
      <use transform="translate(270.811483 14.943915)scale(0.996264)" xlink:href="#CMSS17-46"/>
      <use transform="translate(296.835688 14.943915)scale(0.996264)" xlink:href="#CMSS17-48"/>
      <use transform="translate(343.679312 14.943915)scale(0.996264)" xlink:href="#CMSS17-49"/>
     </g>
    </g>
    <g id="line2d_18">
     <path d="M 254.396992 105.851267 
L 294.396992 105.851267 
" style="fill:none;stroke:#4b4b4b;stroke-linecap:square;stroke-width:5;"/>
    </g>
    <g id="line2d_19"/>
    <g id="text_13">
     <!-- $k_{M}=$0.1 -->
     <g transform="translate(310.396992 112.851267)scale(0.2 -0.2)">
      <use transform="translate(0 14.943915)scale(0.996264)" xlink:href="#CMMI12-107"/>
      <use transform="translate(50.735189 0)scale(0.697382)" xlink:href="#CMMI12-77"/>
      <use transform="translate(152.253071 14.943915)scale(0.996264)" xlink:href="#CMR17-61"/>
      <use transform="translate(223.96786 14.943915)scale(0.996264)" xlink:href="#CMSS17-48"/>
      <use transform="translate(270.811483 14.943915)scale(0.996264)" xlink:href="#CMSS17-46"/>
      <use transform="translate(296.835688 14.943915)scale(0.996264)" xlink:href="#CMSS17-49"/>
     </g>
    </g>
    <g id="line2d_20">
     <path d="M 254.396992 133.726901 
L 294.396992 133.726901 
" style="fill:none;stroke:#000000;stroke-linecap:square;stroke-width:5;"/>
    </g>
    <g id="line2d_21"/>
    <g id="text_14">
     <!-- $k_{M}=$0.5 -->
     <defs>
      <path d="M 14.59375 59.59375 
L 39.09375 59.59375 
L 39.09375 66 
L 7.296875 66 
L 7.296875 28.59375 
L 14 28.59375 
C 15.796875 32.859375 19.5 36 24.296875 36 
C 28.796875 36 33.796875 31.9375 33.796875 20.296875 
C 33.796875 7.84375 26.703125 4.1875 21.5 4.1875 
C 15.09375 4.1875 9.203125 8.140625 6.59375 13.609375 
L 3.40625 7.9375 
C 8 0.796875 15.5 -2 21.5 -2 
C 33.09375 -2 42.203125 7.9375 42.203125 20.09375 
C 42.203125 32.546875 34.09375 42.09375 24.40625 42.09375 
C 20.90625 42.09375 17.5 40.890625 14.59375 38.5 
z
" id="CMSS17-53"/>
     </defs>
     <g transform="translate(310.396992 140.726901)scale(0.2 -0.2)">
      <use transform="translate(0 14.943915)scale(0.996264)" xlink:href="#CMMI12-107"/>
      <use transform="translate(50.735189 0)scale(0.697382)" xlink:href="#CMMI12-77"/>
      <use transform="translate(152.253071 14.943915)scale(0.996264)" xlink:href="#CMR17-61"/>
      <use transform="translate(223.96786 14.943915)scale(0.996264)" xlink:href="#CMSS17-48"/>
      <use transform="translate(270.811483 14.943915)scale(0.996264)" xlink:href="#CMSS17-46"/>
      <use transform="translate(296.835688 14.943915)scale(0.996264)" xlink:href="#CMSS17-53"/>
     </g>
    </g>
   </g>
  </g>
  <g id="axes_2">
   <g id="patch_8">
    <path d="M 83.146352 803.174739 
L 406.9 803.174739 
L 406.9 449.9 
L 83.146352 449.9 
z
" style="fill:#ffffff;"/>
   </g>
   <g id="matplotlib.axis_3">
    <g id="xtick_5">
     <g id="line2d_22">
      <g>
       <use style="stroke:#000000;stroke-width:0.8;" x="97.862427" xlink:href="#m979f9d3a48" y="803.174739"/>
      </g>
     </g>
     <g id="text_15">
      <!-- $0$ -->
      <g transform="translate(93.293379 824.011736)scale(0.2 -0.2)">
       <use transform="scale(0.996264)" xlink:href="#CMR17-48"/>
      </g>
     </g>
    </g>
    <g id="xtick_6">
     <g id="line2d_23">
      <g>
       <use style="stroke:#000000;stroke-width:0.8;" x="196.602619" xlink:href="#m979f9d3a48" y="803.174739"/>
      </g>
     </g>
     <g id="text_16">
      <!-- $1$ -->
      <g transform="translate(192.033572 824.011736)scale(0.2 -0.2)">
       <use transform="scale(0.996264)" xlink:href="#CMR17-49"/>
      </g>
     </g>
    </g>
    <g id="xtick_7">
     <g id="line2d_24">
      <g>
       <use style="stroke:#000000;stroke-width:0.8;" x="295.342811" xlink:href="#m979f9d3a48" y="803.174739"/>
      </g>
     </g>
     <g id="text_17">
      <!-- $2$ -->
      <g transform="translate(290.773764 824.011736)scale(0.2 -0.2)">
       <use transform="scale(0.996264)" xlink:href="#CMR17-50"/>
      </g>
     </g>
    </g>
    <g id="xtick_8">
     <g id="line2d_25">
      <g>
       <use style="stroke:#000000;stroke-width:0.8;" x="394.083004" xlink:href="#m979f9d3a48" y="803.174739"/>
      </g>
     </g>
     <g id="text_18">
      <!-- $3$ -->
      <g transform="translate(389.513956 824.011736)scale(0.2 -0.2)">
       <use transform="scale(0.996264)" xlink:href="#CMR17-51"/>
      </g>
     </g>
    </g>
    <g id="text_19">
     <!-- Time -->
     <g transform="translate(224.836357 845.724366)scale(0.2 -0.2)">
      <use transform="scale(0.996264)" xlink:href="#CMSS17-84"/>
      <use transform="translate(63.819454 0)scale(0.996264)" xlink:href="#CMSS17-105"/>
      <use transform="translate(86.000177 0)scale(0.996264)" xlink:href="#CMSS17-109"/>
      <use transform="translate(160.229431 0)scale(0.996264)" xlink:href="#CMSS17-101"/>
     </g>
    </g>
   </g>
   <g id="matplotlib.axis_4">
    <g id="ytick_5">
     <g id="line2d_26">
      <g>
       <use style="stroke:#000000;stroke-width:0.8;" x="83.146352" xlink:href="#m60a607f2e3" y="787.116797"/>
      </g>
     </g>
     <g id="text_20">
      <!-- $0.0$ -->
      <g transform="translate(52.450726 794.035295)scale(0.2 -0.2)">
       <use transform="scale(0.996264)" xlink:href="#CMR17-48"/>
       <use transform="translate(45.690477 0)scale(0.996264)" xlink:href="#CMMI12-58"/>
       <use transform="translate(72.787654 0)scale(0.996264)" xlink:href="#CMR17-48"/>
      </g>
     </g>
    </g>
    <g id="ytick_6">
     <g id="line2d_27">
      <g>
       <use style="stroke:#000000;stroke-width:0.8;" x="83.146352" xlink:href="#m60a607f2e3" y="729.785875"/>
      </g>
     </g>
     <g id="text_21">
      <!-- $0.1$ -->
      <g transform="translate(52.450726 736.704374)scale(0.2 -0.2)">
       <use transform="scale(0.996264)" xlink:href="#CMR17-48"/>
       <use transform="translate(45.690477 0)scale(0.996264)" xlink:href="#CMMI12-58"/>
       <use transform="translate(72.787654 0)scale(0.996264)" xlink:href="#CMR17-49"/>
      </g>
     </g>
    </g>
    <g id="ytick_7">
     <g id="line2d_28">
      <g>
       <use style="stroke:#000000;stroke-width:0.8;" x="83.146352" xlink:href="#m60a607f2e3" y="672.454954"/>
      </g>
     </g>
     <g id="text_22">
      <!-- $0.2$ -->
      <g transform="translate(52.450726 679.373453)scale(0.2 -0.2)">
       <use transform="scale(0.996264)" xlink:href="#CMR17-48"/>
       <use transform="translate(45.690477 0)scale(0.996264)" xlink:href="#CMMI12-58"/>
       <use transform="translate(72.787654 0)scale(0.996264)" xlink:href="#CMR17-50"/>
      </g>
     </g>
    </g>
    <g id="ytick_8">
     <g id="line2d_29">
      <g>
       <use style="stroke:#000000;stroke-width:0.8;" x="83.146352" xlink:href="#m60a607f2e3" y="615.124033"/>
      </g>
     </g>
     <g id="text_23">
      <!-- $0.3$ -->
      <g transform="translate(52.450726 622.042531)scale(0.2 -0.2)">
       <use transform="scale(0.996264)" xlink:href="#CMR17-48"/>
       <use transform="translate(45.690477 0)scale(0.996264)" xlink:href="#CMMI12-58"/>
       <use transform="translate(72.787654 0)scale(0.996264)" xlink:href="#CMR17-51"/>
      </g>
     </g>
    </g>
    <g id="ytick_9">
     <g id="line2d_30">
      <g>
       <use style="stroke:#000000;stroke-width:0.8;" x="83.146352" xlink:href="#m60a607f2e3" y="557.793112"/>
      </g>
     </g>
     <g id="text_24">
      <!-- $0.4$ -->
      <defs>
       <path d="M 33.59375 64.796875 
C 33.59375 66.890625 33.5 67 31.703125 67 
L 2 19.59375 
L 2 17 
L 27.796875 17 
L 27.796875 7.1875 
C 27.796875 3.59375 27.59375 2.59375 20.59375 2.59375 
L 18.703125 2.59375 
L 18.703125 0 
C 21.90625 0.1875 27.296875 0.1875 30.703125 0.1875 
C 34.09375 0.1875 39.5 0.1875 42.703125 0 
L 42.703125 2.59375 
L 40.796875 2.59375 
C 33.796875 2.59375 33.59375 3.59375 33.59375 7.1875 
L 33.59375 17 
L 43.796875 17 
L 43.796875 19.59375 
L 33.59375 19.59375 
z
M 28.09375 58.171875 
L 28.09375 19.59375 
L 4 19.59375 
z
" id="CMR17-52"/>
      </defs>
      <g transform="translate(52.450726 564.71161)scale(0.2 -0.2)">
       <use transform="scale(0.996264)" xlink:href="#CMR17-48"/>
       <use transform="translate(45.690477 0)scale(0.996264)" xlink:href="#CMMI12-58"/>
       <use transform="translate(72.787654 0)scale(0.996264)" xlink:href="#CMR17-52"/>
      </g>
     </g>
    </g>
    <g id="ytick_10">
     <g id="line2d_31">
      <g>
       <use style="stroke:#000000;stroke-width:0.8;" x="83.146352" xlink:href="#m60a607f2e3" y="500.46219"/>
      </g>
     </g>
     <g id="text_25">
      <!-- $0.5$ -->
      <g transform="translate(52.450726 507.380689)scale(0.2 -0.2)">
       <use transform="scale(0.996264)" xlink:href="#CMR17-48"/>
       <use transform="translate(45.690477 0)scale(0.996264)" xlink:href="#CMMI12-58"/>
       <use transform="translate(72.787654 0)scale(0.996264)" xlink:href="#CMR17-53"/>
      </g>
     </g>
    </g>
    <g id="text_26">
     <!-- mRNA concentration at BL -->
     <defs>
      <path d="M 39.40625 32.796875 
L 39.59375 32.890625 
C 55.203125 38.28125 55.296875 48.828125 55.296875 50.6875 
C 55.296875 59.96875 45.703125 69 31.296875 69 
L 8.90625 69 
L 8.90625 0 
L 17.09375 0 
L 17.09375 31.890625 
L 31.796875 31.890625 
L 49.5 0 
L 57.90625 0 
z
M 17.09375 38 
L 17.09375 63.390625 
L 30.203125 63.390625 
C 42.90625 63.390625 47.40625 56.359375 47.40625 50.6875 
C 47.40625 45.421875 43.40625 38 30.203125 38 
z
" id="CMSS17-82"/>
      <path d="M 22.90625 65.296875 
L 21.09375 69 
L 8.796875 69 
L 8.796875 0 
L 16.59375 0 
L 16.59375 61.328125 
L 16.703125 61.421875 
C 17.40625 59.640625 17.796875 58.734375 21.90625 49.890625 
L 43.296875 3.6875 
L 45.09375 0 
L 57.40625 0 
L 57.40625 69 
L 49.59375 69 
L 49.59375 7.65625 
L 49.5 7.5625 
C 48.796875 9.34375 48.40625 10.234375 44.296875 19.09375 
z
" id="CMSS17-78"/>
      <path d="M 35.5 69 
L 26.90625 69 
L 2.59375 0 
L 10.203125 0 
L 17.203125 20 
L 44 20 
L 51.09375 0 
L 59.796875 0 
z
M 42.09375 25.59375 
L 19.09375 25.59375 
C 23.90625 39.53125 29.90625 56.84375 30.59375 61.3125 
L 30.703125 61.3125 
C 31.40625 57.234375 33.40625 51.265625 35.09375 46.1875 
z
" id="CMSS17-65"/>
     </defs>
     <g transform="translate(44.575092 734.365816)rotate(-90)scale(0.2 -0.2)">
      <use transform="scale(0.996264)" xlink:href="#CMSS17-109"/>
      <use transform="translate(74.229254 0)scale(0.996264)" xlink:href="#CMSS17-82"/>
      <use transform="translate(134.645409 0)scale(0.996264)" xlink:href="#CMSS17-78"/>
      <use transform="translate(200.706928 0)scale(0.996264)" xlink:href="#CMSS17-65"/>
      <use transform="translate(294.153896 0)scale(0.996264)" xlink:href="#CMSS17-99"/>
      <use transform="translate(335.792718 0)scale(0.996264)" xlink:href="#CMSS17-111"/>
      <use transform="translate(382.636342 0)scale(0.996264)" xlink:href="#CMSS17-110"/>
      <use transform="translate(430.841285 0)scale(0.996264)" xlink:href="#CMSS17-99"/>
      <use transform="translate(472.480107 0)scale(0.996264)" xlink:href="#CMSS17-101"/>
      <use transform="translate(514.118929 0)scale(0.996264)" xlink:href="#CMSS17-110"/>
      <use transform="translate(562.323872 0)scale(0.996264)" xlink:href="#CMSS17-116"/>
      <use transform="translate(596.155439 0)scale(0.996264)" xlink:href="#CMSS17-114"/>
      <use transform="translate(628.065211 0)scale(0.996264)" xlink:href="#CMSS17-97"/>
      <use transform="translate(672.987132 0)scale(0.996264)" xlink:href="#CMSS17-116"/>
      <use transform="translate(706.818699 0)scale(0.996264)" xlink:href="#CMSS17-105"/>
      <use transform="translate(728.999422 0)scale(0.996264)" xlink:href="#CMSS17-111"/>
      <use transform="translate(775.843045 0)scale(0.996264)" xlink:href="#CMSS17-110"/>
      <use transform="translate(855.277101 0)scale(0.996264)" xlink:href="#CMSS17-97"/>
      <use transform="translate(900.199022 0)scale(0.996264)" xlink:href="#CMSS17-116"/>
      <use transform="translate(965.259701 0)scale(0.996264)" xlink:href="#CMSS17-66"/>
      <use transform="translate(1027.597741 0)scale(0.996264)" xlink:href="#CMSS17-76"/>
     </g>
    </g>
   </g>
   <g id="line2d_32">
    <path clip-path="url(#p8c95ad14a5)" d="M 97.862427 787.116797 
L 97.881849 787.116797 
L 98.092276 787.116797 
L 100.372196 787.116797 
L 109.804856 787.116797 
L 119.678875 787.116797 
L 129.552895 787.116797 
L 139.426914 787.116797 
L 149.300933 787.116797 
L 159.174952 787.116797 
L 169.048972 787.116797 
L 178.922991 787.116797 
L 188.79701 787.116797 
L 198.671029 787.116797 
L 208.545048 787.116797 
L 218.419068 787.116797 
L 228.293087 787.116797 
L 238.167106 787.116797 
L 248.041125 787.116797 
L 257.915145 787.116797 
L 267.789164 787.116797 
L 277.663183 787.116797 
L 287.537202 787.116797 
L 297.411221 787.116797 
L 307.285241 787.116797 
L 317.15926 787.116797 
L 327.033279 787.116797 
L 336.907298 787.116797 
L 346.781318 787.116797 
L 356.655337 787.116797 
L 366.529356 787.116797 
L 376.403375 787.116797 
L 386.277394 787.116797 
" style="fill:none;stroke:#fbb6bc;stroke-linecap:square;stroke-width:5;"/>
   </g>
   <g id="line2d_33">
    <path clip-path="url(#p8c95ad14a5)" d="M 97.862427 787.116779 
L 97.881849 787.114804 
L 98.092276 787.090915 
L 100.372196 786.689416 
L 109.804856 784.599567 
L 119.678875 782.42716 
L 129.552895 780.405162 
L 139.426914 778.521502 
L 149.300933 776.750672 
L 159.174952 775.08048 
L 169.048972 773.513041 
L 178.922991 772.055768 
L 188.79701 770.714046 
L 198.671029 769.488827 
L 208.545048 768.377087 
L 218.419068 767.373085 
L 228.293087 766.469524 
L 238.167106 765.658422 
L 248.041125 764.93167 
L 257.915145 764.281379 
L 267.789164 763.70008 
L 277.663183 763.180828 
L 287.537202 762.717239 
L 297.411221 762.303501 
L 307.285241 761.934344 
L 317.15926 761.605021 
L 327.033279 761.311269 
L 336.907298 761.049258 
L 346.781318 760.815567 
L 356.655337 760.607136 
L 366.529356 760.42123 
L 376.403375 760.255411 
L 386.277394 760.107502 
" style="fill:none;stroke:#f05a9e;stroke-linecap:square;stroke-width:5;"/>
   </g>
   <g id="line2d_34">
    <path clip-path="url(#p8c95ad14a5)" d="M 97.862427 787.116616 
L 97.881849 787.09687 
L 98.092276 786.857947 
L 100.372196 782.789203 
L 106.966747 766.582266 
L 114.902147 736.802944 
L 124.776166 695.530838 
L 134.650185 661.273286 
L 144.524204 637.689315 
L 154.398224 622.371594 
L 164.272243 612.33941 
L 174.146262 605.595057 
L 184.020281 600.94604 
L 193.894301 597.678318 
L 203.76832 595.349846 
L 213.642339 593.676482 
L 223.516358 592.469394 
L 233.390377 591.599378 
L 243.264397 590.975963 
L 253.138416 590.534514 
L 263.012435 590.228077 
L 272.886454 590.022157 
L 282.760474 589.891074 
L 292.634493 589.815622 
L 302.508512 589.781263 
L 312.382531 589.776991 
L 322.25655 589.79447 
L 332.13057 589.827326 
L 342.004589 589.870707 
L 351.878608 589.920923 
L 361.752627 589.975222 
L 371.626647 590.031486 
L 381.500666 590.08816 
L 391.374685 590.144134 
" style="fill:none;stroke:#a6017d;stroke-linecap:square;stroke-width:5;"/>
   </g>
   <g id="line2d_35">
    <path clip-path="url(#p8c95ad14a5)" d="M 97.862427 787.115894 
L 97.881849 787.017161 
L 98.092276 785.821796 
L 100.289993 766.186013 
L 103.472126 722.319098 
L 107.61598 642.705493 
L 115.711387 540.401495 
L 125.585406 497.567148 
L 135.459425 480.961249 
L 145.333444 473.226372 
L 155.207464 469.3358 
L 165.081483 467.353386 
L 174.955502 466.394625 
L 184.829521 466.010875 
L 194.703541 465.957943 
L 204.57756 466.096134 
L 214.451579 466.342411 
L 224.325598 466.646096 
L 234.199617 466.975821 
L 244.073637 467.31197 
L 253.947656 467.642378 
L 263.821675 467.959527 
L 273.695694 468.25918 
L 283.569714 468.539048 
L 293.443733 468.798139 
L 303.317752 469.03642 
L 313.191771 469.254403 
L 323.065791 469.45301 
L 332.93981 469.633301 
L 342.813829 469.796505 
L 352.687848 469.943821 
L 362.561867 470.076578 
L 372.435887 470.195941 
L 382.309906 470.303138 
L 392.183925 470.399229 
" style="fill:none;stroke:#49006a;stroke-linecap:square;stroke-width:5;"/>
   </g>
   <g id="patch_9">
    <path d="M 83.146352 803.174739 
L 83.146352 449.9 
" style="fill:none;stroke:#000000;stroke-linecap:square;stroke-linejoin:miter;stroke-width:0.8;"/>
   </g>
   <g id="patch_10">
    <path d="M 406.9 803.174739 
L 406.9 449.9 
" style="fill:none;stroke:#000000;stroke-linecap:square;stroke-linejoin:miter;stroke-width:0.8;"/>
   </g>
   <g id="patch_11">
    <path d="M 83.146352 803.174739 
L 406.9 803.174739 
" style="fill:none;stroke:#000000;stroke-linecap:square;stroke-linejoin:miter;stroke-width:0.8;"/>
   </g>
   <g id="patch_12">
    <path d="M 83.146352 449.9 
L 406.9 449.9 
" style="fill:none;stroke:#000000;stroke-linecap:square;stroke-linejoin:miter;stroke-width:0.8;"/>
   </g>
   <g id="legend_2">
    <g id="patch_13">
     <path d="M 97.146352 577.402534 
L 239.64936 577.402534 
Q 243.64936 577.402534 243.64936 573.402534 
L 243.64936 463.9 
Q 243.64936 459.9 239.64936 459.9 
L 97.146352 459.9 
Q 93.146352 459.9 93.146352 463.9 
L 93.146352 573.402534 
Q 93.146352 577.402534 97.146352 577.402534 
z
" style="fill:#ffffff;opacity:0.8;stroke:#cccccc;stroke-linejoin:miter;"/>
    </g>
    <g id="line2d_36">
     <path d="M 101.146352 474.9 
L 141.146352 474.9 
" style="fill:none;stroke:#fbb6bc;stroke-linecap:square;stroke-width:5;"/>
    </g>
    <g id="line2d_37"/>
    <g id="text_27">
     <!-- $k_{M}=$0.0 -->
     <g transform="translate(157.146352 481.9)scale(0.2 -0.2)">
      <use transform="translate(0 14.943915)scale(0.996264)" xlink:href="#CMMI12-107"/>
      <use transform="translate(50.735189 0)scale(0.697382)" xlink:href="#CMMI12-77"/>
      <use transform="translate(152.253071 14.943915)scale(0.996264)" xlink:href="#CMR17-61"/>
      <use transform="translate(223.96786 14.943915)scale(0.996264)" xlink:href="#CMSS17-48"/>
      <use transform="translate(270.811483 14.943915)scale(0.996264)" xlink:href="#CMSS17-46"/>
      <use transform="translate(296.835688 14.943915)scale(0.996264)" xlink:href="#CMSS17-48"/>
     </g>
    </g>
    <g id="line2d_38">
     <path d="M 101.146352 502.775634 
L 141.146352 502.775634 
" style="fill:none;stroke:#f05a9e;stroke-linecap:square;stroke-width:5;"/>
    </g>
    <g id="line2d_39"/>
    <g id="text_28">
     <!-- $k_{M}=$0.01 -->
     <g transform="translate(157.146352 509.775634)scale(0.2 -0.2)">
      <use transform="translate(0 14.943915)scale(0.996264)" xlink:href="#CMMI12-107"/>
      <use transform="translate(50.735189 0)scale(0.697382)" xlink:href="#CMMI12-77"/>
      <use transform="translate(152.253071 14.943915)scale(0.996264)" xlink:href="#CMR17-61"/>
      <use transform="translate(223.96786 14.943915)scale(0.996264)" xlink:href="#CMSS17-48"/>
      <use transform="translate(270.811483 14.943915)scale(0.996264)" xlink:href="#CMSS17-46"/>
      <use transform="translate(296.835688 14.943915)scale(0.996264)" xlink:href="#CMSS17-48"/>
      <use transform="translate(343.679312 14.943915)scale(0.996264)" xlink:href="#CMSS17-49"/>
     </g>
    </g>
    <g id="line2d_40">
     <path d="M 101.146352 530.651267 
L 141.146352 530.651267 
" style="fill:none;stroke:#a6017d;stroke-linecap:square;stroke-width:5;"/>
    </g>
    <g id="line2d_41"/>
    <g id="text_29">
     <!-- $k_{M}=$0.1 -->
     <g transform="translate(157.146352 537.651267)scale(0.2 -0.2)">
      <use transform="translate(0 14.943915)scale(0.996264)" xlink:href="#CMMI12-107"/>
      <use transform="translate(50.735189 0)scale(0.697382)" xlink:href="#CMMI12-77"/>
      <use transform="translate(152.253071 14.943915)scale(0.996264)" xlink:href="#CMR17-61"/>
      <use transform="translate(223.96786 14.943915)scale(0.996264)" xlink:href="#CMSS17-48"/>
      <use transform="translate(270.811483 14.943915)scale(0.996264)" xlink:href="#CMSS17-46"/>
      <use transform="translate(296.835688 14.943915)scale(0.996264)" xlink:href="#CMSS17-49"/>
     </g>
    </g>
    <g id="line2d_42">
     <path d="M 101.146352 558.526901 
L 141.146352 558.526901 
" style="fill:none;stroke:#49006a;stroke-linecap:square;stroke-width:5;"/>
    </g>
    <g id="line2d_43"/>
    <g id="text_30">
     <!-- $k_{M}=$0.5 -->
     <g transform="translate(157.146352 565.526901)scale(0.2 -0.2)">
      <use transform="translate(0 14.943915)scale(0.996264)" xlink:href="#CMMI12-107"/>
      <use transform="translate(50.735189 0)scale(0.697382)" xlink:href="#CMMI12-77"/>
      <use transform="translate(152.253071 14.943915)scale(0.996264)" xlink:href="#CMR17-61"/>
      <use transform="translate(223.96786 14.943915)scale(0.996264)" xlink:href="#CMSS17-48"/>
      <use transform="translate(270.811483 14.943915)scale(0.996264)" xlink:href="#CMSS17-46"/>
      <use transform="translate(296.835688 14.943915)scale(0.996264)" xlink:href="#CMSS17-53"/>
     </g>
    </g>
   </g>
  </g>
  <g id="axes_3">
   <g id="patch_14">
    <path d="M 83.146352 1227.974739 
L 406.9 1227.974739 
L 406.9 874.7 
L 83.146352 874.7 
z
" style="fill:#ffffff;"/>
   </g>
   <g id="matplotlib.axis_5">
    <g id="xtick_9">
     <g id="line2d_44">
      <g>
       <use style="stroke:#000000;stroke-width:0.8;" x="97.862427" xlink:href="#m979f9d3a48" y="1227.974739"/>
      </g>
     </g>
     <g id="text_31">
      <!-- $0$ -->
      <g transform="translate(93.293379 1248.811736)scale(0.2 -0.2)">
       <use transform="scale(0.996264)" xlink:href="#CMR17-48"/>
      </g>
     </g>
    </g>
    <g id="xtick_10">
     <g id="line2d_45">
      <g>
       <use style="stroke:#000000;stroke-width:0.8;" x="196.602619" xlink:href="#m979f9d3a48" y="1227.974739"/>
      </g>
     </g>
     <g id="text_32">
      <!-- $1$ -->
      <g transform="translate(192.033572 1248.811736)scale(0.2 -0.2)">
       <use transform="scale(0.996264)" xlink:href="#CMR17-49"/>
      </g>
     </g>
    </g>
    <g id="xtick_11">
     <g id="line2d_46">
      <g>
       <use style="stroke:#000000;stroke-width:0.8;" x="295.342811" xlink:href="#m979f9d3a48" y="1227.974739"/>
      </g>
     </g>
     <g id="text_33">
      <!-- $2$ -->
      <g transform="translate(290.773764 1248.811736)scale(0.2 -0.2)">
       <use transform="scale(0.996264)" xlink:href="#CMR17-50"/>
      </g>
     </g>
    </g>
    <g id="xtick_12">
     <g id="line2d_47">
      <g>
       <use style="stroke:#000000;stroke-width:0.8;" x="394.083004" xlink:href="#m979f9d3a48" y="1227.974739"/>
      </g>
     </g>
     <g id="text_34">
      <!-- $3$ -->
      <g transform="translate(389.513956 1248.811736)scale(0.2 -0.2)">
       <use transform="scale(0.996264)" xlink:href="#CMR17-51"/>
      </g>
     </g>
    </g>
    <g id="text_35">
     <!-- Time -->
     <g transform="translate(224.836357 1270.524366)scale(0.2 -0.2)">
      <use transform="scale(0.996264)" xlink:href="#CMSS17-84"/>
      <use transform="translate(63.819454 0)scale(0.996264)" xlink:href="#CMSS17-105"/>
      <use transform="translate(86.000177 0)scale(0.996264)" xlink:href="#CMSS17-109"/>
      <use transform="translate(160.229431 0)scale(0.996264)" xlink:href="#CMSS17-101"/>
     </g>
    </g>
   </g>
   <g id="matplotlib.axis_6">
    <g id="ytick_11">
     <g id="line2d_48">
      <g>
       <use style="stroke:#000000;stroke-width:0.8;" x="83.146352" xlink:href="#m60a607f2e3" y="1211.916797"/>
      </g>
     </g>
     <g id="text_36">
      <!-- $0.00$ -->
      <g transform="translate(43.31263 1218.835295)scale(0.2 -0.2)">
       <use transform="scale(0.996264)" xlink:href="#CMR17-48"/>
       <use transform="translate(45.690477 0)scale(0.996264)" xlink:href="#CMMI12-58"/>
       <use transform="translate(72.787654 0)scale(0.996264)" xlink:href="#CMR17-48"/>
       <use transform="translate(118.478131 0)scale(0.996264)" xlink:href="#CMR17-48"/>
      </g>
     </g>
    </g>
    <g id="ytick_12">
     <g id="line2d_49">
      <g>
       <use style="stroke:#000000;stroke-width:0.8;" x="83.146352" xlink:href="#m60a607f2e3" y="1164.571699"/>
      </g>
     </g>
     <g id="text_37">
      <!-- $0.01$ -->
      <g transform="translate(43.31263 1171.490197)scale(0.2 -0.2)">
       <use transform="scale(0.996264)" xlink:href="#CMR17-48"/>
       <use transform="translate(45.690477 0)scale(0.996264)" xlink:href="#CMMI12-58"/>
       <use transform="translate(72.787654 0)scale(0.996264)" xlink:href="#CMR17-48"/>
       <use transform="translate(118.478131 0)scale(0.996264)" xlink:href="#CMR17-49"/>
      </g>
     </g>
    </g>
    <g id="ytick_13">
     <g id="line2d_50">
      <g>
       <use style="stroke:#000000;stroke-width:0.8;" x="83.146352" xlink:href="#m60a607f2e3" y="1117.226601"/>
      </g>
     </g>
     <g id="text_38">
      <!-- $0.02$ -->
      <g transform="translate(43.31263 1124.145099)scale(0.2 -0.2)">
       <use transform="scale(0.996264)" xlink:href="#CMR17-48"/>
       <use transform="translate(45.690477 0)scale(0.996264)" xlink:href="#CMMI12-58"/>
       <use transform="translate(72.787654 0)scale(0.996264)" xlink:href="#CMR17-48"/>
       <use transform="translate(118.478131 0)scale(0.996264)" xlink:href="#CMR17-50"/>
      </g>
     </g>
    </g>
    <g id="ytick_14">
     <g id="line2d_51">
      <g>
       <use style="stroke:#000000;stroke-width:0.8;" x="83.146352" xlink:href="#m60a607f2e3" y="1069.881503"/>
      </g>
     </g>
     <g id="text_39">
      <!-- $0.03$ -->
      <g transform="translate(43.31263 1076.800002)scale(0.2 -0.2)">
       <use transform="scale(0.996264)" xlink:href="#CMR17-48"/>
       <use transform="translate(45.690477 0)scale(0.996264)" xlink:href="#CMMI12-58"/>
       <use transform="translate(72.787654 0)scale(0.996264)" xlink:href="#CMR17-48"/>
       <use transform="translate(118.478131 0)scale(0.996264)" xlink:href="#CMR17-51"/>
      </g>
     </g>
    </g>
    <g id="ytick_15">
     <g id="line2d_52">
      <g>
       <use style="stroke:#000000;stroke-width:0.8;" x="83.146352" xlink:href="#m60a607f2e3" y="1022.536406"/>
      </g>
     </g>
     <g id="text_40">
      <!-- $0.04$ -->
      <g transform="translate(43.31263 1029.454904)scale(0.2 -0.2)">
       <use transform="scale(0.996264)" xlink:href="#CMR17-48"/>
       <use transform="translate(45.690477 0)scale(0.996264)" xlink:href="#CMMI12-58"/>
       <use transform="translate(72.787654 0)scale(0.996264)" xlink:href="#CMR17-48"/>
       <use transform="translate(118.478131 0)scale(0.996264)" xlink:href="#CMR17-52"/>
      </g>
     </g>
    </g>
    <g id="ytick_16">
     <g id="line2d_53">
      <g>
       <use style="stroke:#000000;stroke-width:0.8;" x="83.146352" xlink:href="#m60a607f2e3" y="975.191308"/>
      </g>
     </g>
     <g id="text_41">
      <!-- $0.05$ -->
      <g transform="translate(43.31263 982.109806)scale(0.2 -0.2)">
       <use transform="scale(0.996264)" xlink:href="#CMR17-48"/>
       <use transform="translate(45.690477 0)scale(0.996264)" xlink:href="#CMMI12-58"/>
       <use transform="translate(72.787654 0)scale(0.996264)" xlink:href="#CMR17-48"/>
       <use transform="translate(118.478131 0)scale(0.996264)" xlink:href="#CMR17-53"/>
      </g>
     </g>
    </g>
    <g id="ytick_17">
     <g id="line2d_54">
      <g>
       <use style="stroke:#000000;stroke-width:0.8;" x="83.146352" xlink:href="#m60a607f2e3" y="927.84621"/>
      </g>
     </g>
     <g id="text_42">
      <!-- $0.06$ -->
      <defs>
       <path d="M 10.59375 34.34375 
C 10.59375 58 21.796875 63.6875 28.296875 63.6875 
C 30.40625 63.6875 35.5 63.265625 37.5 59.09375 
C 35.90625 59.09375 32.90625 59.09375 32.90625 55.59375 
C 32.90625 52.890625 35.09375 52 36.5 52 
C 37.40625 52 40.09375 52.390625 40.09375 55.796875 
C 40.09375 62.296875 35.09375 66 28.203125 66 
C 16.296875 66 3.796875 53.296875 3.796875 31.421875 
C 3.796875 4.015625 15.09375 -2 23.09375 -2 
C 32.796875 -2 42 6.734375 42 20.234375 
C 42 32.828125 33.90625 42 23.703125 42 
C 17.59375 42 13.09375 37.96875 10.59375 30.921875 
z
M 23.09375 0.390625 
C 10.796875 0.390625 10.796875 18.9375 10.796875 22.65625 
C 10.796875 29.90625 14.203125 40.390625 23.5 40.390625 
C 25.203125 40.390625 30.09375 40.390625 33.40625 33.4375 
C 35.203125 29.515625 35.203125 25.375 35.203125 20.34375 
C 35.203125 14.90625 35.203125 10.875 33.09375 6.84375 
C 30.90625 2.703125 27.703125 0.390625 23.09375 0.390625 
z
" id="CMR17-54"/>
      </defs>
      <g transform="translate(43.31263 934.764708)scale(0.2 -0.2)">
       <use transform="scale(0.996264)" xlink:href="#CMR17-48"/>
       <use transform="translate(45.690477 0)scale(0.996264)" xlink:href="#CMMI12-58"/>
       <use transform="translate(72.787654 0)scale(0.996264)" xlink:href="#CMR17-48"/>
       <use transform="translate(118.478131 0)scale(0.996264)" xlink:href="#CMR17-54"/>
      </g>
     </g>
    </g>
    <g id="ytick_18">
     <g id="line2d_55">
      <g>
       <use style="stroke:#000000;stroke-width:0.8;" x="83.146352" xlink:href="#m60a607f2e3" y="880.501112"/>
      </g>
     </g>
     <g id="text_43">
      <!-- $0.07$ -->
      <defs>
       <path d="M 45.09375 61.796875 
L 45.09375 64 
L 21.59375 64 
C 9.90625 64 9.703125 65.09375 9.296875 67 
L 7.5 67 
L 4.59375 48.5 
L 6.40625 48.5 
C 6.703125 50.40625 7.40625 55.5 8.59375 57.390625 
C 9.203125 58.1875 16.59375 58.1875 18.296875 58.1875 
L 40.296875 58.1875 
L 29.203125 41.71875 
C 21.796875 30.640625 16.703125 15.671875 16.703125 2.59375 
C 16.703125 1.390625 16.703125 -2 20.296875 -2 
C 23.90625 -2 23.90625 1.390625 23.90625 2.6875 
L 23.90625 7.28125 
C 23.90625 23.65625 26.703125 34.4375 31.296875 41.3125 
z
" id="CMR17-55"/>
      </defs>
      <g transform="translate(43.31263 887.419611)scale(0.2 -0.2)">
       <use transform="scale(0.996264)" xlink:href="#CMR17-48"/>
       <use transform="translate(45.690477 0)scale(0.996264)" xlink:href="#CMMI12-58"/>
       <use transform="translate(72.787654 0)scale(0.996264)" xlink:href="#CMR17-48"/>
       <use transform="translate(118.478131 0)scale(0.996264)" xlink:href="#CMR17-55"/>
      </g>
     </g>
    </g>
    <g id="text_44">
     <!-- Rate of mRNA change -->
     <defs>
      <path d="M 16.796875 37.1875 
L 26.90625 37.1875 
L 26.90625 43 
L 16.59375 43 
L 16.59375 55.671875 
C 16.59375 62.703125 22 63.890625 25.09375 63.890625 
C 26.09375 63.890625 28.90625 63.890625 32.5 62.609375 
L 32.5 69.1875 
C 30.203125 69.6875 27.40625 70 25.203125 70 
C 15.90625 70 9.40625 62.40625 9.40625 52.59375 
L 9.40625 43 
L 2.5 43 
L 2.5 37.1875 
L 9.40625 37.1875 
L 9.40625 0 
L 16.796875 0 
z
" id="CMSS17-102"/>
      <path d="M 40.90625 29.34375 
C 40.90625 35.671875 39.40625 44 28.09375 44 
C 21.796875 44 17.703125 40.890625 14.796875 37.484375 
L 14.796875 69 
L 7.40625 69 
L 7.40625 0 
L 15 0 
L 15 24.3125 
C 15 30.65625 17.40625 37.890625 24.203125 37.890625 
C 33 37.890625 33.296875 31.953125 33.296875 28.53125 
L 33.296875 0 
L 40.90625 0 
z
" id="CMSS17-104"/>
      <path d="M 44.5 44 
C 38.796875 43.890625 33.90625 42.796875 29.90625 40.890625 
C 26.59375 43.484375 23.203125 44 20.90625 44 
C 12.203125 44 5.59375 36.8125 5.59375 28.5 
C 5.59375 23.140625 8.59375 19.09375 8.796875 18.890625 
C 7 16.390625 6 13.6875 6 10.6875 
C 6 7.1875 7.40625 4.6875 8.5 3.296875 
C 3.296875 0.09375 2.59375 -4.8125 2.59375 -6.703125 
C 2.59375 -14 11.703125 -20 23.40625 -20 
C 35.203125 -20 44.296875 -14 44.296875 -6.609375 
C 44.296875 7.1875 29 7.296875 24.796875 7.296875 
L 16.703125 7.296875 
C 15.203125 7.296875 11.203125 7.296875 11.203125 12.390625 
C 11.203125 14.390625 12.09375 15.6875 12.203125 15.796875 
C 13.703125 14.6875 16.796875 13 20.90625 13 
C 29.203125 13 36.09375 19.984375 36.09375 28.5 
C 36.09375 33.25 33.90625 36.703125 33 37.890625 
L 33.296875 37.890625 
C 33.59375 37.890625 37.796875 38.1875 39.296875 38.1875 
C 42.5 38.1875 42.796875 38.09375 45.59375 37.796875 
z
M 20.90625 18.5 
C 17.5 18.5 12.703125 20.578125 12.703125 28.5 
C 12.703125 37.109375 18.203125 38.484375 20.796875 38.484375 
C 24.203125 38.484375 29 36.40625 29 28.5 
C 29 19.875 23.5 18.5 20.90625 18.5 
z
M 24.703125 0 
C 27.09375 0 37.203125 0 37.203125 -6.8125 
C 37.203125 -11.109375 31 -14.5 23.5 -14.5 
C 15.90625 -14.5 9.703125 -11.203125 9.703125 -6.703125 
C 9.703125 -6.203125 9.703125 0 16.59375 0 
z
" id="CMSS17-103"/>
     </defs>
     <g transform="translate(35.436997 1139.771732)rotate(-90)scale(0.2 -0.2)">
      <use transform="scale(0.996264)" xlink:href="#CMSS17-82"/>
      <use transform="translate(60.416155 0)scale(0.996264)" xlink:href="#CMSS17-97"/>
      <use transform="translate(105.338075 0)scale(0.996264)" xlink:href="#CMSS17-116"/>
      <use transform="translate(139.169642 0)scale(0.996264)" xlink:href="#CMSS17-101"/>
      <use transform="translate(212.037577 0)scale(0.996264)" xlink:href="#CMSS17-111"/>
      <use transform="translate(258.881201 0)scale(0.996264)" xlink:href="#CMSS17-102"/>
      <use transform="translate(318.736972 0)scale(0.996264)" xlink:href="#CMSS17-109"/>
      <use transform="translate(392.966227 0)scale(0.996264)" xlink:href="#CMSS17-82"/>
      <use transform="translate(453.382381 0)scale(0.996264)" xlink:href="#CMSS17-78"/>
      <use transform="translate(519.443901 0)scale(0.996264)" xlink:href="#CMSS17-65"/>
      <use transform="translate(612.890868 0)scale(0.996264)" xlink:href="#CMSS17-99"/>
      <use transform="translate(654.52969 0)scale(0.996264)" xlink:href="#CMSS17-104"/>
      <use transform="translate(702.734633 0)scale(0.996264)" xlink:href="#CMSS17-97"/>
      <use transform="translate(747.656554 0)scale(0.996264)" xlink:href="#CMSS17-110"/>
      <use transform="translate(795.861497 0)scale(0.996264)" xlink:href="#CMSS17-103"/>
      <use transform="translate(842.705121 0)scale(0.996264)" xlink:href="#CMSS17-101"/>
     </g>
    </g>
   </g>
   <g id="line2d_56">
    <path clip-path="url(#pcbb28cd466)" d="M 97.862427 1211.916797 
L 97.881849 1211.916797 
L 98.092276 1211.916797 
L 100.372196 1211.916797 
L 109.804856 1211.916797 
L 119.678875 1211.916797 
L 129.552895 1211.916797 
L 139.426914 1211.916797 
L 149.300933 1211.916797 
L 159.174952 1211.916797 
L 169.048972 1211.916797 
L 178.922991 1211.916797 
L 188.79701 1211.916797 
L 198.671029 1211.916797 
L 208.545048 1211.916797 
L 218.419068 1211.916797 
L 228.293087 1211.916797 
L 238.167106 1211.916797 
L 248.041125 1211.916797 
L 257.915145 1211.916797 
L 267.789164 1211.916797 
L 277.663183 1211.916797 
L 287.537202 1211.916797 
L 297.411221 1211.916797 
L 307.285241 1211.916797 
L 317.15926 1211.916797 
L 327.033279 1211.916797 
L 336.907298 1211.916797 
L 346.781318 1211.916797 
L 356.655337 1211.916797 
L 366.529356 1211.916797 
L 376.403375 1211.916797 
L 386.277394 1211.916797 
" style="fill:none;stroke:#cecfe5;stroke-linecap:square;stroke-width:5;"/>
   </g>
   <g id="line2d_57">
    <path clip-path="url(#pcbb28cd466)" d="M 97.862427 1210.426266 
L 97.881849 1210.394331 
L 98.092276 1210.100296 
L 100.372196 1208.804882 
L 109.804856 1207.895981 
L 119.678875 1207.822443 
L 129.552895 1207.812432 
L 139.426914 1207.783153 
L 149.300933 1207.738638 
L 159.174952 1207.700872 
L 169.048972 1207.684648 
L 178.922991 1207.691914 
L 188.79701 1207.717879 
L 198.671029 1207.756501 
L 208.545048 1207.802675 
L 218.419068 1207.852641 
L 228.293087 1207.903797 
L 238.167106 1207.954405 
L 248.041125 1208.003347 
L 257.915145 1208.049935 
L 267.789164 1208.093775 
L 277.663183 1208.134679 
L 287.537202 1208.172595 
L 297.411221 1208.207562 
L 307.285241 1208.239682 
L 317.15926 1208.26909 
L 327.033279 1208.295944 
L 336.907298 1208.320417 
L 346.781318 1208.342677 
L 356.655337 1208.362896 
L 366.529356 1208.381239 
L 376.403375 1208.397861 
L 386.277394 1208.412911 
" style="fill:none;stroke:#9692c4;stroke-linecap:square;stroke-width:5;"/>
   </g>
   <g id="line2d_58">
    <path clip-path="url(#pcbb28cd466)" d="M 97.862427 1197.011495 
L 97.881849 1196.692103 
L 98.092276 1193.74569 
L 100.372196 1179.904549 
L 106.966747 1160.716701 
L 114.902147 1138.623787 
L 124.776166 1133.878289 
L 134.650185 1143.425796 
L 144.524204 1155.207498 
L 154.398224 1164.545839 
L 164.272243 1171.309958 
L 174.146262 1176.193344 
L 184.020281 1179.774738 
L 193.894301 1182.448227 
L 203.76832 1184.476284 
L 213.642339 1186.036199 
L 223.516358 1187.250304 
L 233.390377 1188.204776 
L 243.264397 1188.961536 
L 253.138416 1189.565853 
L 263.012435 1190.051368 
L 272.886454 1190.443425 
L 282.760474 1190.761366 
L 292.634493 1191.020114 
L 302.508512 1191.231302 
L 312.382531 1191.404074 
L 322.25655 1191.545674 
L 332.13057 1191.661887 
L 342.004589 1191.75735 
L 351.878608 1191.835816 
L 361.752627 1191.900314 
L 371.626647 1191.953319 
L 381.500666 1191.996853 
L 391.374685 1192.032575 
" style="fill:none;stroke:#674ba0;stroke-linecap:square;stroke-width:5;"/>
   </g>
   <g id="line2d_59">
    <path clip-path="url(#pcbb28cd466)" d="M 97.862427 1137.390296 
L 97.881849 1135.792443 
L 98.092276 1120.926273 
L 100.289993 1037.173125 
L 103.472126 924.306209 
L 107.61598 890.757943 
L 115.711387 1048.908044 
L 125.585406 1137.656842 
L 135.459425 1167.809984 
L 145.333444 1180.86567 
L 155.207464 1187.54027 
L 165.081483 1191.308973 
L 174.955502 1193.576802 
L 184.829521 1195.001262 
L 194.703541 1195.922285 
L 204.57756 1196.528876 
L 214.451579 1196.932138 
L 224.325598 1197.20036 
L 234.199617 1197.377056 
L 244.073637 1197.490793 
L 253.947656 1197.560806 
L 263.821675 1197.600303 
L 273.695694 1197.618495 
L 283.569714 1197.621914 
L 293.443733 1197.615214 
L 303.317752 1197.601743 
L 313.191771 1197.583922 
L 323.065791 1197.5635 
L 332.93981 1197.541717 
L 342.813829 1197.519491 
L 352.687848 1197.497442 
L 362.561867 1197.476022 
L 372.435887 1197.455514 
L 382.309906 1197.436102 
L 392.183925 1197.417903 
" style="fill:none;stroke:#3f007d;stroke-linecap:square;stroke-width:5;"/>
   </g>
   <g id="patch_15">
    <path d="M 83.146352 1227.974739 
L 83.146352 874.7 
" style="fill:none;stroke:#000000;stroke-linecap:square;stroke-linejoin:miter;stroke-width:0.8;"/>
   </g>
   <g id="patch_16">
    <path d="M 406.9 1227.974739 
L 406.9 874.7 
" style="fill:none;stroke:#000000;stroke-linecap:square;stroke-linejoin:miter;stroke-width:0.8;"/>
   </g>
   <g id="patch_17">
    <path d="M 83.146352 1227.974739 
L 406.9 1227.974739 
" style="fill:none;stroke:#000000;stroke-linecap:square;stroke-linejoin:miter;stroke-width:0.8;"/>
   </g>
   <g id="patch_18">
    <path d="M 83.146352 874.7 
L 406.9 874.7 
" style="fill:none;stroke:#000000;stroke-linecap:square;stroke-linejoin:miter;stroke-width:0.8;"/>
   </g>
   <g id="legend_3">
    <g id="patch_19">
     <path d="M 250.396992 1002.202534 
L 392.9 1002.202534 
Q 396.9 1002.202534 396.9 998.202534 
L 396.9 888.7 
Q 396.9 884.7 392.9 884.7 
L 250.396992 884.7 
Q 246.396992 884.7 246.396992 888.7 
L 246.396992 998.202534 
Q 246.396992 1002.202534 250.396992 1002.202534 
z
" style="fill:#ffffff;opacity:0.8;stroke:#cccccc;stroke-linejoin:miter;"/>
    </g>
    <g id="line2d_60">
     <path d="M 254.396992 899.7 
L 294.396992 899.7 
" style="fill:none;stroke:#cecfe5;stroke-linecap:square;stroke-width:5;"/>
    </g>
    <g id="line2d_61"/>
    <g id="text_45">
     <!-- $k_{M}=$0.0 -->
     <g transform="translate(310.396992 906.7)scale(0.2 -0.2)">
      <use transform="translate(0 14.943915)scale(0.996264)" xlink:href="#CMMI12-107"/>
      <use transform="translate(50.735189 0)scale(0.697382)" xlink:href="#CMMI12-77"/>
      <use transform="translate(152.253071 14.943915)scale(0.996264)" xlink:href="#CMR17-61"/>
      <use transform="translate(223.96786 14.943915)scale(0.996264)" xlink:href="#CMSS17-48"/>
      <use transform="translate(270.811483 14.943915)scale(0.996264)" xlink:href="#CMSS17-46"/>
      <use transform="translate(296.835688 14.943915)scale(0.996264)" xlink:href="#CMSS17-48"/>
     </g>
    </g>
    <g id="line2d_62">
     <path d="M 254.396992 927.575634 
L 294.396992 927.575634 
" style="fill:none;stroke:#9692c4;stroke-linecap:square;stroke-width:5;"/>
    </g>
    <g id="line2d_63"/>
    <g id="text_46">
     <!-- $k_{M}=$0.01 -->
     <g transform="translate(310.396992 934.575634)scale(0.2 -0.2)">
      <use transform="translate(0 14.943915)scale(0.996264)" xlink:href="#CMMI12-107"/>
      <use transform="translate(50.735189 0)scale(0.697382)" xlink:href="#CMMI12-77"/>
      <use transform="translate(152.253071 14.943915)scale(0.996264)" xlink:href="#CMR17-61"/>
      <use transform="translate(223.96786 14.943915)scale(0.996264)" xlink:href="#CMSS17-48"/>
      <use transform="translate(270.811483 14.943915)scale(0.996264)" xlink:href="#CMSS17-46"/>
      <use transform="translate(296.835688 14.943915)scale(0.996264)" xlink:href="#CMSS17-48"/>
      <use transform="translate(343.679312 14.943915)scale(0.996264)" xlink:href="#CMSS17-49"/>
     </g>
    </g>
    <g id="line2d_64">
     <path d="M 254.396992 955.451267 
L 294.396992 955.451267 
" style="fill:none;stroke:#674ba0;stroke-linecap:square;stroke-width:5;"/>
    </g>
    <g id="line2d_65"/>
    <g id="text_47">
     <!-- $k_{M}=$0.1 -->
     <g transform="translate(310.396992 962.451267)scale(0.2 -0.2)">
      <use transform="translate(0 14.943915)scale(0.996264)" xlink:href="#CMMI12-107"/>
      <use transform="translate(50.735189 0)scale(0.697382)" xlink:href="#CMMI12-77"/>
      <use transform="translate(152.253071 14.943915)scale(0.996264)" xlink:href="#CMR17-61"/>
      <use transform="translate(223.96786 14.943915)scale(0.996264)" xlink:href="#CMSS17-48"/>
      <use transform="translate(270.811483 14.943915)scale(0.996264)" xlink:href="#CMSS17-46"/>
      <use transform="translate(296.835688 14.943915)scale(0.996264)" xlink:href="#CMSS17-49"/>
     </g>
    </g>
    <g id="line2d_66">
     <path d="M 254.396992 983.326901 
L 294.396992 983.326901 
" style="fill:none;stroke:#3f007d;stroke-linecap:square;stroke-width:5;"/>
    </g>
    <g id="line2d_67"/>
    <g id="text_48">
     <!-- $k_{M}=$0.5 -->
     <g transform="translate(310.396992 990.326901)scale(0.2 -0.2)">
      <use transform="translate(0 14.943915)scale(0.996264)" xlink:href="#CMMI12-107"/>
      <use transform="translate(50.735189 0)scale(0.697382)" xlink:href="#CMMI12-77"/>
      <use transform="translate(152.253071 14.943915)scale(0.996264)" xlink:href="#CMR17-61"/>
      <use transform="translate(223.96786 14.943915)scale(0.996264)" xlink:href="#CMSS17-48"/>
      <use transform="translate(270.811483 14.943915)scale(0.996264)" xlink:href="#CMSS17-46"/>
      <use transform="translate(296.835688 14.943915)scale(0.996264)" xlink:href="#CMSS17-53"/>
     </g>
    </g>
   </g>
  </g>
 </g>
 <defs>
  <clipPath id="p6d163612a0">
   <rect height="353.274739" width="323.753648" x="83.146352" y="25.1"/>
  </clipPath>
  <clipPath id="p8c95ad14a5">
   <rect height="353.274739" width="323.753648" x="83.146352" y="449.9"/>
  </clipPath>
  <clipPath id="pcbb28cd466">
   <rect height="353.274739" width="323.753648" x="83.146352" y="874.7"/>
  </clipPath>
 </defs>
</svg>
