<?xml version="1.0" encoding="utf-8" standalone="no"?>
<!DOCTYPE svg PUBLIC "-//W3C//DTD SVG 1.1//EN"
  "http://www.w3.org/Graphics/SVG/1.1/DTD/svg11.dtd">
<!-- Created with matplotlib (http://matplotlib.org/) -->
<svg height="1440pt" version="1.1" viewBox="0 0 360 1440" width="360pt" xmlns="http://www.w3.org/2000/svg" xmlns:xlink="http://www.w3.org/1999/xlink">
 <defs>
  <style type="text/css">
*{stroke-linecap:butt;stroke-linejoin:round;}
  </style>
 </defs>
 <g id="figure_1">
  <g id="patch_1">
   <path d="M 0 1440 
L 360 1440 
L 360 0 
L 0 0 
z
" style="fill:#ffffff;"/>
  </g>
  <g id="axes_1">
   <g id="patch_2">
    <path d="M 92.284447 308.174739 
L 334.9 308.174739 
L 334.9 25.1 
L 92.284447 25.1 
z
" style="fill:#ffffff;"/>
   </g>
   <g id="matplotlib.axis_1">
    <g id="xtick_1">
     <g id="line2d_1">
      <defs>
       <path d="M 0 0 
L 0 3.5 
" id="mf1a00ae3e0" style="stroke:#000000;stroke-width:0.8;"/>
      </defs>
      <g>
       <use style="stroke:#000000;stroke-width:0.8;" x="103.312427" xlink:href="#mf1a00ae3e0" y="308.174739"/>
      </g>
     </g>
     <g id="text_1">
      <!-- $0$ -->
      <defs>
       <path d="M 42 31.84375 
C 42 37.96875 41.90625 48.421875 37.703125 56.453125 
C 34 63.484375 28.09375 66 22.90625 66 
C 18.09375 66 12 63.78125 8.203125 56.5625 
C 4.203125 49.015625 3.796875 39.671875 3.796875 31.84375 
C 3.796875 26.109375 3.90625 17.375 7 9.734375 
C 11.296875 -0.609375 19 -2 22.90625 -2 
C 27.5 -2 34.5 -0.109375 38.59375 9.4375 
C 41.59375 16.375 42 24.5 42 31.84375 
z
M 22.90625 -0.40625 
C 16.5 -0.40625 12.703125 5.125 11.296875 12.75 
C 10.203125 18.6875 10.203125 27.328125 10.203125 32.953125 
C 10.203125 40.6875 10.203125 47.109375 11.5 53.234375 
C 13.40625 61.78125 19 64.390625 22.90625 64.390625 
C 27 64.390625 32.296875 61.671875 34.203125 53.4375 
C 35.5 47.71875 35.59375 40.984375 35.59375 32.953125 
C 35.59375 26.421875 35.59375 18.375 34.40625 12.453125 
C 32.296875 1.5 26.40625 -0.40625 22.90625 -0.40625 
z
" id="CMR17-48"/>
      </defs>
      <g transform="translate(98.743379 329.011736)scale(0.2 -0.2)">
       <use transform="scale(0.996264)" xlink:href="#CMR17-48"/>
      </g>
     </g>
    </g>
    <g id="xtick_2">
     <g id="line2d_2">
      <g>
       <use style="stroke:#000000;stroke-width:0.8;" x="177.440939" xlink:href="#mf1a00ae3e0" y="308.174739"/>
      </g>
     </g>
     <g id="text_2">
      <!-- $1$ -->
      <defs>
       <path d="M 26.59375 63.796875 
C 26.59375 65.890625 26.5 66 25.09375 66 
C 21.203125 61.359375 15.296875 59.890625 9.703125 59.6875 
C 9.40625 59.6875 8.90625 59.6875 8.796875 59.5 
C 8.703125 59.296875 8.703125 59.09375 8.703125 57 
C 11.796875 57 17 57.59375 21 59.984375 
L 21 7.296875 
C 21 3.796875 20.796875 2.59375 12.203125 2.59375 
L 9.203125 2.59375 
L 9.203125 0 
C 14 0.09375 19 0.1875 23.796875 0.1875 
C 28.59375 0.1875 33.59375 0.09375 38.40625 0 
L 38.40625 2.59375 
L 35.40625 2.59375 
C 26.796875 2.59375 26.59375 3.6875 26.59375 7.296875 
z
" id="CMR17-49"/>
      </defs>
      <g transform="translate(172.871891 329.011736)scale(0.2 -0.2)">
       <use transform="scale(0.996264)" xlink:href="#CMR17-49"/>
      </g>
     </g>
    </g>
    <g id="xtick_3">
     <g id="line2d_3">
      <g>
       <use style="stroke:#000000;stroke-width:0.8;" x="251.56945" xlink:href="#mf1a00ae3e0" y="308.174739"/>
      </g>
     </g>
     <g id="text_3">
      <!-- $2$ -->
      <defs>
       <path d="M 41.703125 15.46875 
L 39.90625 15.46875 
C 38.90625 8.390625 38.09375 7.1875 37.703125 6.59375 
C 37.203125 5.796875 30 5.796875 28.59375 5.796875 
L 9.40625 5.796875 
C 13 9.6875 20 16.765625 28.5 24.9375 
C 34.59375 30.71875 41.703125 37.5 41.703125 47.390625 
C 41.703125 59.1875 32.296875 66 21.796875 66 
C 10.796875 66 4.09375 56.296875 4.09375 47.296875 
C 4.09375 43.390625 7 42.890625 8.203125 42.890625 
C 9.203125 42.890625 12.203125 43.484375 12.203125 46.984375 
C 12.203125 50.09375 9.59375 51 8.203125 51 
C 7.59375 51 7 50.890625 6.59375 50.6875 
C 8.5 59.1875 14.296875 63.390625 20.40625 63.390625 
C 29.09375 63.390625 34.796875 56.5 34.796875 47.390625 
C 34.796875 38.703125 29.703125 31.21875 24 24.734375 
L 4.09375 2.296875 
L 4.09375 0 
L 39.296875 0 
z
" id="CMR17-50"/>
      </defs>
      <g transform="translate(247.000403 329.011736)scale(0.2 -0.2)">
       <use transform="scale(0.996264)" xlink:href="#CMR17-50"/>
      </g>
     </g>
    </g>
    <g id="xtick_4">
     <g id="line2d_4">
      <g>
       <use style="stroke:#000000;stroke-width:0.8;" x="325.697962" xlink:href="#mf1a00ae3e0" y="308.174739"/>
      </g>
     </g>
     <g id="text_4">
      <!-- $3$ -->
      <defs>
       <path d="M 22.09375 34 
C 31 34 34.90625 26.140625 34.90625 17.09375 
C 34.90625 5.03125 28.5 0.390625 22.703125 0.390625 
C 17.40625 0.390625 8.796875 3.015625 6.09375 10.796875 
C 6.59375 10.59375 7.09375 10.59375 7.59375 10.59375 
C 10 10.59375 11.796875 12.1875 11.796875 14.796875 
C 11.796875 17.6875 9.59375 19 7.59375 19 
C 5.90625 19 3.296875 18.1875 3.296875 14.484375 
C 3.296875 5.234375 12.296875 -2 22.90625 -2 
C 34 -2 42.5 6.75 42.5 16.984375 
C 42.5 26.84375 34.5 34 25 35.09375 
C 32.59375 36.671875 39.90625 43.375 39.90625 52.390625 
C 39.90625 60.25 32 66 23 66 
C 13.90625 66 5.90625 60.34375 5.90625 52.296875 
C 5.90625 48.796875 8.5 48.1875 9.796875 48.1875 
C 11.90625 48.1875 13.703125 49.484375 13.703125 52.09375 
C 13.703125 54.6875 11.90625 56 9.796875 56 
C 9.40625 56 8.90625 56 8.5 55.796875 
C 11.40625 62.484375 19.296875 63.6875 22.796875 63.6875 
C 26.296875 63.6875 32.90625 61.96875 32.90625 52.296875 
C 32.90625 49.484375 32.5 44.546875 29.09375 40.21875 
C 26.09375 36.390625 22.703125 36.1875 19.40625 35.890625 
C 18.90625 35.890625 16.59375 35.6875 16.203125 35.6875 
C 15.5 35.59375 15.09375 35.5 15.09375 34.796875 
C 15.09375 34.09375 15.203125 34 17.203125 34 
z
" id="CMR17-51"/>
      </defs>
      <g transform="translate(321.128914 329.011736)scale(0.2 -0.2)">
       <use transform="scale(0.996264)" xlink:href="#CMR17-51"/>
      </g>
     </g>
    </g>
    <g id="text_5">
     <!-- Time -->
     <defs>
      <path d="M 36.203125 62.296875 
L 44.5 62.296875 
C 45.703125 62.296875 46.90625 62.1875 48.09375 62.1875 
L 60.59375 62.1875 
L 60.59375 68.6875 
L 3.40625 68.6875 
L 3.40625 62.1875 
L 15.90625 62.1875 
C 17.09375 62.1875 18.296875 62.296875 19.5 62.296875 
L 27.796875 62.296875 
L 27.796875 0 
L 36.203125 0 
z
" id="CMSS17-84"/>
      <path d="M 15.296875 66 
L 6.90625 66 
L 6.90625 57.59375 
L 15.296875 57.59375 
z
M 14.796875 43 
L 7.40625 43 
L 7.40625 0 
L 14.796875 0 
z
" id="CMSS17-105"/>
      <path d="M 67 29.34375 
C 67 36.078125 65.296875 44 54.09375 44 
C 46.59375 44 42.09375 39.296875 40.09375 36.375 
C 38.296875 41.6875 34.09375 44 28.09375 44 
C 21.296875 44 17 40.09375 14.703125 37.28125 
L 14.703125 43.484375 
L 7.40625 43.484375 
L 7.40625 0 
L 15 0 
L 15 24.3125 
C 15 30.25 17.203125 37.890625 24.296875 37.890625 
C 33.40625 37.890625 33.40625 31.453125 33.40625 28.53125 
L 33.40625 0 
L 41 0 
L 41 24.3125 
C 41 30.25 43.203125 37.890625 50.296875 37.890625 
C 59.40625 37.890625 59.40625 31.453125 59.40625 28.53125 
L 59.40625 0 
L 67 0 
z
" id="CMSS17-109"/>
      <path d="M 39.09375 21.484375 
C 39.09375 24.796875 38.90625 31.265625 35.703125 36.671875 
C 32.203125 42.390625 26.5 44 22.203125 44 
C 11.796875 44 3 34.125 3 21.296875 
C 3 9.046875 12.09375 -1 23.59375 -1 
C 28.09375 -1 33.59375 0.296875 38.59375 3.890625 
C 38.59375 4.296875 38.40625 6.46875 38.296875 6.578125 
C 38.296875 6.765625 38 9.828125 38 10.234375 
C 33.203125 6.375 27.703125 5.09375 23.703125 5.09375 
C 17.296875 5.09375 10.40625 10.421875 10.09375 21.484375 
z
M 10.90625 27 
C 12.203125 32.59375 16.59375 37.890625 22.203125 37.890625 
C 23.703125 37.890625 30.703125 37.6875 32.5 27 
z
" id="CMSS17-101"/>
     </defs>
     <g transform="translate(193.405404 350.724366)scale(0.2 -0.2)">
      <use transform="scale(0.996264)" xlink:href="#CMSS17-84"/>
      <use transform="translate(63.819454 0)scale(0.996264)" xlink:href="#CMSS17-105"/>
      <use transform="translate(86.000177 0)scale(0.996264)" xlink:href="#CMSS17-109"/>
      <use transform="translate(160.229431 0)scale(0.996264)" xlink:href="#CMSS17-101"/>
     </g>
    </g>
   </g>
   <g id="matplotlib.axis_2">
    <g id="ytick_1">
     <g id="line2d_5">
      <defs>
       <path d="M 0 0 
L -3.5 0 
" id="m52cd284a89" style="stroke:#000000;stroke-width:0.8;"/>
      </defs>
      <g>
       <use style="stroke:#000000;stroke-width:0.8;" x="92.284447" xlink:href="#m52cd284a89" y="282.091613"/>
      </g>
     </g>
     <g id="text_6">
      <!-- $0.05$ -->
      <defs>
       <path d="M 18.40625 4.796875 
C 18.40625 7.6875 16 9.6875 13.59375 9.6875 
C 10.703125 9.6875 8.703125 7.296875 8.703125 4.890625 
C 8.703125 2 11.09375 0 13.5 0 
C 16.40625 0 18.40625 2.390625 18.40625 4.796875 
z
" id="CMMI12-58"/>
       <path d="M 11.40625 58.59375 
C 12.40625 58.1875 16.5 56.890625 20.703125 56.890625 
C 30 56.890625 35.09375 61.890625 38 64.6875 
C 38 65.484375 38 66 37.40625 66 
C 37.296875 66 37.09375 66 36.296875 65.59375 
C 32.796875 64.09375 28.703125 63 23.703125 63 
C 20.703125 63 16.203125 63.359375 11.296875 65.484375 
C 10.203125 66 10 66 9.90625 66 
C 9.40625 66 9.296875 65.890625 9.296875 63.90625 
L 9.296875 34.859375 
C 9.296875 33.015625 9.296875 32.5 10.296875 32.5 
C 10.796875 32.5 11 32.703125 11.5 33.421875 
C 14.703125 38.046875 19.09375 40 24.09375 40 
C 27.59375 40 35.09375 37.734375 35.09375 20.203125 
C 35.09375 16.984375 35.09375 11.1875 32.09375 6.59375 
C 29.59375 2.484375 25.703125 0.390625 21.40625 0.390625 
C 14.796875 0.390625 8.09375 4.984375 6.296875 12.6875 
C 6.703125 12.59375 7.5 12.390625 7.90625 12.390625 
C 9.203125 12.390625 11.703125 13.09375 11.703125 16.1875 
C 11.703125 18.890625 9.796875 20 7.90625 20 
C 5.59375 20 4.09375 18.59375 4.09375 15.796875 
C 4.09375 7.09375 11 -2 21.59375 -2 
C 31.90625 -2 41.703125 6.890625 41.703125 19.796875 
C 41.703125 32.09375 33.90625 41.59375 24.203125 41.59375 
C 19.09375 41.59375 14.796875 39.6875 11.40625 36 
z
" id="CMR17-53"/>
      </defs>
      <g transform="translate(52.450726 289.010111)scale(0.2 -0.2)">
       <use transform="scale(0.996264)" xlink:href="#CMR17-48"/>
       <use transform="translate(45.690477 0)scale(0.996264)" xlink:href="#CMMI12-58"/>
       <use transform="translate(72.787654 0)scale(0.996264)" xlink:href="#CMR17-48"/>
       <use transform="translate(118.478131 0)scale(0.996264)" xlink:href="#CMR17-53"/>
      </g>
     </g>
    </g>
    <g id="ytick_2">
     <g id="line2d_6">
      <g>
       <use style="stroke:#000000;stroke-width:0.8;" x="92.284447" xlink:href="#m52cd284a89" y="215.95984"/>
      </g>
     </g>
     <g id="text_7">
      <!-- $0.10$ -->
      <g transform="translate(52.450726 222.878338)scale(0.2 -0.2)">
       <use transform="scale(0.996264)" xlink:href="#CMR17-48"/>
       <use transform="translate(45.690477 0)scale(0.996264)" xlink:href="#CMMI12-58"/>
       <use transform="translate(72.787654 0)scale(0.996264)" xlink:href="#CMR17-49"/>
       <use transform="translate(118.478131 0)scale(0.996264)" xlink:href="#CMR17-48"/>
      </g>
     </g>
    </g>
    <g id="ytick_3">
     <g id="line2d_7">
      <g>
       <use style="stroke:#000000;stroke-width:0.8;" x="92.284447" xlink:href="#m52cd284a89" y="149.828066"/>
      </g>
     </g>
     <g id="text_8">
      <!-- $0.15$ -->
      <g transform="translate(52.450726 156.746564)scale(0.2 -0.2)">
       <use transform="scale(0.996264)" xlink:href="#CMR17-48"/>
       <use transform="translate(45.690477 0)scale(0.996264)" xlink:href="#CMMI12-58"/>
       <use transform="translate(72.787654 0)scale(0.996264)" xlink:href="#CMR17-49"/>
       <use transform="translate(118.478131 0)scale(0.996264)" xlink:href="#CMR17-53"/>
      </g>
     </g>
    </g>
    <g id="ytick_4">
     <g id="line2d_8">
      <g>
       <use style="stroke:#000000;stroke-width:0.8;" x="92.284447" xlink:href="#m52cd284a89" y="83.696292"/>
      </g>
     </g>
     <g id="text_9">
      <!-- $0.20$ -->
      <g transform="translate(52.450726 90.614791)scale(0.2 -0.2)">
       <use transform="scale(0.996264)" xlink:href="#CMR17-48"/>
       <use transform="translate(45.690477 0)scale(0.996264)" xlink:href="#CMMI12-58"/>
       <use transform="translate(72.787654 0)scale(0.996264)" xlink:href="#CMR17-50"/>
       <use transform="translate(118.478131 0)scale(0.996264)" xlink:href="#CMR17-48"/>
      </g>
     </g>
    </g>
    <g id="text_10">
     <!-- Protein concentration at BL -->
     <defs>
      <path d="M 32.90625 29 
C 44.90625 29 54.703125 38.234375 54.703125 49.046875 
C 54.703125 59.65625 45.296875 69 32.296875 69 
L 8.90625 69 
L 8.90625 0 
L 17.296875 0 
L 17.296875 29 
z
M 30.09375 63.390625 
C 41.703125 63.390625 46.796875 56.21875 46.796875 49.046875 
C 46.796875 42.359375 42.09375 34.796875 30.09375 34.796875 
L 17.09375 34.796875 
L 17.09375 63.390625 
z
" id="CMSS17-80"/>
      <path d="M 14.90625 21.390625 
C 14.90625 30.84375 21.796875 37.171875 30.59375 37.375 
L 30.59375 44 
C 24.203125 43.890625 18.203125 40.6875 14.59375 35.46875 
L 14.59375 43.484375 
L 7.5 43.484375 
L 7.5 0 
L 14.90625 0 
z
" id="CMSS17-114"/>
      <path d="M 44.203125 21.1875 
C 44.203125 33.984375 34.703125 44 23.5 44 
C 12 44 2.703125 33.6875 2.703125 21.1875 
C 2.703125 8.5 12.296875 -1 23.40625 -1 
C 34.796875 -1 44.203125 8.796875 44.203125 21.1875 
z
M 23.5 5.296875 
C 16.40625 5.296875 10.296875 11.09375 10.296875 21.984375 
C 10.296875 33.59375 17.40625 37.890625 23.40625 37.890625 
C 29.90625 37.890625 36.59375 33.1875 36.59375 21.984375 
C 36.59375 10.6875 30.09375 5.296875 23.5 5.296875 
z
" id="CMSS17-111"/>
      <path d="M 16.703125 37.1875 
L 29.703125 37.1875 
L 29.703125 43 
L 16.703125 43 
L 16.703125 55 
L 9.59375 55 
L 9.59375 43 
L 1.703125 43 
L 1.703125 37.1875 
L 9.40625 37.1875 
L 9.40625 11.734375 
C 9.40625 6 10.703125 -1 17.296875 -1 
C 22.296875 -1 26.90625 0.390625 31.296875 2.6875 
L 29.703125 8.609375 
C 27.296875 6.5 24.40625 5.296875 21.296875 5.296875 
C 16.90625 5.296875 16.703125 10.921875 16.703125 13.4375 
z
" id="CMSS17-116"/>
      <path d="M 40.90625 29.34375 
C 40.90625 35.671875 39.40625 44 28.09375 44 
C 21.703125 44 17.5 40.6875 14.703125 37.28125 
L 14.703125 43.484375 
L 7.40625 43.484375 
L 7.40625 0 
L 15 0 
L 15 24.3125 
C 15 30.65625 17.40625 37.890625 24.203125 37.890625 
C 33 37.890625 33.296875 31.953125 33.296875 28.53125 
L 33.296875 0 
L 40.90625 0 
z
" id="CMSS17-110"/>
      <path d="M 38.5 39.6875 
C 38.5 40.390625 33.90625 42.390625 32.703125 42.796875 
C 29.40625 44 25.203125 44 24.09375 44 
C 11.09375 44 3.296875 32.6875 3.296875 21.296875 
C 3.296875 9.296875 12 -1 23.703125 -1 
C 30.40625 -1 35.203125 1.1875 39.09375 3.796875 
L 38.5 10.390625 
C 34.203125 7.09375 29.203125 5.296875 23.796875 5.296875 
C 16 5.296875 10.90625 12.09375 10.90625 21.390625 
C 10.90625 28.59375 14.203125 37.6875 24.203125 37.6875 
C 29.703125 37.6875 32.796875 36.59375 37.40625 33.484375 
z
" id="CMSS17-99"/>
      <path d="M 37.59375 27.953125 
C 37.59375 37.484375 30.90625 44 21.90625 44 
C 17.5 44 12.703125 43.1875 7.203125 39.984375 
L 7.796875 33.328125 
C 10.296875 35.15625 14.59375 38.09375 21.796875 38.09375 
C 26.90625 38.09375 30 34.140625 30 27.84375 
L 30 24 
C 14 23.5 4 18.890625 4 11.109375 
C 4 7.0625 6.5 -1 14.796875 -1 
C 16.296875 -1 24.40625 -0.8125 30.203125 3.5 
L 30.203125 -0.203125 
L 37.59375 -0.203125 
z
M 30 12.875 
C 30 11.109375 30 8.734375 27 6.96875 
C 24.40625 5.296875 21.09375 5.09375 19.703125 5.09375 
C 14.703125 5.09375 11.296875 7.859375 11.296875 11.296875 
C 11.296875 18.203125 26.90625 18.890625 30 19 
z
" id="CMSS17-97"/>
      <path d="M 8.90625 69 
L 8.90625 0 
L 33.796875 0 
C 47.40625 0 57.296875 8.984375 57.296875 18.75 
C 57.296875 26.3125 50.796875 33.984375 39.09375 36.1875 
C 52.09375 39.984375 54.703125 47.484375 54.703125 51.734375 
C 54.703125 60.625 44.90625 69 31.203125 69 
z
M 17 39 
L 17 63.390625 
L 28.5 63.390625 
C 38.796875 63.390625 46.90625 58.15625 46.90625 51.640625 
C 46.90625 45.703125 40.5 39 27.59375 39 
z
M 17 5.59375 
L 17 32.890625 
L 30.296875 32.890625 
C 41.09375 32.890625 49.40625 26.21875 49.40625 18.84375 
C 49.40625 12.0625 42.09375 5.59375 31 5.59375 
z
" id="CMSS17-66"/>
      <path d="M 26.09375 6.5 
C 24.90625 6.5 23.703125 6.390625 22.5 6.390625 
L 17.203125 6.390625 
L 17.203125 69 
L 8.796875 69 
L 8.796875 0 
L 46.90625 0 
L 46.90625 6.5 
z
" id="CMSS17-76"/>
     </defs>
     <g transform="translate(44.575092 276.607839)rotate(-90)scale(0.2 -0.2)">
      <use transform="scale(0.996264)" xlink:href="#CMSS17-80"/>
      <use transform="translate(59.735586 0)scale(0.996264)" xlink:href="#CMSS17-114"/>
      <use transform="translate(91.645359 0)scale(0.996264)" xlink:href="#CMSS17-111"/>
      <use transform="translate(138.488982 0)scale(0.996264)" xlink:href="#CMSS17-116"/>
      <use transform="translate(172.320549 0)scale(0.996264)" xlink:href="#CMSS17-101"/>
      <use transform="translate(213.959371 0)scale(0.996264)" xlink:href="#CMSS17-105"/>
      <use transform="translate(236.140094 0)scale(0.996264)" xlink:href="#CMSS17-110"/>
      <use transform="translate(315.57415 0)scale(0.996264)" xlink:href="#CMSS17-99"/>
      <use transform="translate(357.212972 0)scale(0.996264)" xlink:href="#CMSS17-111"/>
      <use transform="translate(404.056596 0)scale(0.996264)" xlink:href="#CMSS17-110"/>
      <use transform="translate(452.261539 0)scale(0.996264)" xlink:href="#CMSS17-99"/>
      <use transform="translate(493.900361 0)scale(0.996264)" xlink:href="#CMSS17-101"/>
      <use transform="translate(535.539183 0)scale(0.996264)" xlink:href="#CMSS17-110"/>
      <use transform="translate(583.744126 0)scale(0.996264)" xlink:href="#CMSS17-116"/>
      <use transform="translate(617.575693 0)scale(0.996264)" xlink:href="#CMSS17-114"/>
      <use transform="translate(649.485465 0)scale(0.996264)" xlink:href="#CMSS17-97"/>
      <use transform="translate(694.407386 0)scale(0.996264)" xlink:href="#CMSS17-116"/>
      <use transform="translate(728.238953 0)scale(0.996264)" xlink:href="#CMSS17-105"/>
      <use transform="translate(750.419676 0)scale(0.996264)" xlink:href="#CMSS17-111"/>
      <use transform="translate(797.263299 0)scale(0.996264)" xlink:href="#CMSS17-110"/>
      <use transform="translate(876.697355 0)scale(0.996264)" xlink:href="#CMSS17-97"/>
      <use transform="translate(921.619276 0)scale(0.996264)" xlink:href="#CMSS17-116"/>
      <use transform="translate(986.679955 0)scale(0.996264)" xlink:href="#CMSS17-66"/>
      <use transform="translate(1049.017995 0)scale(0.996264)" xlink:href="#CMSS17-76"/>
     </g>
    </g>
   </g>
   <g id="line2d_9">
    <path clip-path="url(#p83b105c46c)" d="M 103.312427 295.307706 
L 103.327008 294.214591 
L 103.484985 284.113538 
L 105.196619 235.173133 
L 110.142268 165.437313 
L 116.312188 77.862108 
L 123.725039 37.967034 
L 131.13789 47.202619 
L 138.550741 70.975319 
L 145.963593 92.610147 
L 153.376444 109.344597 
L 160.789295 121.939568 
L 168.202146 131.460458 
L 175.614997 138.743294 
L 183.027848 144.387778 
L 190.440699 148.817864 
L 197.853551 152.335057 
L 205.266402 155.156254 
L 212.679253 157.439795 
L 220.092104 159.302849 
L 227.504955 160.833454 
L 234.917806 162.098582 
L 242.330658 163.14985 
L 249.743509 164.027444 
L 257.15636 164.763075 
L 264.569211 165.381852 
L 271.982062 165.903998 
L 279.394913 166.34581 
L 286.807765 166.720533 
L 294.220616 167.039047 
L 301.633467 167.31026 
L 309.046318 167.541602 
L 316.459169 167.739222 
L 323.87202 167.908245 
" style="fill:none;stroke:#cecece;stroke-linecap:square;stroke-width:5;"/>
   </g>
   <g id="line2d_10">
    <path clip-path="url(#p83b105c46c)" d="M 103.312427 295.307706 
L 103.327008 294.214542 
L 103.484985 284.106739 
L 105.196619 234.440961 
L 110.001528 161.620644 
L 116.312188 71.086812 
L 123.725039 44.54871 
L 131.13789 67.863161 
L 138.550741 97.514368 
L 145.963593 120.422522 
L 153.376444 136.853516 
L 160.789295 148.689086 
L 168.202146 157.378698 
L 175.614997 163.891157 
L 183.027848 168.866211 
L 190.440699 172.732113 
L 197.853551 175.781439 
L 205.266402 178.218157 
L 212.679253 180.18754 
L 220.092104 181.794891 
L 227.504955 183.118032 
L 234.917806 184.21532 
L 242.330658 185.131227 
L 249.743509 185.900058 
L 257.15636 186.548635 
L 264.569211 187.098146 
L 271.982062 187.565481 
L 279.394913 187.964289 
L 286.807765 188.305606 
L 294.220616 188.598499 
L 301.633467 188.850417 
L 309.046318 189.067539 
L 316.459169 189.255009 
L 323.87202 189.417153 
" style="fill:none;stroke:#6c6c6c;stroke-linecap:square;stroke-width:5;"/>
   </g>
   <g id="line2d_11">
    <path clip-path="url(#p83b105c46c)" d="M 103.312427 295.307706 
L 103.327008 294.214306 
L 103.484985 284.072781 
L 105.196619 230.795482 
L 109.352554 146.255266 
L 116.115059 74.204213 
L 123.52791 117.232928 
L 130.940762 160.167829 
L 138.353613 185.84575 
L 145.766464 201.568607 
L 153.179315 211.813706 
L 160.592166 218.849395 
L 168.005017 223.890069 
L 175.417868 227.628613 
L 182.83072 230.481846 
L 190.243571 232.71172 
L 197.656422 234.489198 
L 205.069273 235.929567 
L 212.482124 237.112883 
L 219.894975 238.096264 
L 227.307827 238.921393 
L 234.720678 239.61937 
L 242.133529 240.213867 
L 249.54638 240.723191 
L 256.959231 241.161722 
L 264.372082 241.540939 
L 271.784934 241.870076 
L 279.197785 242.156662 
L 286.610636 242.406905 
L 294.023487 242.625958 
L 301.436338 242.818109 
L 308.849189 242.986994 
L 316.262041 243.135677 
L 323.674892 243.26678 
" style="fill:none;stroke:#000000;stroke-linecap:square;stroke-width:5;"/>
   </g>
   <g id="patch_3">
    <path d="M 92.284447 308.174739 
L 92.284447 25.1 
" style="fill:none;stroke:#000000;stroke-linecap:square;stroke-linejoin:miter;stroke-width:0.8;"/>
   </g>
   <g id="patch_4">
    <path d="M 334.9 308.174739 
L 334.9 25.1 
" style="fill:none;stroke:#000000;stroke-linecap:square;stroke-linejoin:miter;stroke-width:0.8;"/>
   </g>
   <g id="patch_5">
    <path d="M 92.284447 308.174739 
L 334.9 308.174739 
" style="fill:none;stroke:#000000;stroke-linecap:square;stroke-linejoin:miter;stroke-width:0.8;"/>
   </g>
   <g id="patch_6">
    <path d="M 92.284447 25.1 
L 334.9 25.1 
" style="fill:none;stroke:#000000;stroke-linecap:square;stroke-linejoin:miter;stroke-width:0.8;"/>
   </g>
   <g id="legend_1">
    <g id="patch_7">
     <path d="M 173.187539 124.726901 
L 320.9 124.726901 
Q 324.9 124.726901 324.9 120.726901 
L 324.9 39.1 
Q 324.9 35.1 320.9 35.1 
L 173.187539 35.1 
Q 169.187539 35.1 169.187539 39.1 
L 169.187539 120.726901 
Q 169.187539 124.726901 173.187539 124.726901 
z
" style="fill:#ffffff;opacity:0.8;stroke:#cccccc;stroke-linejoin:miter;"/>
    </g>
    <g id="line2d_12">
     <path d="M 177.187539 50.1 
L 217.187539 50.1 
" style="fill:none;stroke:#cecece;stroke-linecap:square;stroke-width:5;"/>
    </g>
    <g id="line2d_13"/>
    <g id="text_11">
     <!-- $k_{R}=$0.001 -->
     <defs>
      <path d="M 28.09375 66.484375 
C 28.203125 66.890625 28.40625 67.484375 28.40625 67.984375 
C 28.40625 69 27.40625 69 27.203125 69 
C 27.09375 69 23.5 68.6875 21.703125 68.484375 
C 20 68.390625 18.5 68.1875 16.703125 68.09375 
C 14.296875 67.890625 13.59375 67.796875 13.59375 65.984375 
C 13.59375 64.984375 14.59375 64.984375 15.59375 64.984375 
C 20.703125 64.984375 20.703125 64.109375 20.703125 63.125 
C 20.703125 62.71875 20.703125 62.53125 20.203125 60.75 
L 5.90625 3.90625 
C 5.5 2.390625 5.5 2.203125 5.5 1.59375 
C 5.5 -0.609375 7.203125 -1 8.203125 -1 
C 11 -1 11.59375 1.1875 12.40625 4.296875 
L 17.09375 23.0625 
C 24.296875 22.265625 28.59375 19.25 28.59375 14.4375 
C 28.59375 13.828125 28.59375 13.4375 28.296875 11.921875 
C 27.90625 10.421875 27.90625 9.21875 27.90625 8.71875 
C 27.90625 2.890625 31.703125 -1 36.796875 -1 
C 41.40625 -1 43.796875 3.203125 44.59375 4.609375 
C 46.703125 8.3125 48 13.9375 48 14.328125 
C 48 14.828125 47.59375 15.234375 47 15.234375 
C 46.09375 15.234375 46 14.828125 45.59375 13.234375 
C 44.203125 8.015625 42.09375 1 37 1 
C 35 1 33.703125 2 33.703125 5.8125 
C 33.703125 7.71875 34.09375 9.921875 34.5 11.421875 
C 34.90625 13.234375 34.90625 13.328125 34.90625 14.53125 
C 34.90625 20.453125 29.59375 23.765625 20.40625 24.96875 
C 24 27.171875 27.59375 31.078125 29 32.59375 
C 34.703125 38.984375 38.59375 41.984375 43.203125 41.984375 
C 45.5 41.984375 46.09375 41.484375 46.796875 41 
C 43.09375 40.59375 41.703125 37.984375 41.703125 35.984375 
C 41.703125 33.59375 43.59375 32.796875 45 32.796875 
C 47.703125 32.796875 50.09375 35.09375 50.09375 38.296875 
C 50.09375 41.15625 47.796875 44 43.296875 44 
C 37.796875 44 33.296875 40.296875 26.203125 32.296875 
C 25.203125 31.078125 21.5 27.28125 17.796875 25.875 
z
" id="CMMI12-107"/>
      <path d="M 36.796875 61.203125 
C 37.703125 64.890625 38.09375 65.09375 42 65.09375 
L 49.203125 65.09375 
C 57.796875 65.09375 64.203125 62.5 64.203125 54.734375 
C 64.203125 49.640625 61.59375 35 41.5 35 
L 30.203125 35 
z
M 50.703125 33.796875 
C 63.09375 36.484375 72.796875 44.46875 72.796875 53.03125 
C 72.796875 60.8125 64.90625 68 51 68 
L 23.90625 68 
C 21.90625 68 21 68 21 66.09375 
C 21 65.09375 21.703125 65.09375 23.59375 65.09375 
C 29.59375 65.09375 29.59375 64.296875 29.59375 63.203125 
C 29.59375 63 29.59375 62.40625 29.203125 60.90625 
L 15.703125 7.421875 
C 14.796875 3.953125 14.59375 2.96875 7.703125 2.96875 
C 5.40625 2.96875 4.703125 2.96875 4.703125 1.078125 
C 4.703125 0.09375 5.796875 0.09375 6.09375 0.09375 
C 7.90625 0.09375 10 0.296875 11.90625 0.296875 
L 23.703125 0.296875 
C 25.5 0.296875 27.59375 0.09375 29.40625 0.09375 
C 30.203125 0.09375 31.296875 0.09375 31.296875 1.96875 
C 31.296875 2.96875 30.40625 2.96875 28.90625 2.96875 
C 22.796875 2.96875 22.796875 3.765625 22.796875 4.75 
C 22.796875 4.84375 22.796875 5.546875 23 6.328125 
L 29.703125 33 
L 41.703125 33 
C 51.203125 33 53 27.046875 53 23.78125 
C 53 22.28125 52 18.421875 51.296875 15.84375 
C 50.203125 11.296875 49.90625 10.203125 49.90625 8.3125 
C 49.90625 1.28125 55.703125 -2 62.40625 -2 
C 70.5 -2 74 7.828125 74 9.203125 
C 74 9.90625 73.5 10.203125 72.90625 10.203125 
C 72.09375 10.203125 71.90625 9.609375 71.703125 8.8125 
C 69.296875 1.78125 65.203125 0 62.703125 0 
C 60.203125 0 58.59375 1.078125 58.59375 5.546875 
C 58.59375 7.921875 59.796875 16.9375 59.90625 17.4375 
C 60.40625 21.09375 60.40625 21.5 60.40625 22.28125 
C 60.40625 29.515625 54.5 32.59375 50.703125 33.796875 
z
" id="CMMI12-82"/>
      <path d="M 64.296875 32 
C 65.796875 32 67.296875 32 67.296875 33.6875 
C 67.296875 35.5 65.59375 35.5 63.90625 35.5 
L 8 35.5 
C 6.296875 35.5 4.59375 35.5 4.59375 33.6875 
C 4.59375 32 6.09375 32 7.59375 32 
z
M 63.90625 14.484375 
C 65.59375 14.484375 67.296875 14.484375 67.296875 16.296875 
C 67.296875 18 65.796875 18 64.296875 18 
L 7.59375 18 
C 6.09375 18 4.59375 18 4.59375 16.296875 
C 4.59375 14.484375 6.296875 14.484375 8 14.484375 
z
" id="CMR17-61"/>
      <path d="M 43.09375 32.390625 
C 43.09375 38.109375 43 48.75 38.90625 56.984375 
C 34.796875 64.890625 28.203125 67 23.5 67 
C 16.703125 67 10.90625 62.984375 7.90625 56.578125 
C 4.703125 49.859375 3.796875 42.9375 3.796875 32.390625 
C 3.796875 25.171875 4.09375 16.34375 7.703125 8.609375 
C 11.796875 0.09375 18.703125 -2 23.40625 -2 
C 29.59375 -2 35.59375 1.296875 39 8.203125 
C 42.5 15.4375 43.09375 23.359375 43.09375 32.390625 
z
M 23.40625 4.09375 
C 15.796875 4.09375 13.5 12.828125 12.796875 15.734375 
C 11.59375 20.75 11.40625 25.5625 11.40625 33.5 
C 11.40625 39.71875 11.40625 46.75 13.296875 52.265625 
C 15.59375 58.6875 19.59375 60.890625 23.40625 60.890625 
C 30.796875 60.890625 33.203125 53.46875 34 50.859375 
C 35.5 45.546875 35.5 39.3125 35.5 33.5 
C 35.5 24.15625 35.5 4.09375 23.40625 4.09375 
z
" id="CMSS17-48"/>
      <path d="M 17 8 
L 9 8 
L 9 0 
L 17 0 
z
" id="CMSS17-46"/>
      <path d="M 28.40625 67 
L 26.5 67 
C 21.09375 61.703125 14.796875 60.96875 8.40625 60.796875 
L 8.40625 55 
C 11.296875 55.09375 16 55.296875 20.703125 57.390625 
L 20.703125 5.796875 
L 8.90625 5.796875 
L 8.90625 0 
L 40.203125 0 
L 40.203125 5.796875 
L 28.40625 5.796875 
z
" id="CMSS17-49"/>
     </defs>
     <g transform="translate(233.187539 57.1)scale(0.2 -0.2)">
      <use transform="translate(0 14.943915)scale(0.996264)" xlink:href="#CMMI12-107"/>
      <use transform="translate(50.735189 0)scale(0.697382)" xlink:href="#CMMI12-82"/>
      <use transform="translate(131.456759 14.943915)scale(0.996264)" xlink:href="#CMR17-61"/>
      <use transform="translate(203.171548 14.943915)scale(0.996264)" xlink:href="#CMSS17-48"/>
      <use transform="translate(250.015171 14.943915)scale(0.996264)" xlink:href="#CMSS17-46"/>
      <use transform="translate(276.039376 14.943915)scale(0.996264)" xlink:href="#CMSS17-48"/>
      <use transform="translate(322.883 14.943915)scale(0.996264)" xlink:href="#CMSS17-48"/>
      <use transform="translate(369.726623 14.943915)scale(0.996264)" xlink:href="#CMSS17-49"/>
     </g>
    </g>
    <g id="line2d_14">
     <path d="M 177.187539 77.975634 
L 217.187539 77.975634 
" style="fill:none;stroke:#6c6c6c;stroke-linecap:square;stroke-width:5;"/>
    </g>
    <g id="line2d_15"/>
    <g id="text_12">
     <!-- $k_{R}=$0.005 -->
     <defs>
      <path d="M 14.59375 59.59375 
L 39.09375 59.59375 
L 39.09375 66 
L 7.296875 66 
L 7.296875 28.59375 
L 14 28.59375 
C 15.796875 32.859375 19.5 36 24.296875 36 
C 28.796875 36 33.796875 31.9375 33.796875 20.296875 
C 33.796875 7.84375 26.703125 4.1875 21.5 4.1875 
C 15.09375 4.1875 9.203125 8.140625 6.59375 13.609375 
L 3.40625 7.9375 
C 8 0.796875 15.5 -2 21.5 -2 
C 33.09375 -2 42.203125 7.9375 42.203125 20.09375 
C 42.203125 32.546875 34.09375 42.09375 24.40625 42.09375 
C 20.90625 42.09375 17.5 40.890625 14.59375 38.5 
z
" id="CMSS17-53"/>
     </defs>
     <g transform="translate(233.187539 84.975634)scale(0.2 -0.2)">
      <use transform="translate(0 14.943915)scale(0.996264)" xlink:href="#CMMI12-107"/>
      <use transform="translate(50.735189 0)scale(0.697382)" xlink:href="#CMMI12-82"/>
      <use transform="translate(131.456759 14.943915)scale(0.996264)" xlink:href="#CMR17-61"/>
      <use transform="translate(203.171548 14.943915)scale(0.996264)" xlink:href="#CMSS17-48"/>
      <use transform="translate(250.015171 14.943915)scale(0.996264)" xlink:href="#CMSS17-46"/>
      <use transform="translate(276.039376 14.943915)scale(0.996264)" xlink:href="#CMSS17-48"/>
      <use transform="translate(322.883 14.943915)scale(0.996264)" xlink:href="#CMSS17-48"/>
      <use transform="translate(369.726623 14.943915)scale(0.996264)" xlink:href="#CMSS17-53"/>
     </g>
    </g>
    <g id="line2d_16">
     <path d="M 177.187539 105.851267 
L 217.187539 105.851267 
" style="fill:none;stroke:#000000;stroke-linecap:square;stroke-width:5;"/>
    </g>
    <g id="line2d_17"/>
    <g id="text_13">
     <!-- $k_{R}=$0.025 -->
     <defs>
      <path d="M 25.796875 21.140625 
C 28.59375 24.03125 32.796875 27.515625 35.703125 31 
C 38.5 34.390625 42.203125 39.171875 42.203125 46.140625 
C 42.203125 57.109375 34.796875 67 22.203125 67 
C 12.296875 67 6.59375 60.796875 3.90625 51.125 
L 7.796875 45.75 
C 10 54.8125 13.09375 60.59375 20.90625 60.59375 
C 29.5 60.59375 34.296875 53.609375 34.296875 45.9375 
C 34.296875 36.78125 27.296875 29.703125 22 24.421875 
C 16.09375 18.546875 10.296875 12.578125 4.703125 6.390625 
L 4.703125 0 
L 42.203125 0 
L 42.203125 6.796875 
L 25.203125 6.796875 
C 24 6.796875 22.796875 6.6875 21.59375 6.6875 
L 11.59375 6.6875 
L 11.59375 6.796875 
z
" id="CMSS17-50"/>
     </defs>
     <g transform="translate(233.187539 112.851267)scale(0.2 -0.2)">
      <use transform="translate(0 14.943915)scale(0.996264)" xlink:href="#CMMI12-107"/>
      <use transform="translate(50.735189 0)scale(0.697382)" xlink:href="#CMMI12-82"/>
      <use transform="translate(131.456759 14.943915)scale(0.996264)" xlink:href="#CMR17-61"/>
      <use transform="translate(203.171548 14.943915)scale(0.996264)" xlink:href="#CMSS17-48"/>
      <use transform="translate(250.015171 14.943915)scale(0.996264)" xlink:href="#CMSS17-46"/>
      <use transform="translate(276.039376 14.943915)scale(0.996264)" xlink:href="#CMSS17-48"/>
      <use transform="translate(322.883 14.943915)scale(0.996264)" xlink:href="#CMSS17-50"/>
      <use transform="translate(369.726623 14.943915)scale(0.996264)" xlink:href="#CMSS17-53"/>
     </g>
    </g>
   </g>
  </g>
  <g id="axes_2">
   <g id="patch_8">
    <path d="M 92.284447 662.774739 
L 334.9 662.774739 
L 334.9 379.7 
L 92.284447 379.7 
z
" style="fill:#ffffff;"/>
   </g>
   <g id="matplotlib.axis_3">
    <g id="xtick_5">
     <g id="line2d_18">
      <g>
       <use style="stroke:#000000;stroke-width:0.8;" x="103.312427" xlink:href="#mf1a00ae3e0" y="662.774739"/>
      </g>
     </g>
     <g id="text_14">
      <!-- $0$ -->
      <g transform="translate(98.743379 683.611736)scale(0.2 -0.2)">
       <use transform="scale(0.996264)" xlink:href="#CMR17-48"/>
      </g>
     </g>
    </g>
    <g id="xtick_6">
     <g id="line2d_19">
      <g>
       <use style="stroke:#000000;stroke-width:0.8;" x="177.440939" xlink:href="#mf1a00ae3e0" y="662.774739"/>
      </g>
     </g>
     <g id="text_15">
      <!-- $1$ -->
      <g transform="translate(172.871891 683.611736)scale(0.2 -0.2)">
       <use transform="scale(0.996264)" xlink:href="#CMR17-49"/>
      </g>
     </g>
    </g>
    <g id="xtick_7">
     <g id="line2d_20">
      <g>
       <use style="stroke:#000000;stroke-width:0.8;" x="251.56945" xlink:href="#mf1a00ae3e0" y="662.774739"/>
      </g>
     </g>
     <g id="text_16">
      <!-- $2$ -->
      <g transform="translate(247.000403 683.611736)scale(0.2 -0.2)">
       <use transform="scale(0.996264)" xlink:href="#CMR17-50"/>
      </g>
     </g>
    </g>
    <g id="xtick_8">
     <g id="line2d_21">
      <g>
       <use style="stroke:#000000;stroke-width:0.8;" x="325.697962" xlink:href="#mf1a00ae3e0" y="662.774739"/>
      </g>
     </g>
     <g id="text_17">
      <!-- $3$ -->
      <g transform="translate(321.128914 683.611736)scale(0.2 -0.2)">
       <use transform="scale(0.996264)" xlink:href="#CMR17-51"/>
      </g>
     </g>
    </g>
    <g id="text_18">
     <!-- Time -->
     <g transform="translate(193.405404 705.324366)scale(0.2 -0.2)">
      <use transform="scale(0.996264)" xlink:href="#CMSS17-84"/>
      <use transform="translate(63.819454 0)scale(0.996264)" xlink:href="#CMSS17-105"/>
      <use transform="translate(86.000177 0)scale(0.996264)" xlink:href="#CMSS17-109"/>
      <use transform="translate(160.229431 0)scale(0.996264)" xlink:href="#CMSS17-101"/>
     </g>
    </g>
   </g>
   <g id="matplotlib.axis_4">
    <g id="ytick_5">
     <g id="line2d_22">
      <g>
       <use style="stroke:#000000;stroke-width:0.8;" x="92.284447" xlink:href="#m52cd284a89" y="649.907946"/>
      </g>
     </g>
     <g id="text_19">
      <!-- $0.00$ -->
      <g transform="translate(52.450726 656.826445)scale(0.2 -0.2)">
       <use transform="scale(0.996264)" xlink:href="#CMR17-48"/>
       <use transform="translate(45.690477 0)scale(0.996264)" xlink:href="#CMMI12-58"/>
       <use transform="translate(72.787654 0)scale(0.996264)" xlink:href="#CMR17-48"/>
       <use transform="translate(118.478131 0)scale(0.996264)" xlink:href="#CMR17-48"/>
      </g>
     </g>
    </g>
    <g id="ytick_6">
     <g id="line2d_23">
      <g>
       <use style="stroke:#000000;stroke-width:0.8;" x="92.284447" xlink:href="#m52cd284a89" y="588.724301"/>
      </g>
     </g>
     <g id="text_20">
      <!-- $0.08$ -->
      <defs>
       <path d="M 27.203125 35.765625 
C 33.5 38.96875 39.90625 43.796875 39.90625 51.53125 
C 39.90625 60.6875 31.09375 66 23 66 
C 13.90625 66 5.90625 59.375 5.90625 50.234375 
C 5.90625 47.71875 6.5 43.390625 10.40625 39.578125 
C 11.40625 38.578125 15.59375 35.5625 18.296875 33.65625 
C 13.796875 31.34375 3.296875 25.8125 3.296875 14.765625 
C 3.296875 4.40625 13.09375 -2 22.796875 -2 
C 33.5 -2 42.5 5.71875 42.5 15.96875 
C 42.5 25.109375 36.40625 29.328125 32.40625 32.046875 
z
M 14.09375 44.609375 
C 13.296875 45.109375 9.296875 48.21875 9.296875 52.9375 
C 9.296875 59.078125 15.59375 63.6875 22.796875 63.6875 
C 30.703125 63.6875 36.5 58.0625 36.5 51.53125 
C 36.5 42.1875 26.09375 36.859375 25.59375 36.859375 
C 25.5 36.859375 25.40625 36.859375 24.59375 37.46875 
z
M 32.5 24 
C 34 22.90625 38.796875 19.578125 38.796875 13.453125 
C 38.796875 6.015625 31.40625 0.390625 23 0.390625 
C 13.90625 0.390625 7 6.921875 7 14.859375 
C 7 22.796875 13.09375 29.4375 20 32.546875 
z
" id="CMR17-56"/>
      </defs>
      <g transform="translate(52.450726 595.6428)scale(0.2 -0.2)">
       <use transform="scale(0.996264)" xlink:href="#CMR17-48"/>
       <use transform="translate(45.690477 0)scale(0.996264)" xlink:href="#CMMI12-58"/>
       <use transform="translate(72.787654 0)scale(0.996264)" xlink:href="#CMR17-48"/>
       <use transform="translate(118.478131 0)scale(0.996264)" xlink:href="#CMR17-56"/>
      </g>
     </g>
    </g>
    <g id="ytick_7">
     <g id="line2d_24">
      <g>
       <use style="stroke:#000000;stroke-width:0.8;" x="92.284447" xlink:href="#m52cd284a89" y="527.540656"/>
      </g>
     </g>
     <g id="text_21">
      <!-- $0.16$ -->
      <defs>
       <path d="M 10.59375 34.34375 
C 10.59375 58 21.796875 63.6875 28.296875 63.6875 
C 30.40625 63.6875 35.5 63.265625 37.5 59.09375 
C 35.90625 59.09375 32.90625 59.09375 32.90625 55.59375 
C 32.90625 52.890625 35.09375 52 36.5 52 
C 37.40625 52 40.09375 52.390625 40.09375 55.796875 
C 40.09375 62.296875 35.09375 66 28.203125 66 
C 16.296875 66 3.796875 53.296875 3.796875 31.421875 
C 3.796875 4.015625 15.09375 -2 23.09375 -2 
C 32.796875 -2 42 6.734375 42 20.234375 
C 42 32.828125 33.90625 42 23.703125 42 
C 17.59375 42 13.09375 37.96875 10.59375 30.921875 
z
M 23.09375 0.390625 
C 10.796875 0.390625 10.796875 18.9375 10.796875 22.65625 
C 10.796875 29.90625 14.203125 40.390625 23.5 40.390625 
C 25.203125 40.390625 30.09375 40.390625 33.40625 33.4375 
C 35.203125 29.515625 35.203125 25.375 35.203125 20.34375 
C 35.203125 14.90625 35.203125 10.875 33.09375 6.84375 
C 30.90625 2.703125 27.703125 0.390625 23.09375 0.390625 
z
" id="CMR17-54"/>
      </defs>
      <g transform="translate(52.450726 534.459154)scale(0.2 -0.2)">
       <use transform="scale(0.996264)" xlink:href="#CMR17-48"/>
       <use transform="translate(45.690477 0)scale(0.996264)" xlink:href="#CMMI12-58"/>
       <use transform="translate(72.787654 0)scale(0.996264)" xlink:href="#CMR17-49"/>
       <use transform="translate(118.478131 0)scale(0.996264)" xlink:href="#CMR17-54"/>
      </g>
     </g>
    </g>
    <g id="ytick_8">
     <g id="line2d_25">
      <g>
       <use style="stroke:#000000;stroke-width:0.8;" x="92.284447" xlink:href="#m52cd284a89" y="466.357011"/>
      </g>
     </g>
     <g id="text_22">
      <!-- $0.24$ -->
      <defs>
       <path d="M 33.59375 64.796875 
C 33.59375 66.890625 33.5 67 31.703125 67 
L 2 19.59375 
L 2 17 
L 27.796875 17 
L 27.796875 7.1875 
C 27.796875 3.59375 27.59375 2.59375 20.59375 2.59375 
L 18.703125 2.59375 
L 18.703125 0 
C 21.90625 0.1875 27.296875 0.1875 30.703125 0.1875 
C 34.09375 0.1875 39.5 0.1875 42.703125 0 
L 42.703125 2.59375 
L 40.796875 2.59375 
C 33.796875 2.59375 33.59375 3.59375 33.59375 7.1875 
L 33.59375 17 
L 43.796875 17 
L 43.796875 19.59375 
L 33.59375 19.59375 
z
M 28.09375 58.171875 
L 28.09375 19.59375 
L 4 19.59375 
z
" id="CMR17-52"/>
      </defs>
      <g transform="translate(52.450726 473.275509)scale(0.2 -0.2)">
       <use transform="scale(0.996264)" xlink:href="#CMR17-48"/>
       <use transform="translate(45.690477 0)scale(0.996264)" xlink:href="#CMMI12-58"/>
       <use transform="translate(72.787654 0)scale(0.996264)" xlink:href="#CMR17-50"/>
       <use transform="translate(118.478131 0)scale(0.996264)" xlink:href="#CMR17-52"/>
      </g>
     </g>
    </g>
    <g id="ytick_9">
     <g id="line2d_26">
      <g>
       <use style="stroke:#000000;stroke-width:0.8;" x="92.284447" xlink:href="#m52cd284a89" y="405.173365"/>
      </g>
     </g>
     <g id="text_23">
      <!-- $0.32$ -->
      <g transform="translate(52.450726 412.091864)scale(0.2 -0.2)">
       <use transform="scale(0.996264)" xlink:href="#CMR17-48"/>
       <use transform="translate(45.690477 0)scale(0.996264)" xlink:href="#CMMI12-58"/>
       <use transform="translate(72.787654 0)scale(0.996264)" xlink:href="#CMR17-51"/>
       <use transform="translate(118.478131 0)scale(0.996264)" xlink:href="#CMR17-50"/>
      </g>
     </g>
    </g>
    <g id="text_24">
     <!-- mRNA concentration at BL -->
     <defs>
      <path d="M 39.40625 32.796875 
L 39.59375 32.890625 
C 55.203125 38.28125 55.296875 48.828125 55.296875 50.6875 
C 55.296875 59.96875 45.703125 69 31.296875 69 
L 8.90625 69 
L 8.90625 0 
L 17.09375 0 
L 17.09375 31.890625 
L 31.796875 31.890625 
L 49.5 0 
L 57.90625 0 
z
M 17.09375 38 
L 17.09375 63.390625 
L 30.203125 63.390625 
C 42.90625 63.390625 47.40625 56.359375 47.40625 50.6875 
C 47.40625 45.421875 43.40625 38 30.203125 38 
z
" id="CMSS17-82"/>
      <path d="M 22.90625 65.296875 
L 21.09375 69 
L 8.796875 69 
L 8.796875 0 
L 16.59375 0 
L 16.59375 61.328125 
L 16.703125 61.421875 
C 17.40625 59.640625 17.796875 58.734375 21.90625 49.890625 
L 43.296875 3.6875 
L 45.09375 0 
L 57.40625 0 
L 57.40625 69 
L 49.59375 69 
L 49.59375 7.65625 
L 49.5 7.5625 
C 48.796875 9.34375 48.40625 10.234375 44.296875 19.09375 
z
" id="CMSS17-78"/>
      <path d="M 35.5 69 
L 26.90625 69 
L 2.59375 0 
L 10.203125 0 
L 17.203125 20 
L 44 20 
L 51.09375 0 
L 59.796875 0 
z
M 42.09375 25.59375 
L 19.09375 25.59375 
C 23.90625 39.53125 29.90625 56.84375 30.59375 61.3125 
L 30.703125 61.3125 
C 31.40625 57.234375 33.40625 51.265625 35.09375 46.1875 
z
" id="CMSS17-65"/>
     </defs>
     <g transform="translate(44.575092 629.065816)rotate(-90)scale(0.2 -0.2)">
      <use transform="scale(0.996264)" xlink:href="#CMSS17-109"/>
      <use transform="translate(74.229254 0)scale(0.996264)" xlink:href="#CMSS17-82"/>
      <use transform="translate(134.645409 0)scale(0.996264)" xlink:href="#CMSS17-78"/>
      <use transform="translate(200.706928 0)scale(0.996264)" xlink:href="#CMSS17-65"/>
      <use transform="translate(294.153896 0)scale(0.996264)" xlink:href="#CMSS17-99"/>
      <use transform="translate(335.792718 0)scale(0.996264)" xlink:href="#CMSS17-111"/>
      <use transform="translate(382.636342 0)scale(0.996264)" xlink:href="#CMSS17-110"/>
      <use transform="translate(430.841285 0)scale(0.996264)" xlink:href="#CMSS17-99"/>
      <use transform="translate(472.480107 0)scale(0.996264)" xlink:href="#CMSS17-101"/>
      <use transform="translate(514.118929 0)scale(0.996264)" xlink:href="#CMSS17-110"/>
      <use transform="translate(562.323872 0)scale(0.996264)" xlink:href="#CMSS17-116"/>
      <use transform="translate(596.155439 0)scale(0.996264)" xlink:href="#CMSS17-114"/>
      <use transform="translate(628.065211 0)scale(0.996264)" xlink:href="#CMSS17-97"/>
      <use transform="translate(672.987132 0)scale(0.996264)" xlink:href="#CMSS17-116"/>
      <use transform="translate(706.818699 0)scale(0.996264)" xlink:href="#CMSS17-105"/>
      <use transform="translate(728.999422 0)scale(0.996264)" xlink:href="#CMSS17-111"/>
      <use transform="translate(775.843045 0)scale(0.996264)" xlink:href="#CMSS17-110"/>
      <use transform="translate(855.277101 0)scale(0.996264)" xlink:href="#CMSS17-97"/>
      <use transform="translate(900.199022 0)scale(0.996264)" xlink:href="#CMSS17-116"/>
      <use transform="translate(965.259701 0)scale(0.996264)" xlink:href="#CMSS17-66"/>
      <use transform="translate(1027.597741 0)scale(0.996264)" xlink:href="#CMSS17-76"/>
     </g>
    </g>
   </g>
   <g id="line2d_27">
    <path clip-path="url(#pea72250ff1)" d="M 103.312427 649.907706 
L 103.327008 649.881364 
L 103.484985 649.562637 
L 105.196619 644.130392 
L 110.142268 622.404587 
L 116.312188 580.759638 
L 123.725039 525.894788 
L 131.13789 481.486194 
L 138.550741 451.515251 
L 145.963593 432.267581 
L 153.376444 419.746557 
L 160.789295 411.377972 
L 168.202146 405.646752 
L 175.614997 401.649987 
L 183.027848 398.829529 
L 190.440699 396.826963 
L 197.853551 395.404335 
L 205.266402 394.399087 
L 212.679253 393.697619 
L 220.092104 393.218859 
L 227.504955 392.904206 
L 234.917806 392.710605 
L 242.330658 392.606146 
L 249.743509 392.567034 
L 257.15636 392.57533 
L 264.569211 392.617565 
L 271.982062 392.683481 
L 279.394913 392.765376 
L 286.807765 392.857367 
L 294.220616 392.955102 
L 301.633467 393.055276 
L 309.046318 393.15545 
L 316.459169 393.253846 
L 323.87202 393.349233 
" style="fill:none;stroke:#cecece;stroke-linecap:square;stroke-width:5;"/>
   </g>
   <g id="line2d_28">
    <path clip-path="url(#pea72250ff1)" d="M 103.312427 649.907706 
L 103.327008 649.881364 
L 103.484985 649.562622 
L 105.196619 644.112269 
L 110.001528 622.747577 
L 116.312188 578.981291 
L 123.725039 525.245128 
L 131.13789 485.048782 
L 138.550741 459.669185 
L 145.963593 444.032663 
L 153.376444 434.164662 
L 160.789295 427.763929 
L 168.202146 423.529413 
L 175.614997 420.698494 
L 183.027848 418.804262 
L 190.440699 417.549616 
L 197.853551 416.739085 
L 205.266402 416.240678 
L 212.679253 415.963177 
L 220.092104 415.842375 
L 227.504955 415.832483 
L 234.917806 415.900383 
L 242.330658 416.021936 
L 249.743509 416.179434 
L 257.15636 416.359838 
L 264.569211 416.553576 
L 271.982062 416.753513 
L 279.394913 416.954545 
L 286.807765 417.152909 
L 294.220616 417.345963 
L 301.633467 417.531815 
L 309.046318 417.709256 
L 316.459169 417.877534 
L 323.87202 418.03624 
" style="fill:none;stroke:#6c6c6c;stroke-linecap:square;stroke-width:5;"/>
   </g>
   <g id="line2d_29">
    <path clip-path="url(#pea72250ff1)" d="M 103.312427 649.907706 
L 103.327008 649.881364 
L 103.484985 649.562549 
L 105.196619 644.02224 
L 109.352554 624.151615 
L 116.115059 576.25981 
L 123.52791 534.970846 
L 130.940762 511.492079 
L 138.353613 498.357077 
L 145.766464 490.738873 
L 153.179315 486.226651 
L 160.592166 483.559861 
L 168.005017 482.035236 
L 175.417868 481.238632 
L 182.83072 480.915306 
L 190.243571 480.90293 
L 197.656422 481.094981 
L 205.069273 481.419925 
L 212.482124 481.828803 
L 219.894975 482.287654 
L 227.307827 482.772705 
L 234.720678 483.26726 
L 242.133529 483.759628 
L 249.54638 484.241659 
L 256.959231 484.707803 
L 264.372082 485.154381 
L 271.784934 485.579099 
L 279.197785 485.980684 
L 286.610636 486.358575 
L 294.023487 486.712796 
L 301.436338 487.0437 
L 308.849189 487.351983 
L 316.262041 487.638475 
L 323.674892 487.904181 
" style="fill:none;stroke:#000000;stroke-linecap:square;stroke-width:5;"/>
   </g>
   <g id="patch_9">
    <path d="M 92.284447 662.774739 
L 92.284447 379.7 
" style="fill:none;stroke:#000000;stroke-linecap:square;stroke-linejoin:miter;stroke-width:0.8;"/>
   </g>
   <g id="patch_10">
    <path d="M 334.9 662.774739 
L 334.9 379.7 
" style="fill:none;stroke:#000000;stroke-linecap:square;stroke-linejoin:miter;stroke-width:0.8;"/>
   </g>
   <g id="patch_11">
    <path d="M 92.284447 662.774739 
L 334.9 662.774739 
" style="fill:none;stroke:#000000;stroke-linecap:square;stroke-linejoin:miter;stroke-width:0.8;"/>
   </g>
   <g id="patch_12">
    <path d="M 92.284447 379.7 
L 334.9 379.7 
" style="fill:none;stroke:#000000;stroke-linecap:square;stroke-linejoin:miter;stroke-width:0.8;"/>
   </g>
   <g id="legend_2">
    <g id="patch_13">
     <path d="M 173.187539 652.774739 
L 320.9 652.774739 
Q 324.9 652.774739 324.9 648.774739 
L 324.9 567.147838 
Q 324.9 563.147838 320.9 563.147838 
L 173.187539 563.147838 
Q 169.187539 563.147838 169.187539 567.147838 
L 169.187539 648.774739 
Q 169.187539 652.774739 173.187539 652.774739 
z
" style="fill:#ffffff;opacity:0.8;stroke:#cccccc;stroke-linejoin:miter;"/>
    </g>
    <g id="line2d_30">
     <path d="M 177.187539 578.147838 
L 217.187539 578.147838 
" style="fill:none;stroke:#cecece;stroke-linecap:square;stroke-width:5;"/>
    </g>
    <g id="line2d_31"/>
    <g id="text_25">
     <!-- $k_{R}=$0.001 -->
     <g transform="translate(233.187539 585.147838)scale(0.2 -0.2)">
      <use transform="translate(0 14.943915)scale(0.996264)" xlink:href="#CMMI12-107"/>
      <use transform="translate(50.735189 0)scale(0.697382)" xlink:href="#CMMI12-82"/>
      <use transform="translate(131.456759 14.943915)scale(0.996264)" xlink:href="#CMR17-61"/>
      <use transform="translate(203.171548 14.943915)scale(0.996264)" xlink:href="#CMSS17-48"/>
      <use transform="translate(250.015171 14.943915)scale(0.996264)" xlink:href="#CMSS17-46"/>
      <use transform="translate(276.039376 14.943915)scale(0.996264)" xlink:href="#CMSS17-48"/>
      <use transform="translate(322.883 14.943915)scale(0.996264)" xlink:href="#CMSS17-48"/>
      <use transform="translate(369.726623 14.943915)scale(0.996264)" xlink:href="#CMSS17-49"/>
     </g>
    </g>
    <g id="line2d_32">
     <path d="M 177.187539 606.023472 
L 217.187539 606.023472 
" style="fill:none;stroke:#6c6c6c;stroke-linecap:square;stroke-width:5;"/>
    </g>
    <g id="line2d_33"/>
    <g id="text_26">
     <!-- $k_{R}=$0.005 -->
     <g transform="translate(233.187539 613.023472)scale(0.2 -0.2)">
      <use transform="translate(0 14.943915)scale(0.996264)" xlink:href="#CMMI12-107"/>
      <use transform="translate(50.735189 0)scale(0.697382)" xlink:href="#CMMI12-82"/>
      <use transform="translate(131.456759 14.943915)scale(0.996264)" xlink:href="#CMR17-61"/>
      <use transform="translate(203.171548 14.943915)scale(0.996264)" xlink:href="#CMSS17-48"/>
      <use transform="translate(250.015171 14.943915)scale(0.996264)" xlink:href="#CMSS17-46"/>
      <use transform="translate(276.039376 14.943915)scale(0.996264)" xlink:href="#CMSS17-48"/>
      <use transform="translate(322.883 14.943915)scale(0.996264)" xlink:href="#CMSS17-48"/>
      <use transform="translate(369.726623 14.943915)scale(0.996264)" xlink:href="#CMSS17-53"/>
     </g>
    </g>
    <g id="line2d_34">
     <path d="M 177.187539 633.899106 
L 217.187539 633.899106 
" style="fill:none;stroke:#000000;stroke-linecap:square;stroke-width:5;"/>
    </g>
    <g id="line2d_35"/>
    <g id="text_27">
     <!-- $k_{R}=$0.025 -->
     <g transform="translate(233.187539 640.899106)scale(0.2 -0.2)">
      <use transform="translate(0 14.943915)scale(0.996264)" xlink:href="#CMMI12-107"/>
      <use transform="translate(50.735189 0)scale(0.697382)" xlink:href="#CMMI12-82"/>
      <use transform="translate(131.456759 14.943915)scale(0.996264)" xlink:href="#CMR17-61"/>
      <use transform="translate(203.171548 14.943915)scale(0.996264)" xlink:href="#CMSS17-48"/>
      <use transform="translate(250.015171 14.943915)scale(0.996264)" xlink:href="#CMSS17-46"/>
      <use transform="translate(276.039376 14.943915)scale(0.996264)" xlink:href="#CMSS17-48"/>
      <use transform="translate(322.883 14.943915)scale(0.996264)" xlink:href="#CMSS17-50"/>
      <use transform="translate(369.726623 14.943915)scale(0.996264)" xlink:href="#CMSS17-53"/>
     </g>
    </g>
   </g>
  </g>
  <g id="axes_3">
   <g id="patch_14">
    <path d="M 92.284447 1017.374739 
L 334.9 1017.374739 
L 334.9 734.3 
L 92.284447 734.3 
z
" style="fill:#ffffff;"/>
   </g>
   <g id="matplotlib.axis_5">
    <g id="xtick_9">
     <g id="line2d_36">
      <g>
       <use style="stroke:#000000;stroke-width:0.8;" x="103.312427" xlink:href="#mf1a00ae3e0" y="1017.374739"/>
      </g>
     </g>
     <g id="text_28">
      <!-- $0$ -->
      <g transform="translate(98.743379 1038.211736)scale(0.2 -0.2)">
       <use transform="scale(0.996264)" xlink:href="#CMR17-48"/>
      </g>
     </g>
    </g>
    <g id="xtick_10">
     <g id="line2d_37">
      <g>
       <use style="stroke:#000000;stroke-width:0.8;" x="177.440939" xlink:href="#mf1a00ae3e0" y="1017.374739"/>
      </g>
     </g>
     <g id="text_29">
      <!-- $1$ -->
      <g transform="translate(172.871891 1038.211736)scale(0.2 -0.2)">
       <use transform="scale(0.996264)" xlink:href="#CMR17-49"/>
      </g>
     </g>
    </g>
    <g id="xtick_11">
     <g id="line2d_38">
      <g>
       <use style="stroke:#000000;stroke-width:0.8;" x="251.56945" xlink:href="#mf1a00ae3e0" y="1017.374739"/>
      </g>
     </g>
     <g id="text_30">
      <!-- $2$ -->
      <g transform="translate(247.000403 1038.211736)scale(0.2 -0.2)">
       <use transform="scale(0.996264)" xlink:href="#CMR17-50"/>
      </g>
     </g>
    </g>
    <g id="xtick_12">
     <g id="line2d_39">
      <g>
       <use style="stroke:#000000;stroke-width:0.8;" x="325.697962" xlink:href="#mf1a00ae3e0" y="1017.374739"/>
      </g>
     </g>
     <g id="text_31">
      <!-- $3$ -->
      <g transform="translate(321.128914 1038.211736)scale(0.2 -0.2)">
       <use transform="scale(0.996264)" xlink:href="#CMR17-51"/>
      </g>
     </g>
    </g>
    <g id="text_32">
     <!-- Time -->
     <g transform="translate(193.405404 1059.924366)scale(0.2 -0.2)">
      <use transform="scale(0.996264)" xlink:href="#CMSS17-84"/>
      <use transform="translate(63.819454 0)scale(0.996264)" xlink:href="#CMSS17-105"/>
      <use transform="translate(86.000177 0)scale(0.996264)" xlink:href="#CMSS17-109"/>
      <use transform="translate(160.229431 0)scale(0.996264)" xlink:href="#CMSS17-101"/>
     </g>
    </g>
   </g>
   <g id="matplotlib.axis_6">
    <g id="ytick_10">
     <g id="line2d_40">
      <g>
       <use style="stroke:#000000;stroke-width:0.8;" x="92.284447" xlink:href="#m52cd284a89" y="991.179183"/>
      </g>
     </g>
     <g id="text_33">
      <!-- $0.004$ -->
      <g transform="translate(43.31263 998.097681)scale(0.2 -0.2)">
       <use transform="scale(0.996264)" xlink:href="#CMR17-48"/>
       <use transform="translate(45.690477 0)scale(0.996264)" xlink:href="#CMMI12-58"/>
       <use transform="translate(72.787654 0)scale(0.996264)" xlink:href="#CMR17-48"/>
       <use transform="translate(118.478131 0)scale(0.996264)" xlink:href="#CMR17-48"/>
       <use transform="translate(164.168608 0)scale(0.996264)" xlink:href="#CMR17-52"/>
      </g>
     </g>
    </g>
    <g id="ytick_11">
     <g id="line2d_41">
      <g>
       <use style="stroke:#000000;stroke-width:0.8;" x="92.284447" xlink:href="#m52cd284a89" y="928.586975"/>
      </g>
     </g>
     <g id="text_34">
      <!-- $0.008$ -->
      <g transform="translate(43.31263 935.505473)scale(0.2 -0.2)">
       <use transform="scale(0.996264)" xlink:href="#CMR17-48"/>
       <use transform="translate(45.690477 0)scale(0.996264)" xlink:href="#CMMI12-58"/>
       <use transform="translate(72.787654 0)scale(0.996264)" xlink:href="#CMR17-48"/>
       <use transform="translate(118.478131 0)scale(0.996264)" xlink:href="#CMR17-48"/>
       <use transform="translate(164.168608 0)scale(0.996264)" xlink:href="#CMR17-56"/>
      </g>
     </g>
    </g>
    <g id="ytick_12">
     <g id="line2d_42">
      <g>
       <use style="stroke:#000000;stroke-width:0.8;" x="92.284447" xlink:href="#m52cd284a89" y="865.994766"/>
      </g>
     </g>
     <g id="text_35">
      <!-- $0.012$ -->
      <g transform="translate(43.31263 872.913265)scale(0.2 -0.2)">
       <use transform="scale(0.996264)" xlink:href="#CMR17-48"/>
       <use transform="translate(45.690477 0)scale(0.996264)" xlink:href="#CMMI12-58"/>
       <use transform="translate(72.787654 0)scale(0.996264)" xlink:href="#CMR17-48"/>
       <use transform="translate(118.478131 0)scale(0.996264)" xlink:href="#CMR17-49"/>
       <use transform="translate(164.168608 0)scale(0.996264)" xlink:href="#CMR17-50"/>
      </g>
     </g>
    </g>
    <g id="ytick_13">
     <g id="line2d_43">
      <g>
       <use style="stroke:#000000;stroke-width:0.8;" x="92.284447" xlink:href="#m52cd284a89" y="803.402558"/>
      </g>
     </g>
     <g id="text_36">
      <!-- $0.016$ -->
      <g transform="translate(43.31263 810.321056)scale(0.2 -0.2)">
       <use transform="scale(0.996264)" xlink:href="#CMR17-48"/>
       <use transform="translate(45.690477 0)scale(0.996264)" xlink:href="#CMMI12-58"/>
       <use transform="translate(72.787654 0)scale(0.996264)" xlink:href="#CMR17-48"/>
       <use transform="translate(118.478131 0)scale(0.996264)" xlink:href="#CMR17-49"/>
       <use transform="translate(164.168608 0)scale(0.996264)" xlink:href="#CMR17-54"/>
      </g>
     </g>
    </g>
    <g id="ytick_14">
     <g id="line2d_44">
      <g>
       <use style="stroke:#000000;stroke-width:0.8;" x="92.284447" xlink:href="#m52cd284a89" y="740.81035"/>
      </g>
     </g>
     <g id="text_37">
      <!-- $0.020$ -->
      <g transform="translate(43.31263 747.728848)scale(0.2 -0.2)">
       <use transform="scale(0.996264)" xlink:href="#CMR17-48"/>
       <use transform="translate(45.690477 0)scale(0.996264)" xlink:href="#CMMI12-58"/>
       <use transform="translate(72.787654 0)scale(0.996264)" xlink:href="#CMR17-48"/>
       <use transform="translate(118.478131 0)scale(0.996264)" xlink:href="#CMR17-50"/>
       <use transform="translate(164.168608 0)scale(0.996264)" xlink:href="#CMR17-48"/>
      </g>
     </g>
    </g>
    <g id="text_38">
     <!-- mRNA production rate -->
     <defs>
      <path d="M 15.09375 4.296875 
C 18.40625 1.09375 22.90625 -1 27.703125 -1 
C 37 -1 45 8.640625 45 21.59375 
C 45 33.546875 39 44 30.40625 44 
C 25.40625 44 19.40625 42.1875 14.90625 38.59375 
L 14.90625 43.1875 
L 7.5 43.1875 
L 7.5 -20 
L 15.09375 -20 
z
M 15.09375 32.625 
C 15.90625 33.84375 19.296875 37.6875 24.796875 37.6875 
C 31.796875 37.6875 37.40625 30.40625 37.40625 21.59375 
C 37.40625 11.578125 30.59375 5.09375 23.90625 5.09375 
C 21.90625 5.09375 19.796875 5.59375 17.796875 7.3125 
C 15.09375 9.75 15.09375 11.265625 15.09375 12.6875 
z
" id="CMSS17-112"/>
      <path d="M 40.796875 69 
L 33.40625 69 
L 33.40625 38.984375 
C 30.296875 41.59375 25.203125 44 19.59375 44 
C 10.5 44 3.296875 34.046875 3.296875 21.484375 
C 3.296875 8.9375 10.40625 -1 19.296875 -1 
C 26.203125 -1 30.796875 2.6875 33.203125 4.796875 
L 33.203125 -0.203125 
L 40.796875 -0.203125 
z
M 33.203125 13.296875 
C 33.203125 11.875 33.203125 10.359375 30.09375 7.625 
C 28.09375 5.90625 25.703125 5.09375 23.40625 5.09375 
C 18 5.09375 10.90625 9.140625 10.90625 21.390625 
C 10.90625 34.140625 18.90625 37.890625 24.40625 37.890625 
C 28.09375 37.890625 31.09375 36.0625 33.203125 33.03125 
z
" id="CMSS17-100"/>
      <path d="M 40.90625 43 
L 33.296875 43 
L 33.296875 15.25 
C 33.296875 7.8125 27.90625 4.796875 22.203125 4.796875 
C 15.59375 4.796875 15 7 15 11.125 
L 15 43 
L 7.40625 43 
L 7.40625 10.625 
C 7.40625 2.796875 10.09375 -1 17 -1 
C 20.40625 -1 28.09375 -0.203125 33.5 4.796875 
L 33.5 -0.203125 
L 40.90625 -0.203125 
z
" id="CMSS17-117"/>
     </defs>
     <g transform="translate(35.436997 965.212631)rotate(-90)scale(0.2 -0.2)">
      <use transform="scale(0.996264)" xlink:href="#CMSS17-109"/>
      <use transform="translate(74.229254 0)scale(0.996264)" xlink:href="#CMSS17-82"/>
      <use transform="translate(134.645409 0)scale(0.996264)" xlink:href="#CMSS17-78"/>
      <use transform="translate(200.706928 0)scale(0.996264)" xlink:href="#CMSS17-65"/>
      <use transform="translate(294.153896 0)scale(0.996264)" xlink:href="#CMSS17-112"/>
      <use transform="translate(339.756385 0)scale(0.996264)" xlink:href="#CMSS17-114"/>
      <use transform="translate(371.666158 0)scale(0.996264)" xlink:href="#CMSS17-111"/>
      <use transform="translate(421.11222 0)scale(0.996264)" xlink:href="#CMSS17-100"/>
      <use transform="translate(469.317163 0)scale(0.996264)" xlink:href="#CMSS17-117"/>
      <use transform="translate(517.522106 0)scale(0.996264)" xlink:href="#CMSS17-99"/>
      <use transform="translate(559.160929 0)scale(0.996264)" xlink:href="#CMSS17-116"/>
      <use transform="translate(592.992495 0)scale(0.996264)" xlink:href="#CMSS17-105"/>
      <use transform="translate(615.173218 0)scale(0.996264)" xlink:href="#CMSS17-111"/>
      <use transform="translate(662.016842 0)scale(0.996264)" xlink:href="#CMSS17-110"/>
      <use transform="translate(741.450898 0)scale(0.996264)" xlink:href="#CMSS17-114"/>
      <use transform="translate(773.36067 0)scale(0.996264)" xlink:href="#CMSS17-97"/>
      <use transform="translate(818.282591 0)scale(0.996264)" xlink:href="#CMSS17-116"/>
      <use transform="translate(852.114157 0)scale(0.996264)" xlink:href="#CMSS17-101"/>
     </g>
    </g>
   </g>
   <g id="line2d_45">
    <path clip-path="url(#p9010535d40)" d="M 103.312427 1004.507706 
L 103.327008 1003.441295 
L 103.484985 993.571062 
L 105.196619 945.425611 
L 110.142268 871.746544 
L 116.312188 780.288051 
L 123.725039 747.167034 
L 131.13789 764.08991 
L 138.550741 791.53439 
L 145.963593 814.173793 
L 153.376444 830.868027 
L 160.789295 843.089908 
L 168.202146 852.168762 
L 175.614997 859.032214 
L 183.027848 864.307181 
L 190.440699 868.421306 
L 197.853551 871.671535 
L 205.266402 874.268104 
L 212.679253 876.362576 
L 220.092104 878.066234 
L 227.504955 879.462102 
L 234.917806 880.612947 
L 242.330658 881.566965 
L 249.743509 882.361593 
L 257.15636 883.026169 
L 264.569211 883.583994 
L 271.982062 884.053694 
L 279.394913 884.450265 
L 286.807765 884.785905 
L 294.220616 885.070567 
L 301.633467 885.312441 
L 309.046318 885.51829 
L 316.459169 885.693739 
L 323.87202 885.843452 
" style="fill:none;stroke:#cecfe5;stroke-linecap:square;stroke-width:5;"/>
   </g>
   <g id="line2d_46">
    <path clip-path="url(#p9010535d40)" d="M 103.312427 1004.507706 
L 103.327008 1003.441247 
L 103.484985 993.564624 
L 105.196619 944.708199 
L 110.001528 868.093929 
L 116.312188 775.250644 
L 123.725039 756.915986 
L 131.13789 786.628085 
L 138.550741 818.144821 
L 145.963593 841.02483 
L 153.376444 856.929202 
L 160.789295 868.180729 
L 168.202146 876.348863 
L 175.614997 882.424521 
L 183.027848 887.041136 
L 190.440699 890.614326 
L 197.853551 893.424074 
L 205.266402 895.663785 
L 212.679253 897.47017 
L 220.092104 898.941863 
L 227.504955 900.151382 
L 234.917806 901.152996 
L 242.330658 901.98789 
L 249.743509 902.687835 
L 257.15636 903.277562 
L 264.569211 903.776598 
L 271.982062 904.200509 
L 279.394913 904.561812 
L 286.807765 904.870666 
L 294.220616 905.135391 
L 301.633467 905.36278 
L 309.046318 905.558544 
L 316.459169 905.727348 
L 323.87202 905.873154 
" style="fill:none;stroke:#7b74b5;stroke-linecap:square;stroke-width:5;"/>
   </g>
   <g id="line2d_47">
    <path clip-path="url(#p9010535d40)" d="M 103.312427 1004.507706 
L 103.327008 1003.441029 
L 103.484985 993.532435 
L 105.196619 941.146654 
L 109.352554 854.379573 
L 116.115059 787.634844 
L 123.52791 834.988753 
L 130.940762 877.446136 
L 138.353613 902.10079 
L 145.766464 917.003139 
L 153.179315 926.646144 
L 160.592166 933.241343 
L 168.005017 937.95501 
L 175.417868 941.446231 
L 182.83072 944.108869 
L 190.243571 946.1893 
L 197.656422 947.8477 
L 205.069273 949.191839 
L 212.482124 950.296407 
L 219.894975 951.21461 
L 227.307827 951.985273 
L 234.720678 952.637359 
L 242.133529 953.192882 
L 249.54638 953.6689 
L 256.959231 954.078805 
L 264.372082 954.433288 
L 271.784934 954.740961 
L 279.197785 955.008857 
L 286.610636 955.242759 
L 294.023487 955.447486 
L 301.436338 955.627045 
L 308.849189 955.784838 
L 316.262041 955.923715 
L 323.674892 956.046154 
" style="fill:none;stroke:#3f007d;stroke-linecap:square;stroke-width:5;"/>
   </g>
   <g id="patch_15">
    <path d="M 92.284447 1017.374739 
L 92.284447 734.3 
" style="fill:none;stroke:#000000;stroke-linecap:square;stroke-linejoin:miter;stroke-width:0.8;"/>
   </g>
   <g id="patch_16">
    <path d="M 334.9 1017.374739 
L 334.9 734.3 
" style="fill:none;stroke:#000000;stroke-linecap:square;stroke-linejoin:miter;stroke-width:0.8;"/>
   </g>
   <g id="patch_17">
    <path d="M 92.284447 1017.374739 
L 334.9 1017.374739 
" style="fill:none;stroke:#000000;stroke-linecap:square;stroke-linejoin:miter;stroke-width:0.8;"/>
   </g>
   <g id="patch_18">
    <path d="M 92.284447 734.3 
L 334.9 734.3 
" style="fill:none;stroke:#000000;stroke-linecap:square;stroke-linejoin:miter;stroke-width:0.8;"/>
   </g>
   <g id="legend_3">
    <g id="patch_19">
     <path d="M 173.187539 833.926901 
L 320.9 833.926901 
Q 324.9 833.926901 324.9 829.926901 
L 324.9 748.3 
Q 324.9 744.3 320.9 744.3 
L 173.187539 744.3 
Q 169.187539 744.3 169.187539 748.3 
L 169.187539 829.926901 
Q 169.187539 833.926901 173.187539 833.926901 
z
" style="fill:#ffffff;opacity:0.8;stroke:#cccccc;stroke-linejoin:miter;"/>
    </g>
    <g id="line2d_48">
     <path d="M 177.187539 759.3 
L 217.187539 759.3 
" style="fill:none;stroke:#cecfe5;stroke-linecap:square;stroke-width:5;"/>
    </g>
    <g id="line2d_49"/>
    <g id="text_39">
     <!-- $k_{R}=$0.001 -->
     <g transform="translate(233.187539 766.3)scale(0.2 -0.2)">
      <use transform="translate(0 14.943915)scale(0.996264)" xlink:href="#CMMI12-107"/>
      <use transform="translate(50.735189 0)scale(0.697382)" xlink:href="#CMMI12-82"/>
      <use transform="translate(131.456759 14.943915)scale(0.996264)" xlink:href="#CMR17-61"/>
      <use transform="translate(203.171548 14.943915)scale(0.996264)" xlink:href="#CMSS17-48"/>
      <use transform="translate(250.015171 14.943915)scale(0.996264)" xlink:href="#CMSS17-46"/>
      <use transform="translate(276.039376 14.943915)scale(0.996264)" xlink:href="#CMSS17-48"/>
      <use transform="translate(322.883 14.943915)scale(0.996264)" xlink:href="#CMSS17-48"/>
      <use transform="translate(369.726623 14.943915)scale(0.996264)" xlink:href="#CMSS17-49"/>
     </g>
    </g>
    <g id="line2d_50">
     <path d="M 177.187539 787.175634 
L 217.187539 787.175634 
" style="fill:none;stroke:#7b74b5;stroke-linecap:square;stroke-width:5;"/>
    </g>
    <g id="line2d_51"/>
    <g id="text_40">
     <!-- $k_{R}=$0.005 -->
     <g transform="translate(233.187539 794.175634)scale(0.2 -0.2)">
      <use transform="translate(0 14.943915)scale(0.996264)" xlink:href="#CMMI12-107"/>
      <use transform="translate(50.735189 0)scale(0.697382)" xlink:href="#CMMI12-82"/>
      <use transform="translate(131.456759 14.943915)scale(0.996264)" xlink:href="#CMR17-61"/>
      <use transform="translate(203.171548 14.943915)scale(0.996264)" xlink:href="#CMSS17-48"/>
      <use transform="translate(250.015171 14.943915)scale(0.996264)" xlink:href="#CMSS17-46"/>
      <use transform="translate(276.039376 14.943915)scale(0.996264)" xlink:href="#CMSS17-48"/>
      <use transform="translate(322.883 14.943915)scale(0.996264)" xlink:href="#CMSS17-48"/>
      <use transform="translate(369.726623 14.943915)scale(0.996264)" xlink:href="#CMSS17-53"/>
     </g>
    </g>
    <g id="line2d_52">
     <path d="M 177.187539 815.051267 
L 217.187539 815.051267 
" style="fill:none;stroke:#3f007d;stroke-linecap:square;stroke-width:5;"/>
    </g>
    <g id="line2d_53"/>
    <g id="text_41">
     <!-- $k_{R}=$0.025 -->
     <g transform="translate(233.187539 822.051267)scale(0.2 -0.2)">
      <use transform="translate(0 14.943915)scale(0.996264)" xlink:href="#CMMI12-107"/>
      <use transform="translate(50.735189 0)scale(0.697382)" xlink:href="#CMMI12-82"/>
      <use transform="translate(131.456759 14.943915)scale(0.996264)" xlink:href="#CMR17-61"/>
      <use transform="translate(203.171548 14.943915)scale(0.996264)" xlink:href="#CMSS17-48"/>
      <use transform="translate(250.015171 14.943915)scale(0.996264)" xlink:href="#CMSS17-46"/>
      <use transform="translate(276.039376 14.943915)scale(0.996264)" xlink:href="#CMSS17-48"/>
      <use transform="translate(322.883 14.943915)scale(0.996264)" xlink:href="#CMSS17-50"/>
      <use transform="translate(369.726623 14.943915)scale(0.996264)" xlink:href="#CMSS17-53"/>
     </g>
    </g>
   </g>
  </g>
  <g id="axes_4">
   <g id="patch_20">
    <path d="M 92.284447 1371.974739 
L 334.9 1371.974739 
L 334.9 1088.9 
L 92.284447 1088.9 
z
" style="fill:#ffffff;"/>
   </g>
   <g id="matplotlib.axis_7">
    <g id="xtick_13">
     <g id="line2d_54">
      <g>
       <use style="stroke:#000000;stroke-width:0.8;" x="103.312427" xlink:href="#mf1a00ae3e0" y="1371.974739"/>
      </g>
     </g>
     <g id="text_42">
      <!-- $0$ -->
      <g transform="translate(98.743379 1392.811736)scale(0.2 -0.2)">
       <use transform="scale(0.996264)" xlink:href="#CMR17-48"/>
      </g>
     </g>
    </g>
    <g id="xtick_14">
     <g id="line2d_55">
      <g>
       <use style="stroke:#000000;stroke-width:0.8;" x="177.440939" xlink:href="#mf1a00ae3e0" y="1371.974739"/>
      </g>
     </g>
     <g id="text_43">
      <!-- $1$ -->
      <g transform="translate(172.871891 1392.811736)scale(0.2 -0.2)">
       <use transform="scale(0.996264)" xlink:href="#CMR17-49"/>
      </g>
     </g>
    </g>
    <g id="xtick_15">
     <g id="line2d_56">
      <g>
       <use style="stroke:#000000;stroke-width:0.8;" x="251.56945" xlink:href="#mf1a00ae3e0" y="1371.974739"/>
      </g>
     </g>
     <g id="text_44">
      <!-- $2$ -->
      <g transform="translate(247.000403 1392.811736)scale(0.2 -0.2)">
       <use transform="scale(0.996264)" xlink:href="#CMR17-50"/>
      </g>
     </g>
    </g>
    <g id="xtick_16">
     <g id="line2d_57">
      <g>
       <use style="stroke:#000000;stroke-width:0.8;" x="325.697962" xlink:href="#mf1a00ae3e0" y="1371.974739"/>
      </g>
     </g>
     <g id="text_45">
      <!-- $3$ -->
      <g transform="translate(321.128914 1392.811736)scale(0.2 -0.2)">
       <use transform="scale(0.996264)" xlink:href="#CMR17-51"/>
      </g>
     </g>
    </g>
    <g id="text_46">
     <!-- Time -->
     <g transform="translate(193.405404 1414.524366)scale(0.2 -0.2)">
      <use transform="scale(0.996264)" xlink:href="#CMSS17-84"/>
      <use transform="translate(63.819454 0)scale(0.996264)" xlink:href="#CMSS17-105"/>
      <use transform="translate(86.000177 0)scale(0.996264)" xlink:href="#CMSS17-109"/>
      <use transform="translate(160.229431 0)scale(0.996264)" xlink:href="#CMSS17-101"/>
     </g>
    </g>
   </g>
   <g id="matplotlib.axis_8">
    <g id="ytick_15">
     <g id="line2d_58">
      <g>
       <use style="stroke:#000000;stroke-width:0.8;" x="92.284447" xlink:href="#m52cd284a89" y="1323.377228"/>
      </g>
     </g>
     <g id="text_47">
      <!-- $0.004$ -->
      <g transform="translate(43.31263 1330.295726)scale(0.2 -0.2)">
       <use transform="scale(0.996264)" xlink:href="#CMR17-48"/>
       <use transform="translate(45.690477 0)scale(0.996264)" xlink:href="#CMMI12-58"/>
       <use transform="translate(72.787654 0)scale(0.996264)" xlink:href="#CMR17-48"/>
       <use transform="translate(118.478131 0)scale(0.996264)" xlink:href="#CMR17-48"/>
       <use transform="translate(164.168608 0)scale(0.996264)" xlink:href="#CMR17-52"/>
      </g>
     </g>
    </g>
    <g id="ytick_16">
     <g id="line2d_59">
      <g>
       <use style="stroke:#000000;stroke-width:0.8;" x="92.284447" xlink:href="#m52cd284a89" y="1251.604896"/>
      </g>
     </g>
     <g id="text_48">
      <!-- $0.008$ -->
      <g transform="translate(43.31263 1258.523395)scale(0.2 -0.2)">
       <use transform="scale(0.996264)" xlink:href="#CMR17-48"/>
       <use transform="translate(45.690477 0)scale(0.996264)" xlink:href="#CMMI12-58"/>
       <use transform="translate(72.787654 0)scale(0.996264)" xlink:href="#CMR17-48"/>
       <use transform="translate(118.478131 0)scale(0.996264)" xlink:href="#CMR17-48"/>
       <use transform="translate(164.168608 0)scale(0.996264)" xlink:href="#CMR17-56"/>
      </g>
     </g>
    </g>
    <g id="ytick_17">
     <g id="line2d_60">
      <g>
       <use style="stroke:#000000;stroke-width:0.8;" x="92.284447" xlink:href="#m52cd284a89" y="1179.832565"/>
      </g>
     </g>
     <g id="text_49">
      <!-- $0.012$ -->
      <g transform="translate(43.31263 1186.751063)scale(0.2 -0.2)">
       <use transform="scale(0.996264)" xlink:href="#CMR17-48"/>
       <use transform="translate(45.690477 0)scale(0.996264)" xlink:href="#CMMI12-58"/>
       <use transform="translate(72.787654 0)scale(0.996264)" xlink:href="#CMR17-48"/>
       <use transform="translate(118.478131 0)scale(0.996264)" xlink:href="#CMR17-49"/>
       <use transform="translate(164.168608 0)scale(0.996264)" xlink:href="#CMR17-50"/>
      </g>
     </g>
    </g>
    <g id="ytick_18">
     <g id="line2d_61">
      <g>
       <use style="stroke:#000000;stroke-width:0.8;" x="92.284447" xlink:href="#m52cd284a89" y="1108.060234"/>
      </g>
     </g>
     <g id="text_50">
      <!-- $0.016$ -->
      <g transform="translate(43.31263 1114.978732)scale(0.2 -0.2)">
       <use transform="scale(0.996264)" xlink:href="#CMR17-48"/>
       <use transform="translate(45.690477 0)scale(0.996264)" xlink:href="#CMMI12-58"/>
       <use transform="translate(72.787654 0)scale(0.996264)" xlink:href="#CMR17-48"/>
       <use transform="translate(118.478131 0)scale(0.996264)" xlink:href="#CMR17-49"/>
       <use transform="translate(164.168608 0)scale(0.996264)" xlink:href="#CMR17-54"/>
      </g>
     </g>
    </g>
    <g id="text_51">
     <!-- Rate of mRNA change -->
     <defs>
      <path d="M 16.796875 37.1875 
L 26.90625 37.1875 
L 26.90625 43 
L 16.59375 43 
L 16.59375 55.671875 
C 16.59375 62.703125 22 63.890625 25.09375 63.890625 
C 26.09375 63.890625 28.90625 63.890625 32.5 62.609375 
L 32.5 69.1875 
C 30.203125 69.6875 27.40625 70 25.203125 70 
C 15.90625 70 9.40625 62.40625 9.40625 52.59375 
L 9.40625 43 
L 2.5 43 
L 2.5 37.1875 
L 9.40625 37.1875 
L 9.40625 0 
L 16.796875 0 
z
" id="CMSS17-102"/>
      <path d="M 40.90625 29.34375 
C 40.90625 35.671875 39.40625 44 28.09375 44 
C 21.796875 44 17.703125 40.890625 14.796875 37.484375 
L 14.796875 69 
L 7.40625 69 
L 7.40625 0 
L 15 0 
L 15 24.3125 
C 15 30.65625 17.40625 37.890625 24.203125 37.890625 
C 33 37.890625 33.296875 31.953125 33.296875 28.53125 
L 33.296875 0 
L 40.90625 0 
z
" id="CMSS17-104"/>
      <path d="M 44.5 44 
C 38.796875 43.890625 33.90625 42.796875 29.90625 40.890625 
C 26.59375 43.484375 23.203125 44 20.90625 44 
C 12.203125 44 5.59375 36.8125 5.59375 28.5 
C 5.59375 23.140625 8.59375 19.09375 8.796875 18.890625 
C 7 16.390625 6 13.6875 6 10.6875 
C 6 7.1875 7.40625 4.6875 8.5 3.296875 
C 3.296875 0.09375 2.59375 -4.8125 2.59375 -6.703125 
C 2.59375 -14 11.703125 -20 23.40625 -20 
C 35.203125 -20 44.296875 -14 44.296875 -6.609375 
C 44.296875 7.1875 29 7.296875 24.796875 7.296875 
L 16.703125 7.296875 
C 15.203125 7.296875 11.203125 7.296875 11.203125 12.390625 
C 11.203125 14.390625 12.09375 15.6875 12.203125 15.796875 
C 13.703125 14.6875 16.796875 13 20.90625 13 
C 29.203125 13 36.09375 19.984375 36.09375 28.5 
C 36.09375 33.25 33.90625 36.703125 33 37.890625 
L 33.296875 37.890625 
C 33.59375 37.890625 37.796875 38.1875 39.296875 38.1875 
C 42.5 38.1875 42.796875 38.09375 45.59375 37.796875 
z
M 20.90625 18.5 
C 17.5 18.5 12.703125 20.578125 12.703125 28.5 
C 12.703125 37.109375 18.203125 38.484375 20.796875 38.484375 
C 24.203125 38.484375 29 36.40625 29 28.5 
C 29 19.875 23.5 18.5 20.90625 18.5 
z
M 24.703125 0 
C 27.09375 0 37.203125 0 37.203125 -6.8125 
C 37.203125 -11.109375 31 -14.5 23.5 -14.5 
C 15.90625 -14.5 9.703125 -11.203125 9.703125 -6.703125 
C 9.703125 -6.203125 9.703125 0 16.59375 0 
z
" id="CMSS17-103"/>
     </defs>
     <g transform="translate(35.436997 1318.871732)rotate(-90)scale(0.2 -0.2)">
      <use transform="scale(0.996264)" xlink:href="#CMSS17-82"/>
      <use transform="translate(60.416155 0)scale(0.996264)" xlink:href="#CMSS17-97"/>
      <use transform="translate(105.338075 0)scale(0.996264)" xlink:href="#CMSS17-116"/>
      <use transform="translate(139.169642 0)scale(0.996264)" xlink:href="#CMSS17-101"/>
      <use transform="translate(212.037577 0)scale(0.996264)" xlink:href="#CMSS17-111"/>
      <use transform="translate(258.881201 0)scale(0.996264)" xlink:href="#CMSS17-102"/>
      <use transform="translate(318.736972 0)scale(0.996264)" xlink:href="#CMSS17-109"/>
      <use transform="translate(392.966227 0)scale(0.996264)" xlink:href="#CMSS17-82"/>
      <use transform="translate(453.382381 0)scale(0.996264)" xlink:href="#CMSS17-78"/>
      <use transform="translate(519.443901 0)scale(0.996264)" xlink:href="#CMSS17-65"/>
      <use transform="translate(612.890868 0)scale(0.996264)" xlink:href="#CMSS17-99"/>
      <use transform="translate(654.52969 0)scale(0.996264)" xlink:href="#CMSS17-104"/>
      <use transform="translate(702.734633 0)scale(0.996264)" xlink:href="#CMSS17-97"/>
      <use transform="translate(747.656554 0)scale(0.996264)" xlink:href="#CMSS17-110"/>
      <use transform="translate(795.861497 0)scale(0.996264)" xlink:href="#CMSS17-103"/>
      <use transform="translate(842.705121 0)scale(0.996264)" xlink:href="#CMSS17-101"/>
     </g>
    </g>
   </g>
   <g id="line2d_62">
    <path clip-path="url(#pf28f8d06ee)" d="M 103.312427 1338.660699 
L 103.327008 1337.45024 
L 103.484985 1326.281941 
L 105.196619 1273.624148 
L 110.142268 1199.333212 
L 116.312188 1114.001778 
L 123.725039 1101.767034 
L 131.13789 1142.00956 
L 138.550741 1187.54234 
L 145.963593 1222.533666 
L 153.376444 1247.551552 
L 160.789295 1265.492733 
L 168.202146 1278.592377 
L 175.614997 1288.337839 
L 183.027848 1295.709891 
L 190.440699 1301.367073 
L 197.853551 1305.761537 
L 205.266402 1309.210604 
L 212.679253 1311.941415 
L 220.092104 1314.119601 
L 227.504955 1315.867826 
L 234.917806 1317.278309 
L 242.330658 1318.42127 
L 249.743509 1319.350783 
L 257.15636 1320.108935 
L 264.569211 1320.728763 
L 271.982062 1321.236412 
L 279.394913 1321.652737 
L 286.807765 1321.994423 
L 294.220616 1322.27498 
L 301.633467 1322.50533 
L 309.046318 1322.694371 
L 316.459169 1322.849372 
L 323.87202 1322.976291 
" style="fill:none;stroke:#cecfe5;stroke-linecap:square;stroke-width:5;"/>
   </g>
   <g id="line2d_63">
    <path clip-path="url(#pf28f8d06ee)" d="M 103.312427 1338.660699 
L 103.327008 1337.450185 
L 103.484985 1326.274563 
L 105.196619 1272.810032 
L 110.001528 1194.98396 
L 116.312188 1109.059994 
L 123.725039 1113.250694 
L 131.13789 1166.181663 
L 138.550741 1214.229569 
L 145.963593 1247.802347 
L 153.376444 1270.669679 
L 160.789295 1286.5748 
L 168.202146 1297.927857 
L 175.614997 1306.222938 
L 183.027848 1312.405474 
L 190.440699 1317.091449 
L 197.853551 1320.693604 
L 205.266402 1323.495679 
L 212.679253 1325.697205 
L 220.092104 1327.441412 
L 227.504955 1328.832978 
L 234.917806 1329.949631 
L 242.330658 1330.849951 
L 249.743509 1331.57865 
L 257.15636 1332.170208 
L 264.569211 1332.651542 
L 271.982062 1333.043807 
L 279.394913 1333.363764 
L 286.807765 1333.624846 
L 294.220616 1333.837804 
L 301.633467 1334.01135 
L 309.046318 1334.152556 
L 316.459169 1334.267159 
L 323.87202 1334.359891 
" style="fill:none;stroke:#7b74b5;stroke-linecap:square;stroke-width:5;"/>
   </g>
   <g id="line2d_64">
    <path clip-path="url(#pf28f8d06ee)" d="M 103.312427 1338.660699 
L 103.327008 1337.449935 
L 103.484985 1326.237691 
L 105.196619 1268.768375 
L 109.352554 1178.599356 
L 116.115059 1124.537551 
L 123.52791 1198.210464 
L 130.940762 1257.911729 
L 138.353613 1292.345648 
L 145.766464 1313.008325 
L 153.179315 1326.182859 
L 160.592166 1334.996685 
L 168.005017 1341.117069 
L 175.417868 1345.49412 
L 182.83072 1348.698997 
L 190.243571 1351.090358 
L 197.656422 1352.901867 
L 205.069273 1354.290676 
L 212.482124 1355.365389 
L 219.894975 1356.202964 
L 227.307827 1356.859051 
L 234.720678 1357.374721 
L 242.133529 1357.780693 
L 249.54638 1358.100337 
L 256.959231 1358.351638 
L 264.372082 1358.548567 
L 271.784934 1358.702072 
L 279.197785 1358.820827 
L 286.610636 1358.911721 
L 294.023487 1358.980261 
L 301.436338 1359.030886 
L 308.849189 1359.067169 
L 316.262041 1359.091985 
L 323.674892 1359.107706 
" style="fill:none;stroke:#3f007d;stroke-linecap:square;stroke-width:5;"/>
   </g>
   <g id="patch_21">
    <path d="M 92.284447 1371.974739 
L 92.284447 1088.9 
" style="fill:none;stroke:#000000;stroke-linecap:square;stroke-linejoin:miter;stroke-width:0.8;"/>
   </g>
   <g id="patch_22">
    <path d="M 334.9 1371.974739 
L 334.9 1088.9 
" style="fill:none;stroke:#000000;stroke-linecap:square;stroke-linejoin:miter;stroke-width:0.8;"/>
   </g>
   <g id="patch_23">
    <path d="M 92.284447 1371.974739 
L 334.9 1371.974739 
" style="fill:none;stroke:#000000;stroke-linecap:square;stroke-linejoin:miter;stroke-width:0.8;"/>
   </g>
   <g id="patch_24">
    <path d="M 92.284447 1088.9 
L 334.9 1088.9 
" style="fill:none;stroke:#000000;stroke-linecap:square;stroke-linejoin:miter;stroke-width:0.8;"/>
   </g>
   <g id="legend_4">
    <g id="patch_25">
     <path d="M 173.187539 1188.526901 
L 320.9 1188.526901 
Q 324.9 1188.526901 324.9 1184.526901 
L 324.9 1102.9 
Q 324.9 1098.9 320.9 1098.9 
L 173.187539 1098.9 
Q 169.187539 1098.9 169.187539 1102.9 
L 169.187539 1184.526901 
Q 169.187539 1188.526901 173.187539 1188.526901 
z
" style="fill:#ffffff;opacity:0.8;stroke:#cccccc;stroke-linejoin:miter;"/>
    </g>
    <g id="line2d_65">
     <path d="M 177.187539 1113.9 
L 217.187539 1113.9 
" style="fill:none;stroke:#cecfe5;stroke-linecap:square;stroke-width:5;"/>
    </g>
    <g id="line2d_66"/>
    <g id="text_52">
     <!-- $k_{R}=$0.001 -->
     <g transform="translate(233.187539 1120.9)scale(0.2 -0.2)">
      <use transform="translate(0 14.943915)scale(0.996264)" xlink:href="#CMMI12-107"/>
      <use transform="translate(50.735189 0)scale(0.697382)" xlink:href="#CMMI12-82"/>
      <use transform="translate(131.456759 14.943915)scale(0.996264)" xlink:href="#CMR17-61"/>
      <use transform="translate(203.171548 14.943915)scale(0.996264)" xlink:href="#CMSS17-48"/>
      <use transform="translate(250.015171 14.943915)scale(0.996264)" xlink:href="#CMSS17-46"/>
      <use transform="translate(276.039376 14.943915)scale(0.996264)" xlink:href="#CMSS17-48"/>
      <use transform="translate(322.883 14.943915)scale(0.996264)" xlink:href="#CMSS17-48"/>
      <use transform="translate(369.726623 14.943915)scale(0.996264)" xlink:href="#CMSS17-49"/>
     </g>
    </g>
    <g id="line2d_67">
     <path d="M 177.187539 1141.775634 
L 217.187539 1141.775634 
" style="fill:none;stroke:#7b74b5;stroke-linecap:square;stroke-width:5;"/>
    </g>
    <g id="line2d_68"/>
    <g id="text_53">
     <!-- $k_{R}=$0.005 -->
     <g transform="translate(233.187539 1148.775634)scale(0.2 -0.2)">
      <use transform="translate(0 14.943915)scale(0.996264)" xlink:href="#CMMI12-107"/>
      <use transform="translate(50.735189 0)scale(0.697382)" xlink:href="#CMMI12-82"/>
      <use transform="translate(131.456759 14.943915)scale(0.996264)" xlink:href="#CMR17-61"/>
      <use transform="translate(203.171548 14.943915)scale(0.996264)" xlink:href="#CMSS17-48"/>
      <use transform="translate(250.015171 14.943915)scale(0.996264)" xlink:href="#CMSS17-46"/>
      <use transform="translate(276.039376 14.943915)scale(0.996264)" xlink:href="#CMSS17-48"/>
      <use transform="translate(322.883 14.943915)scale(0.996264)" xlink:href="#CMSS17-48"/>
      <use transform="translate(369.726623 14.943915)scale(0.996264)" xlink:href="#CMSS17-53"/>
     </g>
    </g>
    <g id="line2d_69">
     <path d="M 177.187539 1169.651267 
L 217.187539 1169.651267 
" style="fill:none;stroke:#3f007d;stroke-linecap:square;stroke-width:5;"/>
    </g>
    <g id="line2d_70"/>
    <g id="text_54">
     <!-- $k_{R}=$0.025 -->
     <g transform="translate(233.187539 1176.651267)scale(0.2 -0.2)">
      <use transform="translate(0 14.943915)scale(0.996264)" xlink:href="#CMMI12-107"/>
      <use transform="translate(50.735189 0)scale(0.697382)" xlink:href="#CMMI12-82"/>
      <use transform="translate(131.456759 14.943915)scale(0.996264)" xlink:href="#CMR17-61"/>
      <use transform="translate(203.171548 14.943915)scale(0.996264)" xlink:href="#CMSS17-48"/>
      <use transform="translate(250.015171 14.943915)scale(0.996264)" xlink:href="#CMSS17-46"/>
      <use transform="translate(276.039376 14.943915)scale(0.996264)" xlink:href="#CMSS17-48"/>
      <use transform="translate(322.883 14.943915)scale(0.996264)" xlink:href="#CMSS17-50"/>
      <use transform="translate(369.726623 14.943915)scale(0.996264)" xlink:href="#CMSS17-53"/>
     </g>
    </g>
   </g>
  </g>
 </g>
 <defs>
  <clipPath id="p83b105c46c">
   <rect height="283.074739" width="242.615553" x="92.284447" y="25.1"/>
  </clipPath>
  <clipPath id="pea72250ff1">
   <rect height="283.074739" width="242.615553" x="92.284447" y="379.7"/>
  </clipPath>
  <clipPath id="p9010535d40">
   <rect height="283.074739" width="242.615553" x="92.284447" y="734.3"/>
  </clipPath>
  <clipPath id="pf28f8d06ee">
   <rect height="283.074739" width="242.615553" x="92.284447" y="1088.9"/>
  </clipPath>
 </defs>
</svg>
