<?xml version="1.0" encoding="utf-8" standalone="no"?>
<!DOCTYPE svg PUBLIC "-//W3C//DTD SVG 1.1//EN"
  "http://www.w3.org/Graphics/SVG/1.1/DTD/svg11.dtd">
<!-- Created with matplotlib (http://matplotlib.org/) -->
<svg height="432pt" version="1.1" viewBox="0 0 504 432" width="504pt" xmlns="http://www.w3.org/2000/svg" xmlns:xlink="http://www.w3.org/1999/xlink">
 <defs>
  <style type="text/css">
*{stroke-linecap:butt;stroke-linejoin:round;}
  </style>
 </defs>
 <g id="figure_1">
  <g id="patch_1">
   <path d="M 0 432 
L 504 432 
L 504 0 
L 0 0 
z
" style="fill:#ffffff;"/>
  </g>
  <g id="axes_1">
   <g id="patch_2">
    <path d="M 63 378 
L 453.6 378 
L 453.6 51.84 
L 63 51.84 
z
" style="fill:#ffffff;"/>
   </g>
   <g id="patch_3">
    <path clip-path="url(#pa417f219ff)" d="M 80.754545 378 
L 117.853596 378 
L 117.853596 220.62899 
L 80.754545 220.62899 
z
" style="fill:#4b0082;"/>
   </g>
   <g id="patch_4">
    <path clip-path="url(#pa417f219ff)" d="M 133.753189 378 
L 170.852239 378 
L 170.852239 213.579643 
L 133.753189 213.579643 
z
" style="fill:#4b0082;"/>
   </g>
   <g id="patch_5">
    <path clip-path="url(#pa417f219ff)" d="M 186.751832 378 
L 223.850882 378 
L 223.850882 161.298209 
L 186.751832 161.298209 
z
" style="fill:#4b0082;"/>
   </g>
   <g id="patch_6">
    <path clip-path="url(#pa417f219ff)" d="M 239.750475 378 
L 276.849525 378 
L 276.849525 67.371429 
L 239.750475 67.371429 
z
" style="fill:#4b0082;"/>
   </g>
   <g id="patch_7">
    <path clip-path="url(#pa417f219ff)" d="M 292.749118 378 
L 329.848168 378 
L 329.848168 84.001138 
L 292.749118 84.001138 
z
" style="fill:#4b0082;"/>
   </g>
   <g id="patch_8">
    <path clip-path="url(#pa417f219ff)" d="M 345.747761 378 
L 382.846811 378 
L 382.846811 199.923876 
L 345.747761 199.923876 
z
" style="fill:#4b0082;"/>
   </g>
   <g id="patch_9">
    <path clip-path="url(#pa417f219ff)" d="M 398.746404 378 
L 435.845455 378 
L 435.845455 335.770689 
L 398.746404 335.770689 
z
" style="fill:#4b0082;"/>
   </g>
   <g id="matplotlib.axis_1">
    <g id="xtick_1">
     <g id="line2d_1">
      <defs>
       <path d="M 0 0 
L 0 3.5 
" id="me7e4941e0e" style="stroke:#000000;stroke-width:0.8;"/>
      </defs>
      <g>
       <use style="stroke:#000000;stroke-width:0.8;" x="99.304071" xlink:href="#me7e4941e0e" y="378"/>
      </g>
     </g>
     <g id="text_1">
      <!-- 0.0 -->
      <defs>
       <path d="M 25.40625 68 
C 19.90625 68 15.703125 66.296875 12 62.796875 
C 6.203125 57.203125 2.40625 45.6875 2.40625 34 
C 2.40625 23.09375 5.703125 11.390625 10.40625 5.796875 
C 14.09375 1.390625 19.203125 -1 25 -1 
C 30.09375 -1 34.40625 0.6875 38 4.1875 
C 43.796875 9.6875 47.59375 21.296875 47.59375 33.390625 
C 47.59375 53.890625 38.5 68 25.40625 68 
z
M 25.09375 65.390625 
C 33.5 65.390625 38 54.09375 38 33.1875 
C 38 12.296875 33.59375 1.59375 25 1.59375 
C 16.40625 1.59375 12 12.296875 12 33.09375 
C 12 54.296875 16.5 65.390625 25.09375 65.390625 
z
" id="Nimbus_Roman_No9_L_Regular-48"/>
       <path d="M 12.5 10.09375 
C 9.5 10.09375 7 7.5 7 4.390625 
C 7 1.5 9.5 -1 12.40625 -1 
C 15.5 -1 18.09375 1.5 18.09375 4.390625 
C 18.09375 7.5 15.5 10.09375 12.5 10.09375 
z
" id="Nimbus_Roman_No9_L_Regular-46"/>
      </defs>
      <g transform="translate(86.85077 398.509155)scale(0.2 -0.2)">
       <use transform="scale(0.996264)" xlink:href="#Nimbus_Roman_No9_L_Regular-48"/>
       <use transform="translate(49.8132 0)scale(0.996264)" xlink:href="#Nimbus_Roman_No9_L_Regular-46"/>
       <use transform="translate(74.719801 0)scale(0.996264)" xlink:href="#Nimbus_Roman_No9_L_Regular-48"/>
      </g>
     </g>
    </g>
    <g id="xtick_2">
     <g id="line2d_2">
      <g>
       <use style="stroke:#000000;stroke-width:0.8;" x="152.302714" xlink:href="#me7e4941e0e" y="378"/>
      </g>
     </g>
     <g id="text_2">
      <!-- 0.001 -->
      <defs>
       <path d="M 29.09375 68 
L 11.09375 59 
L 11.09375 57.59375 
C 12.296875 58.09375 13.40625 58.484375 13.796875 58.6875 
C 15.59375 59.390625 17.296875 59.78125 18.296875 59.78125 
C 20.40625 59.78125 21.296875 58.296875 21.296875 55.078125 
L 21.296875 9.359375 
C 21.296875 6.03125 20.5 3.71875 18.90625 2.796875 
C 17.40625 1.890625 16 1.59375 11.796875 1.5 
L 11.796875 0 
L 39.40625 0 
L 39.40625 1.5 
C 31.5 1.59375 29.90625 2.609375 29.90625 7.453125 
L 29.90625 67.796875 
z
" id="Nimbus_Roman_No9_L_Regular-49"/>
      </defs>
      <g transform="translate(129.886773 398.509155)scale(0.2 -0.2)">
       <use transform="scale(0.996264)" xlink:href="#Nimbus_Roman_No9_L_Regular-48"/>
       <use transform="translate(49.8132 0)scale(0.996264)" xlink:href="#Nimbus_Roman_No9_L_Regular-46"/>
       <use transform="translate(74.719801 0)scale(0.996264)" xlink:href="#Nimbus_Roman_No9_L_Regular-48"/>
       <use transform="translate(124.533001 0)scale(0.996264)" xlink:href="#Nimbus_Roman_No9_L_Regular-48"/>
       <use transform="translate(174.346202 0)scale(0.996264)" xlink:href="#Nimbus_Roman_No9_L_Regular-49"/>
      </g>
     </g>
    </g>
    <g id="xtick_3">
     <g id="line2d_3">
      <g>
       <use style="stroke:#000000;stroke-width:0.8;" x="205.301357" xlink:href="#me7e4941e0e" y="378"/>
      </g>
     </g>
     <g id="text_3">
      <!-- 0.005 -->
      <defs>
       <path d="M 18.09375 58.09375 
L 37.703125 58.09375 
C 39.296875 58.09375 39.703125 58.296875 40 58.984375 
L 43.796875 67.890625 
L 42.90625 68.59375 
C 41.40625 66.5 40.40625 66 38.296875 66 
L 17.40625 66 
L 6.5 42.453125 
C 6.40625 42.265625 6.40625 42.15625 6.40625 41.96875 
C 6.40625 41.46875 6.796875 41.171875 7.59375 41.171875 
C 10.796875 41.171875 14.796875 40.484375 18.90625 39.1875 
C 30.40625 35.53125 35.703125 29.40625 35.703125 19.609375 
C 35.703125 10.109375 29.59375 2.6875 21.796875 2.6875 
C 19.796875 2.6875 18.09375 3.390625 15.09375 5.5625 
C 11.90625 7.84375 9.59375 8.828125 7.5 8.828125 
C 4.59375 8.828125 3.203125 7.640625 3.203125 5.171875 
C 3.203125 1.390625 7.90625 -1 15.40625 -1 
C 23.796875 -1 31 1.6875 36 6.75 
C 40.59375 11.203125 42.703125 16.84375 42.703125 24.359375 
C 42.703125 31.484375 40.796875 36.03125 35.796875 40.96875 
C 31.40625 45.328125 25.703125 47.609375 13.90625 49.6875 
z
" id="Nimbus_Roman_No9_L_Regular-53"/>
      </defs>
      <g transform="translate(182.885417 398.509155)scale(0.2 -0.2)">
       <use transform="scale(0.996264)" xlink:href="#Nimbus_Roman_No9_L_Regular-48"/>
       <use transform="translate(49.8132 0)scale(0.996264)" xlink:href="#Nimbus_Roman_No9_L_Regular-46"/>
       <use transform="translate(74.719801 0)scale(0.996264)" xlink:href="#Nimbus_Roman_No9_L_Regular-48"/>
       <use transform="translate(124.533001 0)scale(0.996264)" xlink:href="#Nimbus_Roman_No9_L_Regular-48"/>
       <use transform="translate(174.346202 0)scale(0.996264)" xlink:href="#Nimbus_Roman_No9_L_Regular-53"/>
      </g>
     </g>
    </g>
    <g id="xtick_4">
     <g id="line2d_4">
      <g>
       <use style="stroke:#000000;stroke-width:0.8;" x="258.3" xlink:href="#me7e4941e0e" y="378"/>
      </g>
     </g>
     <g id="text_4">
      <!-- 0.01 -->
      <g transform="translate(240.86538 398.509155)scale(0.2 -0.2)">
       <use transform="scale(0.996264)" xlink:href="#Nimbus_Roman_No9_L_Regular-48"/>
       <use transform="translate(49.8132 0)scale(0.996264)" xlink:href="#Nimbus_Roman_No9_L_Regular-46"/>
       <use transform="translate(74.719801 0)scale(0.996264)" xlink:href="#Nimbus_Roman_No9_L_Regular-48"/>
       <use transform="translate(124.533001 0)scale(0.996264)" xlink:href="#Nimbus_Roman_No9_L_Regular-49"/>
      </g>
     </g>
    </g>
    <g id="xtick_5">
     <g id="line2d_5">
      <g>
       <use style="stroke:#000000;stroke-width:0.8;" x="311.298643" xlink:href="#me7e4941e0e" y="378"/>
      </g>
     </g>
     <g id="text_5">
      <!-- 0.05 -->
      <g transform="translate(293.864023 398.509155)scale(0.2 -0.2)">
       <use transform="scale(0.996264)" xlink:href="#Nimbus_Roman_No9_L_Regular-48"/>
       <use transform="translate(49.8132 0)scale(0.996264)" xlink:href="#Nimbus_Roman_No9_L_Regular-46"/>
       <use transform="translate(74.719801 0)scale(0.996264)" xlink:href="#Nimbus_Roman_No9_L_Regular-48"/>
       <use transform="translate(124.533001 0)scale(0.996264)" xlink:href="#Nimbus_Roman_No9_L_Regular-53"/>
      </g>
     </g>
    </g>
    <g id="xtick_6">
     <g id="line2d_6">
      <g>
       <use style="stroke:#000000;stroke-width:0.8;" x="364.297286" xlink:href="#me7e4941e0e" y="378"/>
      </g>
     </g>
     <g id="text_6">
      <!-- 0.1 -->
      <g transform="translate(351.843986 398.509155)scale(0.2 -0.2)">
       <use transform="scale(0.996264)" xlink:href="#Nimbus_Roman_No9_L_Regular-48"/>
       <use transform="translate(49.8132 0)scale(0.996264)" xlink:href="#Nimbus_Roman_No9_L_Regular-46"/>
       <use transform="translate(74.719801 0)scale(0.996264)" xlink:href="#Nimbus_Roman_No9_L_Regular-49"/>
      </g>
     </g>
    </g>
    <g id="xtick_7">
     <g id="line2d_7">
      <g>
       <use style="stroke:#000000;stroke-width:0.8;" x="417.295929" xlink:href="#me7e4941e0e" y="378"/>
      </g>
     </g>
     <g id="text_7">
      <!-- 0.5 -->
      <g transform="translate(404.842629 398.509155)scale(0.2 -0.2)">
       <use transform="scale(0.996264)" xlink:href="#Nimbus_Roman_No9_L_Regular-48"/>
       <use transform="translate(49.8132 0)scale(0.996264)" xlink:href="#Nimbus_Roman_No9_L_Regular-46"/>
       <use transform="translate(74.719801 0)scale(0.996264)" xlink:href="#Nimbus_Roman_No9_L_Regular-53"/>
      </g>
     </g>
    </g>
    <g id="text_8">
     <!-- Peak $RNA_E$ transcription rate $k_{RE}$ -->
     <defs>
      <path d="M 20.203125 29.296875 
C 22.796875 29.09375 24.5 28.984375 27.09375 28.984375 
C 34.90625 28.984375 40.296875 29.984375 44.59375 32.390625 
C 50.59375 35.5625 54.203125 41.578125 54.203125 48.078125 
C 54.203125 52.234375 52.796875 55.984375 50.09375 58.84375 
C 46.09375 63.1875 37.40625 66 28 66 
L 1.59375 66 
L 1.59375 64.09375 
C 9 63.296875 10 62.296875 10 55.125 
L 10 11.953125 
C 10 3.59375 9.203125 2.59375 1.59375 1.890625 
L 1.59375 0 
L 29.59375 0 
L 29.59375 1.890625 
C 21.703125 2.1875 20.203125 3.59375 20.203125 10.859375 
z
M 20.203125 58.9375 
C 20.203125 61.59375 20.90625 62.296875 23.59375 62.296875 
C 37.09375 62.296875 43.296875 57.65625 43.296875 47.5 
C 43.296875 37.921875 37.40625 33 25.90625 33 
C 23.90625 33 22.5 33.09375 20.203125 33.28125 
z
" id="Nimbus_Roman_No9_L_Regular-80"/>
      <path d="M 40.796875 16.4375 
C 36 8.8125 31.703125 5.890625 25.296875 5.890625 
C 19.59375 5.890625 15.296875 8.8125 12.40625 14.53125 
C 10.59375 18.34375 9.90625 21.65625 9.703125 27.796875 
L 40.5 27.796875 
C 39.703125 34.265625 38.703125 37.140625 36.203125 40.3125 
C 33.203125 43.890625 28.59375 46 23.40625 46 
C 18.40625 46 13.703125 44.1875 9.90625 40.8125 
C 5.203125 36.734375 2.5 29.6875 2.5 21.46875 
C 2.5 7.59375 9.703125 -1 21.203125 -1 
C 30.703125 -1 38.203125 4.890625 42.40625 15.734375 
z
M 9.90625 31 
C 11 38.71875 14.40625 42.390625 20.5 42.390625 
C 26.59375 42.390625 29 39.609375 30.296875 31 
z
" id="Nimbus_Roman_No9_L_Regular-101"/>
      <path d="M 44.203125 6.59375 
C 42.5 5.1875 41.296875 4.6875 39.796875 4.6875 
C 37.5 4.6875 36.796875 6.09375 36.796875 10.5 
L 36.796875 30 
C 36.796875 35.1875 36.296875 38.09375 34.796875 40.5 
C 32.59375 44.09375 28.296875 46 22.40625 46 
C 13 46 5.59375 41.09375 5.59375 34.796875 
C 5.59375 32.5 7.59375 30.5 9.90625 30.5 
C 12.296875 30.5 14.40625 32.5 14.40625 34.6875 
C 14.40625 35.09375 14.296875 35.59375 14.203125 36.296875 
C 14 37.1875 13.90625 38 13.90625 38.6875 
C 13.90625 41.390625 17.09375 43.59375 21.09375 43.59375 
C 26 43.59375 28.703125 40.6875 28.703125 35.296875 
L 28.703125 29.1875 
C 13.296875 23 11.59375 22.1875 7.296875 18.390625 
C 5.09375 16.390625 3.703125 13 3.703125 9.6875 
C 3.703125 3.390625 8.09375 -1 14.203125 -1 
C 18.59375 -1 22.703125 1.09375 28.796875 6.296875 
C 29.296875 1.09375 31.09375 -1 35.203125 -1 
C 38.59375 -1 40.703125 0.1875 44.203125 4 
z
M 28.703125 12.296875 
C 28.703125 9.1875 28.203125 8.296875 26.09375 7.09375 
C 23.703125 5.6875 20.90625 4.796875 18.796875 4.796875 
C 15.296875 4.796875 12.5 8.1875 12.5 12.5 
L 12.5 12.890625 
C 12.5 18.796875 16.59375 22.390625 28.703125 26.796875 
z
" id="Nimbus_Roman_No9_L_Regular-97"/>
      <path d="M 0.703125 62.296875 
C 2 62.390625 2.90625 62.5 3.90625 62.5 
C 7.203125 62.5 8.203125 61.1875 8.203125 56.390625 
L 8.203125 8.1875 
C 8.203125 3 7.90625 2.6875 0.703125 1.5 
L 0.703125 0 
L 24.09375 0 
L 24.09375 1.5 
L 22.09375 1.59375 
C 18.09375 1.796875 16.59375 3.1875 16.59375 6.6875 
L 16.59375 25.09375 
L 30.59375 6.390625 
L 30.90625 6 
C 31.09375 5.6875 31.296875 5.390625 31.59375 5.09375 
C 32.40625 4.09375 32.703125 3.5 32.703125 3 
C 32.703125 2.09375 31.796875 1.5 30.59375 1.5 
L 28.703125 1.5 
L 28.703125 0 
L 50.5 0 
L 50.5 1.5 
C 46.09375 1.796875 43 3.6875 38.796875 8.796875 
L 23.5 28.1875 
L 26.40625 30.890625 
C 33.5 37.5 39.703125 42.09375 42.59375 42.890625 
C 44.09375 43.296875 45.5 43.484375 47.203125 43.484375 
L 48 43.484375 
L 48 45 
L 27.59375 45 
L 27.59375 43.59375 
C 31.5 43.484375 32.59375 43.09375 32.59375 41.6875 
C 32.59375 40.890625 31.703125 39.5 30.296875 38.296875 
L 16.59375 26.09375 
L 16.59375 68.09375 
L 16.203125 68.296875 
C 12.40625 67.09375 9.5 66.296875 3.703125 64.6875 
L 0.703125 63.890625 
z
" id="Nimbus_Roman_No9_L_Regular-107"/>
      <path d="M 56.703125 1.59375 
C 52.296875 1.890625 50.296875 3.578125 48.40625 8.765625 
L 39.09375 33.140625 
C 46.796875 34.828125 50.09375 36.21875 53.703125 39.40625 
C 57 42.296875 58.796875 46.171875 58.796875 50.65625 
C 58.796875 59.90625 51.40625 65 38 65 
L 13.203125 65 
L 13.203125 63.390625 
C 17.40625 62.796875 17.90625 62.6875 18.90625 61.984375 
C 19.703125 61.5 20.296875 60.296875 20.296875 59.203125 
C 20.296875 58.015625 19.796875 55.625 19.09375 52.9375 
L 6.796875 8.953125 
C 5 3.09375 4.296875 2.484375 -1.296875 1.59375 
L -1.296875 0 
L 23.09375 0 
L 23.09375 1.59375 
C 17 2.390625 16.296875 2.890625 16.296875 6.171875 
C 16.296875 7.171875 16.59375 8.453125 17.5 11.9375 
L 23.09375 32.734375 
L 29.59375 32.234375 
L 41.90625 0 
L 56.703125 0 
z
M 30.796875 59.203125 
C 31.40625 61.296875 32.703125 61.984375 35.90625 61.984375 
C 44.203125 61.984375 48.296875 58.21875 48.296875 50.84375 
C 48.296875 41 41.90625 35.921875 29.40625 35.921875 
C 27.796875 35.921875 26.703125 36.015625 24.296875 36.421875 
z
" id="Nimbus_Roman_No9_L_Regular_Italic-82"/>
      <path d="M 72.703125 65 
L 52.796875 65 
L 52.796875 63.390625 
C 58.5 62.890625 59.796875 61.890625 59.796875 58.265625 
C 59.796875 57.0625 59.59375 55.859375 58.90625 53.859375 
C 58.796875 53.5625 58.703125 53.15625 58.703125 53.0625 
L 48.5 14.9375 
L 27.703125 65 
L 11.59375 65 
L 11.59375 63.390625 
C 16.296875 62.984375 18.40625 61.6875 20.203125 57.765625 
L 8.296875 15.9375 
C 4.5 3.109375 3.703125 1.890625 -2 1.09375 
L -2 -0.5 
L 17.796875 -0.5 
L 17.796875 1.09375 
C 12.703125 1.5 10.796875 2.59375 10.796875 5.40625 
C 10.796875 6.71875 11.09375 8.71875 11.703125 10.828125 
L 23.09375 53.15625 
L 46.09375 -2 
L 47.90625 -2 
L 62.296875 48.4375 
C 66 61.390625 66.40625 61.984375 72.703125 63.390625 
z
" id="Nimbus_Roman_No9_L_Regular_Italic-78"/>
      <path d="M 56.40625 1.59375 
C 50.703125 2.09375 50.09375 2.890625 48.796875 10.109375 
L 39.40625 67 
L 36.796875 67 
L 7.796875 16.65625 
C -0.109375 3.484375 -1.109375 2.390625 -5.109375 1.59375 
L -5.109375 0 
L 13.59375 0 
L 13.59375 1.59375 
C 8.5 2.09375 7.703125 2.59375 7.703125 5.0625 
C 7.703125 6.9375 8 7.828125 9.703125 11.203125 
L 15.40625 22.390625 
L 37.40625 22.390625 
L 39.40625 9.421875 
C 39.5 8.53125 39.59375 7.640625 39.59375 6.84375 
C 39.59375 3.078125 38.203125 2.1875 31.796875 1.59375 
L 31.796875 0 
L 56.40625 0 
z
M 17.5 26 
L 32.5 52.265625 
L 36.90625 26 
z
" id="Nimbus_Roman_No9_L_Regular_Italic-65"/>
      <path d="M 63.40625 65 
L 13.703125 65 
L 13.703125 63.390625 
C 19.90625 62.796875 21.40625 61.984375 21.40625 59.296875 
C 21.40625 58.203125 20.796875 54.734375 20.296875 52.9375 
L 8 8.96875 
C 6.296875 3.296875 5.5 2.59375 -0.109375 1.59375 
L -0.109375 0 
L 50.59375 0 
L 56.796875 16.125 
L 55.203125 16.921875 
C 50.5 10.5625 47.90625 7.96875 43.59375 5.984375 
C 39.90625 4.28125 33.09375 3.296875 25.59375 3.296875 
C 20 3.296875 17.59375 4.28125 17.59375 6.671875 
C 17.59375 7.765625 18.703125 12.4375 21.203125 21.203125 
C 22.5 25.578125 23.40625 28.859375 24.40625 32.640625 
C 27.90625 32.4375 31 32.34375 32.203125 32.34375 
C 36.09375 32.4375 38.90625 31.84375 40 30.84375 
C 40.5 30.359375 40.703125 29.453125 40.703125 27.765625 
C 40.703125 26.078125 40.5 24.78125 40 22.59375 
L 42 22.09375 
L 48.796875 45.171875 
L 47 45.578125 
C 43.203125 37.125 42.296875 36.515625 33.203125 36.125 
C 32 36.125 28.796875 36.03125 25.296875 35.921875 
L 31.90625 59.109375 
C 32.5 61.296875 33.59375 61.6875 39.203125 61.6875 
C 54.90625 61.6875 58.40625 60.390625 58.40625 54.421875 
C 58.40625 53.140625 58.296875 51.640625 58.203125 49.953125 
L 60.296875 49.75 
z
" id="Nimbus_Roman_No9_L_Regular_Italic-69"/>
      <path d="M 25.5 45 
L 15.40625 45 
L 15.40625 56.59375 
C 15.40625 57.59375 15.296875 57.890625 14.703125 57.890625 
C 14 57 13.40625 56.09375 12.703125 55.09375 
C 8.90625 49.59375 4.59375 44.796875 3 44.390625 
C 1.90625 43.6875 1.296875 42.984375 1.296875 42.484375 
C 1.296875 42.1875 1.40625 41.984375 1.703125 41.796875 
L 7 41.796875 
L 7 11.6875 
C 7 3.296875 10 -1 15.90625 -1 
C 20.796875 -1 24.59375 1.390625 27.90625 6.59375 
L 26.59375 7.6875 
C 24.5 5.1875 22.796875 4.1875 20.59375 4.1875 
C 16.90625 4.1875 15.40625 6.890625 15.40625 13.1875 
L 15.40625 41.796875 
L 25.5 41.796875 
z
" id="Nimbus_Roman_No9_L_Regular-116"/>
      <path d="M 0.703125 39 
C 2.09375 39.296875 3 39.390625 4.203125 39.390625 
C 6.703125 39.390625 7.59375 37.796875 7.59375 33.390625 
L 7.59375 8.390625 
C 7.59375 3.390625 6.90625 2.6875 0.5 1.5 
L 0.5 0 
L 24.5 0 
L 24.5 1.5 
C 17.703125 1.796875 16 3.296875 16 9 
L 16 31.5 
C 16 34.6875 20.296875 39.6875 23 39.6875 
C 23.59375 39.6875 24.5 39.1875 25.59375 38.1875 
C 27.203125 36.796875 28.296875 36.1875 29.59375 36.1875 
C 32 36.1875 33.5 37.890625 33.5 40.6875 
C 33.5 43.984375 31.40625 46 28 46 
C 23.796875 46 20.90625 43.6875 16 36.59375 
L 16 45.796875 
L 15.5 46 
C 10.203125 43.796875 6.59375 42.5 0.703125 40.59375 
z
" id="Nimbus_Roman_No9_L_Regular-114"/>
      <path d="M 1.59375 39.796875 
C 2.203125 40.09375 3.203125 40.1875 4.296875 40.1875 
C 7.09375 40.1875 8 38.6875 8 33.796875 
L 8 9 
C 8 3.296875 6.90625 1.890625 1.796875 1.5 
L 1.796875 0 
L 23 0 
L 23 1.5 
C 17.90625 1.890625 16.40625 3.09375 16.40625 6.6875 
L 16.40625 34.796875 
C 21.203125 39.296875 23.40625 40.484375 26.703125 40.484375 
C 31.59375 40.484375 34 37.390625 34 30.796875 
L 34 9.890625 
C 34 3.59375 32.703125 1.890625 27.703125 1.5 
L 27.703125 0 
L 48.5 0 
L 48.5 1.5 
C 43.59375 2 42.40625 3.1875 42.40625 8.09375 
L 42.40625 31 
C 42.40625 40.390625 38 46 30.59375 46 
C 26 46 22.90625 44.296875 16.09375 37.890625 
L 16.09375 45.796875 
L 15.40625 46 
C 10.5 44.1875 7.09375 43.09375 1.59375 41.484375 
z
" id="Nimbus_Roman_No9_L_Regular-110"/>
      <path d="M 31.5 31.390625 
L 31.09375 45 
L 30 45 
L 29.796875 44.796875 
C 28.90625 44.09375 28.796875 43.984375 28.40625 43.984375 
C 27.796875 43.984375 26.796875 44.1875 25.703125 44.6875 
C 23.5 45.59375 21.296875 46 18.703125 46 
C 10.796875 46 5.09375 40.890625 5.09375 33.671875 
C 5.09375 28.0625 8.296875 24.046875 16.796875 19.234375 
L 22.59375 15.921875 
C 26.09375 13.921875 27.796875 11.515625 27.796875 8.40625 
C 27.796875 4 24.59375 1.1875 19.5 1.1875 
C 16.09375 1.1875 13 2.5 11.09375 4.703125 
C 9 7.203125 8.09375 9.515625 6.796875 15.21875 
L 5.203125 15.21875 
L 5.203125 -0.40625 
L 6.5 -0.40625 
C 7.203125 0.59375 7.59375 0.796875 8.796875 0.796875 
C 9.703125 0.796875 11.09375 0.59375 13.40625 0 
C 16.203125 -0.609375 18.90625 -1 20.703125 -1 
C 28.40625 -1 34.796875 4.796875 34.796875 11.8125 
C 34.796875 16.828125 32.40625 20.140625 26.40625 23.75 
L 15.59375 30.15625 
C 12.796875 31.765625 11.296875 34.265625 11.296875 36.96875 
C 11.296875 40.984375 14.40625 43.796875 19 43.796875 
C 24.703125 43.796875 27.703125 40.390625 30 31.46875 
z
" id="Nimbus_Roman_No9_L_Regular-115"/>
      <path d="M 39.796875 15.59375 
C 35 8.59375 31.40625 6.1875 25.703125 6.1875 
C 16.59375 6.1875 10.203125 14.1875 10.203125 25.6875 
C 10.203125 35.984375 15.703125 43.09375 23.796875 43.09375 
C 27.40625 43.09375 28.703125 41.984375 29.703125 38.296875 
L 30.296875 36.09375 
C 31.09375 33.296875 32.90625 31.484375 35 31.484375 
C 37.59375 31.484375 39.796875 33.390625 39.796875 35.6875 
C 39.796875 41.296875 32.796875 46 24.40625 46 
C 19.5 46 14.40625 43.984375 10.296875 40.390625 
C 5.296875 35.984375 2.5 29.1875 2.5 21.296875 
C 2.5 8.296875 10.40625 -1 21.5 -1 
C 26 -1 30 0.59375 33.59375 3.6875 
C 36.296875 6.09375 38.203125 8.796875 41.203125 14.6875 
z
" id="Nimbus_Roman_No9_L_Regular-99"/>
      <path d="M 17.5 46 
L 2 40.5 
L 2 39 
L 2.796875 39.09375 
C 4 39.296875 5.296875 39.390625 6.203125 39.390625 
C 8.59375 39.390625 9.5 37.796875 9.5 33.390625 
L 9.5 10.1875 
C 9.5 3 8.5 1.890625 1.59375 1.5 
L 1.59375 0 
L 25.296875 0 
L 25.296875 1.5 
C 18.703125 2 17.90625 3 17.90625 10.1875 
L 17.90625 45.6875 
z
M 12.796875 68 
C 10.09375 68 7.796875 65.6875 7.796875 62.890625 
C 7.796875 60.09375 10 57.796875 12.796875 57.796875 
C 15.703125 57.796875 18 59.984375 18 62.890625 
C 18 65.6875 15.703125 68 12.796875 68 
z
" id="Nimbus_Roman_No9_L_Regular-105"/>
      <path d="M 0.90625 39.296875 
C 1.796875 39.390625 2.5 39.390625 3.40625 39.390625 
C 6.796875 39.390625 7.5 38.390625 7.5 33.703125 
L 7.5 -13.109375 
C 7.5 -18.3125 6.40625 -19.40625 0.5 -20 
L 0.5 -21.703125 
L 24.703125 -21.703125 
L 24.703125 -20 
C 17.203125 -19.90625 15.90625 -18.796875 15.90625 -12.46875 
L 15.90625 3.296875 
C 19.40625 0 21.796875 -1 26 -1 
C 37.796875 -1 47 10.1875 47 24.6875 
C 47 37.09375 40 46 30.296875 46 
C 24.703125 46 20.296875 43.484375 15.90625 38.09375 
L 15.90625 45.796875 
L 15.296875 46 
C 9.90625 43.890625 6.40625 42.59375 0.90625 40.890625 
z
M 15.90625 33.390625 
C 15.90625 36.390625 21.5 39.984375 26.09375 39.984375 
C 33.5 39.984375 38.40625 32.390625 38.40625 20.796875 
C 38.40625 9.6875 33.5 2.1875 26.296875 2.1875 
C 21.59375 2.1875 15.90625 5.796875 15.90625 8.796875 
z
" id="Nimbus_Roman_No9_L_Regular-112"/>
      <path d="M 25 46 
C 12 46 2.90625 36.390625 2.90625 22.59375 
C 2.90625 9.09375 12.203125 -1 24.796875 -1 
C 37.40625 -1 47 9.59375 47 23.390625 
C 47 36.5 37.796875 46 25 46 
z
M 23.703125 43.1875 
C 32.09375 43.1875 38 33.59375 38 19.890625 
C 38 8.59375 33.5 1.796875 26 1.796875 
C 22.09375 1.796875 18.40625 4.1875 16.296875 8.1875 
C 13.5 13.390625 11.90625 20.390625 11.90625 27.5 
C 11.90625 37 16.59375 43.1875 23.703125 43.1875 
z
" id="Nimbus_Roman_No9_L_Regular-111"/>
      <path d="M 41.40625 11 
L 39.90625 8.390625 
C 38.09375 5.296875 36.90625 4.1875 35.40625 4.1875 
C 33.296875 4.1875 31.203125 7.5 27.296875 17.09375 
C 26.796875 18.390625 25.296875 22 23.59375 25.890625 
C 38.296875 39 41.40625 41 46.09375 41.296875 
L 46.09375 42.890625 
L 27.796875 42.890625 
L 27.796875 41.296875 
L 29.40625 41.296875 
C 31.90625 41.296875 33.296875 40.59375 33.296875 39.5 
C 33.296875 37.5 28.296875 32.59375 19 25.5 
C 17.59375 24.390625 16.40625 23.390625 14.703125 22.1875 
L 26.703125 67.890625 
L 26.203125 68.390625 
C 20.296875 67.09375 16.5 66.390625 10.59375 65.703125 
L 10.59375 64.09375 
C 15.40625 64.203125 17.296875 63.5 17.40625 61.59375 
C 17.203125 59.890625 16.5 57.203125 15.203125 52.59375 
C 14.796875 51.203125 14.5 50.09375 14.296875 49.296875 
L 14.09375 48.390625 
L 1.40625 0.09375 
L 8.90625 0.09375 
L 13.703125 18.09375 
L 17.90625 21.296875 
C 19.5 16.890625 22.09375 10.796875 23.90625 7.1875 
C 27.09375 0.890625 28.90625 -1 31.796875 -1 
C 35.796875 -1 38.40625 1.5 42.90625 9.890625 
z
" id="Nimbus_Roman_No9_L_Regular_Italic-107"/>
     </defs>
     <g transform="translate(125.803636 420.331968)scale(0.2 -0.2)">
      <use transform="translate(0 14.943915)scale(0.996264)" xlink:href="#Nimbus_Roman_No9_L_Regular-80"/>
      <use transform="translate(55.391677 14.943915)scale(0.996264)" xlink:href="#Nimbus_Roman_No9_L_Regular-101"/>
      <use transform="translate(99.625246 14.943915)scale(0.996264)" xlink:href="#Nimbus_Roman_No9_L_Regular-97"/>
      <use transform="translate(143.858814 14.943915)scale(0.996264)" xlink:href="#Nimbus_Roman_No9_L_Regular-107"/>
      <use transform="translate(218.578615 14.943915)scale(0.996264)" xlink:href="#Nimbus_Roman_No9_L_Regular_Italic-82"/>
      <use transform="translate(279.450246 14.943915)scale(0.996264)" xlink:href="#Nimbus_Roman_No9_L_Regular_Italic-78"/>
      <use transform="translate(349.188681 14.943915)scale(0.996264)" xlink:href="#Nimbus_Roman_No9_L_Regular_Italic-65"/>
      <use transform="translate(410.060312 0)scale(0.737241)" xlink:href="#Nimbus_Roman_No9_L_Regular_Italic-69"/>
      <use transform="translate(485.892092 14.943915)scale(0.996264)" xlink:href="#Nimbus_Roman_No9_L_Regular-116"/>
      <use transform="translate(513.587262 14.943915)scale(0.996264)" xlink:href="#Nimbus_Roman_No9_L_Regular-114"/>
      <use transform="translate(546.762492 14.943915)scale(0.996264)" xlink:href="#Nimbus_Roman_No9_L_Regular-97"/>
      <use transform="translate(590.99606 14.943915)scale(0.996264)" xlink:href="#Nimbus_Roman_No9_L_Regular-110"/>
      <use transform="translate(640.809261 14.943915)scale(0.996264)" xlink:href="#Nimbus_Roman_No9_L_Regular-115"/>
      <use transform="translate(679.562967 14.943915)scale(0.996264)" xlink:href="#Nimbus_Roman_No9_L_Regular-99"/>
      <use transform="translate(723.796536 14.943915)scale(0.996264)" xlink:href="#Nimbus_Roman_No9_L_Regular-114"/>
      <use transform="translate(756.971765 14.943915)scale(0.996264)" xlink:href="#Nimbus_Roman_No9_L_Regular-105"/>
      <use transform="translate(784.666935 14.943915)scale(0.996264)" xlink:href="#Nimbus_Roman_No9_L_Regular-112"/>
      <use transform="translate(834.480136 14.943915)scale(0.996264)" xlink:href="#Nimbus_Roman_No9_L_Regular-116"/>
      <use transform="translate(862.175305 14.943915)scale(0.996264)" xlink:href="#Nimbus_Roman_No9_L_Regular-105"/>
      <use transform="translate(889.870475 14.943915)scale(0.996264)" xlink:href="#Nimbus_Roman_No9_L_Regular-111"/>
      <use transform="translate(939.683675 14.943915)scale(0.996264)" xlink:href="#Nimbus_Roman_No9_L_Regular-110"/>
      <use transform="translate(1014.403476 14.943915)scale(0.996264)" xlink:href="#Nimbus_Roman_No9_L_Regular-114"/>
      <use transform="translate(1047.578706 14.943915)scale(0.996264)" xlink:href="#Nimbus_Roman_No9_L_Regular-97"/>
      <use transform="translate(1091.812274 14.943915)scale(0.996264)" xlink:href="#Nimbus_Roman_No9_L_Regular-116"/>
      <use transform="translate(1119.507444 14.943915)scale(0.996264)" xlink:href="#Nimbus_Roman_No9_L_Regular-101"/>
      <use transform="translate(1188.647613 14.943915)scale(0.996264)" xlink:href="#Nimbus_Roman_No9_L_Regular_Italic-107"/>
      <use transform="translate(1232.881182 0)scale(0.737241)" xlink:href="#Nimbus_Roman_No9_L_Regular_Italic-82"/>
      <use transform="translate(1277.926526 0)scale(0.737241)" xlink:href="#Nimbus_Roman_No9_L_Regular_Italic-69"/>
     </g>
    </g>
   </g>
   <g id="matplotlib.axis_2">
    <g id="ytick_1">
     <g id="line2d_8">
      <defs>
       <path d="M 0 0 
L -3.5 0 
" id="mbd4e62c0d7" style="stroke:#000000;stroke-width:0.8;"/>
      </defs>
      <g>
       <use style="stroke:#000000;stroke-width:0.8;" x="63" xlink:href="#mbd4e62c0d7" y="378"/>
      </g>
     </g>
     <g id="text_9">
      <!-- $0.0$ -->
      <defs>
       <path d="M 19.203125 5.296875 
C 19.203125 8.1875 16.796875 10.59375 13.90625 10.59375 
C 11 10.59375 8.59375 8.1875 8.59375 5.296875 
C 8.59375 2.390625 11 0 13.90625 0 
C 16.796875 0 19.203125 2.390625 19.203125 5.296875 
z
" id="CMMI10-58"/>
      </defs>
      <g transform="translate(30.555621 384.754578)scale(0.2 -0.2)">
       <use transform="scale(0.996264)" xlink:href="#Nimbus_Roman_No9_L_Regular-48"/>
       <use transform="translate(49.8132 0)scale(0.996264)" xlink:href="#CMMI10-58"/>
       <use transform="translate(77.408707 0)scale(0.996264)" xlink:href="#Nimbus_Roman_No9_L_Regular-48"/>
      </g>
     </g>
    </g>
    <g id="ytick_2">
     <g id="line2d_9">
      <g>
       <use style="stroke:#000000;stroke-width:0.8;" x="63" xlink:href="#mbd4e62c0d7" y="299.314495"/>
      </g>
     </g>
     <g id="text_10">
      <!-- $0.5$ -->
      <g transform="translate(30.555621 306.069072)scale(0.2 -0.2)">
       <use transform="scale(0.996264)" xlink:href="#Nimbus_Roman_No9_L_Regular-48"/>
       <use transform="translate(49.8132 0)scale(0.996264)" xlink:href="#CMMI10-58"/>
       <use transform="translate(77.408707 0)scale(0.996264)" xlink:href="#Nimbus_Roman_No9_L_Regular-53"/>
      </g>
     </g>
    </g>
    <g id="ytick_3">
     <g id="line2d_10">
      <g>
       <use style="stroke:#000000;stroke-width:0.8;" x="63" xlink:href="#mbd4e62c0d7" y="220.62899"/>
      </g>
     </g>
     <g id="text_11">
      <!-- $1.0$ -->
      <g transform="translate(30.555621 227.383567)scale(0.2 -0.2)">
       <use transform="scale(0.996264)" xlink:href="#Nimbus_Roman_No9_L_Regular-49"/>
       <use transform="translate(49.8132 0)scale(0.996264)" xlink:href="#CMMI10-58"/>
       <use transform="translate(77.408707 0)scale(0.996264)" xlink:href="#Nimbus_Roman_No9_L_Regular-48"/>
      </g>
     </g>
    </g>
    <g id="ytick_4">
     <g id="line2d_11">
      <g>
       <use style="stroke:#000000;stroke-width:0.8;" x="63" xlink:href="#mbd4e62c0d7" y="141.943485"/>
      </g>
     </g>
     <g id="text_12">
      <!-- $1.5$ -->
      <g transform="translate(30.555621 148.698062)scale(0.2 -0.2)">
       <use transform="scale(0.996264)" xlink:href="#Nimbus_Roman_No9_L_Regular-49"/>
       <use transform="translate(49.8132 0)scale(0.996264)" xlink:href="#CMMI10-58"/>
       <use transform="translate(77.408707 0)scale(0.996264)" xlink:href="#Nimbus_Roman_No9_L_Regular-53"/>
      </g>
     </g>
    </g>
    <g id="ytick_5">
     <g id="line2d_12">
      <g>
       <use style="stroke:#000000;stroke-width:0.8;" x="63" xlink:href="#mbd4e62c0d7" y="63.257979"/>
      </g>
     </g>
     <g id="text_13">
      <!-- $2.0$ -->
      <defs>
       <path d="M 47.5 13.734375 
L 46.203125 14.25 
C 42.5 8.5 41.203125 7.59375 36.703125 7.59375 
L 12.796875 7.59375 
L 29.59375 25.328125 
C 38.5 34.703125 42.40625 42.359375 42.40625 50.21875 
C 42.40625 60.28125 34.296875 68 23.90625 68 
C 18.40625 68 13.203125 65.796875 9.5 61.796875 
C 6.296875 58.375 4.796875 55.15625 3.09375 48 
L 5.203125 47.484375 
C 9.203125 57.359375 12.796875 60.59375 19.703125 60.59375 
C 28.09375 60.59375 33.796875 54.84375 33.796875 46.390625 
C 33.796875 38.53125 29.203125 29.15625 20.796875 20.1875 
L 3 1.1875 
L 3 0 
L 42 0 
z
" id="Nimbus_Roman_No9_L_Regular-50"/>
      </defs>
      <g transform="translate(30.555621 70.012557)scale(0.2 -0.2)">
       <use transform="scale(0.996264)" xlink:href="#Nimbus_Roman_No9_L_Regular-50"/>
       <use transform="translate(49.8132 0)scale(0.996264)" xlink:href="#CMMI10-58"/>
       <use transform="translate(77.408707 0)scale(0.996264)" xlink:href="#Nimbus_Roman_No9_L_Regular-48"/>
      </g>
     </g>
    </g>
    <g id="text_14">
     <!-- Relative amount of loading -->
     <defs>
      <path d="M 65.90625 1.890625 
C 62.09375 2.1875 60.09375 3.1875 57.203125 6.578125 
L 36.59375 31.796875 
C 43.296875 33.09375 46.296875 34.28125 49.59375 36.96875 
C 52.796875 39.5625 54.703125 43.75 54.703125 48.4375 
C 54.703125 52.71875 53.40625 56.40625 50.796875 59.296875 
C 47 63.390625 38.703125 66 29.296875 66 
L 1.703125 66 
L 1.703125 64.09375 
C 9.203125 63.296875 10.203125 62.203125 10.203125 55.125 
L 10.203125 11.953125 
C 10.203125 3.6875 9.203125 2.484375 1.703125 1.890625 
L 1.703125 0 
L 29.40625 0 
L 29.40625 1.890625 
C 21.703125 2.390625 20.40625 3.6875 20.40625 10.859375 
L 20.40625 30.5 
L 26 30.703125 
L 49.796875 0 
L 65.90625 0 
z
M 20.40625 58.6875 
C 20.40625 61.484375 21.5 62.296875 25.5 62.296875 
C 38 62.296875 43.796875 57.984375 43.796875 48.59375 
C 43.796875 43.59375 41.703125 39.390625 38.09375 37.484375 
C 33.5 34.890625 30 34.296875 20.40625 34.09375 
z
" id="Nimbus_Roman_No9_L_Regular-82"/>
      <path d="M 1.90625 62.296875 
L 2.5 62.296875 
C 3.59375 62.390625 4.796875 62.5 5.59375 62.5 
C 8.796875 62.5 9.796875 61.09375 9.796875 56.390625 
L 9.796875 8.6875 
C 9.796875 3.296875 8.40625 2 2.09375 1.5 
L 2.09375 0 
L 25.703125 0 
L 25.703125 1.5 
C 19.40625 1.890625 18.203125 2.890625 18.203125 8.390625 
L 18.203125 68.09375 
L 17.796875 68.296875 
C 12.59375 66.59375 8.796875 65.59375 1.90625 63.890625 
z
" id="Nimbus_Roman_No9_L_Regular-108"/>
      <path d="M 47.703125 45 
L 33.796875 45 
L 33.796875 43.484375 
C 37 43.1875 38.5 42.203125 38.5 40.3125 
C 38.5 39.328125 38.296875 38.34375 37.90625 37.34375 
L 28 11.6875 
L 17.796875 37.046875 
C 17.203125 38.4375 16.90625 39.828125 16.90625 40.71875 
C 16.90625 42.5 18 43.1875 21.5 43.484375 
L 21.5 45 
L 1.90625 45 
L 1.90625 43.484375 
C 5.703125 43.296875 6.40625 42.296875 11 32.09375 
L 23 3.671875 
C 23.203125 3.078125 23.5 2.375 23.796875 1.59375 
C 24.40625 -0.203125 25 -1 25.59375 -1 
C 26.203125 -1 26.90625 0.296875 28.40625 3.96875 
L 41.203125 35.765625 
C 44.09375 42.5 44.703125 43.1875 47.703125 43.484375 
z
" id="Nimbus_Roman_No9_L_Regular-118"/>
      <path d="M 1.90625 39.796875 
C 3.203125 40.09375 4 40.1875 5.09375 40.1875 
C 7.703125 40.1875 8.59375 38.59375 8.59375 33.796875 
L 8.59375 8.5 
C 8.59375 3.09375 7.203125 1.59375 1.59375 1.5 
L 1.59375 0 
L 23.796875 0 
L 23.796875 1.5 
C 18.5 1.6875 17 2.796875 17 6.6875 
L 17 34.890625 
C 17 35.09375 17.796875 36.09375 18.5 36.796875 
C 21 39.09375 25.296875 40.796875 28.796875 40.796875 
C 33.203125 40.796875 35.40625 37.296875 35.40625 30.296875 
L 35.40625 8.59375 
C 35.40625 3 34.296875 1.890625 28.59375 1.5 
L 28.59375 0 
L 51 0 
L 51 1.5 
C 45.296875 1.59375 43.796875 3.296875 43.796875 9.5 
L 43.796875 34.6875 
C 46.796875 39 50.09375 40.796875 54.703125 40.796875 
C 60.40625 40.796875 62.203125 38.09375 62.203125 29.796875 
L 62.203125 8.6875 
C 62.203125 3 61.40625 2.1875 55.59375 1.5 
L 55.59375 0 
L 77.5 0 
L 77.5 1.5 
L 74.90625 1.6875 
C 71.90625 1.890625 70.59375 3.6875 70.59375 7.59375 
L 70.59375 28.1875 
C 70.59375 40 66.703125 46 59 46 
C 53.203125 46 48.09375 43.390625 42.703125 37.59375 
C 40.90625 43.296875 37.5 46 32.09375 46 
C 27.703125 46 24.90625 44.59375 16.59375 38.296875 
L 16.59375 45.796875 
L 15.90625 46 
C 10.796875 44.09375 7.40625 42.984375 1.90625 41.484375 
z
" id="Nimbus_Roman_No9_L_Regular-109"/>
      <path d="M 47.90625 4.984375 
L 47.40625 4.984375 
C 42.796875 4.984375 41.703125 6.09375 41.703125 10.6875 
L 41.703125 45 
L 25.90625 45 
L 25.90625 43.296875 
C 32.09375 43 33.296875 42 33.296875 37 
L 33.296875 13.5 
C 33.296875 10.6875 32.796875 9.296875 31.40625 8.1875 
C 28.703125 6 25.59375 4.796875 22.59375 4.796875 
C 18.703125 4.796875 15.5 8.1875 15.5 12.390625 
L 15.5 45 
L 0.90625 45 
L 0.90625 43.59375 
C 5.703125 43.296875 7.09375 41.796875 7.09375 37.1875 
L 7.09375 12 
C 7.09375 4.09375 11.90625 -1 19.203125 -1 
C 22.90625 -1 26.796875 0.59375 29.5 3.296875 
L 33.796875 7.59375 
L 33.796875 -0.703125 
L 34.203125 -1 
C 39.203125 1 42.796875 2.09375 47.90625 3.5 
z
" id="Nimbus_Roman_No9_L_Regular-117"/>
      <path d="M 30.90625 45 
L 18.59375 45 
L 18.59375 56.421875 
C 18.59375 62.140625 20.5 65.1875 24.296875 65.1875 
C 26.40625 65.1875 27.796875 64.203125 29.59375 61.34375 
C 31.203125 58.78125 32.40625 57.796875 34.09375 57.796875 
C 36.40625 57.796875 38.296875 59.578125 38.296875 61.84375 
C 38.296875 65.390625 33.90625 68 27.90625 68 
C 21.703125 68 16.40625 65.296875 13.796875 60.765625 
C 11.203125 56.421875 10.40625 52.875 10.296875 45 
L 2.09375 45 
L 2.09375 41.796875 
L 10.296875 41.796875 
L 10.296875 10.390625 
C 10.296875 3.09375 9.203125 1.890625 2 1.5 
L 2 0 
L 28 0 
L 28 1.5 
C 19.796875 1.796875 18.703125 2.890625 18.703125 10.390625 
L 18.703125 41.796875 
L 30.90625 41.796875 
z
" id="Nimbus_Roman_No9_L_Regular-102"/>
      <path d="M 34.40625 -1 
L 49.09375 4.1875 
L 49.09375 5.796875 
C 47.296875 5.6875 47.09375 5.6875 46.796875 5.6875 
C 43.203125 5.6875 42.40625 6.796875 42.40625 11.390625 
L 42.40625 68.09375 
L 41.90625 68.296875 
C 37.09375 66.59375 33.59375 65.59375 27.203125 63.890625 
L 27.203125 62.296875 
C 28 62.390625 28.59375 62.390625 29.40625 62.390625 
C 33.09375 62.390625 34 61.390625 34 57.296875 
L 34 41.6875 
C 30.203125 44.890625 27.5 46 23.5 46 
C 12 46 2.703125 34.6875 2.703125 20.5 
C 2.703125 7.6875 10.203125 -1 21.203125 -1 
C 26.796875 -1 30.59375 1 34 5.6875 
L 34 -0.703125 
z
M 34 10.1875 
C 34 9.5 33.296875 8.296875 32.296875 7.1875 
C 30.5 5.1875 28 4.1875 25.09375 4.1875 
C 16.796875 4.1875 11.296875 12.1875 11.296875 24.5 
C 11.296875 35.796875 16.203125 43.1875 23.796875 43.1875 
C 29.09375 43.1875 34 38.5 34 33.1875 
z
" id="Nimbus_Roman_No9_L_Regular-100"/>
      <path d="M 47 38.09375 
L 47 42 
L 39.296875 42 
C 37.296875 42 35.796875 42.71875 33.796875 43.6875 
L 31.59375 44.484375 
C 28.90625 45.484375 26.203125 46 23.59375 46 
C 14.296875 46 6.90625 38.09375 6.90625 29.328125 
C 6.90625 23.265625 9.59375 19.609375 16.203125 16.390625 
C 14.296875 14.59375 12.5 12.90625 11.90625 12.40625 
C 8.59375 9.53125 7.296875 7.546875 7.296875 5.5625 
C 7.296875 3.484375 8.5 2.296875 12.59375 0.296875 
C 5.5 -4.9375 2.796875 -8.265625 2.796875 -11.984375 
C 2.796875 -17.3125 10.59375 -21.703125 20.09375 -21.703125 
C 27.59375 -21.703125 35.40625 -19.109375 40.59375 -14.90625 
C 44.40625 -11.78125 46.09375 -8.5625 46.09375 -4.734375 
C 46.09375 1.5 41.40625 5.671875 34 5.96875 
L 21.09375 6.5625 
C 15.796875 6.75 13.296875 7.65625 13.296875 9.234375 
C 13.296875 11.21875 16.59375 14.703125 19.296875 15.5 
C 20.203125 15.390625 20.90625 15.296875 21.203125 15.296875 
C 23.09375 15.09375 24.40625 15 25 15 
C 28.703125 15 32.703125 16.5 35.796875 19.125 
C 39.09375 21.828125 40.59375 25.1875 40.59375 30 
C 40.59375 32.796875 40.09375 35.015625 38.703125 38.09375 
z
M 14.703125 0 
C 18 -0.71875 26 -1.3125 30.90625 -1.3125 
C 40 -1.3125 43.296875 -2.625 43.296875 -6.25 
C 43.296875 -12.078125 35.703125 -16 24.40625 -16 
C 15.59375 -16 9.796875 -13.09375 9.796875 -8.65625 
C 9.796875 -6.34375 10.5 -5.03125 14.703125 0 
z
M 15.203125 33.28125 
C 15.203125 38.984375 18 43.1875 22.59375 43.1875 
C 25.703125 43.1875 28.296875 40.796875 29.90625 37.796875 
C 31.703125 34.4375 32.90625 30 32.90625 26.25 
C 32.90625 20.859375 30 17.5 25.40625 17.5 
C 19.40625 17.5 15.203125 23.75 15.203125 32.984375 
z
" id="Nimbus_Roman_No9_L_Regular-103"/>
     </defs>
     <g transform="translate(22.241964 323.272665)rotate(-90)scale(0.2 -0.2)">
      <use transform="scale(0.996264)" xlink:href="#Nimbus_Roman_No9_L_Regular-82"/>
      <use transform="translate(66.450031 0)scale(0.996264)" xlink:href="#Nimbus_Roman_No9_L_Regular-101"/>
      <use transform="translate(110.6836 0)scale(0.996264)" xlink:href="#Nimbus_Roman_No9_L_Regular-108"/>
      <use transform="translate(138.378769 0)scale(0.996264)" xlink:href="#Nimbus_Roman_No9_L_Regular-97"/>
      <use transform="translate(182.612338 0)scale(0.996264)" xlink:href="#Nimbus_Roman_No9_L_Regular-116"/>
      <use transform="translate(210.307508 0)scale(0.996264)" xlink:href="#Nimbus_Roman_No9_L_Regular-105"/>
      <use transform="translate(235.512048 0)scale(0.996264)" xlink:href="#Nimbus_Roman_No9_L_Regular-118"/>
      <use transform="translate(283.831856 0)scale(0.996264)" xlink:href="#Nimbus_Roman_No9_L_Regular-101"/>
      <use transform="translate(352.972024 0)scale(0.996264)" xlink:href="#Nimbus_Roman_No9_L_Regular-97"/>
      <use transform="translate(397.205593 0)scale(0.996264)" xlink:href="#Nimbus_Roman_No9_L_Regular-109"/>
      <use transform="translate(474.713963 0)scale(0.996264)" xlink:href="#Nimbus_Roman_No9_L_Regular-111"/>
      <use transform="translate(524.527164 0)scale(0.996264)" xlink:href="#Nimbus_Roman_No9_L_Regular-117"/>
      <use transform="translate(574.340364 0)scale(0.996264)" xlink:href="#Nimbus_Roman_No9_L_Regular-110"/>
      <use transform="translate(624.153565 0)scale(0.996264)" xlink:href="#Nimbus_Roman_No9_L_Regular-116"/>
      <use transform="translate(676.755335 0)scale(0.996264)" xlink:href="#Nimbus_Roman_No9_L_Regular-111"/>
      <use transform="translate(726.568535 0)scale(0.996264)" xlink:href="#Nimbus_Roman_No9_L_Regular-102"/>
      <use transform="translate(784.650365 0)scale(0.996264)" xlink:href="#Nimbus_Roman_No9_L_Regular-108"/>
      <use transform="translate(812.345535 0)scale(0.996264)" xlink:href="#Nimbus_Roman_No9_L_Regular-111"/>
      <use transform="translate(862.158735 0)scale(0.996264)" xlink:href="#Nimbus_Roman_No9_L_Regular-97"/>
      <use transform="translate(906.392304 0)scale(0.996264)" xlink:href="#Nimbus_Roman_No9_L_Regular-100"/>
      <use transform="translate(956.205504 0)scale(0.996264)" xlink:href="#Nimbus_Roman_No9_L_Regular-105"/>
      <use transform="translate(983.900674 0)scale(0.996264)" xlink:href="#Nimbus_Roman_No9_L_Regular-110"/>
      <use transform="translate(1033.713874 0)scale(0.996264)" xlink:href="#Nimbus_Roman_No9_L_Regular-103"/>
     </g>
    </g>
   </g>
   <g id="line2d_13">
    <path clip-path="url(#pa417f219ff)" d="M 63 220.62899 
L 453.6 220.62899 
" style="fill:none;stroke:#000000;stroke-dasharray:5.55,2.4;stroke-dashoffset:0;stroke-width:1.5;"/>
   </g>
   <g id="patch_10">
    <path d="M 63 378 
L 63 51.84 
" style="fill:none;stroke:#000000;stroke-linecap:square;stroke-linejoin:miter;stroke-width:0.8;"/>
   </g>
   <g id="patch_11">
    <path d="M 453.6 378 
L 453.6 51.84 
" style="fill:none;stroke:#000000;stroke-linecap:square;stroke-linejoin:miter;stroke-width:0.8;"/>
   </g>
   <g id="patch_12">
    <path d="M 63 378 
L 453.6 378 
" style="fill:none;stroke:#000000;stroke-linecap:square;stroke-linejoin:miter;stroke-width:0.8;"/>
   </g>
   <g id="patch_13">
    <path d="M 63 51.84 
L 453.6 51.84 
" style="fill:none;stroke:#000000;stroke-linecap:square;stroke-linejoin:miter;stroke-width:0.8;"/>
   </g>
  </g>
 </g>
 <defs>
  <clipPath id="pa417f219ff">
   <rect height="326.16" width="390.6" x="63" y="51.84"/>
  </clipPath>
 </defs>
</svg>
