<?xml version="1.0" encoding="utf-8" standalone="no"?>
<!DOCTYPE svg PUBLIC "-//W3C//DTD SVG 1.1//EN"
  "http://www.w3.org/Graphics/SVG/1.1/DTD/svg11.dtd">
<!-- Created with matplotlib (http://matplotlib.org/) -->
<svg height="504pt" version="1.1" viewBox="0 0 504 504" width="504pt" xmlns="http://www.w3.org/2000/svg" xmlns:xlink="http://www.w3.org/1999/xlink">
 <defs>
  <style type="text/css">
*{stroke-linecap:butt;stroke-linejoin:round;}
  </style>
 </defs>
 <g id="figure_1">
  <g id="patch_1">
   <path d="M 0 504 
L 504 504 
L 504 0 
L 0 0 
z
" style="fill:#ffffff;"/>
  </g>
  <g id="axes_1">
   <g id="patch_2">
    <path d="M 63 441 
L 375.48 441 
L 375.48 60.48 
L 63 60.48 
z
" style="fill:#ffffff;"/>
   </g>
   <g id="PathCollection_1">
    <path clip-path="url(#pf8c33429e0)" d="M 375.48 70.258541 
L 375.48 60.48 
L 358.459009 60.48 
z
" style="fill:#46075a;"/>
   </g>
   <g id="PathCollection_2">
    <path clip-path="url(#pf8c33429e0)" d="M 375.48 81.901138 
L 375.48 70.258541 
L 358.459009 60.48 
L 332.533576 60.48 
z
" style="fill:#481467;"/>
   </g>
   <g id="PathCollection_3">
    <path clip-path="url(#pf8c33429e0)" d="M 143.925 60.530416 
L 178.7775 60.591974 
L 259.7025 61.13035 
L 294.555 61.975744 
L 375.48 96.289896 
L 375.48 81.901138 
L 332.533576 60.48 
L 294.555 60.48 
L 259.7025 60.48 
L 178.7775 60.48 
L 143.925 60.48 
L 63 60.48 
L 63 60.485571 
z
" style="fill:#482071;"/>
   </g>
   <g id="PathCollection_4">
    <path clip-path="url(#pf8c33429e0)" d="M 143.925 66.363608 
L 178.7775 66.394364 
L 259.7025 67.28584 
L 294.555 69.486977 
L 375.48 115.133585 
L 375.48 96.289896 
L 294.555 61.975744 
L 259.7025 61.13035 
L 178.7775 60.591974 
L 143.925 60.530416 
L 63 60.485571 
L 63 66.355471 
z
" style="fill:#472a7a;"/>
   </g>
   <g id="PathCollection_5">
    <path clip-path="url(#pf8c33429e0)" d="M 143.925 72.811594 
L 178.7775 72.804728 
L 259.7025 74.130026 
L 294.555 78.050182 
L 375.48 142.494626 
L 375.48 115.133585 
L 294.555 69.486977 
L 259.7025 67.28584 
L 178.7775 66.394364 
L 143.925 66.363608 
L 63 66.355471 
L 63 72.848347 
z
" style="fill:#453581;"/>
   </g>
   <g id="PathCollection_6">
    <path clip-path="url(#pf8c33429e0)" d="M 375.48 176.525513 
L 375.48 159.025766 
L 375.48 142.494626 
L 294.555 78.050182 
L 259.7025 74.130026 
L 178.7775 72.804728 
L 143.925 72.811594 
L 63 72.848347 
L 63 80.112308 
L 143.925 80.019403 
L 178.7775 79.965546 
L 259.7025 81.836658 
L 294.555 88.008771 
L 369.964922 159.025766 
z
" style="fill:#424086;"/>
   </g>
   <g id="PathCollection_7">
    <path clip-path="url(#pf8c33429e0)" d="M 375.48 216.022606 
L 375.48 201.467117 
L 375.48 176.525513 
L 369.964922 159.025766 
L 294.555 88.008771 
L 259.7025 81.836658 
L 178.7775 79.965546 
L 143.925 80.019403 
L 63 80.112308 
L 63 88.355495 
L 143.925 88.190329 
L 178.7775 88.076118 
L 259.7025 90.654859 
L 294.555 99.90774 
L 358.75361 159.025766 
L 373.379936 201.467117 
z
" style="fill:#3e4a89;"/>
   </g>
   <g id="PathCollection_8">
    <path clip-path="url(#pf8c33429e0)" d="M 375.48 280.153937 
L 375.48 216.022606 
L 373.379936 201.467117 
L 358.75361 159.025766 
L 294.555 99.90774 
L 259.7025 90.654859 
L 178.7775 88.076118 
L 143.925 88.190329 
L 63 88.355495 
L 63 97.88367 
L 143.925 97.622043 
L 178.7775 97.427469 
L 259.7025 100.960216 
L 294.555 114.690787 
L 344.302989 159.025766 
L 367.904713 201.467117 
z
" style="fill:#3a548c;"/>
   </g>
   <g id="PathCollection_9">
    <path clip-path="url(#pf8c33429e0)" d="M 63 437.329039 
L 63 441 
L 67.664783 441 
z
" style="fill:#355e8d;"/>
    <path clip-path="url(#pf8c33429e0)" d="M 375.48 441 
L 375.48 342.454234 
L 375.48 300.012883 
L 375.48 280.153937 
L 367.904713 201.467117 
L 344.302989 159.025766 
L 294.555 114.690787 
L 259.7025 100.960216 
L 178.7775 97.427469 
L 143.925 97.622043 
L 63 97.88367 
L 63 109.172783 
L 143.925 108.775891 
L 178.7775 108.469014 
L 259.7025 113.358151 
L 294.555 134.218942 
L 323.944519 159.025766 
L 361.759598 201.467117 
L 373.126428 300.012883 
L 373.855489 342.454234 
L 374.390847 441 
z
" style="fill:#355e8d;"/>
   </g>
   <g id="PathCollection_10">
    <path clip-path="url(#pf8c33429e0)" d="M 63 370.975391 
L 63 437.329039 
L 67.664783 441 
L 137.084851 441 
z
" style="fill:#31668e;"/>
    <path clip-path="url(#pf8c33429e0)" d="M 373.855489 342.454234 
L 373.126428 300.012883 
L 361.759598 201.467117 
L 323.944519 159.025766 
L 294.555 134.218942 
L 259.7025 113.358151 
L 178.7775 108.469014 
L 143.925 108.775891 
L 63 109.172783 
L 63 123.024696 
L 143.925 122.424425 
L 178.7775 121.949547 
L 259.7025 128.920767 
L 292.55979 159.025766 
L 294.555 159.754666 
L 354.757515 201.467117 
L 370.209676 300.012883 
L 371.217048 342.454234 
L 371.946602 441 
L 374.390847 441 
z
" style="fill:#31668e;"/>
   </g>
   <g id="PathCollection_11">
    <path clip-path="url(#pf8c33429e0)" d="M 143.925 441 
L 155.604509 441 
L 143.925 396.324794 
L 71.320158 342.454234 
L 63 340.518355 
L 63 342.454234 
L 63 370.975391 
L 137.084851 441 
z
" style="fill:#2e6f8e;"/>
    <path clip-path="url(#pf8c33429e0)" d="M 371.217048 342.454234 
L 370.209676 300.012883 
L 354.757515 201.467117 
L 294.555 159.754666 
L 292.55979 159.025766 
L 259.7025 128.920767 
L 178.7775 121.949547 
L 143.925 122.424425 
L 63 123.024696 
L 63 140.955497 
L 143.925 140.01497 
L 178.7775 139.261287 
L 259.7025 149.83857 
L 270.318915 159.025766 
L 294.555 166.598573 
L 346.620107 201.467117 
L 367.113252 300.012883 
L 368.432454 342.454234 
L 369.377441 441 
L 371.946602 441 
z
" style="fill:#2e6f8e;"/>
   </g>
   <g id="PathCollection_12">
    <path clip-path="url(#pf8c33429e0)" d="M 143.925 396.324794 
L 155.604509 441 
L 167.120561 441 
L 143.925 365.91878 
L 116.910908 342.454234 
L 63 324.395378 
L 63 340.518355 
L 71.320158 342.454234 
z
" style="fill:#2a778e;"/>
    <path clip-path="url(#pf8c33429e0)" d="M 368.432454 342.454234 
L 367.113252 300.012883 
L 346.620107 201.467117 
L 294.555 166.598573 
L 270.318915 159.025766 
L 259.7025 149.83857 
L 178.7775 139.261287 
L 143.925 140.01497 
L 63 140.955497 
L 63 159.025766 
L 63 160.793065 
L 143.925 160.33481 
L 178.7775 159.980644 
L 259.7025 162.415936 
L 294.555 174.304851 
L 336.906593 201.467117 
L 363.813558 300.012883 
L 365.484562 342.454234 
L 366.669905 441 
L 369.377441 441 
z
" style="fill:#2a778e;"/>
   </g>
   <g id="PathCollection_13">
    <path clip-path="url(#pf8c33429e0)" d="M 143.925 365.91878 
L 167.120561 441 
L 176.484373 441 
L 143.925 345.694073 
L 140.422247 342.454234 
L 63 311.645143 
L 63 324.395378 
L 116.910908 342.454234 
z
" style="fill:#27808e;"/>
    <path clip-path="url(#pf8c33429e0)" d="M 365.484562 342.454234 
L 363.813558 300.012883 
L 336.906593 201.467117 
L 294.555 174.304851 
L 259.7025 162.415936 
L 178.7775 159.980644 
L 143.925 160.33481 
L 63 160.793065 
L 63 168.458154 
L 143.925 167.410424 
L 178.7775 166.496055 
L 259.7025 167.957985 
L 294.555 183.12259 
L 324.856149 201.467117 
L 360.282021 300.012883 
L 362.353019 342.454234 
L 363.808236 441 
L 366.669905 441 
z
" style="fill:#27808e;"/>
   </g>
   <g id="PathCollection_14">
    <path clip-path="url(#pf8c33429e0)" d="M 143.925 345.694073 
L 176.484373 441 
L 178.7775 441 
L 187.368181 441 
L 178.7775 398.917487 
L 155.840205 342.454234 
L 143.925 327.38242 
L 63 301.097809 
L 63 311.645143 
L 140.422247 342.454234 
z
" style="fill:#23888e;"/>
    <path clip-path="url(#pf8c33429e0)" d="M 362.353019 342.454234 
L 360.282021 300.012883 
L 324.856149 201.467117 
L 294.555 183.12259 
L 259.7025 167.957985 
L 178.7775 166.496055 
L 143.925 167.410424 
L 63 168.458154 
L 63 177.221985 
L 143.925 175.411829 
L 178.7775 173.788239 
L 259.7025 174.052032 
L 294.555 193.427313 
L 308.975754 201.467117 
L 356.483581 300.012883 
L 359.013413 342.454234 
L 360.77382 441 
L 363.808236 441 
z
" style="fill:#23888e;"/>
   </g>
   <g id="PathCollection_15">
    <path clip-path="url(#pf8c33429e0)" d="M 178.7775 398.917487 
L 187.368181 441 
L 197.222704 441 
L 178.7775 366.961107 
L 167.520593 342.454234 
L 143.925 312.72645 
L 114.771902 300.012883 
L 63 237.771155 
L 63 300.012883 
L 63 301.097809 
L 143.925 327.38242 
L 155.840205 342.454234 
z
" style="fill:#21918c;"/>
    <path clip-path="url(#pf8c33429e0)" d="M 359.013413 342.454234 
L 356.483581 300.012883 
L 308.975754 201.467117 
L 294.555 193.427313 
L 259.7025 174.052032 
L 178.7775 173.788239 
L 143.925 175.411829 
L 63 177.221985 
L 63 187.453117 
L 143.925 184.618287 
L 178.7775 182.067803 
L 259.7025 180.820328 
L 291.488724 201.467117 
L 294.555 203.425228 
L 352.374572 300.012883 
L 355.436115 342.454234 
L 357.544453 441 
L 360.77382 441 
z
" style="fill:#21918c;"/>
   </g>
   <g id="PathCollection_16">
    <path clip-path="url(#pf8c33429e0)" d="M 178.7775 366.961107 
L 197.222704 441 
L 205.458748 441 
L 178.7775 346.07041 
L 176.992601 342.454234 
L 143.925 300.909811 
L 142.179226 300.012883 
L 63 204.585106 
L 63 237.771155 
L 114.771902 300.012883 
L 143.925 312.72645 
L 167.520593 342.454234 
z
" style="fill:#1f988b;"/>
    <path clip-path="url(#pf8c33429e0)" d="M 355.436115 342.454234 
L 352.374572 300.012883 
L 294.555 203.425228 
L 291.488724 201.467117 
L 259.7025 180.820328 
L 178.7775 182.067803 
L 143.925 184.618287 
L 63 187.453117 
L 63 199.743669 
L 143.925 195.458247 
L 178.7775 191.644639 
L 259.7025 188.430846 
L 280.810722 201.467117 
L 294.555 209.800275 
L 347.899651 300.012883 
L 351.584682 342.454234 
L 354.093357 441 
L 357.544453 441 
z
" style="fill:#1f988b;"/>
   </g>
   <g id="PathCollection_17">
    <path clip-path="url(#pf8c33429e0)" d="M 178.7775 346.07041 
L 205.458748 441 
L 212.533697 441 
L 190.698929 342.454234 
L 178.7775 324.389394 
L 160.024006 300.012883 
L 178.7775 205.315789 
L 210.217386 201.467117 
L 259.7025 197.123385 
L 267.236171 201.467117 
L 294.555 216.917042 
L 342.98722 300.012883 
L 347.413584 342.454234 
L 350.387821 441 
L 354.093357 441 
L 351.584682 342.454234 
L 347.899651 300.012883 
L 294.555 209.800275 
L 280.810722 201.467117 
L 259.7025 188.430846 
L 178.7775 191.644639 
L 143.925 195.458247 
L 63 199.743669 
L 63 201.467117 
L 63 204.585106 
L 142.179226 300.012883 
L 143.925 300.909811 
L 176.992601 342.454234 
z
" style="fill:#1fa188;"/>
   </g>
   <g id="PathCollection_18">
    <path clip-path="url(#pf8c33429e0)" d="M 202.611972 342.454234 
L 178.7775 307.223416 
L 173.182418 300.012883 
L 178.7775 250.358828 
L 259.7025 204.436209 
L 294.555 224.97113 
L 337.542366 300.012883 
L 342.864916 342.454234 
L 346.387322 441 
L 350.387821 441 
L 347.413584 342.454234 
L 342.98722 300.012883 
L 294.555 216.917042 
L 267.236171 201.467117 
L 259.7025 197.123385 
L 210.217386 201.467117 
L 178.7775 205.315789 
L 160.024006 300.012883 
L 178.7775 324.389394 
L 190.698929 342.454234 
L 212.533697 441 
L 218.734841 441 
z
" style="fill:#23a983;"/>
   </g>
   <g id="PathCollection_19">
    <path clip-path="url(#pf8c33429e0)" d="M 212.236158 342.454234 
L 189.470773 300.012883 
L 259.7025 210.222136 
L 294.555 234.247438 
L 331.435489 300.012883 
L 337.863457 342.454234 
L 342.040807 441 
L 346.387322 441 
L 342.864916 342.454234 
L 337.542366 300.012883 
L 294.555 224.97113 
L 259.7025 204.436209 
L 178.7775 250.358828 
L 173.182418 300.012883 
L 178.7775 307.223416 
L 202.611972 342.454234 
L 218.734841 441 
L 224.254487 441 
z
" style="fill:#2cb17e;"/>
   </g>
   <g id="PathCollection_20">
    <path clip-path="url(#pf8c33429e0)" d="M 220.310838 342.454234 
L 206.098002 300.012883 
L 259.7025 216.612409 
L 294.555 245.184435 
L 324.483028 300.012883 
L 332.308994 342.454234 
L 337.282704 441 
L 342.040807 441 
L 337.863457 342.454234 
L 331.435489 300.012883 
L 294.555 234.247438 
L 259.7025 210.222136 
L 189.470773 300.012883 
L 212.236158 342.454234 
L 224.254487 441 
L 229.227705 441 
z
" style="fill:#38b977;"/>
   </g>
   <g id="PathCollection_21">
    <path clip-path="url(#pf8c33429e0)" d="M 227.266451 342.454234 
L 218.572017 300.012883 
L 259.7025 223.748161 
L 294.555 258.509256 
L 316.412597 300.012883 
L 326.063859 342.454234 
L 332.026832 441 
L 337.282704 441 
L 332.308994 342.454234 
L 324.483028 300.012883 
L 294.555 245.184435 
L 259.7025 216.612409 
L 206.098002 300.012883 
L 220.310838 342.454234 
L 229.227705 441 
L 233.753005 441 
z
" style="fill:#46c06f;"/>
   </g>
   <g id="PathCollection_22">
    <path clip-path="url(#pf8c33429e0)" d="M 233.375759 342.454234 
L 228.55839 300.012883 
L 259.7025 231.826581 
L 294.555 275.564389 
L 306.794454 300.012883 
L 318.931568 342.454234 
L 326.156742 441 
L 332.026832 441 
L 326.063859 342.454234 
L 316.412597 300.012883 
L 294.555 258.509256 
L 259.7025 223.748161 
L 218.572017 300.012883 
L 227.266451 342.454234 
L 233.753005 441 
L 237.904447 441 
z
" style="fill:#58c765;"/>
   </g>
   <g id="PathCollection_23">
    <path clip-path="url(#pf8c33429e0)" d="M 238.822545 342.454234 
L 236.886237 300.012883 
L 259.7025 241.135195 
L 294.555 299.286863 
L 294.890683 300.012883 
L 310.617667 342.454234 
L 319.509641 441 
L 326.156742 441 
L 318.931568 342.454234 
L 306.794454 300.012883 
L 294.555 275.564389 
L 259.7025 231.826581 
L 228.55839 300.012883 
L 233.375759 342.454234 
L 237.904447 441 
L 241.739117 441 
z
" style="fill:#6ccd5a;"/>
   </g>
   <g id="PathCollection_24">
    <path clip-path="url(#pf8c33429e0)" d="M 243.736548 342.454234 
L 244.028783 300.012883 
L 259.7025 252.117164 
L 287.526315 300.012883 
L 294.555 324.1614 
L 300.651362 342.454234 
L 311.847985 441 
L 319.509641 441 
L 310.617667 342.454234 
L 294.890683 300.012883 
L 294.555 299.286863 
L 259.7025 241.135195 
L 236.886237 300.012883 
L 238.822545 342.454234 
L 241.739117 441 
L 245.301949 441 
z
" style="fill:#81d34d;"/>
   </g>
   <g id="PathCollection_25">
    <path clip-path="url(#pf8c33429e0)" d="M 248.212773 342.454234 
L 250.281776 300.012883 
L 259.7025 265.508883 
L 279.125695 300.012883 
L 290.982654 342.454234 
L 294.555 364.93869 
L 302.8053 441 
L 311.847985 441 
L 300.651362 342.454234 
L 294.555 324.1614 
L 287.526315 300.012883 
L 259.7025 252.117164 
L 244.028783 300.012883 
L 243.736548 342.454234 
L 245.301949 441 
L 248.628946 441 
z
" style="fill:#98d83e;"/>
   </g>
   <g id="PathCollection_26">
    <path clip-path="url(#pf8c33429e0)" d="M 252.322882 342.454234 
L 255.842453 300.012883 
L 259.7025 282.67405 
L 269.034387 300.012883 
L 282.593074 342.454234 
L 292.625063 441 
L 294.555 441 
L 302.8053 441 
L 294.555 364.93869 
L 290.982654 342.454234 
L 279.125695 300.012883 
L 259.7025 265.508883 
L 250.281776 300.012883 
L 248.212773 342.454234 
L 248.628946 441 
L 251.749399 441 
z
" style="fill:#b0dd2f;"/>
   </g>
   <g id="PathCollection_27">
    <path clip-path="url(#pf8c33429e0)" d="M 256.122261 342.454234 
L 259.7025 306.124812 
L 272.517709 342.454234 
L 283.334916 441 
L 292.625063 441 
L 282.593074 342.454234 
L 269.034387 300.012883 
L 259.7025 282.67405 
L 255.842453 300.012883 
L 252.322882 342.454234 
L 251.749399 441 
L 254.687463 441 
z
" style="fill:#c5e021;"/>
   </g>
   <g id="PathCollection_28">
    <path clip-path="url(#pf8c33429e0)" d="M 259.654611 342.454234 
L 259.7025 341.771092 
L 259.904271 342.454234 
L 271.930242 441 
L 283.334916 441 
L 272.517709 342.454234 
L 259.7025 306.124812 
L 256.122261 342.454234 
L 254.687463 441 
L 257.463285 441 
z
" style="fill:#dde318;"/>
   </g>
   <g id="PathCollection_29">
    <path clip-path="url(#pf8c33429e0)" d="M 259.7025 441 
L 271.930242 441 
L 259.904271 342.454234 
L 259.7025 341.771092 
L 259.654611 342.454234 
L 257.463285 441 
z
" style="fill:#f4e61e;"/>
   </g>
   <g id="matplotlib.axis_1">
    <g id="xtick_1">
     <g id="line2d_1">
      <defs>
       <path d="M 0 0 
L 0 3.5 
" id="mf2a14a48f3" style="stroke:#000000;stroke-width:0.8;"/>
      </defs>
      <g>
       <use style="stroke:#000000;stroke-width:0.8;" x="63" xlink:href="#mf2a14a48f3" y="441"/>
      </g>
     </g>
     <g id="text_1">
      <!-- $10^{-3}$ -->
      <defs>
       <path d="M 29.09375 68 
L 11.09375 59 
L 11.09375 57.59375 
C 12.296875 58.09375 13.40625 58.484375 13.796875 58.6875 
C 15.59375 59.390625 17.296875 59.78125 18.296875 59.78125 
C 20.40625 59.78125 21.296875 58.296875 21.296875 55.078125 
L 21.296875 9.359375 
C 21.296875 6.03125 20.5 3.71875 18.90625 2.796875 
C 17.40625 1.890625 16 1.59375 11.796875 1.5 
L 11.796875 0 
L 39.40625 0 
L 39.40625 1.5 
C 31.5 1.59375 29.90625 2.609375 29.90625 7.453125 
L 29.90625 67.796875 
z
" id="Nimbus_Roman_No9_L_Regular-49"/>
       <path d="M 25.40625 68 
C 19.90625 68 15.703125 66.296875 12 62.796875 
C 6.203125 57.203125 2.40625 45.6875 2.40625 34 
C 2.40625 23.09375 5.703125 11.390625 10.40625 5.796875 
C 14.09375 1.390625 19.203125 -1 25 -1 
C 30.09375 -1 34.40625 0.6875 38 4.1875 
C 43.796875 9.6875 47.59375 21.296875 47.59375 33.390625 
C 47.59375 53.890625 38.5 68 25.40625 68 
z
M 25.09375 65.390625 
C 33.5 65.390625 38 54.09375 38 33.1875 
C 38 12.296875 33.59375 1.59375 25 1.59375 
C 16.40625 1.59375 12 12.296875 12 33.09375 
C 12 54.296875 16.5 65.390625 25.09375 65.390625 
z
" id="Nimbus_Roman_No9_L_Regular-48"/>
       <path d="M 65.90625 23 
C 67.59375 23 69.40625 23 69.40625 25 
C 69.40625 27 67.59375 27 65.90625 27 
L 11.796875 27 
C 10.09375 27 8.296875 27 8.296875 25 
C 8.296875 23 10.09375 23 11.796875 23 
z
" id="CMSY10-0"/>
       <path d="M 15.296875 33.390625 
C 21.203125 33.390625 23.5 33.1875 25.90625 32.296875 
C 32.09375 30.09375 36 24.390625 36 17.5 
C 36 9.09375 30.296875 2.59375 22.90625 2.59375 
C 20.203125 2.59375 18.203125 3.296875 14.5 5.6875 
C 11.5 7.5 9.796875 8.1875 8.09375 8.1875 
C 5.796875 8.1875 4.296875 6.796875 4.296875 4.6875 
C 4.296875 1.1875 8.59375 -1 15.59375 -1 
C 23.296875 -1 31.203125 1.59375 35.90625 5.6875 
C 40.59375 9.796875 43.203125 15.59375 43.203125 22.296875 
C 43.203125 27.390625 41.59375 32.09375 38.703125 35.1875 
C 36.703125 37.390625 34.796875 38.59375 30.40625 40.5 
C 37.296875 45.1875 39.796875 48.890625 39.796875 54.296875 
C 39.796875 62.390625 33.40625 68 24.203125 68 
C 19.203125 68 14.796875 66.296875 11.203125 63.09375 
C 8.203125 60.390625 6.703125 57.796875 4.5 51.796875 
L 6 51.390625 
C 10.09375 58.703125 14.59375 61.984375 20.90625 61.984375 
C 27.40625 61.984375 31.90625 57.59375 31.90625 51.296875 
C 31.90625 47.6875 30.40625 44.09375 27.90625 41.59375 
C 24.90625 38.59375 22.09375 37.09375 15.296875 34.6875 
z
" id="Nimbus_Roman_No9_L_Regular-51"/>
      </defs>
      <g transform="translate(43.622873 461.509155)scale(0.2 -0.2)">
       <use transform="scale(0.996264)" xlink:href="#Nimbus_Roman_No9_L_Regular-49"/>
       <use transform="translate(49.8132 0)scale(0.996264)" xlink:href="#Nimbus_Roman_No9_L_Regular-48"/>
       <use transform="translate(99.626401 36.163231)scale(0.737241)" xlink:href="#CMSY10-0"/>
       <use transform="translate(156.909271 36.163231)scale(0.737241)" xlink:href="#Nimbus_Roman_No9_L_Regular-51"/>
      </g>
     </g>
    </g>
    <g id="xtick_2">
     <g id="line2d_2">
      <g>
       <use style="stroke:#000000;stroke-width:0.8;" x="178.7775" xlink:href="#mf2a14a48f3" y="441"/>
      </g>
     </g>
     <g id="text_2">
      <!-- $10^{-2}$ -->
      <defs>
       <path d="M 47.5 13.734375 
L 46.203125 14.25 
C 42.5 8.5 41.203125 7.59375 36.703125 7.59375 
L 12.796875 7.59375 
L 29.59375 25.328125 
C 38.5 34.703125 42.40625 42.359375 42.40625 50.21875 
C 42.40625 60.28125 34.296875 68 23.90625 68 
C 18.40625 68 13.203125 65.796875 9.5 61.796875 
C 6.296875 58.375 4.796875 55.15625 3.09375 48 
L 5.203125 47.484375 
C 9.203125 57.359375 12.796875 60.59375 19.703125 60.59375 
C 28.09375 60.59375 33.796875 54.84375 33.796875 46.390625 
C 33.796875 38.53125 29.203125 29.15625 20.796875 20.1875 
L 3 1.1875 
L 3 0 
L 42 0 
z
" id="Nimbus_Roman_No9_L_Regular-50"/>
      </defs>
      <g transform="translate(159.400373 461.509155)scale(0.2 -0.2)">
       <use transform="scale(0.996264)" xlink:href="#Nimbus_Roman_No9_L_Regular-49"/>
       <use transform="translate(49.8132 0)scale(0.996264)" xlink:href="#Nimbus_Roman_No9_L_Regular-48"/>
       <use transform="translate(99.626401 36.163231)scale(0.737241)" xlink:href="#CMSY10-0"/>
       <use transform="translate(156.909271 36.163231)scale(0.737241)" xlink:href="#Nimbus_Roman_No9_L_Regular-50"/>
      </g>
     </g>
    </g>
    <g id="xtick_3">
     <g id="line2d_3">
      <g>
       <use style="stroke:#000000;stroke-width:0.8;" x="294.555" xlink:href="#mf2a14a48f3" y="441"/>
      </g>
     </g>
     <g id="text_3">
      <!-- $10^{-1}$ -->
      <g transform="translate(275.177874 461.509155)scale(0.2 -0.2)">
       <use transform="scale(0.996264)" xlink:href="#Nimbus_Roman_No9_L_Regular-49"/>
       <use transform="translate(49.8132 0)scale(0.996264)" xlink:href="#Nimbus_Roman_No9_L_Regular-48"/>
       <use transform="translate(99.626401 36.163231)scale(0.737241)" xlink:href="#CMSY10-0"/>
       <use transform="translate(156.909271 36.163231)scale(0.737241)" xlink:href="#Nimbus_Roman_No9_L_Regular-49"/>
      </g>
     </g>
    </g>
    <g id="xtick_4">
     <g id="line2d_4">
      <defs>
       <path d="M 0 0 
L 0 2 
" id="m9298635ccb" style="stroke:#000000;stroke-width:0.6;"/>
      </defs>
      <g>
       <use style="stroke:#000000;stroke-width:0.6;" x="97.8525" xlink:href="#m9298635ccb" y="441"/>
      </g>
     </g>
    </g>
    <g id="xtick_5">
     <g id="line2d_5">
      <g>
       <use style="stroke:#000000;stroke-width:0.6;" x="118.239906" xlink:href="#m9298635ccb" y="441"/>
      </g>
     </g>
    </g>
    <g id="xtick_6">
     <g id="line2d_6">
      <g>
       <use style="stroke:#000000;stroke-width:0.6;" x="132.705001" xlink:href="#m9298635ccb" y="441"/>
      </g>
     </g>
    </g>
    <g id="xtick_7">
     <g id="line2d_7">
      <g>
       <use style="stroke:#000000;stroke-width:0.6;" x="143.925" xlink:href="#m9298635ccb" y="441"/>
      </g>
     </g>
    </g>
    <g id="xtick_8">
     <g id="line2d_8">
      <g>
       <use style="stroke:#000000;stroke-width:0.6;" x="153.092406" xlink:href="#m9298635ccb" y="441"/>
      </g>
     </g>
    </g>
    <g id="xtick_9">
     <g id="line2d_9">
      <g>
       <use style="stroke:#000000;stroke-width:0.6;" x="160.843338" xlink:href="#m9298635ccb" y="441"/>
      </g>
     </g>
    </g>
    <g id="xtick_10">
     <g id="line2d_10">
      <g>
       <use style="stroke:#000000;stroke-width:0.6;" x="167.557501" xlink:href="#m9298635ccb" y="441"/>
      </g>
     </g>
    </g>
    <g id="xtick_11">
     <g id="line2d_11">
      <g>
       <use style="stroke:#000000;stroke-width:0.6;" x="173.479812" xlink:href="#m9298635ccb" y="441"/>
      </g>
     </g>
    </g>
    <g id="xtick_12">
     <g id="line2d_12">
      <g>
       <use style="stroke:#000000;stroke-width:0.6;" x="213.63" xlink:href="#m9298635ccb" y="441"/>
      </g>
     </g>
    </g>
    <g id="xtick_13">
     <g id="line2d_13">
      <g>
       <use style="stroke:#000000;stroke-width:0.6;" x="234.017406" xlink:href="#m9298635ccb" y="441"/>
      </g>
     </g>
    </g>
    <g id="xtick_14">
     <g id="line2d_14">
      <g>
       <use style="stroke:#000000;stroke-width:0.6;" x="248.482501" xlink:href="#m9298635ccb" y="441"/>
      </g>
     </g>
    </g>
    <g id="xtick_15">
     <g id="line2d_15">
      <g>
       <use style="stroke:#000000;stroke-width:0.6;" x="259.7025" xlink:href="#m9298635ccb" y="441"/>
      </g>
     </g>
    </g>
    <g id="xtick_16">
     <g id="line2d_16">
      <g>
       <use style="stroke:#000000;stroke-width:0.6;" x="268.869907" xlink:href="#m9298635ccb" y="441"/>
      </g>
     </g>
    </g>
    <g id="xtick_17">
     <g id="line2d_17">
      <g>
       <use style="stroke:#000000;stroke-width:0.6;" x="276.620839" xlink:href="#m9298635ccb" y="441"/>
      </g>
     </g>
    </g>
    <g id="xtick_18">
     <g id="line2d_18">
      <g>
       <use style="stroke:#000000;stroke-width:0.6;" x="283.335001" xlink:href="#m9298635ccb" y="441"/>
      </g>
     </g>
    </g>
    <g id="xtick_19">
     <g id="line2d_19">
      <g>
       <use style="stroke:#000000;stroke-width:0.6;" x="289.257312" xlink:href="#m9298635ccb" y="441"/>
      </g>
     </g>
    </g>
    <g id="xtick_20">
     <g id="line2d_20">
      <g>
       <use style="stroke:#000000;stroke-width:0.6;" x="329.407501" xlink:href="#m9298635ccb" y="441"/>
      </g>
     </g>
    </g>
    <g id="xtick_21">
     <g id="line2d_21">
      <g>
       <use style="stroke:#000000;stroke-width:0.6;" x="349.794906" xlink:href="#m9298635ccb" y="441"/>
      </g>
     </g>
    </g>
    <g id="xtick_22">
     <g id="line2d_22">
      <g>
       <use style="stroke:#000000;stroke-width:0.6;" x="364.260001" xlink:href="#m9298635ccb" y="441"/>
      </g>
     </g>
    </g>
    <g id="xtick_23">
     <g id="line2d_23">
      <g>
       <use style="stroke:#000000;stroke-width:0.6;" x="375.48" xlink:href="#m9298635ccb" y="441"/>
      </g>
     </g>
    </g>
    <g id="text_4">
     <!-- Peak $RNA_E$ transcription rate $k_{RE}$ -->
     <defs>
      <path d="M 20.203125 29.296875 
C 22.796875 29.09375 24.5 28.984375 27.09375 28.984375 
C 34.90625 28.984375 40.296875 29.984375 44.59375 32.390625 
C 50.59375 35.5625 54.203125 41.578125 54.203125 48.078125 
C 54.203125 52.234375 52.796875 55.984375 50.09375 58.84375 
C 46.09375 63.1875 37.40625 66 28 66 
L 1.59375 66 
L 1.59375 64.09375 
C 9 63.296875 10 62.296875 10 55.125 
L 10 11.953125 
C 10 3.59375 9.203125 2.59375 1.59375 1.890625 
L 1.59375 0 
L 29.59375 0 
L 29.59375 1.890625 
C 21.703125 2.1875 20.203125 3.59375 20.203125 10.859375 
z
M 20.203125 58.9375 
C 20.203125 61.59375 20.90625 62.296875 23.59375 62.296875 
C 37.09375 62.296875 43.296875 57.65625 43.296875 47.5 
C 43.296875 37.921875 37.40625 33 25.90625 33 
C 23.90625 33 22.5 33.09375 20.203125 33.28125 
z
" id="Nimbus_Roman_No9_L_Regular-80"/>
      <path d="M 40.796875 16.4375 
C 36 8.8125 31.703125 5.890625 25.296875 5.890625 
C 19.59375 5.890625 15.296875 8.8125 12.40625 14.53125 
C 10.59375 18.34375 9.90625 21.65625 9.703125 27.796875 
L 40.5 27.796875 
C 39.703125 34.265625 38.703125 37.140625 36.203125 40.3125 
C 33.203125 43.890625 28.59375 46 23.40625 46 
C 18.40625 46 13.703125 44.1875 9.90625 40.8125 
C 5.203125 36.734375 2.5 29.6875 2.5 21.46875 
C 2.5 7.59375 9.703125 -1 21.203125 -1 
C 30.703125 -1 38.203125 4.890625 42.40625 15.734375 
z
M 9.90625 31 
C 11 38.71875 14.40625 42.390625 20.5 42.390625 
C 26.59375 42.390625 29 39.609375 30.296875 31 
z
" id="Nimbus_Roman_No9_L_Regular-101"/>
      <path d="M 44.203125 6.59375 
C 42.5 5.1875 41.296875 4.6875 39.796875 4.6875 
C 37.5 4.6875 36.796875 6.09375 36.796875 10.5 
L 36.796875 30 
C 36.796875 35.1875 36.296875 38.09375 34.796875 40.5 
C 32.59375 44.09375 28.296875 46 22.40625 46 
C 13 46 5.59375 41.09375 5.59375 34.796875 
C 5.59375 32.5 7.59375 30.5 9.90625 30.5 
C 12.296875 30.5 14.40625 32.5 14.40625 34.6875 
C 14.40625 35.09375 14.296875 35.59375 14.203125 36.296875 
C 14 37.1875 13.90625 38 13.90625 38.6875 
C 13.90625 41.390625 17.09375 43.59375 21.09375 43.59375 
C 26 43.59375 28.703125 40.6875 28.703125 35.296875 
L 28.703125 29.1875 
C 13.296875 23 11.59375 22.1875 7.296875 18.390625 
C 5.09375 16.390625 3.703125 13 3.703125 9.6875 
C 3.703125 3.390625 8.09375 -1 14.203125 -1 
C 18.59375 -1 22.703125 1.09375 28.796875 6.296875 
C 29.296875 1.09375 31.09375 -1 35.203125 -1 
C 38.59375 -1 40.703125 0.1875 44.203125 4 
z
M 28.703125 12.296875 
C 28.703125 9.1875 28.203125 8.296875 26.09375 7.09375 
C 23.703125 5.6875 20.90625 4.796875 18.796875 4.796875 
C 15.296875 4.796875 12.5 8.1875 12.5 12.5 
L 12.5 12.890625 
C 12.5 18.796875 16.59375 22.390625 28.703125 26.796875 
z
" id="Nimbus_Roman_No9_L_Regular-97"/>
      <path d="M 0.703125 62.296875 
C 2 62.390625 2.90625 62.5 3.90625 62.5 
C 7.203125 62.5 8.203125 61.1875 8.203125 56.390625 
L 8.203125 8.1875 
C 8.203125 3 7.90625 2.6875 0.703125 1.5 
L 0.703125 0 
L 24.09375 0 
L 24.09375 1.5 
L 22.09375 1.59375 
C 18.09375 1.796875 16.59375 3.1875 16.59375 6.6875 
L 16.59375 25.09375 
L 30.59375 6.390625 
L 30.90625 6 
C 31.09375 5.6875 31.296875 5.390625 31.59375 5.09375 
C 32.40625 4.09375 32.703125 3.5 32.703125 3 
C 32.703125 2.09375 31.796875 1.5 30.59375 1.5 
L 28.703125 1.5 
L 28.703125 0 
L 50.5 0 
L 50.5 1.5 
C 46.09375 1.796875 43 3.6875 38.796875 8.796875 
L 23.5 28.1875 
L 26.40625 30.890625 
C 33.5 37.5 39.703125 42.09375 42.59375 42.890625 
C 44.09375 43.296875 45.5 43.484375 47.203125 43.484375 
L 48 43.484375 
L 48 45 
L 27.59375 45 
L 27.59375 43.59375 
C 31.5 43.484375 32.59375 43.09375 32.59375 41.6875 
C 32.59375 40.890625 31.703125 39.5 30.296875 38.296875 
L 16.59375 26.09375 
L 16.59375 68.09375 
L 16.203125 68.296875 
C 12.40625 67.09375 9.5 66.296875 3.703125 64.6875 
L 0.703125 63.890625 
z
" id="Nimbus_Roman_No9_L_Regular-107"/>
      <path d="M 56.703125 1.59375 
C 52.296875 1.890625 50.296875 3.578125 48.40625 8.765625 
L 39.09375 33.140625 
C 46.796875 34.828125 50.09375 36.21875 53.703125 39.40625 
C 57 42.296875 58.796875 46.171875 58.796875 50.65625 
C 58.796875 59.90625 51.40625 65 38 65 
L 13.203125 65 
L 13.203125 63.390625 
C 17.40625 62.796875 17.90625 62.6875 18.90625 61.984375 
C 19.703125 61.5 20.296875 60.296875 20.296875 59.203125 
C 20.296875 58.015625 19.796875 55.625 19.09375 52.9375 
L 6.796875 8.953125 
C 5 3.09375 4.296875 2.484375 -1.296875 1.59375 
L -1.296875 0 
L 23.09375 0 
L 23.09375 1.59375 
C 17 2.390625 16.296875 2.890625 16.296875 6.171875 
C 16.296875 7.171875 16.59375 8.453125 17.5 11.9375 
L 23.09375 32.734375 
L 29.59375 32.234375 
L 41.90625 0 
L 56.703125 0 
z
M 30.796875 59.203125 
C 31.40625 61.296875 32.703125 61.984375 35.90625 61.984375 
C 44.203125 61.984375 48.296875 58.21875 48.296875 50.84375 
C 48.296875 41 41.90625 35.921875 29.40625 35.921875 
C 27.796875 35.921875 26.703125 36.015625 24.296875 36.421875 
z
" id="Nimbus_Roman_No9_L_Regular_Italic-82"/>
      <path d="M 72.703125 65 
L 52.796875 65 
L 52.796875 63.390625 
C 58.5 62.890625 59.796875 61.890625 59.796875 58.265625 
C 59.796875 57.0625 59.59375 55.859375 58.90625 53.859375 
C 58.796875 53.5625 58.703125 53.15625 58.703125 53.0625 
L 48.5 14.9375 
L 27.703125 65 
L 11.59375 65 
L 11.59375 63.390625 
C 16.296875 62.984375 18.40625 61.6875 20.203125 57.765625 
L 8.296875 15.9375 
C 4.5 3.109375 3.703125 1.890625 -2 1.09375 
L -2 -0.5 
L 17.796875 -0.5 
L 17.796875 1.09375 
C 12.703125 1.5 10.796875 2.59375 10.796875 5.40625 
C 10.796875 6.71875 11.09375 8.71875 11.703125 10.828125 
L 23.09375 53.15625 
L 46.09375 -2 
L 47.90625 -2 
L 62.296875 48.4375 
C 66 61.390625 66.40625 61.984375 72.703125 63.390625 
z
" id="Nimbus_Roman_No9_L_Regular_Italic-78"/>
      <path d="M 56.40625 1.59375 
C 50.703125 2.09375 50.09375 2.890625 48.796875 10.109375 
L 39.40625 67 
L 36.796875 67 
L 7.796875 16.65625 
C -0.109375 3.484375 -1.109375 2.390625 -5.109375 1.59375 
L -5.109375 0 
L 13.59375 0 
L 13.59375 1.59375 
C 8.5 2.09375 7.703125 2.59375 7.703125 5.0625 
C 7.703125 6.9375 8 7.828125 9.703125 11.203125 
L 15.40625 22.390625 
L 37.40625 22.390625 
L 39.40625 9.421875 
C 39.5 8.53125 39.59375 7.640625 39.59375 6.84375 
C 39.59375 3.078125 38.203125 2.1875 31.796875 1.59375 
L 31.796875 0 
L 56.40625 0 
z
M 17.5 26 
L 32.5 52.265625 
L 36.90625 26 
z
" id="Nimbus_Roman_No9_L_Regular_Italic-65"/>
      <path d="M 63.40625 65 
L 13.703125 65 
L 13.703125 63.390625 
C 19.90625 62.796875 21.40625 61.984375 21.40625 59.296875 
C 21.40625 58.203125 20.796875 54.734375 20.296875 52.9375 
L 8 8.96875 
C 6.296875 3.296875 5.5 2.59375 -0.109375 1.59375 
L -0.109375 0 
L 50.59375 0 
L 56.796875 16.125 
L 55.203125 16.921875 
C 50.5 10.5625 47.90625 7.96875 43.59375 5.984375 
C 39.90625 4.28125 33.09375 3.296875 25.59375 3.296875 
C 20 3.296875 17.59375 4.28125 17.59375 6.671875 
C 17.59375 7.765625 18.703125 12.4375 21.203125 21.203125 
C 22.5 25.578125 23.40625 28.859375 24.40625 32.640625 
C 27.90625 32.4375 31 32.34375 32.203125 32.34375 
C 36.09375 32.4375 38.90625 31.84375 40 30.84375 
C 40.5 30.359375 40.703125 29.453125 40.703125 27.765625 
C 40.703125 26.078125 40.5 24.78125 40 22.59375 
L 42 22.09375 
L 48.796875 45.171875 
L 47 45.578125 
C 43.203125 37.125 42.296875 36.515625 33.203125 36.125 
C 32 36.125 28.796875 36.03125 25.296875 35.921875 
L 31.90625 59.109375 
C 32.5 61.296875 33.59375 61.6875 39.203125 61.6875 
C 54.90625 61.6875 58.40625 60.390625 58.40625 54.421875 
C 58.40625 53.140625 58.296875 51.640625 58.203125 49.953125 
L 60.296875 49.75 
z
" id="Nimbus_Roman_No9_L_Regular_Italic-69"/>
      <path d="M 25.5 45 
L 15.40625 45 
L 15.40625 56.59375 
C 15.40625 57.59375 15.296875 57.890625 14.703125 57.890625 
C 14 57 13.40625 56.09375 12.703125 55.09375 
C 8.90625 49.59375 4.59375 44.796875 3 44.390625 
C 1.90625 43.6875 1.296875 42.984375 1.296875 42.484375 
C 1.296875 42.1875 1.40625 41.984375 1.703125 41.796875 
L 7 41.796875 
L 7 11.6875 
C 7 3.296875 10 -1 15.90625 -1 
C 20.796875 -1 24.59375 1.390625 27.90625 6.59375 
L 26.59375 7.6875 
C 24.5 5.1875 22.796875 4.1875 20.59375 4.1875 
C 16.90625 4.1875 15.40625 6.890625 15.40625 13.1875 
L 15.40625 41.796875 
L 25.5 41.796875 
z
" id="Nimbus_Roman_No9_L_Regular-116"/>
      <path d="M 0.703125 39 
C 2.09375 39.296875 3 39.390625 4.203125 39.390625 
C 6.703125 39.390625 7.59375 37.796875 7.59375 33.390625 
L 7.59375 8.390625 
C 7.59375 3.390625 6.90625 2.6875 0.5 1.5 
L 0.5 0 
L 24.5 0 
L 24.5 1.5 
C 17.703125 1.796875 16 3.296875 16 9 
L 16 31.5 
C 16 34.6875 20.296875 39.6875 23 39.6875 
C 23.59375 39.6875 24.5 39.1875 25.59375 38.1875 
C 27.203125 36.796875 28.296875 36.1875 29.59375 36.1875 
C 32 36.1875 33.5 37.890625 33.5 40.6875 
C 33.5 43.984375 31.40625 46 28 46 
C 23.796875 46 20.90625 43.6875 16 36.59375 
L 16 45.796875 
L 15.5 46 
C 10.203125 43.796875 6.59375 42.5 0.703125 40.59375 
z
" id="Nimbus_Roman_No9_L_Regular-114"/>
      <path d="M 1.59375 39.796875 
C 2.203125 40.09375 3.203125 40.1875 4.296875 40.1875 
C 7.09375 40.1875 8 38.6875 8 33.796875 
L 8 9 
C 8 3.296875 6.90625 1.890625 1.796875 1.5 
L 1.796875 0 
L 23 0 
L 23 1.5 
C 17.90625 1.890625 16.40625 3.09375 16.40625 6.6875 
L 16.40625 34.796875 
C 21.203125 39.296875 23.40625 40.484375 26.703125 40.484375 
C 31.59375 40.484375 34 37.390625 34 30.796875 
L 34 9.890625 
C 34 3.59375 32.703125 1.890625 27.703125 1.5 
L 27.703125 0 
L 48.5 0 
L 48.5 1.5 
C 43.59375 2 42.40625 3.1875 42.40625 8.09375 
L 42.40625 31 
C 42.40625 40.390625 38 46 30.59375 46 
C 26 46 22.90625 44.296875 16.09375 37.890625 
L 16.09375 45.796875 
L 15.40625 46 
C 10.5 44.1875 7.09375 43.09375 1.59375 41.484375 
z
" id="Nimbus_Roman_No9_L_Regular-110"/>
      <path d="M 31.5 31.390625 
L 31.09375 45 
L 30 45 
L 29.796875 44.796875 
C 28.90625 44.09375 28.796875 43.984375 28.40625 43.984375 
C 27.796875 43.984375 26.796875 44.1875 25.703125 44.6875 
C 23.5 45.59375 21.296875 46 18.703125 46 
C 10.796875 46 5.09375 40.890625 5.09375 33.671875 
C 5.09375 28.0625 8.296875 24.046875 16.796875 19.234375 
L 22.59375 15.921875 
C 26.09375 13.921875 27.796875 11.515625 27.796875 8.40625 
C 27.796875 4 24.59375 1.1875 19.5 1.1875 
C 16.09375 1.1875 13 2.5 11.09375 4.703125 
C 9 7.203125 8.09375 9.515625 6.796875 15.21875 
L 5.203125 15.21875 
L 5.203125 -0.40625 
L 6.5 -0.40625 
C 7.203125 0.59375 7.59375 0.796875 8.796875 0.796875 
C 9.703125 0.796875 11.09375 0.59375 13.40625 0 
C 16.203125 -0.609375 18.90625 -1 20.703125 -1 
C 28.40625 -1 34.796875 4.796875 34.796875 11.8125 
C 34.796875 16.828125 32.40625 20.140625 26.40625 23.75 
L 15.59375 30.15625 
C 12.796875 31.765625 11.296875 34.265625 11.296875 36.96875 
C 11.296875 40.984375 14.40625 43.796875 19 43.796875 
C 24.703125 43.796875 27.703125 40.390625 30 31.46875 
z
" id="Nimbus_Roman_No9_L_Regular-115"/>
      <path d="M 39.796875 15.59375 
C 35 8.59375 31.40625 6.1875 25.703125 6.1875 
C 16.59375 6.1875 10.203125 14.1875 10.203125 25.6875 
C 10.203125 35.984375 15.703125 43.09375 23.796875 43.09375 
C 27.40625 43.09375 28.703125 41.984375 29.703125 38.296875 
L 30.296875 36.09375 
C 31.09375 33.296875 32.90625 31.484375 35 31.484375 
C 37.59375 31.484375 39.796875 33.390625 39.796875 35.6875 
C 39.796875 41.296875 32.796875 46 24.40625 46 
C 19.5 46 14.40625 43.984375 10.296875 40.390625 
C 5.296875 35.984375 2.5 29.1875 2.5 21.296875 
C 2.5 8.296875 10.40625 -1 21.5 -1 
C 26 -1 30 0.59375 33.59375 3.6875 
C 36.296875 6.09375 38.203125 8.796875 41.203125 14.6875 
z
" id="Nimbus_Roman_No9_L_Regular-99"/>
      <path d="M 17.5 46 
L 2 40.5 
L 2 39 
L 2.796875 39.09375 
C 4 39.296875 5.296875 39.390625 6.203125 39.390625 
C 8.59375 39.390625 9.5 37.796875 9.5 33.390625 
L 9.5 10.1875 
C 9.5 3 8.5 1.890625 1.59375 1.5 
L 1.59375 0 
L 25.296875 0 
L 25.296875 1.5 
C 18.703125 2 17.90625 3 17.90625 10.1875 
L 17.90625 45.6875 
z
M 12.796875 68 
C 10.09375 68 7.796875 65.6875 7.796875 62.890625 
C 7.796875 60.09375 10 57.796875 12.796875 57.796875 
C 15.703125 57.796875 18 59.984375 18 62.890625 
C 18 65.6875 15.703125 68 12.796875 68 
z
" id="Nimbus_Roman_No9_L_Regular-105"/>
      <path d="M 0.90625 39.296875 
C 1.796875 39.390625 2.5 39.390625 3.40625 39.390625 
C 6.796875 39.390625 7.5 38.390625 7.5 33.703125 
L 7.5 -13.109375 
C 7.5 -18.3125 6.40625 -19.40625 0.5 -20 
L 0.5 -21.703125 
L 24.703125 -21.703125 
L 24.703125 -20 
C 17.203125 -19.90625 15.90625 -18.796875 15.90625 -12.46875 
L 15.90625 3.296875 
C 19.40625 0 21.796875 -1 26 -1 
C 37.796875 -1 47 10.1875 47 24.6875 
C 47 37.09375 40 46 30.296875 46 
C 24.703125 46 20.296875 43.484375 15.90625 38.09375 
L 15.90625 45.796875 
L 15.296875 46 
C 9.90625 43.890625 6.40625 42.59375 0.90625 40.890625 
z
M 15.90625 33.390625 
C 15.90625 36.390625 21.5 39.984375 26.09375 39.984375 
C 33.5 39.984375 38.40625 32.390625 38.40625 20.796875 
C 38.40625 9.6875 33.5 2.1875 26.296875 2.1875 
C 21.59375 2.1875 15.90625 5.796875 15.90625 8.796875 
z
" id="Nimbus_Roman_No9_L_Regular-112"/>
      <path d="M 25 46 
C 12 46 2.90625 36.390625 2.90625 22.59375 
C 2.90625 9.09375 12.203125 -1 24.796875 -1 
C 37.40625 -1 47 9.59375 47 23.390625 
C 47 36.5 37.796875 46 25 46 
z
M 23.703125 43.1875 
C 32.09375 43.1875 38 33.59375 38 19.890625 
C 38 8.59375 33.5 1.796875 26 1.796875 
C 22.09375 1.796875 18.40625 4.1875 16.296875 8.1875 
C 13.5 13.390625 11.90625 20.390625 11.90625 27.5 
C 11.90625 37 16.59375 43.1875 23.703125 43.1875 
z
" id="Nimbus_Roman_No9_L_Regular-111"/>
      <path d="M 41.40625 11 
L 39.90625 8.390625 
C 38.09375 5.296875 36.90625 4.1875 35.40625 4.1875 
C 33.296875 4.1875 31.203125 7.5 27.296875 17.09375 
C 26.796875 18.390625 25.296875 22 23.59375 25.890625 
C 38.296875 39 41.40625 41 46.09375 41.296875 
L 46.09375 42.890625 
L 27.796875 42.890625 
L 27.796875 41.296875 
L 29.40625 41.296875 
C 31.90625 41.296875 33.296875 40.59375 33.296875 39.5 
C 33.296875 37.5 28.296875 32.59375 19 25.5 
C 17.59375 24.390625 16.40625 23.390625 14.703125 22.1875 
L 26.703125 67.890625 
L 26.203125 68.390625 
C 20.296875 67.09375 16.5 66.390625 10.59375 65.703125 
L 10.59375 64.09375 
C 15.40625 64.203125 17.296875 63.5 17.40625 61.59375 
C 17.203125 59.890625 16.5 57.203125 15.203125 52.59375 
C 14.796875 51.203125 14.5 50.09375 14.296875 49.296875 
L 14.09375 48.390625 
L 1.40625 0.09375 
L 8.90625 0.09375 
L 13.703125 18.09375 
L 17.90625 21.296875 
C 19.5 16.890625 22.09375 10.796875 23.90625 7.1875 
C 27.09375 0.890625 28.90625 -1 31.796875 -1 
C 35.796875 -1 38.40625 1.5 42.90625 9.890625 
z
" id="Nimbus_Roman_No9_L_Regular_Italic-107"/>
     </defs>
     <g transform="translate(86.743636 483.331968)scale(0.2 -0.2)">
      <use transform="translate(0 14.943915)scale(0.996264)" xlink:href="#Nimbus_Roman_No9_L_Regular-80"/>
      <use transform="translate(55.391677 14.943915)scale(0.996264)" xlink:href="#Nimbus_Roman_No9_L_Regular-101"/>
      <use transform="translate(99.625246 14.943915)scale(0.996264)" xlink:href="#Nimbus_Roman_No9_L_Regular-97"/>
      <use transform="translate(143.858814 14.943915)scale(0.996264)" xlink:href="#Nimbus_Roman_No9_L_Regular-107"/>
      <use transform="translate(218.578615 14.943915)scale(0.996264)" xlink:href="#Nimbus_Roman_No9_L_Regular_Italic-82"/>
      <use transform="translate(279.450246 14.943915)scale(0.996264)" xlink:href="#Nimbus_Roman_No9_L_Regular_Italic-78"/>
      <use transform="translate(349.188681 14.943915)scale(0.996264)" xlink:href="#Nimbus_Roman_No9_L_Regular_Italic-65"/>
      <use transform="translate(410.060312 0)scale(0.737241)" xlink:href="#Nimbus_Roman_No9_L_Regular_Italic-69"/>
      <use transform="translate(485.892092 14.943915)scale(0.996264)" xlink:href="#Nimbus_Roman_No9_L_Regular-116"/>
      <use transform="translate(513.587262 14.943915)scale(0.996264)" xlink:href="#Nimbus_Roman_No9_L_Regular-114"/>
      <use transform="translate(546.762492 14.943915)scale(0.996264)" xlink:href="#Nimbus_Roman_No9_L_Regular-97"/>
      <use transform="translate(590.99606 14.943915)scale(0.996264)" xlink:href="#Nimbus_Roman_No9_L_Regular-110"/>
      <use transform="translate(640.809261 14.943915)scale(0.996264)" xlink:href="#Nimbus_Roman_No9_L_Regular-115"/>
      <use transform="translate(679.562967 14.943915)scale(0.996264)" xlink:href="#Nimbus_Roman_No9_L_Regular-99"/>
      <use transform="translate(723.796536 14.943915)scale(0.996264)" xlink:href="#Nimbus_Roman_No9_L_Regular-114"/>
      <use transform="translate(756.971765 14.943915)scale(0.996264)" xlink:href="#Nimbus_Roman_No9_L_Regular-105"/>
      <use transform="translate(784.666935 14.943915)scale(0.996264)" xlink:href="#Nimbus_Roman_No9_L_Regular-112"/>
      <use transform="translate(834.480136 14.943915)scale(0.996264)" xlink:href="#Nimbus_Roman_No9_L_Regular-116"/>
      <use transform="translate(862.175305 14.943915)scale(0.996264)" xlink:href="#Nimbus_Roman_No9_L_Regular-105"/>
      <use transform="translate(889.870475 14.943915)scale(0.996264)" xlink:href="#Nimbus_Roman_No9_L_Regular-111"/>
      <use transform="translate(939.683675 14.943915)scale(0.996264)" xlink:href="#Nimbus_Roman_No9_L_Regular-110"/>
      <use transform="translate(1014.403476 14.943915)scale(0.996264)" xlink:href="#Nimbus_Roman_No9_L_Regular-114"/>
      <use transform="translate(1047.578706 14.943915)scale(0.996264)" xlink:href="#Nimbus_Roman_No9_L_Regular-97"/>
      <use transform="translate(1091.812274 14.943915)scale(0.996264)" xlink:href="#Nimbus_Roman_No9_L_Regular-116"/>
      <use transform="translate(1119.507444 14.943915)scale(0.996264)" xlink:href="#Nimbus_Roman_No9_L_Regular-101"/>
      <use transform="translate(1188.647613 14.943915)scale(0.996264)" xlink:href="#Nimbus_Roman_No9_L_Regular_Italic-107"/>
      <use transform="translate(1232.881182 0)scale(0.737241)" xlink:href="#Nimbus_Roman_No9_L_Regular_Italic-82"/>
      <use transform="translate(1277.926526 0)scale(0.737241)" xlink:href="#Nimbus_Roman_No9_L_Regular_Italic-69"/>
     </g>
    </g>
   </g>
   <g id="matplotlib.axis_2">
    <g id="ytick_1">
     <g id="line2d_24">
      <defs>
       <path d="M 0 0 
L -3.5 0 
" id="m347eae7d2d" style="stroke:#000000;stroke-width:0.8;"/>
      </defs>
      <g>
       <use style="stroke:#000000;stroke-width:0.8;" x="63" xlink:href="#m347eae7d2d" y="441"/>
      </g>
     </g>
     <g id="text_5">
      <!-- $10^{-3}$ -->
      <g transform="translate(17.245747 447.754578)scale(0.2 -0.2)">
       <use transform="scale(0.996264)" xlink:href="#Nimbus_Roman_No9_L_Regular-49"/>
       <use transform="translate(49.8132 0)scale(0.996264)" xlink:href="#Nimbus_Roman_No9_L_Regular-48"/>
       <use transform="translate(99.626401 36.163231)scale(0.737241)" xlink:href="#CMSY10-0"/>
       <use transform="translate(156.909271 36.163231)scale(0.737241)" xlink:href="#Nimbus_Roman_No9_L_Regular-51"/>
      </g>
     </g>
    </g>
    <g id="ytick_2">
     <g id="line2d_25">
      <g>
       <use style="stroke:#000000;stroke-width:0.8;" x="63" xlink:href="#m347eae7d2d" y="300.012883"/>
      </g>
     </g>
     <g id="text_6">
      <!-- $10^{-2}$ -->
      <g transform="translate(17.245747 306.76746)scale(0.2 -0.2)">
       <use transform="scale(0.996264)" xlink:href="#Nimbus_Roman_No9_L_Regular-49"/>
       <use transform="translate(49.8132 0)scale(0.996264)" xlink:href="#Nimbus_Roman_No9_L_Regular-48"/>
       <use transform="translate(99.626401 36.163231)scale(0.737241)" xlink:href="#CMSY10-0"/>
       <use transform="translate(156.909271 36.163231)scale(0.737241)" xlink:href="#Nimbus_Roman_No9_L_Regular-50"/>
      </g>
     </g>
    </g>
    <g id="ytick_3">
     <g id="line2d_26">
      <g>
       <use style="stroke:#000000;stroke-width:0.8;" x="63" xlink:href="#m347eae7d2d" y="159.025766"/>
      </g>
     </g>
     <g id="text_7">
      <!-- $10^{-1}$ -->
      <g transform="translate(17.245747 165.780343)scale(0.2 -0.2)">
       <use transform="scale(0.996264)" xlink:href="#Nimbus_Roman_No9_L_Regular-49"/>
       <use transform="translate(49.8132 0)scale(0.996264)" xlink:href="#Nimbus_Roman_No9_L_Regular-48"/>
       <use transform="translate(99.626401 36.163231)scale(0.737241)" xlink:href="#CMSY10-0"/>
       <use transform="translate(156.909271 36.163231)scale(0.737241)" xlink:href="#Nimbus_Roman_No9_L_Regular-49"/>
      </g>
     </g>
    </g>
    <g id="ytick_4">
     <g id="line2d_27">
      <defs>
       <path d="M 0 0 
L -2 0 
" id="m090998ec05" style="stroke:#000000;stroke-width:0.6;"/>
      </defs>
      <g>
       <use style="stroke:#000000;stroke-width:0.6;" x="63" xlink:href="#m090998ec05" y="398.558649"/>
      </g>
     </g>
    </g>
    <g id="ytick_5">
     <g id="line2d_28">
      <g>
       <use style="stroke:#000000;stroke-width:0.6;" x="63" xlink:href="#m090998ec05" y="373.73205"/>
      </g>
     </g>
    </g>
    <g id="ytick_6">
     <g id="line2d_29">
      <g>
       <use style="stroke:#000000;stroke-width:0.6;" x="63" xlink:href="#m090998ec05" y="356.117298"/>
      </g>
     </g>
    </g>
    <g id="ytick_7">
     <g id="line2d_30">
      <g>
       <use style="stroke:#000000;stroke-width:0.6;" x="63" xlink:href="#m090998ec05" y="342.454234"/>
      </g>
     </g>
    </g>
    <g id="ytick_8">
     <g id="line2d_31">
      <g>
       <use style="stroke:#000000;stroke-width:0.6;" x="63" xlink:href="#m090998ec05" y="331.290699"/>
      </g>
     </g>
    </g>
    <g id="ytick_9">
     <g id="line2d_32">
      <g>
       <use style="stroke:#000000;stroke-width:0.6;" x="63" xlink:href="#m090998ec05" y="321.852064"/>
      </g>
     </g>
    </g>
    <g id="ytick_10">
     <g id="line2d_33">
      <g>
       <use style="stroke:#000000;stroke-width:0.6;" x="63" xlink:href="#m090998ec05" y="313.675946"/>
      </g>
     </g>
    </g>
    <g id="ytick_11">
     <g id="line2d_34">
      <g>
       <use style="stroke:#000000;stroke-width:0.6;" x="63" xlink:href="#m090998ec05" y="306.4641"/>
      </g>
     </g>
    </g>
    <g id="ytick_12">
     <g id="line2d_35">
      <g>
       <use style="stroke:#000000;stroke-width:0.6;" x="63" xlink:href="#m090998ec05" y="257.571532"/>
      </g>
     </g>
    </g>
    <g id="ytick_13">
     <g id="line2d_36">
      <g>
       <use style="stroke:#000000;stroke-width:0.6;" x="63" xlink:href="#m090998ec05" y="232.744933"/>
      </g>
     </g>
    </g>
    <g id="ytick_14">
     <g id="line2d_37">
      <g>
       <use style="stroke:#000000;stroke-width:0.6;" x="63" xlink:href="#m090998ec05" y="215.13018"/>
      </g>
     </g>
    </g>
    <g id="ytick_15">
     <g id="line2d_38">
      <g>
       <use style="stroke:#000000;stroke-width:0.6;" x="63" xlink:href="#m090998ec05" y="201.467117"/>
      </g>
     </g>
    </g>
    <g id="ytick_16">
     <g id="line2d_39">
      <g>
       <use style="stroke:#000000;stroke-width:0.6;" x="63" xlink:href="#m090998ec05" y="190.303581"/>
      </g>
     </g>
    </g>
    <g id="ytick_17">
     <g id="line2d_40">
      <g>
       <use style="stroke:#000000;stroke-width:0.6;" x="63" xlink:href="#m090998ec05" y="180.864947"/>
      </g>
     </g>
    </g>
    <g id="ytick_18">
     <g id="line2d_41">
      <g>
       <use style="stroke:#000000;stroke-width:0.6;" x="63" xlink:href="#m090998ec05" y="172.688829"/>
      </g>
     </g>
    </g>
    <g id="ytick_19">
     <g id="line2d_42">
      <g>
       <use style="stroke:#000000;stroke-width:0.6;" x="63" xlink:href="#m090998ec05" y="165.476983"/>
      </g>
     </g>
    </g>
    <g id="ytick_20">
     <g id="line2d_43">
      <g>
       <use style="stroke:#000000;stroke-width:0.6;" x="63" xlink:href="#m090998ec05" y="116.584415"/>
      </g>
     </g>
    </g>
    <g id="ytick_21">
     <g id="line2d_44">
      <g>
       <use style="stroke:#000000;stroke-width:0.6;" x="63" xlink:href="#m090998ec05" y="91.757816"/>
      </g>
     </g>
    </g>
    <g id="ytick_22">
     <g id="line2d_45">
      <g>
       <use style="stroke:#000000;stroke-width:0.6;" x="63" xlink:href="#m090998ec05" y="74.143063"/>
      </g>
     </g>
    </g>
    <g id="ytick_23">
     <g id="line2d_46">
      <g>
       <use style="stroke:#000000;stroke-width:0.6;" x="63" xlink:href="#m090998ec05" y="60.48"/>
      </g>
     </g>
    </g>
    <g id="text_8">
     <!-- Peak $RNA_L$ transcription rate $k_{RL}$ -->
     <defs>
      <path d="M 40.296875 65 
L 13 65 
L 13 63.390625 
C 19.203125 62.796875 20.703125 62 20.703125 59.109375 
C 20.703125 57.71875 20.296875 55.4375 19.59375 52.953125 
L 7.296875 8.96875 
C 5.5 3.1875 4.796875 2.59375 -0.796875 1.59375 
L -0.796875 0 
L 50.09375 0 
L 55.90625 17.828125 
L 53.90625 18.421875 
C 50.40625 11.25 47.703125 8.0625 43.296875 5.875 
C 39.796875 4.1875 35.703125 3.59375 27 3.59375 
C 19.40625 3.59375 16.90625 4.390625 16.90625 6.96875 
C 16.90625 7.671875 17.40625 10.0625 17.90625 11.953125 
L 30.203125 56.03125 
C 31.703125 61.109375 34.296875 62.984375 40.296875 63.390625 
z
" id="Nimbus_Roman_No9_L_Regular_Italic-76"/>
     </defs>
     <g transform="translate(8.932089 381.909187)rotate(-90)scale(0.2 -0.2)">
      <use transform="translate(0 14.943915)scale(0.996264)" xlink:href="#Nimbus_Roman_No9_L_Regular-80"/>
      <use transform="translate(55.391677 14.943915)scale(0.996264)" xlink:href="#Nimbus_Roman_No9_L_Regular-101"/>
      <use transform="translate(99.625246 14.943915)scale(0.996264)" xlink:href="#Nimbus_Roman_No9_L_Regular-97"/>
      <use transform="translate(143.858814 14.943915)scale(0.996264)" xlink:href="#Nimbus_Roman_No9_L_Regular-107"/>
      <use transform="translate(218.578615 14.943915)scale(0.996264)" xlink:href="#Nimbus_Roman_No9_L_Regular_Italic-82"/>
      <use transform="translate(279.450246 14.943915)scale(0.996264)" xlink:href="#Nimbus_Roman_No9_L_Regular_Italic-78"/>
      <use transform="translate(349.188681 14.943915)scale(0.996264)" xlink:href="#Nimbus_Roman_No9_L_Regular_Italic-65"/>
      <use transform="translate(410.060312 0)scale(0.737241)" xlink:href="#Nimbus_Roman_No9_L_Regular_Italic-76"/>
      <use transform="translate(476.675601 14.943915)scale(0.996264)" xlink:href="#Nimbus_Roman_No9_L_Regular-116"/>
      <use transform="translate(504.370771 14.943915)scale(0.996264)" xlink:href="#Nimbus_Roman_No9_L_Regular-114"/>
      <use transform="translate(537.546001 14.943915)scale(0.996264)" xlink:href="#Nimbus_Roman_No9_L_Regular-97"/>
      <use transform="translate(581.779569 14.943915)scale(0.996264)" xlink:href="#Nimbus_Roman_No9_L_Regular-110"/>
      <use transform="translate(631.59277 14.943915)scale(0.996264)" xlink:href="#Nimbus_Roman_No9_L_Regular-115"/>
      <use transform="translate(670.346476 14.943915)scale(0.996264)" xlink:href="#Nimbus_Roman_No9_L_Regular-99"/>
      <use transform="translate(714.580045 14.943915)scale(0.996264)" xlink:href="#Nimbus_Roman_No9_L_Regular-114"/>
      <use transform="translate(747.755274 14.943915)scale(0.996264)" xlink:href="#Nimbus_Roman_No9_L_Regular-105"/>
      <use transform="translate(775.450444 14.943915)scale(0.996264)" xlink:href="#Nimbus_Roman_No9_L_Regular-112"/>
      <use transform="translate(825.263645 14.943915)scale(0.996264)" xlink:href="#Nimbus_Roman_No9_L_Regular-116"/>
      <use transform="translate(852.958814 14.943915)scale(0.996264)" xlink:href="#Nimbus_Roman_No9_L_Regular-105"/>
      <use transform="translate(880.653984 14.943915)scale(0.996264)" xlink:href="#Nimbus_Roman_No9_L_Regular-111"/>
      <use transform="translate(930.467184 14.943915)scale(0.996264)" xlink:href="#Nimbus_Roman_No9_L_Regular-110"/>
      <use transform="translate(1005.186985 14.943915)scale(0.996264)" xlink:href="#Nimbus_Roman_No9_L_Regular-114"/>
      <use transform="translate(1038.362215 14.943915)scale(0.996264)" xlink:href="#Nimbus_Roman_No9_L_Regular-97"/>
      <use transform="translate(1082.595783 14.943915)scale(0.996264)" xlink:href="#Nimbus_Roman_No9_L_Regular-116"/>
      <use transform="translate(1110.290953 14.943915)scale(0.996264)" xlink:href="#Nimbus_Roman_No9_L_Regular-101"/>
      <use transform="translate(1179.431122 14.943915)scale(0.996264)" xlink:href="#Nimbus_Roman_No9_L_Regular_Italic-107"/>
      <use transform="translate(1223.664691 0)scale(0.737241)" xlink:href="#Nimbus_Roman_No9_L_Regular_Italic-82"/>
      <use transform="translate(1268.710035 0)scale(0.737241)" xlink:href="#Nimbus_Roman_No9_L_Regular_Italic-76"/>
     </g>
    </g>
   </g>
   <g id="patch_3">
    <path d="M 63 441 
L 63 60.48 
" style="fill:none;stroke:#000000;stroke-linecap:square;stroke-linejoin:miter;stroke-width:0.8;"/>
   </g>
   <g id="patch_4">
    <path d="M 375.48 441 
L 375.48 60.48 
" style="fill:none;stroke:#000000;stroke-linecap:square;stroke-linejoin:miter;stroke-width:0.8;"/>
   </g>
   <g id="patch_5">
    <path d="M 63 441 
L 375.48 441 
" style="fill:none;stroke:#000000;stroke-linecap:square;stroke-linejoin:miter;stroke-width:0.8;"/>
   </g>
   <g id="patch_6">
    <path d="M 63 60.48 
L 375.48 60.48 
" style="fill:none;stroke:#000000;stroke-linecap:square;stroke-linejoin:miter;stroke-width:0.8;"/>
   </g>
  </g>
  <g id="axes_2">
   <g id="patch_7">
    <path clip-path="url(#pa2343f28b4)" d="M 395.01 441 
L 395.01 427.878621 
L 395.01 73.601379 
L 395.01 60.48 
L 414.036 60.48 
L 414.036 73.601379 
L 414.036 427.878621 
L 414.036 441 
z
" style="fill:#ffffff;stroke:#ffffff;stroke-linejoin:miter;stroke-width:0.01;"/>
   </g>
   <g id="QuadMesh_1">
    <path clip-path="url(#pa2343f28b4)" d="M 395.01 441 
L 414.036 441 
L 414.036 427.878621 
L 395.01 427.878621 
L 395.01 441 
" style="fill:#46075a;"/>
    <path clip-path="url(#pa2343f28b4)" d="M 395.01 427.878621 
L 414.036 427.878621 
L 414.036 414.757241 
L 395.01 414.757241 
L 395.01 427.878621 
" style="fill:#481467;"/>
    <path clip-path="url(#pa2343f28b4)" d="M 395.01 414.757241 
L 414.036 414.757241 
L 414.036 401.635862 
L 395.01 401.635862 
L 395.01 414.757241 
" style="fill:#482071;"/>
    <path clip-path="url(#pa2343f28b4)" d="M 395.01 401.635862 
L 414.036 401.635862 
L 414.036 388.514483 
L 395.01 388.514483 
L 395.01 401.635862 
" style="fill:#472a7a;"/>
    <path clip-path="url(#pa2343f28b4)" d="M 395.01 388.514483 
L 414.036 388.514483 
L 414.036 375.393103 
L 395.01 375.393103 
L 395.01 388.514483 
" style="fill:#453581;"/>
    <path clip-path="url(#pa2343f28b4)" d="M 395.01 375.393103 
L 414.036 375.393103 
L 414.036 362.271724 
L 395.01 362.271724 
L 395.01 375.393103 
" style="fill:#424086;"/>
    <path clip-path="url(#pa2343f28b4)" d="M 395.01 362.271724 
L 414.036 362.271724 
L 414.036 349.150345 
L 395.01 349.150345 
L 395.01 362.271724 
" style="fill:#3e4a89;"/>
    <path clip-path="url(#pa2343f28b4)" d="M 395.01 349.150345 
L 414.036 349.150345 
L 414.036 336.028966 
L 395.01 336.028966 
L 395.01 349.150345 
" style="fill:#3a548c;"/>
    <path clip-path="url(#pa2343f28b4)" d="M 395.01 336.028966 
L 414.036 336.028966 
L 414.036 322.907586 
L 395.01 322.907586 
L 395.01 336.028966 
" style="fill:#355e8d;"/>
    <path clip-path="url(#pa2343f28b4)" d="M 395.01 322.907586 
L 414.036 322.907586 
L 414.036 309.786207 
L 395.01 309.786207 
L 395.01 322.907586 
" style="fill:#31668e;"/>
    <path clip-path="url(#pa2343f28b4)" d="M 395.01 309.786207 
L 414.036 309.786207 
L 414.036 296.664828 
L 395.01 296.664828 
L 395.01 309.786207 
" style="fill:#2e6f8e;"/>
    <path clip-path="url(#pa2343f28b4)" d="M 395.01 296.664828 
L 414.036 296.664828 
L 414.036 283.543448 
L 395.01 283.543448 
L 395.01 296.664828 
" style="fill:#2a778e;"/>
    <path clip-path="url(#pa2343f28b4)" d="M 395.01 283.543448 
L 414.036 283.543448 
L 414.036 270.422069 
L 395.01 270.422069 
L 395.01 283.543448 
" style="fill:#27808e;"/>
    <path clip-path="url(#pa2343f28b4)" d="M 395.01 270.422069 
L 414.036 270.422069 
L 414.036 257.30069 
L 395.01 257.30069 
L 395.01 270.422069 
" style="fill:#23888e;"/>
    <path clip-path="url(#pa2343f28b4)" d="M 395.01 257.30069 
L 414.036 257.30069 
L 414.036 244.17931 
L 395.01 244.17931 
L 395.01 257.30069 
" style="fill:#21918c;"/>
    <path clip-path="url(#pa2343f28b4)" d="M 395.01 244.17931 
L 414.036 244.17931 
L 414.036 231.057931 
L 395.01 231.057931 
L 395.01 244.17931 
" style="fill:#1f988b;"/>
    <path clip-path="url(#pa2343f28b4)" d="M 395.01 231.057931 
L 414.036 231.057931 
L 414.036 217.936552 
L 395.01 217.936552 
L 395.01 231.057931 
" style="fill:#1fa188;"/>
    <path clip-path="url(#pa2343f28b4)" d="M 395.01 217.936552 
L 414.036 217.936552 
L 414.036 204.815172 
L 395.01 204.815172 
L 395.01 217.936552 
" style="fill:#23a983;"/>
    <path clip-path="url(#pa2343f28b4)" d="M 395.01 204.815172 
L 414.036 204.815172 
L 414.036 191.693793 
L 395.01 191.693793 
L 395.01 204.815172 
" style="fill:#2cb17e;"/>
    <path clip-path="url(#pa2343f28b4)" d="M 395.01 191.693793 
L 414.036 191.693793 
L 414.036 178.572414 
L 395.01 178.572414 
L 395.01 191.693793 
" style="fill:#38b977;"/>
    <path clip-path="url(#pa2343f28b4)" d="M 395.01 178.572414 
L 414.036 178.572414 
L 414.036 165.451034 
L 395.01 165.451034 
L 395.01 178.572414 
" style="fill:#46c06f;"/>
    <path clip-path="url(#pa2343f28b4)" d="M 395.01 165.451034 
L 414.036 165.451034 
L 414.036 152.329655 
L 395.01 152.329655 
L 395.01 165.451034 
" style="fill:#58c765;"/>
    <path clip-path="url(#pa2343f28b4)" d="M 395.01 152.329655 
L 414.036 152.329655 
L 414.036 139.208276 
L 395.01 139.208276 
L 395.01 152.329655 
" style="fill:#6ccd5a;"/>
    <path clip-path="url(#pa2343f28b4)" d="M 395.01 139.208276 
L 414.036 139.208276 
L 414.036 126.086897 
L 395.01 126.086897 
L 395.01 139.208276 
" style="fill:#81d34d;"/>
    <path clip-path="url(#pa2343f28b4)" d="M 395.01 126.086897 
L 414.036 126.086897 
L 414.036 112.965517 
L 395.01 112.965517 
L 395.01 126.086897 
" style="fill:#98d83e;"/>
    <path clip-path="url(#pa2343f28b4)" d="M 395.01 112.965517 
L 414.036 112.965517 
L 414.036 99.844138 
L 395.01 99.844138 
L 395.01 112.965517 
" style="fill:#b0dd2f;"/>
    <path clip-path="url(#pa2343f28b4)" d="M 395.01 99.844138 
L 414.036 99.844138 
L 414.036 86.722759 
L 395.01 86.722759 
L 395.01 99.844138 
" style="fill:#c5e021;"/>
    <path clip-path="url(#pa2343f28b4)" d="M 395.01 86.722759 
L 414.036 86.722759 
L 414.036 73.601379 
L 395.01 73.601379 
L 395.01 86.722759 
" style="fill:#dde318;"/>
    <path clip-path="url(#pa2343f28b4)" d="M 395.01 73.601379 
L 414.036 73.601379 
L 414.036 60.48 
L 395.01 60.48 
L 395.01 73.601379 
" style="fill:#f4e61e;"/>
   </g>
   <g id="matplotlib.axis_3"/>
   <g id="matplotlib.axis_4">
    <g id="ytick_24">
     <g id="line2d_47">
      <defs>
       <path d="M 0 0 
L 3.5 0 
" id="m065f52bcc4" style="stroke:#000000;stroke-width:0.8;"/>
      </defs>
      <g>
       <use style="stroke:#000000;stroke-width:0.8;" x="414.036" xlink:href="#m065f52bcc4" y="441"/>
      </g>
     </g>
     <g id="text_9">
      <!-- $0$ -->
      <g transform="translate(421.036 447.754578)scale(0.2 -0.2)">
       <use transform="scale(0.996264)" xlink:href="#Nimbus_Roman_No9_L_Regular-48"/>
      </g>
     </g>
    </g>
    <g id="ytick_25">
     <g id="line2d_48">
      <g>
       <use style="stroke:#000000;stroke-width:0.8;" x="414.036" xlink:href="#m065f52bcc4" y="401.635862"/>
      </g>
     </g>
     <g id="text_10">
      <!-- $3$ -->
      <g transform="translate(421.036 408.39044)scale(0.2 -0.2)">
       <use transform="scale(0.996264)" xlink:href="#Nimbus_Roman_No9_L_Regular-51"/>
      </g>
     </g>
    </g>
    <g id="ytick_26">
     <g id="line2d_49">
      <g>
       <use style="stroke:#000000;stroke-width:0.8;" x="414.036" xlink:href="#m065f52bcc4" y="362.271724"/>
      </g>
     </g>
     <g id="text_11">
      <!-- $6$ -->
      <defs>
       <path d="M 44.59375 68.59375 
C 33.203125 67.59375 27.40625 65.6875 20.09375 60.59375 
C 9.296875 52.890625 3.40625 41.484375 3.40625 28.140625 
C 3.40625 19.5 6.09375 10.75 10.40625 5.765625 
C 14.203125 1.390625 19.59375 -1 25.796875 -1 
C 38.203125 -1 46.796875 8.453125 46.796875 22.1875 
C 46.796875 34.90625 39.5 43 28 43 
C 23.59375 43 21.5 42.296875 15.203125 38.484375 
C 17.90625 53.59375 29.09375 64.390625 44.796875 67 
z
M 24.203125 38.390625 
C 32.796875 38.390625 37.796875 31.234375 37.796875 18.796875 
C 37.796875 7.859375 33.90625 1.796875 26.90625 1.796875 
C 18.09375 1.796875 12.703125 11.140625 12.703125 26.5625 
C 12.703125 31.625 13.5 34.421875 15.5 35.90625 
C 17.59375 37.5 20.703125 38.390625 24.203125 38.390625 
z
" id="Nimbus_Roman_No9_L_Regular-54"/>
      </defs>
      <g transform="translate(421.036 369.026302)scale(0.2 -0.2)">
       <use transform="scale(0.996264)" xlink:href="#Nimbus_Roman_No9_L_Regular-54"/>
      </g>
     </g>
    </g>
    <g id="ytick_27">
     <g id="line2d_50">
      <g>
       <use style="stroke:#000000;stroke-width:0.8;" x="414.036" xlink:href="#m065f52bcc4" y="322.907586"/>
      </g>
     </g>
     <g id="text_12">
      <!-- $9$ -->
      <defs>
       <path d="M 5.90625 -1.90625 
C 17.09375 -0.609375 22.59375 1.296875 29.40625 6.1875 
C 39.796875 13.796875 45.90625 26.1875 45.90625 39.71875 
C 45.90625 56.265625 36.703125 68 23.796875 68 
C 11.90625 68 3 57.875 3 44.328125 
C 3 32.109375 10.203125 24 21 24 
C 26.5 24 30.703125 25.59375 36 29.703125 
C 31.90625 13.390625 20.796875 2.6875 5.59375 0.09375 
z
M 36.203125 35.8125 
C 36.203125 33.8125 35.796875 32.90625 34.703125 32 
C 31.90625 29.59375 28.203125 28.296875 24.59375 28.296875 
C 17 28.296875 12.203125 35.8125 12.203125 47.75 
C 12.203125 53.453125 13.796875 59.46875 15.90625 62.078125 
C 17.59375 64.09375 20.09375 65.1875 23 65.1875 
C 31.703125 65.1875 36.203125 56.5625 36.203125 39.71875 
z
" id="Nimbus_Roman_No9_L_Regular-57"/>
      </defs>
      <g transform="translate(421.036 329.662164)scale(0.2 -0.2)">
       <use transform="scale(0.996264)" xlink:href="#Nimbus_Roman_No9_L_Regular-57"/>
      </g>
     </g>
    </g>
    <g id="ytick_28">
     <g id="line2d_51">
      <g>
       <use style="stroke:#000000;stroke-width:0.8;" x="414.036" xlink:href="#m065f52bcc4" y="283.543448"/>
      </g>
     </g>
     <g id="text_13">
      <!-- $12$ -->
      <g transform="translate(421.036 290.298026)scale(0.2 -0.2)">
       <use transform="scale(0.996264)" xlink:href="#Nimbus_Roman_No9_L_Regular-49"/>
       <use transform="translate(49.8132 0)scale(0.996264)" xlink:href="#Nimbus_Roman_No9_L_Regular-50"/>
      </g>
     </g>
    </g>
    <g id="ytick_29">
     <g id="line2d_52">
      <g>
       <use style="stroke:#000000;stroke-width:0.8;" x="414.036" xlink:href="#m065f52bcc4" y="244.17931"/>
      </g>
     </g>
     <g id="text_14">
      <!-- $15$ -->
      <defs>
       <path d="M 18.09375 58.09375 
L 37.703125 58.09375 
C 39.296875 58.09375 39.703125 58.296875 40 58.984375 
L 43.796875 67.890625 
L 42.90625 68.59375 
C 41.40625 66.5 40.40625 66 38.296875 66 
L 17.40625 66 
L 6.5 42.453125 
C 6.40625 42.265625 6.40625 42.15625 6.40625 41.96875 
C 6.40625 41.46875 6.796875 41.171875 7.59375 41.171875 
C 10.796875 41.171875 14.796875 40.484375 18.90625 39.1875 
C 30.40625 35.53125 35.703125 29.40625 35.703125 19.609375 
C 35.703125 10.109375 29.59375 2.6875 21.796875 2.6875 
C 19.796875 2.6875 18.09375 3.390625 15.09375 5.5625 
C 11.90625 7.84375 9.59375 8.828125 7.5 8.828125 
C 4.59375 8.828125 3.203125 7.640625 3.203125 5.171875 
C 3.203125 1.390625 7.90625 -1 15.40625 -1 
C 23.796875 -1 31 1.6875 36 6.75 
C 40.59375 11.203125 42.703125 16.84375 42.703125 24.359375 
C 42.703125 31.484375 40.796875 36.03125 35.796875 40.96875 
C 31.40625 45.328125 25.703125 47.609375 13.90625 49.6875 
z
" id="Nimbus_Roman_No9_L_Regular-53"/>
      </defs>
      <g transform="translate(421.036 250.933888)scale(0.2 -0.2)">
       <use transform="scale(0.996264)" xlink:href="#Nimbus_Roman_No9_L_Regular-49"/>
       <use transform="translate(49.8132 0)scale(0.996264)" xlink:href="#Nimbus_Roman_No9_L_Regular-53"/>
      </g>
     </g>
    </g>
    <g id="ytick_30">
     <g id="line2d_53">
      <g>
       <use style="stroke:#000000;stroke-width:0.8;" x="414.036" xlink:href="#m065f52bcc4" y="204.815172"/>
      </g>
     </g>
     <g id="text_15">
      <!-- $18$ -->
      <defs>
       <path d="M 29 37.5 
C 38.90625 42.796875 42.40625 47 42.40625 53.796875 
C 42.40625 62 35.203125 68 25.203125 68 
C 14.296875 68 6.203125 61.296875 6.203125 52.203125 
C 6.203125 45.6875 8.09375 42.796875 18.59375 33.59375 
C 7.796875 25.390625 5.59375 22.296875 5.59375 15.5 
C 5.59375 5.796875 13.5 -1 24.796875 -1 
C 36.796875 -1 44.5 5.59375 44.5 15.890625 
C 44.5 23.59375 41.09375 28.5 29 37.5 
z
M 27.203125 27.1875 
C 34.5 22 36.90625 18.390625 36.90625 12.796875 
C 36.90625 6.296875 32.40625 1.796875 25.90625 1.796875 
C 18.296875 1.796875 13.203125 7.59375 13.203125 16.296875 
C 13.203125 22.6875 15.40625 26.890625 21.203125 31.59375 
z
M 26.09375 39.296875 
C 17.203125 45.09375 13.59375 49.6875 13.59375 55.296875 
C 13.59375 61.09375 18.09375 65.1875 24.40625 65.1875 
C 31.203125 65.1875 35.5 60.796875 35.5 53.890625 
C 35.5 48.1875 32.703125 43.6875 27 39.890625 
C 26.5 39.59375 26.5 39.59375 26.09375 39.296875 
z
" id="Nimbus_Roman_No9_L_Regular-56"/>
      </defs>
      <g transform="translate(421.036 211.56975)scale(0.2 -0.2)">
       <use transform="scale(0.996264)" xlink:href="#Nimbus_Roman_No9_L_Regular-49"/>
       <use transform="translate(49.8132 0)scale(0.996264)" xlink:href="#Nimbus_Roman_No9_L_Regular-56"/>
      </g>
     </g>
    </g>
    <g id="ytick_31">
     <g id="line2d_54">
      <g>
       <use style="stroke:#000000;stroke-width:0.8;" x="414.036" xlink:href="#m065f52bcc4" y="165.451034"/>
      </g>
     </g>
     <g id="text_16">
      <!-- $21$ -->
      <g transform="translate(421.036 172.205612)scale(0.2 -0.2)">
       <use transform="scale(0.996264)" xlink:href="#Nimbus_Roman_No9_L_Regular-50"/>
       <use transform="translate(49.8132 0)scale(0.996264)" xlink:href="#Nimbus_Roman_No9_L_Regular-49"/>
      </g>
     </g>
    </g>
    <g id="ytick_32">
     <g id="line2d_55">
      <g>
       <use style="stroke:#000000;stroke-width:0.8;" x="414.036" xlink:href="#m065f52bcc4" y="126.086897"/>
      </g>
     </g>
     <g id="text_17">
      <!-- $24$ -->
      <defs>
       <path d="M 47.203125 23.390625 
L 37 23.390625 
L 37 68 
L 32.59375 68 
L 1.203125 23.390625 
L 1.203125 17 
L 29.296875 17 
L 29.296875 0 
L 37 0 
L 37 17 
L 47.203125 17 
z
M 29.203125 23.390625 
L 5.203125 23.390625 
L 29.203125 57.765625 
z
" id="Nimbus_Roman_No9_L_Regular-52"/>
      </defs>
      <g transform="translate(421.036 132.841474)scale(0.2 -0.2)">
       <use transform="scale(0.996264)" xlink:href="#Nimbus_Roman_No9_L_Regular-50"/>
       <use transform="translate(49.8132 0)scale(0.996264)" xlink:href="#Nimbus_Roman_No9_L_Regular-52"/>
      </g>
     </g>
    </g>
    <g id="ytick_33">
     <g id="line2d_56">
      <g>
       <use style="stroke:#000000;stroke-width:0.8;" x="414.036" xlink:href="#m065f52bcc4" y="86.722759"/>
      </g>
     </g>
     <g id="text_18">
      <!-- $27$ -->
      <defs>
       <path d="M 44.90625 66 
L 7.90625 66 
L 2 51.296875 
L 3.703125 50.5 
C 8 57.296875 9.796875 58.59375 15.296875 58.59375 
L 37 58.59375 
L 17.203125 -1 
L 23.703125 -1 
L 44.90625 64.390625 
z
" id="Nimbus_Roman_No9_L_Regular-55"/>
      </defs>
      <g transform="translate(421.036 93.477336)scale(0.2 -0.2)">
       <use transform="scale(0.996264)" xlink:href="#Nimbus_Roman_No9_L_Regular-50"/>
       <use transform="translate(49.8132 0)scale(0.996264)" xlink:href="#Nimbus_Roman_No9_L_Regular-55"/>
      </g>
     </g>
    </g>
   </g>
   <g id="patch_8">
    <path d="M 395.01 441 
L 395.01 427.878621 
L 395.01 73.601379 
L 395.01 60.48 
L 414.036 60.48 
L 414.036 73.601379 
L 414.036 427.878621 
L 414.036 441 
z
" style="fill:none;stroke:#000000;stroke-linejoin:miter;stroke-width:0.8;"/>
   </g>
  </g>
 </g>
 <defs>
  <clipPath id="pf8c33429e0">
   <rect height="380.52" width="312.48" x="63" y="60.48"/>
  </clipPath>
  <clipPath id="pa2343f28b4">
   <rect height="380.52" width="19.026" x="395.01" y="60.48"/>
  </clipPath>
 </defs>
</svg>
