<?xml version="1.0" encoding="utf-8" standalone="no"?>
<!DOCTYPE svg PUBLIC "-//W3C//DTD SVG 1.1//EN"
  "http://www.w3.org/Graphics/SVG/1.1/DTD/svg11.dtd">
<!-- Created with matplotlib (http://matplotlib.org/) -->
<svg height="432pt" version="1.1" viewBox="0 0 432 432" width="432pt" xmlns="http://www.w3.org/2000/svg" xmlns:xlink="http://www.w3.org/1999/xlink">
 <defs>
  <style type="text/css">
*{stroke-linecap:butt;stroke-linejoin:round;}
  </style>
 </defs>
 <g id="figure_1">
  <g id="patch_1">
   <path d="M 0 432 
L 432 432 
L 432 0 
L 0 0 
z
" style="fill:#ffffff;"/>
  </g>
  <g id="axes_1">
   <g id="patch_2">
    <path d="M 74.008257 361.796704 
L 406.9 361.796704 
L 406.9 25.1 
L 74.008257 25.1 
z
" style="fill:#ffffff;"/>
   </g>
   <g id="matplotlib.axis_1">
    <g id="xtick_1">
     <g id="line2d_1">
      <defs>
       <path d="M 0 0 
L 0 3.5 
" id="m046399c102" style="stroke:#000000;stroke-width:0.8;"/>
      </defs>
      <g>
       <use style="stroke:#000000;stroke-width:0.8;" x="190.015985" xlink:href="#m046399c102" y="361.796704"/>
      </g>
     </g>
     <g id="text_1">
      <!-- $10^{-3}$ -->
      <defs>
       <path d="M 26.59375 63.796875 
C 26.59375 65.890625 26.5 66 25.09375 66 
C 21.203125 61.359375 15.296875 59.890625 9.703125 59.6875 
C 9.40625 59.6875 8.90625 59.6875 8.796875 59.5 
C 8.703125 59.296875 8.703125 59.09375 8.703125 57 
C 11.796875 57 17 57.59375 21 59.984375 
L 21 7.296875 
C 21 3.796875 20.796875 2.59375 12.203125 2.59375 
L 9.203125 2.59375 
L 9.203125 0 
C 14 0.09375 19 0.1875 23.796875 0.1875 
C 28.59375 0.1875 33.59375 0.09375 38.40625 0 
L 38.40625 2.59375 
L 35.40625 2.59375 
C 26.796875 2.59375 26.59375 3.6875 26.59375 7.296875 
z
" id="CMR17-49"/>
       <path d="M 42 31.84375 
C 42 37.96875 41.90625 48.421875 37.703125 56.453125 
C 34 63.484375 28.09375 66 22.90625 66 
C 18.09375 66 12 63.78125 8.203125 56.5625 
C 4.203125 49.015625 3.796875 39.671875 3.796875 31.84375 
C 3.796875 26.109375 3.90625 17.375 7 9.734375 
C 11.296875 -0.609375 19 -2 22.90625 -2 
C 27.5 -2 34.5 -0.109375 38.59375 9.4375 
C 41.59375 16.375 42 24.5 42 31.84375 
z
M 22.90625 -0.40625 
C 16.5 -0.40625 12.703125 5.125 11.296875 12.75 
C 10.203125 18.6875 10.203125 27.328125 10.203125 32.953125 
C 10.203125 40.6875 10.203125 47.109375 11.5 53.234375 
C 13.40625 61.78125 19 64.390625 22.90625 64.390625 
C 27 64.390625 32.296875 61.671875 34.203125 53.4375 
C 35.5 47.71875 35.59375 40.984375 35.59375 32.953125 
C 35.59375 26.421875 35.59375 18.375 34.40625 12.453125 
C 32.296875 1.5 26.40625 -0.40625 22.90625 -0.40625 
z
" id="CMR17-48"/>
       <path d="M 65.90625 23 
C 67.59375 23 69.40625 23 69.40625 25 
C 69.40625 27 67.59375 27 65.90625 27 
L 11.796875 27 
C 10.09375 27 8.296875 27 8.296875 25 
C 8.296875 23 10.09375 23 11.796875 23 
z
" id="CMSY10-0"/>
       <path d="M 22.09375 34 
C 31 34 34.90625 26.140625 34.90625 17.09375 
C 34.90625 5.03125 28.5 0.390625 22.703125 0.390625 
C 17.40625 0.390625 8.796875 3.015625 6.09375 10.796875 
C 6.59375 10.59375 7.09375 10.59375 7.59375 10.59375 
C 10 10.59375 11.796875 12.1875 11.796875 14.796875 
C 11.796875 17.6875 9.59375 19 7.59375 19 
C 5.90625 19 3.296875 18.1875 3.296875 14.484375 
C 3.296875 5.234375 12.296875 -2 22.90625 -2 
C 34 -2 42.5 6.75 42.5 16.984375 
C 42.5 26.84375 34.5 34 25 35.09375 
C 32.59375 36.671875 39.90625 43.375 39.90625 52.390625 
C 39.90625 60.25 32 66 23 66 
C 13.90625 66 5.90625 60.34375 5.90625 52.296875 
C 5.90625 48.796875 8.5 48.1875 9.796875 48.1875 
C 11.90625 48.1875 13.703125 49.484375 13.703125 52.09375 
C 13.703125 54.6875 11.90625 56 9.796875 56 
C 9.40625 56 8.90625 56 8.5 55.796875 
C 11.40625 62.484375 19.296875 63.6875 22.796875 63.6875 
C 26.296875 63.6875 32.90625 61.96875 32.90625 52.296875 
C 32.90625 49.484375 32.5 44.546875 29.09375 40.21875 
C 26.09375 36.390625 22.703125 36.1875 19.40625 35.890625 
C 18.90625 35.890625 16.59375 35.6875 16.203125 35.6875 
C 15.5 35.59375 15.09375 35.5 15.09375 34.796875 
C 15.09375 34.09375 15.203125 34 17.203125 34 
z
" id="CMR17-51"/>
      </defs>
      <g transform="translate(172.039566 382.633701)scale(0.2 -0.2)">
       <use transform="scale(0.996264)" xlink:href="#CMR17-49"/>
       <use transform="translate(45.690477 0)scale(0.996264)" xlink:href="#CMR17-48"/>
       <use transform="translate(91.380954 36.153639)scale(0.697382)" xlink:href="#CMSY10-0"/>
       <use transform="translate(145.621947 36.153639)scale(0.697382)" xlink:href="#CMR17-51"/>
      </g>
     </g>
    </g>
    <g id="xtick_2">
     <g id="line2d_2">
      <g>
       <use style="stroke:#000000;stroke-width:0.8;" x="334.337323" xlink:href="#m046399c102" y="361.796704"/>
      </g>
     </g>
     <g id="text_2">
      <!-- $10^{-2}$ -->
      <defs>
       <path d="M 41.703125 15.46875 
L 39.90625 15.46875 
C 38.90625 8.390625 38.09375 7.1875 37.703125 6.59375 
C 37.203125 5.796875 30 5.796875 28.59375 5.796875 
L 9.40625 5.796875 
C 13 9.6875 20 16.765625 28.5 24.9375 
C 34.59375 30.71875 41.703125 37.5 41.703125 47.390625 
C 41.703125 59.1875 32.296875 66 21.796875 66 
C 10.796875 66 4.09375 56.296875 4.09375 47.296875 
C 4.09375 43.390625 7 42.890625 8.203125 42.890625 
C 9.203125 42.890625 12.203125 43.484375 12.203125 46.984375 
C 12.203125 50.09375 9.59375 51 8.203125 51 
C 7.59375 51 7 50.890625 6.59375 50.6875 
C 8.5 59.1875 14.296875 63.390625 20.40625 63.390625 
C 29.09375 63.390625 34.796875 56.5 34.796875 47.390625 
C 34.796875 38.703125 29.703125 31.21875 24 24.734375 
L 4.09375 2.296875 
L 4.09375 0 
L 39.296875 0 
z
" id="CMR17-50"/>
      </defs>
      <g transform="translate(316.360904 382.633701)scale(0.2 -0.2)">
       <use transform="scale(0.996264)" xlink:href="#CMR17-49"/>
       <use transform="translate(45.690477 0)scale(0.996264)" xlink:href="#CMR17-48"/>
       <use transform="translate(91.380954 36.153639)scale(0.697382)" xlink:href="#CMSY10-0"/>
       <use transform="translate(145.621947 36.153639)scale(0.697382)" xlink:href="#CMR17-50"/>
      </g>
     </g>
    </g>
    <g id="xtick_3">
     <g id="line2d_3">
      <defs>
       <path d="M 0 0 
L 0 2 
" id="m668f096ff2" style="stroke:#000000;stroke-width:0.6;"/>
      </defs>
      <g>
       <use style="stroke:#000000;stroke-width:0.6;" x="89.1397" xlink:href="#m668f096ff2" y="361.796704"/>
      </g>
     </g>
    </g>
    <g id="xtick_4">
     <g id="line2d_4">
      <g>
       <use style="stroke:#000000;stroke-width:0.6;" x="114.553426" xlink:href="#m668f096ff2" y="361.796704"/>
      </g>
     </g>
    </g>
    <g id="xtick_5">
     <g id="line2d_5">
      <g>
       <use style="stroke:#000000;stroke-width:0.6;" x="132.584751" xlink:href="#m668f096ff2" y="361.796704"/>
      </g>
     </g>
    </g>
    <g id="xtick_6">
     <g id="line2d_6">
      <g>
       <use style="stroke:#000000;stroke-width:0.6;" x="146.570934" xlink:href="#m668f096ff2" y="361.796704"/>
      </g>
     </g>
    </g>
    <g id="xtick_7">
     <g id="line2d_7">
      <g>
       <use style="stroke:#000000;stroke-width:0.6;" x="157.998477" xlink:href="#m668f096ff2" y="361.796704"/>
      </g>
     </g>
    </g>
    <g id="xtick_8">
     <g id="line2d_8">
      <g>
       <use style="stroke:#000000;stroke-width:0.6;" x="167.660327" xlink:href="#m668f096ff2" y="361.796704"/>
      </g>
     </g>
    </g>
    <g id="xtick_9">
     <g id="line2d_9">
      <g>
       <use style="stroke:#000000;stroke-width:0.6;" x="176.029803" xlink:href="#m668f096ff2" y="361.796704"/>
      </g>
     </g>
    </g>
    <g id="xtick_10">
     <g id="line2d_10">
      <g>
       <use style="stroke:#000000;stroke-width:0.6;" x="183.412203" xlink:href="#m668f096ff2" y="361.796704"/>
      </g>
     </g>
    </g>
    <g id="xtick_11">
     <g id="line2d_11">
      <g>
       <use style="stroke:#000000;stroke-width:0.6;" x="233.461037" xlink:href="#m668f096ff2" y="361.796704"/>
      </g>
     </g>
    </g>
    <g id="xtick_12">
     <g id="line2d_12">
      <g>
       <use style="stroke:#000000;stroke-width:0.6;" x="258.874763" xlink:href="#m668f096ff2" y="361.796704"/>
      </g>
     </g>
    </g>
    <g id="xtick_13">
     <g id="line2d_13">
      <g>
       <use style="stroke:#000000;stroke-width:0.6;" x="276.906089" xlink:href="#m668f096ff2" y="361.796704"/>
      </g>
     </g>
    </g>
    <g id="xtick_14">
     <g id="line2d_14">
      <g>
       <use style="stroke:#000000;stroke-width:0.6;" x="290.892271" xlink:href="#m668f096ff2" y="361.796704"/>
      </g>
     </g>
    </g>
    <g id="xtick_15">
     <g id="line2d_15">
      <g>
       <use style="stroke:#000000;stroke-width:0.6;" x="302.319815" xlink:href="#m668f096ff2" y="361.796704"/>
      </g>
     </g>
    </g>
    <g id="xtick_16">
     <g id="line2d_16">
      <g>
       <use style="stroke:#000000;stroke-width:0.6;" x="311.981665" xlink:href="#m668f096ff2" y="361.796704"/>
      </g>
     </g>
    </g>
    <g id="xtick_17">
     <g id="line2d_17">
      <g>
       <use style="stroke:#000000;stroke-width:0.6;" x="320.35114" xlink:href="#m668f096ff2" y="361.796704"/>
      </g>
     </g>
    </g>
    <g id="xtick_18">
     <g id="line2d_18">
      <g>
       <use style="stroke:#000000;stroke-width:0.6;" x="327.733541" xlink:href="#m668f096ff2" y="361.796704"/>
      </g>
     </g>
    </g>
    <g id="xtick_19">
     <g id="line2d_19">
      <g>
       <use style="stroke:#000000;stroke-width:0.6;" x="377.782374" xlink:href="#m668f096ff2" y="361.796704"/>
      </g>
     </g>
    </g>
    <g id="xtick_20">
     <g id="line2d_20">
      <g>
       <use style="stroke:#000000;stroke-width:0.6;" x="403.1961" xlink:href="#m668f096ff2" y="361.796704"/>
      </g>
     </g>
    </g>
    <g id="text_3">
     <!-- lncRNA transcription rate ($k_{R}$) -->
     <defs>
      <path d="M 14.796875 69 
L 7.40625 69 
L 7.40625 0 
L 14.796875 0 
z
" id="CMSS17-108"/>
      <path d="M 40.90625 29.34375 
C 40.90625 35.671875 39.40625 44 28.09375 44 
C 21.703125 44 17.5 40.6875 14.703125 37.28125 
L 14.703125 43.484375 
L 7.40625 43.484375 
L 7.40625 0 
L 15 0 
L 15 24.3125 
C 15 30.65625 17.40625 37.890625 24.203125 37.890625 
C 33 37.890625 33.296875 31.953125 33.296875 28.53125 
L 33.296875 0 
L 40.90625 0 
z
" id="CMSS17-110"/>
      <path d="M 38.5 39.6875 
C 38.5 40.390625 33.90625 42.390625 32.703125 42.796875 
C 29.40625 44 25.203125 44 24.09375 44 
C 11.09375 44 3.296875 32.6875 3.296875 21.296875 
C 3.296875 9.296875 12 -1 23.703125 -1 
C 30.40625 -1 35.203125 1.1875 39.09375 3.796875 
L 38.5 10.390625 
C 34.203125 7.09375 29.203125 5.296875 23.796875 5.296875 
C 16 5.296875 10.90625 12.09375 10.90625 21.390625 
C 10.90625 28.59375 14.203125 37.6875 24.203125 37.6875 
C 29.703125 37.6875 32.796875 36.59375 37.40625 33.484375 
z
" id="CMSS17-99"/>
      <path d="M 39.40625 32.796875 
L 39.59375 32.890625 
C 55.203125 38.28125 55.296875 48.828125 55.296875 50.6875 
C 55.296875 59.96875 45.703125 69 31.296875 69 
L 8.90625 69 
L 8.90625 0 
L 17.09375 0 
L 17.09375 31.890625 
L 31.796875 31.890625 
L 49.5 0 
L 57.90625 0 
z
M 17.09375 38 
L 17.09375 63.390625 
L 30.203125 63.390625 
C 42.90625 63.390625 47.40625 56.359375 47.40625 50.6875 
C 47.40625 45.421875 43.40625 38 30.203125 38 
z
" id="CMSS17-82"/>
      <path d="M 22.90625 65.296875 
L 21.09375 69 
L 8.796875 69 
L 8.796875 0 
L 16.59375 0 
L 16.59375 61.328125 
L 16.703125 61.421875 
C 17.40625 59.640625 17.796875 58.734375 21.90625 49.890625 
L 43.296875 3.6875 
L 45.09375 0 
L 57.40625 0 
L 57.40625 69 
L 49.59375 69 
L 49.59375 7.65625 
L 49.5 7.5625 
C 48.796875 9.34375 48.40625 10.234375 44.296875 19.09375 
z
" id="CMSS17-78"/>
      <path d="M 35.5 69 
L 26.90625 69 
L 2.59375 0 
L 10.203125 0 
L 17.203125 20 
L 44 20 
L 51.09375 0 
L 59.796875 0 
z
M 42.09375 25.59375 
L 19.09375 25.59375 
C 23.90625 39.53125 29.90625 56.84375 30.59375 61.3125 
L 30.703125 61.3125 
C 31.40625 57.234375 33.40625 51.265625 35.09375 46.1875 
z
" id="CMSS17-65"/>
      <path d="M 16.703125 37.1875 
L 29.703125 37.1875 
L 29.703125 43 
L 16.703125 43 
L 16.703125 55 
L 9.59375 55 
L 9.59375 43 
L 1.703125 43 
L 1.703125 37.1875 
L 9.40625 37.1875 
L 9.40625 11.734375 
C 9.40625 6 10.703125 -1 17.296875 -1 
C 22.296875 -1 26.90625 0.390625 31.296875 2.6875 
L 29.703125 8.609375 
C 27.296875 6.5 24.40625 5.296875 21.296875 5.296875 
C 16.90625 5.296875 16.703125 10.921875 16.703125 13.4375 
z
" id="CMSS17-116"/>
      <path d="M 14.90625 21.390625 
C 14.90625 30.84375 21.796875 37.171875 30.59375 37.375 
L 30.59375 44 
C 24.203125 43.890625 18.203125 40.6875 14.59375 35.46875 
L 14.59375 43.484375 
L 7.5 43.484375 
L 7.5 0 
L 14.90625 0 
z
" id="CMSS17-114"/>
      <path d="M 37.59375 27.953125 
C 37.59375 37.484375 30.90625 44 21.90625 44 
C 17.5 44 12.703125 43.1875 7.203125 39.984375 
L 7.796875 33.328125 
C 10.296875 35.15625 14.59375 38.09375 21.796875 38.09375 
C 26.90625 38.09375 30 34.140625 30 27.84375 
L 30 24 
C 14 23.5 4 18.890625 4 11.109375 
C 4 7.0625 6.5 -1 14.796875 -1 
C 16.296875 -1 24.40625 -0.8125 30.203125 3.5 
L 30.203125 -0.203125 
L 37.59375 -0.203125 
z
M 30 12.875 
C 30 11.109375 30 8.734375 27 6.96875 
C 24.40625 5.296875 21.09375 5.09375 19.703125 5.09375 
C 14.703125 5.09375 11.296875 7.859375 11.296875 11.296875 
C 11.296875 18.203125 26.90625 18.890625 30 19 
z
" id="CMSS17-97"/>
      <path d="M 32.203125 40.984375 
C 26.296875 43.796875 21.703125 44 18.703125 44 
C 11.59375 44 3.09375 41.484375 3.09375 31.390625 
C 3.09375 21.296875 14.09375 19.09375 17.09375 18.484375 
C 21.703125 17.59375 26.796875 16.59375 26.796875 11.59375 
C 26.796875 5.296875 19.59375 5.296875 18.296875 5.296875 
C 14.296875 5.296875 8.796875 6.390625 3.796875 9.984375 
L 2.59375 3.296875 
C 8.296875 0 13.796875 -1 18.40625 -1 
C 30.703125 -1 33.796875 6.5 33.796875 12.1875 
C 33.796875 17.09375 31 20.390625 29.09375 21.890625 
C 25.796875 24.484375 24.59375 24.796875 16.40625 26.484375 
C 15 26.6875 10.09375 27.796875 10.09375 32.296875 
C 10.09375 37.984375 16.40625 37.984375 17.796875 37.984375 
C 24.296875 37.984375 28.296875 35.984375 31 34.484375 
z
" id="CMSS17-115"/>
      <path d="M 15.296875 66 
L 6.90625 66 
L 6.90625 57.59375 
L 15.296875 57.59375 
z
M 14.796875 43 
L 7.40625 43 
L 7.40625 0 
L 14.796875 0 
z
" id="CMSS17-105"/>
      <path d="M 15.09375 4.296875 
C 18.40625 1.09375 22.90625 -1 27.703125 -1 
C 37 -1 45 8.640625 45 21.59375 
C 45 33.546875 39 44 30.40625 44 
C 25.40625 44 19.40625 42.1875 14.90625 38.59375 
L 14.90625 43.1875 
L 7.5 43.1875 
L 7.5 -20 
L 15.09375 -20 
z
M 15.09375 32.625 
C 15.90625 33.84375 19.296875 37.6875 24.796875 37.6875 
C 31.796875 37.6875 37.40625 30.40625 37.40625 21.59375 
C 37.40625 11.578125 30.59375 5.09375 23.90625 5.09375 
C 21.90625 5.09375 19.796875 5.59375 17.796875 7.3125 
C 15.09375 9.75 15.09375 11.265625 15.09375 12.6875 
z
" id="CMSS17-112"/>
      <path d="M 44.203125 21.1875 
C 44.203125 33.984375 34.703125 44 23.5 44 
C 12 44 2.703125 33.6875 2.703125 21.1875 
C 2.703125 8.5 12.296875 -1 23.40625 -1 
C 34.796875 -1 44.203125 8.796875 44.203125 21.1875 
z
M 23.5 5.296875 
C 16.40625 5.296875 10.296875 11.09375 10.296875 21.984375 
C 10.296875 33.59375 17.40625 37.890625 23.40625 37.890625 
C 29.90625 37.890625 36.59375 33.1875 36.59375 21.984375 
C 36.59375 10.6875 30.09375 5.296875 23.5 5.296875 
z
" id="CMSS17-111"/>
      <path d="M 39.09375 21.484375 
C 39.09375 24.796875 38.90625 31.265625 35.703125 36.671875 
C 32.203125 42.390625 26.5 44 22.203125 44 
C 11.796875 44 3 34.125 3 21.296875 
C 3 9.046875 12.09375 -1 23.59375 -1 
C 28.09375 -1 33.59375 0.296875 38.59375 3.890625 
C 38.59375 4.296875 38.40625 6.46875 38.296875 6.578125 
C 38.296875 6.765625 38 9.828125 38 10.234375 
C 33.203125 6.375 27.703125 5.09375 23.703125 5.09375 
C 17.296875 5.09375 10.40625 10.421875 10.09375 21.484375 
z
M 10.90625 27 
C 12.203125 32.59375 16.59375 37.890625 22.203125 37.890625 
C 23.703125 37.890625 30.703125 37.6875 32.5 27 
z
" id="CMSS17-101"/>
      <path d="M 25.203125 75 
C 19.796875 69.484375 7.40625 56.671875 7.40625 25.046875 
C 7.40625 -6.6875 19.796875 -19.40625 25.203125 -25 
L 31.296875 -25 
C 19 -12.203125 15 5.71875 15 24.9375 
C 15 44.0625 18.796875 62.078125 31.296875 75 
z
" id="CMSS17-40"/>
      <path d="M 28.09375 66.484375 
C 28.203125 66.890625 28.40625 67.484375 28.40625 67.984375 
C 28.40625 69 27.40625 69 27.203125 69 
C 27.09375 69 23.5 68.6875 21.703125 68.484375 
C 20 68.390625 18.5 68.1875 16.703125 68.09375 
C 14.296875 67.890625 13.59375 67.796875 13.59375 65.984375 
C 13.59375 64.984375 14.59375 64.984375 15.59375 64.984375 
C 20.703125 64.984375 20.703125 64.109375 20.703125 63.125 
C 20.703125 62.71875 20.703125 62.53125 20.203125 60.75 
L 5.90625 3.90625 
C 5.5 2.390625 5.5 2.203125 5.5 1.59375 
C 5.5 -0.609375 7.203125 -1 8.203125 -1 
C 11 -1 11.59375 1.1875 12.40625 4.296875 
L 17.09375 23.0625 
C 24.296875 22.265625 28.59375 19.25 28.59375 14.4375 
C 28.59375 13.828125 28.59375 13.4375 28.296875 11.921875 
C 27.90625 10.421875 27.90625 9.21875 27.90625 8.71875 
C 27.90625 2.890625 31.703125 -1 36.796875 -1 
C 41.40625 -1 43.796875 3.203125 44.59375 4.609375 
C 46.703125 8.3125 48 13.9375 48 14.328125 
C 48 14.828125 47.59375 15.234375 47 15.234375 
C 46.09375 15.234375 46 14.828125 45.59375 13.234375 
C 44.203125 8.015625 42.09375 1 37 1 
C 35 1 33.703125 2 33.703125 5.8125 
C 33.703125 7.71875 34.09375 9.921875 34.5 11.421875 
C 34.90625 13.234375 34.90625 13.328125 34.90625 14.53125 
C 34.90625 20.453125 29.59375 23.765625 20.40625 24.96875 
C 24 27.171875 27.59375 31.078125 29 32.59375 
C 34.703125 38.984375 38.59375 41.984375 43.203125 41.984375 
C 45.5 41.984375 46.09375 41.484375 46.796875 41 
C 43.09375 40.59375 41.703125 37.984375 41.703125 35.984375 
C 41.703125 33.59375 43.59375 32.796875 45 32.796875 
C 47.703125 32.796875 50.09375 35.09375 50.09375 38.296875 
C 50.09375 41.15625 47.796875 44 43.296875 44 
C 37.796875 44 33.296875 40.296875 26.203125 32.296875 
C 25.203125 31.078125 21.5 27.28125 17.796875 25.875 
z
" id="CMMI12-107"/>
      <path d="M 36.796875 61.203125 
C 37.703125 64.890625 38.09375 65.09375 42 65.09375 
L 49.203125 65.09375 
C 57.796875 65.09375 64.203125 62.5 64.203125 54.734375 
C 64.203125 49.640625 61.59375 35 41.5 35 
L 30.203125 35 
z
M 50.703125 33.796875 
C 63.09375 36.484375 72.796875 44.46875 72.796875 53.03125 
C 72.796875 60.8125 64.90625 68 51 68 
L 23.90625 68 
C 21.90625 68 21 68 21 66.09375 
C 21 65.09375 21.703125 65.09375 23.59375 65.09375 
C 29.59375 65.09375 29.59375 64.296875 29.59375 63.203125 
C 29.59375 63 29.59375 62.40625 29.203125 60.90625 
L 15.703125 7.421875 
C 14.796875 3.953125 14.59375 2.96875 7.703125 2.96875 
C 5.40625 2.96875 4.703125 2.96875 4.703125 1.078125 
C 4.703125 0.09375 5.796875 0.09375 6.09375 0.09375 
C 7.90625 0.09375 10 0.296875 11.90625 0.296875 
L 23.703125 0.296875 
C 25.5 0.296875 27.59375 0.09375 29.40625 0.09375 
C 30.203125 0.09375 31.296875 0.09375 31.296875 1.96875 
C 31.296875 2.96875 30.40625 2.96875 28.90625 2.96875 
C 22.796875 2.96875 22.796875 3.765625 22.796875 4.75 
C 22.796875 4.84375 22.796875 5.546875 23 6.328125 
L 29.703125 33 
L 41.703125 33 
C 51.203125 33 53 27.046875 53 23.78125 
C 53 22.28125 52 18.421875 51.296875 15.84375 
C 50.203125 11.296875 49.90625 10.203125 49.90625 8.3125 
C 49.90625 1.28125 55.703125 -2 62.40625 -2 
C 70.5 -2 74 7.828125 74 9.203125 
C 74 9.90625 73.5 10.203125 72.90625 10.203125 
C 72.09375 10.203125 71.90625 9.609375 71.703125 8.8125 
C 69.296875 1.78125 65.203125 0 62.703125 0 
C 60.203125 0 58.59375 1.078125 58.59375 5.546875 
C 58.59375 7.921875 59.796875 16.9375 59.90625 17.4375 
C 60.40625 21.09375 60.40625 21.5 60.40625 22.28125 
C 60.40625 29.515625 54.5 32.59375 50.703125 33.796875 
z
" id="CMMI12-82"/>
      <path d="M 11.296875 -25 
C 16.703125 -19.5 29.09375 -6.6875 29.09375 24.9375 
C 29.09375 56.671875 16.703125 69.375 11.296875 75 
L 5.203125 75 
C 17.5 62.171875 21.5 44.265625 21.5 25.046875 
C 21.5 5.921875 17.703125 -12.09375 5.203125 -25 
z
" id="CMSS17-41"/>
     </defs>
     <g transform="translate(118.941242 406.524366)scale(0.2 -0.2)">
      <use transform="translate(0 14.943915)scale(0.996264)" xlink:href="#CMSS17-108"/>
      <use transform="translate(22.180723 14.943915)scale(0.996264)" xlink:href="#CMSS17-110"/>
      <use transform="translate(70.385666 14.943915)scale(0.996264)" xlink:href="#CMSS17-99"/>
      <use transform="translate(112.024488 14.943915)scale(0.996264)" xlink:href="#CMSS17-82"/>
      <use transform="translate(172.440643 14.943915)scale(0.996264)" xlink:href="#CMSS17-78"/>
      <use transform="translate(238.502162 14.943915)scale(0.996264)" xlink:href="#CMSS17-65"/>
      <use transform="translate(331.94913 14.943915)scale(0.996264)" xlink:href="#CMSS17-116"/>
      <use transform="translate(365.780697 14.943915)scale(0.996264)" xlink:href="#CMSS17-114"/>
      <use transform="translate(397.690469 14.943915)scale(0.996264)" xlink:href="#CMSS17-97"/>
      <use transform="translate(442.61239 14.943915)scale(0.996264)" xlink:href="#CMSS17-110"/>
      <use transform="translate(490.817333 14.943915)scale(0.996264)" xlink:href="#CMSS17-115"/>
      <use transform="translate(526.730875 14.943915)scale(0.996264)" xlink:href="#CMSS17-99"/>
      <use transform="translate(568.369697 14.943915)scale(0.996264)" xlink:href="#CMSS17-114"/>
      <use transform="translate(600.27947 14.943915)scale(0.996264)" xlink:href="#CMSS17-105"/>
      <use transform="translate(622.460193 14.943915)scale(0.996264)" xlink:href="#CMSS17-112"/>
      <use transform="translate(670.665136 14.943915)scale(0.996264)" xlink:href="#CMSS17-116"/>
      <use transform="translate(704.496702 14.943915)scale(0.996264)" xlink:href="#CMSS17-105"/>
      <use transform="translate(726.677425 14.943915)scale(0.996264)" xlink:href="#CMSS17-111"/>
      <use transform="translate(773.521049 14.943915)scale(0.996264)" xlink:href="#CMSS17-110"/>
      <use transform="translate(852.955105 14.943915)scale(0.996264)" xlink:href="#CMSS17-114"/>
      <use transform="translate(884.864877 14.943915)scale(0.996264)" xlink:href="#CMSS17-97"/>
      <use transform="translate(929.786798 14.943915)scale(0.996264)" xlink:href="#CMSS17-116"/>
      <use transform="translate(963.618365 14.943915)scale(0.996264)" xlink:href="#CMSS17-101"/>
      <use transform="translate(1036.4863 14.943915)scale(0.996264)" xlink:href="#CMSS17-40"/>
      <use transform="translate(1072.920214 14.943915)scale(0.996264)" xlink:href="#CMMI12-107"/>
      <use transform="translate(1123.655402 0)scale(0.697382)" xlink:href="#CMMI12-82"/>
      <use transform="translate(1176.702964 14.943915)scale(0.996264)" xlink:href="#CMSS17-41"/>
     </g>
    </g>
   </g>
   <g id="matplotlib.axis_2">
    <g id="ytick_1">
     <g id="line2d_21">
      <defs>
       <path d="M 0 0 
L -3.5 0 
" id="m0b2ad26fd5" style="stroke:#000000;stroke-width:0.8;"/>
      </defs>
      <g>
       <use style="stroke:#000000;stroke-width:0.8;" x="74.008257" xlink:href="#m0b2ad26fd5" y="351.233362"/>
      </g>
     </g>
     <g id="text_4">
      <!-- $0.6$ -->
      <defs>
       <path d="M 18.40625 4.796875 
C 18.40625 7.6875 16 9.6875 13.59375 9.6875 
C 10.703125 9.6875 8.703125 7.296875 8.703125 4.890625 
C 8.703125 2 11.09375 0 13.5 0 
C 16.40625 0 18.40625 2.390625 18.40625 4.796875 
z
" id="CMMI12-58"/>
       <path d="M 10.59375 34.34375 
C 10.59375 58 21.796875 63.6875 28.296875 63.6875 
C 30.40625 63.6875 35.5 63.265625 37.5 59.09375 
C 35.90625 59.09375 32.90625 59.09375 32.90625 55.59375 
C 32.90625 52.890625 35.09375 52 36.5 52 
C 37.40625 52 40.09375 52.390625 40.09375 55.796875 
C 40.09375 62.296875 35.09375 66 28.203125 66 
C 16.296875 66 3.796875 53.296875 3.796875 31.421875 
C 3.796875 4.015625 15.09375 -2 23.09375 -2 
C 32.796875 -2 42 6.734375 42 20.234375 
C 42 32.828125 33.90625 42 23.703125 42 
C 17.59375 42 13.09375 37.96875 10.59375 30.921875 
z
M 23.09375 0.390625 
C 10.796875 0.390625 10.796875 18.9375 10.796875 22.65625 
C 10.796875 29.90625 14.203125 40.390625 23.5 40.390625 
C 25.203125 40.390625 30.09375 40.390625 33.40625 33.4375 
C 35.203125 29.515625 35.203125 25.375 35.203125 20.34375 
C 35.203125 14.90625 35.203125 10.875 33.09375 6.84375 
C 30.90625 2.703125 27.703125 0.390625 23.09375 0.390625 
z
" id="CMR17-54"/>
      </defs>
      <g transform="translate(43.31263 358.15186)scale(0.2 -0.2)">
       <use transform="scale(0.996264)" xlink:href="#CMR17-48"/>
       <use transform="translate(45.690477 0)scale(0.996264)" xlink:href="#CMMI12-58"/>
       <use transform="translate(72.787654 0)scale(0.996264)" xlink:href="#CMR17-54"/>
      </g>
     </g>
    </g>
    <g id="ytick_2">
     <g id="line2d_22">
      <g>
       <use style="stroke:#000000;stroke-width:0.8;" x="74.008257" xlink:href="#m0b2ad26fd5" y="277.949264"/>
      </g>
     </g>
     <g id="text_5">
      <!-- $0.9$ -->
      <defs>
       <path d="M 35.203125 29.234375 
C 35.203125 7 26.09375 0.390625 18.59375 0.390625 
C 16.296875 0.390625 10.703125 0.671875 8.40625 4.390625 
C 11 4 12.90625 5.390625 12.90625 7.890625 
C 12.90625 10.59375 10.703125 11.5 9.296875 11.5 
C 8.40625 11.5 5.703125 11.09375 5.703125 7.6875 
C 5.703125 1.0625 11.59375 -2 18.796875 -2 
C 30.296875 -2 42 10.390625 42 32.65625 
C 42 60.265625 30.796875 66 23.203125 66 
C 13.296875 66 3.796875 57.25 3.796875 43.75 
C 3.796875 31.25 11.90625 22 22.09375 22 
C 30.5 22 34.203125 29.84375 35.203125 33.15625 
z
M 22.296875 23.59375 
C 19.59375 23.59375 15.796875 24.09375 12.703125 30.140625 
C 10.59375 34.078125 10.59375 38.703125 10.59375 43.640625 
C 10.59375 49.59375 10.59375 53.71875 13.40625 58.15625 
C 14.796875 60.265625 17.40625 63.6875 23.203125 63.6875 
C 35 63.6875 35 45.453125 35 41.421875 
C 35 34.265625 31.796875 23.59375 22.296875 23.59375 
z
" id="CMR17-57"/>
      </defs>
      <g transform="translate(43.31263 284.867762)scale(0.2 -0.2)">
       <use transform="scale(0.996264)" xlink:href="#CMR17-48"/>
       <use transform="translate(45.690477 0)scale(0.996264)" xlink:href="#CMMI12-58"/>
       <use transform="translate(72.787654 0)scale(0.996264)" xlink:href="#CMR17-57"/>
      </g>
     </g>
    </g>
    <g id="ytick_3">
     <g id="line2d_23">
      <g>
       <use style="stroke:#000000;stroke-width:0.8;" x="74.008257" xlink:href="#m0b2ad26fd5" y="204.665166"/>
      </g>
     </g>
     <g id="text_6">
      <!-- $1.2$ -->
      <g transform="translate(43.31263 211.583665)scale(0.2 -0.2)">
       <use transform="scale(0.996264)" xlink:href="#CMR17-49"/>
       <use transform="translate(45.690477 0)scale(0.996264)" xlink:href="#CMMI12-58"/>
       <use transform="translate(72.787654 0)scale(0.996264)" xlink:href="#CMR17-50"/>
      </g>
     </g>
    </g>
    <g id="ytick_4">
     <g id="line2d_24">
      <g>
       <use style="stroke:#000000;stroke-width:0.8;" x="74.008257" xlink:href="#m0b2ad26fd5" y="131.381069"/>
      </g>
     </g>
     <g id="text_7">
      <!-- $1.5$ -->
      <defs>
       <path d="M 11.40625 58.59375 
C 12.40625 58.1875 16.5 56.890625 20.703125 56.890625 
C 30 56.890625 35.09375 61.890625 38 64.6875 
C 38 65.484375 38 66 37.40625 66 
C 37.296875 66 37.09375 66 36.296875 65.59375 
C 32.796875 64.09375 28.703125 63 23.703125 63 
C 20.703125 63 16.203125 63.359375 11.296875 65.484375 
C 10.203125 66 10 66 9.90625 66 
C 9.40625 66 9.296875 65.890625 9.296875 63.90625 
L 9.296875 34.859375 
C 9.296875 33.015625 9.296875 32.5 10.296875 32.5 
C 10.796875 32.5 11 32.703125 11.5 33.421875 
C 14.703125 38.046875 19.09375 40 24.09375 40 
C 27.59375 40 35.09375 37.734375 35.09375 20.203125 
C 35.09375 16.984375 35.09375 11.1875 32.09375 6.59375 
C 29.59375 2.484375 25.703125 0.390625 21.40625 0.390625 
C 14.796875 0.390625 8.09375 4.984375 6.296875 12.6875 
C 6.703125 12.59375 7.5 12.390625 7.90625 12.390625 
C 9.203125 12.390625 11.703125 13.09375 11.703125 16.1875 
C 11.703125 18.890625 9.796875 20 7.90625 20 
C 5.59375 20 4.09375 18.59375 4.09375 15.796875 
C 4.09375 7.09375 11 -2 21.59375 -2 
C 31.90625 -2 41.703125 6.890625 41.703125 19.796875 
C 41.703125 32.09375 33.90625 41.59375 24.203125 41.59375 
C 19.09375 41.59375 14.796875 39.6875 11.40625 36 
z
" id="CMR17-53"/>
      </defs>
      <g transform="translate(43.31263 138.299567)scale(0.2 -0.2)">
       <use transform="scale(0.996264)" xlink:href="#CMR17-49"/>
       <use transform="translate(45.690477 0)scale(0.996264)" xlink:href="#CMMI12-58"/>
       <use transform="translate(72.787654 0)scale(0.996264)" xlink:href="#CMR17-53"/>
      </g>
     </g>
    </g>
    <g id="ytick_5">
     <g id="line2d_25">
      <g>
       <use style="stroke:#000000;stroke-width:0.8;" x="74.008257" xlink:href="#m0b2ad26fd5" y="58.096971"/>
      </g>
     </g>
     <g id="text_8">
      <!-- $1.8$ -->
      <defs>
       <path d="M 27.203125 35.765625 
C 33.5 38.96875 39.90625 43.796875 39.90625 51.53125 
C 39.90625 60.6875 31.09375 66 23 66 
C 13.90625 66 5.90625 59.375 5.90625 50.234375 
C 5.90625 47.71875 6.5 43.390625 10.40625 39.578125 
C 11.40625 38.578125 15.59375 35.5625 18.296875 33.65625 
C 13.796875 31.34375 3.296875 25.8125 3.296875 14.765625 
C 3.296875 4.40625 13.09375 -2 22.796875 -2 
C 33.5 -2 42.5 5.71875 42.5 15.96875 
C 42.5 25.109375 36.40625 29.328125 32.40625 32.046875 
z
M 14.09375 44.609375 
C 13.296875 45.109375 9.296875 48.21875 9.296875 52.9375 
C 9.296875 59.078125 15.59375 63.6875 22.796875 63.6875 
C 30.703125 63.6875 36.5 58.0625 36.5 51.53125 
C 36.5 42.1875 26.09375 36.859375 25.59375 36.859375 
C 25.5 36.859375 25.40625 36.859375 24.59375 37.46875 
z
M 32.5 24 
C 34 22.90625 38.796875 19.578125 38.796875 13.453125 
C 38.796875 6.015625 31.40625 0.390625 23 0.390625 
C 13.90625 0.390625 7 6.921875 7 14.859375 
C 7 22.796875 13.09375 29.4375 20 32.546875 
z
" id="CMR17-56"/>
      </defs>
      <g transform="translate(43.31263 65.015469)scale(0.2 -0.2)">
       <use transform="scale(0.996264)" xlink:href="#CMR17-49"/>
       <use transform="translate(45.690477 0)scale(0.996264)" xlink:href="#CMMI12-58"/>
       <use transform="translate(72.787654 0)scale(0.996264)" xlink:href="#CMR17-56"/>
      </g>
     </g>
    </g>
    <g id="text_9">
     <!-- Fold change in mRNA transcription -->
     <defs>
      <path d="M 45.59375 31 
L 45.59375 37.09375 
L 17.203125 37.09375 
L 17.203125 62.390625 
L 29.40625 62.390625 
C 30.59375 62.390625 31.796875 62.296875 33 62.296875 
L 49.5 62.296875 
L 49.5 68.796875 
L 8.796875 68.796875 
L 8.796875 0 
L 17.203125 0 
L 17.203125 31 
z
" id="CMSS17-70"/>
      <path d="M 40.796875 69 
L 33.40625 69 
L 33.40625 38.984375 
C 30.296875 41.59375 25.203125 44 19.59375 44 
C 10.5 44 3.296875 34.046875 3.296875 21.484375 
C 3.296875 8.9375 10.40625 -1 19.296875 -1 
C 26.203125 -1 30.796875 2.6875 33.203125 4.796875 
L 33.203125 -0.203125 
L 40.796875 -0.203125 
z
M 33.203125 13.296875 
C 33.203125 11.875 33.203125 10.359375 30.09375 7.625 
C 28.09375 5.90625 25.703125 5.09375 23.40625 5.09375 
C 18 5.09375 10.90625 9.140625 10.90625 21.390625 
C 10.90625 34.140625 18.90625 37.890625 24.40625 37.890625 
C 28.09375 37.890625 31.09375 36.0625 33.203125 33.03125 
z
" id="CMSS17-100"/>
      <path d="M 40.90625 29.34375 
C 40.90625 35.671875 39.40625 44 28.09375 44 
C 21.796875 44 17.703125 40.890625 14.796875 37.484375 
L 14.796875 69 
L 7.40625 69 
L 7.40625 0 
L 15 0 
L 15 24.3125 
C 15 30.65625 17.40625 37.890625 24.203125 37.890625 
C 33 37.890625 33.296875 31.953125 33.296875 28.53125 
L 33.296875 0 
L 40.90625 0 
z
" id="CMSS17-104"/>
      <path d="M 44.5 44 
C 38.796875 43.890625 33.90625 42.796875 29.90625 40.890625 
C 26.59375 43.484375 23.203125 44 20.90625 44 
C 12.203125 44 5.59375 36.8125 5.59375 28.5 
C 5.59375 23.140625 8.59375 19.09375 8.796875 18.890625 
C 7 16.390625 6 13.6875 6 10.6875 
C 6 7.1875 7.40625 4.6875 8.5 3.296875 
C 3.296875 0.09375 2.59375 -4.8125 2.59375 -6.703125 
C 2.59375 -14 11.703125 -20 23.40625 -20 
C 35.203125 -20 44.296875 -14 44.296875 -6.609375 
C 44.296875 7.1875 29 7.296875 24.796875 7.296875 
L 16.703125 7.296875 
C 15.203125 7.296875 11.203125 7.296875 11.203125 12.390625 
C 11.203125 14.390625 12.09375 15.6875 12.203125 15.796875 
C 13.703125 14.6875 16.796875 13 20.90625 13 
C 29.203125 13 36.09375 19.984375 36.09375 28.5 
C 36.09375 33.25 33.90625 36.703125 33 37.890625 
L 33.296875 37.890625 
C 33.59375 37.890625 37.796875 38.1875 39.296875 38.1875 
C 42.5 38.1875 42.796875 38.09375 45.59375 37.796875 
z
M 20.90625 18.5 
C 17.5 18.5 12.703125 20.578125 12.703125 28.5 
C 12.703125 37.109375 18.203125 38.484375 20.796875 38.484375 
C 24.203125 38.484375 29 36.40625 29 28.5 
C 29 19.875 23.5 18.5 20.90625 18.5 
z
M 24.703125 0 
C 27.09375 0 37.203125 0 37.203125 -6.8125 
C 37.203125 -11.109375 31 -14.5 23.5 -14.5 
C 15.90625 -14.5 9.703125 -11.203125 9.703125 -6.703125 
C 9.703125 -6.203125 9.703125 0 16.59375 0 
z
" id="CMSS17-103"/>
      <path d="M 67 29.34375 
C 67 36.078125 65.296875 44 54.09375 44 
C 46.59375 44 42.09375 39.296875 40.09375 36.375 
C 38.296875 41.6875 34.09375 44 28.09375 44 
C 21.296875 44 17 40.09375 14.703125 37.28125 
L 14.703125 43.484375 
L 7.40625 43.484375 
L 7.40625 0 
L 15 0 
L 15 24.3125 
C 15 30.25 17.203125 37.890625 24.296875 37.890625 
C 33.40625 37.890625 33.40625 31.453125 33.40625 28.53125 
L 33.40625 0 
L 41 0 
L 41 24.3125 
C 41 30.25 43.203125 37.890625 50.296875 37.890625 
C 59.40625 37.890625 59.40625 31.453125 59.40625 28.53125 
L 59.40625 0 
L 67 0 
z
" id="CMSS17-109"/>
     </defs>
     <g transform="translate(35.436997 332.185617)rotate(-90)scale(0.2 -0.2)">
      <use transform="scale(0.996264)" xlink:href="#CMSS17-70"/>
      <use transform="translate(50.687105 0)scale(0.996264)" xlink:href="#CMSS17-111"/>
      <use transform="translate(97.530729 0)scale(0.996264)" xlink:href="#CMSS17-108"/>
      <use transform="translate(119.711452 0)scale(0.996264)" xlink:href="#CMSS17-100"/>
      <use transform="translate(199.145508 0)scale(0.996264)" xlink:href="#CMSS17-99"/>
      <use transform="translate(240.78433 0)scale(0.996264)" xlink:href="#CMSS17-104"/>
      <use transform="translate(288.989273 0)scale(0.996264)" xlink:href="#CMSS17-97"/>
      <use transform="translate(333.911194 0)scale(0.996264)" xlink:href="#CMSS17-110"/>
      <use transform="translate(382.116137 0)scale(0.996264)" xlink:href="#CMSS17-103"/>
      <use transform="translate(428.95976 0)scale(0.996264)" xlink:href="#CMSS17-101"/>
      <use transform="translate(501.827695 0)scale(0.996264)" xlink:href="#CMSS17-105"/>
      <use transform="translate(524.008418 0)scale(0.996264)" xlink:href="#CMSS17-110"/>
      <use transform="translate(603.442474 0)scale(0.996264)" xlink:href="#CMSS17-109"/>
      <use transform="translate(677.671728 0)scale(0.996264)" xlink:href="#CMSS17-82"/>
      <use transform="translate(738.087883 0)scale(0.996264)" xlink:href="#CMSS17-78"/>
      <use transform="translate(804.149403 0)scale(0.996264)" xlink:href="#CMSS17-65"/>
      <use transform="translate(897.59637 0)scale(0.996264)" xlink:href="#CMSS17-116"/>
      <use transform="translate(931.427937 0)scale(0.996264)" xlink:href="#CMSS17-114"/>
      <use transform="translate(963.337709 0)scale(0.996264)" xlink:href="#CMSS17-97"/>
      <use transform="translate(1008.25963 0)scale(0.996264)" xlink:href="#CMSS17-110"/>
      <use transform="translate(1056.464573 0)scale(0.996264)" xlink:href="#CMSS17-115"/>
      <use transform="translate(1092.378115 0)scale(0.996264)" xlink:href="#CMSS17-99"/>
      <use transform="translate(1134.016937 0)scale(0.996264)" xlink:href="#CMSS17-114"/>
      <use transform="translate(1165.92671 0)scale(0.996264)" xlink:href="#CMSS17-105"/>
      <use transform="translate(1188.107433 0)scale(0.996264)" xlink:href="#CMSS17-112"/>
      <use transform="translate(1236.312376 0)scale(0.996264)" xlink:href="#CMSS17-116"/>
      <use transform="translate(1270.143943 0)scale(0.996264)" xlink:href="#CMSS17-105"/>
      <use transform="translate(1292.324666 0)scale(0.996264)" xlink:href="#CMSS17-111"/>
      <use transform="translate(1339.168289 0)scale(0.996264)" xlink:href="#CMSS17-110"/>
     </g>
    </g>
   </g>
   <g id="line2d_26">
    <path clip-path="url(#p041a1221dc)" d="M 89.1397 253.521232 
L 190.015985 218.697937 
L 233.461037 168.314986 
L 258.874763 129.838819 
L 290.892271 82.820477 
L 334.337323 42.625823 
L 359.751049 40.404396 
L 377.782374 49.717068 
L 391.768557 63.42012 
" style="fill:none;stroke:#cecece;stroke-linecap:square;stroke-width:1.5;"/>
    <defs>
     <path d="M 0 3 
C 0.795609 3 1.55874 2.683901 2.12132 2.12132 
C 2.683901 1.55874 3 0.795609 3 0 
C 3 -0.795609 2.683901 -1.55874 2.12132 -2.12132 
C 1.55874 -2.683901 0.795609 -3 0 -3 
C -0.795609 -3 -1.55874 -2.683901 -2.12132 -2.12132 
C -2.683901 -1.55874 -3 -0.795609 -3 0 
C -3 0.795609 -2.683901 1.55874 -2.12132 2.12132 
C -1.55874 2.683901 -0.795609 3 0 3 
z
" id="ma43ee03cfd" style="stroke:#cecece;"/>
    </defs>
    <g clip-path="url(#p041a1221dc)">
     <use style="fill:#cecece;stroke:#cecece;" x="89.1397" xlink:href="#ma43ee03cfd" y="253.521232"/>
     <use style="fill:#cecece;stroke:#cecece;" x="190.015985" xlink:href="#ma43ee03cfd" y="218.697937"/>
     <use style="fill:#cecece;stroke:#cecece;" x="233.461037" xlink:href="#ma43ee03cfd" y="168.314986"/>
     <use style="fill:#cecece;stroke:#cecece;" x="258.874763" xlink:href="#ma43ee03cfd" y="129.838819"/>
     <use style="fill:#cecece;stroke:#cecece;" x="290.892271" xlink:href="#ma43ee03cfd" y="82.820477"/>
     <use style="fill:#cecece;stroke:#cecece;" x="334.337323" xlink:href="#ma43ee03cfd" y="42.625823"/>
     <use style="fill:#cecece;stroke:#cecece;" x="359.751049" xlink:href="#ma43ee03cfd" y="40.404396"/>
     <use style="fill:#cecece;stroke:#cecece;" x="377.782374" xlink:href="#ma43ee03cfd" y="49.717068"/>
     <use style="fill:#cecece;stroke:#cecece;" x="391.768557" xlink:href="#ma43ee03cfd" y="63.42012"/>
    </g>
   </g>
   <g id="line2d_27">
    <path clip-path="url(#p041a1221dc)" d="M 89.1397 253.521232 
L 190.015985 242.227318 
L 233.461037 232.740941 
L 258.874763 227.061777 
L 290.892271 223.231385 
L 334.337323 231.628888 
L 359.751049 244.519595 
L 377.782374 256.764351 
L 391.768557 268.263273 
" style="fill:none;stroke:#6c6c6c;stroke-linecap:square;stroke-width:1.5;"/>
    <defs>
     <path d="M 0 3 
C 0.795609 3 1.55874 2.683901 2.12132 2.12132 
C 2.683901 1.55874 3 0.795609 3 0 
C 3 -0.795609 2.683901 -1.55874 2.12132 -2.12132 
C 1.55874 -2.683901 0.795609 -3 0 -3 
C -0.795609 -3 -1.55874 -2.683901 -2.12132 -2.12132 
C -2.683901 -1.55874 -3 -0.795609 -3 0 
C -3 0.795609 -2.683901 1.55874 -2.12132 2.12132 
C -1.55874 2.683901 -0.795609 3 0 3 
z
" id="m53a83554a6" style="stroke:#6c6c6c;"/>
    </defs>
    <g clip-path="url(#p041a1221dc)">
     <use style="fill:#6c6c6c;stroke:#6c6c6c;" x="89.1397" xlink:href="#m53a83554a6" y="253.521232"/>
     <use style="fill:#6c6c6c;stroke:#6c6c6c;" x="190.015985" xlink:href="#m53a83554a6" y="242.227318"/>
     <use style="fill:#6c6c6c;stroke:#6c6c6c;" x="233.461037" xlink:href="#m53a83554a6" y="232.740941"/>
     <use style="fill:#6c6c6c;stroke:#6c6c6c;" x="258.874763" xlink:href="#m53a83554a6" y="227.061777"/>
     <use style="fill:#6c6c6c;stroke:#6c6c6c;" x="290.892271" xlink:href="#m53a83554a6" y="223.231385"/>
     <use style="fill:#6c6c6c;stroke:#6c6c6c;" x="334.337323" xlink:href="#m53a83554a6" y="231.628888"/>
     <use style="fill:#6c6c6c;stroke:#6c6c6c;" x="359.751049" xlink:href="#m53a83554a6" y="244.519595"/>
     <use style="fill:#6c6c6c;stroke:#6c6c6c;" x="377.782374" xlink:href="#m53a83554a6" y="256.764351"/>
     <use style="fill:#6c6c6c;stroke:#6c6c6c;" x="391.768557" xlink:href="#m53a83554a6" y="268.263273"/>
    </g>
   </g>
   <g id="line2d_28">
    <path clip-path="url(#p041a1221dc)" d="M 89.1397 253.521232 
L 190.015985 258.17933 
L 233.461037 264.117783 
L 258.874763 270.013021 
L 290.892271 281.236638 
L 334.337323 304.406569 
L 359.751049 321.677623 
L 377.782374 335.228374 
L 391.768557 346.492308 
" style="fill:none;stroke:#000000;stroke-linecap:square;stroke-width:1.5;"/>
    <defs>
     <path d="M 0 3 
C 0.795609 3 1.55874 2.683901 2.12132 2.12132 
C 2.683901 1.55874 3 0.795609 3 0 
C 3 -0.795609 2.683901 -1.55874 2.12132 -2.12132 
C 1.55874 -2.683901 0.795609 -3 0 -3 
C -0.795609 -3 -1.55874 -2.683901 -2.12132 -2.12132 
C -2.683901 -1.55874 -3 -0.795609 -3 0 
C -3 0.795609 -2.683901 1.55874 -2.12132 2.12132 
C -1.55874 2.683901 -0.795609 3 0 3 
z
" id="mcd202c1661" style="stroke:#000000;"/>
    </defs>
    <g clip-path="url(#p041a1221dc)">
     <use style="stroke:#000000;" x="89.1397" xlink:href="#mcd202c1661" y="253.521232"/>
     <use style="stroke:#000000;" x="190.015985" xlink:href="#mcd202c1661" y="258.17933"/>
     <use style="stroke:#000000;" x="233.461037" xlink:href="#mcd202c1661" y="264.117783"/>
     <use style="stroke:#000000;" x="258.874763" xlink:href="#mcd202c1661" y="270.013021"/>
     <use style="stroke:#000000;" x="290.892271" xlink:href="#mcd202c1661" y="281.236638"/>
     <use style="stroke:#000000;" x="334.337323" xlink:href="#mcd202c1661" y="304.406569"/>
     <use style="stroke:#000000;" x="359.751049" xlink:href="#mcd202c1661" y="321.677623"/>
     <use style="stroke:#000000;" x="377.782374" xlink:href="#mcd202c1661" y="335.228374"/>
     <use style="stroke:#000000;" x="391.768557" xlink:href="#mcd202c1661" y="346.492308"/>
    </g>
   </g>
   <g id="patch_3">
    <path d="M 74.008257 361.796704 
L 74.008257 25.1 
" style="fill:none;stroke:#000000;stroke-linecap:square;stroke-linejoin:miter;stroke-width:0.8;"/>
   </g>
   <g id="patch_4">
    <path d="M 406.9 361.796704 
L 406.9 25.1 
" style="fill:none;stroke:#000000;stroke-linecap:square;stroke-linejoin:miter;stroke-width:0.8;"/>
   </g>
   <g id="patch_5">
    <path d="M 74.008257 361.796704 
L 406.9 361.796704 
" style="fill:none;stroke:#000000;stroke-linecap:square;stroke-linejoin:miter;stroke-width:0.8;"/>
   </g>
   <g id="patch_6">
    <path d="M 74.008257 25.1 
L 406.9 25.1 
" style="fill:none;stroke:#000000;stroke-linecap:square;stroke-linejoin:miter;stroke-width:0.8;"/>
   </g>
   <g id="legend_1">
    <g id="patch_7">
     <path d="M 88.008257 124.726901 
L 239.879986 124.726901 
Q 243.879986 124.726901 243.879986 120.726901 
L 243.879986 39.1 
Q 243.879986 35.1 239.879986 35.1 
L 88.008257 35.1 
Q 84.008257 35.1 84.008257 39.1 
L 84.008257 120.726901 
Q 84.008257 124.726901 88.008257 124.726901 
z
" style="fill:#ffffff;opacity:0.8;stroke:#cccccc;stroke-linejoin:miter;"/>
    </g>
    <g id="line2d_29">
     <path d="M 92.008257 50.1 
L 132.008257 50.1 
" style="fill:none;stroke:#cecece;stroke-linecap:square;stroke-width:1.5;"/>
    </g>
    <g id="line2d_30">
     <g>
      <use style="fill:#cecece;stroke:#cecece;" x="112.008257" xlink:href="#ma43ee03cfd" y="50.1"/>
     </g>
    </g>
    <g id="text_10">
     <!-- $k_{M}=$0.001 -->
     <defs>
      <path d="M 90.796875 60.71875 
C 91.703125 64.09375 91.90625 65.09375 99 65.09375 
C 100.90625 65.09375 101.796875 65.09375 101.796875 66.984375 
C 101.796875 68 101.09375 68 99.203125 68 
L 87.203125 68 
C 84.703125 68 84.59375 67.890625 83.5 66.296875 
L 47 8.859375 
L 39.5 65.796875 
C 39.203125 68 39.09375 68 36.5 68 
L 24.09375 68 
C 22.203125 68 21.296875 68 21.296875 66.09375 
C 21.296875 65.09375 22.203125 65.09375 23.703125 65.09375 
C 29.796875 65.09375 29.796875 64.296875 29.796875 63.203125 
C 29.796875 63 29.796875 62.40625 29.40625 60.90625 
L 16.59375 10.15625 
C 15.40625 5.375 13.09375 3.1875 6.40625 2.890625 
C 6.09375 2.890625 4.90625 2.796875 4.90625 1.09375 
C 4.90625 0 5.796875 0 6.203125 0 
C 8.203125 0 13.296875 0.1875 15.296875 0.1875 
L 20.09375 0.1875 
C 21.5 0.1875 23.203125 0 24.59375 0 
C 25.296875 0 26.40625 0 26.40625 1.890625 
C 26.40625 2.796875 25.40625 2.890625 25 2.890625 
C 21.703125 2.984375 18.5 3.59375 18.5 7.171875 
C 18.5 8.171875 18.5 8.265625 18.90625 9.65625 
L 32.703125 64.5 
L 32.796875 64.5 
L 41.09375 2.6875 
C 41.40625 0.296875 41.5 0 42.40625 0 
C 43.5 0 44 0.796875 44.5 1.6875 
L 84.703125 64.984375 
L 84.796875 64.984375 
L 70.296875 7.375 
C 69.40625 3.890625 69.203125 2.890625 62.203125 2.890625 
C 60.296875 2.890625 59.296875 2.890625 59.296875 1.09375 
C 59.296875 0 60.203125 0 60.796875 0 
C 62.5 0 64.5 0.1875 66.203125 0.1875 
L 78 0.1875 
C 79.703125 0.1875 81.796875 0 83.5 0 
C 84.296875 0 85.40625 0 85.40625 1.890625 
C 85.40625 2.890625 84.5 2.890625 83 2.890625 
C 76.90625 2.890625 76.90625 3.6875 76.90625 4.6875 
C 76.90625 4.78125 76.90625 5.484375 77.09375 6.28125 
z
" id="CMMI12-77"/>
      <path d="M 64.296875 32 
C 65.796875 32 67.296875 32 67.296875 33.6875 
C 67.296875 35.5 65.59375 35.5 63.90625 35.5 
L 8 35.5 
C 6.296875 35.5 4.59375 35.5 4.59375 33.6875 
C 4.59375 32 6.09375 32 7.59375 32 
z
M 63.90625 14.484375 
C 65.59375 14.484375 67.296875 14.484375 67.296875 16.296875 
C 67.296875 18 65.796875 18 64.296875 18 
L 7.59375 18 
C 6.09375 18 4.59375 18 4.59375 16.296875 
C 4.59375 14.484375 6.296875 14.484375 8 14.484375 
z
" id="CMR17-61"/>
      <path d="M 43.09375 32.390625 
C 43.09375 38.109375 43 48.75 38.90625 56.984375 
C 34.796875 64.890625 28.203125 67 23.5 67 
C 16.703125 67 10.90625 62.984375 7.90625 56.578125 
C 4.703125 49.859375 3.796875 42.9375 3.796875 32.390625 
C 3.796875 25.171875 4.09375 16.34375 7.703125 8.609375 
C 11.796875 0.09375 18.703125 -2 23.40625 -2 
C 29.59375 -2 35.59375 1.296875 39 8.203125 
C 42.5 15.4375 43.09375 23.359375 43.09375 32.390625 
z
M 23.40625 4.09375 
C 15.796875 4.09375 13.5 12.828125 12.796875 15.734375 
C 11.59375 20.75 11.40625 25.5625 11.40625 33.5 
C 11.40625 39.71875 11.40625 46.75 13.296875 52.265625 
C 15.59375 58.6875 19.59375 60.890625 23.40625 60.890625 
C 30.796875 60.890625 33.203125 53.46875 34 50.859375 
C 35.5 45.546875 35.5 39.3125 35.5 33.5 
C 35.5 24.15625 35.5 4.09375 23.40625 4.09375 
z
" id="CMSS17-48"/>
      <path d="M 17 8 
L 9 8 
L 9 0 
L 17 0 
z
" id="CMSS17-46"/>
      <path d="M 28.40625 67 
L 26.5 67 
C 21.09375 61.703125 14.796875 60.96875 8.40625 60.796875 
L 8.40625 55 
C 11.296875 55.09375 16 55.296875 20.703125 57.390625 
L 20.703125 5.796875 
L 8.90625 5.796875 
L 8.90625 0 
L 40.203125 0 
L 40.203125 5.796875 
L 28.40625 5.796875 
z
" id="CMSS17-49"/>
     </defs>
     <g transform="translate(148.008257 57.1)scale(0.2 -0.2)">
      <use transform="translate(0 14.943915)scale(0.996264)" xlink:href="#CMMI12-107"/>
      <use transform="translate(50.735189 0)scale(0.697382)" xlink:href="#CMMI12-77"/>
      <use transform="translate(152.253071 14.943915)scale(0.996264)" xlink:href="#CMR17-61"/>
      <use transform="translate(223.96786 14.943915)scale(0.996264)" xlink:href="#CMSS17-48"/>
      <use transform="translate(270.811483 14.943915)scale(0.996264)" xlink:href="#CMSS17-46"/>
      <use transform="translate(296.835688 14.943915)scale(0.996264)" xlink:href="#CMSS17-48"/>
      <use transform="translate(343.679312 14.943915)scale(0.996264)" xlink:href="#CMSS17-48"/>
      <use transform="translate(390.522935 14.943915)scale(0.996264)" xlink:href="#CMSS17-49"/>
     </g>
    </g>
    <g id="line2d_31">
     <path d="M 92.008257 77.975634 
L 132.008257 77.975634 
" style="fill:none;stroke:#6c6c6c;stroke-linecap:square;stroke-width:1.5;"/>
    </g>
    <g id="line2d_32">
     <g>
      <use style="fill:#6c6c6c;stroke:#6c6c6c;" x="112.008257" xlink:href="#m53a83554a6" y="77.975634"/>
     </g>
    </g>
    <g id="text_11">
     <!-- $k_{M}=$0.01 -->
     <g transform="translate(148.008257 84.975634)scale(0.2 -0.2)">
      <use transform="translate(0 14.943915)scale(0.996264)" xlink:href="#CMMI12-107"/>
      <use transform="translate(50.735189 0)scale(0.697382)" xlink:href="#CMMI12-77"/>
      <use transform="translate(152.253071 14.943915)scale(0.996264)" xlink:href="#CMR17-61"/>
      <use transform="translate(223.96786 14.943915)scale(0.996264)" xlink:href="#CMSS17-48"/>
      <use transform="translate(270.811483 14.943915)scale(0.996264)" xlink:href="#CMSS17-46"/>
      <use transform="translate(296.835688 14.943915)scale(0.996264)" xlink:href="#CMSS17-48"/>
      <use transform="translate(343.679312 14.943915)scale(0.996264)" xlink:href="#CMSS17-49"/>
     </g>
    </g>
    <g id="line2d_33">
     <path d="M 92.008257 105.851267 
L 132.008257 105.851267 
" style="fill:none;stroke:#000000;stroke-linecap:square;stroke-width:1.5;"/>
    </g>
    <g id="line2d_34">
     <g>
      <use style="stroke:#000000;" x="112.008257" xlink:href="#mcd202c1661" y="105.851267"/>
     </g>
    </g>
    <g id="text_12">
     <!-- $k_{M}=$0.1 -->
     <g transform="translate(148.008257 112.851267)scale(0.2 -0.2)">
      <use transform="translate(0 14.943915)scale(0.996264)" xlink:href="#CMMI12-107"/>
      <use transform="translate(50.735189 0)scale(0.697382)" xlink:href="#CMMI12-77"/>
      <use transform="translate(152.253071 14.943915)scale(0.996264)" xlink:href="#CMR17-61"/>
      <use transform="translate(223.96786 14.943915)scale(0.996264)" xlink:href="#CMSS17-48"/>
      <use transform="translate(270.811483 14.943915)scale(0.996264)" xlink:href="#CMSS17-46"/>
      <use transform="translate(296.835688 14.943915)scale(0.996264)" xlink:href="#CMSS17-49"/>
     </g>
    </g>
   </g>
  </g>
 </g>
 <defs>
  <clipPath id="p041a1221dc">
   <rect height="336.696704" width="332.891743" x="74.008257" y="25.1"/>
  </clipPath>
 </defs>
</svg>
