<?xml version="1.0" encoding="utf-8" standalone="no"?>
<!DOCTYPE svg PUBLIC "-//W3C//DTD SVG 1.1//EN"
  "http://www.w3.org/Graphics/SVG/1.1/DTD/svg11.dtd">
<!-- Created with matplotlib (http://matplotlib.org/) -->
<svg height="432pt" version="1.1" viewBox="0 0 432 432" width="432pt" xmlns="http://www.w3.org/2000/svg" xmlns:xlink="http://www.w3.org/1999/xlink">
 <defs>
  <style type="text/css">
*{stroke-linecap:butt;stroke-linejoin:round;}
  </style>
 </defs>
 <g id="figure_1">
  <g id="patch_1">
   <path d="M 0 432 
L 432 432 
L 432 0 
L 0 0 
z
" style="fill:#ffffff;"/>
  </g>
  <g id="axes_1">
   <g id="patch_2">
    <path d="M 76.220906 360.251291 
L 343.564181 360.251291 
L 343.564181 28.518498 
L 76.220906 28.518498 
z
" style="fill:#ffffff;"/>
   </g>
   <g id="PathCollection_1">
    <path clip-path="url(#p038fd66925)" d="M 89.42625 28.518498 
L 76.220906 28.518498 
L 76.220906 89.027137 
z
" style="fill:#46075a;"/>
   </g>
   <g id="PathCollection_2">
    <path clip-path="url(#p038fd66925)" d="M 91.126988 156.108034 
L 123.057388 28.518498 
L 89.42625 28.518498 
L 76.220906 89.027137 
L 76.220906 156.108034 
L 76.220906 167.543108 
z
" style="fill:#481467;"/>
   </g>
   <g id="PathCollection_3">
    <path clip-path="url(#p038fd66925)" d="M 111.003684 156.108034 
L 149.103175 28.518498 
L 123.057388 28.518498 
L 91.126988 156.108034 
L 76.220906 167.543108 
L 76.220906 185.264765 
z
" style="fill:#482071;"/>
   </g>
   <g id="PathCollection_4">
    <path clip-path="url(#p038fd66925)" d="M 127.969808 156.108034 
L 156.699251 59.545808 
L 176.625727 28.518498 
L 156.699251 28.518498 
L 149.103175 28.518498 
L 111.003684 156.108034 
L 76.220906 185.264765 
L 76.220906 202.986422 
z
" style="fill:#472c7a;"/>
   </g>
   <g id="PathCollection_5">
    <path clip-path="url(#p038fd66925)" d="M 96.037222 207.143848 
L 142.769888 156.108034 
L 156.699251 106.306322 
L 201.383168 28.518498 
L 176.625727 28.518498 
L 156.699251 59.545808 
L 127.969808 156.108034 
L 76.220906 202.986422 
L 76.220906 207.143848 
L 76.220906 221.007774 
z
" style="fill:#453882;"/>
   </g>
   <g id="PathCollection_6">
    <path clip-path="url(#p038fd66925)" d="M 117.688112 207.143848 
L 155.894903 156.108034 
L 156.699251 153.066836 
L 221.778156 28.518498 
L 201.383168 28.518498 
L 156.699251 106.306322 
L 142.769888 156.108034 
L 96.037222 207.143848 
L 76.220906 221.007774 
L 76.220906 239.120982 
z
" style="fill:#414287;"/>
   </g>
   <g id="PathCollection_7">
    <path clip-path="url(#p038fd66925)" d="M 135.929175 207.143848 
L 156.699251 177.015128 
L 186.792073 156.108034 
L 239.120196 28.518498 
L 221.778156 28.518498 
L 156.699251 153.066836 
L 155.894903 156.108034 
L 117.688112 207.143848 
L 76.220906 239.120982 
L 76.220906 257.23419 
z
" style="fill:#3d4d8a;"/>
   </g>
   <g id="PathCollection_8">
    <path clip-path="url(#p038fd66925)" d="M 101.419676 258.179662 
L 151.689735 207.143848 
L 156.699251 199.37656 
L 212.1605 156.108034 
L 254.2054 28.518498 
L 239.120196 28.518498 
L 186.792073 156.108034 
L 156.699251 177.015128 
L 135.929175 207.143848 
L 76.220906 257.23419 
L 76.220906 258.179662 
L 76.220906 279.552015 
z
" style="fill:#39568c;"/>
   </g>
   <g id="PathCollection_9">
    <path clip-path="url(#p038fd66925)" d="M 123.152029 258.179662 
L 156.699251 219.88051 
L 181.419596 207.143848 
L 232.9678 156.108034 
L 263.085836 49.121667 
L 280.525099 28.518498 
L 263.085836 28.518498 
L 254.2054 28.518498 
L 212.1605 156.108034 
L 156.699251 199.37656 
L 151.689735 207.143848 
L 101.419676 258.179662 
L 76.220906 279.552015 
L 76.220906 302.101398 
z
" style="fill:#34608d;"/>
   </g>
   <g id="PathCollection_10">
    <path clip-path="url(#p038fd66925)" d="M 91.250435 309.215476 
L 141.450834 258.179662 
L 156.699251 239.395873 
L 211.329975 207.143848 
L 250.606831 156.108034 
L 263.085836 108.392113 
L 319.691695 28.518498 
L 280.525099 28.518498 
L 263.085836 49.121667 
L 232.9678 156.108034 
L 181.419596 207.143848 
L 156.699251 219.88051 
L 123.152029 258.179662 
L 76.220906 302.101398 
L 76.220906 309.215476 
L 76.220906 337.352915 
z
" style="fill:#30698e;"/>
   </g>
   <g id="PathCollection_11">
    <path clip-path="url(#p038fd66925)" d="M 110.209555 309.215476 
L 156.699251 258.75835 
L 158.008323 258.179662 
L 235.091999 207.143848 
L 263.085836 162.072178 
L 278.675863 156.108034 
L 343.564181 47.479789 
L 343.564181 28.518498 
L 319.691695 28.518498 
L 263.085836 108.392113 
L 250.606831 156.108034 
L 211.329975 207.143848 
L 156.699251 239.395873 
L 141.450834 258.179662 
L 91.250435 309.215476 
L 76.220906 337.352915 
L 76.220906 360.251291 
L 84.292065 360.251291 
z
" style="fill:#2c718e;"/>
   </g>
   <g id="PathCollection_12">
    <path clip-path="url(#p038fd66925)" d="M 126.503003 309.215476 
L 156.699251 274.195356 
L 188.38784 258.179662 
L 254.8074 207.143848 
L 263.085836 192.666037 
L 336.433723 156.108034 
L 343.564181 140.995178 
L 343.564181 47.479789 
L 278.675863 156.108034 
L 263.085836 162.072178 
L 235.091999 207.143848 
L 158.008323 258.179662 
L 156.699251 258.75835 
L 110.209555 309.215476 
L 84.292065 360.251291 
L 100.681668 360.251291 
z
" style="fill:#297b8e;"/>
   </g>
   <g id="PathCollection_13">
    <path clip-path="url(#p038fd66925)" d="M 140.788798 309.215476 
L 156.699251 289.632363 
L 212.44438 258.179662 
L 263.085836 214.939824 
L 300.182953 207.143848 
L 343.564181 181.116835 
L 343.564181 156.108034 
L 343.564181 140.995178 
L 336.433723 156.108034 
L 263.085836 192.666037 
L 254.8074 207.143848 
L 188.38784 258.179662 
L 156.699251 274.195356 
L 126.503003 309.215476 
L 100.681668 360.251291 
L 115.041299 360.251291 
z
" style="fill:#25838e;"/>
   </g>
   <g id="PathCollection_14">
    <path clip-path="url(#p038fd66925)" d="M 153.507864 309.215476 
L 156.699251 305.069369 
L 232.361875 258.179662 
L 263.085836 229.739297 
L 343.564181 208.860114 
L 343.564181 207.143848 
L 343.564181 181.116835 
L 300.182953 207.143848 
L 263.085836 214.939824 
L 212.44438 258.179662 
L 156.699251 289.632363 
L 140.788798 309.215476 
L 115.041299 360.251291 
L 127.818846 360.251291 
z
" style="fill:#228c8d;"/>
   </g>
   <g id="PathCollection_15">
    <path clip-path="url(#p038fd66925)" d="M 156.699251 324.505258 
L 174.678672 309.215476 
L 249.357694 258.179662 
L 263.085836 244.53877 
L 343.564181 222.323785 
L 343.564181 208.860114 
L 263.085836 229.739297 
L 232.361875 258.179662 
L 156.699251 305.069369 
L 153.507864 309.215476 
L 127.818846 360.251291 
L 139.328583 360.251291 
z
" style="fill:#1f948c;"/>
   </g>
   <g id="PathCollection_16">
    <path clip-path="url(#p038fd66925)" d="M 156.699251 345.409568 
L 195.473094 309.215476 
L 263.085836 258.995478 
L 268.191363 258.179662 
L 343.564181 235.787457 
L 343.564181 222.323785 
L 263.085836 244.53877 
L 249.357694 258.179662 
L 174.678672 309.215476 
L 156.699251 324.505258 
L 139.328583 360.251291 
L 149.799544 360.251291 
z
" style="fill:#1e9d89;"/>
   </g>
   <g id="PathCollection_17">
    <path clip-path="url(#p038fd66925)" d="M 156.699251 360.251291 
L 162.607577 360.251291 
L 213.102877 309.215476 
L 263.085836 269.416543 
L 319.040254 258.179662 
L 343.564181 249.251128 
L 343.564181 235.787457 
L 268.191363 258.179662 
L 263.085836 258.995478 
L 195.473094 309.215476 
L 156.699251 345.409568 
L 149.799544 360.251291 
z
" style="fill:#21a585;"/>
   </g>
   <g id="PathCollection_18">
    <path clip-path="url(#p038fd66925)" d="M 228.405234 309.215476 
L 263.085836 279.837607 
L 343.564181 261.36898 
L 343.564181 258.179662 
L 343.564181 249.251128 
L 319.040254 258.179662 
L 263.085836 269.416543 
L 213.102877 309.215476 
L 162.607577 360.251291 
L 180.943195 360.251291 
z
" style="fill:#28ae80;"/>
   </g>
   <g id="PathCollection_19">
    <path clip-path="url(#p038fd66925)" d="M 241.923631 309.215476 
L 263.085836 290.258672 
L 343.564181 270.837256 
L 343.564181 261.36898 
L 263.085836 279.837607 
L 228.405234 309.215476 
L 180.943195 360.251291 
L 196.774255 360.251291 
z
" style="fill:#34b679;"/>
   </g>
   <g id="PathCollection_20">
    <path clip-path="url(#p038fd66925)" d="M 254.030926 309.215476 
L 263.085836 300.679737 
L 343.564181 280.305531 
L 343.564181 270.837256 
L 263.085836 290.258672 
L 241.923631 309.215476 
L 196.774255 360.251291 
L 210.70347 360.251291 
z
" style="fill:#42be71;"/>
   </g>
   <g id="PathCollection_21">
    <path clip-path="url(#p038fd66925)" d="M 263.085836 311.401362 
L 272.126002 309.215476 
L 343.564181 289.773807 
L 343.564181 280.305531 
L 263.085836 300.679737 
L 254.030926 309.215476 
L 210.70347 360.251291 
L 223.139174 360.251291 
z
" style="fill:#54c568;"/>
   </g>
   <g id="PathCollection_22">
    <path clip-path="url(#p038fd66925)" d="M 263.085836 323.483759 
L 312.35159 309.215476 
L 343.564181 299.242082 
L 343.564181 289.773807 
L 272.126002 309.215476 
L 263.085836 311.401362 
L 223.139174 360.251291 
L 234.370851 360.251291 
z
" style="fill:#67cc5c;"/>
   </g>
   <g id="PathCollection_23">
    <path clip-path="url(#p038fd66925)" d="M 263.085836 335.566156 
L 342.169686 309.215476 
L 343.564181 308.710358 
L 343.564181 299.242082 
L 312.35159 309.215476 
L 263.085836 323.483759 
L 234.370851 360.251291 
L 244.611206 360.251291 
z
" style="fill:#7cd250;"/>
   </g>
   <g id="PathCollection_24">
    <path clip-path="url(#p038fd66925)" d="M 263.085836 347.648553 
L 343.564181 319.478918 
L 343.564181 309.215476 
L 343.564181 308.710358 
L 342.169686 309.215476 
L 263.085836 335.566156 
L 244.611206 360.251291 
L 254.021125 360.251291 
z
" style="fill:#93d741;"/>
   </g>
   <g id="PathCollection_25">
    <path clip-path="url(#p038fd66925)" d="M 263.085836 359.73095 
L 343.564181 330.320755 
L 343.564181 319.478918 
L 263.085836 347.648553 
L 254.021125 360.251291 
L 262.725251 360.251291 
z
" style="fill:#addc30;"/>
   </g>
   <g id="PathCollection_26">
    <path clip-path="url(#p038fd66925)" d="M 263.085836 360.251291 
L 298.11244 360.251291 
L 343.564181 341.162592 
L 343.564181 330.320755 
L 263.085836 359.73095 
L 262.725251 360.251291 
z
" style="fill:#c5e021;"/>
   </g>
   <g id="PathCollection_27">
    <path clip-path="url(#p038fd66925)" d="M 343.564181 352.00443 
L 343.564181 341.162592 
L 298.11244 360.251291 
L 326.059548 360.251291 
z
" style="fill:#dde318;"/>
   </g>
   <g id="PathCollection_28">
    <path clip-path="url(#p038fd66925)" d="M 343.564181 360.251291 
L 343.564181 352.00443 
L 326.059548 360.251291 
z
" style="fill:#f4e61e;"/>
   </g>
   <g id="matplotlib.axis_1">
    <g id="xtick_1">
     <g id="line2d_1">
      <defs>
       <path d="M 0 0 
L 0 3.5 
" id="mb3bf2a7747" style="stroke:#000000;stroke-width:0.8;"/>
      </defs>
      <g>
       <use style="stroke:#000000;stroke-width:0.8;" x="76.220906" xlink:href="#mb3bf2a7747" y="360.251291"/>
      </g>
     </g>
     <g id="text_1">
      <!-- 0.001 -->
      <defs>
       <path d="M 43.09375 32.390625 
C 43.09375 38.109375 43 48.75 38.90625 56.984375 
C 34.796875 64.890625 28.203125 67 23.5 67 
C 16.703125 67 10.90625 62.984375 7.90625 56.578125 
C 4.703125 49.859375 3.796875 42.9375 3.796875 32.390625 
C 3.796875 25.171875 4.09375 16.34375 7.703125 8.609375 
C 11.796875 0.09375 18.703125 -2 23.40625 -2 
C 29.59375 -2 35.59375 1.296875 39 8.203125 
C 42.5 15.4375 43.09375 23.359375 43.09375 32.390625 
z
M 23.40625 4.09375 
C 15.796875 4.09375 13.5 12.828125 12.796875 15.734375 
C 11.59375 20.75 11.40625 25.5625 11.40625 33.5 
C 11.40625 39.71875 11.40625 46.75 13.296875 52.265625 
C 15.59375 58.6875 19.59375 60.890625 23.40625 60.890625 
C 30.796875 60.890625 33.203125 53.46875 34 50.859375 
C 35.5 45.546875 35.5 39.3125 35.5 33.5 
C 35.5 24.15625 35.5 4.09375 23.40625 4.09375 
z
" id="CMSS17-48"/>
       <path d="M 17 8 
L 9 8 
L 9 0 
L 17 0 
z
" id="CMSS17-46"/>
       <path d="M 28.40625 67 
L 26.5 67 
C 21.09375 61.703125 14.796875 60.96875 8.40625 60.796875 
L 8.40625 55 
C 11.296875 55.09375 16 55.296875 20.703125 57.390625 
L 20.703125 5.796875 
L 8.90625 5.796875 
L 8.90625 0 
L 40.203125 0 
L 40.203125 5.796875 
L 28.40625 5.796875 
z
" id="CMSS17-49"/>
      </defs>
      <g transform="translate(54.881047 381.088287)scale(0.2 -0.2)">
       <use transform="scale(0.996264)" xlink:href="#CMSS17-48"/>
       <use transform="translate(46.843624 0)scale(0.996264)" xlink:href="#CMSS17-46"/>
       <use transform="translate(72.867828 0)scale(0.996264)" xlink:href="#CMSS17-48"/>
       <use transform="translate(119.711452 0)scale(0.996264)" xlink:href="#CMSS17-48"/>
       <use transform="translate(166.555075 0)scale(0.996264)" xlink:href="#CMSS17-49"/>
      </g>
     </g>
    </g>
    <g id="xtick_2">
     <g id="line2d_2">
      <g>
       <use style="stroke:#000000;stroke-width:0.8;" x="156.699251" xlink:href="#mb3bf2a7747" y="360.251291"/>
      </g>
     </g>
     <g id="text_2">
      <!-- 0.002 -->
      <defs>
       <path d="M 25.796875 21.140625 
C 28.59375 24.03125 32.796875 27.515625 35.703125 31 
C 38.5 34.390625 42.203125 39.171875 42.203125 46.140625 
C 42.203125 57.109375 34.796875 67 22.203125 67 
C 12.296875 67 6.59375 60.796875 3.90625 51.125 
L 7.796875 45.75 
C 10 54.8125 13.09375 60.59375 20.90625 60.59375 
C 29.5 60.59375 34.296875 53.609375 34.296875 45.9375 
C 34.296875 36.78125 27.296875 29.703125 22 24.421875 
C 16.09375 18.546875 10.296875 12.578125 4.703125 6.390625 
L 4.703125 0 
L 42.203125 0 
L 42.203125 6.796875 
L 25.203125 6.796875 
C 24 6.796875 22.796875 6.6875 21.59375 6.6875 
L 11.59375 6.6875 
L 11.59375 6.796875 
z
" id="CMSS17-50"/>
      </defs>
      <g transform="translate(135.359392 381.088287)scale(0.2 -0.2)">
       <use transform="scale(0.996264)" xlink:href="#CMSS17-48"/>
       <use transform="translate(46.843624 0)scale(0.996264)" xlink:href="#CMSS17-46"/>
       <use transform="translate(72.867828 0)scale(0.996264)" xlink:href="#CMSS17-48"/>
       <use transform="translate(119.711452 0)scale(0.996264)" xlink:href="#CMSS17-48"/>
       <use transform="translate(166.555075 0)scale(0.996264)" xlink:href="#CMSS17-50"/>
      </g>
     </g>
    </g>
    <g id="xtick_3">
     <g id="line2d_3">
      <g>
       <use style="stroke:#000000;stroke-width:0.8;" x="263.085836" xlink:href="#mb3bf2a7747" y="360.251291"/>
      </g>
     </g>
     <g id="text_3">
      <!-- 0.005 -->
      <defs>
       <path d="M 14.59375 59.59375 
L 39.09375 59.59375 
L 39.09375 66 
L 7.296875 66 
L 7.296875 28.59375 
L 14 28.59375 
C 15.796875 32.859375 19.5 36 24.296875 36 
C 28.796875 36 33.796875 31.9375 33.796875 20.296875 
C 33.796875 7.84375 26.703125 4.1875 21.5 4.1875 
C 15.09375 4.1875 9.203125 8.140625 6.59375 13.609375 
L 3.40625 7.9375 
C 8 0.796875 15.5 -2 21.5 -2 
C 33.09375 -2 42.203125 7.9375 42.203125 20.09375 
C 42.203125 32.546875 34.09375 42.09375 24.40625 42.09375 
C 20.90625 42.09375 17.5 40.890625 14.59375 38.5 
z
" id="CMSS17-53"/>
      </defs>
      <g transform="translate(241.745977 381.088287)scale(0.2 -0.2)">
       <use transform="scale(0.996264)" xlink:href="#CMSS17-48"/>
       <use transform="translate(46.843624 0)scale(0.996264)" xlink:href="#CMSS17-46"/>
       <use transform="translate(72.867828 0)scale(0.996264)" xlink:href="#CMSS17-48"/>
       <use transform="translate(119.711452 0)scale(0.996264)" xlink:href="#CMSS17-48"/>
       <use transform="translate(166.555075 0)scale(0.996264)" xlink:href="#CMSS17-53"/>
      </g>
     </g>
    </g>
    <g id="xtick_4">
     <g id="line2d_4">
      <g>
       <use style="stroke:#000000;stroke-width:0.8;" x="343.564181" xlink:href="#mb3bf2a7747" y="360.251291"/>
      </g>
     </g>
     <g id="text_4">
      <!-- 0.010 -->
      <g transform="translate(322.224322 381.088287)scale(0.2 -0.2)">
       <use transform="scale(0.996264)" xlink:href="#CMSS17-48"/>
       <use transform="translate(46.843624 0)scale(0.996264)" xlink:href="#CMSS17-46"/>
       <use transform="translate(72.867828 0)scale(0.996264)" xlink:href="#CMSS17-48"/>
       <use transform="translate(119.711452 0)scale(0.996264)" xlink:href="#CMSS17-49"/>
       <use transform="translate(166.555075 0)scale(0.996264)" xlink:href="#CMSS17-48"/>
      </g>
     </g>
    </g>
    <g id="xtick_5">
     <g id="line2d_5">
      <defs>
       <path d="M 0 0 
L 0 2 
" id="m4024790d96" style="stroke:#000000;stroke-width:0.6;"/>
      </defs>
      <g>
       <use style="stroke:#000000;stroke-width:0.6;" x="156.699251" xlink:href="#m4024790d96" y="360.251291"/>
      </g>
     </g>
    </g>
    <g id="xtick_6">
     <g id="line2d_6">
      <g>
       <use style="stroke:#000000;stroke-width:0.6;" x="203.776065" xlink:href="#m4024790d96" y="360.251291"/>
      </g>
     </g>
    </g>
    <g id="xtick_7">
     <g id="line2d_7">
      <g>
       <use style="stroke:#000000;stroke-width:0.6;" x="237.177596" xlink:href="#m4024790d96" y="360.251291"/>
      </g>
     </g>
    </g>
    <g id="xtick_8">
     <g id="line2d_8">
      <g>
       <use style="stroke:#000000;stroke-width:0.6;" x="263.085836" xlink:href="#m4024790d96" y="360.251291"/>
      </g>
     </g>
    </g>
    <g id="xtick_9">
     <g id="line2d_9">
      <g>
       <use style="stroke:#000000;stroke-width:0.6;" x="284.25441" xlink:href="#m4024790d96" y="360.251291"/>
      </g>
     </g>
    </g>
    <g id="xtick_10">
     <g id="line2d_10">
      <g>
       <use style="stroke:#000000;stroke-width:0.6;" x="302.152184" xlink:href="#m4024790d96" y="360.251291"/>
      </g>
     </g>
    </g>
    <g id="xtick_11">
     <g id="line2d_11">
      <g>
       <use style="stroke:#000000;stroke-width:0.6;" x="317.655941" xlink:href="#m4024790d96" y="360.251291"/>
      </g>
     </g>
    </g>
    <g id="xtick_12">
     <g id="line2d_12">
      <g>
       <use style="stroke:#000000;stroke-width:0.6;" x="331.331224" xlink:href="#m4024790d96" y="360.251291"/>
      </g>
     </g>
    </g>
    <g id="text_5">
     <!-- lncRNA concentration ($\phi^{avg}_R$) -->
     <defs>
      <path d="M 14.796875 69 
L 7.40625 69 
L 7.40625 0 
L 14.796875 0 
z
" id="CMSS17-108"/>
      <path d="M 40.90625 29.34375 
C 40.90625 35.671875 39.40625 44 28.09375 44 
C 21.703125 44 17.5 40.6875 14.703125 37.28125 
L 14.703125 43.484375 
L 7.40625 43.484375 
L 7.40625 0 
L 15 0 
L 15 24.3125 
C 15 30.65625 17.40625 37.890625 24.203125 37.890625 
C 33 37.890625 33.296875 31.953125 33.296875 28.53125 
L 33.296875 0 
L 40.90625 0 
z
" id="CMSS17-110"/>
      <path d="M 38.5 39.6875 
C 38.5 40.390625 33.90625 42.390625 32.703125 42.796875 
C 29.40625 44 25.203125 44 24.09375 44 
C 11.09375 44 3.296875 32.6875 3.296875 21.296875 
C 3.296875 9.296875 12 -1 23.703125 -1 
C 30.40625 -1 35.203125 1.1875 39.09375 3.796875 
L 38.5 10.390625 
C 34.203125 7.09375 29.203125 5.296875 23.796875 5.296875 
C 16 5.296875 10.90625 12.09375 10.90625 21.390625 
C 10.90625 28.59375 14.203125 37.6875 24.203125 37.6875 
C 29.703125 37.6875 32.796875 36.59375 37.40625 33.484375 
z
" id="CMSS17-99"/>
      <path d="M 39.40625 32.796875 
L 39.59375 32.890625 
C 55.203125 38.28125 55.296875 48.828125 55.296875 50.6875 
C 55.296875 59.96875 45.703125 69 31.296875 69 
L 8.90625 69 
L 8.90625 0 
L 17.09375 0 
L 17.09375 31.890625 
L 31.796875 31.890625 
L 49.5 0 
L 57.90625 0 
z
M 17.09375 38 
L 17.09375 63.390625 
L 30.203125 63.390625 
C 42.90625 63.390625 47.40625 56.359375 47.40625 50.6875 
C 47.40625 45.421875 43.40625 38 30.203125 38 
z
" id="CMSS17-82"/>
      <path d="M 22.90625 65.296875 
L 21.09375 69 
L 8.796875 69 
L 8.796875 0 
L 16.59375 0 
L 16.59375 61.328125 
L 16.703125 61.421875 
C 17.40625 59.640625 17.796875 58.734375 21.90625 49.890625 
L 43.296875 3.6875 
L 45.09375 0 
L 57.40625 0 
L 57.40625 69 
L 49.59375 69 
L 49.59375 7.65625 
L 49.5 7.5625 
C 48.796875 9.34375 48.40625 10.234375 44.296875 19.09375 
z
" id="CMSS17-78"/>
      <path d="M 35.5 69 
L 26.90625 69 
L 2.59375 0 
L 10.203125 0 
L 17.203125 20 
L 44 20 
L 51.09375 0 
L 59.796875 0 
z
M 42.09375 25.59375 
L 19.09375 25.59375 
C 23.90625 39.53125 29.90625 56.84375 30.59375 61.3125 
L 30.703125 61.3125 
C 31.40625 57.234375 33.40625 51.265625 35.09375 46.1875 
z
" id="CMSS17-65"/>
      <path d="M 44.203125 21.1875 
C 44.203125 33.984375 34.703125 44 23.5 44 
C 12 44 2.703125 33.6875 2.703125 21.1875 
C 2.703125 8.5 12.296875 -1 23.40625 -1 
C 34.796875 -1 44.203125 8.796875 44.203125 21.1875 
z
M 23.5 5.296875 
C 16.40625 5.296875 10.296875 11.09375 10.296875 21.984375 
C 10.296875 33.59375 17.40625 37.890625 23.40625 37.890625 
C 29.90625 37.890625 36.59375 33.1875 36.59375 21.984375 
C 36.59375 10.6875 30.09375 5.296875 23.5 5.296875 
z
" id="CMSS17-111"/>
      <path d="M 39.09375 21.484375 
C 39.09375 24.796875 38.90625 31.265625 35.703125 36.671875 
C 32.203125 42.390625 26.5 44 22.203125 44 
C 11.796875 44 3 34.125 3 21.296875 
C 3 9.046875 12.09375 -1 23.59375 -1 
C 28.09375 -1 33.59375 0.296875 38.59375 3.890625 
C 38.59375 4.296875 38.40625 6.46875 38.296875 6.578125 
C 38.296875 6.765625 38 9.828125 38 10.234375 
C 33.203125 6.375 27.703125 5.09375 23.703125 5.09375 
C 17.296875 5.09375 10.40625 10.421875 10.09375 21.484375 
z
M 10.90625 27 
C 12.203125 32.59375 16.59375 37.890625 22.203125 37.890625 
C 23.703125 37.890625 30.703125 37.6875 32.5 27 
z
" id="CMSS17-101"/>
      <path d="M 16.703125 37.1875 
L 29.703125 37.1875 
L 29.703125 43 
L 16.703125 43 
L 16.703125 55 
L 9.59375 55 
L 9.59375 43 
L 1.703125 43 
L 1.703125 37.1875 
L 9.40625 37.1875 
L 9.40625 11.734375 
C 9.40625 6 10.703125 -1 17.296875 -1 
C 22.296875 -1 26.90625 0.390625 31.296875 2.6875 
L 29.703125 8.609375 
C 27.296875 6.5 24.40625 5.296875 21.296875 5.296875 
C 16.90625 5.296875 16.703125 10.921875 16.703125 13.4375 
z
" id="CMSS17-116"/>
      <path d="M 14.90625 21.390625 
C 14.90625 30.84375 21.796875 37.171875 30.59375 37.375 
L 30.59375 44 
C 24.203125 43.890625 18.203125 40.6875 14.59375 35.46875 
L 14.59375 43.484375 
L 7.5 43.484375 
L 7.5 0 
L 14.90625 0 
z
" id="CMSS17-114"/>
      <path d="M 37.59375 27.953125 
C 37.59375 37.484375 30.90625 44 21.90625 44 
C 17.5 44 12.703125 43.1875 7.203125 39.984375 
L 7.796875 33.328125 
C 10.296875 35.15625 14.59375 38.09375 21.796875 38.09375 
C 26.90625 38.09375 30 34.140625 30 27.84375 
L 30 24 
C 14 23.5 4 18.890625 4 11.109375 
C 4 7.0625 6.5 -1 14.796875 -1 
C 16.296875 -1 24.40625 -0.8125 30.203125 3.5 
L 30.203125 -0.203125 
L 37.59375 -0.203125 
z
M 30 12.875 
C 30 11.109375 30 8.734375 27 6.96875 
C 24.40625 5.296875 21.09375 5.09375 19.703125 5.09375 
C 14.703125 5.09375 11.296875 7.859375 11.296875 11.296875 
C 11.296875 18.203125 26.90625 18.890625 30 19 
z
" id="CMSS17-97"/>
      <path d="M 15.296875 66 
L 6.90625 66 
L 6.90625 57.59375 
L 15.296875 57.59375 
z
M 14.796875 43 
L 7.40625 43 
L 7.40625 0 
L 14.796875 0 
z
" id="CMSS17-105"/>
      <path d="M 25.203125 75 
C 19.796875 69.484375 7.40625 56.671875 7.40625 25.046875 
C 7.40625 -6.6875 19.796875 -19.40625 25.203125 -25 
L 31.296875 -25 
C 19 -12.203125 15 5.71875 15 24.9375 
C 15 44.0625 18.796875 62.078125 31.296875 75 
z
" id="CMSS17-40"/>
      <path d="M 43 68.09375 
C 43 69 42.296875 69 42 69 
C 41.09375 69 41 68.796875 40.59375 67.09375 
L 35.203125 45.6875 
C 34.90625 44.390625 34.796875 44.296875 34.703125 44.1875 
C 34.59375 44 33.90625 43.890625 33.703125 43.890625 
C 17.296875 42.5 4.703125 29.109375 4.703125 16.734375 
C 4.703125 6.046875 13 -0.5 23.40625 -1.109375 
C 22.59375 -4.15625 21.90625 -7.296875 21.09375 -10.34375 
C 19.703125 -15.546875 18.90625 -18.8125 18.90625 -19.203125 
C 18.90625 -19.40625 18.90625 -20 19.90625 -20 
C 20.203125 -20 20.59375 -20 20.796875 -19.609375 
C 21 -19.40625 21.59375 -17.015625 22 -15.75 
L 25.703125 -1.109375 
C 42.796875 -0.203125 55.796875 13.671875 55.796875 26.140625 
C 55.796875 36.140625 48.203125 43.296875 37.09375 44 
z
M 36.5 42 
C 43.09375 41.59375 49.703125 37.9375 49.703125 28.21875 
C 49.703125 17.03125 41.796875 2.1875 26.203125 1 
z
M 23.90625 0.890625 
C 19 1.1875 10.796875 3.765625 10.796875 14.65625 
C 10.796875 27.140625 19.90625 41 34.296875 41.890625 
z
" id="CMMI12-30"/>
      <path d="M 30.09375 11.859375 
C 29.59375 10.171875 29.59375 9.96875 28.203125 8.078125 
C 26 5.28125 21.59375 1 16.90625 1 
C 12.796875 1 10.5 4.6875 10.5 10.5625 
C 10.5 16.0625 13.59375 27.234375 15.5 31.421875 
C 18.90625 38.40625 23.59375 41.984375 27.5 41.984375 
C 34.09375 41.984375 35.40625 33.8125 35.40625 33.015625 
C 35.40625 32.921875 35.09375 31.625 35 31.421875 
z
M 36.5 37.40625 
C 35.40625 40 32.703125 44 27.5 44 
C 16.203125 44 4 29.421875 4 14.65625 
C 4 4.78125 9.796875 -1 16.59375 -1 
C 22.09375 -1 26.796875 3.28125 29.59375 6.578125 
C 30.59375 0.6875 35.296875 -1 38.296875 -1 
C 41.296875 -1 43.703125 0.796875 45.5 4.375 
C 47.09375 7.75 48.5 13.828125 48.5 14.21875 
C 48.5 14.71875 48.09375 15.125 47.5 15.125 
C 46.59375 15.125 46.5 14.625 46.09375 13.125 
C 44.59375 7.265625 42.703125 1 38.59375 1 
C 35.703125 1 35.5 3.578125 35.5 5.5625 
C 35.5 7.859375 35.796875 8.953125 36.703125 12.828125 
C 37.40625 15.3125 37.90625 17.5 38.703125 20.390625 
C 42.40625 35.3125 43.296875 38.890625 43.296875 39.5 
C 43.296875 40.890625 42.203125 42 40.703125 42 
C 37.5 42 36.703125 38.5 36.5 37.3125 
z
" id="CMMI12-97"/>
      <path d="M 45.703125 37.3125 
C 45.703125 43.59375 42.5 44 41.703125 44 
C 39.296875 44 37.09375 41.59375 37.09375 39.59375 
C 37.09375 38.40625 37.796875 37.703125 38.203125 37.3125 
C 39.203125 36.40625 41.796875 33.71875 41.796875 28.53125 
C 41.796875 24.34375 35.796875 1 23.796875 1 
C 17.703125 1 16.5 6.078125 16.5 9.765625 
C 16.5 14.765625 18.796875 21.75 21.5 28.921875 
C 23.09375 33.015625 23.5 34.015625 23.5 36.015625 
C 23.5 40.203125 20.5 44 15.59375 44 
C 6.40625 44 2.703125 29.53125 2.703125 28.71875 
C 2.703125 28.328125 3.09375 27.828125 3.796875 27.828125 
C 4.703125 27.828125 4.796875 28.234375 5.203125 29.625 
C 7.59375 38.203125 11.5 41.984375 15.296875 41.984375 
C 16.203125 41.984375 17.90625 41.984375 17.90625 38.703125 
C 17.90625 36.109375 16.796875 33.21875 15.296875 29.421875 
C 10.5 16.65625 10.5 13.5625 10.5 11.171875 
C 10.5 8.96875 10.796875 4.890625 13.90625 2.09375 
C 17.5 -1 22.5 -1 23.40625 -1 
C 40 -1 45.703125 31.625 45.703125 37.3125 
z
" id="CMMI12-118"/>
      <path d="M 33.796875 12.671875 
C 33.40625 11.0625 33.203125 10.671875 31.90625 9.171875 
C 27.796875 3.890625 23.59375 2 20.5 2 
C 17.203125 2 14.09375 4.578125 14.09375 11.46875 
C 14.09375 16.75 17.09375 27.921875 19.296875 32.421875 
C 22.203125 38 26.703125 41.984375 30.90625 41.984375 
C 37.5 41.984375 38.796875 33.8125 38.796875 33.21875 
L 38.5 31.8125 
z
M 40 37.40625 
C 38.703125 40.296875 35.90625 44 30.90625 44 
C 20 44 7.59375 30.328125 7.59375 15.453125 
C 7.59375 5.078125 13.90625 0 20.296875 0 
C 25.59375 0 30.296875 4.1875 32.09375 6.1875 
L 29.90625 -2.75 
C 28.5 -8.125 27.90625 -10.578125 24.296875 -14 
C 20.203125 -18 16.40625 -18 14.203125 -18 
C 11.203125 -18 8.703125 -17.8125 6.203125 -17.03125 
C 9.40625 -16.15625 10.203125 -13.40625 10.203125 -12.328125 
C 10.203125 -10.765625 9 -9.203125 6.796875 -9.203125 
C 4.40625 -9.203125 1.796875 -11.15625 1.796875 -14.390625 
C 1.796875 -18.40625 5.90625 -20 14.40625 -20 
C 27.296875 -20 34 -11.84375 35.296875 -6.5625 
L 46.40625 37.90625 
C 46.703125 39.09375 46.703125 39.296875 46.703125 39.5 
C 46.703125 40.890625 45.59375 42 44.09375 42 
C 41.703125 42 40.296875 40 40 37.3125 
z
" id="CMMI12-103"/>
      <path d="M 36.796875 61.203125 
C 37.703125 64.890625 38.09375 65.09375 42 65.09375 
L 49.203125 65.09375 
C 57.796875 65.09375 64.203125 62.5 64.203125 54.734375 
C 64.203125 49.640625 61.59375 35 41.5 35 
L 30.203125 35 
z
M 50.703125 33.796875 
C 63.09375 36.484375 72.796875 44.46875 72.796875 53.03125 
C 72.796875 60.8125 64.90625 68 51 68 
L 23.90625 68 
C 21.90625 68 21 68 21 66.09375 
C 21 65.09375 21.703125 65.09375 23.59375 65.09375 
C 29.59375 65.09375 29.59375 64.296875 29.59375 63.203125 
C 29.59375 63 29.59375 62.40625 29.203125 60.90625 
L 15.703125 7.421875 
C 14.796875 3.953125 14.59375 2.96875 7.703125 2.96875 
C 5.40625 2.96875 4.703125 2.96875 4.703125 1.078125 
C 4.703125 0.09375 5.796875 0.09375 6.09375 0.09375 
C 7.90625 0.09375 10 0.296875 11.90625 0.296875 
L 23.703125 0.296875 
C 25.5 0.296875 27.59375 0.09375 29.40625 0.09375 
C 30.203125 0.09375 31.296875 0.09375 31.296875 1.96875 
C 31.296875 2.96875 30.40625 2.96875 28.90625 2.96875 
C 22.796875 2.96875 22.796875 3.765625 22.796875 4.75 
C 22.796875 4.84375 22.796875 5.546875 23 6.328125 
L 29.703125 33 
L 41.703125 33 
C 51.203125 33 53 27.046875 53 23.78125 
C 53 22.28125 52 18.421875 51.296875 15.84375 
C 50.203125 11.296875 49.90625 10.203125 49.90625 8.3125 
C 49.90625 1.28125 55.703125 -2 62.40625 -2 
C 70.5 -2 74 7.828125 74 9.203125 
C 74 9.90625 73.5 10.203125 72.90625 10.203125 
C 72.09375 10.203125 71.90625 9.609375 71.703125 8.8125 
C 69.296875 1.78125 65.203125 0 62.703125 0 
C 60.203125 0 58.59375 1.078125 58.59375 5.546875 
C 58.59375 7.921875 59.796875 16.9375 59.90625 17.4375 
C 60.40625 21.09375 60.40625 21.5 60.40625 22.28125 
C 60.40625 29.515625 54.5 32.59375 50.703125 33.796875 
z
" id="CMMI12-82"/>
      <path d="M 11.296875 -25 
C 16.703125 -19.5 29.09375 -6.6875 29.09375 24.9375 
C 29.09375 56.671875 16.703125 69.375 11.296875 75 
L 5.203125 75 
C 17.5 62.171875 21.5 44.265625 21.5 25.046875 
C 21.5 5.921875 17.703125 -12.09375 5.203125 -25 
z
" id="CMSS17-41"/>
     </defs>
     <g transform="translate(96.620157 406.524366)scale(0.2 -0.2)">
      <use transform="translate(0 29.278481)scale(0.996264)" xlink:href="#CMSS17-108"/>
      <use transform="translate(22.180723 29.278481)scale(0.996264)" xlink:href="#CMSS17-110"/>
      <use transform="translate(70.385666 29.278481)scale(0.996264)" xlink:href="#CMSS17-99"/>
      <use transform="translate(112.024488 29.278481)scale(0.996264)" xlink:href="#CMSS17-82"/>
      <use transform="translate(172.440643 29.278481)scale(0.996264)" xlink:href="#CMSS17-78"/>
      <use transform="translate(238.502162 29.278481)scale(0.996264)" xlink:href="#CMSS17-65"/>
      <use transform="translate(331.94913 29.278481)scale(0.996264)" xlink:href="#CMSS17-99"/>
      <use transform="translate(373.587952 29.278481)scale(0.996264)" xlink:href="#CMSS17-111"/>
      <use transform="translate(420.431576 29.278481)scale(0.996264)" xlink:href="#CMSS17-110"/>
      <use transform="translate(468.636519 29.278481)scale(0.996264)" xlink:href="#CMSS17-99"/>
      <use transform="translate(510.275341 29.278481)scale(0.996264)" xlink:href="#CMSS17-101"/>
      <use transform="translate(551.914163 29.278481)scale(0.996264)" xlink:href="#CMSS17-110"/>
      <use transform="translate(600.119106 29.278481)scale(0.996264)" xlink:href="#CMSS17-116"/>
      <use transform="translate(633.950673 29.278481)scale(0.996264)" xlink:href="#CMSS17-114"/>
      <use transform="translate(665.860445 29.278481)scale(0.996264)" xlink:href="#CMSS17-97"/>
      <use transform="translate(710.782366 29.278481)scale(0.996264)" xlink:href="#CMSS17-116"/>
      <use transform="translate(744.613932 29.278481)scale(0.996264)" xlink:href="#CMSS17-105"/>
      <use transform="translate(766.794656 29.278481)scale(0.996264)" xlink:href="#CMSS17-111"/>
      <use transform="translate(813.638279 29.278481)scale(0.996264)" xlink:href="#CMSS17-110"/>
      <use transform="translate(893.072335 29.278481)scale(0.996264)" xlink:href="#CMSS17-40"/>
      <use transform="translate(929.506249 29.278481)scale(0.996264)" xlink:href="#CMMI12-30"/>
      <use transform="translate(987.24043 77.154351)scale(0.697382)" xlink:href="#CMMI12-97"/>
      <use transform="translate(1023.085776 77.154351)scale(0.697382)" xlink:href="#CMMI12-118"/>
      <use transform="translate(1058.600226 77.154351)scale(0.697382)" xlink:href="#CMMI12-103"/>
      <use transform="translate(987.24043 0)scale(0.697382)" xlink:href="#CMMI12-82"/>
      <use transform="translate(1094.298039 29.278481)scale(0.996264)" xlink:href="#CMSS17-41"/>
     </g>
    </g>
   </g>
   <g id="matplotlib.axis_2">
    <g id="ytick_1">
     <g id="line2d_13">
      <defs>
       <path d="M 0 0 
L -3.5 0 
" id="mf3efb3d0c9" style="stroke:#000000;stroke-width:0.8;"/>
      </defs>
      <g>
       <use style="stroke:#000000;stroke-width:0.8;" x="76.220906" xlink:href="#mf3efb3d0c9" y="334.733384"/>
      </g>
     </g>
     <g id="text_6">
      <!-- $0.6$ -->
      <defs>
       <path d="M 42 31.84375 
C 42 37.96875 41.90625 48.421875 37.703125 56.453125 
C 34 63.484375 28.09375 66 22.90625 66 
C 18.09375 66 12 63.78125 8.203125 56.5625 
C 4.203125 49.015625 3.796875 39.671875 3.796875 31.84375 
C 3.796875 26.109375 3.90625 17.375 7 9.734375 
C 11.296875 -0.609375 19 -2 22.90625 -2 
C 27.5 -2 34.5 -0.109375 38.59375 9.4375 
C 41.59375 16.375 42 24.5 42 31.84375 
z
M 22.90625 -0.40625 
C 16.5 -0.40625 12.703125 5.125 11.296875 12.75 
C 10.203125 18.6875 10.203125 27.328125 10.203125 32.953125 
C 10.203125 40.6875 10.203125 47.109375 11.5 53.234375 
C 13.40625 61.78125 19 64.390625 22.90625 64.390625 
C 27 64.390625 32.296875 61.671875 34.203125 53.4375 
C 35.5 47.71875 35.59375 40.984375 35.59375 32.953125 
C 35.59375 26.421875 35.59375 18.375 34.40625 12.453125 
C 32.296875 1.5 26.40625 -0.40625 22.90625 -0.40625 
z
" id="CMR17-48"/>
       <path d="M 18.40625 4.796875 
C 18.40625 7.6875 16 9.6875 13.59375 9.6875 
C 10.703125 9.6875 8.703125 7.296875 8.703125 4.890625 
C 8.703125 2 11.09375 0 13.5 0 
C 16.40625 0 18.40625 2.390625 18.40625 4.796875 
z
" id="CMMI12-58"/>
       <path d="M 10.59375 34.34375 
C 10.59375 58 21.796875 63.6875 28.296875 63.6875 
C 30.40625 63.6875 35.5 63.265625 37.5 59.09375 
C 35.90625 59.09375 32.90625 59.09375 32.90625 55.59375 
C 32.90625 52.890625 35.09375 52 36.5 52 
C 37.40625 52 40.09375 52.390625 40.09375 55.796875 
C 40.09375 62.296875 35.09375 66 28.203125 66 
C 16.296875 66 3.796875 53.296875 3.796875 31.421875 
C 3.796875 4.015625 15.09375 -2 23.09375 -2 
C 32.796875 -2 42 6.734375 42 20.234375 
C 42 32.828125 33.90625 42 23.703125 42 
C 17.59375 42 13.09375 37.96875 10.59375 30.921875 
z
M 23.09375 0.390625 
C 10.796875 0.390625 10.796875 18.9375 10.796875 22.65625 
C 10.796875 29.90625 14.203125 40.390625 23.5 40.390625 
C 25.203125 40.390625 30.09375 40.390625 33.40625 33.4375 
C 35.203125 29.515625 35.203125 25.375 35.203125 20.34375 
C 35.203125 14.90625 35.203125 10.875 33.09375 6.84375 
C 30.90625 2.703125 27.703125 0.390625 23.09375 0.390625 
z
" id="CMR17-54"/>
      </defs>
      <g transform="translate(45.52528 341.651882)scale(0.2 -0.2)">
       <use transform="scale(0.996264)" xlink:href="#CMR17-48"/>
       <use transform="translate(45.690477 0)scale(0.996264)" xlink:href="#CMMI12-58"/>
       <use transform="translate(72.787654 0)scale(0.996264)" xlink:href="#CMR17-54"/>
      </g>
     </g>
    </g>
    <g id="ytick_2">
     <g id="line2d_14">
      <g>
       <use style="stroke:#000000;stroke-width:0.8;" x="76.220906" xlink:href="#mf3efb3d0c9" y="258.179662"/>
      </g>
     </g>
     <g id="text_7">
      <!-- $1.2$ -->
      <defs>
       <path d="M 26.59375 63.796875 
C 26.59375 65.890625 26.5 66 25.09375 66 
C 21.203125 61.359375 15.296875 59.890625 9.703125 59.6875 
C 9.40625 59.6875 8.90625 59.6875 8.796875 59.5 
C 8.703125 59.296875 8.703125 59.09375 8.703125 57 
C 11.796875 57 17 57.59375 21 59.984375 
L 21 7.296875 
C 21 3.796875 20.796875 2.59375 12.203125 2.59375 
L 9.203125 2.59375 
L 9.203125 0 
C 14 0.09375 19 0.1875 23.796875 0.1875 
C 28.59375 0.1875 33.59375 0.09375 38.40625 0 
L 38.40625 2.59375 
L 35.40625 2.59375 
C 26.796875 2.59375 26.59375 3.6875 26.59375 7.296875 
z
" id="CMR17-49"/>
       <path d="M 41.703125 15.46875 
L 39.90625 15.46875 
C 38.90625 8.390625 38.09375 7.1875 37.703125 6.59375 
C 37.203125 5.796875 30 5.796875 28.59375 5.796875 
L 9.40625 5.796875 
C 13 9.6875 20 16.765625 28.5 24.9375 
C 34.59375 30.71875 41.703125 37.5 41.703125 47.390625 
C 41.703125 59.1875 32.296875 66 21.796875 66 
C 10.796875 66 4.09375 56.296875 4.09375 47.296875 
C 4.09375 43.390625 7 42.890625 8.203125 42.890625 
C 9.203125 42.890625 12.203125 43.484375 12.203125 46.984375 
C 12.203125 50.09375 9.59375 51 8.203125 51 
C 7.59375 51 7 50.890625 6.59375 50.6875 
C 8.5 59.1875 14.296875 63.390625 20.40625 63.390625 
C 29.09375 63.390625 34.796875 56.5 34.796875 47.390625 
C 34.796875 38.703125 29.703125 31.21875 24 24.734375 
L 4.09375 2.296875 
L 4.09375 0 
L 39.296875 0 
z
" id="CMR17-50"/>
      </defs>
      <g transform="translate(45.52528 265.098161)scale(0.2 -0.2)">
       <use transform="scale(0.996264)" xlink:href="#CMR17-49"/>
       <use transform="translate(45.690477 0)scale(0.996264)" xlink:href="#CMMI12-58"/>
       <use transform="translate(72.787654 0)scale(0.996264)" xlink:href="#CMR17-50"/>
      </g>
     </g>
    </g>
    <g id="ytick_3">
     <g id="line2d_15">
      <g>
       <use style="stroke:#000000;stroke-width:0.8;" x="76.220906" xlink:href="#mf3efb3d0c9" y="181.625941"/>
      </g>
     </g>
     <g id="text_8">
      <!-- $1.8$ -->
      <defs>
       <path d="M 27.203125 35.765625 
C 33.5 38.96875 39.90625 43.796875 39.90625 51.53125 
C 39.90625 60.6875 31.09375 66 23 66 
C 13.90625 66 5.90625 59.375 5.90625 50.234375 
C 5.90625 47.71875 6.5 43.390625 10.40625 39.578125 
C 11.40625 38.578125 15.59375 35.5625 18.296875 33.65625 
C 13.796875 31.34375 3.296875 25.8125 3.296875 14.765625 
C 3.296875 4.40625 13.09375 -2 22.796875 -2 
C 33.5 -2 42.5 5.71875 42.5 15.96875 
C 42.5 25.109375 36.40625 29.328125 32.40625 32.046875 
z
M 14.09375 44.609375 
C 13.296875 45.109375 9.296875 48.21875 9.296875 52.9375 
C 9.296875 59.078125 15.59375 63.6875 22.796875 63.6875 
C 30.703125 63.6875 36.5 58.0625 36.5 51.53125 
C 36.5 42.1875 26.09375 36.859375 25.59375 36.859375 
C 25.5 36.859375 25.40625 36.859375 24.59375 37.46875 
z
M 32.5 24 
C 34 22.90625 38.796875 19.578125 38.796875 13.453125 
C 38.796875 6.015625 31.40625 0.390625 23 0.390625 
C 13.90625 0.390625 7 6.921875 7 14.859375 
C 7 22.796875 13.09375 29.4375 20 32.546875 
z
" id="CMR17-56"/>
      </defs>
      <g transform="translate(45.52528 188.544439)scale(0.2 -0.2)">
       <use transform="scale(0.996264)" xlink:href="#CMR17-49"/>
       <use transform="translate(45.690477 0)scale(0.996264)" xlink:href="#CMMI12-58"/>
       <use transform="translate(72.787654 0)scale(0.996264)" xlink:href="#CMR17-56"/>
      </g>
     </g>
    </g>
    <g id="ytick_4">
     <g id="line2d_16">
      <g>
       <use style="stroke:#000000;stroke-width:0.8;" x="76.220906" xlink:href="#mf3efb3d0c9" y="105.07222"/>
      </g>
     </g>
     <g id="text_9">
      <!-- $2.4$ -->
      <defs>
       <path d="M 33.59375 64.796875 
C 33.59375 66.890625 33.5 67 31.703125 67 
L 2 19.59375 
L 2 17 
L 27.796875 17 
L 27.796875 7.1875 
C 27.796875 3.59375 27.59375 2.59375 20.59375 2.59375 
L 18.703125 2.59375 
L 18.703125 0 
C 21.90625 0.1875 27.296875 0.1875 30.703125 0.1875 
C 34.09375 0.1875 39.5 0.1875 42.703125 0 
L 42.703125 2.59375 
L 40.796875 2.59375 
C 33.796875 2.59375 33.59375 3.59375 33.59375 7.1875 
L 33.59375 17 
L 43.796875 17 
L 43.796875 19.59375 
L 33.59375 19.59375 
z
M 28.09375 58.171875 
L 28.09375 19.59375 
L 4 19.59375 
z
" id="CMR17-52"/>
      </defs>
      <g transform="translate(45.52528 111.990718)scale(0.2 -0.2)">
       <use transform="scale(0.996264)" xlink:href="#CMR17-50"/>
       <use transform="translate(45.690477 0)scale(0.996264)" xlink:href="#CMMI12-58"/>
       <use transform="translate(72.787654 0)scale(0.996264)" xlink:href="#CMR17-52"/>
      </g>
     </g>
    </g>
    <g id="ytick_5">
     <g id="line2d_17">
      <g>
       <use style="stroke:#000000;stroke-width:0.8;" x="76.220906" xlink:href="#mf3efb3d0c9" y="28.518498"/>
      </g>
     </g>
     <g id="text_10">
      <!-- $3.0$ -->
      <defs>
       <path d="M 22.09375 34 
C 31 34 34.90625 26.140625 34.90625 17.09375 
C 34.90625 5.03125 28.5 0.390625 22.703125 0.390625 
C 17.40625 0.390625 8.796875 3.015625 6.09375 10.796875 
C 6.59375 10.59375 7.09375 10.59375 7.59375 10.59375 
C 10 10.59375 11.796875 12.1875 11.796875 14.796875 
C 11.796875 17.6875 9.59375 19 7.59375 19 
C 5.90625 19 3.296875 18.1875 3.296875 14.484375 
C 3.296875 5.234375 12.296875 -2 22.90625 -2 
C 34 -2 42.5 6.75 42.5 16.984375 
C 42.5 26.84375 34.5 34 25 35.09375 
C 32.59375 36.671875 39.90625 43.375 39.90625 52.390625 
C 39.90625 60.25 32 66 23 66 
C 13.90625 66 5.90625 60.34375 5.90625 52.296875 
C 5.90625 48.796875 8.5 48.1875 9.796875 48.1875 
C 11.90625 48.1875 13.703125 49.484375 13.703125 52.09375 
C 13.703125 54.6875 11.90625 56 9.796875 56 
C 9.40625 56 8.90625 56 8.5 55.796875 
C 11.40625 62.484375 19.296875 63.6875 22.796875 63.6875 
C 26.296875 63.6875 32.90625 61.96875 32.90625 52.296875 
C 32.90625 49.484375 32.5 44.546875 29.09375 40.21875 
C 26.09375 36.390625 22.703125 36.1875 19.40625 35.890625 
C 18.90625 35.890625 16.59375 35.6875 16.203125 35.6875 
C 15.5 35.59375 15.09375 35.5 15.09375 34.796875 
C 15.09375 34.09375 15.203125 34 17.203125 34 
z
" id="CMR17-51"/>
      </defs>
      <g transform="translate(45.52528 35.436997)scale(0.2 -0.2)">
       <use transform="scale(0.996264)" xlink:href="#CMR17-51"/>
       <use transform="translate(45.690477 0)scale(0.996264)" xlink:href="#CMMI12-58"/>
       <use transform="translate(72.787654 0)scale(0.996264)" xlink:href="#CMR17-48"/>
      </g>
     </g>
    </g>
    <g id="text_11">
     <!-- Distance ($L_P/\sigma$) -->
     <defs>
      <path d="M 8.90625 69 
L 8.90625 0 
L 33.5 0 
C 49.90625 0 62.5 15.328125 62.5 33.890625 
C 62.5 53.0625 49.90625 69 33.5 69 
z
M 17.09375 5.59375 
L 17.09375 63.390625 
L 31.296875 63.390625 
C 44.703125 63.390625 54.296875 51.171875 54.296875 33.890625 
C 54.296875 17.3125 44.796875 5.59375 31.296875 5.59375 
z
" id="CMSS17-68"/>
      <path d="M 32.203125 40.984375 
C 26.296875 43.796875 21.703125 44 18.703125 44 
C 11.59375 44 3.09375 41.484375 3.09375 31.390625 
C 3.09375 21.296875 14.09375 19.09375 17.09375 18.484375 
C 21.703125 17.59375 26.796875 16.59375 26.796875 11.59375 
C 26.796875 5.296875 19.59375 5.296875 18.296875 5.296875 
C 14.296875 5.296875 8.796875 6.390625 3.796875 9.984375 
L 2.59375 3.296875 
C 8.296875 0 13.796875 -1 18.40625 -1 
C 30.703125 -1 33.796875 6.5 33.796875 12.1875 
C 33.796875 17.09375 31 20.390625 29.09375 21.890625 
C 25.796875 24.484375 24.59375 24.796875 16.40625 26.484375 
C 15 26.6875 10.09375 27.796875 10.09375 32.296875 
C 10.09375 37.984375 16.40625 37.984375 17.796875 37.984375 
C 24.296875 37.984375 28.296875 35.984375 31 34.484375 
z
" id="CMSS17-115"/>
      <path d="M 36.703125 60.3125 
C 37.59375 64.09375 37.90625 65.09375 46.703125 65.09375 
C 49.40625 65.09375 50.09375 65.09375 50.09375 66.984375 
C 50.09375 68 49 68 48.59375 68 
C 46.59375 68 44.296875 67.796875 42.296875 67.796875 
L 28.90625 67.796875 
C 27 67.796875 24.796875 68 22.90625 68 
C 22.09375 68 21 68 21 66.09375 
C 21 65.09375 21.90625 65.09375 23.40625 65.09375 
C 29.5 65.09375 29.5 64.296875 29.5 63.203125 
C 29.5 63 29.5 62.40625 29.09375 60.90625 
L 15.59375 7.375 
C 14.703125 3.890625 14.5 2.890625 7.5 2.890625 
C 5.59375 2.890625 4.59375 2.890625 4.59375 1.09375 
C 4.59375 0 5.203125 0 7.203125 0 
L 52 0 
C 54.203125 0 54.296875 0.09375 55 1.890625 
L 62.703125 23.09375 
C 62.90625 23.59375 63.09375 24.1875 63.09375 24.484375 
C 63.09375 25.078125 62.59375 25.484375 62.09375 25.484375 
C 62 25.484375 61.5 25.484375 61.296875 25.078125 
C 61.09375 24.984375 61.09375 24.78125 60.296875 22.890625 
C 57.09375 14.140625 52.59375 2.890625 35.703125 2.890625 
L 26.09375 2.890625 
C 24.703125 2.890625 24.5 2.890625 23.90625 2.984375 
C 22.796875 3.09375 22.703125 3.296875 22.703125 4.09375 
C 22.703125 4.78125 22.90625 5.375 23.09375 6.28125 
z
" id="CMMI12-76"/>
      <path d="M 29.59375 31.59375 
L 46.40625 31.59375 
C 60.203125 31.59375 74 41.765625 74 53.125 
C 74 60.90625 67.40625 68 54.796875 68 
L 23.90625 68 
C 22 68 21.09375 68 21.09375 66.09375 
C 21.09375 65.09375 22 65.09375 23.5 65.09375 
C 29.59375 65.09375 29.59375 64.296875 29.59375 63.203125 
C 29.59375 63 29.59375 62.40625 29.203125 60.90625 
L 15.703125 7.359375 
C 14.796875 3.890625 14.59375 2.890625 7.59375 2.890625 
C 5.703125 2.890625 4.703125 2.890625 4.703125 1.09375 
C 4.703125 0 5.59375 0 6.203125 0 
C 8.09375 0 10.09375 0.1875 12 0.1875 
L 23.703125 0.1875 
C 25.59375 0.1875 27.703125 0 29.59375 0 
C 30.40625 0 31.5 0 31.5 1.890625 
C 31.5 2.890625 30.59375 2.890625 29.09375 2.890625 
C 23.09375 2.890625 23 3.59375 23 4.578125 
C 23 5.078125 23.09375 5.765625 23.203125 6.265625 
z
M 36.796875 61.203125 
C 37.703125 64.890625 38.09375 65.09375 42 65.09375 
L 51.90625 65.09375 
C 59.40625 65.09375 65.59375 62.703125 65.59375 55.21875 
C 65.59375 52.640625 64.296875 44.15625 59.703125 39.578125 
C 58 37.78125 53.203125 34 44.09375 34 
L 30 34 
z
" id="CMMI12-80"/>
      <path d="M 42.90625 71.296875 
C 42.90625 71.390625 43.5 72.890625 43.5 73.09375 
C 43.5 74.296875 42.5 75 41.703125 75 
C 41.203125 75 40.296875 75 39.5 72.796875 
L 6 -21.3125 
C 6 -21.40625 5.40625 -22.90625 5.40625 -23.109375 
C 5.40625 -24.3125 6.40625 -25 7.203125 -25 
C 7.796875 -25 8.703125 -24.90625 9.40625 -22.8125 
z
" id="CMMI12-61"/>
      <path d="M 50.796875 37.59375 
C 52.09375 37.59375 55.40625 37.59375 55.40625 40.796875 
C 55.40625 43 53.5 43 51.703125 43 
L 29.59375 43 
C 14.59375 43 3.796875 26.328125 3.796875 14.5625 
C 3.796875 6.078125 9.296875 -1 18.296875 -1 
C 30.09375 -1 43 11.65625 43 26.625 
C 43 30.515625 42.09375 34.296875 39.703125 37.59375 
z
M 18.40625 1 
C 13.296875 1 9.59375 4.875 9.59375 11.765625 
C 9.59375 17.75 13.203125 37.59375 27.90625 37.59375 
C 32.203125 37.59375 37 35.5 37 27.8125 
C 37 24.328125 35.40625 15.953125 31.90625 10.171875 
C 28.296875 4.28125 22.90625 1 18.40625 1 
z
" id="CMMI12-27"/>
     </defs>
     <g transform="translate(37.649647 261.3973)rotate(-90)scale(0.2 -0.2)">
      <use transform="translate(0 14.943915)scale(0.996264)" xlink:href="#CMSS17-68"/>
      <use transform="translate(67.542842 14.943915)scale(0.996264)" xlink:href="#CMSS17-105"/>
      <use transform="translate(89.723565 14.943915)scale(0.996264)" xlink:href="#CMSS17-115"/>
      <use transform="translate(125.637107 14.943915)scale(0.996264)" xlink:href="#CMSS17-116"/>
      <use transform="translate(159.468673 14.943915)scale(0.996264)" xlink:href="#CMSS17-97"/>
      <use transform="translate(204.390594 14.943915)scale(0.996264)" xlink:href="#CMSS17-110"/>
      <use transform="translate(252.595537 14.943915)scale(0.996264)" xlink:href="#CMSS17-99"/>
      <use transform="translate(294.234359 14.943915)scale(0.996264)" xlink:href="#CMSS17-101"/>
      <use transform="translate(367.102294 14.943915)scale(0.996264)" xlink:href="#CMSS17-40"/>
      <use transform="translate(403.536208 14.943915)scale(0.996264)" xlink:href="#CMMI12-76"/>
      <use transform="translate(469.907084 0)scale(0.697382)" xlink:href="#CMMI12-80"/>
      <use transform="translate(523.903039 14.943915)scale(0.996264)" xlink:href="#CMMI12-61"/>
      <use transform="translate(572.677958 14.943915)scale(0.996264)" xlink:href="#CMMI12-27"/>
      <use transform="translate(631.698012 14.943915)scale(0.996264)" xlink:href="#CMSS17-41"/>
     </g>
    </g>
   </g>
   <g id="patch_3">
    <path d="M 76.220906 360.251291 
L 76.220906 28.518498 
" style="fill:none;stroke:#000000;stroke-linecap:square;stroke-linejoin:miter;stroke-width:0.8;"/>
   </g>
   <g id="patch_4">
    <path d="M 343.564181 360.251291 
L 343.564181 28.518498 
" style="fill:none;stroke:#000000;stroke-linecap:square;stroke-linejoin:miter;stroke-width:0.8;"/>
   </g>
   <g id="patch_5">
    <path d="M 76.220906 360.251291 
L 343.564181 360.251291 
" style="fill:none;stroke:#000000;stroke-linecap:square;stroke-linejoin:miter;stroke-width:0.8;"/>
   </g>
   <g id="patch_6">
    <path d="M 76.220906 28.518498 
L 343.564181 28.518498 
" style="fill:none;stroke:#000000;stroke-linecap:square;stroke-linejoin:miter;stroke-width:0.8;"/>
   </g>
  </g>
  <g id="axes_2">
   <g id="patch_7">
    <path clip-path="url(#pa760af4e5e)" d="M 360.273136 360.251291 
L 360.273136 348.403691 
L 360.273136 40.366098 
L 360.273136 28.518498 
L 376.859776 28.518498 
L 376.859776 40.366098 
L 376.859776 348.403691 
L 376.859776 360.251291 
z
" style="fill:#ffffff;stroke:#ffffff;stroke-linejoin:miter;stroke-width:0.01;"/>
   </g>
   <g id="QuadMesh_1">
    <path clip-path="url(#pa760af4e5e)" d="M 360.273136 360.251291 
L 376.859776 360.251291 
L 376.859776 348.403691 
L 360.273136 348.403691 
L 360.273136 360.251291 
" style="fill:#46075a;"/>
    <path clip-path="url(#pa760af4e5e)" d="M 360.273136 348.403691 
L 376.859776 348.403691 
L 376.859776 336.556091 
L 360.273136 336.556091 
L 360.273136 348.403691 
" style="fill:#481467;"/>
    <path clip-path="url(#pa760af4e5e)" d="M 360.273136 336.556091 
L 376.859776 336.556091 
L 376.859776 324.708492 
L 360.273136 324.708492 
L 360.273136 336.556091 
" style="fill:#482071;"/>
    <path clip-path="url(#pa760af4e5e)" d="M 360.273136 324.708492 
L 376.859776 324.708492 
L 376.859776 312.860892 
L 360.273136 312.860892 
L 360.273136 324.708492 
" style="fill:#472c7a;"/>
    <path clip-path="url(#pa760af4e5e)" d="M 360.273136 312.860892 
L 376.859776 312.860892 
L 376.859776 301.013292 
L 360.273136 301.013292 
L 360.273136 312.860892 
" style="fill:#453882;"/>
    <path clip-path="url(#pa760af4e5e)" d="M 360.273136 301.013292 
L 376.859776 301.013292 
L 376.859776 289.165692 
L 360.273136 289.165692 
L 360.273136 301.013292 
" style="fill:#414287;"/>
    <path clip-path="url(#pa760af4e5e)" d="M 360.273136 289.165692 
L 376.859776 289.165692 
L 376.859776 277.318093 
L 360.273136 277.318093 
L 360.273136 289.165692 
" style="fill:#3d4d8a;"/>
    <path clip-path="url(#pa760af4e5e)" d="M 360.273136 277.318093 
L 376.859776 277.318093 
L 376.859776 265.470493 
L 360.273136 265.470493 
L 360.273136 277.318093 
" style="fill:#39568c;"/>
    <path clip-path="url(#pa760af4e5e)" d="M 360.273136 265.470493 
L 376.859776 265.470493 
L 376.859776 253.622893 
L 360.273136 253.622893 
L 360.273136 265.470493 
" style="fill:#34608d;"/>
    <path clip-path="url(#pa760af4e5e)" d="M 360.273136 253.622893 
L 376.859776 253.622893 
L 376.859776 241.775293 
L 360.273136 241.775293 
L 360.273136 253.622893 
" style="fill:#30698e;"/>
    <path clip-path="url(#pa760af4e5e)" d="M 360.273136 241.775293 
L 376.859776 241.775293 
L 376.859776 229.927694 
L 360.273136 229.927694 
L 360.273136 241.775293 
" style="fill:#2c718e;"/>
    <path clip-path="url(#pa760af4e5e)" d="M 360.273136 229.927694 
L 376.859776 229.927694 
L 376.859776 218.080094 
L 360.273136 218.080094 
L 360.273136 229.927694 
" style="fill:#297b8e;"/>
    <path clip-path="url(#pa760af4e5e)" d="M 360.273136 218.080094 
L 376.859776 218.080094 
L 376.859776 206.232494 
L 360.273136 206.232494 
L 360.273136 218.080094 
" style="fill:#25838e;"/>
    <path clip-path="url(#pa760af4e5e)" d="M 360.273136 206.232494 
L 376.859776 206.232494 
L 376.859776 194.384895 
L 360.273136 194.384895 
L 360.273136 206.232494 
" style="fill:#228c8d;"/>
    <path clip-path="url(#pa760af4e5e)" d="M 360.273136 194.384895 
L 376.859776 194.384895 
L 376.859776 182.537295 
L 360.273136 182.537295 
L 360.273136 194.384895 
" style="fill:#1f948c;"/>
    <path clip-path="url(#pa760af4e5e)" d="M 360.273136 182.537295 
L 376.859776 182.537295 
L 376.859776 170.689695 
L 360.273136 170.689695 
L 360.273136 182.537295 
" style="fill:#1e9d89;"/>
    <path clip-path="url(#pa760af4e5e)" d="M 360.273136 170.689695 
L 376.859776 170.689695 
L 376.859776 158.842095 
L 360.273136 158.842095 
L 360.273136 170.689695 
" style="fill:#21a585;"/>
    <path clip-path="url(#pa760af4e5e)" d="M 360.273136 158.842095 
L 376.859776 158.842095 
L 376.859776 146.994496 
L 360.273136 146.994496 
L 360.273136 158.842095 
" style="fill:#28ae80;"/>
    <path clip-path="url(#pa760af4e5e)" d="M 360.273136 146.994496 
L 376.859776 146.994496 
L 376.859776 135.146896 
L 360.273136 135.146896 
L 360.273136 146.994496 
" style="fill:#34b679;"/>
    <path clip-path="url(#pa760af4e5e)" d="M 360.273136 135.146896 
L 376.859776 135.146896 
L 376.859776 123.299296 
L 360.273136 123.299296 
L 360.273136 135.146896 
" style="fill:#42be71;"/>
    <path clip-path="url(#pa760af4e5e)" d="M 360.273136 123.299296 
L 376.859776 123.299296 
L 376.859776 111.451696 
L 360.273136 111.451696 
L 360.273136 123.299296 
" style="fill:#54c568;"/>
    <path clip-path="url(#pa760af4e5e)" d="M 360.273136 111.451696 
L 376.859776 111.451696 
L 376.859776 99.604097 
L 360.273136 99.604097 
L 360.273136 111.451696 
" style="fill:#67cc5c;"/>
    <path clip-path="url(#pa760af4e5e)" d="M 360.273136 99.604097 
L 376.859776 99.604097 
L 376.859776 87.756497 
L 360.273136 87.756497 
L 360.273136 99.604097 
" style="fill:#7cd250;"/>
    <path clip-path="url(#pa760af4e5e)" d="M 360.273136 87.756497 
L 376.859776 87.756497 
L 376.859776 75.908897 
L 360.273136 75.908897 
L 360.273136 87.756497 
" style="fill:#93d741;"/>
    <path clip-path="url(#pa760af4e5e)" d="M 360.273136 75.908897 
L 376.859776 75.908897 
L 376.859776 64.061298 
L 360.273136 64.061298 
L 360.273136 75.908897 
" style="fill:#addc30;"/>
    <path clip-path="url(#pa760af4e5e)" d="M 360.273136 64.061298 
L 376.859776 64.061298 
L 376.859776 52.213698 
L 360.273136 52.213698 
L 360.273136 64.061298 
" style="fill:#c5e021;"/>
    <path clip-path="url(#pa760af4e5e)" d="M 360.273136 52.213698 
L 376.859776 52.213698 
L 376.859776 40.366098 
L 360.273136 40.366098 
L 360.273136 52.213698 
" style="fill:#dde318;"/>
    <path clip-path="url(#pa760af4e5e)" d="M 360.273136 40.366098 
L 376.859776 40.366098 
L 376.859776 28.518498 
L 360.273136 28.518498 
L 360.273136 40.366098 
" style="fill:#f4e61e;"/>
   </g>
   <g id="matplotlib.axis_3"/>
   <g id="matplotlib.axis_4">
    <g id="ytick_6">
     <g id="line2d_18">
      <defs>
       <path d="M 0 0 
L 3.5 0 
" id="m262042722e" style="stroke:#000000;stroke-width:0.8;"/>
      </defs>
      <g>
       <use style="stroke:#000000;stroke-width:0.8;" x="376.859776" xlink:href="#m262042722e" y="324.708492"/>
      </g>
     </g>
     <g id="text_12">
      <!-- $3.0$ -->
      <g transform="translate(383.859776 331.62699)scale(0.2 -0.2)">
       <use transform="scale(0.996264)" xlink:href="#CMR17-51"/>
       <use transform="translate(45.690477 0)scale(0.996264)" xlink:href="#CMMI12-58"/>
       <use transform="translate(72.787654 0)scale(0.996264)" xlink:href="#CMR17-48"/>
      </g>
     </g>
    </g>
    <g id="ytick_7">
     <g id="line2d_19">
      <g>
       <use style="stroke:#000000;stroke-width:0.8;" x="376.859776" xlink:href="#m262042722e" y="265.470493"/>
      </g>
     </g>
     <g id="text_13">
      <!-- $3.5$ -->
      <defs>
       <path d="M 11.40625 58.59375 
C 12.40625 58.1875 16.5 56.890625 20.703125 56.890625 
C 30 56.890625 35.09375 61.890625 38 64.6875 
C 38 65.484375 38 66 37.40625 66 
C 37.296875 66 37.09375 66 36.296875 65.59375 
C 32.796875 64.09375 28.703125 63 23.703125 63 
C 20.703125 63 16.203125 63.359375 11.296875 65.484375 
C 10.203125 66 10 66 9.90625 66 
C 9.40625 66 9.296875 65.890625 9.296875 63.90625 
L 9.296875 34.859375 
C 9.296875 33.015625 9.296875 32.5 10.296875 32.5 
C 10.796875 32.5 11 32.703125 11.5 33.421875 
C 14.703125 38.046875 19.09375 40 24.09375 40 
C 27.59375 40 35.09375 37.734375 35.09375 20.203125 
C 35.09375 16.984375 35.09375 11.1875 32.09375 6.59375 
C 29.59375 2.484375 25.703125 0.390625 21.40625 0.390625 
C 14.796875 0.390625 8.09375 4.984375 6.296875 12.6875 
C 6.703125 12.59375 7.5 12.390625 7.90625 12.390625 
C 9.203125 12.390625 11.703125 13.09375 11.703125 16.1875 
C 11.703125 18.890625 9.796875 20 7.90625 20 
C 5.59375 20 4.09375 18.59375 4.09375 15.796875 
C 4.09375 7.09375 11 -2 21.59375 -2 
C 31.90625 -2 41.703125 6.890625 41.703125 19.796875 
C 41.703125 32.09375 33.90625 41.59375 24.203125 41.59375 
C 19.09375 41.59375 14.796875 39.6875 11.40625 36 
z
" id="CMR17-53"/>
      </defs>
      <g transform="translate(383.859776 272.388991)scale(0.2 -0.2)">
       <use transform="scale(0.996264)" xlink:href="#CMR17-51"/>
       <use transform="translate(45.690477 0)scale(0.996264)" xlink:href="#CMMI12-58"/>
       <use transform="translate(72.787654 0)scale(0.996264)" xlink:href="#CMR17-53"/>
      </g>
     </g>
    </g>
    <g id="ytick_8">
     <g id="line2d_20">
      <g>
       <use style="stroke:#000000;stroke-width:0.8;" x="376.859776" xlink:href="#m262042722e" y="206.232494"/>
      </g>
     </g>
     <g id="text_14">
      <!-- $4.0$ -->
      <g transform="translate(383.859776 213.150993)scale(0.2 -0.2)">
       <use transform="scale(0.996264)" xlink:href="#CMR17-52"/>
       <use transform="translate(45.690477 0)scale(0.996264)" xlink:href="#CMMI12-58"/>
       <use transform="translate(72.787654 0)scale(0.996264)" xlink:href="#CMR17-48"/>
      </g>
     </g>
    </g>
    <g id="ytick_9">
     <g id="line2d_21">
      <g>
       <use style="stroke:#000000;stroke-width:0.8;" x="376.859776" xlink:href="#m262042722e" y="146.994496"/>
      </g>
     </g>
     <g id="text_15">
      <!-- $4.5$ -->
      <g transform="translate(383.859776 153.912994)scale(0.2 -0.2)">
       <use transform="scale(0.996264)" xlink:href="#CMR17-52"/>
       <use transform="translate(45.690477 0)scale(0.996264)" xlink:href="#CMMI12-58"/>
       <use transform="translate(72.787654 0)scale(0.996264)" xlink:href="#CMR17-53"/>
      </g>
     </g>
    </g>
    <g id="ytick_10">
     <g id="line2d_22">
      <g>
       <use style="stroke:#000000;stroke-width:0.8;" x="376.859776" xlink:href="#m262042722e" y="87.756497"/>
      </g>
     </g>
     <g id="text_16">
      <!-- $5.0$ -->
      <g transform="translate(383.859776 94.674995)scale(0.2 -0.2)">
       <use transform="scale(0.996264)" xlink:href="#CMR17-53"/>
       <use transform="translate(45.690477 0)scale(0.996264)" xlink:href="#CMMI12-58"/>
       <use transform="translate(72.787654 0)scale(0.996264)" xlink:href="#CMR17-48"/>
      </g>
     </g>
    </g>
    <g id="ytick_11">
     <g id="line2d_23">
      <g>
       <use style="stroke:#000000;stroke-width:0.8;" x="376.859776" xlink:href="#m262042722e" y="28.518498"/>
      </g>
     </g>
     <g id="text_17">
      <!-- $5.5$ -->
      <g transform="translate(383.859776 35.436997)scale(0.2 -0.2)">
       <use transform="scale(0.996264)" xlink:href="#CMR17-53"/>
       <use transform="translate(45.690477 0)scale(0.996264)" xlink:href="#CMMI12-58"/>
       <use transform="translate(72.787654 0)scale(0.996264)" xlink:href="#CMR17-53"/>
      </g>
     </g>
    </g>
   </g>
   <g id="patch_8">
    <path d="M 360.273136 360.251291 
L 360.273136 348.403691 
L 360.273136 40.366098 
L 360.273136 28.518498 
L 376.859776 28.518498 
L 376.859776 40.366098 
L 376.859776 348.403691 
L 376.859776 360.251291 
z
" style="fill:none;stroke:#000000;stroke-linejoin:miter;stroke-width:0.8;"/>
   </g>
  </g>
 </g>
 <defs>
  <clipPath id="p038fd66925">
   <rect height="331.732792" width="267.343275" x="76.220906" y="28.518498"/>
  </clipPath>
  <clipPath id="pa760af4e5e">
   <rect height="331.732792" width="16.58664" x="360.273136" y="28.518498"/>
  </clipPath>
 </defs>
</svg>
