<?xml version="1.0" encoding="utf-8" standalone="no"?>
<!DOCTYPE svg PUBLIC "-//W3C//DTD SVG 1.1//EN"
  "http://www.w3.org/Graphics/SVG/1.1/DTD/svg11.dtd">
<!-- Created with matplotlib (http://matplotlib.org/) -->
<svg height="432pt" version="1.1" viewBox="0 0 432 432" width="432pt" xmlns="http://www.w3.org/2000/svg" xmlns:xlink="http://www.w3.org/1999/xlink">
 <defs>
  <style type="text/css">
*{stroke-linecap:butt;stroke-linejoin:round;}
  </style>
 </defs>
 <g id="figure_1">
  <g id="patch_1">
   <path d="M 0 432 
L 432 432 
L 432 0 
L 0 0 
z
" style="fill:#ffffff;"/>
  </g>
  <g id="axes_1">
   <g id="patch_2">
    <path d="M 74.008257 361.762089 
L 406.9 361.762089 
L 406.9 25.1 
L 74.008257 25.1 
z
" style="fill:#ffffff;"/>
   </g>
   <g id="matplotlib.axis_1">
    <g id="xtick_1">
     <g id="line2d_1">
      <defs>
       <path d="M 0 0 
L 0 3.5 
" id="m539409188c" style="stroke:#000000;stroke-width:0.8;"/>
      </defs>
      <g>
       <use style="stroke:#000000;stroke-width:0.8;" x="89.1397" xlink:href="#m539409188c" y="361.762089"/>
      </g>
     </g>
     <g id="text_1">
      <!-- $0$ -->
      <defs>
       <path d="M 42 31.84375 
C 42 37.96875 41.90625 48.421875 37.703125 56.453125 
C 34 63.484375 28.09375 66 22.90625 66 
C 18.09375 66 12 63.78125 8.203125 56.5625 
C 4.203125 49.015625 3.796875 39.671875 3.796875 31.84375 
C 3.796875 26.109375 3.90625 17.375 7 9.734375 
C 11.296875 -0.609375 19 -2 22.90625 -2 
C 27.5 -2 34.5 -0.109375 38.59375 9.4375 
C 41.59375 16.375 42 24.5 42 31.84375 
z
M 22.90625 -0.40625 
C 16.5 -0.40625 12.703125 5.125 11.296875 12.75 
C 10.203125 18.6875 10.203125 27.328125 10.203125 32.953125 
C 10.203125 40.6875 10.203125 47.109375 11.5 53.234375 
C 13.40625 61.78125 19 64.390625 22.90625 64.390625 
C 27 64.390625 32.296875 61.671875 34.203125 53.4375 
C 35.5 47.71875 35.59375 40.984375 35.59375 32.953125 
C 35.59375 26.421875 35.59375 18.375 34.40625 12.453125 
C 32.296875 1.5 26.40625 -0.40625 22.90625 -0.40625 
z
" id="CMR17-48"/>
      </defs>
      <g transform="translate(84.570652 382.599086)scale(0.2 -0.2)">
       <use transform="scale(0.996264)" xlink:href="#CMR17-48"/>
      </g>
     </g>
    </g>
    <g id="xtick_2">
     <g id="line2d_2">
      <g>
       <use style="stroke:#000000;stroke-width:0.8;" x="190.015985" xlink:href="#m539409188c" y="361.762089"/>
      </g>
     </g>
     <g id="text_2">
      <!-- $1$ -->
      <defs>
       <path d="M 26.59375 63.796875 
C 26.59375 65.890625 26.5 66 25.09375 66 
C 21.203125 61.359375 15.296875 59.890625 9.703125 59.6875 
C 9.40625 59.6875 8.90625 59.6875 8.796875 59.5 
C 8.703125 59.296875 8.703125 59.09375 8.703125 57 
C 11.796875 57 17 57.59375 21 59.984375 
L 21 7.296875 
C 21 3.796875 20.796875 2.59375 12.203125 2.59375 
L 9.203125 2.59375 
L 9.203125 0 
C 14 0.09375 19 0.1875 23.796875 0.1875 
C 28.59375 0.1875 33.59375 0.09375 38.40625 0 
L 38.40625 2.59375 
L 35.40625 2.59375 
C 26.796875 2.59375 26.59375 3.6875 26.59375 7.296875 
z
" id="CMR17-49"/>
      </defs>
      <g transform="translate(185.446938 382.599086)scale(0.2 -0.2)">
       <use transform="scale(0.996264)" xlink:href="#CMR17-49"/>
      </g>
     </g>
    </g>
    <g id="xtick_3">
     <g id="line2d_3">
      <g>
       <use style="stroke:#000000;stroke-width:0.8;" x="290.892271" xlink:href="#m539409188c" y="361.762089"/>
      </g>
     </g>
     <g id="text_3">
      <!-- $2$ -->
      <defs>
       <path d="M 41.703125 15.46875 
L 39.90625 15.46875 
C 38.90625 8.390625 38.09375 7.1875 37.703125 6.59375 
C 37.203125 5.796875 30 5.796875 28.59375 5.796875 
L 9.40625 5.796875 
C 13 9.6875 20 16.765625 28.5 24.9375 
C 34.59375 30.71875 41.703125 37.5 41.703125 47.390625 
C 41.703125 59.1875 32.296875 66 21.796875 66 
C 10.796875 66 4.09375 56.296875 4.09375 47.296875 
C 4.09375 43.390625 7 42.890625 8.203125 42.890625 
C 9.203125 42.890625 12.203125 43.484375 12.203125 46.984375 
C 12.203125 50.09375 9.59375 51 8.203125 51 
C 7.59375 51 7 50.890625 6.59375 50.6875 
C 8.5 59.1875 14.296875 63.390625 20.40625 63.390625 
C 29.09375 63.390625 34.796875 56.5 34.796875 47.390625 
C 34.796875 38.703125 29.703125 31.21875 24 24.734375 
L 4.09375 2.296875 
L 4.09375 0 
L 39.296875 0 
z
" id="CMR17-50"/>
      </defs>
      <g transform="translate(286.323224 382.599086)scale(0.2 -0.2)">
       <use transform="scale(0.996264)" xlink:href="#CMR17-50"/>
      </g>
     </g>
    </g>
    <g id="xtick_4">
     <g id="line2d_4">
      <g>
       <use style="stroke:#000000;stroke-width:0.8;" x="391.768557" xlink:href="#m539409188c" y="361.762089"/>
      </g>
     </g>
     <g id="text_4">
      <!-- $3$ -->
      <defs>
       <path d="M 22.09375 34 
C 31 34 34.90625 26.140625 34.90625 17.09375 
C 34.90625 5.03125 28.5 0.390625 22.703125 0.390625 
C 17.40625 0.390625 8.796875 3.015625 6.09375 10.796875 
C 6.59375 10.59375 7.09375 10.59375 7.59375 10.59375 
C 10 10.59375 11.796875 12.1875 11.796875 14.796875 
C 11.796875 17.6875 9.59375 19 7.59375 19 
C 5.90625 19 3.296875 18.1875 3.296875 14.484375 
C 3.296875 5.234375 12.296875 -2 22.90625 -2 
C 34 -2 42.5 6.75 42.5 16.984375 
C 42.5 26.84375 34.5 34 25 35.09375 
C 32.59375 36.671875 39.90625 43.375 39.90625 52.390625 
C 39.90625 60.25 32 66 23 66 
C 13.90625 66 5.90625 60.34375 5.90625 52.296875 
C 5.90625 48.796875 8.5 48.1875 9.796875 48.1875 
C 11.90625 48.1875 13.703125 49.484375 13.703125 52.09375 
C 13.703125 54.6875 11.90625 56 9.796875 56 
C 9.40625 56 8.90625 56 8.5 55.796875 
C 11.40625 62.484375 19.296875 63.6875 22.796875 63.6875 
C 26.296875 63.6875 32.90625 61.96875 32.90625 52.296875 
C 32.90625 49.484375 32.5 44.546875 29.09375 40.21875 
C 26.09375 36.390625 22.703125 36.1875 19.40625 35.890625 
C 18.90625 35.890625 16.59375 35.6875 16.203125 35.6875 
C 15.5 35.59375 15.09375 35.5 15.09375 34.796875 
C 15.09375 34.09375 15.203125 34 17.203125 34 
z
" id="CMR17-51"/>
      </defs>
      <g transform="translate(387.199509 382.599086)scale(0.2 -0.2)">
       <use transform="scale(0.996264)" xlink:href="#CMR17-51"/>
      </g>
     </g>
    </g>
    <g id="text_5">
     <!-- Distance ($L_P/\sigma$) -->
     <defs>
      <path d="M 8.90625 69 
L 8.90625 0 
L 33.5 0 
C 49.90625 0 62.5 15.328125 62.5 33.890625 
C 62.5 53.0625 49.90625 69 33.5 69 
z
M 17.09375 5.59375 
L 17.09375 63.390625 
L 31.296875 63.390625 
C 44.703125 63.390625 54.296875 51.171875 54.296875 33.890625 
C 54.296875 17.3125 44.796875 5.59375 31.296875 5.59375 
z
" id="CMSS17-68"/>
      <path d="M 15.296875 66 
L 6.90625 66 
L 6.90625 57.59375 
L 15.296875 57.59375 
z
M 14.796875 43 
L 7.40625 43 
L 7.40625 0 
L 14.796875 0 
z
" id="CMSS17-105"/>
      <path d="M 32.203125 40.984375 
C 26.296875 43.796875 21.703125 44 18.703125 44 
C 11.59375 44 3.09375 41.484375 3.09375 31.390625 
C 3.09375 21.296875 14.09375 19.09375 17.09375 18.484375 
C 21.703125 17.59375 26.796875 16.59375 26.796875 11.59375 
C 26.796875 5.296875 19.59375 5.296875 18.296875 5.296875 
C 14.296875 5.296875 8.796875 6.390625 3.796875 9.984375 
L 2.59375 3.296875 
C 8.296875 0 13.796875 -1 18.40625 -1 
C 30.703125 -1 33.796875 6.5 33.796875 12.1875 
C 33.796875 17.09375 31 20.390625 29.09375 21.890625 
C 25.796875 24.484375 24.59375 24.796875 16.40625 26.484375 
C 15 26.6875 10.09375 27.796875 10.09375 32.296875 
C 10.09375 37.984375 16.40625 37.984375 17.796875 37.984375 
C 24.296875 37.984375 28.296875 35.984375 31 34.484375 
z
" id="CMSS17-115"/>
      <path d="M 16.703125 37.1875 
L 29.703125 37.1875 
L 29.703125 43 
L 16.703125 43 
L 16.703125 55 
L 9.59375 55 
L 9.59375 43 
L 1.703125 43 
L 1.703125 37.1875 
L 9.40625 37.1875 
L 9.40625 11.734375 
C 9.40625 6 10.703125 -1 17.296875 -1 
C 22.296875 -1 26.90625 0.390625 31.296875 2.6875 
L 29.703125 8.609375 
C 27.296875 6.5 24.40625 5.296875 21.296875 5.296875 
C 16.90625 5.296875 16.703125 10.921875 16.703125 13.4375 
z
" id="CMSS17-116"/>
      <path d="M 37.59375 27.953125 
C 37.59375 37.484375 30.90625 44 21.90625 44 
C 17.5 44 12.703125 43.1875 7.203125 39.984375 
L 7.796875 33.328125 
C 10.296875 35.15625 14.59375 38.09375 21.796875 38.09375 
C 26.90625 38.09375 30 34.140625 30 27.84375 
L 30 24 
C 14 23.5 4 18.890625 4 11.109375 
C 4 7.0625 6.5 -1 14.796875 -1 
C 16.296875 -1 24.40625 -0.8125 30.203125 3.5 
L 30.203125 -0.203125 
L 37.59375 -0.203125 
z
M 30 12.875 
C 30 11.109375 30 8.734375 27 6.96875 
C 24.40625 5.296875 21.09375 5.09375 19.703125 5.09375 
C 14.703125 5.09375 11.296875 7.859375 11.296875 11.296875 
C 11.296875 18.203125 26.90625 18.890625 30 19 
z
" id="CMSS17-97"/>
      <path d="M 40.90625 29.34375 
C 40.90625 35.671875 39.40625 44 28.09375 44 
C 21.703125 44 17.5 40.6875 14.703125 37.28125 
L 14.703125 43.484375 
L 7.40625 43.484375 
L 7.40625 0 
L 15 0 
L 15 24.3125 
C 15 30.65625 17.40625 37.890625 24.203125 37.890625 
C 33 37.890625 33.296875 31.953125 33.296875 28.53125 
L 33.296875 0 
L 40.90625 0 
z
" id="CMSS17-110"/>
      <path d="M 38.5 39.6875 
C 38.5 40.390625 33.90625 42.390625 32.703125 42.796875 
C 29.40625 44 25.203125 44 24.09375 44 
C 11.09375 44 3.296875 32.6875 3.296875 21.296875 
C 3.296875 9.296875 12 -1 23.703125 -1 
C 30.40625 -1 35.203125 1.1875 39.09375 3.796875 
L 38.5 10.390625 
C 34.203125 7.09375 29.203125 5.296875 23.796875 5.296875 
C 16 5.296875 10.90625 12.09375 10.90625 21.390625 
C 10.90625 28.59375 14.203125 37.6875 24.203125 37.6875 
C 29.703125 37.6875 32.796875 36.59375 37.40625 33.484375 
z
" id="CMSS17-99"/>
      <path d="M 39.09375 21.484375 
C 39.09375 24.796875 38.90625 31.265625 35.703125 36.671875 
C 32.203125 42.390625 26.5 44 22.203125 44 
C 11.796875 44 3 34.125 3 21.296875 
C 3 9.046875 12.09375 -1 23.59375 -1 
C 28.09375 -1 33.59375 0.296875 38.59375 3.890625 
C 38.59375 4.296875 38.40625 6.46875 38.296875 6.578125 
C 38.296875 6.765625 38 9.828125 38 10.234375 
C 33.203125 6.375 27.703125 5.09375 23.703125 5.09375 
C 17.296875 5.09375 10.40625 10.421875 10.09375 21.484375 
z
M 10.90625 27 
C 12.203125 32.59375 16.59375 37.890625 22.203125 37.890625 
C 23.703125 37.890625 30.703125 37.6875 32.5 27 
z
" id="CMSS17-101"/>
      <path d="M 25.203125 75 
C 19.796875 69.484375 7.40625 56.671875 7.40625 25.046875 
C 7.40625 -6.6875 19.796875 -19.40625 25.203125 -25 
L 31.296875 -25 
C 19 -12.203125 15 5.71875 15 24.9375 
C 15 44.0625 18.796875 62.078125 31.296875 75 
z
" id="CMSS17-40"/>
      <path d="M 36.703125 60.3125 
C 37.59375 64.09375 37.90625 65.09375 46.703125 65.09375 
C 49.40625 65.09375 50.09375 65.09375 50.09375 66.984375 
C 50.09375 68 49 68 48.59375 68 
C 46.59375 68 44.296875 67.796875 42.296875 67.796875 
L 28.90625 67.796875 
C 27 67.796875 24.796875 68 22.90625 68 
C 22.09375 68 21 68 21 66.09375 
C 21 65.09375 21.90625 65.09375 23.40625 65.09375 
C 29.5 65.09375 29.5 64.296875 29.5 63.203125 
C 29.5 63 29.5 62.40625 29.09375 60.90625 
L 15.59375 7.375 
C 14.703125 3.890625 14.5 2.890625 7.5 2.890625 
C 5.59375 2.890625 4.59375 2.890625 4.59375 1.09375 
C 4.59375 0 5.203125 0 7.203125 0 
L 52 0 
C 54.203125 0 54.296875 0.09375 55 1.890625 
L 62.703125 23.09375 
C 62.90625 23.59375 63.09375 24.1875 63.09375 24.484375 
C 63.09375 25.078125 62.59375 25.484375 62.09375 25.484375 
C 62 25.484375 61.5 25.484375 61.296875 25.078125 
C 61.09375 24.984375 61.09375 24.78125 60.296875 22.890625 
C 57.09375 14.140625 52.59375 2.890625 35.703125 2.890625 
L 26.09375 2.890625 
C 24.703125 2.890625 24.5 2.890625 23.90625 2.984375 
C 22.796875 3.09375 22.703125 3.296875 22.703125 4.09375 
C 22.703125 4.78125 22.90625 5.375 23.09375 6.28125 
z
" id="CMMI12-76"/>
      <path d="M 29.59375 31.59375 
L 46.40625 31.59375 
C 60.203125 31.59375 74 41.765625 74 53.125 
C 74 60.90625 67.40625 68 54.796875 68 
L 23.90625 68 
C 22 68 21.09375 68 21.09375 66.09375 
C 21.09375 65.09375 22 65.09375 23.5 65.09375 
C 29.59375 65.09375 29.59375 64.296875 29.59375 63.203125 
C 29.59375 63 29.59375 62.40625 29.203125 60.90625 
L 15.703125 7.359375 
C 14.796875 3.890625 14.59375 2.890625 7.59375 2.890625 
C 5.703125 2.890625 4.703125 2.890625 4.703125 1.09375 
C 4.703125 0 5.59375 0 6.203125 0 
C 8.09375 0 10.09375 0.1875 12 0.1875 
L 23.703125 0.1875 
C 25.59375 0.1875 27.703125 0 29.59375 0 
C 30.40625 0 31.5 0 31.5 1.890625 
C 31.5 2.890625 30.59375 2.890625 29.09375 2.890625 
C 23.09375 2.890625 23 3.59375 23 4.578125 
C 23 5.078125 23.09375 5.765625 23.203125 6.265625 
z
M 36.796875 61.203125 
C 37.703125 64.890625 38.09375 65.09375 42 65.09375 
L 51.90625 65.09375 
C 59.40625 65.09375 65.59375 62.703125 65.59375 55.21875 
C 65.59375 52.640625 64.296875 44.15625 59.703125 39.578125 
C 58 37.78125 53.203125 34 44.09375 34 
L 30 34 
z
" id="CMMI12-80"/>
      <path d="M 42.90625 71.296875 
C 42.90625 71.390625 43.5 72.890625 43.5 73.09375 
C 43.5 74.296875 42.5 75 41.703125 75 
C 41.203125 75 40.296875 75 39.5 72.796875 
L 6 -21.3125 
C 6 -21.40625 5.40625 -22.90625 5.40625 -23.109375 
C 5.40625 -24.3125 6.40625 -25 7.203125 -25 
C 7.796875 -25 8.703125 -24.90625 9.40625 -22.8125 
z
" id="CMMI12-61"/>
      <path d="M 50.796875 37.59375 
C 52.09375 37.59375 55.40625 37.59375 55.40625 40.796875 
C 55.40625 43 53.5 43 51.703125 43 
L 29.59375 43 
C 14.59375 43 3.796875 26.328125 3.796875 14.5625 
C 3.796875 6.078125 9.296875 -1 18.296875 -1 
C 30.09375 -1 43 11.65625 43 26.625 
C 43 30.515625 42.09375 34.296875 39.703125 37.59375 
z
M 18.40625 1 
C 13.296875 1 9.59375 4.875 9.59375 11.765625 
C 9.59375 17.75 13.203125 37.59375 27.90625 37.59375 
C 32.203125 37.59375 37 35.5 37 27.8125 
C 37 24.328125 35.40625 15.953125 31.90625 10.171875 
C 28.296875 4.28125 22.90625 1 18.40625 1 
z
" id="CMMI12-27"/>
      <path d="M 11.296875 -25 
C 16.703125 -19.5 29.09375 -6.6875 29.09375 24.9375 
C 29.09375 56.671875 16.703125 69.375 11.296875 75 
L 5.203125 75 
C 17.5 62.171875 21.5 44.265625 21.5 25.046875 
C 21.5 5.921875 17.703125 -12.09375 5.203125 -25 
z
" id="CMSS17-41"/>
     </defs>
     <g transform="translate(173.441722 406.524366)scale(0.2 -0.2)">
      <use transform="translate(0 14.943915)scale(0.996264)" xlink:href="#CMSS17-68"/>
      <use transform="translate(67.542842 14.943915)scale(0.996264)" xlink:href="#CMSS17-105"/>
      <use transform="translate(89.723565 14.943915)scale(0.996264)" xlink:href="#CMSS17-115"/>
      <use transform="translate(125.637107 14.943915)scale(0.996264)" xlink:href="#CMSS17-116"/>
      <use transform="translate(159.468673 14.943915)scale(0.996264)" xlink:href="#CMSS17-97"/>
      <use transform="translate(204.390594 14.943915)scale(0.996264)" xlink:href="#CMSS17-110"/>
      <use transform="translate(252.595537 14.943915)scale(0.996264)" xlink:href="#CMSS17-99"/>
      <use transform="translate(294.234359 14.943915)scale(0.996264)" xlink:href="#CMSS17-101"/>
      <use transform="translate(367.102294 14.943915)scale(0.996264)" xlink:href="#CMSS17-40"/>
      <use transform="translate(403.536208 14.943915)scale(0.996264)" xlink:href="#CMMI12-76"/>
      <use transform="translate(469.907084 0)scale(0.697382)" xlink:href="#CMMI12-80"/>
      <use transform="translate(523.903039 14.943915)scale(0.996264)" xlink:href="#CMMI12-61"/>
      <use transform="translate(572.677958 14.943915)scale(0.996264)" xlink:href="#CMMI12-27"/>
      <use transform="translate(631.698012 14.943915)scale(0.996264)" xlink:href="#CMSS17-41"/>
     </g>
    </g>
   </g>
   <g id="matplotlib.axis_2">
    <g id="ytick_1">
     <g id="line2d_5">
      <defs>
       <path d="M 0 0 
L -3.5 0 
" id="mc32b455f4d" style="stroke:#000000;stroke-width:0.8;"/>
      </defs>
      <g>
       <use style="stroke:#000000;stroke-width:0.8;" x="74.008257" xlink:href="#mc32b455f4d" y="336.912233"/>
      </g>
     </g>
     <g id="text_6">
      <!-- $2.8$ -->
      <defs>
       <path d="M 18.40625 4.796875 
C 18.40625 7.6875 16 9.6875 13.59375 9.6875 
C 10.703125 9.6875 8.703125 7.296875 8.703125 4.890625 
C 8.703125 2 11.09375 0 13.5 0 
C 16.40625 0 18.40625 2.390625 18.40625 4.796875 
z
" id="CMMI12-58"/>
       <path d="M 27.203125 35.765625 
C 33.5 38.96875 39.90625 43.796875 39.90625 51.53125 
C 39.90625 60.6875 31.09375 66 23 66 
C 13.90625 66 5.90625 59.375 5.90625 50.234375 
C 5.90625 47.71875 6.5 43.390625 10.40625 39.578125 
C 11.40625 38.578125 15.59375 35.5625 18.296875 33.65625 
C 13.796875 31.34375 3.296875 25.8125 3.296875 14.765625 
C 3.296875 4.40625 13.09375 -2 22.796875 -2 
C 33.5 -2 42.5 5.71875 42.5 15.96875 
C 42.5 25.109375 36.40625 29.328125 32.40625 32.046875 
z
M 14.09375 44.609375 
C 13.296875 45.109375 9.296875 48.21875 9.296875 52.9375 
C 9.296875 59.078125 15.59375 63.6875 22.796875 63.6875 
C 30.703125 63.6875 36.5 58.0625 36.5 51.53125 
C 36.5 42.1875 26.09375 36.859375 25.59375 36.859375 
C 25.5 36.859375 25.40625 36.859375 24.59375 37.46875 
z
M 32.5 24 
C 34 22.90625 38.796875 19.578125 38.796875 13.453125 
C 38.796875 6.015625 31.40625 0.390625 23 0.390625 
C 13.90625 0.390625 7 6.921875 7 14.859375 
C 7 22.796875 13.09375 29.4375 20 32.546875 
z
" id="CMR17-56"/>
      </defs>
      <g transform="translate(43.31263 343.830731)scale(0.2 -0.2)">
       <use transform="scale(0.996264)" xlink:href="#CMR17-50"/>
       <use transform="translate(45.690477 0)scale(0.996264)" xlink:href="#CMMI12-58"/>
       <use transform="translate(72.787654 0)scale(0.996264)" xlink:href="#CMR17-56"/>
      </g>
     </g>
    </g>
    <g id="ytick_2">
     <g id="line2d_6">
      <g>
       <use style="stroke:#000000;stroke-width:0.8;" x="74.008257" xlink:href="#mc32b455f4d" y="277.239899"/>
      </g>
     </g>
     <g id="text_7">
      <!-- $3.0$ -->
      <g transform="translate(43.31263 284.158397)scale(0.2 -0.2)">
       <use transform="scale(0.996264)" xlink:href="#CMR17-51"/>
       <use transform="translate(45.690477 0)scale(0.996264)" xlink:href="#CMMI12-58"/>
       <use transform="translate(72.787654 0)scale(0.996264)" xlink:href="#CMR17-48"/>
      </g>
     </g>
    </g>
    <g id="ytick_3">
     <g id="line2d_7">
      <g>
       <use style="stroke:#000000;stroke-width:0.8;" x="74.008257" xlink:href="#mc32b455f4d" y="217.567565"/>
      </g>
     </g>
     <g id="text_8">
      <!-- $3.2$ -->
      <g transform="translate(43.31263 224.486064)scale(0.2 -0.2)">
       <use transform="scale(0.996264)" xlink:href="#CMR17-51"/>
       <use transform="translate(45.690477 0)scale(0.996264)" xlink:href="#CMMI12-58"/>
       <use transform="translate(72.787654 0)scale(0.996264)" xlink:href="#CMR17-50"/>
      </g>
     </g>
    </g>
    <g id="ytick_4">
     <g id="line2d_8">
      <g>
       <use style="stroke:#000000;stroke-width:0.8;" x="74.008257" xlink:href="#mc32b455f4d" y="157.895232"/>
      </g>
     </g>
     <g id="text_9">
      <!-- $3.4$ -->
      <defs>
       <path d="M 33.59375 64.796875 
C 33.59375 66.890625 33.5 67 31.703125 67 
L 2 19.59375 
L 2 17 
L 27.796875 17 
L 27.796875 7.1875 
C 27.796875 3.59375 27.59375 2.59375 20.59375 2.59375 
L 18.703125 2.59375 
L 18.703125 0 
C 21.90625 0.1875 27.296875 0.1875 30.703125 0.1875 
C 34.09375 0.1875 39.5 0.1875 42.703125 0 
L 42.703125 2.59375 
L 40.796875 2.59375 
C 33.796875 2.59375 33.59375 3.59375 33.59375 7.1875 
L 33.59375 17 
L 43.796875 17 
L 43.796875 19.59375 
L 33.59375 19.59375 
z
M 28.09375 58.171875 
L 28.09375 19.59375 
L 4 19.59375 
z
" id="CMR17-52"/>
      </defs>
      <g transform="translate(43.31263 164.81373)scale(0.2 -0.2)">
       <use transform="scale(0.996264)" xlink:href="#CMR17-51"/>
       <use transform="translate(45.690477 0)scale(0.996264)" xlink:href="#CMMI12-58"/>
       <use transform="translate(72.787654 0)scale(0.996264)" xlink:href="#CMR17-52"/>
      </g>
     </g>
    </g>
    <g id="ytick_5">
     <g id="line2d_9">
      <g>
       <use style="stroke:#000000;stroke-width:0.8;" x="74.008257" xlink:href="#mc32b455f4d" y="98.222898"/>
      </g>
     </g>
     <g id="text_10">
      <!-- $3.6$ -->
      <defs>
       <path d="M 10.59375 34.34375 
C 10.59375 58 21.796875 63.6875 28.296875 63.6875 
C 30.40625 63.6875 35.5 63.265625 37.5 59.09375 
C 35.90625 59.09375 32.90625 59.09375 32.90625 55.59375 
C 32.90625 52.890625 35.09375 52 36.5 52 
C 37.40625 52 40.09375 52.390625 40.09375 55.796875 
C 40.09375 62.296875 35.09375 66 28.203125 66 
C 16.296875 66 3.796875 53.296875 3.796875 31.421875 
C 3.796875 4.015625 15.09375 -2 23.09375 -2 
C 32.796875 -2 42 6.734375 42 20.234375 
C 42 32.828125 33.90625 42 23.703125 42 
C 17.59375 42 13.09375 37.96875 10.59375 30.921875 
z
M 23.09375 0.390625 
C 10.796875 0.390625 10.796875 18.9375 10.796875 22.65625 
C 10.796875 29.90625 14.203125 40.390625 23.5 40.390625 
C 25.203125 40.390625 30.09375 40.390625 33.40625 33.4375 
C 35.203125 29.515625 35.203125 25.375 35.203125 20.34375 
C 35.203125 14.90625 35.203125 10.875 33.09375 6.84375 
C 30.90625 2.703125 27.703125 0.390625 23.09375 0.390625 
z
" id="CMR17-54"/>
      </defs>
      <g transform="translate(43.31263 105.141396)scale(0.2 -0.2)">
       <use transform="scale(0.996264)" xlink:href="#CMR17-51"/>
       <use transform="translate(45.690477 0)scale(0.996264)" xlink:href="#CMMI12-58"/>
       <use transform="translate(72.787654 0)scale(0.996264)" xlink:href="#CMR17-54"/>
      </g>
     </g>
    </g>
    <g id="ytick_6">
     <g id="line2d_10">
      <g>
       <use style="stroke:#000000;stroke-width:0.8;" x="74.008257" xlink:href="#mc32b455f4d" y="38.550564"/>
      </g>
     </g>
     <g id="text_11">
      <!-- $3.8$ -->
      <g transform="translate(43.31263 45.469062)scale(0.2 -0.2)">
       <use transform="scale(0.996264)" xlink:href="#CMR17-51"/>
       <use transform="translate(45.690477 0)scale(0.996264)" xlink:href="#CMMI12-58"/>
       <use transform="translate(72.787654 0)scale(0.996264)" xlink:href="#CMR17-56"/>
      </g>
     </g>
    </g>
    <g id="text_12">
     <!-- Protein partitioning to BL -->
     <defs>
      <path d="M 32.90625 29 
C 44.90625 29 54.703125 38.234375 54.703125 49.046875 
C 54.703125 59.65625 45.296875 69 32.296875 69 
L 8.90625 69 
L 8.90625 0 
L 17.296875 0 
L 17.296875 29 
z
M 30.09375 63.390625 
C 41.703125 63.390625 46.796875 56.21875 46.796875 49.046875 
C 46.796875 42.359375 42.09375 34.796875 30.09375 34.796875 
L 17.09375 34.796875 
L 17.09375 63.390625 
z
" id="CMSS17-80"/>
      <path d="M 14.90625 21.390625 
C 14.90625 30.84375 21.796875 37.171875 30.59375 37.375 
L 30.59375 44 
C 24.203125 43.890625 18.203125 40.6875 14.59375 35.46875 
L 14.59375 43.484375 
L 7.5 43.484375 
L 7.5 0 
L 14.90625 0 
z
" id="CMSS17-114"/>
      <path d="M 44.203125 21.1875 
C 44.203125 33.984375 34.703125 44 23.5 44 
C 12 44 2.703125 33.6875 2.703125 21.1875 
C 2.703125 8.5 12.296875 -1 23.40625 -1 
C 34.796875 -1 44.203125 8.796875 44.203125 21.1875 
z
M 23.5 5.296875 
C 16.40625 5.296875 10.296875 11.09375 10.296875 21.984375 
C 10.296875 33.59375 17.40625 37.890625 23.40625 37.890625 
C 29.90625 37.890625 36.59375 33.1875 36.59375 21.984375 
C 36.59375 10.6875 30.09375 5.296875 23.5 5.296875 
z
" id="CMSS17-111"/>
      <path d="M 15.09375 4.296875 
C 18.40625 1.09375 22.90625 -1 27.703125 -1 
C 37 -1 45 8.640625 45 21.59375 
C 45 33.546875 39 44 30.40625 44 
C 25.40625 44 19.40625 42.1875 14.90625 38.59375 
L 14.90625 43.1875 
L 7.5 43.1875 
L 7.5 -20 
L 15.09375 -20 
z
M 15.09375 32.625 
C 15.90625 33.84375 19.296875 37.6875 24.796875 37.6875 
C 31.796875 37.6875 37.40625 30.40625 37.40625 21.59375 
C 37.40625 11.578125 30.59375 5.09375 23.90625 5.09375 
C 21.90625 5.09375 19.796875 5.59375 17.796875 7.3125 
C 15.09375 9.75 15.09375 11.265625 15.09375 12.6875 
z
" id="CMSS17-112"/>
      <path d="M 44.5 44 
C 38.796875 43.890625 33.90625 42.796875 29.90625 40.890625 
C 26.59375 43.484375 23.203125 44 20.90625 44 
C 12.203125 44 5.59375 36.8125 5.59375 28.5 
C 5.59375 23.140625 8.59375 19.09375 8.796875 18.890625 
C 7 16.390625 6 13.6875 6 10.6875 
C 6 7.1875 7.40625 4.6875 8.5 3.296875 
C 3.296875 0.09375 2.59375 -4.8125 2.59375 -6.703125 
C 2.59375 -14 11.703125 -20 23.40625 -20 
C 35.203125 -20 44.296875 -14 44.296875 -6.609375 
C 44.296875 7.1875 29 7.296875 24.796875 7.296875 
L 16.703125 7.296875 
C 15.203125 7.296875 11.203125 7.296875 11.203125 12.390625 
C 11.203125 14.390625 12.09375 15.6875 12.203125 15.796875 
C 13.703125 14.6875 16.796875 13 20.90625 13 
C 29.203125 13 36.09375 19.984375 36.09375 28.5 
C 36.09375 33.25 33.90625 36.703125 33 37.890625 
L 33.296875 37.890625 
C 33.59375 37.890625 37.796875 38.1875 39.296875 38.1875 
C 42.5 38.1875 42.796875 38.09375 45.59375 37.796875 
z
M 20.90625 18.5 
C 17.5 18.5 12.703125 20.578125 12.703125 28.5 
C 12.703125 37.109375 18.203125 38.484375 20.796875 38.484375 
C 24.203125 38.484375 29 36.40625 29 28.5 
C 29 19.875 23.5 18.5 20.90625 18.5 
z
M 24.703125 0 
C 27.09375 0 37.203125 0 37.203125 -6.8125 
C 37.203125 -11.109375 31 -14.5 23.5 -14.5 
C 15.90625 -14.5 9.703125 -11.203125 9.703125 -6.703125 
C 9.703125 -6.203125 9.703125 0 16.59375 0 
z
" id="CMSS17-103"/>
      <path d="M 8.90625 69 
L 8.90625 0 
L 33.796875 0 
C 47.40625 0 57.296875 8.984375 57.296875 18.75 
C 57.296875 26.3125 50.796875 33.984375 39.09375 36.1875 
C 52.09375 39.984375 54.703125 47.484375 54.703125 51.734375 
C 54.703125 60.625 44.90625 69 31.203125 69 
z
M 17 39 
L 17 63.390625 
L 28.5 63.390625 
C 38.796875 63.390625 46.90625 58.15625 46.90625 51.640625 
C 46.90625 45.703125 40.5 39 27.59375 39 
z
M 17 5.59375 
L 17 32.890625 
L 30.296875 32.890625 
C 41.09375 32.890625 49.40625 26.21875 49.40625 18.84375 
C 49.40625 12.0625 42.09375 5.59375 31 5.59375 
z
" id="CMSS17-66"/>
      <path d="M 26.09375 6.5 
C 24.90625 6.5 23.703125 6.390625 22.5 6.390625 
L 17.203125 6.390625 
L 17.203125 69 
L 8.796875 69 
L 8.796875 0 
L 46.90625 0 
L 46.90625 6.5 
z
" id="CMSS17-76"/>
     </defs>
     <g transform="translate(35.436997 295.277932)rotate(-90)scale(0.2 -0.2)">
      <use transform="scale(0.996264)" xlink:href="#CMSS17-80"/>
      <use transform="translate(59.735586 0)scale(0.996264)" xlink:href="#CMSS17-114"/>
      <use transform="translate(91.645359 0)scale(0.996264)" xlink:href="#CMSS17-111"/>
      <use transform="translate(138.488982 0)scale(0.996264)" xlink:href="#CMSS17-116"/>
      <use transform="translate(172.320549 0)scale(0.996264)" xlink:href="#CMSS17-101"/>
      <use transform="translate(213.959371 0)scale(0.996264)" xlink:href="#CMSS17-105"/>
      <use transform="translate(236.140094 0)scale(0.996264)" xlink:href="#CMSS17-110"/>
      <use transform="translate(315.57415 0)scale(0.996264)" xlink:href="#CMSS17-112"/>
      <use transform="translate(363.779093 0)scale(0.996264)" xlink:href="#CMSS17-97"/>
      <use transform="translate(406.09856 0)scale(0.996264)" xlink:href="#CMSS17-114"/>
      <use transform="translate(438.008332 0)scale(0.996264)" xlink:href="#CMSS17-116"/>
      <use transform="translate(471.839899 0)scale(0.996264)" xlink:href="#CMSS17-105"/>
      <use transform="translate(494.020622 0)scale(0.996264)" xlink:href="#CMSS17-116"/>
      <use transform="translate(527.852189 0)scale(0.996264)" xlink:href="#CMSS17-105"/>
      <use transform="translate(550.032912 0)scale(0.996264)" xlink:href="#CMSS17-111"/>
      <use transform="translate(596.876535 0)scale(0.996264)" xlink:href="#CMSS17-110"/>
      <use transform="translate(645.081479 0)scale(0.996264)" xlink:href="#CMSS17-105"/>
      <use transform="translate(667.262202 0)scale(0.996264)" xlink:href="#CMSS17-110"/>
      <use transform="translate(715.467145 0)scale(0.996264)" xlink:href="#CMSS17-103"/>
      <use transform="translate(793.539881 0)scale(0.996264)" xlink:href="#CMSS17-116"/>
      <use transform="translate(827.371448 0)scale(0.996264)" xlink:href="#CMSS17-111"/>
      <use transform="translate(905.444184 0)scale(0.996264)" xlink:href="#CMSS17-66"/>
      <use transform="translate(967.782224 0)scale(0.996264)" xlink:href="#CMSS17-76"/>
     </g>
    </g>
   </g>
   <g id="line2d_11">
    <path clip-path="url(#p3c8bc17e1f)" d="M 89.1397 40.402822 
L 129.490214 51.766312 
L 169.840728 88.809854 
L 210.191243 156.337871 
L 250.541757 240.404338 
L 290.892271 326.328174 
L 391.768557 346.459267 
" style="fill:none;stroke:#000000;stroke-linecap:square;stroke-width:1.5;"/>
    <defs>
     <path d="M 0 3 
C 0.795609 3 1.55874 2.683901 2.12132 2.12132 
C 2.683901 1.55874 3 0.795609 3 0 
C 3 -0.795609 2.683901 -1.55874 2.12132 -2.12132 
C 1.55874 -2.683901 0.795609 -3 0 -3 
C -0.795609 -3 -1.55874 -2.683901 -2.12132 -2.12132 
C -2.683901 -1.55874 -3 -0.795609 -3 0 
C -3 0.795609 -2.683901 1.55874 -2.12132 2.12132 
C -1.55874 2.683901 -0.795609 3 0 3 
z
" id="mad86bf80cf" style="stroke:#000000;"/>
    </defs>
    <g clip-path="url(#p3c8bc17e1f)">
     <use style="stroke:#000000;" x="89.1397" xlink:href="#mad86bf80cf" y="40.402822"/>
     <use style="stroke:#000000;" x="129.490214" xlink:href="#mad86bf80cf" y="51.766312"/>
     <use style="stroke:#000000;" x="169.840728" xlink:href="#mad86bf80cf" y="88.809854"/>
     <use style="stroke:#000000;" x="210.191243" xlink:href="#mad86bf80cf" y="156.337871"/>
     <use style="stroke:#000000;" x="250.541757" xlink:href="#mad86bf80cf" y="240.404338"/>
     <use style="stroke:#000000;" x="290.892271" xlink:href="#mad86bf80cf" y="326.328174"/>
     <use style="stroke:#000000;" x="391.768557" xlink:href="#mad86bf80cf" y="346.459267"/>
    </g>
   </g>
   <g id="patch_3">
    <path d="M 74.008257 361.762089 
L 74.008257 25.1 
" style="fill:none;stroke:#000000;stroke-linecap:square;stroke-linejoin:miter;stroke-width:0.8;"/>
   </g>
   <g id="patch_4">
    <path d="M 406.9 361.762089 
L 406.9 25.1 
" style="fill:none;stroke:#000000;stroke-linecap:square;stroke-linejoin:miter;stroke-width:0.8;"/>
   </g>
   <g id="patch_5">
    <path d="M 74.008257 361.762089 
L 406.9 361.762089 
" style="fill:none;stroke:#000000;stroke-linecap:square;stroke-linejoin:miter;stroke-width:0.8;"/>
   </g>
   <g id="patch_6">
    <path d="M 74.008257 25.1 
L 406.9 25.1 
" style="fill:none;stroke:#000000;stroke-linecap:square;stroke-linejoin:miter;stroke-width:0.8;"/>
   </g>
  </g>
 </g>
 <defs>
  <clipPath id="p3c8bc17e1f">
   <rect height="336.662089" width="332.891743" x="74.008257" y="25.1"/>
  </clipPath>
 </defs>
</svg>
