<?xml version="1.0" encoding="utf-8" standalone="no"?>
<!DOCTYPE svg PUBLIC "-//W3C//DTD SVG 1.1//EN"
  "http://www.w3.org/Graphics/SVG/1.1/DTD/svg11.dtd">
<!-- Created with matplotlib (http://matplotlib.org/) -->
<svg height="432pt" version="1.1" viewBox="0 0 432 432" width="432pt" xmlns="http://www.w3.org/2000/svg" xmlns:xlink="http://www.w3.org/1999/xlink">
 <defs>
  <style type="text/css">
*{stroke-linecap:butt;stroke-linejoin:round;}
  </style>
 </defs>
 <g id="figure_1">
  <g id="patch_1">
   <path d="M 0 432 
L 432 432 
L 432 0 
L 0 0 
z
" style="fill:#ffffff;"/>
  </g>
  <g id="axes_1">
   <g id="patch_2">
    <path d="M 54 378 
L 388.8 378 
L 388.8 51.84 
L 54 51.84 
z
" style="fill:#ffffff;"/>
   </g>
   <g id="PathCollection_1">
    <defs>
     <path d="M 0 1.936492 
C 0.513564 1.936492 1.006162 1.732451 1.369306 1.369306 
C 1.732451 1.006162 1.936492 0.513564 1.936492 0 
C 1.936492 -0.513564 1.732451 -1.006162 1.369306 -1.369306 
C 1.006162 -1.732451 0.513564 -1.936492 0 -1.936492 
C -0.513564 -1.936492 -1.006162 -1.732451 -1.369306 -1.369306 
C -1.732451 -1.006162 -1.936492 -0.513564 -1.936492 0 
C -1.936492 0.513564 -1.732451 1.006162 -1.369306 1.369306 
C -1.006162 1.732451 -0.513564 1.936492 0 1.936492 
z
" id="m8481def579" style="stroke:#1f77b4;stroke-opacity:0.5;"/>
    </defs>
    <g clip-path="url(#p37f621fbd0)">
     <use style="fill:#1f77b4;fill-opacity:0.5;stroke:#1f77b4;stroke-opacity:0.5;" x="69.307172" xlink:href="#m8481def579" y="353.33122"/>
     <use style="fill:#1f77b4;fill-opacity:0.5;stroke:#1f77b4;stroke-opacity:0.5;" x="317.811298" xlink:href="#m8481def579" y="338.071753"/>
     <use style="fill:#1f77b4;fill-opacity:0.5;stroke:#1f77b4;stroke-opacity:0.5;" x="318.511696" xlink:href="#m8481def579" y="338.511741"/>
     <use style="fill:#1f77b4;fill-opacity:0.5;stroke:#1f77b4;stroke-opacity:0.5;" x="124.988702" xlink:href="#m8481def579" y="339.03339"/>
     <use style="fill:#1f77b4;fill-opacity:0.5;stroke:#1f77b4;stroke-opacity:0.5;" x="361.577545" xlink:href="#m8481def579" y="352.087141"/>
     <use style="fill:#1f77b4;fill-opacity:0.5;stroke:#1f77b4;stroke-opacity:0.5;" x="362.201067" xlink:href="#m8481def579" y="352.16249"/>
     <use style="fill:#1f77b4;fill-opacity:0.5;stroke:#1f77b4;stroke-opacity:0.5;" x="262.830167" xlink:href="#m8481def579" y="241.917623"/>
     <use style="fill:#1f77b4;fill-opacity:0.5;stroke:#1f77b4;stroke-opacity:0.5;" x="264.154087" xlink:href="#m8481def579" y="246.708194"/>
     <use style="fill:#1f77b4;fill-opacity:0.5;stroke:#1f77b4;stroke-opacity:0.5;" x="119.69302" xlink:href="#m8481def579" y="341.943809"/>
     <use style="fill:#1f77b4;fill-opacity:0.5;stroke:#1f77b4;stroke-opacity:0.5;" x="93.838136" xlink:href="#m8481def579" y="350.371571"/>
     <use style="fill:#1f77b4;fill-opacity:0.5;stroke:#1f77b4;stroke-opacity:0.5;" x="118.992623" xlink:href="#m8481def579" y="342.290643"/>
     <use style="fill:#1f77b4;fill-opacity:0.5;stroke:#1f77b4;stroke-opacity:0.5;" x="226.38392" xlink:href="#m8481def579" y="80.114534"/>
     <use style="fill:#1f77b4;fill-opacity:0.5;stroke:#1f77b4;stroke-opacity:0.5;" x="199.205116" xlink:href="#m8481def579" y="159.474434"/>
     <use style="fill:#1f77b4;fill-opacity:0.5;stroke:#1f77b4;stroke-opacity:0.5;" x="183.318072" xlink:href="#m8481def579" y="235.13931"/>
     <use style="fill:#1f77b4;fill-opacity:0.5;stroke:#1f77b4;stroke-opacity:0.5;" x="182.617674" xlink:href="#m8481def579" y="237.828092"/>
     <use style="fill:#1f77b4;fill-opacity:0.5;stroke:#1f77b4;stroke-opacity:0.5;" x="127.636542" xlink:href="#m8481def579" y="337.368828"/>
     <use style="fill:#1f77b4;fill-opacity:0.5;stroke:#1f77b4;stroke-opacity:0.5;" x="200.529036" xlink:href="#m8481def579" y="152.349121"/>
     <use style="fill:#1f77b4;fill-opacity:0.5;stroke:#1f77b4;stroke-opacity:0.5;" x="77.250694" xlink:href="#m8481def579" y="352.688599"/>
     <use style="fill:#1f77b4;fill-opacity:0.5;stroke:#1f77b4;stroke-opacity:0.5;" x="85.194216" xlink:href="#m8481def579" y="351.776648"/>
     <use style="fill:#1f77b4;fill-opacity:0.5;stroke:#1f77b4;stroke-opacity:0.5;" x="316.487378" xlink:href="#m8481def579" y="337.214326"/>
     <use style="fill:#1f77b4;fill-opacity:0.5;stroke:#1f77b4;stroke-opacity:0.5;" x="85.894614" xlink:href="#m8481def579" y="351.680381"/>
     <use style="fill:#1f77b4;fill-opacity:0.5;stroke:#1f77b4;stroke-opacity:0.5;" x="225.06" xlink:href="#m8481def579" y="78.198473"/>
     <use style="fill:#1f77b4;fill-opacity:0.5;stroke:#1f77b4;stroke-opacity:0.5;" x="113.696941" xlink:href="#m8481def579" y="344.653207"/>
     <use style="fill:#1f77b4;fill-opacity:0.5;stroke:#1f77b4;stroke-opacity:0.5;" x="113.073419" xlink:href="#m8481def579" y="344.904292"/>
     <use style="fill:#1f77b4;fill-opacity:0.5;stroke:#1f77b4;stroke-opacity:0.5;" x="335.72266" xlink:href="#m8481def579" y="346.530945"/>
     <use style="fill:#1f77b4;fill-opacity:0.5;stroke:#1f77b4;stroke-opacity:0.5;" x="211.120399" xlink:href="#m8481def579" y="100.208428"/>
     <use style="fill:#1f77b4;fill-opacity:0.5;stroke:#1f77b4;stroke-opacity:0.5;" x="173.350231" xlink:href="#m8481def579" y="268.574431"/>
     <use style="fill:#1f77b4;fill-opacity:0.5;stroke:#1f77b4;stroke-opacity:0.5;" x="177.321992" xlink:href="#m8481def579" y="256.48391"/>
     <use style="fill:#1f77b4;fill-opacity:0.5;stroke:#1f77b4;stroke-opacity:0.5;" x="140.875746" xlink:href="#m8481def579" y="326.449051"/>
     <use style="fill:#1f77b4;fill-opacity:0.5;stroke:#1f77b4;stroke-opacity:0.5;" x="117.668702" xlink:href="#m8481def579" y="342.922993"/>
     <use style="fill:#1f77b4;fill-opacity:0.5;stroke:#1f77b4;stroke-opacity:0.5;" x="372.168907" xlink:href="#m8481def579" y="353.124331"/>
     <use style="fill:#1f77b4;fill-opacity:0.5;stroke:#1f77b4;stroke-opacity:0.5;" x="148.819268" xlink:href="#m8481def579" y="317.25144"/>
     <use style="fill:#1f77b4;fill-opacity:0.5;stroke:#1f77b4;stroke-opacity:0.5;" x="208.472558" xlink:href="#m8481def579" y="111.650886"/>
     <use style="fill:#1f77b4;fill-opacity:0.5;stroke:#1f77b4;stroke-opacity:0.5;" x="294.604255" xlink:href="#m8481def579" y="316.009956"/>
     <use style="fill:#1f77b4;fill-opacity:0.5;stroke:#1f77b4;stroke-opacity:0.5;" x="334.39874" xlink:href="#m8481def579" y="346.072472"/>
     <use style="fill:#1f77b4;fill-opacity:0.5;stroke:#1f77b4;stroke-opacity:0.5;" x="189.237275" xlink:href="#m8481def579" y="209.989184"/>
     <use style="fill:#1f77b4;fill-opacity:0.5;stroke:#1f77b4;stroke-opacity:0.5;" x="373.492828" xlink:href="#m8481def579" y="353.222767"/>
     <use style="fill:#1f77b4;fill-opacity:0.5;stroke:#1f77b4;stroke-opacity:0.5;" x="187.289833" xlink:href="#m8481def579" y="218.712498"/>
     <use style="fill:#1f77b4;fill-opacity:0.5;stroke:#1f77b4;stroke-opacity:0.5;" x="132.932224" xlink:href="#m8481def579" y="333.562351"/>
     <use style="fill:#1f77b4;fill-opacity:0.5;stroke:#1f77b4;stroke-opacity:0.5;" x="99.133818" xlink:href="#m8481def579" y="349.238082"/>
     <use style="fill:#1f77b4;fill-opacity:0.5;stroke:#1f77b4;stroke-opacity:0.5;" x="158.787108" xlink:href="#m8481def579" y="301.87249"/>
     <use style="fill:#1f77b4;fill-opacity:0.5;stroke:#1f77b4;stroke-opacity:0.5;" x="149.519666" xlink:href="#m8481def579" y="316.324865"/>
     <use style="fill:#1f77b4;fill-opacity:0.5;stroke:#1f77b4;stroke-opacity:0.5;" x="188.613753" xlink:href="#m8481def579" y="212.824909"/>
     <use style="fill:#1f77b4;fill-opacity:0.5;stroke:#1f77b4;stroke-opacity:0.5;" x="244.918805" xlink:href="#m8481def579" y="158.216033"/>
     <use style="fill:#1f77b4;fill-opacity:0.5;stroke:#1f77b4;stroke-opacity:0.5;" x="186.589435" xlink:href="#m8481def579" y="221.743574"/>
     <use style="fill:#1f77b4;fill-opacity:0.5;stroke:#1f77b4;stroke-opacity:0.5;" x="246.242725" xlink:href="#m8481def579" y="165.319754"/>
     <use style="fill:#1f77b4;fill-opacity:0.5;stroke:#1f77b4;stroke-opacity:0.5;" x="75.926774" xlink:href="#m8481def579" y="352.812245"/>
     <use style="fill:#1f77b4;fill-opacity:0.5;stroke:#1f77b4;stroke-opacity:0.5;" x="162.758869" xlink:href="#m8481def579" y="294.257348"/>
     <use style="fill:#1f77b4;fill-opacity:0.5;stroke:#1f77b4;stroke-opacity:0.5;" x="73.278933" xlink:href="#m8481def579" y="353.038724"/>
     <use style="fill:#1f77b4;fill-opacity:0.5;stroke:#1f77b4;stroke-opacity:0.5;" x="101.781658" xlink:href="#m8481def579" y="348.578076"/>
     <use style="fill:#1f77b4;fill-opacity:0.5;stroke:#1f77b4;stroke-opacity:0.5;" x="81.922853" xlink:href="#m8481def579" y="352.190203"/>
     <use style="fill:#1f77b4;fill-opacity:0.5;stroke:#1f77b4;stroke-opacity:0.5;" x="81.222455" xlink:href="#m8481def579" y="352.271437"/>
     <use style="fill:#1f77b4;fill-opacity:0.5;stroke:#1f77b4;stroke-opacity:0.5;" x="369.521067" xlink:href="#m8481def579" y="352.908698"/>
     <use style="fill:#1f77b4;fill-opacity:0.5;stroke:#1f77b4;stroke-opacity:0.5;" x="89.866375" xlink:href="#m8481def579" y="351.078714"/>
     <use style="fill:#1f77b4;fill-opacity:0.5;stroke:#1f77b4;stroke-opacity:0.5;" x="280.041131" xlink:href="#m8481def579" y="290.997495"/>
     <use style="fill:#1f77b4;fill-opacity:0.5;stroke:#1f77b4;stroke-opacity:0.5;" x="320.459139" xlink:href="#m8481def579" y="339.676061"/>
     <use style="fill:#1f77b4;fill-opacity:0.5;stroke:#1f77b4;stroke-opacity:0.5;" x="89.165977" xlink:href="#m8481def579" y="351.192318"/>
     <use style="fill:#1f77b4;fill-opacity:0.5;stroke:#1f77b4;stroke-opacity:0.5;" x="308.543856" xlink:href="#m8481def579" y="331.191998"/>
     <use style="fill:#1f77b4;fill-opacity:0.5;stroke:#1f77b4;stroke-opacity:0.5;" x="97.809897" xlink:href="#m8481def579" y="349.543703"/>
     <use style="fill:#1f77b4;fill-opacity:0.5;stroke:#1f77b4;stroke-opacity:0.5;" x="266.801928" xlink:href="#m8481def579" y="255.721688"/>
     <use style="fill:#1f77b4;fill-opacity:0.5;stroke:#1f77b4;stroke-opacity:0.5;" x="91.190296" xlink:href="#m8481def579" y="350.855484"/>
     <use style="fill:#1f77b4;fill-opacity:0.5;stroke:#1f77b4;stroke-opacity:0.5;" x="338.370501" xlink:href="#m8481def579" y="347.384104"/>
     <use style="fill:#1f77b4;fill-opacity:0.5;stroke:#1f77b4;stroke-opacity:0.5;" x="321.783059" xlink:href="#m8481def579" y="340.425399"/>
     <use style="fill:#1f77b4;fill-opacity:0.5;stroke:#1f77b4;stroke-opacity:0.5;" x="83.870296" xlink:href="#m8481def579" y="351.950877"/>
     <use style="fill:#1f77b4;fill-opacity:0.5;stroke:#1f77b4;stroke-opacity:0.5;" x="319.835616" xlink:href="#m8481def579" y="339.31207"/>
     <use style="fill:#1f77b4;fill-opacity:0.5;stroke:#1f77b4;stroke-opacity:0.5;" x="83.246774" xlink:href="#m8481def579" y="352.029716"/>
     <use style="fill:#1f77b4;fill-opacity:0.5;stroke:#1f77b4;stroke-opacity:0.5;" x="230.355681" xlink:href="#m8481def579" y="89.850945"/>
     <use style="fill:#1f77b4;fill-opacity:0.5;stroke:#1f77b4;stroke-opacity:0.5;" x="309.867776" xlink:href="#m8481def579" y="332.308489"/>
     <use style="fill:#1f77b4;fill-opacity:0.5;stroke:#1f77b4;stroke-opacity:0.5;" x="323.807377" xlink:href="#m8481def579" y="341.507626"/>
     <use style="fill:#1f77b4;fill-opacity:0.5;stroke:#1f77b4;stroke-opacity:0.5;" x="324.4309" xlink:href="#m8481def579" y="341.826037"/>
     <use style="fill:#1f77b4;fill-opacity:0.5;stroke:#1f77b4;stroke-opacity:0.5;" x="236.975283" xlink:href="#m8481def579" y="116.782912"/>
     <use style="fill:#1f77b4;fill-opacity:0.5;stroke:#1f77b4;stroke-opacity:0.5;" x="238.299203" xlink:href="#m8481def579" y="123.286559"/>
     <use style="fill:#1f77b4;fill-opacity:0.5;stroke:#1f77b4;stroke-opacity:0.5;" x="274.74545" xlink:href="#m8481def579" y="278.63835"/>
     <use style="fill:#1f77b4;fill-opacity:0.5;stroke:#1f77b4;stroke-opacity:0.5;" x="268.125848" xlink:href="#m8481def579" y="259.95243"/>
     <use style="fill:#1f77b4;fill-opacity:0.5;stroke:#1f77b4;stroke-opacity:0.5;" x="229.031761" xlink:href="#m8481def579" y="85.975195"/>
     <use style="fill:#1f77b4;fill-opacity:0.5;stroke:#1f77b4;stroke-opacity:0.5;" x="368.197146" xlink:href="#m8481def579" y="352.790894"/>
     <use style="fill:#1f77b4;fill-opacity:0.5;stroke:#1f77b4;stroke-opacity:0.5;" x="233.003522" xlink:href="#m8481def579" y="99.273558"/>
     <use style="fill:#1f77b4;fill-opacity:0.5;stroke:#1f77b4;stroke-opacity:0.5;" x="234.327442" xlink:href="#m8481def579" y="104.716343"/>
     <use style="fill:#1f77b4;fill-opacity:0.5;stroke:#1f77b4;stroke-opacity:0.5;" x="248.890566" xlink:href="#m8481def579" y="179.312315"/>
     <use style="fill:#1f77b4;fill-opacity:0.5;stroke:#1f77b4;stroke-opacity:0.5;" x="135.580064" xlink:href="#m8481def579" y="331.393204"/>
     <use style="fill:#1f77b4;fill-opacity:0.5;stroke:#1f77b4;stroke-opacity:0.5;" x="250.214486" xlink:href="#m8481def579" y="186.13307"/>
     <use style="fill:#1f77b4;fill-opacity:0.5;stroke:#1f77b4;stroke-opacity:0.5;" x="111.049101" xlink:href="#m8481def579" y="345.678329"/>
     <use style="fill:#1f77b4;fill-opacity:0.5;stroke:#1f77b4;stroke-opacity:0.5;" x="128.960463" xlink:href="#m8481def579" y="336.479434"/>
     <use style="fill:#1f77b4;fill-opacity:0.5;stroke:#1f77b4;stroke-opacity:0.5;" x="327.779138" xlink:href="#m8481def579" y="343.42179"/>
     <use style="fill:#1f77b4;fill-opacity:0.5;stroke:#1f77b4;stroke-opacity:0.5;" x="143.523586" xlink:href="#m8481def579" y="323.639507"/>
     <use style="fill:#1f77b4;fill-opacity:0.5;stroke:#1f77b4;stroke-opacity:0.5;" x="117.04518" xlink:href="#m8481def579" y="343.21127"/>
     <use style="fill:#1f77b4;fill-opacity:0.5;stroke:#1f77b4;stroke-opacity:0.5;" x="136.903985" xlink:href="#m8481def579" y="330.236142"/>
     <use style="fill:#1f77b4;fill-opacity:0.5;stroke:#1f77b4;stroke-opacity:0.5;" x="122.964383" xlink:href="#m8481def579" y="340.209642"/>
     <use style="fill:#1f77b4;fill-opacity:0.5;stroke:#1f77b4;stroke-opacity:0.5;" x="256.834088" xlink:href="#m8481def579" y="217.689087"/>
     <use style="fill:#1f77b4;fill-opacity:0.5;stroke:#1f77b4;stroke-opacity:0.5;" x="215.09216" xlink:href="#m8481def579" y="86.623986"/>
     <use style="fill:#1f77b4;fill-opacity:0.5;stroke:#1f77b4;stroke-opacity:0.5;" x="326.455218" xlink:href="#m8481def579" y="342.813051"/>
     <use style="fill:#1f77b4;fill-opacity:0.5;stroke:#1f77b4;stroke-opacity:0.5;" x="152.791029" xlink:href="#m8481def579" y="311.700407"/>
     <use style="fill:#1f77b4;fill-opacity:0.5;stroke:#1f77b4;stroke-opacity:0.5;" x="165.406709" xlink:href="#m8481def579" y="288.621473"/>
     <use style="fill:#1f77b4;fill-opacity:0.5;stroke:#1f77b4;stroke-opacity:0.5;" x="178.645913" xlink:href="#m8481def579" y="252.105398"/>
     <use style="fill:#1f77b4;fill-opacity:0.5;stroke:#1f77b4;stroke-opacity:0.5;" x="79.898535" xlink:href="#m8481def579" y="352.418541"/>
     <use style="fill:#1f77b4;fill-opacity:0.5;stroke:#1f77b4;stroke-opacity:0.5;" x="322.483457" xlink:href="#m8481def579" y="340.808851"/>
     <use style="fill:#1f77b4;fill-opacity:0.5;stroke:#1f77b4;stroke-opacity:0.5;" x="339.694421" xlink:href="#m8481def579" y="347.780291"/>
     <use style="fill:#1f77b4;fill-opacity:0.5;stroke:#1f77b4;stroke-opacity:0.5;" x="161.434949" xlink:href="#m8481def579" y="296.902069"/>
     <use style="fill:#1f77b4;fill-opacity:0.5;stroke:#1f77b4;stroke-opacity:0.5;" x="153.491427" xlink:href="#m8481def579" y="310.646059"/>
     <use style="fill:#1f77b4;fill-opacity:0.5;stroke:#1f77b4;stroke-opacity:0.5;" x="144.847507" xlink:href="#m8481def579" y="322.142775"/>
     <use style="fill:#1f77b4;fill-opacity:0.5;stroke:#1f77b4;stroke-opacity:0.5;" x="204.500797" xlink:href="#m8481def579" y="131.240635"/>
     <use style="fill:#1f77b4;fill-opacity:0.5;stroke:#1f77b4;stroke-opacity:0.5;" x="166.73063" xlink:href="#m8481def579" y="285.622377"/>
     <use style="fill:#1f77b4;fill-opacity:0.5;stroke:#1f77b4;stroke-opacity:0.5;" x="260.182326" xlink:href="#m8481def579" y="231.733269"/>
     <use style="fill:#1f77b4;fill-opacity:0.5;stroke:#1f77b4;stroke-opacity:0.5;" x="364.225385" xlink:href="#m8481def579" y="352.39312"/>
     <use style="fill:#1f77b4;fill-opacity:0.5;stroke:#1f77b4;stroke-opacity:0.5;" x="123.664781" xlink:href="#m8481def579" y="339.81109"/>
     <use style="fill:#1f77b4;fill-opacity:0.5;stroke:#1f77b4;stroke-opacity:0.5;" x="190.561196" xlink:href="#m8481def579" y="203.814009"/>
     <use style="fill:#1f77b4;fill-opacity:0.5;stroke:#1f77b4;stroke-opacity:0.5;" x="184.641992" xlink:href="#m8481def579" y="229.872645"/>
     <use style="fill:#1f77b4;fill-opacity:0.5;stroke:#1f77b4;stroke-opacity:0.5;" x="207.148638" xlink:href="#m8481def579" y="117.916159"/>
     <use style="fill:#1f77b4;fill-opacity:0.5;stroke:#1f77b4;stroke-opacity:0.5;" x="115.020862" xlink:href="#m8481def579" y="344.103302"/>
     <use style="fill:#1f77b4;fill-opacity:0.5;stroke:#1f77b4;stroke-opacity:0.5;" x="203.176877" xlink:href="#m8481def579" y="138.180861"/>
     <use style="fill:#1f77b4;fill-opacity:0.5;stroke:#1f77b4;stroke-opacity:0.5;" x="325.75482" xlink:href="#m8481def579" y="342.47954"/>
     <use style="fill:#1f77b4;fill-opacity:0.5;stroke:#1f77b4;stroke-opacity:0.5;" x="222.412159" xlink:href="#m8481def579" y="76.50878"/>
     <use style="fill:#1f77b4;fill-opacity:0.5;stroke:#1f77b4;stroke-opacity:0.5;" x="185.265514" xlink:href="#m8481def579" y="227.309362"/>
     <use style="fill:#1f77b4;fill-opacity:0.5;stroke:#1f77b4;stroke-opacity:0.5;" x="278.717211" xlink:href="#m8481def579" y="288.100108"/>
     <use style="fill:#1f77b4;fill-opacity:0.5;stroke:#1f77b4;stroke-opacity:0.5;" x="212.444319" xlink:href="#m8481def579" y="95.149059"/>
     <use style="fill:#1f77b4;fill-opacity:0.5;stroke:#1f77b4;stroke-opacity:0.5;" x="191.261594" xlink:href="#m8481def579" y="200.442652"/>
     <use style="fill:#1f77b4;fill-opacity:0.5;stroke:#1f77b4;stroke-opacity:0.5;" x="221.088239" xlink:href="#m8481def579" y="76.755554"/>
     <use style="fill:#1f77b4;fill-opacity:0.5;stroke:#1f77b4;stroke-opacity:0.5;" x="242.270964" xlink:href="#m8481def579" y="143.979564"/>
     <use style="fill:#1f77b4;fill-opacity:0.5;stroke:#1f77b4;stroke-opacity:0.5;" x="121.640463" xlink:href="#m8481def579" y="340.935048"/>
     <use style="fill:#1f77b4;fill-opacity:0.5;stroke:#1f77b4;stroke-opacity:0.5;" x="181.293753" xlink:href="#m8481def579" y="242.780874"/>
     <use style="fill:#1f77b4;fill-opacity:0.5;stroke:#1f77b4;stroke-opacity:0.5;" x="250.914884" xlink:href="#m8481def579" y="189.717997"/>
     <use style="fill:#1f77b4;fill-opacity:0.5;stroke:#1f77b4;stroke-opacity:0.5;" x="282.688972" xlink:href="#m8481def579" y="296.442429"/>
     <use style="fill:#1f77b4;fill-opacity:0.5;stroke:#1f77b4;stroke-opacity:0.5;" x="223.035681" xlink:href="#m8481def579" y="76.669805"/>
     <use style="fill:#1f77b4;fill-opacity:0.5;stroke:#1f77b4;stroke-opacity:0.5;" x="296.628573" xlink:href="#m8481def579" y="318.655017"/>
     <use style="fill:#1f77b4;fill-opacity:0.5;stroke:#1f77b4;stroke-opacity:0.5;" x="131.608303" xlink:href="#m8481def579" y="334.577615"/>
     <use style="fill:#1f77b4;fill-opacity:0.5;stroke:#1f77b4;stroke-opacity:0.5;" x="360.253624" xlink:href="#m8481def579" y="351.920738"/>
     <use style="fill:#1f77b4;fill-opacity:0.5;stroke:#1f77b4;stroke-opacity:0.5;" x="109.72518" xlink:href="#m8481def579" y="346.155281"/>
     <use style="fill:#1f77b4;fill-opacity:0.5;stroke:#1f77b4;stroke-opacity:0.5;" x="365.549306" xlink:href="#m8481def579" y="352.533442"/>
     <use style="fill:#1f77b4;fill-opacity:0.5;stroke:#1f77b4;stroke-opacity:0.5;" x="115.721259" xlink:href="#m8481def579" y="343.802129"/>
     <use style="fill:#1f77b4;fill-opacity:0.5;stroke:#1f77b4;stroke-opacity:0.5;" x="79.275013" xlink:href="#m8481def579" y="352.485144"/>
     <use style="fill:#1f77b4;fill-opacity:0.5;stroke:#1f77b4;stroke-opacity:0.5;" x="312.515617" xlink:href="#m8481def579" y="334.401157"/>
     <use style="fill:#1f77b4;fill-opacity:0.5;stroke:#1f77b4;stroke-opacity:0.5;" x="95.162057" xlink:href="#m8481def579" y="350.109882"/>
     <use style="fill:#1f77b4;fill-opacity:0.5;stroke:#1f77b4;stroke-opacity:0.5;" x="240.947044" xlink:href="#m8481def579" y="136.942891"/>
     <use style="fill:#1f77b4;fill-opacity:0.5;stroke:#1f77b4;stroke-opacity:0.5;" x="87.842057" xlink:href="#m8481def579" y="351.397804"/>
     <use style="fill:#1f77b4;fill-opacity:0.5;stroke:#1f77b4;stroke-opacity:0.5;" x="363.524987" xlink:href="#m8481def579" y="352.315671"/>
     <use style="fill:#1f77b4;fill-opacity:0.5;stroke:#1f77b4;stroke-opacity:0.5;" x="328.402661" xlink:href="#m8481def579" y="343.699649"/>
     <use style="fill:#1f77b4;fill-opacity:0.5;stroke:#1f77b4;stroke-opacity:0.5;" x="359.553226" xlink:href="#m8481def579" y="351.828855"/>
     <use style="fill:#1f77b4;fill-opacity:0.5;stroke:#1f77b4;stroke-opacity:0.5;" x="330.426979" xlink:href="#m8481def579" y="344.557662"/>
     <use style="fill:#1f77b4;fill-opacity:0.5;stroke:#1f77b4;stroke-opacity:0.5;" x="87.218535" xlink:href="#m8481def579" y="351.490712"/>
     <use style="fill:#1f77b4;fill-opacity:0.5;stroke:#1f77b4;stroke-opacity:0.5;" x="256.210565" xlink:href="#m8481def579" y="214.919472"/>
     <use style="fill:#1f77b4;fill-opacity:0.5;stroke:#1f77b4;stroke-opacity:0.5;" x="286.660733" xlink:href="#m8481def579" y="303.79984"/>
     <use style="fill:#1f77b4;fill-opacity:0.5;stroke:#1f77b4;stroke-opacity:0.5;" x="288.685051" xlink:href="#m8481def579" y="307.210162"/>
     <use style="fill:#1f77b4;fill-opacity:0.5;stroke:#1f77b4;stroke-opacity:0.5;" x="258.858406" xlink:href="#m8481def579" y="226.337201"/>
     <use style="fill:#1f77b4;fill-opacity:0.5;stroke:#1f77b4;stroke-opacity:0.5;" x="260.805849" xlink:href="#m8481def579" y="234.225724"/>
     <use style="fill:#1f77b4;fill-opacity:0.5;stroke:#1f77b4;stroke-opacity:0.5;" x="252.862327" xlink:href="#m8481def579" y="199.313814"/>
     <use style="fill:#1f77b4;fill-opacity:0.5;stroke:#1f77b4;stroke-opacity:0.5;" x="270.773689" xlink:href="#m8481def579" y="267.902812"/>
     <use style="fill:#1f77b4;fill-opacity:0.5;stroke:#1f77b4;stroke-opacity:0.5;" x="284.012892" xlink:href="#m8481def579" y="298.997633"/>
     <use style="fill:#1f77b4;fill-opacity:0.5;stroke:#1f77b4;stroke-opacity:0.5;" x="297.952493" xlink:href="#m8481def579" y="320.296536"/>
     <use style="fill:#1f77b4;fill-opacity:0.5;stroke:#1f77b4;stroke-opacity:0.5;" x="287.984653" xlink:href="#m8481def579" y="306.053538"/>
     <use style="fill:#1f77b4;fill-opacity:0.5;stroke:#1f77b4;stroke-opacity:0.5;" x="121.016941" xlink:href="#m8481def579" y="341.265163"/>
     <use style="fill:#1f77b4;fill-opacity:0.5;stroke:#1f77b4;stroke-opacity:0.5;" x="357.605784" xlink:href="#m8481def579" y="351.558693"/>
     <use style="fill:#1f77b4;fill-opacity:0.5;stroke:#1f77b4;stroke-opacity:0.5;" x="329.726581" xlink:href="#m8481def579" y="344.268236"/>
     <use style="fill:#1f77b4;fill-opacity:0.5;stroke:#1f77b4;stroke-opacity:0.5;" x="331.750899" xlink:href="#m8481def579" y="345.086673"/>
     <use style="fill:#1f77b4;fill-opacity:0.5;stroke:#1f77b4;stroke-opacity:0.5;" x="252.238804" xlink:href="#m8481def579" y="196.29225"/>
     <use style="fill:#1f77b4;fill-opacity:0.5;stroke:#1f77b4;stroke-opacity:0.5;" x="358.229306" xlink:href="#m8481def579" y="351.647604"/>
     <use style="fill:#1f77b4;fill-opacity:0.5;stroke:#1f77b4;stroke-opacity:0.5;" x="286.03721" xlink:href="#m8481def579" y="302.708739"/>
     <use style="fill:#1f77b4;fill-opacity:0.5;stroke:#1f77b4;stroke-opacity:0.5;" x="342.342262" xlink:href="#m8481def579" y="348.516407"/>
     <use style="fill:#1f77b4;fill-opacity:0.5;stroke:#1f77b4;stroke-opacity:0.5;" x="284.71329" xlink:href="#m8481def579" y="300.313694"/>
     <use style="fill:#1f77b4;fill-opacity:0.5;stroke:#1f77b4;stroke-opacity:0.5;" x="313.839537" xlink:href="#m8481def579" y="335.380402"/>
     <use style="fill:#1f77b4;fill-opacity:0.5;stroke:#1f77b4;stroke-opacity:0.5;" x="254.186247" xlink:href="#m8481def579" y="205.633771"/>
     <use style="fill:#1f77b4;fill-opacity:0.5;stroke:#1f77b4;stroke-opacity:0.5;" x="254.886645" xlink:href="#m8481def579" y="208.906865"/>
     <use style="fill:#1f77b4;fill-opacity:0.5;stroke:#1f77b4;stroke-opacity:0.5;" x="353.634023" xlink:href="#m8481def579" y="350.93565"/>
     <use style="fill:#1f77b4;fill-opacity:0.5;stroke:#1f77b4;stroke-opacity:0.5;" x="272.097609" xlink:href="#m8481def579" y="271.632089"/>
     <use style="fill:#1f77b4;fill-opacity:0.5;stroke:#1f77b4;stroke-opacity:0.5;" x="258.158008" xlink:href="#m8481def579" y="223.406944"/>
     <use style="fill:#1f77b4;fill-opacity:0.5;stroke:#1f77b4;stroke-opacity:0.5;" x="356.281863" xlink:href="#m8481def579" y="351.362217"/>
     <use style="fill:#1f77b4;fill-opacity:0.5;stroke:#1f77b4;stroke-opacity:0.5;" x="139.551825" xlink:href="#m8481def579" y="327.76584"/>
     <use style="fill:#1f77b4;fill-opacity:0.5;stroke:#1f77b4;stroke-opacity:0.5;" x="300.600334" xlink:href="#m8481def579" y="323.378991"/>
     <use style="fill:#1f77b4;fill-opacity:0.5;stroke:#1f77b4;stroke-opacity:0.5;" x="276.06937" xlink:href="#m8481def579" y="281.924883"/>
     <use style="fill:#1f77b4;fill-opacity:0.5;stroke:#1f77b4;stroke-opacity:0.5;" x="301.924254" xlink:href="#m8481def579" y="324.824251"/>
     <use style="fill:#1f77b4;fill-opacity:0.5;stroke:#1f77b4;stroke-opacity:0.5;" x="105.753419" xlink:href="#m8481def579" y="347.455674"/>
     <use style="fill:#1f77b4;fill-opacity:0.5;stroke:#1f77b4;stroke-opacity:0.5;" x="192.585514" xlink:href="#m8481def579" y="193.970936"/>
     <use style="fill:#1f77b4;fill-opacity:0.5;stroke:#1f77b4;stroke-opacity:0.5;" x="196.557275" xlink:href="#m8481def579" y="173.60119"/>
     <use style="fill:#1f77b4;fill-opacity:0.5;stroke:#1f77b4;stroke-opacity:0.5;" x="151.467108" xlink:href="#m8481def579" y="313.628671"/>
     <use style="fill:#1f77b4;fill-opacity:0.5;stroke:#1f77b4;stroke-opacity:0.5;" x="147.495347" xlink:href="#m8481def579" y="318.950971"/>
     <use style="fill:#1f77b4;fill-opacity:0.5;stroke:#1f77b4;stroke-opacity:0.5;" x="195.233355" xlink:href="#m8481def579" y="180.526544"/>
     <use style="fill:#1f77b4;fill-opacity:0.5;stroke:#1f77b4;stroke-opacity:0.5;" x="305.896015" xlink:href="#m8481def579" y="328.807848"/>
     <use style="fill:#1f77b4;fill-opacity:0.5;stroke:#1f77b4;stroke-opacity:0.5;" x="174.674152" xlink:href="#m8481def579" y="264.713726"/>
     <use style="fill:#1f77b4;fill-opacity:0.5;stroke:#1f77b4;stroke-opacity:0.5;" x="157.463188" xlink:href="#m8481def579" y="304.205137"/>
     <use style="fill:#1f77b4;fill-opacity:0.5;stroke:#1f77b4;stroke-opacity:0.5;" x="347.637943" xlink:href="#m8481def579" y="349.783751"/>
     <use style="fill:#1f77b4;fill-opacity:0.5;stroke:#1f77b4;stroke-opacity:0.5;" x="217.116478" xlink:href="#m8481def579" y="81.80057"/>
     <use style="fill:#1f77b4;fill-opacity:0.5;stroke:#1f77b4;stroke-opacity:0.5;" x="103.105579" xlink:href="#m8481def579" y="348.222423"/>
     <use style="fill:#1f77b4;fill-opacity:0.5;stroke:#1f77b4;stroke-opacity:0.5;" x="291.956414" xlink:href="#m8481def579" y="312.276091"/>
     <use style="fill:#1f77b4;fill-opacity:0.5;stroke:#1f77b4;stroke-opacity:0.5;" x="154.815347" xlink:href="#m8481def579" y="308.58888"/>
     <use style="fill:#1f77b4;fill-opacity:0.5;stroke:#1f77b4;stroke-opacity:0.5;" x="290.632494" xlink:href="#m8481def579" y="310.28872"/>
     <use style="fill:#1f77b4;fill-opacity:0.5;stroke:#1f77b4;stroke-opacity:0.5;" x="169.37847" xlink:href="#m8481def579" y="279.229975"/>
     <use style="fill:#1f77b4;fill-opacity:0.5;stroke:#1f77b4;stroke-opacity:0.5;" x="107.07734" xlink:href="#m8481def579" y="347.043175"/>
     <use style="fill:#1f77b4;fill-opacity:0.5;stroke:#1f77b4;stroke-opacity:0.5;" x="150.843586" xlink:href="#m8481def579" y="314.511371"/>
     <use style="fill:#1f77b4;fill-opacity:0.5;stroke:#1f77b4;stroke-opacity:0.5;" x="304.572095" xlink:href="#m8481def579" y="327.536755"/>
     <use style="fill:#1f77b4;fill-opacity:0.5;stroke:#1f77b4;stroke-opacity:0.5;" x="155.438869" xlink:href="#m8481def579" y="307.591286"/>
     <use style="fill:#1f77b4;fill-opacity:0.5;stroke:#1f77b4;stroke-opacity:0.5;" x="156.76279" xlink:href="#m8481def579" y="305.404741"/>
     <use style="fill:#1f77b4;fill-opacity:0.5;stroke:#1f77b4;stroke-opacity:0.5;" x="170.702391" xlink:href="#m8481def579" y="275.827713"/>
     <use style="fill:#1f77b4;fill-opacity:0.5;stroke:#1f77b4;stroke-opacity:0.5;" x="350.285784" xlink:href="#m8481def579" y="350.326269"/>
     <use style="fill:#1f77b4;fill-opacity:0.5;stroke:#1f77b4;stroke-opacity:0.5;" x="292.656812" xlink:href="#m8481def579" y="313.292726"/>
     <use style="fill:#1f77b4;fill-opacity:0.5;stroke:#1f77b4;stroke-opacity:0.5;" x="290.008971" xlink:href="#m8481def579" y="309.322785"/>
     <use style="fill:#1f77b4;fill-opacity:0.5;stroke:#1f77b4;stroke-opacity:0.5;" x="293.980732" xlink:href="#m8481def579" y="315.155542"/>
     <use style="fill:#1f77b4;fill-opacity:0.5;stroke:#1f77b4;stroke-opacity:0.5;" x="354.257545" xlink:href="#m8481def579" y="351.040107"/>
     <use style="fill:#1f77b4;fill-opacity:0.5;stroke:#1f77b4;stroke-opacity:0.5;" x="346.314023" xlink:href="#m8481def579" y="349.490755"/>
     <use style="fill:#1f77b4;fill-opacity:0.5;stroke:#1f77b4;stroke-opacity:0.5;" x="71.955013" xlink:href="#m8481def579" y="353.142174"/>
     <use style="fill:#1f77b4;fill-opacity:0.5;stroke:#1f77b4;stroke-opacity:0.5;" x="224.359602" xlink:href="#m8481def579" y="77.515886"/>
     <use style="fill:#1f77b4;fill-opacity:0.5;stroke:#1f77b4;stroke-opacity:0.5;" x="220.387841" xlink:href="#m8481def579" y="77.162562"/>
     <use style="fill:#1f77b4;fill-opacity:0.5;stroke:#1f77b4;stroke-opacity:0.5;" x="343.666182" xlink:href="#m8481def579" y="348.857694"/>
     <use style="fill:#1f77b4;fill-opacity:0.5;stroke:#1f77b4;stroke-opacity:0.5;" x="351.609704" xlink:href="#m8481def579" y="350.576896"/>
     <use style="fill:#1f77b4;fill-opacity:0.5;stroke:#1f77b4;stroke-opacity:0.5;" x="218.440398" xlink:href="#m8481def579" y="79.417445"/>
     <use style="fill:#1f77b4;fill-opacity:0.5;stroke:#1f77b4;stroke-opacity:0.5;" x="355.581465" xlink:href="#m8481def579" y="351.253672"/>
     <use style="fill:#1f77b4;fill-opacity:0.5;stroke:#1f77b4;stroke-opacity:0.5;" x="216.41608" xlink:href="#m8481def579" y="83.254409"/>
     <use style="fill:#1f77b4;fill-opacity:0.5;stroke:#1f77b4;stroke-opacity:0.5;" x="219.06392" xlink:href="#m8481def579" y="78.495447"/>
     <use style="fill:#1f77b4;fill-opacity:0.5;stroke:#1f77b4;stroke-opacity:0.5;" x="227.007442" xlink:href="#m8481def579" y="81.342103"/>
    </g>
   </g>
   <g id="matplotlib.axis_1">
    <g id="xtick_1">
     <g id="line2d_1">
      <defs>
       <path d="M 0 0 
L 0 3.5 
" id="m9667035458" style="stroke:#000000;stroke-width:0.8;"/>
      </defs>
      <g>
       <use style="stroke:#000000;stroke-width:0.8;" x="68.323371" xlink:href="#m9667035458" y="378"/>
      </g>
     </g>
     <g id="text_1">
      <!-- $-10$ -->
      <defs>
       <path d="M 65.90625 23 
C 67.59375 23 69.40625 23 69.40625 25 
C 69.40625 27 67.59375 27 65.90625 27 
L 11.796875 27 
C 10.09375 27 8.296875 27 8.296875 25 
C 8.296875 23 10.09375 23 11.796875 23 
z
" id="CMSY10-0"/>
       <path d="M 29.09375 68 
L 11.09375 59 
L 11.09375 57.59375 
C 12.296875 58.09375 13.40625 58.484375 13.796875 58.6875 
C 15.59375 59.390625 17.296875 59.78125 18.296875 59.78125 
C 20.40625 59.78125 21.296875 58.296875 21.296875 55.078125 
L 21.296875 9.359375 
C 21.296875 6.03125 20.5 3.71875 18.90625 2.796875 
C 17.40625 1.890625 16 1.59375 11.796875 1.5 
L 11.796875 0 
L 39.40625 0 
L 39.40625 1.5 
C 31.5 1.59375 29.90625 2.609375 29.90625 7.453125 
L 29.90625 67.796875 
z
" id="Nimbus_Roman_No9_L_Regular-49"/>
       <path d="M 25.40625 68 
C 19.90625 68 15.703125 66.296875 12 62.796875 
C 6.203125 57.203125 2.40625 45.6875 2.40625 34 
C 2.40625 23.09375 5.703125 11.390625 10.40625 5.796875 
C 14.09375 1.390625 19.203125 -1 25 -1 
C 30.09375 -1 34.40625 0.6875 38 4.1875 
C 43.796875 9.6875 47.59375 21.296875 47.59375 33.390625 
C 47.59375 53.890625 38.5 68 25.40625 68 
z
M 25.09375 65.390625 
C 33.5 65.390625 38 54.09375 38 33.1875 
C 38 12.296875 33.59375 1.59375 25 1.59375 
C 16.40625 1.59375 12 12.296875 12 33.09375 
C 12 54.296875 16.5 65.390625 25.09375 65.390625 
z
" id="Nimbus_Roman_No9_L_Regular-48"/>
      </defs>
      <g transform="translate(50.619861 398.509155)scale(0.2 -0.2)">
       <use transform="scale(0.996264)" xlink:href="#CMSY10-0"/>
       <use transform="translate(77.408707 0)scale(0.996264)" xlink:href="#Nimbus_Roman_No9_L_Regular-49"/>
       <use transform="translate(127.221908 0)scale(0.996264)" xlink:href="#Nimbus_Roman_No9_L_Regular-48"/>
      </g>
     </g>
    </g>
    <g id="xtick_2">
     <g id="line2d_2">
      <g>
       <use style="stroke:#000000;stroke-width:0.8;" x="145.251317" xlink:href="#m9667035458" y="378"/>
      </g>
     </g>
     <g id="text_2">
      <!-- $-5$ -->
      <defs>
       <path d="M 18.09375 58.09375 
L 37.703125 58.09375 
C 39.296875 58.09375 39.703125 58.296875 40 58.984375 
L 43.796875 67.890625 
L 42.90625 68.59375 
C 41.40625 66.5 40.40625 66 38.296875 66 
L 17.40625 66 
L 6.5 42.453125 
C 6.40625 42.265625 6.40625 42.15625 6.40625 41.96875 
C 6.40625 41.46875 6.796875 41.171875 7.59375 41.171875 
C 10.796875 41.171875 14.796875 40.484375 18.90625 39.1875 
C 30.40625 35.53125 35.703125 29.40625 35.703125 19.609375 
C 35.703125 10.109375 29.59375 2.6875 21.796875 2.6875 
C 19.796875 2.6875 18.09375 3.390625 15.09375 5.5625 
C 11.90625 7.84375 9.59375 8.828125 7.5 8.828125 
C 4.59375 8.828125 3.203125 7.640625 3.203125 5.171875 
C 3.203125 1.390625 7.90625 -1 15.40625 -1 
C 23.796875 -1 31 1.6875 36 6.75 
C 40.59375 11.203125 42.703125 16.84375 42.703125 24.359375 
C 42.703125 31.484375 40.796875 36.03125 35.796875 40.96875 
C 31.40625 45.328125 25.703125 47.609375 13.90625 49.6875 
z
" id="Nimbus_Roman_No9_L_Regular-53"/>
      </defs>
      <g transform="translate(132.529128 398.509155)scale(0.2 -0.2)">
       <use transform="scale(0.996264)" xlink:href="#CMSY10-0"/>
       <use transform="translate(77.408707 0)scale(0.996264)" xlink:href="#Nimbus_Roman_No9_L_Regular-53"/>
      </g>
     </g>
    </g>
    <g id="xtick_3">
     <g id="line2d_3">
      <g>
       <use style="stroke:#000000;stroke-width:0.8;" x="222.179263" xlink:href="#m9667035458" y="378"/>
      </g>
     </g>
     <g id="text_3">
      <!-- $0$ -->
      <g transform="translate(217.197943 398.509155)scale(0.2 -0.2)">
       <use transform="scale(0.996264)" xlink:href="#Nimbus_Roman_No9_L_Regular-48"/>
      </g>
     </g>
    </g>
    <g id="xtick_4">
     <g id="line2d_4">
      <g>
       <use style="stroke:#000000;stroke-width:0.8;" x="299.10721" xlink:href="#m9667035458" y="378"/>
      </g>
     </g>
     <g id="text_4">
      <!-- $5$ -->
      <g transform="translate(294.125889 398.509155)scale(0.2 -0.2)">
       <use transform="scale(0.996264)" xlink:href="#Nimbus_Roman_No9_L_Regular-53"/>
      </g>
     </g>
    </g>
    <g id="xtick_5">
     <g id="line2d_5">
      <g>
       <use style="stroke:#000000;stroke-width:0.8;" x="376.035156" xlink:href="#m9667035458" y="378"/>
      </g>
     </g>
     <g id="text_5">
      <!-- $10$ -->
      <g transform="translate(366.072516 398.509155)scale(0.2 -0.2)">
       <use transform="scale(0.996264)" xlink:href="#Nimbus_Roman_No9_L_Regular-49"/>
       <use transform="translate(49.8132 0)scale(0.996264)" xlink:href="#Nimbus_Roman_No9_L_Regular-48"/>
      </g>
     </g>
    </g>
    <g id="text_6">
     <!-- Distance from center of SE $r$ -->
     <defs>
      <path d="M 10.40625 10.890625 
C 10.40625 3.6875 9.203125 2.390625 1.59375 1.890625 
L 1.59375 0 
L 30 0 
C 41.59375 0 52.09375 3.296875 58.296875 8.875 
C 64.796875 14.75 68.5 23.625 68.5 33.296875 
C 68.5 42.265625 65.5 50.03125 60 55.515625 
C 53.203125 62.390625 42.296875 66 28.59375 66 
L 1.59375 66 
L 1.59375 64.09375 
C 9.5 63.390625 10.40625 62.484375 10.40625 55.09375 
z
M 20.59375 58.40625 
C 20.59375 61.5 21.703125 62.296875 25.796875 62.296875 
C 34.40625 62.296875 40.90625 60.6875 45.703125 57.3125 
C 53.5 51.921875 57.59375 43.359375 57.59375 32.59375 
C 57.59375 20.828125 53.5 12.46875 45.40625 7.78125 
C 40.296875 4.890625 34.5 3.6875 25.796875 3.6875 
C 21.796875 3.6875 20.59375 4.59375 20.59375 7.78125 
z
" id="Nimbus_Roman_No9_L_Regular-68"/>
      <path d="M 17.5 46 
L 2 40.5 
L 2 39 
L 2.796875 39.09375 
C 4 39.296875 5.296875 39.390625 6.203125 39.390625 
C 8.59375 39.390625 9.5 37.796875 9.5 33.390625 
L 9.5 10.1875 
C 9.5 3 8.5 1.890625 1.59375 1.5 
L 1.59375 0 
L 25.296875 0 
L 25.296875 1.5 
C 18.703125 2 17.90625 3 17.90625 10.1875 
L 17.90625 45.6875 
z
M 12.796875 68 
C 10.09375 68 7.796875 65.6875 7.796875 62.890625 
C 7.796875 60.09375 10 57.796875 12.796875 57.796875 
C 15.703125 57.796875 18 59.984375 18 62.890625 
C 18 65.6875 15.703125 68 12.796875 68 
z
" id="Nimbus_Roman_No9_L_Regular-105"/>
      <path d="M 31.5 31.390625 
L 31.09375 45 
L 30 45 
L 29.796875 44.796875 
C 28.90625 44.09375 28.796875 43.984375 28.40625 43.984375 
C 27.796875 43.984375 26.796875 44.1875 25.703125 44.6875 
C 23.5 45.59375 21.296875 46 18.703125 46 
C 10.796875 46 5.09375 40.890625 5.09375 33.671875 
C 5.09375 28.0625 8.296875 24.046875 16.796875 19.234375 
L 22.59375 15.921875 
C 26.09375 13.921875 27.796875 11.515625 27.796875 8.40625 
C 27.796875 4 24.59375 1.1875 19.5 1.1875 
C 16.09375 1.1875 13 2.5 11.09375 4.703125 
C 9 7.203125 8.09375 9.515625 6.796875 15.21875 
L 5.203125 15.21875 
L 5.203125 -0.40625 
L 6.5 -0.40625 
C 7.203125 0.59375 7.59375 0.796875 8.796875 0.796875 
C 9.703125 0.796875 11.09375 0.59375 13.40625 0 
C 16.203125 -0.609375 18.90625 -1 20.703125 -1 
C 28.40625 -1 34.796875 4.796875 34.796875 11.8125 
C 34.796875 16.828125 32.40625 20.140625 26.40625 23.75 
L 15.59375 30.15625 
C 12.796875 31.765625 11.296875 34.265625 11.296875 36.96875 
C 11.296875 40.984375 14.40625 43.796875 19 43.796875 
C 24.703125 43.796875 27.703125 40.390625 30 31.46875 
z
" id="Nimbus_Roman_No9_L_Regular-115"/>
      <path d="M 25.5 45 
L 15.40625 45 
L 15.40625 56.59375 
C 15.40625 57.59375 15.296875 57.890625 14.703125 57.890625 
C 14 57 13.40625 56.09375 12.703125 55.09375 
C 8.90625 49.59375 4.59375 44.796875 3 44.390625 
C 1.90625 43.6875 1.296875 42.984375 1.296875 42.484375 
C 1.296875 42.1875 1.40625 41.984375 1.703125 41.796875 
L 7 41.796875 
L 7 11.6875 
C 7 3.296875 10 -1 15.90625 -1 
C 20.796875 -1 24.59375 1.390625 27.90625 6.59375 
L 26.59375 7.6875 
C 24.5 5.1875 22.796875 4.1875 20.59375 4.1875 
C 16.90625 4.1875 15.40625 6.890625 15.40625 13.1875 
L 15.40625 41.796875 
L 25.5 41.796875 
z
" id="Nimbus_Roman_No9_L_Regular-116"/>
      <path d="M 44.203125 6.59375 
C 42.5 5.1875 41.296875 4.6875 39.796875 4.6875 
C 37.5 4.6875 36.796875 6.09375 36.796875 10.5 
L 36.796875 30 
C 36.796875 35.1875 36.296875 38.09375 34.796875 40.5 
C 32.59375 44.09375 28.296875 46 22.40625 46 
C 13 46 5.59375 41.09375 5.59375 34.796875 
C 5.59375 32.5 7.59375 30.5 9.90625 30.5 
C 12.296875 30.5 14.40625 32.5 14.40625 34.6875 
C 14.40625 35.09375 14.296875 35.59375 14.203125 36.296875 
C 14 37.1875 13.90625 38 13.90625 38.6875 
C 13.90625 41.390625 17.09375 43.59375 21.09375 43.59375 
C 26 43.59375 28.703125 40.6875 28.703125 35.296875 
L 28.703125 29.1875 
C 13.296875 23 11.59375 22.1875 7.296875 18.390625 
C 5.09375 16.390625 3.703125 13 3.703125 9.6875 
C 3.703125 3.390625 8.09375 -1 14.203125 -1 
C 18.59375 -1 22.703125 1.09375 28.796875 6.296875 
C 29.296875 1.09375 31.09375 -1 35.203125 -1 
C 38.59375 -1 40.703125 0.1875 44.203125 4 
z
M 28.703125 12.296875 
C 28.703125 9.1875 28.203125 8.296875 26.09375 7.09375 
C 23.703125 5.6875 20.90625 4.796875 18.796875 4.796875 
C 15.296875 4.796875 12.5 8.1875 12.5 12.5 
L 12.5 12.890625 
C 12.5 18.796875 16.59375 22.390625 28.703125 26.796875 
z
" id="Nimbus_Roman_No9_L_Regular-97"/>
      <path d="M 1.59375 39.796875 
C 2.203125 40.09375 3.203125 40.1875 4.296875 40.1875 
C 7.09375 40.1875 8 38.6875 8 33.796875 
L 8 9 
C 8 3.296875 6.90625 1.890625 1.796875 1.5 
L 1.796875 0 
L 23 0 
L 23 1.5 
C 17.90625 1.890625 16.40625 3.09375 16.40625 6.6875 
L 16.40625 34.796875 
C 21.203125 39.296875 23.40625 40.484375 26.703125 40.484375 
C 31.59375 40.484375 34 37.390625 34 30.796875 
L 34 9.890625 
C 34 3.59375 32.703125 1.890625 27.703125 1.5 
L 27.703125 0 
L 48.5 0 
L 48.5 1.5 
C 43.59375 2 42.40625 3.1875 42.40625 8.09375 
L 42.40625 31 
C 42.40625 40.390625 38 46 30.59375 46 
C 26 46 22.90625 44.296875 16.09375 37.890625 
L 16.09375 45.796875 
L 15.40625 46 
C 10.5 44.1875 7.09375 43.09375 1.59375 41.484375 
z
" id="Nimbus_Roman_No9_L_Regular-110"/>
      <path d="M 39.796875 15.59375 
C 35 8.59375 31.40625 6.1875 25.703125 6.1875 
C 16.59375 6.1875 10.203125 14.1875 10.203125 25.6875 
C 10.203125 35.984375 15.703125 43.09375 23.796875 43.09375 
C 27.40625 43.09375 28.703125 41.984375 29.703125 38.296875 
L 30.296875 36.09375 
C 31.09375 33.296875 32.90625 31.484375 35 31.484375 
C 37.59375 31.484375 39.796875 33.390625 39.796875 35.6875 
C 39.796875 41.296875 32.796875 46 24.40625 46 
C 19.5 46 14.40625 43.984375 10.296875 40.390625 
C 5.296875 35.984375 2.5 29.1875 2.5 21.296875 
C 2.5 8.296875 10.40625 -1 21.5 -1 
C 26 -1 30 0.59375 33.59375 3.6875 
C 36.296875 6.09375 38.203125 8.796875 41.203125 14.6875 
z
" id="Nimbus_Roman_No9_L_Regular-99"/>
      <path d="M 40.796875 16.4375 
C 36 8.8125 31.703125 5.890625 25.296875 5.890625 
C 19.59375 5.890625 15.296875 8.8125 12.40625 14.53125 
C 10.59375 18.34375 9.90625 21.65625 9.703125 27.796875 
L 40.5 27.796875 
C 39.703125 34.265625 38.703125 37.140625 36.203125 40.3125 
C 33.203125 43.890625 28.59375 46 23.40625 46 
C 18.40625 46 13.703125 44.1875 9.90625 40.8125 
C 5.203125 36.734375 2.5 29.6875 2.5 21.46875 
C 2.5 7.59375 9.703125 -1 21.203125 -1 
C 30.703125 -1 38.203125 4.890625 42.40625 15.734375 
z
M 9.90625 31 
C 11 38.71875 14.40625 42.390625 20.5 42.390625 
C 26.59375 42.390625 29 39.609375 30.296875 31 
z
" id="Nimbus_Roman_No9_L_Regular-101"/>
      <path d="M 30.90625 45 
L 18.59375 45 
L 18.59375 56.421875 
C 18.59375 62.140625 20.5 65.1875 24.296875 65.1875 
C 26.40625 65.1875 27.796875 64.203125 29.59375 61.34375 
C 31.203125 58.78125 32.40625 57.796875 34.09375 57.796875 
C 36.40625 57.796875 38.296875 59.578125 38.296875 61.84375 
C 38.296875 65.390625 33.90625 68 27.90625 68 
C 21.703125 68 16.40625 65.296875 13.796875 60.765625 
C 11.203125 56.421875 10.40625 52.875 10.296875 45 
L 2.09375 45 
L 2.09375 41.796875 
L 10.296875 41.796875 
L 10.296875 10.390625 
C 10.296875 3.09375 9.203125 1.890625 2 1.5 
L 2 0 
L 28 0 
L 28 1.5 
C 19.796875 1.796875 18.703125 2.890625 18.703125 10.390625 
L 18.703125 41.796875 
L 30.90625 41.796875 
z
" id="Nimbus_Roman_No9_L_Regular-102"/>
      <path d="M 0.703125 39 
C 2.09375 39.296875 3 39.390625 4.203125 39.390625 
C 6.703125 39.390625 7.59375 37.796875 7.59375 33.390625 
L 7.59375 8.390625 
C 7.59375 3.390625 6.90625 2.6875 0.5 1.5 
L 0.5 0 
L 24.5 0 
L 24.5 1.5 
C 17.703125 1.796875 16 3.296875 16 9 
L 16 31.5 
C 16 34.6875 20.296875 39.6875 23 39.6875 
C 23.59375 39.6875 24.5 39.1875 25.59375 38.1875 
C 27.203125 36.796875 28.296875 36.1875 29.59375 36.1875 
C 32 36.1875 33.5 37.890625 33.5 40.6875 
C 33.5 43.984375 31.40625 46 28 46 
C 23.796875 46 20.90625 43.6875 16 36.59375 
L 16 45.796875 
L 15.5 46 
C 10.203125 43.796875 6.59375 42.5 0.703125 40.59375 
z
" id="Nimbus_Roman_No9_L_Regular-114"/>
      <path d="M 25 46 
C 12 46 2.90625 36.390625 2.90625 22.59375 
C 2.90625 9.09375 12.203125 -1 24.796875 -1 
C 37.40625 -1 47 9.59375 47 23.390625 
C 47 36.5 37.796875 46 25 46 
z
M 23.703125 43.1875 
C 32.09375 43.1875 38 33.59375 38 19.890625 
C 38 8.59375 33.5 1.796875 26 1.796875 
C 22.09375 1.796875 18.40625 4.1875 16.296875 8.1875 
C 13.5 13.390625 11.90625 20.390625 11.90625 27.5 
C 11.90625 37 16.59375 43.1875 23.703125 43.1875 
z
" id="Nimbus_Roman_No9_L_Regular-111"/>
      <path d="M 1.90625 39.796875 
C 3.203125 40.09375 4 40.1875 5.09375 40.1875 
C 7.703125 40.1875 8.59375 38.59375 8.59375 33.796875 
L 8.59375 8.5 
C 8.59375 3.09375 7.203125 1.59375 1.59375 1.5 
L 1.59375 0 
L 23.796875 0 
L 23.796875 1.5 
C 18.5 1.6875 17 2.796875 17 6.6875 
L 17 34.890625 
C 17 35.09375 17.796875 36.09375 18.5 36.796875 
C 21 39.09375 25.296875 40.796875 28.796875 40.796875 
C 33.203125 40.796875 35.40625 37.296875 35.40625 30.296875 
L 35.40625 8.59375 
C 35.40625 3 34.296875 1.890625 28.59375 1.5 
L 28.59375 0 
L 51 0 
L 51 1.5 
C 45.296875 1.59375 43.796875 3.296875 43.796875 9.5 
L 43.796875 34.6875 
C 46.796875 39 50.09375 40.796875 54.703125 40.796875 
C 60.40625 40.796875 62.203125 38.09375 62.203125 29.796875 
L 62.203125 8.6875 
C 62.203125 3 61.40625 2.1875 55.59375 1.5 
L 55.59375 0 
L 77.5 0 
L 77.5 1.5 
L 74.90625 1.6875 
C 71.90625 1.890625 70.59375 3.6875 70.59375 7.59375 
L 70.59375 28.1875 
C 70.59375 40 66.703125 46 59 46 
C 53.203125 46 48.09375 43.390625 42.703125 37.59375 
C 40.90625 43.296875 37.5 46 32.09375 46 
C 27.703125 46 24.90625 44.59375 16.59375 38.296875 
L 16.59375 45.796875 
L 15.90625 46 
C 10.796875 44.09375 7.40625 42.984375 1.90625 41.484375 
z
" id="Nimbus_Roman_No9_L_Regular-109"/>
      <path d="M 44.703125 67.390625 
L 42.59375 67.390625 
C 42.203125 65.09375 41.09375 63.984375 39.40625 63.984375 
C 38.40625 63.984375 36.703125 64.390625 35 65.1875 
C 31.296875 67.1875 27.59375 68 24.40625 68 
C 20.09375 68 15.703125 66.296875 12.40625 63.390625 
C 8.90625 60.296875 7.09375 56.09375 7.09375 50.890625 
C 7.09375 42.890625 11.5 37.296875 22.703125 31.390625 
C 29.90625 27.59375 35.09375 23.5 37.59375 19.6875 
C 38.5 18.390625 39 16.296875 39 13.890625 
C 39 7.1875 34 2.59375 26.703125 2.59375 
C 17.796875 2.59375 11.5 8.09375 6.5 20.296875 
L 4.203125 20.296875 
L 7.203125 -0.90625 
L 9.40625 -0.90625 
C 9.5 0.59375 10.703125 2 12.203125 2 
C 13.296875 2 15 1.59375 16.90625 0.890625 
C 20.703125 -0.203125 24.703125 -1 28.703125 -1 
C 40.203125 -1 49.09375 6.890625 49.09375 17.1875 
C 49.09375 25.390625 43.59375 31.890625 30.40625 39 
C 19.90625 44.796875 15.703125 49.1875 15.703125 54.59375 
C 15.703125 60.09375 19.90625 63.890625 26.09375 63.890625 
C 30.59375 63.890625 34.796875 62 38.296875 58.390625 
C 41.40625 55.203125 42.796875 52.59375 44.40625 46.6875 
L 46.90625 46.6875 
z
" id="Nimbus_Roman_No9_L_Regular-83"/>
      <path d="M 59.703125 16.984375 
L 56.90625 16.984375 
C 51.90625 6.109375 47.59375 3.6875 33.296875 3.6875 
L 30.59375 3.6875 
C 25.703125 3.6875 21.5 4.203125 20.796875 4.90625 
C 20.296875 5.203125 20.09375 6.3125 20.09375 8.015625 
L 20.09375 32.890625 
L 35.5 32.890625 
C 43.703125 32.890625 45.203125 31.578125 46.5 23.234375 
L 48.796875 23.234375 
L 48.796875 46.34375 
L 46.5 46.34375 
C 45.796875 42.3125 45.40625 40.828125 44.296875 39.453125 
C 43 37.78125 40.203125 37 35.5 37 
L 20.09375 37 
L 20.09375 58.84375 
C 20.09375 61.59375 20.703125 62.1875 23.40625 62.1875 
L 36.90625 62.1875 
C 48.203125 62.1875 50.40625 60.71875 52.09375 51.859375 
L 54.59375 51.859375 
L 54.296875 66 
L 1.203125 66 
L 1.203125 64.09375 
C 8.59375 63.5 9.90625 62.109375 9.90625 55.125 
L 9.90625 10.859375 
C 9.90625 3.890625 8.5 2.390625 1.203125 1.890625 
L 1.203125 0 
L 55.203125 0 
z
" id="Nimbus_Roman_No9_L_Regular-69"/>
      <path d="M 12.09375 0 
C 17.296875 16.953125 19 21.25 23.59375 28.828125 
C 26.90625 34.40625 29.703125 37.5 31.40625 37.5 
C 32 37.5 32.5 37.109375 33 36.109375 
C 33.796875 34.40625 34.59375 33.90625 36.59375 33.90625 
C 39.5 33.90625 41.203125 35.703125 41.203125 38.796875 
C 41.203125 41.890625 39.296875 44 36.5 44 
C 34.203125 44 31.5 42.484375 28.90625 39.796875 
C 24.796875 35.609375 20.796875 29.71875 19.203125 25.734375 
L 17.796875 22.140625 
L 23.09375 43.796875 
L 22.796875 44 
C 15.5 42.6875 14.59375 42.484375 7.296875 41.296875 
L 7.296875 39.59375 
C 9.703125 40.09375 10 40.09375 10.703125 40.09375 
C 12.90625 40.09375 14.203125 39.09375 14.203125 37.296875 
C 14.203125 35.90625 14.203125 35.90625 12.59375 29.125 
L 4.5 0 
z
" id="Nimbus_Roman_No9_L_Regular_Italic-114"/>
     </defs>
     <g transform="translate(106.581774 420.331968)scale(0.2 -0.2)">
      <use transform="scale(0.996264)" xlink:href="#Nimbus_Roman_No9_L_Regular-68"/>
      <use transform="translate(71.929985 0)scale(0.996264)" xlink:href="#Nimbus_Roman_No9_L_Regular-105"/>
      <use transform="translate(99.625154 0)scale(0.996264)" xlink:href="#Nimbus_Roman_No9_L_Regular-115"/>
      <use transform="translate(138.378861 0)scale(0.996264)" xlink:href="#Nimbus_Roman_No9_L_Regular-116"/>
      <use transform="translate(166.07403 0)scale(0.996264)" xlink:href="#Nimbus_Roman_No9_L_Regular-97"/>
      <use transform="translate(210.307599 0)scale(0.996264)" xlink:href="#Nimbus_Roman_No9_L_Regular-110"/>
      <use transform="translate(260.120799 0)scale(0.996264)" xlink:href="#Nimbus_Roman_No9_L_Regular-99"/>
      <use transform="translate(304.354368 0)scale(0.996264)" xlink:href="#Nimbus_Roman_No9_L_Regular-101"/>
      <use transform="translate(373.494537 0)scale(0.996264)" xlink:href="#Nimbus_Roman_No9_L_Regular-102"/>
      <use transform="translate(406.669767 0)scale(0.996264)" xlink:href="#Nimbus_Roman_No9_L_Regular-114"/>
      <use transform="translate(439.844997 0)scale(0.996264)" xlink:href="#Nimbus_Roman_No9_L_Regular-111"/>
      <use transform="translate(489.658197 0)scale(0.996264)" xlink:href="#Nimbus_Roman_No9_L_Regular-109"/>
      <use transform="translate(592.073167 0)scale(0.996264)" xlink:href="#Nimbus_Roman_No9_L_Regular-99"/>
      <use transform="translate(636.306736 0)scale(0.996264)" xlink:href="#Nimbus_Roman_No9_L_Regular-101"/>
      <use transform="translate(680.540305 0)scale(0.996264)" xlink:href="#Nimbus_Roman_No9_L_Regular-110"/>
      <use transform="translate(730.353505 0)scale(0.996264)" xlink:href="#Nimbus_Roman_No9_L_Regular-116"/>
      <use transform="translate(758.048675 0)scale(0.996264)" xlink:href="#Nimbus_Roman_No9_L_Regular-101"/>
      <use transform="translate(802.282244 0)scale(0.996264)" xlink:href="#Nimbus_Roman_No9_L_Regular-114"/>
      <use transform="translate(860.364074 0)scale(0.996264)" xlink:href="#Nimbus_Roman_No9_L_Regular-111"/>
      <use transform="translate(910.177274 0)scale(0.996264)" xlink:href="#Nimbus_Roman_No9_L_Regular-102"/>
      <use transform="translate(968.259104 0)scale(0.996264)" xlink:href="#Nimbus_Roman_No9_L_Regular-83"/>
      <use transform="translate(1023.650781 0)scale(0.996264)" xlink:href="#Nimbus_Roman_No9_L_Regular-69"/>
      <use transform="translate(1109.429012 0)scale(0.996264)" xlink:href="#Nimbus_Roman_No9_L_Regular_Italic-114"/>
     </g>
    </g>
   </g>
   <g id="matplotlib.axis_2">
    <g id="ytick_1">
     <g id="line2d_6">
      <defs>
       <path d="M 0 0 
L -3.5 0 
" id="m26b4225ea6" style="stroke:#000000;stroke-width:0.8;"/>
      </defs>
      <g>
       <use style="stroke:#000000;stroke-width:0.8;" x="54" xlink:href="#m26b4225ea6" y="366.034046"/>
      </g>
     </g>
     <g id="text_7">
      <!-- $0.025$ -->
      <defs>
       <path d="M 19.203125 5.296875 
C 19.203125 8.1875 16.796875 10.59375 13.90625 10.59375 
C 11 10.59375 8.59375 8.1875 8.59375 5.296875 
C 8.59375 2.390625 11 0 13.90625 0 
C 16.796875 0 19.203125 2.390625 19.203125 5.296875 
z
" id="CMMI10-58"/>
       <path d="M 47.5 13.734375 
L 46.203125 14.25 
C 42.5 8.5 41.203125 7.59375 36.703125 7.59375 
L 12.796875 7.59375 
L 29.59375 25.328125 
C 38.5 34.703125 42.40625 42.359375 42.40625 50.21875 
C 42.40625 60.28125 34.296875 68 23.90625 68 
C 18.40625 68 13.203125 65.796875 9.5 61.796875 
C 6.296875 58.375 4.796875 55.15625 3.09375 48 
L 5.203125 47.484375 
C 9.203125 57.359375 12.796875 60.59375 19.703125 60.59375 
C 28.09375 60.59375 33.796875 54.84375 33.796875 46.390625 
C 33.796875 38.53125 29.203125 29.15625 20.796875 20.1875 
L 3 1.1875 
L 3 0 
L 42 0 
z
" id="Nimbus_Roman_No9_L_Regular-50"/>
      </defs>
      <g transform="translate(1.630341 372.788624)scale(0.2 -0.2)">
       <use transform="scale(0.996264)" xlink:href="#Nimbus_Roman_No9_L_Regular-48"/>
       <use transform="translate(49.8132 0)scale(0.996264)" xlink:href="#CMMI10-58"/>
       <use transform="translate(77.408707 0)scale(0.996264)" xlink:href="#Nimbus_Roman_No9_L_Regular-48"/>
       <use transform="translate(127.221908 0)scale(0.996264)" xlink:href="#Nimbus_Roman_No9_L_Regular-50"/>
       <use transform="translate(177.035108 0)scale(0.996264)" xlink:href="#Nimbus_Roman_No9_L_Regular-53"/>
      </g>
     </g>
    </g>
    <g id="ytick_2">
     <g id="line2d_7">
      <g>
       <use style="stroke:#000000;stroke-width:0.8;" x="54" xlink:href="#m26b4225ea6" y="324.58668"/>
      </g>
     </g>
     <g id="text_8">
      <!-- $0.050$ -->
      <g transform="translate(1.630341 331.341258)scale(0.2 -0.2)">
       <use transform="scale(0.996264)" xlink:href="#Nimbus_Roman_No9_L_Regular-48"/>
       <use transform="translate(49.8132 0)scale(0.996264)" xlink:href="#CMMI10-58"/>
       <use transform="translate(77.408707 0)scale(0.996264)" xlink:href="#Nimbus_Roman_No9_L_Regular-48"/>
       <use transform="translate(127.221908 0)scale(0.996264)" xlink:href="#Nimbus_Roman_No9_L_Regular-53"/>
       <use transform="translate(177.035108 0)scale(0.996264)" xlink:href="#Nimbus_Roman_No9_L_Regular-48"/>
      </g>
     </g>
    </g>
    <g id="ytick_3">
     <g id="line2d_8">
      <g>
       <use style="stroke:#000000;stroke-width:0.8;" x="54" xlink:href="#m26b4225ea6" y="283.139315"/>
      </g>
     </g>
     <g id="text_9">
      <!-- $0.075$ -->
      <defs>
       <path d="M 44.90625 66 
L 7.90625 66 
L 2 51.296875 
L 3.703125 50.5 
C 8 57.296875 9.796875 58.59375 15.296875 58.59375 
L 37 58.59375 
L 17.203125 -1 
L 23.703125 -1 
L 44.90625 64.390625 
z
" id="Nimbus_Roman_No9_L_Regular-55"/>
      </defs>
      <g transform="translate(1.630341 289.893892)scale(0.2 -0.2)">
       <use transform="scale(0.996264)" xlink:href="#Nimbus_Roman_No9_L_Regular-48"/>
       <use transform="translate(49.8132 0)scale(0.996264)" xlink:href="#CMMI10-58"/>
       <use transform="translate(77.408707 0)scale(0.996264)" xlink:href="#Nimbus_Roman_No9_L_Regular-48"/>
       <use transform="translate(127.221908 0)scale(0.996264)" xlink:href="#Nimbus_Roman_No9_L_Regular-55"/>
       <use transform="translate(177.035108 0)scale(0.996264)" xlink:href="#Nimbus_Roman_No9_L_Regular-53"/>
      </g>
     </g>
    </g>
    <g id="ytick_4">
     <g id="line2d_9">
      <g>
       <use style="stroke:#000000;stroke-width:0.8;" x="54" xlink:href="#m26b4225ea6" y="241.691949"/>
      </g>
     </g>
     <g id="text_10">
      <!-- $0.100$ -->
      <g transform="translate(1.630341 248.446527)scale(0.2 -0.2)">
       <use transform="scale(0.996264)" xlink:href="#Nimbus_Roman_No9_L_Regular-48"/>
       <use transform="translate(49.8132 0)scale(0.996264)" xlink:href="#CMMI10-58"/>
       <use transform="translate(77.408707 0)scale(0.996264)" xlink:href="#Nimbus_Roman_No9_L_Regular-49"/>
       <use transform="translate(127.221908 0)scale(0.996264)" xlink:href="#Nimbus_Roman_No9_L_Regular-48"/>
       <use transform="translate(177.035108 0)scale(0.996264)" xlink:href="#Nimbus_Roman_No9_L_Regular-48"/>
      </g>
     </g>
    </g>
    <g id="ytick_5">
     <g id="line2d_10">
      <g>
       <use style="stroke:#000000;stroke-width:0.8;" x="54" xlink:href="#m26b4225ea6" y="200.244583"/>
      </g>
     </g>
     <g id="text_11">
      <!-- $0.125$ -->
      <g transform="translate(1.630341 206.999161)scale(0.2 -0.2)">
       <use transform="scale(0.996264)" xlink:href="#Nimbus_Roman_No9_L_Regular-48"/>
       <use transform="translate(49.8132 0)scale(0.996264)" xlink:href="#CMMI10-58"/>
       <use transform="translate(77.408707 0)scale(0.996264)" xlink:href="#Nimbus_Roman_No9_L_Regular-49"/>
       <use transform="translate(127.221908 0)scale(0.996264)" xlink:href="#Nimbus_Roman_No9_L_Regular-50"/>
       <use transform="translate(177.035108 0)scale(0.996264)" xlink:href="#Nimbus_Roman_No9_L_Regular-53"/>
      </g>
     </g>
    </g>
    <g id="ytick_6">
     <g id="line2d_11">
      <g>
       <use style="stroke:#000000;stroke-width:0.8;" x="54" xlink:href="#m26b4225ea6" y="158.797218"/>
      </g>
     </g>
     <g id="text_12">
      <!-- $0.150$ -->
      <g transform="translate(1.630341 165.551795)scale(0.2 -0.2)">
       <use transform="scale(0.996264)" xlink:href="#Nimbus_Roman_No9_L_Regular-48"/>
       <use transform="translate(49.8132 0)scale(0.996264)" xlink:href="#CMMI10-58"/>
       <use transform="translate(77.408707 0)scale(0.996264)" xlink:href="#Nimbus_Roman_No9_L_Regular-49"/>
       <use transform="translate(127.221908 0)scale(0.996264)" xlink:href="#Nimbus_Roman_No9_L_Regular-53"/>
       <use transform="translate(177.035108 0)scale(0.996264)" xlink:href="#Nimbus_Roman_No9_L_Regular-48"/>
      </g>
     </g>
    </g>
    <g id="ytick_7">
     <g id="line2d_12">
      <g>
       <use style="stroke:#000000;stroke-width:0.8;" x="54" xlink:href="#m26b4225ea6" y="117.349852"/>
      </g>
     </g>
     <g id="text_13">
      <!-- $0.175$ -->
      <g transform="translate(1.630341 124.104429)scale(0.2 -0.2)">
       <use transform="scale(0.996264)" xlink:href="#Nimbus_Roman_No9_L_Regular-48"/>
       <use transform="translate(49.8132 0)scale(0.996264)" xlink:href="#CMMI10-58"/>
       <use transform="translate(77.408707 0)scale(0.996264)" xlink:href="#Nimbus_Roman_No9_L_Regular-49"/>
       <use transform="translate(127.221908 0)scale(0.996264)" xlink:href="#Nimbus_Roman_No9_L_Regular-55"/>
       <use transform="translate(177.035108 0)scale(0.996264)" xlink:href="#Nimbus_Roman_No9_L_Regular-53"/>
      </g>
     </g>
    </g>
    <g id="ytick_8">
     <g id="line2d_13">
      <g>
       <use style="stroke:#000000;stroke-width:0.8;" x="54" xlink:href="#m26b4225ea6" y="75.902486"/>
      </g>
     </g>
     <g id="text_14">
      <!-- $0.200$ -->
      <g transform="translate(1.630341 82.657064)scale(0.2 -0.2)">
       <use transform="scale(0.996264)" xlink:href="#Nimbus_Roman_No9_L_Regular-48"/>
       <use transform="translate(49.8132 0)scale(0.996264)" xlink:href="#CMMI10-58"/>
       <use transform="translate(77.408707 0)scale(0.996264)" xlink:href="#Nimbus_Roman_No9_L_Regular-50"/>
       <use transform="translate(127.221908 0)scale(0.996264)" xlink:href="#Nimbus_Roman_No9_L_Regular-48"/>
       <use transform="translate(177.035108 0)scale(0.996264)" xlink:href="#Nimbus_Roman_No9_L_Regular-48"/>
      </g>
     </g>
    </g>
    <g id="text_15">
     <!-- Protein volume fraction $\phi_P(r)$ -->
     <defs>
      <path d="M 20.203125 29.296875 
C 22.796875 29.09375 24.5 28.984375 27.09375 28.984375 
C 34.90625 28.984375 40.296875 29.984375 44.59375 32.390625 
C 50.59375 35.5625 54.203125 41.578125 54.203125 48.078125 
C 54.203125 52.234375 52.796875 55.984375 50.09375 58.84375 
C 46.09375 63.1875 37.40625 66 28 66 
L 1.59375 66 
L 1.59375 64.09375 
C 9 63.296875 10 62.296875 10 55.125 
L 10 11.953125 
C 10 3.59375 9.203125 2.59375 1.59375 1.890625 
L 1.59375 0 
L 29.59375 0 
L 29.59375 1.890625 
C 21.703125 2.1875 20.203125 3.59375 20.203125 10.859375 
z
M 20.203125 58.9375 
C 20.203125 61.59375 20.90625 62.296875 23.59375 62.296875 
C 37.09375 62.296875 43.296875 57.65625 43.296875 47.5 
C 43.296875 37.921875 37.40625 33 25.90625 33 
C 23.90625 33 22.5 33.09375 20.203125 33.28125 
z
" id="Nimbus_Roman_No9_L_Regular-80"/>
      <path d="M 47.703125 45 
L 33.796875 45 
L 33.796875 43.484375 
C 37 43.1875 38.5 42.203125 38.5 40.3125 
C 38.5 39.328125 38.296875 38.34375 37.90625 37.34375 
L 28 11.6875 
L 17.796875 37.046875 
C 17.203125 38.4375 16.90625 39.828125 16.90625 40.71875 
C 16.90625 42.5 18 43.1875 21.5 43.484375 
L 21.5 45 
L 1.90625 45 
L 1.90625 43.484375 
C 5.703125 43.296875 6.40625 42.296875 11 32.09375 
L 23 3.671875 
C 23.203125 3.078125 23.5 2.375 23.796875 1.59375 
C 24.40625 -0.203125 25 -1 25.59375 -1 
C 26.203125 -1 26.90625 0.296875 28.40625 3.96875 
L 41.203125 35.765625 
C 44.09375 42.5 44.703125 43.1875 47.703125 43.484375 
z
" id="Nimbus_Roman_No9_L_Regular-118"/>
      <path d="M 1.90625 62.296875 
L 2.5 62.296875 
C 3.59375 62.390625 4.796875 62.5 5.59375 62.5 
C 8.796875 62.5 9.796875 61.09375 9.796875 56.390625 
L 9.796875 8.6875 
C 9.796875 3.296875 8.40625 2 2.09375 1.5 
L 2.09375 0 
L 25.703125 0 
L 25.703125 1.5 
C 19.40625 1.890625 18.203125 2.890625 18.203125 8.390625 
L 18.203125 68.09375 
L 17.796875 68.296875 
C 12.59375 66.59375 8.796875 65.59375 1.90625 63.890625 
z
" id="Nimbus_Roman_No9_L_Regular-108"/>
      <path d="M 47.90625 4.984375 
L 47.40625 4.984375 
C 42.796875 4.984375 41.703125 6.09375 41.703125 10.6875 
L 41.703125 45 
L 25.90625 45 
L 25.90625 43.296875 
C 32.09375 43 33.296875 42 33.296875 37 
L 33.296875 13.5 
C 33.296875 10.6875 32.796875 9.296875 31.40625 8.1875 
C 28.703125 6 25.59375 4.796875 22.59375 4.796875 
C 18.703125 4.796875 15.5 8.1875 15.5 12.390625 
L 15.5 45 
L 0.90625 45 
L 0.90625 43.59375 
C 5.703125 43.296875 7.09375 41.796875 7.09375 37.1875 
L 7.09375 12 
C 7.09375 4.09375 11.90625 -1 19.203125 -1 
C 22.90625 -1 26.796875 0.59375 29.5 3.296875 
L 33.796875 7.59375 
L 33.796875 -0.703125 
L 34.203125 -1 
C 39.203125 1 42.796875 2.09375 47.90625 3.5 
z
" id="Nimbus_Roman_No9_L_Regular-117"/>
      <path d="M 27.90625 -0.46875 
C 40.203125 1.234375 49 12.46875 49 26.59375 
C 49 40.328125 40.59375 50.25 27.90625 51.15625 
L 27.90625 59.171875 
C 27.90625 62.890625 28 64.796875 28.203125 67.09375 
L 23.5 69 
C 23.703125 66.59375 23.796875 64.09375 23.796875 60.078125 
L 23.796875 51.15625 
C 11.796875 49.75 2.703125 38.328125 2.703125 24.5 
C 2.703125 10.5625 11.296875 0.34375 23.796875 -0.65625 
L 23.796875 -10.78125 
C 23.796875 -15.296875 23.703125 -18.109375 23.5 -20.90625 
L 28.203125 -22.015625 
C 28 -18.703125 28 -18.40625 27.90625 -14 
L 27.90625 -11.28125 
z
M 23.796875 3.546875 
C 21 4.65625 19 6.25 17.5 8.5625 
C 14.296875 13.46875 12.40625 21.09375 12.40625 29 
C 12.40625 40.328125 16.703125 47.34375 23.796875 47.65625 
z
M 27.90625 46.953125 
C 35 44.34375 39.296875 34.828125 39.296875 22.09375 
C 39.296875 10.265625 35.203125 3.453125 27.90625 3.046875 
z
" id="Standard_Symbols_L-102"/>
      <path d="M 14.59375 63.390625 
C 20.296875 62.6875 21.703125 61.796875 21.703125 59.203125 
C 21.703125 57.8125 21.296875 55.71875 20 51.234375 
L 8.203125 8.9375 
C 6.40625 2.984375 5.703125 2.390625 0 1.59375 
L 0 0 
L 24.5 0 
L 24.5 1.59375 
C 18.203125 2.484375 17.703125 2.78125 17.703125 6.15625 
C 17.703125 7.359375 17.90625 8.34375 18.90625 11.921875 
L 24.203125 31.09375 
C 26.703125 30.484375 29.296875 30.296875 33.40625 30.296875 
C 41.59375 30.296875 48.296875 31.984375 52.59375 35.09375 
C 57.59375 38.78125 60.5 44.25 60.5 50.140625 
C 60.5 59.703125 53 65 39.40625 65 
L 14.59375 65 
z
M 32.203125 59.203125 
C 32.796875 61.296875 34 61.984375 36.796875 61.984375 
C 40.703125 61.984375 44.5 61 46.5 59.59375 
C 49.09375 57.8125 50.203125 54.8125 50.203125 50.140625 
C 50.203125 43.65625 47.90625 39.078125 43.5 36.484375 
C 40.40625 34.796875 36.5 34 30.296875 34 
C 28.59375 34 27.796875 34.09375 25.09375 34.484375 
z
" id="Nimbus_Roman_No9_L_Regular_Italic-80"/>
      <path d="M 33.09375 -24 
C 33.09375 -23.703125 33.09375 -23.5 31.40625 -21.8125 
C 18.90625 -9.203125 15.703125 9.6875 15.703125 25 
C 15.703125 42.390625 19.5 59.796875 31.796875 72.296875 
C 33.09375 73.5 33.09375 73.6875 33.09375 74 
C 33.09375 74.6875 32.703125 75 32.09375 75 
C 31.09375 75 22.09375 68.203125 16.203125 55.5 
C 11.09375 44.5 9.90625 33.390625 9.90625 25 
C 9.90625 17.1875 11 5.09375 16.5 -6.203125 
C 22.5 -18.5 31.09375 -25 32.09375 -25 
C 32.703125 -25 33.09375 -24.703125 33.09375 -24 
z
" id="CMR10-40"/>
      <path d="M 28.90625 25 
C 28.90625 32.796875 27.796875 44.890625 22.296875 56.203125 
C 16.296875 68.5 7.703125 75 6.703125 75 
C 6.09375 75 5.703125 74.59375 5.703125 74 
C 5.703125 73.6875 5.703125 73.5 7.59375 71.703125 
C 17.40625 61.796875 23.09375 45.890625 23.09375 25 
C 23.09375 7.890625 19.40625 -9.703125 7 -22.3125 
C 5.703125 -23.5 5.703125 -23.703125 5.703125 -24 
C 5.703125 -24.609375 6.09375 -25 6.703125 -25 
C 7.703125 -25 16.703125 -18.203125 22.59375 -5.5 
C 27.703125 5.5 28.90625 16.59375 28.90625 25 
z
" id="CMR10-41"/>
     </defs>
     <g transform="translate(-6.683316 333.633888)rotate(-90)scale(0.2 -0.2)">
      <use transform="translate(0 14.943915)scale(0.996264)" xlink:href="#Nimbus_Roman_No9_L_Regular-80"/>
      <use transform="translate(55.391677 14.943915)scale(0.996264)" xlink:href="#Nimbus_Roman_No9_L_Regular-114"/>
      <use transform="translate(88.566907 14.943915)scale(0.996264)" xlink:href="#Nimbus_Roman_No9_L_Regular-111"/>
      <use transform="translate(138.380107 14.943915)scale(0.996264)" xlink:href="#Nimbus_Roman_No9_L_Regular-116"/>
      <use transform="translate(166.075277 14.943915)scale(0.996264)" xlink:href="#Nimbus_Roman_No9_L_Regular-101"/>
      <use transform="translate(210.308845 14.943915)scale(0.996264)" xlink:href="#Nimbus_Roman_No9_L_Regular-105"/>
      <use transform="translate(238.004015 14.943915)scale(0.996264)" xlink:href="#Nimbus_Roman_No9_L_Regular-110"/>
      <use transform="translate(312.723816 14.943915)scale(0.996264)" xlink:href="#Nimbus_Roman_No9_L_Regular-118"/>
      <use transform="translate(360.545005 14.943915)scale(0.996264)" xlink:href="#Nimbus_Roman_No9_L_Regular-111"/>
      <use transform="translate(410.358206 14.943915)scale(0.996264)" xlink:href="#Nimbus_Roman_No9_L_Regular-108"/>
      <use transform="translate(438.053375 14.943915)scale(0.996264)" xlink:href="#Nimbus_Roman_No9_L_Regular-117"/>
      <use transform="translate(487.866576 14.943915)scale(0.996264)" xlink:href="#Nimbus_Roman_No9_L_Regular-109"/>
      <use transform="translate(565.374946 14.943915)scale(0.996264)" xlink:href="#Nimbus_Roman_No9_L_Regular-101"/>
      <use transform="translate(634.515115 14.943915)scale(0.996264)" xlink:href="#Nimbus_Roman_No9_L_Regular-102"/>
      <use transform="translate(667.690345 14.943915)scale(0.996264)" xlink:href="#Nimbus_Roman_No9_L_Regular-114"/>
      <use transform="translate(700.865574 14.943915)scale(0.996264)" xlink:href="#Nimbus_Roman_No9_L_Regular-97"/>
      <use transform="translate(745.099143 14.943915)scale(0.996264)" xlink:href="#Nimbus_Roman_No9_L_Regular-99"/>
      <use transform="translate(789.332712 14.943915)scale(0.996264)" xlink:href="#Nimbus_Roman_No9_L_Regular-116"/>
      <use transform="translate(817.027881 14.943915)scale(0.996264)" xlink:href="#Nimbus_Roman_No9_L_Regular-105"/>
      <use transform="translate(844.723051 14.943915)scale(0.996264)" xlink:href="#Nimbus_Roman_No9_L_Regular-111"/>
      <use transform="translate(894.536251 14.943915)scale(0.996264)" xlink:href="#Nimbus_Roman_No9_L_Regular-110"/>
      <use transform="translate(969.256052 14.943915)scale(0.996264)" xlink:href="#Standard_Symbols_L-102"/>
      <use transform="translate(1021.161018 0)scale(0.737241)" xlink:href="#Nimbus_Roman_No9_L_Regular_Italic-80"/>
      <use transform="translate(1066.704479 14.943915)scale(0.996264)" xlink:href="#CMR10-40"/>
      <use transform="translate(1105.358324 14.943915)scale(0.996264)" xlink:href="#Nimbus_Roman_No9_L_Regular_Italic-114"/>
      <use transform="translate(1146.403213 14.943915)scale(0.996264)" xlink:href="#CMR10-41"/>
     </g>
    </g>
   </g>
   <g id="patch_3">
    <path d="M 54 378 
L 54 51.84 
" style="fill:none;stroke:#000000;stroke-linecap:square;stroke-linejoin:miter;stroke-width:0.8;"/>
   </g>
   <g id="patch_4">
    <path d="M 388.8 378 
L 388.8 51.84 
" style="fill:none;stroke:#000000;stroke-linecap:square;stroke-linejoin:miter;stroke-width:0.8;"/>
   </g>
   <g id="patch_5">
    <path d="M 54 378 
L 388.8 378 
" style="fill:none;stroke:#000000;stroke-linecap:square;stroke-linejoin:miter;stroke-width:0.8;"/>
   </g>
   <g id="patch_6">
    <path d="M 54 51.84 
L 388.8 51.84 
" style="fill:none;stroke:#000000;stroke-linecap:square;stroke-linejoin:miter;stroke-width:0.8;"/>
   </g>
   <g id="legend_1">
    <g id="patch_7">
     <path d="M 244.528757 96.153658 
L 374.8 96.153658 
Q 378.8 96.153658 378.8 92.153658 
L 378.8 65.84 
Q 378.8 61.84 374.8 61.84 
L 244.528757 61.84 
Q 240.528757 61.84 240.528757 65.84 
L 240.528757 92.153658 
Q 240.528757 96.153658 244.528757 96.153658 
z
" style="fill:#ffffff;opacity:0.8;stroke:#cccccc;stroke-linejoin:miter;"/>
    </g>
    <g id="PathCollection_2">
     <g>
      <use style="fill:#1f77b4;fill-opacity:0.5;stroke:#1f77b4;stroke-opacity:0.5;" x="268.528757" xlink:href="#m8481def579" y="78.59"/>
     </g>
    </g>
    <g id="text_16">
     <!-- no RNA -->
     <defs>
      <path d="M 65.90625 1.890625 
C 62.09375 2.1875 60.09375 3.1875 57.203125 6.578125 
L 36.59375 31.796875 
C 43.296875 33.09375 46.296875 34.28125 49.59375 36.96875 
C 52.796875 39.5625 54.703125 43.75 54.703125 48.4375 
C 54.703125 52.71875 53.40625 56.40625 50.796875 59.296875 
C 47 63.390625 38.703125 66 29.296875 66 
L 1.703125 66 
L 1.703125 64.09375 
C 9.203125 63.296875 10.203125 62.203125 10.203125 55.125 
L 10.203125 11.953125 
C 10.203125 3.6875 9.203125 2.484375 1.703125 1.890625 
L 1.703125 0 
L 29.40625 0 
L 29.40625 1.890625 
C 21.703125 2.390625 20.40625 3.6875 20.40625 10.859375 
L 20.40625 30.5 
L 26 30.703125 
L 49.796875 0 
L 65.90625 0 
z
M 20.40625 58.6875 
C 20.40625 61.484375 21.5 62.296875 25.5 62.296875 
C 38 62.296875 43.796875 57.984375 43.796875 48.59375 
C 43.796875 43.59375 41.703125 39.390625 38.09375 37.484375 
C 33.5 34.890625 30 34.296875 20.40625 34.09375 
z
" id="Nimbus_Roman_No9_L_Regular-82"/>
      <path d="M 61.203125 -1 
L 61.203125 51.359375 
C 61.203125 57.328125 62.203125 61.015625 64.09375 62.3125 
C 65.5 63.296875 66.90625 63.703125 70.703125 64.09375 
L 70.703125 66 
L 47.203125 66 
L 47.203125 64.09375 
C 51 63.796875 52.40625 63.40625 53.90625 62.5 
C 55.90625 61.109375 56.796875 57.53125 56.796875 51.359375 
L 56.796875 17.8125 
L 18.296875 66 
L 1.203125 66 
L 1.203125 64.09375 
C 5.5 64.09375 6.90625 63.296875 10.90625 58.625 
L 10.90625 14.734375 
C 10.90625 4.390625 9.5 2.5 1.203125 1.890625 
L 1.203125 0 
L 24.703125 0 
L 24.703125 1.890625 
C 17 2.296875 15.296875 4.59375 15.296875 14.6875 
L 15.296875 53.890625 
L 59.5 -1 
z
" id="Nimbus_Roman_No9_L_Regular-78"/>
      <path d="M 70.59375 1.890625 
C 66.09375 2.203125 65.09375 3.203125 61.59375 10.71875 
L 36.703125 67 
L 34.703125 67 
L 13.90625 18.546875 
C 7.5 3.71875 6.296875 2.09375 1.5 1.890625 
L 1.5 0 
L 21.296875 0 
L 21.296875 1.890625 
C 16.5 1.890625 14.5 3.203125 14.5 6.046875 
C 14.5 7.265625 14.796875 8.6875 15.296875 10.015625 
L 19.90625 21.890625 
L 46.09375 21.890625 
L 50.203125 12.140625 
C 51.40625 9.40625 52.09375 6.765625 52.09375 5.34375 
C 52.09375 2.796875 50.40625 2 45.09375 1.890625 
L 45.09375 0 
L 70.59375 0 
z
M 21.59375 26 
L 33.09375 53 
L 44.703125 26 
z
" id="Nimbus_Roman_No9_L_Regular-65"/>
     </defs>
     <g transform="translate(304.528757 83.84)scale(0.2 -0.2)">
      <use transform="scale(0.996264)" xlink:href="#Nimbus_Roman_No9_L_Regular-110"/>
      <use transform="translate(49.8132 0)scale(0.996264)" xlink:href="#Nimbus_Roman_No9_L_Regular-111"/>
      <use transform="translate(124.533001 0)scale(0.996264)" xlink:href="#Nimbus_Roman_No9_L_Regular-82"/>
      <use transform="translate(190.983032 0)scale(0.996264)" xlink:href="#Nimbus_Roman_No9_L_Regular-78"/>
      <use transform="translate(259.426291 0)scale(0.996264)" xlink:href="#Nimbus_Roman_No9_L_Regular-65"/>
     </g>
    </g>
   </g>
  </g>
 </g>
 <defs>
  <clipPath id="p37f621fbd0">
   <rect height="326.16" width="334.8" x="54" y="51.84"/>
  </clipPath>
 </defs>
</svg>
