<?xml version="1.0" encoding="utf-8" standalone="no"?>
<!DOCTYPE svg PUBLIC "-//W3C//DTD SVG 1.1//EN"
  "http://www.w3.org/Graphics/SVG/1.1/DTD/svg11.dtd">
<!-- Created with matplotlib (http://matplotlib.org/) -->
<svg height="432pt" version="1.1" viewBox="0 0 432 432" width="432pt" xmlns="http://www.w3.org/2000/svg" xmlns:xlink="http://www.w3.org/1999/xlink">
 <defs>
  <style type="text/css">
*{stroke-linecap:butt;stroke-linejoin:round;}
  </style>
 </defs>
 <g id="figure_1">
  <g id="patch_1">
   <path d="M 0 432 
L 432 432 
L 432 0 
L 0 0 
z
" style="fill:#ffffff;"/>
  </g>
  <g id="axes_1">
   <g id="patch_2">
    <path d="M 83.146352 363.974739 
L 404.632273 363.974739 
L 404.632273 25.1 
L 83.146352 25.1 
z
" style="fill:#ffffff;"/>
   </g>
   <g id="matplotlib.axis_1">
    <g id="xtick_1">
     <g id="line2d_1">
      <defs>
       <path d="M 0 0 
L 0 3.5 
" id="m245dfb229f" style="stroke:#000000;stroke-width:0.8;"/>
      </defs>
      <g>
       <use style="stroke:#000000;stroke-width:0.8;" x="97.759348" xlink:href="#m245dfb229f" y="363.974739"/>
      </g>
     </g>
     <g id="text_1">
      <!-- $0.001$ -->
      <defs>
       <path d="M 42 31.84375 
C 42 37.96875 41.90625 48.421875 37.703125 56.453125 
C 34 63.484375 28.09375 66 22.90625 66 
C 18.09375 66 12 63.78125 8.203125 56.5625 
C 4.203125 49.015625 3.796875 39.671875 3.796875 31.84375 
C 3.796875 26.109375 3.90625 17.375 7 9.734375 
C 11.296875 -0.609375 19 -2 22.90625 -2 
C 27.5 -2 34.5 -0.109375 38.59375 9.4375 
C 41.59375 16.375 42 24.5 42 31.84375 
z
M 22.90625 -0.40625 
C 16.5 -0.40625 12.703125 5.125 11.296875 12.75 
C 10.203125 18.6875 10.203125 27.328125 10.203125 32.953125 
C 10.203125 40.6875 10.203125 47.109375 11.5 53.234375 
C 13.40625 61.78125 19 64.390625 22.90625 64.390625 
C 27 64.390625 32.296875 61.671875 34.203125 53.4375 
C 35.5 47.71875 35.59375 40.984375 35.59375 32.953125 
C 35.59375 26.421875 35.59375 18.375 34.40625 12.453125 
C 32.296875 1.5 26.40625 -0.40625 22.90625 -0.40625 
z
" id="CMR17-48"/>
       <path d="M 18.40625 4.796875 
C 18.40625 7.6875 16 9.6875 13.59375 9.6875 
C 10.703125 9.6875 8.703125 7.296875 8.703125 4.890625 
C 8.703125 2 11.09375 0 13.5 0 
C 16.40625 0 18.40625 2.390625 18.40625 4.796875 
z
" id="CMMI12-58"/>
       <path d="M 26.59375 63.796875 
C 26.59375 65.890625 26.5 66 25.09375 66 
C 21.203125 61.359375 15.296875 59.890625 9.703125 59.6875 
C 9.40625 59.6875 8.90625 59.6875 8.796875 59.5 
C 8.703125 59.296875 8.703125 59.09375 8.703125 57 
C 11.796875 57 17 57.59375 21 59.984375 
L 21 7.296875 
C 21 3.796875 20.796875 2.59375 12.203125 2.59375 
L 9.203125 2.59375 
L 9.203125 0 
C 14 0.09375 19 0.1875 23.796875 0.1875 
C 28.59375 0.1875 33.59375 0.09375 38.40625 0 
L 38.40625 2.59375 
L 35.40625 2.59375 
C 26.796875 2.59375 26.59375 3.6875 26.59375 7.296875 
z
" id="CMR17-49"/>
      </defs>
      <g transform="translate(76.77344 384.811736)scale(0.2 -0.2)">
       <use transform="scale(0.996264)" xlink:href="#CMR17-48"/>
       <use transform="translate(45.690477 0)scale(0.996264)" xlink:href="#CMMI12-58"/>
       <use transform="translate(72.787654 0)scale(0.996264)" xlink:href="#CMR17-48"/>
       <use transform="translate(118.478131 0)scale(0.996264)" xlink:href="#CMR17-48"/>
       <use transform="translate(164.168608 0)scale(0.996264)" xlink:href="#CMR17-49"/>
      </g>
     </g>
    </g>
    <g id="xtick_2">
     <g id="line2d_2">
      <g>
       <use style="stroke:#000000;stroke-width:0.8;" x="185.738353" xlink:href="#m245dfb229f" y="363.974739"/>
      </g>
     </g>
     <g id="text_2">
      <!-- $0.002$ -->
      <defs>
       <path d="M 41.703125 15.46875 
L 39.90625 15.46875 
C 38.90625 8.390625 38.09375 7.1875 37.703125 6.59375 
C 37.203125 5.796875 30 5.796875 28.59375 5.796875 
L 9.40625 5.796875 
C 13 9.6875 20 16.765625 28.5 24.9375 
C 34.59375 30.71875 41.703125 37.5 41.703125 47.390625 
C 41.703125 59.1875 32.296875 66 21.796875 66 
C 10.796875 66 4.09375 56.296875 4.09375 47.296875 
C 4.09375 43.390625 7 42.890625 8.203125 42.890625 
C 9.203125 42.890625 12.203125 43.484375 12.203125 46.984375 
C 12.203125 50.09375 9.59375 51 8.203125 51 
C 7.59375 51 7 50.890625 6.59375 50.6875 
C 8.5 59.1875 14.296875 63.390625 20.40625 63.390625 
C 29.09375 63.390625 34.796875 56.5 34.796875 47.390625 
C 34.796875 38.703125 29.703125 31.21875 24 24.734375 
L 4.09375 2.296875 
L 4.09375 0 
L 39.296875 0 
z
" id="CMR17-50"/>
      </defs>
      <g transform="translate(164.752445 384.811736)scale(0.2 -0.2)">
       <use transform="scale(0.996264)" xlink:href="#CMR17-48"/>
       <use transform="translate(45.690477 0)scale(0.996264)" xlink:href="#CMMI12-58"/>
       <use transform="translate(72.787654 0)scale(0.996264)" xlink:href="#CMR17-48"/>
       <use transform="translate(118.478131 0)scale(0.996264)" xlink:href="#CMR17-48"/>
       <use transform="translate(164.168608 0)scale(0.996264)" xlink:href="#CMR17-50"/>
      </g>
     </g>
    </g>
    <g id="xtick_3">
     <g id="line2d_3">
      <g>
       <use style="stroke:#000000;stroke-width:0.8;" x="302.040272" xlink:href="#m245dfb229f" y="363.974739"/>
      </g>
     </g>
     <g id="text_3">
      <!-- $0.005$ -->
      <defs>
       <path d="M 11.40625 58.59375 
C 12.40625 58.1875 16.5 56.890625 20.703125 56.890625 
C 30 56.890625 35.09375 61.890625 38 64.6875 
C 38 65.484375 38 66 37.40625 66 
C 37.296875 66 37.09375 66 36.296875 65.59375 
C 32.796875 64.09375 28.703125 63 23.703125 63 
C 20.703125 63 16.203125 63.359375 11.296875 65.484375 
C 10.203125 66 10 66 9.90625 66 
C 9.40625 66 9.296875 65.890625 9.296875 63.90625 
L 9.296875 34.859375 
C 9.296875 33.015625 9.296875 32.5 10.296875 32.5 
C 10.796875 32.5 11 32.703125 11.5 33.421875 
C 14.703125 38.046875 19.09375 40 24.09375 40 
C 27.59375 40 35.09375 37.734375 35.09375 20.203125 
C 35.09375 16.984375 35.09375 11.1875 32.09375 6.59375 
C 29.59375 2.484375 25.703125 0.390625 21.40625 0.390625 
C 14.796875 0.390625 8.09375 4.984375 6.296875 12.6875 
C 6.703125 12.59375 7.5 12.390625 7.90625 12.390625 
C 9.203125 12.390625 11.703125 13.09375 11.703125 16.1875 
C 11.703125 18.890625 9.796875 20 7.90625 20 
C 5.59375 20 4.09375 18.59375 4.09375 15.796875 
C 4.09375 7.09375 11 -2 21.59375 -2 
C 31.90625 -2 41.703125 6.890625 41.703125 19.796875 
C 41.703125 32.09375 33.90625 41.59375 24.203125 41.59375 
C 19.09375 41.59375 14.796875 39.6875 11.40625 36 
z
" id="CMR17-53"/>
      </defs>
      <g transform="translate(281.054363 384.811736)scale(0.2 -0.2)">
       <use transform="scale(0.996264)" xlink:href="#CMR17-48"/>
       <use transform="translate(45.690477 0)scale(0.996264)" xlink:href="#CMMI12-58"/>
       <use transform="translate(72.787654 0)scale(0.996264)" xlink:href="#CMR17-48"/>
       <use transform="translate(118.478131 0)scale(0.996264)" xlink:href="#CMR17-48"/>
       <use transform="translate(164.168608 0)scale(0.996264)" xlink:href="#CMR17-53"/>
      </g>
     </g>
    </g>
    <g id="xtick_4">
     <g id="line2d_4">
      <g>
       <use style="stroke:#000000;stroke-width:0.8;" x="390.019277" xlink:href="#m245dfb229f" y="363.974739"/>
      </g>
     </g>
     <g id="text_4">
      <!-- $0.010$ -->
      <g transform="translate(369.033368 384.811736)scale(0.2 -0.2)">
       <use transform="scale(0.996264)" xlink:href="#CMR17-48"/>
       <use transform="translate(45.690477 0)scale(0.996264)" xlink:href="#CMMI12-58"/>
       <use transform="translate(72.787654 0)scale(0.996264)" xlink:href="#CMR17-48"/>
       <use transform="translate(118.478131 0)scale(0.996264)" xlink:href="#CMR17-49"/>
       <use transform="translate(164.168608 0)scale(0.996264)" xlink:href="#CMR17-48"/>
      </g>
     </g>
    </g>
    <g id="xtick_5">
     <g id="line2d_5">
      <defs>
       <path d="M 0 0 
L 0 2 
" id="m6628bb8112" style="stroke:#000000;stroke-width:0.6;"/>
      </defs>
      <g>
       <use style="stroke:#000000;stroke-width:0.6;" x="84.386268" xlink:href="#m6628bb8112" y="363.974739"/>
      </g>
     </g>
    </g>
    <g id="xtick_6">
     <g id="line2d_6">
      <g>
       <use style="stroke:#000000;stroke-width:0.6;" x="185.738353" xlink:href="#m6628bb8112" y="363.974739"/>
      </g>
     </g>
    </g>
    <g id="xtick_7">
     <g id="line2d_7">
      <g>
       <use style="stroke:#000000;stroke-width:0.6;" x="237.202772" xlink:href="#m6628bb8112" y="363.974739"/>
      </g>
     </g>
    </g>
    <g id="xtick_8">
     <g id="line2d_8">
      <g>
       <use style="stroke:#000000;stroke-width:0.6;" x="273.717358" xlink:href="#m6628bb8112" y="363.974739"/>
      </g>
     </g>
    </g>
    <g id="xtick_9">
     <g id="line2d_9">
      <g>
       <use style="stroke:#000000;stroke-width:0.6;" x="302.040272" xlink:href="#m6628bb8112" y="363.974739"/>
      </g>
     </g>
    </g>
    <g id="xtick_10">
     <g id="line2d_10">
      <g>
       <use style="stroke:#000000;stroke-width:0.6;" x="325.181777" xlink:href="#m6628bb8112" y="363.974739"/>
      </g>
     </g>
    </g>
    <g id="xtick_11">
     <g id="line2d_11">
      <g>
       <use style="stroke:#000000;stroke-width:0.6;" x="344.747641" xlink:href="#m6628bb8112" y="363.974739"/>
      </g>
     </g>
    </g>
    <g id="xtick_12">
     <g id="line2d_12">
      <g>
       <use style="stroke:#000000;stroke-width:0.6;" x="361.696363" xlink:href="#m6628bb8112" y="363.974739"/>
      </g>
     </g>
    </g>
    <g id="xtick_13">
     <g id="line2d_13">
      <g>
       <use style="stroke:#000000;stroke-width:0.6;" x="376.646196" xlink:href="#m6628bb8112" y="363.974739"/>
      </g>
     </g>
    </g>
    <g id="text_5">
     <!-- lncRNA concentration -->
     <defs>
      <path d="M 14.796875 69 
L 7.40625 69 
L 7.40625 0 
L 14.796875 0 
z
" id="CMSS17-108"/>
      <path d="M 40.90625 29.34375 
C 40.90625 35.671875 39.40625 44 28.09375 44 
C 21.703125 44 17.5 40.6875 14.703125 37.28125 
L 14.703125 43.484375 
L 7.40625 43.484375 
L 7.40625 0 
L 15 0 
L 15 24.3125 
C 15 30.65625 17.40625 37.890625 24.203125 37.890625 
C 33 37.890625 33.296875 31.953125 33.296875 28.53125 
L 33.296875 0 
L 40.90625 0 
z
" id="CMSS17-110"/>
      <path d="M 38.5 39.6875 
C 38.5 40.390625 33.90625 42.390625 32.703125 42.796875 
C 29.40625 44 25.203125 44 24.09375 44 
C 11.09375 44 3.296875 32.6875 3.296875 21.296875 
C 3.296875 9.296875 12 -1 23.703125 -1 
C 30.40625 -1 35.203125 1.1875 39.09375 3.796875 
L 38.5 10.390625 
C 34.203125 7.09375 29.203125 5.296875 23.796875 5.296875 
C 16 5.296875 10.90625 12.09375 10.90625 21.390625 
C 10.90625 28.59375 14.203125 37.6875 24.203125 37.6875 
C 29.703125 37.6875 32.796875 36.59375 37.40625 33.484375 
z
" id="CMSS17-99"/>
      <path d="M 39.40625 32.796875 
L 39.59375 32.890625 
C 55.203125 38.28125 55.296875 48.828125 55.296875 50.6875 
C 55.296875 59.96875 45.703125 69 31.296875 69 
L 8.90625 69 
L 8.90625 0 
L 17.09375 0 
L 17.09375 31.890625 
L 31.796875 31.890625 
L 49.5 0 
L 57.90625 0 
z
M 17.09375 38 
L 17.09375 63.390625 
L 30.203125 63.390625 
C 42.90625 63.390625 47.40625 56.359375 47.40625 50.6875 
C 47.40625 45.421875 43.40625 38 30.203125 38 
z
" id="CMSS17-82"/>
      <path d="M 22.90625 65.296875 
L 21.09375 69 
L 8.796875 69 
L 8.796875 0 
L 16.59375 0 
L 16.59375 61.328125 
L 16.703125 61.421875 
C 17.40625 59.640625 17.796875 58.734375 21.90625 49.890625 
L 43.296875 3.6875 
L 45.09375 0 
L 57.40625 0 
L 57.40625 69 
L 49.59375 69 
L 49.59375 7.65625 
L 49.5 7.5625 
C 48.796875 9.34375 48.40625 10.234375 44.296875 19.09375 
z
" id="CMSS17-78"/>
      <path d="M 35.5 69 
L 26.90625 69 
L 2.59375 0 
L 10.203125 0 
L 17.203125 20 
L 44 20 
L 51.09375 0 
L 59.796875 0 
z
M 42.09375 25.59375 
L 19.09375 25.59375 
C 23.90625 39.53125 29.90625 56.84375 30.59375 61.3125 
L 30.703125 61.3125 
C 31.40625 57.234375 33.40625 51.265625 35.09375 46.1875 
z
" id="CMSS17-65"/>
      <path d="M 44.203125 21.1875 
C 44.203125 33.984375 34.703125 44 23.5 44 
C 12 44 2.703125 33.6875 2.703125 21.1875 
C 2.703125 8.5 12.296875 -1 23.40625 -1 
C 34.796875 -1 44.203125 8.796875 44.203125 21.1875 
z
M 23.5 5.296875 
C 16.40625 5.296875 10.296875 11.09375 10.296875 21.984375 
C 10.296875 33.59375 17.40625 37.890625 23.40625 37.890625 
C 29.90625 37.890625 36.59375 33.1875 36.59375 21.984375 
C 36.59375 10.6875 30.09375 5.296875 23.5 5.296875 
z
" id="CMSS17-111"/>
      <path d="M 39.09375 21.484375 
C 39.09375 24.796875 38.90625 31.265625 35.703125 36.671875 
C 32.203125 42.390625 26.5 44 22.203125 44 
C 11.796875 44 3 34.125 3 21.296875 
C 3 9.046875 12.09375 -1 23.59375 -1 
C 28.09375 -1 33.59375 0.296875 38.59375 3.890625 
C 38.59375 4.296875 38.40625 6.46875 38.296875 6.578125 
C 38.296875 6.765625 38 9.828125 38 10.234375 
C 33.203125 6.375 27.703125 5.09375 23.703125 5.09375 
C 17.296875 5.09375 10.40625 10.421875 10.09375 21.484375 
z
M 10.90625 27 
C 12.203125 32.59375 16.59375 37.890625 22.203125 37.890625 
C 23.703125 37.890625 30.703125 37.6875 32.5 27 
z
" id="CMSS17-101"/>
      <path d="M 16.703125 37.1875 
L 29.703125 37.1875 
L 29.703125 43 
L 16.703125 43 
L 16.703125 55 
L 9.59375 55 
L 9.59375 43 
L 1.703125 43 
L 1.703125 37.1875 
L 9.40625 37.1875 
L 9.40625 11.734375 
C 9.40625 6 10.703125 -1 17.296875 -1 
C 22.296875 -1 26.90625 0.390625 31.296875 2.6875 
L 29.703125 8.609375 
C 27.296875 6.5 24.40625 5.296875 21.296875 5.296875 
C 16.90625 5.296875 16.703125 10.921875 16.703125 13.4375 
z
" id="CMSS17-116"/>
      <path d="M 14.90625 21.390625 
C 14.90625 30.84375 21.796875 37.171875 30.59375 37.375 
L 30.59375 44 
C 24.203125 43.890625 18.203125 40.6875 14.59375 35.46875 
L 14.59375 43.484375 
L 7.5 43.484375 
L 7.5 0 
L 14.90625 0 
z
" id="CMSS17-114"/>
      <path d="M 37.59375 27.953125 
C 37.59375 37.484375 30.90625 44 21.90625 44 
C 17.5 44 12.703125 43.1875 7.203125 39.984375 
L 7.796875 33.328125 
C 10.296875 35.15625 14.59375 38.09375 21.796875 38.09375 
C 26.90625 38.09375 30 34.140625 30 27.84375 
L 30 24 
C 14 23.5 4 18.890625 4 11.109375 
C 4 7.0625 6.5 -1 14.796875 -1 
C 16.296875 -1 24.40625 -0.8125 30.203125 3.5 
L 30.203125 -0.203125 
L 37.59375 -0.203125 
z
M 30 12.875 
C 30 11.109375 30 8.734375 27 6.96875 
C 24.40625 5.296875 21.09375 5.09375 19.703125 5.09375 
C 14.703125 5.09375 11.296875 7.859375 11.296875 11.296875 
C 11.296875 18.203125 26.90625 18.890625 30 19 
z
" id="CMSS17-97"/>
      <path d="M 15.296875 66 
L 6.90625 66 
L 6.90625 57.59375 
L 15.296875 57.59375 
z
M 14.796875 43 
L 7.40625 43 
L 7.40625 0 
L 14.796875 0 
z
" id="CMSS17-105"/>
     </defs>
     <g transform="translate(157.705019 406.524366)scale(0.2 -0.2)">
      <use transform="scale(0.996264)" xlink:href="#CMSS17-108"/>
      <use transform="translate(22.180723 0)scale(0.996264)" xlink:href="#CMSS17-110"/>
      <use transform="translate(70.385666 0)scale(0.996264)" xlink:href="#CMSS17-99"/>
      <use transform="translate(112.024488 0)scale(0.996264)" xlink:href="#CMSS17-82"/>
      <use transform="translate(172.440643 0)scale(0.996264)" xlink:href="#CMSS17-78"/>
      <use transform="translate(238.502162 0)scale(0.996264)" xlink:href="#CMSS17-65"/>
      <use transform="translate(331.94913 0)scale(0.996264)" xlink:href="#CMSS17-99"/>
      <use transform="translate(373.587952 0)scale(0.996264)" xlink:href="#CMSS17-111"/>
      <use transform="translate(420.431576 0)scale(0.996264)" xlink:href="#CMSS17-110"/>
      <use transform="translate(468.636519 0)scale(0.996264)" xlink:href="#CMSS17-99"/>
      <use transform="translate(510.275341 0)scale(0.996264)" xlink:href="#CMSS17-101"/>
      <use transform="translate(551.914163 0)scale(0.996264)" xlink:href="#CMSS17-110"/>
      <use transform="translate(600.119106 0)scale(0.996264)" xlink:href="#CMSS17-116"/>
      <use transform="translate(633.950673 0)scale(0.996264)" xlink:href="#CMSS17-114"/>
      <use transform="translate(665.860445 0)scale(0.996264)" xlink:href="#CMSS17-97"/>
      <use transform="translate(710.782366 0)scale(0.996264)" xlink:href="#CMSS17-116"/>
      <use transform="translate(744.613932 0)scale(0.996264)" xlink:href="#CMSS17-105"/>
      <use transform="translate(766.794656 0)scale(0.996264)" xlink:href="#CMSS17-111"/>
      <use transform="translate(813.638279 0)scale(0.996264)" xlink:href="#CMSS17-110"/>
     </g>
    </g>
   </g>
   <g id="matplotlib.axis_2">
    <g id="ytick_1">
     <g id="line2d_14">
      <defs>
       <path d="M 0 0 
L -3.5 0 
" id="me99c929487" style="stroke:#000000;stroke-width:0.8;"/>
      </defs>
      <g>
       <use style="stroke:#000000;stroke-width:0.8;" x="83.146352" xlink:href="#me99c929487" y="363.974739"/>
      </g>
     </g>
     <g id="text_6">
      <!-- $0.95$ -->
      <defs>
       <path d="M 35.203125 29.234375 
C 35.203125 7 26.09375 0.390625 18.59375 0.390625 
C 16.296875 0.390625 10.703125 0.671875 8.40625 4.390625 
C 11 4 12.90625 5.390625 12.90625 7.890625 
C 12.90625 10.59375 10.703125 11.5 9.296875 11.5 
C 8.40625 11.5 5.703125 11.09375 5.703125 7.6875 
C 5.703125 1.0625 11.59375 -2 18.796875 -2 
C 30.296875 -2 42 10.390625 42 32.65625 
C 42 60.265625 30.796875 66 23.203125 66 
C 13.296875 66 3.796875 57.25 3.796875 43.75 
C 3.796875 31.25 11.90625 22 22.09375 22 
C 30.5 22 34.203125 29.84375 35.203125 33.15625 
z
M 22.296875 23.59375 
C 19.59375 23.59375 15.796875 24.09375 12.703125 30.140625 
C 10.59375 34.078125 10.59375 38.703125 10.59375 43.640625 
C 10.59375 49.59375 10.59375 53.71875 13.40625 58.15625 
C 14.796875 60.265625 17.40625 63.6875 23.203125 63.6875 
C 35 63.6875 35 45.453125 35 41.421875 
C 35 34.265625 31.796875 23.59375 22.296875 23.59375 
z
" id="CMR17-57"/>
      </defs>
      <g transform="translate(43.31263 370.893238)scale(0.2 -0.2)">
       <use transform="scale(0.996264)" xlink:href="#CMR17-48"/>
       <use transform="translate(45.690477 0)scale(0.996264)" xlink:href="#CMMI12-58"/>
       <use transform="translate(72.787654 0)scale(0.996264)" xlink:href="#CMR17-57"/>
       <use transform="translate(118.478131 0)scale(0.996264)" xlink:href="#CMR17-53"/>
      </g>
     </g>
    </g>
    <g id="ytick_2">
     <g id="line2d_15">
      <g>
       <use style="stroke:#000000;stroke-width:0.8;" x="83.146352" xlink:href="#me99c929487" y="258.076383"/>
      </g>
     </g>
     <g id="text_7">
      <!-- $1.00$ -->
      <g transform="translate(43.31263 264.994882)scale(0.2 -0.2)">
       <use transform="scale(0.996264)" xlink:href="#CMR17-49"/>
       <use transform="translate(45.690477 0)scale(0.996264)" xlink:href="#CMMI12-58"/>
       <use transform="translate(72.787654 0)scale(0.996264)" xlink:href="#CMR17-48"/>
       <use transform="translate(118.478131 0)scale(0.996264)" xlink:href="#CMR17-48"/>
      </g>
     </g>
    </g>
    <g id="ytick_3">
     <g id="line2d_16">
      <g>
       <use style="stroke:#000000;stroke-width:0.8;" x="83.146352" xlink:href="#me99c929487" y="152.178027"/>
      </g>
     </g>
     <g id="text_8">
      <!-- $1.05$ -->
      <g transform="translate(43.31263 159.096526)scale(0.2 -0.2)">
       <use transform="scale(0.996264)" xlink:href="#CMR17-49"/>
       <use transform="translate(45.690477 0)scale(0.996264)" xlink:href="#CMMI12-58"/>
       <use transform="translate(72.787654 0)scale(0.996264)" xlink:href="#CMR17-48"/>
       <use transform="translate(118.478131 0)scale(0.996264)" xlink:href="#CMR17-53"/>
      </g>
     </g>
    </g>
    <g id="ytick_4">
     <g id="line2d_17">
      <g>
       <use style="stroke:#000000;stroke-width:0.8;" x="83.146352" xlink:href="#me99c929487" y="46.279671"/>
      </g>
     </g>
     <g id="text_9">
      <!-- $1.10$ -->
      <g transform="translate(43.31263 53.19817)scale(0.2 -0.2)">
       <use transform="scale(0.996264)" xlink:href="#CMR17-49"/>
       <use transform="translate(45.690477 0)scale(0.996264)" xlink:href="#CMMI12-58"/>
       <use transform="translate(72.787654 0)scale(0.996264)" xlink:href="#CMR17-49"/>
       <use transform="translate(118.478131 0)scale(0.996264)" xlink:href="#CMR17-48"/>
      </g>
     </g>
    </g>
    <g id="text_10">
     <!-- $\uparrow$ in protein recruitment rate to BL -->
     <defs>
      <path d="M 27 55.28125 
C 29.40625 51.5 32.203125 48.71875 34.703125 46.828125 
C 40.796875 42.265625 46.90625 41.28125 47.09375 41.28125 
C 48.296875 41.28125 48.296875 42.359375 48.296875 43.15625 
C 48.296875 44.75 48.203125 44.84375 46 45.546875 
C 39.203125 47.4375 35.296875 51 33 53.484375 
C 27.90625 58.953125 26.703125 64.90625 26.09375 68.09375 
C 26 68.59375 25.59375 69 25 69 
C 24.09375 69 24 68.390625 23.796875 67.1875 
C 21.5 56.171875 14.40625 48.421875 3.40625 45.34375 
C 1.90625 44.84375 1.703125 44.84375 1.703125 43.15625 
C 1.703125 42.359375 1.703125 41.28125 2.90625 41.28125 
C 3.203125 41.28125 9.09375 42.359375 14.796875 46.4375 
C 18.09375 48.921875 20.796875 51.90625 23 55.28125 
L 23 -15.515625 
C 23 -17.3125 23 -19.109375 25 -19.109375 
C 27 -19.109375 27 -17.3125 27 -15.515625 
z
" id="CMSY10-34"/>
      <path d="M 15.09375 4.296875 
C 18.40625 1.09375 22.90625 -1 27.703125 -1 
C 37 -1 45 8.640625 45 21.59375 
C 45 33.546875 39 44 30.40625 44 
C 25.40625 44 19.40625 42.1875 14.90625 38.59375 
L 14.90625 43.1875 
L 7.5 43.1875 
L 7.5 -20 
L 15.09375 -20 
z
M 15.09375 32.625 
C 15.90625 33.84375 19.296875 37.6875 24.796875 37.6875 
C 31.796875 37.6875 37.40625 30.40625 37.40625 21.59375 
C 37.40625 11.578125 30.59375 5.09375 23.90625 5.09375 
C 21.90625 5.09375 19.796875 5.59375 17.796875 7.3125 
C 15.09375 9.75 15.09375 11.265625 15.09375 12.6875 
z
" id="CMSS17-112"/>
      <path d="M 40.90625 43 
L 33.296875 43 
L 33.296875 15.25 
C 33.296875 7.8125 27.90625 4.796875 22.203125 4.796875 
C 15.59375 4.796875 15 7 15 11.125 
L 15 43 
L 7.40625 43 
L 7.40625 10.625 
C 7.40625 2.796875 10.09375 -1 17 -1 
C 20.40625 -1 28.09375 -0.203125 33.5 4.796875 
L 33.5 -0.203125 
L 40.90625 -0.203125 
z
" id="CMSS17-117"/>
      <path d="M 67 29.34375 
C 67 36.078125 65.296875 44 54.09375 44 
C 46.59375 44 42.09375 39.296875 40.09375 36.375 
C 38.296875 41.6875 34.09375 44 28.09375 44 
C 21.296875 44 17 40.09375 14.703125 37.28125 
L 14.703125 43.484375 
L 7.40625 43.484375 
L 7.40625 0 
L 15 0 
L 15 24.3125 
C 15 30.25 17.203125 37.890625 24.296875 37.890625 
C 33.40625 37.890625 33.40625 31.453125 33.40625 28.53125 
L 33.40625 0 
L 41 0 
L 41 24.3125 
C 41 30.25 43.203125 37.890625 50.296875 37.890625 
C 59.40625 37.890625 59.40625 31.453125 59.40625 28.53125 
L 59.40625 0 
L 67 0 
z
" id="CMSS17-109"/>
      <path d="M 8.90625 69 
L 8.90625 0 
L 33.796875 0 
C 47.40625 0 57.296875 8.984375 57.296875 18.75 
C 57.296875 26.3125 50.796875 33.984375 39.09375 36.1875 
C 52.09375 39.984375 54.703125 47.484375 54.703125 51.734375 
C 54.703125 60.625 44.90625 69 31.203125 69 
z
M 17 39 
L 17 63.390625 
L 28.5 63.390625 
C 38.796875 63.390625 46.90625 58.15625 46.90625 51.640625 
C 46.90625 45.703125 40.5 39 27.59375 39 
z
M 17 5.59375 
L 17 32.890625 
L 30.296875 32.890625 
C 41.09375 32.890625 49.40625 26.21875 49.40625 18.84375 
C 49.40625 12.0625 42.09375 5.59375 31 5.59375 
z
" id="CMSS17-66"/>
      <path d="M 26.09375 6.5 
C 24.90625 6.5 23.703125 6.390625 22.5 6.390625 
L 17.203125 6.390625 
L 17.203125 69 
L 8.796875 69 
L 8.796875 0 
L 46.90625 0 
L 46.90625 6.5 
z
" id="CMSS17-76"/>
     </defs>
     <g transform="translate(35.436997 331.838029)rotate(-90)scale(0.2 -0.2)">
      <use transform="scale(0.996264)" xlink:href="#CMSY10-34"/>
      <use transform="translate(81.042496 0)scale(0.996264)" xlink:href="#CMSS17-105"/>
      <use transform="translate(103.223219 0)scale(0.996264)" xlink:href="#CMSS17-110"/>
      <use transform="translate(182.657275 0)scale(0.996264)" xlink:href="#CMSS17-112"/>
      <use transform="translate(228.259764 0)scale(0.996264)" xlink:href="#CMSS17-114"/>
      <use transform="translate(260.169536 0)scale(0.996264)" xlink:href="#CMSS17-111"/>
      <use transform="translate(307.01316 0)scale(0.996264)" xlink:href="#CMSS17-116"/>
      <use transform="translate(340.844727 0)scale(0.996264)" xlink:href="#CMSS17-101"/>
      <use transform="translate(382.483549 0)scale(0.996264)" xlink:href="#CMSS17-105"/>
      <use transform="translate(404.664272 0)scale(0.996264)" xlink:href="#CMSS17-110"/>
      <use transform="translate(484.098328 0)scale(0.996264)" xlink:href="#CMSS17-114"/>
      <use transform="translate(516.0081 0)scale(0.996264)" xlink:href="#CMSS17-101"/>
      <use transform="translate(557.646922 0)scale(0.996264)" xlink:href="#CMSS17-99"/>
      <use transform="translate(599.285744 0)scale(0.996264)" xlink:href="#CMSS17-114"/>
      <use transform="translate(631.195517 0)scale(0.996264)" xlink:href="#CMSS17-117"/>
      <use transform="translate(679.40046 0)scale(0.996264)" xlink:href="#CMSS17-105"/>
      <use transform="translate(701.581183 0)scale(0.996264)" xlink:href="#CMSS17-116"/>
      <use transform="translate(735.41275 0)scale(0.996264)" xlink:href="#CMSS17-109"/>
      <use transform="translate(809.642004 0)scale(0.996264)" xlink:href="#CMSS17-101"/>
      <use transform="translate(851.280826 0)scale(0.996264)" xlink:href="#CMSS17-110"/>
      <use transform="translate(899.485769 0)scale(0.996264)" xlink:href="#CMSS17-116"/>
      <use transform="translate(964.546449 0)scale(0.996264)" xlink:href="#CMSS17-114"/>
      <use transform="translate(996.456221 0)scale(0.996264)" xlink:href="#CMSS17-97"/>
      <use transform="translate(1041.378142 0)scale(0.996264)" xlink:href="#CMSS17-116"/>
      <use transform="translate(1075.209709 0)scale(0.996264)" xlink:href="#CMSS17-101"/>
      <use transform="translate(1148.077643 0)scale(0.996264)" xlink:href="#CMSS17-116"/>
      <use transform="translate(1181.90921 0)scale(0.996264)" xlink:href="#CMSS17-111"/>
      <use transform="translate(1259.981946 0)scale(0.996264)" xlink:href="#CMSS17-66"/>
      <use transform="translate(1322.319987 0)scale(0.996264)" xlink:href="#CMSS17-76"/>
     </g>
    </g>
   </g>
   <g id="line2d_18">
    <path clip-path="url(#p692110e625)" d="M 97.759348 175.683603 
L 185.738353 138.230469 
L 302.040272 85.011706 
L 390.019277 53.699199 
" style="fill:none;stroke:#000000;stroke-linecap:square;stroke-width:1.5;"/>
    <defs>
     <path d="M 0 3 
C 0.795609 3 1.55874 2.683901 2.12132 2.12132 
C 2.683901 1.55874 3 0.795609 3 0 
C 3 -0.795609 2.683901 -1.55874 2.12132 -2.12132 
C 1.55874 -2.683901 0.795609 -3 0 -3 
C -0.795609 -3 -1.55874 -2.683901 -2.12132 -2.12132 
C -2.683901 -1.55874 -3 -0.795609 -3 0 
C -3 0.795609 -2.683901 1.55874 -2.12132 2.12132 
C -1.55874 2.683901 -0.795609 3 0 3 
z
" id="m7f191b7d97" style="stroke:#000000;"/>
    </defs>
    <g clip-path="url(#p692110e625)">
     <use style="stroke:#000000;" x="97.759348" xlink:href="#m7f191b7d97" y="175.683603"/>
     <use style="stroke:#000000;" x="185.738353" xlink:href="#m7f191b7d97" y="138.230469"/>
     <use style="stroke:#000000;" x="302.040272" xlink:href="#m7f191b7d97" y="85.011706"/>
     <use style="stroke:#000000;" x="390.019277" xlink:href="#m7f191b7d97" y="53.699199"/>
    </g>
   </g>
   <g id="line2d_19">
    <path clip-path="url(#p692110e625)" d="M 83.146352 258.076383 
L 404.632273 258.076383 
" style="fill:none;stroke:#000000;stroke-dasharray:5.55,2.4;stroke-dashoffset:0;stroke-width:1.5;"/>
   </g>
   <g id="patch_3">
    <path d="M 83.146352 363.974739 
L 83.146352 25.1 
" style="fill:none;stroke:#000000;stroke-linecap:square;stroke-linejoin:miter;stroke-width:0.8;"/>
   </g>
   <g id="patch_4">
    <path d="M 404.632273 363.974739 
L 404.632273 25.1 
" style="fill:none;stroke:#000000;stroke-linecap:square;stroke-linejoin:miter;stroke-width:0.8;"/>
   </g>
   <g id="patch_5">
    <path d="M 83.146352 363.974739 
L 404.632273 363.974739 
" style="fill:none;stroke:#000000;stroke-linecap:square;stroke-linejoin:miter;stroke-width:0.8;"/>
   </g>
   <g id="patch_6">
    <path d="M 83.146352 25.1 
L 404.632273 25.1 
" style="fill:none;stroke:#000000;stroke-linecap:square;stroke-linejoin:miter;stroke-width:0.8;"/>
   </g>
  </g>
 </g>
 <defs>
  <clipPath id="p692110e625">
   <rect height="338.874739" width="321.485921" x="83.146352" y="25.1"/>
  </clipPath>
 </defs>
</svg>
