<?xml version="1.0" encoding="utf-8" standalone="no"?>
<!DOCTYPE svg PUBLIC "-//W3C//DTD SVG 1.1//EN"
  "http://www.w3.org/Graphics/SVG/1.1/DTD/svg11.dtd">
<!-- Created with matplotlib (http://matplotlib.org/) -->
<svg height="432pt" version="1.1" viewBox="0 0 432 432" width="432pt" xmlns="http://www.w3.org/2000/svg" xmlns:xlink="http://www.w3.org/1999/xlink">
 <defs>
  <style type="text/css">
*{stroke-linecap:butt;stroke-linejoin:round;}
  </style>
 </defs>
 <g id="figure_1">
  <g id="patch_1">
   <path d="M 0 432 
L 432 432 
L 432 0 
L 0 0 
z
" style="fill:#ffffff;"/>
  </g>
  <g id="axes_1">
   <g id="patch_2">
    <path d="M 99.146352 357.974739 
L 406.9 357.974739 
L 406.9 28.518498 
L 99.146352 28.518498 
z
" style="fill:#ffffff;"/>
   </g>
   <g id="matplotlib.axis_1">
    <g id="xtick_1">
     <g id="line2d_1">
      <defs>
       <path d="M 0 0 
L 0 3.5 
" id="ma1c64f78d3" style="stroke:#000000;stroke-width:0.8;"/>
      </defs>
      <g>
       <use style="stroke:#000000;stroke-width:0.8;" x="101.495617" xlink:href="#ma1c64f78d3" y="357.974739"/>
      </g>
     </g>
     <g id="text_1">
      <!-- $0$ -->
      <defs>
       <path d="M 42 31.84375 
C 42 37.96875 41.90625 48.421875 37.703125 56.453125 
C 34 63.484375 28.09375 66 22.90625 66 
C 18.09375 66 12 63.78125 8.203125 56.5625 
C 4.203125 49.015625 3.796875 39.671875 3.796875 31.84375 
C 3.796875 26.109375 3.90625 17.375 7 9.734375 
C 11.296875 -0.609375 19 -2 22.90625 -2 
C 27.5 -2 34.5 -0.109375 38.59375 9.4375 
C 41.59375 16.375 42 24.5 42 31.84375 
z
M 22.90625 -0.40625 
C 16.5 -0.40625 12.703125 5.125 11.296875 12.75 
C 10.203125 18.6875 10.203125 27.328125 10.203125 32.953125 
C 10.203125 40.6875 10.203125 47.109375 11.5 53.234375 
C 13.40625 61.78125 19 64.390625 22.90625 64.390625 
C 27 64.390625 32.296875 61.671875 34.203125 53.4375 
C 35.5 47.71875 35.59375 40.984375 35.59375 32.953125 
C 35.59375 26.421875 35.59375 18.375 34.40625 12.453125 
C 32.296875 1.5 26.40625 -0.40625 22.90625 -0.40625 
z
" id="CMR17-48"/>
      </defs>
      <g transform="translate(96.926569 378.811736)scale(0.2 -0.2)">
       <use transform="scale(0.996264)" xlink:href="#CMR17-48"/>
      </g>
     </g>
    </g>
    <g id="xtick_2">
     <g id="line2d_2">
      <g>
       <use style="stroke:#000000;stroke-width:0.8;" x="195.466196" xlink:href="#ma1c64f78d3" y="357.974739"/>
      </g>
     </g>
     <g id="text_2">
      <!-- $4$ -->
      <defs>
       <path d="M 33.59375 64.796875 
C 33.59375 66.890625 33.5 67 31.703125 67 
L 2 19.59375 
L 2 17 
L 27.796875 17 
L 27.796875 7.1875 
C 27.796875 3.59375 27.59375 2.59375 20.59375 2.59375 
L 18.703125 2.59375 
L 18.703125 0 
C 21.90625 0.1875 27.296875 0.1875 30.703125 0.1875 
C 34.09375 0.1875 39.5 0.1875 42.703125 0 
L 42.703125 2.59375 
L 40.796875 2.59375 
C 33.796875 2.59375 33.59375 3.59375 33.59375 7.1875 
L 33.59375 17 
L 43.796875 17 
L 43.796875 19.59375 
L 33.59375 19.59375 
z
M 28.09375 58.171875 
L 28.09375 19.59375 
L 4 19.59375 
z
" id="CMR17-52"/>
      </defs>
      <g transform="translate(190.897148 378.811736)scale(0.2 -0.2)">
       <use transform="scale(0.996264)" xlink:href="#CMR17-52"/>
      </g>
     </g>
    </g>
    <g id="xtick_3">
     <g id="line2d_3">
      <g>
       <use style="stroke:#000000;stroke-width:0.8;" x="289.436776" xlink:href="#ma1c64f78d3" y="357.974739"/>
      </g>
     </g>
     <g id="text_3">
      <!-- $8$ -->
      <defs>
       <path d="M 27.203125 35.765625 
C 33.5 38.96875 39.90625 43.796875 39.90625 51.53125 
C 39.90625 60.6875 31.09375 66 23 66 
C 13.90625 66 5.90625 59.375 5.90625 50.234375 
C 5.90625 47.71875 6.5 43.390625 10.40625 39.578125 
C 11.40625 38.578125 15.59375 35.5625 18.296875 33.65625 
C 13.796875 31.34375 3.296875 25.8125 3.296875 14.765625 
C 3.296875 4.40625 13.09375 -2 22.796875 -2 
C 33.5 -2 42.5 5.71875 42.5 15.96875 
C 42.5 25.109375 36.40625 29.328125 32.40625 32.046875 
z
M 14.09375 44.609375 
C 13.296875 45.109375 9.296875 48.21875 9.296875 52.9375 
C 9.296875 59.078125 15.59375 63.6875 22.796875 63.6875 
C 30.703125 63.6875 36.5 58.0625 36.5 51.53125 
C 36.5 42.1875 26.09375 36.859375 25.59375 36.859375 
C 25.5 36.859375 25.40625 36.859375 24.59375 37.46875 
z
M 32.5 24 
C 34 22.90625 38.796875 19.578125 38.796875 13.453125 
C 38.796875 6.015625 31.40625 0.390625 23 0.390625 
C 13.90625 0.390625 7 6.921875 7 14.859375 
C 7 22.796875 13.09375 29.4375 20 32.546875 
z
" id="CMR17-56"/>
      </defs>
      <g transform="translate(284.867728 378.811736)scale(0.2 -0.2)">
       <use transform="scale(0.996264)" xlink:href="#CMR17-56"/>
      </g>
     </g>
    </g>
    <g id="xtick_4">
     <g id="line2d_4">
      <g>
       <use style="stroke:#000000;stroke-width:0.8;" x="383.407355" xlink:href="#ma1c64f78d3" y="357.974739"/>
      </g>
     </g>
     <g id="text_4">
      <!-- $12$ -->
      <defs>
       <path d="M 26.59375 63.796875 
C 26.59375 65.890625 26.5 66 25.09375 66 
C 21.203125 61.359375 15.296875 59.890625 9.703125 59.6875 
C 9.40625 59.6875 8.90625 59.6875 8.796875 59.5 
C 8.703125 59.296875 8.703125 59.09375 8.703125 57 
C 11.796875 57 17 57.59375 21 59.984375 
L 21 7.296875 
C 21 3.796875 20.796875 2.59375 12.203125 2.59375 
L 9.203125 2.59375 
L 9.203125 0 
C 14 0.09375 19 0.1875 23.796875 0.1875 
C 28.59375 0.1875 33.59375 0.09375 38.40625 0 
L 38.40625 2.59375 
L 35.40625 2.59375 
C 26.796875 2.59375 26.59375 3.6875 26.59375 7.296875 
z
" id="CMR17-49"/>
       <path d="M 41.703125 15.46875 
L 39.90625 15.46875 
C 38.90625 8.390625 38.09375 7.1875 37.703125 6.59375 
C 37.203125 5.796875 30 5.796875 28.59375 5.796875 
L 9.40625 5.796875 
C 13 9.6875 20 16.765625 28.5 24.9375 
C 34.59375 30.71875 41.703125 37.5 41.703125 47.390625 
C 41.703125 59.1875 32.296875 66 21.796875 66 
C 10.796875 66 4.09375 56.296875 4.09375 47.296875 
C 4.09375 43.390625 7 42.890625 8.203125 42.890625 
C 9.203125 42.890625 12.203125 43.484375 12.203125 46.984375 
C 12.203125 50.09375 9.59375 51 8.203125 51 
C 7.59375 51 7 50.890625 6.59375 50.6875 
C 8.5 59.1875 14.296875 63.390625 20.40625 63.390625 
C 29.09375 63.390625 34.796875 56.5 34.796875 47.390625 
C 34.796875 38.703125 29.703125 31.21875 24 24.734375 
L 4.09375 2.296875 
L 4.09375 0 
L 39.296875 0 
z
" id="CMR17-50"/>
      </defs>
      <g transform="translate(374.26926 378.811736)scale(0.2 -0.2)">
       <use transform="scale(0.996264)" xlink:href="#CMR17-49"/>
       <use transform="translate(45.690477 0)scale(0.996264)" xlink:href="#CMR17-50"/>
      </g>
     </g>
    </g>
    <g id="text_5">
     <!-- Time -->
     <defs>
      <path d="M 36.203125 62.296875 
L 44.5 62.296875 
C 45.703125 62.296875 46.90625 62.1875 48.09375 62.1875 
L 60.59375 62.1875 
L 60.59375 68.6875 
L 3.40625 68.6875 
L 3.40625 62.1875 
L 15.90625 62.1875 
C 17.09375 62.1875 18.296875 62.296875 19.5 62.296875 
L 27.796875 62.296875 
L 27.796875 0 
L 36.203125 0 
z
" id="CMSS17-84"/>
      <path d="M 15.296875 66 
L 6.90625 66 
L 6.90625 57.59375 
L 15.296875 57.59375 
z
M 14.796875 43 
L 7.40625 43 
L 7.40625 0 
L 14.796875 0 
z
" id="CMSS17-105"/>
      <path d="M 67 29.34375 
C 67 36.078125 65.296875 44 54.09375 44 
C 46.59375 44 42.09375 39.296875 40.09375 36.375 
C 38.296875 41.6875 34.09375 44 28.09375 44 
C 21.296875 44 17 40.09375 14.703125 37.28125 
L 14.703125 43.484375 
L 7.40625 43.484375 
L 7.40625 0 
L 15 0 
L 15 24.3125 
C 15 30.25 17.203125 37.890625 24.296875 37.890625 
C 33.40625 37.890625 33.40625 31.453125 33.40625 28.53125 
L 33.40625 0 
L 41 0 
L 41 24.3125 
C 41 30.25 43.203125 37.890625 50.296875 37.890625 
C 59.40625 37.890625 59.40625 31.453125 59.40625 28.53125 
L 59.40625 0 
L 67 0 
z
" id="CMSS17-109"/>
      <path d="M 39.09375 21.484375 
C 39.09375 24.796875 38.90625 31.265625 35.703125 36.671875 
C 32.203125 42.390625 26.5 44 22.203125 44 
C 11.796875 44 3 34.125 3 21.296875 
C 3 9.046875 12.09375 -1 23.59375 -1 
C 28.09375 -1 33.59375 0.296875 38.59375 3.890625 
C 38.59375 4.296875 38.40625 6.46875 38.296875 6.578125 
C 38.296875 6.765625 38 9.828125 38 10.234375 
C 33.203125 6.375 27.703125 5.09375 23.703125 5.09375 
C 17.296875 5.09375 10.40625 10.421875 10.09375 21.484375 
z
M 10.90625 27 
C 12.203125 32.59375 16.59375 37.890625 22.203125 37.890625 
C 23.703125 37.890625 30.703125 37.6875 32.5 27 
z
" id="CMSS17-101"/>
     </defs>
     <g transform="translate(232.836357 406.524366)scale(0.2 -0.2)">
      <use transform="scale(0.996264)" xlink:href="#CMSS17-84"/>
      <use transform="translate(63.819454 0)scale(0.996264)" xlink:href="#CMSS17-105"/>
      <use transform="translate(86.000177 0)scale(0.996264)" xlink:href="#CMSS17-109"/>
      <use transform="translate(160.229431 0)scale(0.996264)" xlink:href="#CMSS17-101"/>
     </g>
    </g>
   </g>
   <g id="matplotlib.axis_2">
    <g id="ytick_1">
     <g id="line2d_5">
      <defs>
       <path d="M 0 0 
L -3.5 0 
" id="mfd2e6325a7" style="stroke:#000000;stroke-width:0.8;"/>
      </defs>
      <g>
       <use style="stroke:#000000;stroke-width:0.8;" x="99.146352" xlink:href="#mfd2e6325a7" y="357.974739"/>
      </g>
     </g>
     <g id="text_6">
      <!-- $0.03$ -->
      <defs>
       <path d="M 18.40625 4.796875 
C 18.40625 7.6875 16 9.6875 13.59375 9.6875 
C 10.703125 9.6875 8.703125 7.296875 8.703125 4.890625 
C 8.703125 2 11.09375 0 13.5 0 
C 16.40625 0 18.40625 2.390625 18.40625 4.796875 
z
" id="CMMI12-58"/>
       <path d="M 22.09375 34 
C 31 34 34.90625 26.140625 34.90625 17.09375 
C 34.90625 5.03125 28.5 0.390625 22.703125 0.390625 
C 17.40625 0.390625 8.796875 3.015625 6.09375 10.796875 
C 6.59375 10.59375 7.09375 10.59375 7.59375 10.59375 
C 10 10.59375 11.796875 12.1875 11.796875 14.796875 
C 11.796875 17.6875 9.59375 19 7.59375 19 
C 5.90625 19 3.296875 18.1875 3.296875 14.484375 
C 3.296875 5.234375 12.296875 -2 22.90625 -2 
C 34 -2 42.5 6.75 42.5 16.984375 
C 42.5 26.84375 34.5 34 25 35.09375 
C 32.59375 36.671875 39.90625 43.375 39.90625 52.390625 
C 39.90625 60.25 32 66 23 66 
C 13.90625 66 5.90625 60.34375 5.90625 52.296875 
C 5.90625 48.796875 8.5 48.1875 9.796875 48.1875 
C 11.90625 48.1875 13.703125 49.484375 13.703125 52.09375 
C 13.703125 54.6875 11.90625 56 9.796875 56 
C 9.40625 56 8.90625 56 8.5 55.796875 
C 11.40625 62.484375 19.296875 63.6875 22.796875 63.6875 
C 26.296875 63.6875 32.90625 61.96875 32.90625 52.296875 
C 32.90625 49.484375 32.5 44.546875 29.09375 40.21875 
C 26.09375 36.390625 22.703125 36.1875 19.40625 35.890625 
C 18.90625 35.890625 16.59375 35.6875 16.203125 35.6875 
C 15.5 35.59375 15.09375 35.5 15.09375 34.796875 
C 15.09375 34.09375 15.203125 34 17.203125 34 
z
" id="CMR17-51"/>
      </defs>
      <g transform="translate(59.31263 364.893238)scale(0.2 -0.2)">
       <use transform="scale(0.996264)" xlink:href="#CMR17-48"/>
       <use transform="translate(45.690477 0)scale(0.996264)" xlink:href="#CMMI12-58"/>
       <use transform="translate(72.787654 0)scale(0.996264)" xlink:href="#CMR17-48"/>
       <use transform="translate(118.478131 0)scale(0.996264)" xlink:href="#CMR17-51"/>
      </g>
     </g>
    </g>
    <g id="ytick_2">
     <g id="line2d_6">
      <g>
       <use style="stroke:#000000;stroke-width:0.8;" x="99.146352" xlink:href="#mfd2e6325a7" y="275.610679"/>
      </g>
     </g>
     <g id="text_7">
      <!-- $0.06$ -->
      <defs>
       <path d="M 10.59375 34.34375 
C 10.59375 58 21.796875 63.6875 28.296875 63.6875 
C 30.40625 63.6875 35.5 63.265625 37.5 59.09375 
C 35.90625 59.09375 32.90625 59.09375 32.90625 55.59375 
C 32.90625 52.890625 35.09375 52 36.5 52 
C 37.40625 52 40.09375 52.390625 40.09375 55.796875 
C 40.09375 62.296875 35.09375 66 28.203125 66 
C 16.296875 66 3.796875 53.296875 3.796875 31.421875 
C 3.796875 4.015625 15.09375 -2 23.09375 -2 
C 32.796875 -2 42 6.734375 42 20.234375 
C 42 32.828125 33.90625 42 23.703125 42 
C 17.59375 42 13.09375 37.96875 10.59375 30.921875 
z
M 23.09375 0.390625 
C 10.796875 0.390625 10.796875 18.9375 10.796875 22.65625 
C 10.796875 29.90625 14.203125 40.390625 23.5 40.390625 
C 25.203125 40.390625 30.09375 40.390625 33.40625 33.4375 
C 35.203125 29.515625 35.203125 25.375 35.203125 20.34375 
C 35.203125 14.90625 35.203125 10.875 33.09375 6.84375 
C 30.90625 2.703125 27.703125 0.390625 23.09375 0.390625 
z
" id="CMR17-54"/>
      </defs>
      <g transform="translate(59.31263 282.529177)scale(0.2 -0.2)">
       <use transform="scale(0.996264)" xlink:href="#CMR17-48"/>
       <use transform="translate(45.690477 0)scale(0.996264)" xlink:href="#CMMI12-58"/>
       <use transform="translate(72.787654 0)scale(0.996264)" xlink:href="#CMR17-48"/>
       <use transform="translate(118.478131 0)scale(0.996264)" xlink:href="#CMR17-54"/>
      </g>
     </g>
    </g>
    <g id="ytick_3">
     <g id="line2d_7">
      <g>
       <use style="stroke:#000000;stroke-width:0.8;" x="99.146352" xlink:href="#mfd2e6325a7" y="193.246619"/>
      </g>
     </g>
     <g id="text_8">
      <!-- $0.09$ -->
      <defs>
       <path d="M 35.203125 29.234375 
C 35.203125 7 26.09375 0.390625 18.59375 0.390625 
C 16.296875 0.390625 10.703125 0.671875 8.40625 4.390625 
C 11 4 12.90625 5.390625 12.90625 7.890625 
C 12.90625 10.59375 10.703125 11.5 9.296875 11.5 
C 8.40625 11.5 5.703125 11.09375 5.703125 7.6875 
C 5.703125 1.0625 11.59375 -2 18.796875 -2 
C 30.296875 -2 42 10.390625 42 32.65625 
C 42 60.265625 30.796875 66 23.203125 66 
C 13.296875 66 3.796875 57.25 3.796875 43.75 
C 3.796875 31.25 11.90625 22 22.09375 22 
C 30.5 22 34.203125 29.84375 35.203125 33.15625 
z
M 22.296875 23.59375 
C 19.59375 23.59375 15.796875 24.09375 12.703125 30.140625 
C 10.59375 34.078125 10.59375 38.703125 10.59375 43.640625 
C 10.59375 49.59375 10.59375 53.71875 13.40625 58.15625 
C 14.796875 60.265625 17.40625 63.6875 23.203125 63.6875 
C 35 63.6875 35 45.453125 35 41.421875 
C 35 34.265625 31.796875 23.59375 22.296875 23.59375 
z
" id="CMR17-57"/>
      </defs>
      <g transform="translate(59.31263 200.165117)scale(0.2 -0.2)">
       <use transform="scale(0.996264)" xlink:href="#CMR17-48"/>
       <use transform="translate(45.690477 0)scale(0.996264)" xlink:href="#CMMI12-58"/>
       <use transform="translate(72.787654 0)scale(0.996264)" xlink:href="#CMR17-48"/>
       <use transform="translate(118.478131 0)scale(0.996264)" xlink:href="#CMR17-57"/>
      </g>
     </g>
    </g>
    <g id="ytick_4">
     <g id="line2d_8">
      <g>
       <use style="stroke:#000000;stroke-width:0.8;" x="99.146352" xlink:href="#mfd2e6325a7" y="110.882559"/>
      </g>
     </g>
     <g id="text_9">
      <!-- $0.12$ -->
      <g transform="translate(59.31263 117.801057)scale(0.2 -0.2)">
       <use transform="scale(0.996264)" xlink:href="#CMR17-48"/>
       <use transform="translate(45.690477 0)scale(0.996264)" xlink:href="#CMMI12-58"/>
       <use transform="translate(72.787654 0)scale(0.996264)" xlink:href="#CMR17-49"/>
       <use transform="translate(118.478131 0)scale(0.996264)" xlink:href="#CMR17-50"/>
      </g>
     </g>
    </g>
    <g id="ytick_5">
     <g id="line2d_9">
      <g>
       <use style="stroke:#000000;stroke-width:0.8;" x="99.146352" xlink:href="#mfd2e6325a7" y="28.518498"/>
      </g>
     </g>
     <g id="text_10">
      <!-- $0.15$ -->
      <defs>
       <path d="M 11.40625 58.59375 
C 12.40625 58.1875 16.5 56.890625 20.703125 56.890625 
C 30 56.890625 35.09375 61.890625 38 64.6875 
C 38 65.484375 38 66 37.40625 66 
C 37.296875 66 37.09375 66 36.296875 65.59375 
C 32.796875 64.09375 28.703125 63 23.703125 63 
C 20.703125 63 16.203125 63.359375 11.296875 65.484375 
C 10.203125 66 10 66 9.90625 66 
C 9.40625 66 9.296875 65.890625 9.296875 63.90625 
L 9.296875 34.859375 
C 9.296875 33.015625 9.296875 32.5 10.296875 32.5 
C 10.796875 32.5 11 32.703125 11.5 33.421875 
C 14.703125 38.046875 19.09375 40 24.09375 40 
C 27.59375 40 35.09375 37.734375 35.09375 20.203125 
C 35.09375 16.984375 35.09375 11.1875 32.09375 6.59375 
C 29.59375 2.484375 25.703125 0.390625 21.40625 0.390625 
C 14.796875 0.390625 8.09375 4.984375 6.296875 12.6875 
C 6.703125 12.59375 7.5 12.390625 7.90625 12.390625 
C 9.203125 12.390625 11.703125 13.09375 11.703125 16.1875 
C 11.703125 18.890625 9.796875 20 7.90625 20 
C 5.59375 20 4.09375 18.59375 4.09375 15.796875 
C 4.09375 7.09375 11 -2 21.59375 -2 
C 31.90625 -2 41.703125 6.890625 41.703125 19.796875 
C 41.703125 32.09375 33.90625 41.59375 24.203125 41.59375 
C 19.09375 41.59375 14.796875 39.6875 11.40625 36 
z
" id="CMR17-53"/>
      </defs>
      <g transform="translate(59.31263 35.436997)scale(0.2 -0.2)">
       <use transform="scale(0.996264)" xlink:href="#CMR17-48"/>
       <use transform="translate(45.690477 0)scale(0.996264)" xlink:href="#CMMI12-58"/>
       <use transform="translate(72.787654 0)scale(0.996264)" xlink:href="#CMR17-49"/>
       <use transform="translate(118.478131 0)scale(0.996264)" xlink:href="#CMR17-53"/>
      </g>
     </g>
    </g>
    <g id="text_11">
     <!-- Protein concentration at BL -->
     <defs>
      <path d="M 32.90625 29 
C 44.90625 29 54.703125 38.234375 54.703125 49.046875 
C 54.703125 59.65625 45.296875 69 32.296875 69 
L 8.90625 69 
L 8.90625 0 
L 17.296875 0 
L 17.296875 29 
z
M 30.09375 63.390625 
C 41.703125 63.390625 46.796875 56.21875 46.796875 49.046875 
C 46.796875 42.359375 42.09375 34.796875 30.09375 34.796875 
L 17.09375 34.796875 
L 17.09375 63.390625 
z
" id="CMSS17-80"/>
      <path d="M 14.90625 21.390625 
C 14.90625 30.84375 21.796875 37.171875 30.59375 37.375 
L 30.59375 44 
C 24.203125 43.890625 18.203125 40.6875 14.59375 35.46875 
L 14.59375 43.484375 
L 7.5 43.484375 
L 7.5 0 
L 14.90625 0 
z
" id="CMSS17-114"/>
      <path d="M 44.203125 21.1875 
C 44.203125 33.984375 34.703125 44 23.5 44 
C 12 44 2.703125 33.6875 2.703125 21.1875 
C 2.703125 8.5 12.296875 -1 23.40625 -1 
C 34.796875 -1 44.203125 8.796875 44.203125 21.1875 
z
M 23.5 5.296875 
C 16.40625 5.296875 10.296875 11.09375 10.296875 21.984375 
C 10.296875 33.59375 17.40625 37.890625 23.40625 37.890625 
C 29.90625 37.890625 36.59375 33.1875 36.59375 21.984375 
C 36.59375 10.6875 30.09375 5.296875 23.5 5.296875 
z
" id="CMSS17-111"/>
      <path d="M 16.703125 37.1875 
L 29.703125 37.1875 
L 29.703125 43 
L 16.703125 43 
L 16.703125 55 
L 9.59375 55 
L 9.59375 43 
L 1.703125 43 
L 1.703125 37.1875 
L 9.40625 37.1875 
L 9.40625 11.734375 
C 9.40625 6 10.703125 -1 17.296875 -1 
C 22.296875 -1 26.90625 0.390625 31.296875 2.6875 
L 29.703125 8.609375 
C 27.296875 6.5 24.40625 5.296875 21.296875 5.296875 
C 16.90625 5.296875 16.703125 10.921875 16.703125 13.4375 
z
" id="CMSS17-116"/>
      <path d="M 40.90625 29.34375 
C 40.90625 35.671875 39.40625 44 28.09375 44 
C 21.703125 44 17.5 40.6875 14.703125 37.28125 
L 14.703125 43.484375 
L 7.40625 43.484375 
L 7.40625 0 
L 15 0 
L 15 24.3125 
C 15 30.65625 17.40625 37.890625 24.203125 37.890625 
C 33 37.890625 33.296875 31.953125 33.296875 28.53125 
L 33.296875 0 
L 40.90625 0 
z
" id="CMSS17-110"/>
      <path d="M 38.5 39.6875 
C 38.5 40.390625 33.90625 42.390625 32.703125 42.796875 
C 29.40625 44 25.203125 44 24.09375 44 
C 11.09375 44 3.296875 32.6875 3.296875 21.296875 
C 3.296875 9.296875 12 -1 23.703125 -1 
C 30.40625 -1 35.203125 1.1875 39.09375 3.796875 
L 38.5 10.390625 
C 34.203125 7.09375 29.203125 5.296875 23.796875 5.296875 
C 16 5.296875 10.90625 12.09375 10.90625 21.390625 
C 10.90625 28.59375 14.203125 37.6875 24.203125 37.6875 
C 29.703125 37.6875 32.796875 36.59375 37.40625 33.484375 
z
" id="CMSS17-99"/>
      <path d="M 37.59375 27.953125 
C 37.59375 37.484375 30.90625 44 21.90625 44 
C 17.5 44 12.703125 43.1875 7.203125 39.984375 
L 7.796875 33.328125 
C 10.296875 35.15625 14.59375 38.09375 21.796875 38.09375 
C 26.90625 38.09375 30 34.140625 30 27.84375 
L 30 24 
C 14 23.5 4 18.890625 4 11.109375 
C 4 7.0625 6.5 -1 14.796875 -1 
C 16.296875 -1 24.40625 -0.8125 30.203125 3.5 
L 30.203125 -0.203125 
L 37.59375 -0.203125 
z
M 30 12.875 
C 30 11.109375 30 8.734375 27 6.96875 
C 24.40625 5.296875 21.09375 5.09375 19.703125 5.09375 
C 14.703125 5.09375 11.296875 7.859375 11.296875 11.296875 
C 11.296875 18.203125 26.90625 18.890625 30 19 
z
" id="CMSS17-97"/>
      <path d="M 8.90625 69 
L 8.90625 0 
L 33.796875 0 
C 47.40625 0 57.296875 8.984375 57.296875 18.75 
C 57.296875 26.3125 50.796875 33.984375 39.09375 36.1875 
C 52.09375 39.984375 54.703125 47.484375 54.703125 51.734375 
C 54.703125 60.625 44.90625 69 31.203125 69 
z
M 17 39 
L 17 63.390625 
L 28.5 63.390625 
C 38.796875 63.390625 46.90625 58.15625 46.90625 51.640625 
C 46.90625 45.703125 40.5 39 27.59375 39 
z
M 17 5.59375 
L 17 32.890625 
L 30.296875 32.890625 
C 41.09375 32.890625 49.40625 26.21875 49.40625 18.84375 
C 49.40625 12.0625 42.09375 5.59375 31 5.59375 
z
" id="CMSS17-66"/>
      <path d="M 26.09375 6.5 
C 24.90625 6.5 23.703125 6.390625 22.5 6.390625 
L 17.203125 6.390625 
L 17.203125 69 
L 8.796875 69 
L 8.796875 0 
L 46.90625 0 
L 46.90625 6.5 
z
" id="CMSS17-76"/>
     </defs>
     <g transform="translate(35.436997 303.217088)rotate(-90)scale(0.2 -0.2)">
      <use transform="scale(0.996264)" xlink:href="#CMSS17-80"/>
      <use transform="translate(59.735586 0)scale(0.996264)" xlink:href="#CMSS17-114"/>
      <use transform="translate(91.645359 0)scale(0.996264)" xlink:href="#CMSS17-111"/>
      <use transform="translate(138.488982 0)scale(0.996264)" xlink:href="#CMSS17-116"/>
      <use transform="translate(172.320549 0)scale(0.996264)" xlink:href="#CMSS17-101"/>
      <use transform="translate(213.959371 0)scale(0.996264)" xlink:href="#CMSS17-105"/>
      <use transform="translate(236.140094 0)scale(0.996264)" xlink:href="#CMSS17-110"/>
      <use transform="translate(315.57415 0)scale(0.996264)" xlink:href="#CMSS17-99"/>
      <use transform="translate(357.212972 0)scale(0.996264)" xlink:href="#CMSS17-111"/>
      <use transform="translate(404.056596 0)scale(0.996264)" xlink:href="#CMSS17-110"/>
      <use transform="translate(452.261539 0)scale(0.996264)" xlink:href="#CMSS17-99"/>
      <use transform="translate(493.900361 0)scale(0.996264)" xlink:href="#CMSS17-101"/>
      <use transform="translate(535.539183 0)scale(0.996264)" xlink:href="#CMSS17-110"/>
      <use transform="translate(583.744126 0)scale(0.996264)" xlink:href="#CMSS17-116"/>
      <use transform="translate(617.575693 0)scale(0.996264)" xlink:href="#CMSS17-114"/>
      <use transform="translate(649.485465 0)scale(0.996264)" xlink:href="#CMSS17-97"/>
      <use transform="translate(694.407386 0)scale(0.996264)" xlink:href="#CMSS17-116"/>
      <use transform="translate(728.238953 0)scale(0.996264)" xlink:href="#CMSS17-105"/>
      <use transform="translate(750.419676 0)scale(0.996264)" xlink:href="#CMSS17-111"/>
      <use transform="translate(797.263299 0)scale(0.996264)" xlink:href="#CMSS17-110"/>
      <use transform="translate(876.697355 0)scale(0.996264)" xlink:href="#CMSS17-97"/>
      <use transform="translate(921.619276 0)scale(0.996264)" xlink:href="#CMSS17-116"/>
      <use transform="translate(986.679955 0)scale(0.996264)" xlink:href="#CMSS17-66"/>
      <use transform="translate(1049.017995 0)scale(0.996264)" xlink:href="#CMSS17-76"/>
     </g>
    </g>
   </g>
   <g id="line2d_10">
    <path clip-path="url(#p1558cb4c9b)" d="M 101.495617 330.507127 
L 101.555418 329.699745 
L 101.957735 324.579324 
L 104.664322 299.21166 
L 122.872881 234.630494 
L 209.165254 199.782375 
L 313.577009 198.84908 
L 417.988764 198.833636 
L 433 198.833598 
" style="fill:none;stroke:#cecece;stroke-linecap:square;stroke-width:5;"/>
   </g>
   <g id="line2d_11">
    <path clip-path="url(#p1558cb4c9b)" d="M 101.495617 330.506554 
L 101.598302 329.066264 
L 102.710874 315.551689 
L 114.548686 250.353979 
L 140.651624 203.057458 
L 166.754563 177.530468 
L 192.857502 158.911694 
L 218.960441 147.343588 
L 245.063379 140.658273 
L 271.166318 136.866222 
L 297.269257 134.709636 
L 323.372196 133.466402 
L 349.475134 132.734756 
L 375.578073 132.292716 
L 401.681012 132.017244 
L 427.783951 131.839507 
L 433 131.815734 
" style="fill:none;stroke:#6c6c6c;stroke-linecap:square;stroke-width:5;"/>
   </g>
   <g id="line2d_12">
    <path clip-path="url(#p1558cb4c9b)" d="M 101.495617 330.505818 
L 101.598302 328.98568 
L 102.710874 314.603359 
L 114.548686 240.450405 
L 137.916548 177.578436 
L 163.639492 129.085012 
L 189.74243 99.530202 
L 215.845369 82.637204 
L 241.948308 73.006423 
L 268.051247 67.477592 
L 294.154185 64.274777 
L 320.257124 62.403318 
L 346.360063 61.301676 
L 372.463002 60.649191 
L 398.56594 60.260908 
L 424.668879 60.028904 
L 433 59.984548 
" style="fill:none;stroke:#000000;stroke-linecap:square;stroke-width:5;"/>
   </g>
   <g id="patch_3">
    <path d="M 99.146352 357.974739 
L 99.146352 28.518498 
" style="fill:none;stroke:#000000;stroke-linecap:square;stroke-linejoin:miter;stroke-width:0.8;"/>
   </g>
   <g id="patch_4">
    <path d="M 406.9 357.974739 
L 406.9 28.518498 
" style="fill:none;stroke:#000000;stroke-linecap:square;stroke-linejoin:miter;stroke-width:0.8;"/>
   </g>
   <g id="patch_5">
    <path d="M 99.146352 357.974739 
L 406.9 357.974739 
" style="fill:none;stroke:#000000;stroke-linecap:square;stroke-linejoin:miter;stroke-width:0.8;"/>
   </g>
   <g id="patch_6">
    <path d="M 99.146352 28.518498 
L 406.9 28.518498 
" style="fill:none;stroke:#000000;stroke-linecap:square;stroke-linejoin:miter;stroke-width:0.8;"/>
   </g>
   <g id="legend_1">
    <g id="patch_7">
     <path d="M 203.126837 347.974739 
L 392.9 347.974739 
Q 396.9 347.974739 396.9 343.974739 
L 396.9 255.226948 
Q 396.9 251.226948 392.9 251.226948 
L 203.126837 251.226948 
Q 199.126837 251.226948 199.126837 255.226948 
L 199.126837 343.974739 
Q 199.126837 347.974739 203.126837 347.974739 
z
" style="fill:#ffffff;opacity:0.8;stroke:#cccccc;stroke-linejoin:miter;"/>
    </g>
    <g id="line2d_13">
     <path d="M 207.126837 266.226948 
L 247.126837 266.226948 
" style="fill:none;stroke:#cecece;stroke-linecap:square;stroke-width:5;"/>
    </g>
    <g id="line2d_14"/>
    <g id="text_12">
     <!-- without lncRNA -->
     <defs>
      <path d="M 62.703125 43 
L 55.09375 43 
L 49.796875 25 
C 48.703125 21.1875 45.59375 10.6875 45.203125 5.796875 
L 45.09375 5.796875 
C 44.90625 8.796875 43.203125 16 40.40625 25.5 
L 35.296875 43 
L 28.40625 43 
L 23.40625 25.890625 
C 20.90625 17.1875 19 9.796875 18.796875 5.796875 
L 18.703125 5.796875 
C 18.296875 11.6875 14.203125 25.5 13.59375 27.6875 
L 9.09375 43 
L 1.296875 43 
L 14.296875 0 
L 21.90625 0 
C 27.09375 17.1875 31.09375 30.5 31.40625 37.1875 
C 31.59375 33.890625 33.296875 26.796875 34.296875 23.296875 
L 40.90625 0 
L 49.703125 0 
z
" id="CMSS17-119"/>
      <path d="M 40.90625 29.34375 
C 40.90625 35.671875 39.40625 44 28.09375 44 
C 21.796875 44 17.703125 40.890625 14.796875 37.484375 
L 14.796875 69 
L 7.40625 69 
L 7.40625 0 
L 15 0 
L 15 24.3125 
C 15 30.65625 17.40625 37.890625 24.203125 37.890625 
C 33 37.890625 33.296875 31.953125 33.296875 28.53125 
L 33.296875 0 
L 40.90625 0 
z
" id="CMSS17-104"/>
      <path d="M 40.90625 43 
L 33.296875 43 
L 33.296875 15.25 
C 33.296875 7.8125 27.90625 4.796875 22.203125 4.796875 
C 15.59375 4.796875 15 7 15 11.125 
L 15 43 
L 7.40625 43 
L 7.40625 10.625 
C 7.40625 2.796875 10.09375 -1 17 -1 
C 20.40625 -1 28.09375 -0.203125 33.5 4.796875 
L 33.5 -0.203125 
L 40.90625 -0.203125 
z
" id="CMSS17-117"/>
      <path d="M 14.796875 69 
L 7.40625 69 
L 7.40625 0 
L 14.796875 0 
z
" id="CMSS17-108"/>
      <path d="M 39.40625 32.796875 
L 39.59375 32.890625 
C 55.203125 38.28125 55.296875 48.828125 55.296875 50.6875 
C 55.296875 59.96875 45.703125 69 31.296875 69 
L 8.90625 69 
L 8.90625 0 
L 17.09375 0 
L 17.09375 31.890625 
L 31.796875 31.890625 
L 49.5 0 
L 57.90625 0 
z
M 17.09375 38 
L 17.09375 63.390625 
L 30.203125 63.390625 
C 42.90625 63.390625 47.40625 56.359375 47.40625 50.6875 
C 47.40625 45.421875 43.40625 38 30.203125 38 
z
" id="CMSS17-82"/>
      <path d="M 22.90625 65.296875 
L 21.09375 69 
L 8.796875 69 
L 8.796875 0 
L 16.59375 0 
L 16.59375 61.328125 
L 16.703125 61.421875 
C 17.40625 59.640625 17.796875 58.734375 21.90625 49.890625 
L 43.296875 3.6875 
L 45.09375 0 
L 57.40625 0 
L 57.40625 69 
L 49.59375 69 
L 49.59375 7.65625 
L 49.5 7.5625 
C 48.796875 9.34375 48.40625 10.234375 44.296875 19.09375 
z
" id="CMSS17-78"/>
      <path d="M 35.5 69 
L 26.90625 69 
L 2.59375 0 
L 10.203125 0 
L 17.203125 20 
L 44 20 
L 51.09375 0 
L 59.796875 0 
z
M 42.09375 25.59375 
L 19.09375 25.59375 
C 23.90625 39.53125 29.90625 56.84375 30.59375 61.3125 
L 30.703125 61.3125 
C 31.40625 57.234375 33.40625 51.265625 35.09375 46.1875 
z
" id="CMSS17-65"/>
     </defs>
     <g transform="translate(263.126837 273.226948)scale(0.2 -0.2)">
      <use transform="scale(0.996264)" xlink:href="#CMSS17-119"/>
      <use transform="translate(63.819545 0)scale(0.996264)" xlink:href="#CMSS17-105"/>
      <use transform="translate(86.000268 0)scale(0.996264)" xlink:href="#CMSS17-116"/>
      <use transform="translate(119.831835 0)scale(0.996264)" xlink:href="#CMSS17-104"/>
      <use transform="translate(168.036778 0)scale(0.996264)" xlink:href="#CMSS17-111"/>
      <use transform="translate(214.880401 0)scale(0.996264)" xlink:href="#CMSS17-117"/>
      <use transform="translate(263.085345 0)scale(0.996264)" xlink:href="#CMSS17-116"/>
      <use transform="translate(328.146024 0)scale(0.996264)" xlink:href="#CMSS17-108"/>
      <use transform="translate(350.326747 0)scale(0.996264)" xlink:href="#CMSS17-110"/>
      <use transform="translate(398.53169 0)scale(0.996264)" xlink:href="#CMSS17-99"/>
      <use transform="translate(440.170512 0)scale(0.996264)" xlink:href="#CMSS17-82"/>
      <use transform="translate(500.586667 0)scale(0.996264)" xlink:href="#CMSS17-78"/>
      <use transform="translate(566.648186 0)scale(0.996264)" xlink:href="#CMSS17-65"/>
     </g>
    </g>
    <g id="line2d_15">
     <path d="M 207.126837 297.663027 
L 247.126837 297.663027 
" style="fill:none;stroke:#6c6c6c;stroke-linecap:square;stroke-width:5;"/>
    </g>
    <g id="line2d_16"/>
    <g id="text_13">
     <!-- $\phi^{avg}_R=0.001$ -->
     <defs>
      <path d="M 43 68.09375 
C 43 69 42.296875 69 42 69 
C 41.09375 69 41 68.796875 40.59375 67.09375 
L 35.203125 45.6875 
C 34.90625 44.390625 34.796875 44.296875 34.703125 44.1875 
C 34.59375 44 33.90625 43.890625 33.703125 43.890625 
C 17.296875 42.5 4.703125 29.109375 4.703125 16.734375 
C 4.703125 6.046875 13 -0.5 23.40625 -1.109375 
C 22.59375 -4.15625 21.90625 -7.296875 21.09375 -10.34375 
C 19.703125 -15.546875 18.90625 -18.8125 18.90625 -19.203125 
C 18.90625 -19.40625 18.90625 -20 19.90625 -20 
C 20.203125 -20 20.59375 -20 20.796875 -19.609375 
C 21 -19.40625 21.59375 -17.015625 22 -15.75 
L 25.703125 -1.109375 
C 42.796875 -0.203125 55.796875 13.671875 55.796875 26.140625 
C 55.796875 36.140625 48.203125 43.296875 37.09375 44 
z
M 36.5 42 
C 43.09375 41.59375 49.703125 37.9375 49.703125 28.21875 
C 49.703125 17.03125 41.796875 2.1875 26.203125 1 
z
M 23.90625 0.890625 
C 19 1.1875 10.796875 3.765625 10.796875 14.65625 
C 10.796875 27.140625 19.90625 41 34.296875 41.890625 
z
" id="CMMI12-30"/>
      <path d="M 30.09375 11.859375 
C 29.59375 10.171875 29.59375 9.96875 28.203125 8.078125 
C 26 5.28125 21.59375 1 16.90625 1 
C 12.796875 1 10.5 4.6875 10.5 10.5625 
C 10.5 16.0625 13.59375 27.234375 15.5 31.421875 
C 18.90625 38.40625 23.59375 41.984375 27.5 41.984375 
C 34.09375 41.984375 35.40625 33.8125 35.40625 33.015625 
C 35.40625 32.921875 35.09375 31.625 35 31.421875 
z
M 36.5 37.40625 
C 35.40625 40 32.703125 44 27.5 44 
C 16.203125 44 4 29.421875 4 14.65625 
C 4 4.78125 9.796875 -1 16.59375 -1 
C 22.09375 -1 26.796875 3.28125 29.59375 6.578125 
C 30.59375 0.6875 35.296875 -1 38.296875 -1 
C 41.296875 -1 43.703125 0.796875 45.5 4.375 
C 47.09375 7.75 48.5 13.828125 48.5 14.21875 
C 48.5 14.71875 48.09375 15.125 47.5 15.125 
C 46.59375 15.125 46.5 14.625 46.09375 13.125 
C 44.59375 7.265625 42.703125 1 38.59375 1 
C 35.703125 1 35.5 3.578125 35.5 5.5625 
C 35.5 7.859375 35.796875 8.953125 36.703125 12.828125 
C 37.40625 15.3125 37.90625 17.5 38.703125 20.390625 
C 42.40625 35.3125 43.296875 38.890625 43.296875 39.5 
C 43.296875 40.890625 42.203125 42 40.703125 42 
C 37.5 42 36.703125 38.5 36.5 37.3125 
z
" id="CMMI12-97"/>
      <path d="M 45.703125 37.3125 
C 45.703125 43.59375 42.5 44 41.703125 44 
C 39.296875 44 37.09375 41.59375 37.09375 39.59375 
C 37.09375 38.40625 37.796875 37.703125 38.203125 37.3125 
C 39.203125 36.40625 41.796875 33.71875 41.796875 28.53125 
C 41.796875 24.34375 35.796875 1 23.796875 1 
C 17.703125 1 16.5 6.078125 16.5 9.765625 
C 16.5 14.765625 18.796875 21.75 21.5 28.921875 
C 23.09375 33.015625 23.5 34.015625 23.5 36.015625 
C 23.5 40.203125 20.5 44 15.59375 44 
C 6.40625 44 2.703125 29.53125 2.703125 28.71875 
C 2.703125 28.328125 3.09375 27.828125 3.796875 27.828125 
C 4.703125 27.828125 4.796875 28.234375 5.203125 29.625 
C 7.59375 38.203125 11.5 41.984375 15.296875 41.984375 
C 16.203125 41.984375 17.90625 41.984375 17.90625 38.703125 
C 17.90625 36.109375 16.796875 33.21875 15.296875 29.421875 
C 10.5 16.65625 10.5 13.5625 10.5 11.171875 
C 10.5 8.96875 10.796875 4.890625 13.90625 2.09375 
C 17.5 -1 22.5 -1 23.40625 -1 
C 40 -1 45.703125 31.625 45.703125 37.3125 
z
" id="CMMI12-118"/>
      <path d="M 33.796875 12.671875 
C 33.40625 11.0625 33.203125 10.671875 31.90625 9.171875 
C 27.796875 3.890625 23.59375 2 20.5 2 
C 17.203125 2 14.09375 4.578125 14.09375 11.46875 
C 14.09375 16.75 17.09375 27.921875 19.296875 32.421875 
C 22.203125 38 26.703125 41.984375 30.90625 41.984375 
C 37.5 41.984375 38.796875 33.8125 38.796875 33.21875 
L 38.5 31.8125 
z
M 40 37.40625 
C 38.703125 40.296875 35.90625 44 30.90625 44 
C 20 44 7.59375 30.328125 7.59375 15.453125 
C 7.59375 5.078125 13.90625 0 20.296875 0 
C 25.59375 0 30.296875 4.1875 32.09375 6.1875 
L 29.90625 -2.75 
C 28.5 -8.125 27.90625 -10.578125 24.296875 -14 
C 20.203125 -18 16.40625 -18 14.203125 -18 
C 11.203125 -18 8.703125 -17.8125 6.203125 -17.03125 
C 9.40625 -16.15625 10.203125 -13.40625 10.203125 -12.328125 
C 10.203125 -10.765625 9 -9.203125 6.796875 -9.203125 
C 4.40625 -9.203125 1.796875 -11.15625 1.796875 -14.390625 
C 1.796875 -18.40625 5.90625 -20 14.40625 -20 
C 27.296875 -20 34 -11.84375 35.296875 -6.5625 
L 46.40625 37.90625 
C 46.703125 39.09375 46.703125 39.296875 46.703125 39.5 
C 46.703125 40.890625 45.59375 42 44.09375 42 
C 41.703125 42 40.296875 40 40 37.3125 
z
" id="CMMI12-103"/>
      <path d="M 36.796875 61.203125 
C 37.703125 64.890625 38.09375 65.09375 42 65.09375 
L 49.203125 65.09375 
C 57.796875 65.09375 64.203125 62.5 64.203125 54.734375 
C 64.203125 49.640625 61.59375 35 41.5 35 
L 30.203125 35 
z
M 50.703125 33.796875 
C 63.09375 36.484375 72.796875 44.46875 72.796875 53.03125 
C 72.796875 60.8125 64.90625 68 51 68 
L 23.90625 68 
C 21.90625 68 21 68 21 66.09375 
C 21 65.09375 21.703125 65.09375 23.59375 65.09375 
C 29.59375 65.09375 29.59375 64.296875 29.59375 63.203125 
C 29.59375 63 29.59375 62.40625 29.203125 60.90625 
L 15.703125 7.421875 
C 14.796875 3.953125 14.59375 2.96875 7.703125 2.96875 
C 5.40625 2.96875 4.703125 2.96875 4.703125 1.078125 
C 4.703125 0.09375 5.796875 0.09375 6.09375 0.09375 
C 7.90625 0.09375 10 0.296875 11.90625 0.296875 
L 23.703125 0.296875 
C 25.5 0.296875 27.59375 0.09375 29.40625 0.09375 
C 30.203125 0.09375 31.296875 0.09375 31.296875 1.96875 
C 31.296875 2.96875 30.40625 2.96875 28.90625 2.96875 
C 22.796875 2.96875 22.796875 3.765625 22.796875 4.75 
C 22.796875 4.84375 22.796875 5.546875 23 6.328125 
L 29.703125 33 
L 41.703125 33 
C 51.203125 33 53 27.046875 53 23.78125 
C 53 22.28125 52 18.421875 51.296875 15.84375 
C 50.203125 11.296875 49.90625 10.203125 49.90625 8.3125 
C 49.90625 1.28125 55.703125 -2 62.40625 -2 
C 70.5 -2 74 7.828125 74 9.203125 
C 74 9.90625 73.5 10.203125 72.90625 10.203125 
C 72.09375 10.203125 71.90625 9.609375 71.703125 8.8125 
C 69.296875 1.78125 65.203125 0 62.703125 0 
C 60.203125 0 58.59375 1.078125 58.59375 5.546875 
C 58.59375 7.921875 59.796875 16.9375 59.90625 17.4375 
C 60.40625 21.09375 60.40625 21.5 60.40625 22.28125 
C 60.40625 29.515625 54.5 32.59375 50.703125 33.796875 
z
" id="CMMI12-82"/>
      <path d="M 64.296875 32 
C 65.796875 32 67.296875 32 67.296875 33.6875 
C 67.296875 35.5 65.59375 35.5 63.90625 35.5 
L 8 35.5 
C 6.296875 35.5 4.59375 35.5 4.59375 33.6875 
C 4.59375 32 6.09375 32 7.59375 32 
z
M 63.90625 14.484375 
C 65.59375 14.484375 67.296875 14.484375 67.296875 16.296875 
C 67.296875 18 65.796875 18 64.296875 18 
L 7.59375 18 
C 6.09375 18 4.59375 18 4.59375 16.296875 
C 4.59375 14.484375 6.296875 14.484375 8 14.484375 
z
" id="CMR17-61"/>
     </defs>
     <g transform="translate(263.126837 304.663027)scale(0.2 -0.2)">
      <use transform="translate(0 29.278481)scale(0.996264)" xlink:href="#CMMI12-30"/>
      <use transform="translate(57.73418 77.154351)scale(0.697382)" xlink:href="#CMMI12-97"/>
      <use transform="translate(93.579527 77.154351)scale(0.697382)" xlink:href="#CMMI12-118"/>
      <use transform="translate(129.093977 77.154351)scale(0.697382)" xlink:href="#CMMI12-103"/>
      <use transform="translate(57.73418 0)scale(0.697382)" xlink:href="#CMMI12-82"/>
      <use transform="translate(192.465799 29.278481)scale(0.996264)" xlink:href="#CMR17-61"/>
      <use transform="translate(291.854596 29.278481)scale(0.996264)" xlink:href="#CMR17-48"/>
      <use transform="translate(337.545073 29.278481)scale(0.996264)" xlink:href="#CMMI12-58"/>
      <use transform="translate(364.64225 29.278481)scale(0.996264)" xlink:href="#CMR17-48"/>
      <use transform="translate(410.332727 29.278481)scale(0.996264)" xlink:href="#CMR17-48"/>
      <use transform="translate(456.023205 29.278481)scale(0.996264)" xlink:href="#CMR17-49"/>
     </g>
    </g>
    <g id="line2d_17">
     <path d="M 207.126837 329.099106 
L 247.126837 329.099106 
" style="fill:none;stroke:#000000;stroke-linecap:square;stroke-width:5;"/>
    </g>
    <g id="line2d_18"/>
    <g id="text_14">
     <!-- $\phi^{avg}_R=0.01$ -->
     <g transform="translate(263.126837 336.099106)scale(0.2 -0.2)">
      <use transform="translate(0 29.278481)scale(0.996264)" xlink:href="#CMMI12-30"/>
      <use transform="translate(57.73418 77.154351)scale(0.697382)" xlink:href="#CMMI12-97"/>
      <use transform="translate(93.579527 77.154351)scale(0.697382)" xlink:href="#CMMI12-118"/>
      <use transform="translate(129.093977 77.154351)scale(0.697382)" xlink:href="#CMMI12-103"/>
      <use transform="translate(57.73418 0)scale(0.697382)" xlink:href="#CMMI12-82"/>
      <use transform="translate(192.465799 29.278481)scale(0.996264)" xlink:href="#CMR17-61"/>
      <use transform="translate(291.854596 29.278481)scale(0.996264)" xlink:href="#CMR17-48"/>
      <use transform="translate(337.545073 29.278481)scale(0.996264)" xlink:href="#CMMI12-58"/>
      <use transform="translate(364.64225 29.278481)scale(0.996264)" xlink:href="#CMR17-48"/>
      <use transform="translate(410.332727 29.278481)scale(0.996264)" xlink:href="#CMR17-49"/>
     </g>
    </g>
   </g>
  </g>
 </g>
 <defs>
  <clipPath id="p1558cb4c9b">
   <rect height="329.456241" width="307.753648" x="99.146352" y="28.518498"/>
  </clipPath>
 </defs>
</svg>
