<?xml version="1.0" encoding="utf-8" standalone="no"?>
<!DOCTYPE svg PUBLIC "-//W3C//DTD SVG 1.1//EN"
  "http://www.w3.org/Graphics/SVG/1.1/DTD/svg11.dtd">
<!-- Created with matplotlib (http://matplotlib.org/) -->
<svg height="360pt" version="1.1" viewBox="0 0 288 360" width="288pt" xmlns="http://www.w3.org/2000/svg" xmlns:xlink="http://www.w3.org/1999/xlink">
 <defs>
  <style type="text/css">
*{stroke-linecap:butt;stroke-linejoin:round;}
  </style>
 </defs>
 <g id="figure_1">
  <g id="patch_1">
   <path d="M 0 360 
L 288 360 
L 288 0 
L 0 0 
z
" style="fill:#ffffff;"/>
  </g>
  <g id="axes_1">
   <g id="patch_2">
    <path d="M 36 315 
L 259.2 315 
L 259.2 43.2 
L 36 43.2 
z
" style="fill:#ffffff;"/>
   </g>
   <g id="patch_3">
    <path clip-path="url(#p5037fa1b8f)" d="M 46.145455 315 
L 84.533661 315 
L 84.533661 56.142857 
L 46.145455 56.142857 
z
" style="fill:#808080;"/>
   </g>
   <g id="patch_4">
    <path clip-path="url(#p5037fa1b8f)" d="M 100.985749 315 
L 139.373956 315 
L 139.373956 117.049981 
L 100.985749 117.049981 
z
" style="fill:#808080;"/>
   </g>
   <g id="patch_5">
    <path clip-path="url(#p5037fa1b8f)" d="M 155.826044 315 
L 194.214251 315 
L 194.214251 143.959894 
L 155.826044 143.959894 
z
" style="fill:#808080;"/>
   </g>
   <g id="patch_6">
    <path clip-path="url(#p5037fa1b8f)" d="M 210.666339 315 
L 249.054545 315 
L 249.054545 174.223836 
L 210.666339 174.223836 
z
" style="fill:#808080;"/>
   </g>
   <g id="matplotlib.axis_1">
    <g id="xtick_1">
     <g id="line2d_1">
      <defs>
       <path d="M 0 0 
L 0 3.5 
" id="mdf344b30ac" style="stroke:#000000;stroke-width:0.8;"/>
      </defs>
      <g>
       <use style="stroke:#000000;stroke-width:0.8;" x="65.339558" xlink:href="#mdf344b30ac" y="315"/>
      </g>
     </g>
     <g id="text_1">
      <!-- 0.001 -->
      <defs>
       <path d="M 25.40625 68 
C 19.90625 68 15.703125 66.296875 12 62.796875 
C 6.203125 57.203125 2.40625 45.6875 2.40625 34 
C 2.40625 23.09375 5.703125 11.390625 10.40625 5.796875 
C 14.09375 1.390625 19.203125 -1 25 -1 
C 30.09375 -1 34.40625 0.6875 38 4.1875 
C 43.796875 9.6875 47.59375 21.296875 47.59375 33.390625 
C 47.59375 53.890625 38.5 68 25.40625 68 
z
M 25.09375 65.390625 
C 33.5 65.390625 38 54.09375 38 33.1875 
C 38 12.296875 33.59375 1.59375 25 1.59375 
C 16.40625 1.59375 12 12.296875 12 33.09375 
C 12 54.296875 16.5 65.390625 25.09375 65.390625 
z
" id="Nimbus_Roman_No9_L_Regular-48"/>
       <path d="M 12.5 10.09375 
C 9.5 10.09375 7 7.5 7 4.390625 
C 7 1.5 9.5 -1 12.40625 -1 
C 15.5 -1 18.09375 1.5 18.09375 4.390625 
C 18.09375 7.5 15.5 10.09375 12.5 10.09375 
z
" id="Nimbus_Roman_No9_L_Regular-46"/>
       <path d="M 29.09375 68 
L 11.09375 59 
L 11.09375 57.59375 
C 12.296875 58.09375 13.40625 58.484375 13.796875 58.6875 
C 15.59375 59.390625 17.296875 59.78125 18.296875 59.78125 
C 20.40625 59.78125 21.296875 58.296875 21.296875 55.078125 
L 21.296875 9.359375 
C 21.296875 6.03125 20.5 3.71875 18.90625 2.796875 
C 17.40625 1.890625 16 1.59375 11.796875 1.5 
L 11.796875 0 
L 39.40625 0 
L 39.40625 1.5 
C 31.5 1.59375 29.90625 2.609375 29.90625 7.453125 
L 29.90625 67.796875 
z
" id="Nimbus_Roman_No9_L_Regular-49"/>
      </defs>
      <g transform="translate(42.923618 335.509155)scale(0.2 -0.2)">
       <use transform="scale(0.996264)" xlink:href="#Nimbus_Roman_No9_L_Regular-48"/>
       <use transform="translate(49.8132 0)scale(0.996264)" xlink:href="#Nimbus_Roman_No9_L_Regular-46"/>
       <use transform="translate(74.719801 0)scale(0.996264)" xlink:href="#Nimbus_Roman_No9_L_Regular-48"/>
       <use transform="translate(124.533001 0)scale(0.996264)" xlink:href="#Nimbus_Roman_No9_L_Regular-48"/>
       <use transform="translate(174.346202 0)scale(0.996264)" xlink:href="#Nimbus_Roman_No9_L_Regular-49"/>
      </g>
     </g>
    </g>
    <g id="xtick_2">
     <g id="line2d_2">
      <g>
       <use style="stroke:#000000;stroke-width:0.8;" x="120.179853" xlink:href="#mdf344b30ac" y="315"/>
      </g>
     </g>
     <g id="text_2">
      <!-- 0.002 -->
      <defs>
       <path d="M 47.5 13.734375 
L 46.203125 14.25 
C 42.5 8.5 41.203125 7.59375 36.703125 7.59375 
L 12.796875 7.59375 
L 29.59375 25.328125 
C 38.5 34.703125 42.40625 42.359375 42.40625 50.21875 
C 42.40625 60.28125 34.296875 68 23.90625 68 
C 18.40625 68 13.203125 65.796875 9.5 61.796875 
C 6.296875 58.375 4.796875 55.15625 3.09375 48 
L 5.203125 47.484375 
C 9.203125 57.359375 12.796875 60.59375 19.703125 60.59375 
C 28.09375 60.59375 33.796875 54.84375 33.796875 46.390625 
C 33.796875 38.53125 29.203125 29.15625 20.796875 20.1875 
L 3 1.1875 
L 3 0 
L 42 0 
z
" id="Nimbus_Roman_No9_L_Regular-50"/>
      </defs>
      <g transform="translate(97.763912 335.509155)scale(0.2 -0.2)">
       <use transform="scale(0.996264)" xlink:href="#Nimbus_Roman_No9_L_Regular-48"/>
       <use transform="translate(49.8132 0)scale(0.996264)" xlink:href="#Nimbus_Roman_No9_L_Regular-46"/>
       <use transform="translate(74.719801 0)scale(0.996264)" xlink:href="#Nimbus_Roman_No9_L_Regular-48"/>
       <use transform="translate(124.533001 0)scale(0.996264)" xlink:href="#Nimbus_Roman_No9_L_Regular-48"/>
       <use transform="translate(174.346202 0)scale(0.996264)" xlink:href="#Nimbus_Roman_No9_L_Regular-50"/>
      </g>
     </g>
    </g>
    <g id="xtick_3">
     <g id="line2d_3">
      <g>
       <use style="stroke:#000000;stroke-width:0.8;" x="175.020147" xlink:href="#mdf344b30ac" y="315"/>
      </g>
     </g>
     <g id="text_3">
      <!-- 0.005 -->
      <defs>
       <path d="M 18.09375 58.09375 
L 37.703125 58.09375 
C 39.296875 58.09375 39.703125 58.296875 40 58.984375 
L 43.796875 67.890625 
L 42.90625 68.59375 
C 41.40625 66.5 40.40625 66 38.296875 66 
L 17.40625 66 
L 6.5 42.453125 
C 6.40625 42.265625 6.40625 42.15625 6.40625 41.96875 
C 6.40625 41.46875 6.796875 41.171875 7.59375 41.171875 
C 10.796875 41.171875 14.796875 40.484375 18.90625 39.1875 
C 30.40625 35.53125 35.703125 29.40625 35.703125 19.609375 
C 35.703125 10.109375 29.59375 2.6875 21.796875 2.6875 
C 19.796875 2.6875 18.09375 3.390625 15.09375 5.5625 
C 11.90625 7.84375 9.59375 8.828125 7.5 8.828125 
C 4.59375 8.828125 3.203125 7.640625 3.203125 5.171875 
C 3.203125 1.390625 7.90625 -1 15.40625 -1 
C 23.796875 -1 31 1.6875 36 6.75 
C 40.59375 11.203125 42.703125 16.84375 42.703125 24.359375 
C 42.703125 31.484375 40.796875 36.03125 35.796875 40.96875 
C 31.40625 45.328125 25.703125 47.609375 13.90625 49.6875 
z
" id="Nimbus_Roman_No9_L_Regular-53"/>
      </defs>
      <g transform="translate(152.604207 335.509155)scale(0.2 -0.2)">
       <use transform="scale(0.996264)" xlink:href="#Nimbus_Roman_No9_L_Regular-48"/>
       <use transform="translate(49.8132 0)scale(0.996264)" xlink:href="#Nimbus_Roman_No9_L_Regular-46"/>
       <use transform="translate(74.719801 0)scale(0.996264)" xlink:href="#Nimbus_Roman_No9_L_Regular-48"/>
       <use transform="translate(124.533001 0)scale(0.996264)" xlink:href="#Nimbus_Roman_No9_L_Regular-48"/>
       <use transform="translate(174.346202 0)scale(0.996264)" xlink:href="#Nimbus_Roman_No9_L_Regular-53"/>
      </g>
     </g>
    </g>
    <g id="xtick_4">
     <g id="line2d_4">
      <g>
       <use style="stroke:#000000;stroke-width:0.8;" x="229.860442" xlink:href="#mdf344b30ac" y="315"/>
      </g>
     </g>
     <g id="text_4">
      <!-- 0.01 -->
      <g transform="translate(212.425822 335.509155)scale(0.2 -0.2)">
       <use transform="scale(0.996264)" xlink:href="#Nimbus_Roman_No9_L_Regular-48"/>
       <use transform="translate(49.8132 0)scale(0.996264)" xlink:href="#Nimbus_Roman_No9_L_Regular-46"/>
       <use transform="translate(74.719801 0)scale(0.996264)" xlink:href="#Nimbus_Roman_No9_L_Regular-48"/>
       <use transform="translate(124.533001 0)scale(0.996264)" xlink:href="#Nimbus_Roman_No9_L_Regular-49"/>
      </g>
     </g>
    </g>
    <g id="text_5">
     <!-- RNA volume fraction $\phi^{avg}_R$ -->
     <defs>
      <path d="M 65.90625 1.890625 
C 62.09375 2.1875 60.09375 3.1875 57.203125 6.578125 
L 36.59375 31.796875 
C 43.296875 33.09375 46.296875 34.28125 49.59375 36.96875 
C 52.796875 39.5625 54.703125 43.75 54.703125 48.4375 
C 54.703125 52.71875 53.40625 56.40625 50.796875 59.296875 
C 47 63.390625 38.703125 66 29.296875 66 
L 1.703125 66 
L 1.703125 64.09375 
C 9.203125 63.296875 10.203125 62.203125 10.203125 55.125 
L 10.203125 11.953125 
C 10.203125 3.6875 9.203125 2.484375 1.703125 1.890625 
L 1.703125 0 
L 29.40625 0 
L 29.40625 1.890625 
C 21.703125 2.390625 20.40625 3.6875 20.40625 10.859375 
L 20.40625 30.5 
L 26 30.703125 
L 49.796875 0 
L 65.90625 0 
z
M 20.40625 58.6875 
C 20.40625 61.484375 21.5 62.296875 25.5 62.296875 
C 38 62.296875 43.796875 57.984375 43.796875 48.59375 
C 43.796875 43.59375 41.703125 39.390625 38.09375 37.484375 
C 33.5 34.890625 30 34.296875 20.40625 34.09375 
z
" id="Nimbus_Roman_No9_L_Regular-82"/>
      <path d="M 61.203125 -1 
L 61.203125 51.359375 
C 61.203125 57.328125 62.203125 61.015625 64.09375 62.3125 
C 65.5 63.296875 66.90625 63.703125 70.703125 64.09375 
L 70.703125 66 
L 47.203125 66 
L 47.203125 64.09375 
C 51 63.796875 52.40625 63.40625 53.90625 62.5 
C 55.90625 61.109375 56.796875 57.53125 56.796875 51.359375 
L 56.796875 17.8125 
L 18.296875 66 
L 1.203125 66 
L 1.203125 64.09375 
C 5.5 64.09375 6.90625 63.296875 10.90625 58.625 
L 10.90625 14.734375 
C 10.90625 4.390625 9.5 2.5 1.203125 1.890625 
L 1.203125 0 
L 24.703125 0 
L 24.703125 1.890625 
C 17 2.296875 15.296875 4.59375 15.296875 14.6875 
L 15.296875 53.890625 
L 59.5 -1 
z
" id="Nimbus_Roman_No9_L_Regular-78"/>
      <path d="M 70.59375 1.890625 
C 66.09375 2.203125 65.09375 3.203125 61.59375 10.71875 
L 36.703125 67 
L 34.703125 67 
L 13.90625 18.546875 
C 7.5 3.71875 6.296875 2.09375 1.5 1.890625 
L 1.5 0 
L 21.296875 0 
L 21.296875 1.890625 
C 16.5 1.890625 14.5 3.203125 14.5 6.046875 
C 14.5 7.265625 14.796875 8.6875 15.296875 10.015625 
L 19.90625 21.890625 
L 46.09375 21.890625 
L 50.203125 12.140625 
C 51.40625 9.40625 52.09375 6.765625 52.09375 5.34375 
C 52.09375 2.796875 50.40625 2 45.09375 1.890625 
L 45.09375 0 
L 70.59375 0 
z
M 21.59375 26 
L 33.09375 53 
L 44.703125 26 
z
" id="Nimbus_Roman_No9_L_Regular-65"/>
      <path d="M 47.703125 45 
L 33.796875 45 
L 33.796875 43.484375 
C 37 43.1875 38.5 42.203125 38.5 40.3125 
C 38.5 39.328125 38.296875 38.34375 37.90625 37.34375 
L 28 11.6875 
L 17.796875 37.046875 
C 17.203125 38.4375 16.90625 39.828125 16.90625 40.71875 
C 16.90625 42.5 18 43.1875 21.5 43.484375 
L 21.5 45 
L 1.90625 45 
L 1.90625 43.484375 
C 5.703125 43.296875 6.40625 42.296875 11 32.09375 
L 23 3.671875 
C 23.203125 3.078125 23.5 2.375 23.796875 1.59375 
C 24.40625 -0.203125 25 -1 25.59375 -1 
C 26.203125 -1 26.90625 0.296875 28.40625 3.96875 
L 41.203125 35.765625 
C 44.09375 42.5 44.703125 43.1875 47.703125 43.484375 
z
" id="Nimbus_Roman_No9_L_Regular-118"/>
      <path d="M 25 46 
C 12 46 2.90625 36.390625 2.90625 22.59375 
C 2.90625 9.09375 12.203125 -1 24.796875 -1 
C 37.40625 -1 47 9.59375 47 23.390625 
C 47 36.5 37.796875 46 25 46 
z
M 23.703125 43.1875 
C 32.09375 43.1875 38 33.59375 38 19.890625 
C 38 8.59375 33.5 1.796875 26 1.796875 
C 22.09375 1.796875 18.40625 4.1875 16.296875 8.1875 
C 13.5 13.390625 11.90625 20.390625 11.90625 27.5 
C 11.90625 37 16.59375 43.1875 23.703125 43.1875 
z
" id="Nimbus_Roman_No9_L_Regular-111"/>
      <path d="M 1.90625 62.296875 
L 2.5 62.296875 
C 3.59375 62.390625 4.796875 62.5 5.59375 62.5 
C 8.796875 62.5 9.796875 61.09375 9.796875 56.390625 
L 9.796875 8.6875 
C 9.796875 3.296875 8.40625 2 2.09375 1.5 
L 2.09375 0 
L 25.703125 0 
L 25.703125 1.5 
C 19.40625 1.890625 18.203125 2.890625 18.203125 8.390625 
L 18.203125 68.09375 
L 17.796875 68.296875 
C 12.59375 66.59375 8.796875 65.59375 1.90625 63.890625 
z
" id="Nimbus_Roman_No9_L_Regular-108"/>
      <path d="M 47.90625 4.984375 
L 47.40625 4.984375 
C 42.796875 4.984375 41.703125 6.09375 41.703125 10.6875 
L 41.703125 45 
L 25.90625 45 
L 25.90625 43.296875 
C 32.09375 43 33.296875 42 33.296875 37 
L 33.296875 13.5 
C 33.296875 10.6875 32.796875 9.296875 31.40625 8.1875 
C 28.703125 6 25.59375 4.796875 22.59375 4.796875 
C 18.703125 4.796875 15.5 8.1875 15.5 12.390625 
L 15.5 45 
L 0.90625 45 
L 0.90625 43.59375 
C 5.703125 43.296875 7.09375 41.796875 7.09375 37.1875 
L 7.09375 12 
C 7.09375 4.09375 11.90625 -1 19.203125 -1 
C 22.90625 -1 26.796875 0.59375 29.5 3.296875 
L 33.796875 7.59375 
L 33.796875 -0.703125 
L 34.203125 -1 
C 39.203125 1 42.796875 2.09375 47.90625 3.5 
z
" id="Nimbus_Roman_No9_L_Regular-117"/>
      <path d="M 1.90625 39.796875 
C 3.203125 40.09375 4 40.1875 5.09375 40.1875 
C 7.703125 40.1875 8.59375 38.59375 8.59375 33.796875 
L 8.59375 8.5 
C 8.59375 3.09375 7.203125 1.59375 1.59375 1.5 
L 1.59375 0 
L 23.796875 0 
L 23.796875 1.5 
C 18.5 1.6875 17 2.796875 17 6.6875 
L 17 34.890625 
C 17 35.09375 17.796875 36.09375 18.5 36.796875 
C 21 39.09375 25.296875 40.796875 28.796875 40.796875 
C 33.203125 40.796875 35.40625 37.296875 35.40625 30.296875 
L 35.40625 8.59375 
C 35.40625 3 34.296875 1.890625 28.59375 1.5 
L 28.59375 0 
L 51 0 
L 51 1.5 
C 45.296875 1.59375 43.796875 3.296875 43.796875 9.5 
L 43.796875 34.6875 
C 46.796875 39 50.09375 40.796875 54.703125 40.796875 
C 60.40625 40.796875 62.203125 38.09375 62.203125 29.796875 
L 62.203125 8.6875 
C 62.203125 3 61.40625 2.1875 55.59375 1.5 
L 55.59375 0 
L 77.5 0 
L 77.5 1.5 
L 74.90625 1.6875 
C 71.90625 1.890625 70.59375 3.6875 70.59375 7.59375 
L 70.59375 28.1875 
C 70.59375 40 66.703125 46 59 46 
C 53.203125 46 48.09375 43.390625 42.703125 37.59375 
C 40.90625 43.296875 37.5 46 32.09375 46 
C 27.703125 46 24.90625 44.59375 16.59375 38.296875 
L 16.59375 45.796875 
L 15.90625 46 
C 10.796875 44.09375 7.40625 42.984375 1.90625 41.484375 
z
" id="Nimbus_Roman_No9_L_Regular-109"/>
      <path d="M 40.796875 16.4375 
C 36 8.8125 31.703125 5.890625 25.296875 5.890625 
C 19.59375 5.890625 15.296875 8.8125 12.40625 14.53125 
C 10.59375 18.34375 9.90625 21.65625 9.703125 27.796875 
L 40.5 27.796875 
C 39.703125 34.265625 38.703125 37.140625 36.203125 40.3125 
C 33.203125 43.890625 28.59375 46 23.40625 46 
C 18.40625 46 13.703125 44.1875 9.90625 40.8125 
C 5.203125 36.734375 2.5 29.6875 2.5 21.46875 
C 2.5 7.59375 9.703125 -1 21.203125 -1 
C 30.703125 -1 38.203125 4.890625 42.40625 15.734375 
z
M 9.90625 31 
C 11 38.71875 14.40625 42.390625 20.5 42.390625 
C 26.59375 42.390625 29 39.609375 30.296875 31 
z
" id="Nimbus_Roman_No9_L_Regular-101"/>
      <path d="M 30.90625 45 
L 18.59375 45 
L 18.59375 56.421875 
C 18.59375 62.140625 20.5 65.1875 24.296875 65.1875 
C 26.40625 65.1875 27.796875 64.203125 29.59375 61.34375 
C 31.203125 58.78125 32.40625 57.796875 34.09375 57.796875 
C 36.40625 57.796875 38.296875 59.578125 38.296875 61.84375 
C 38.296875 65.390625 33.90625 68 27.90625 68 
C 21.703125 68 16.40625 65.296875 13.796875 60.765625 
C 11.203125 56.421875 10.40625 52.875 10.296875 45 
L 2.09375 45 
L 2.09375 41.796875 
L 10.296875 41.796875 
L 10.296875 10.390625 
C 10.296875 3.09375 9.203125 1.890625 2 1.5 
L 2 0 
L 28 0 
L 28 1.5 
C 19.796875 1.796875 18.703125 2.890625 18.703125 10.390625 
L 18.703125 41.796875 
L 30.90625 41.796875 
z
" id="Nimbus_Roman_No9_L_Regular-102"/>
      <path d="M 0.703125 39 
C 2.09375 39.296875 3 39.390625 4.203125 39.390625 
C 6.703125 39.390625 7.59375 37.796875 7.59375 33.390625 
L 7.59375 8.390625 
C 7.59375 3.390625 6.90625 2.6875 0.5 1.5 
L 0.5 0 
L 24.5 0 
L 24.5 1.5 
C 17.703125 1.796875 16 3.296875 16 9 
L 16 31.5 
C 16 34.6875 20.296875 39.6875 23 39.6875 
C 23.59375 39.6875 24.5 39.1875 25.59375 38.1875 
C 27.203125 36.796875 28.296875 36.1875 29.59375 36.1875 
C 32 36.1875 33.5 37.890625 33.5 40.6875 
C 33.5 43.984375 31.40625 46 28 46 
C 23.796875 46 20.90625 43.6875 16 36.59375 
L 16 45.796875 
L 15.5 46 
C 10.203125 43.796875 6.59375 42.5 0.703125 40.59375 
z
" id="Nimbus_Roman_No9_L_Regular-114"/>
      <path d="M 44.203125 6.59375 
C 42.5 5.1875 41.296875 4.6875 39.796875 4.6875 
C 37.5 4.6875 36.796875 6.09375 36.796875 10.5 
L 36.796875 30 
C 36.796875 35.1875 36.296875 38.09375 34.796875 40.5 
C 32.59375 44.09375 28.296875 46 22.40625 46 
C 13 46 5.59375 41.09375 5.59375 34.796875 
C 5.59375 32.5 7.59375 30.5 9.90625 30.5 
C 12.296875 30.5 14.40625 32.5 14.40625 34.6875 
C 14.40625 35.09375 14.296875 35.59375 14.203125 36.296875 
C 14 37.1875 13.90625 38 13.90625 38.6875 
C 13.90625 41.390625 17.09375 43.59375 21.09375 43.59375 
C 26 43.59375 28.703125 40.6875 28.703125 35.296875 
L 28.703125 29.1875 
C 13.296875 23 11.59375 22.1875 7.296875 18.390625 
C 5.09375 16.390625 3.703125 13 3.703125 9.6875 
C 3.703125 3.390625 8.09375 -1 14.203125 -1 
C 18.59375 -1 22.703125 1.09375 28.796875 6.296875 
C 29.296875 1.09375 31.09375 -1 35.203125 -1 
C 38.59375 -1 40.703125 0.1875 44.203125 4 
z
M 28.703125 12.296875 
C 28.703125 9.1875 28.203125 8.296875 26.09375 7.09375 
C 23.703125 5.6875 20.90625 4.796875 18.796875 4.796875 
C 15.296875 4.796875 12.5 8.1875 12.5 12.5 
L 12.5 12.890625 
C 12.5 18.796875 16.59375 22.390625 28.703125 26.796875 
z
" id="Nimbus_Roman_No9_L_Regular-97"/>
      <path d="M 39.796875 15.59375 
C 35 8.59375 31.40625 6.1875 25.703125 6.1875 
C 16.59375 6.1875 10.203125 14.1875 10.203125 25.6875 
C 10.203125 35.984375 15.703125 43.09375 23.796875 43.09375 
C 27.40625 43.09375 28.703125 41.984375 29.703125 38.296875 
L 30.296875 36.09375 
C 31.09375 33.296875 32.90625 31.484375 35 31.484375 
C 37.59375 31.484375 39.796875 33.390625 39.796875 35.6875 
C 39.796875 41.296875 32.796875 46 24.40625 46 
C 19.5 46 14.40625 43.984375 10.296875 40.390625 
C 5.296875 35.984375 2.5 29.1875 2.5 21.296875 
C 2.5 8.296875 10.40625 -1 21.5 -1 
C 26 -1 30 0.59375 33.59375 3.6875 
C 36.296875 6.09375 38.203125 8.796875 41.203125 14.6875 
z
" id="Nimbus_Roman_No9_L_Regular-99"/>
      <path d="M 25.5 45 
L 15.40625 45 
L 15.40625 56.59375 
C 15.40625 57.59375 15.296875 57.890625 14.703125 57.890625 
C 14 57 13.40625 56.09375 12.703125 55.09375 
C 8.90625 49.59375 4.59375 44.796875 3 44.390625 
C 1.90625 43.6875 1.296875 42.984375 1.296875 42.484375 
C 1.296875 42.1875 1.40625 41.984375 1.703125 41.796875 
L 7 41.796875 
L 7 11.6875 
C 7 3.296875 10 -1 15.90625 -1 
C 20.796875 -1 24.59375 1.390625 27.90625 6.59375 
L 26.59375 7.6875 
C 24.5 5.1875 22.796875 4.1875 20.59375 4.1875 
C 16.90625 4.1875 15.40625 6.890625 15.40625 13.1875 
L 15.40625 41.796875 
L 25.5 41.796875 
z
" id="Nimbus_Roman_No9_L_Regular-116"/>
      <path d="M 17.5 46 
L 2 40.5 
L 2 39 
L 2.796875 39.09375 
C 4 39.296875 5.296875 39.390625 6.203125 39.390625 
C 8.59375 39.390625 9.5 37.796875 9.5 33.390625 
L 9.5 10.1875 
C 9.5 3 8.5 1.890625 1.59375 1.5 
L 1.59375 0 
L 25.296875 0 
L 25.296875 1.5 
C 18.703125 2 17.90625 3 17.90625 10.1875 
L 17.90625 45.6875 
z
M 12.796875 68 
C 10.09375 68 7.796875 65.6875 7.796875 62.890625 
C 7.796875 60.09375 10 57.796875 12.796875 57.796875 
C 15.703125 57.796875 18 59.984375 18 62.890625 
C 18 65.6875 15.703125 68 12.796875 68 
z
" id="Nimbus_Roman_No9_L_Regular-105"/>
      <path d="M 1.59375 39.796875 
C 2.203125 40.09375 3.203125 40.1875 4.296875 40.1875 
C 7.09375 40.1875 8 38.6875 8 33.796875 
L 8 9 
C 8 3.296875 6.90625 1.890625 1.796875 1.5 
L 1.796875 0 
L 23 0 
L 23 1.5 
C 17.90625 1.890625 16.40625 3.09375 16.40625 6.6875 
L 16.40625 34.796875 
C 21.203125 39.296875 23.40625 40.484375 26.703125 40.484375 
C 31.59375 40.484375 34 37.390625 34 30.796875 
L 34 9.890625 
C 34 3.59375 32.703125 1.890625 27.703125 1.5 
L 27.703125 0 
L 48.5 0 
L 48.5 1.5 
C 43.59375 2 42.40625 3.1875 42.40625 8.09375 
L 42.40625 31 
C 42.40625 40.390625 38 46 30.59375 46 
C 26 46 22.90625 44.296875 16.09375 37.890625 
L 16.09375 45.796875 
L 15.40625 46 
C 10.5 44.1875 7.09375 43.09375 1.59375 41.484375 
z
" id="Nimbus_Roman_No9_L_Regular-110"/>
      <path d="M 27.90625 -0.46875 
C 40.203125 1.234375 49 12.46875 49 26.59375 
C 49 40.328125 40.59375 50.25 27.90625 51.15625 
L 27.90625 59.171875 
C 27.90625 62.890625 28 64.796875 28.203125 67.09375 
L 23.5 69 
C 23.703125 66.59375 23.796875 64.09375 23.796875 60.078125 
L 23.796875 51.15625 
C 11.796875 49.75 2.703125 38.328125 2.703125 24.5 
C 2.703125 10.5625 11.296875 0.34375 23.796875 -0.65625 
L 23.796875 -10.78125 
C 23.796875 -15.296875 23.703125 -18.109375 23.5 -20.90625 
L 28.203125 -22.015625 
C 28 -18.703125 28 -18.40625 27.90625 -14 
L 27.90625 -11.28125 
z
M 23.796875 3.546875 
C 21 4.65625 19 6.25 17.5 8.5625 
C 14.296875 13.46875 12.40625 21.09375 12.40625 29 
C 12.40625 40.328125 16.703125 47.34375 23.796875 47.65625 
z
M 27.90625 46.953125 
C 35 44.34375 39.296875 34.828125 39.296875 22.09375 
C 39.296875 10.265625 35.203125 3.453125 27.90625 3.046875 
z
" id="Standard_Symbols_L-102"/>
      <path d="M 46.40625 11.046875 
C 44.90625 9.5625 44.296875 9.0625 43.59375 8.265625 
C 40.59375 5.1875 39.296875 4.1875 38.40625 4.1875 
C 37.59375 4.1875 37 4.78125 37 5.484375 
C 37 7.46875 41.203125 24.484375 45.90625 41.59375 
C 46.203125 42.59375 46.296875 42.796875 46.5 43.6875 
L 45.796875 44 
L 39.703125 43.296875 
L 39.40625 42.984375 
L 38.296875 38.203125 
C 37.5 41.890625 34.59375 44 30.296875 44 
C 17.09375 44 1.703125 25.78125 1.703125 10.0625 
C 1.703125 3.09375 5.5 -1 11.90625 -1 
C 18.90625 -1 23.203125 2.296875 32 14.640625 
C 30 6.875 29.703125 5.578125 29.703125 3.1875 
C 29.703125 0.1875 30.90625 -1 33.703125 -1 
C 37.703125 -1 40.203125 0.890625 47.59375 10 
z
M 30.90625 42 
C 34.296875 41.796875 36.5 39.390625 36.5 35.890625 
C 36.5 27.5 31.5 15.6875 24.59375 8.296875 
C 22.203125 5.59375 18.796875 3.890625 15.90625 3.890625 
C 12.40625 3.890625 10.09375 6.796875 10.09375 11.390625 
C 10.09375 16.796875 13.90625 27.09375 18.203125 33.296875 
C 22.203125 39.09375 26.90625 42.296875 30.90625 42 
z
" id="Nimbus_Roman_No9_L_Regular_Italic-97"/>
      <path d="M 2.09375 40.1875 
C 3.203125 40.28125 4 40.28125 5.09375 40.28125 
C 9 40.28125 10 38.578125 11.40625 29.359375 
C 12.40625 22.4375 13.59375 7.3125 13.59375 1.5 
C 13.59375 -1.3125 13.796875 -2 14.5 -2 
C 17 -2 26.296875 8.609375 36.5 22.84375 
C 40 27.859375 42.59375 34.375 42.59375 38.078125 
C 42.59375 41.296875 40 44 37 44 
C 34.796875 44 33.296875 42.6875 33.296875 40.59375 
C 33.296875 38.984375 33.90625 37.78125 35.703125 36.171875 
C 37 34.96875 37.5 34.171875 37.5 33.171875 
C 37.5 28.5625 30.90625 17.4375 23.796875 10.015625 
L 20.703125 6.8125 
C 20 20.9375 19.40625 26.15625 18.09375 33.578125 
C 16.09375 43.796875 16.09375 44 15.203125 44 
C 14.703125 44 14 43.890625 13.203125 43.59375 
C 11.40625 43.09375 5.90625 42.09375 2.09375 41.484375 
z
" id="Nimbus_Roman_No9_L_Regular_Italic-118"/>
      <path d="M 47.203125 40 
L 41.09375 40 
C 40.796875 40 40.296875 40.25 39.5 41.015625 
C 36.796875 42.984375 33.5 44 29.703125 44 
C 18.59375 44 9.59375 35.890625 9.59375 26.6875 
C 9.59375 21.59375 11.796875 18.65625 17.5 16.09375 
C 11.59375 12.0625 9.796875 10.046875 9.796875 7.625 
C 9.796875 6.3125 10.59375 5.109375 12.5 3.6875 
C 2.59375 -2.859375 0.796875 -4.890625 0.796875 -9.53125 
C 0.796875 -16.484375 7.40625 -21 17.5 -21 
C 30.09375 -21 38.5 -15.078125 38.5 -6.296875 
C 38.5 0.0625 33.703125 4.5 24.203125 7.015625 
C 19.796875 8.125 17.203125 9.75 17.203125 11.265625 
C 17.203125 12.765625 19.5 15.390625 20.796875 15.390625 
C 21 15.390625 21.203125 15.390625 21.5 15.296875 
C 22.296875 15.09375 23.703125 15 24.59375 15 
C 33.703125 15 43.09375 22.96875 43.09375 30.609375 
C 43.09375 32.171875 42.796875 34.125 42.203125 36.09375 
L 47.203125 36.09375 
z
M 14.796875 2.578125 
C 14.90625 2.578125 15.09375 2.484375 15.296875 2.375 
C 15.59375 2.28125 16.59375 1.96875 18.203125 1.46875 
C 28.796875 -1.859375 32.5 -4.6875 32.5 -9.328125 
C 32.5 -14.765625 26.703125 -18.8125 19 -18.8125 
C 11 -18.8125 6.296875 -14.96875 6.296875 -8.515625 
C 6.296875 -6.09375 6.90625 -4.375 8.5 -2.46875 
C 9.796875 -0.75 14 2.578125 14.796875 2.578125 
z
M 29.59375 41.796875 
C 33.296875 41.796875 35.203125 38.984375 35.203125 34.328125 
C 35.203125 30.90625 34 26.59375 32.09375 23.265625 
C 29.90625 19.25 26.796875 17.09375 23.40625 17.09375 
C 19.59375 17.09375 17.40625 19.828125 17.40625 24.4375 
C 17.40625 33.453125 23.09375 41.796875 29.59375 41.796875 
z
" id="Nimbus_Roman_No9_L_Regular_Italic-103"/>
      <path d="M 56.703125 1.59375 
C 52.296875 1.890625 50.296875 3.578125 48.40625 8.765625 
L 39.09375 33.140625 
C 46.796875 34.828125 50.09375 36.21875 53.703125 39.40625 
C 57 42.296875 58.796875 46.171875 58.796875 50.65625 
C 58.796875 59.90625 51.40625 65 38 65 
L 13.203125 65 
L 13.203125 63.390625 
C 17.40625 62.796875 17.90625 62.6875 18.90625 61.984375 
C 19.703125 61.5 20.296875 60.296875 20.296875 59.203125 
C 20.296875 58.015625 19.796875 55.625 19.09375 52.9375 
L 6.796875 8.953125 
C 5 3.09375 4.296875 2.484375 -1.296875 1.59375 
L -1.296875 0 
L 23.09375 0 
L 23.09375 1.59375 
C 17 2.390625 16.296875 2.890625 16.296875 6.171875 
C 16.296875 7.171875 16.59375 8.453125 17.5 11.9375 
L 23.09375 32.734375 
L 29.59375 32.234375 
L 41.90625 0 
L 56.703125 0 
z
M 30.796875 59.203125 
C 31.40625 61.296875 32.703125 61.984375 35.90625 61.984375 
C 44.203125 61.984375 48.296875 58.21875 48.296875 50.84375 
C 48.296875 41 41.90625 35.921875 29.40625 35.921875 
C 27.796875 35.921875 26.703125 36.015625 24.296875 36.421875 
z
" id="Nimbus_Roman_No9_L_Regular_Italic-82"/>
     </defs>
     <g transform="translate(41.821787 361.827485)scale(0.2 -0.2)">
      <use transform="translate(0 29.511935)scale(0.996264)" xlink:href="#Nimbus_Roman_No9_L_Regular-82"/>
      <use transform="translate(66.450031 29.511935)scale(0.996264)" xlink:href="#Nimbus_Roman_No9_L_Regular-78"/>
      <use transform="translate(134.89329 29.511935)scale(0.996264)" xlink:href="#Nimbus_Roman_No9_L_Regular-65"/>
      <use transform="translate(231.729875 29.511935)scale(0.996264)" xlink:href="#Nimbus_Roman_No9_L_Regular-118"/>
      <use transform="translate(279.551064 29.511935)scale(0.996264)" xlink:href="#Nimbus_Roman_No9_L_Regular-111"/>
      <use transform="translate(329.364265 29.511935)scale(0.996264)" xlink:href="#Nimbus_Roman_No9_L_Regular-108"/>
      <use transform="translate(357.059434 29.511935)scale(0.996264)" xlink:href="#Nimbus_Roman_No9_L_Regular-117"/>
      <use transform="translate(406.872635 29.511935)scale(0.996264)" xlink:href="#Nimbus_Roman_No9_L_Regular-109"/>
      <use transform="translate(484.381005 29.511935)scale(0.996264)" xlink:href="#Nimbus_Roman_No9_L_Regular-101"/>
      <use transform="translate(553.521174 29.511935)scale(0.996264)" xlink:href="#Nimbus_Roman_No9_L_Regular-102"/>
      <use transform="translate(586.696403 29.511935)scale(0.996264)" xlink:href="#Nimbus_Roman_No9_L_Regular-114"/>
      <use transform="translate(619.871633 29.511935)scale(0.996264)" xlink:href="#Nimbus_Roman_No9_L_Regular-97"/>
      <use transform="translate(664.105202 29.511935)scale(0.996264)" xlink:href="#Nimbus_Roman_No9_L_Regular-99"/>
      <use transform="translate(708.338771 29.511935)scale(0.996264)" xlink:href="#Nimbus_Roman_No9_L_Regular-116"/>
      <use transform="translate(736.03394 29.511935)scale(0.996264)" xlink:href="#Nimbus_Roman_No9_L_Regular-105"/>
      <use transform="translate(763.72911 29.511935)scale(0.996264)" xlink:href="#Nimbus_Roman_No9_L_Regular-111"/>
      <use transform="translate(813.54231 29.511935)scale(0.996264)" xlink:href="#Nimbus_Roman_No9_L_Regular-110"/>
      <use transform="translate(888.262111 29.511935)scale(0.996264)" xlink:href="#Standard_Symbols_L-102"/>
      <use transform="translate(951.325276 78.821941)scale(0.737241)" xlink:href="#Nimbus_Roman_No9_L_Regular_Italic-97"/>
      <use transform="translate(988.187318 78.821941)scale(0.737241)" xlink:href="#Nimbus_Roman_No9_L_Regular_Italic-118"/>
      <use transform="translate(1020.920404 78.821941)scale(0.737241)" xlink:href="#Nimbus_Roman_No9_L_Regular_Italic-103"/>
      <use transform="translate(940.167077 0)scale(0.737241)" xlink:href="#Nimbus_Roman_No9_L_Regular_Italic-82"/>
     </g>
    </g>
   </g>
   <g id="matplotlib.axis_2">
    <g id="ytick_1">
     <g id="line2d_5">
      <defs>
       <path d="M 0 0 
L -3.5 0 
" id="m88ad6a7b72" style="stroke:#000000;stroke-width:0.8;"/>
      </defs>
      <g>
       <use style="stroke:#000000;stroke-width:0.8;" x="36" xlink:href="#m88ad6a7b72" y="315"/>
      </g>
     </g>
     <g id="text_6">
      <!-- $0.0$ -->
      <defs>
       <path d="M 19.203125 5.296875 
C 19.203125 8.1875 16.796875 10.59375 13.90625 10.59375 
C 11 10.59375 8.59375 8.1875 8.59375 5.296875 
C 8.59375 2.390625 11 0 13.90625 0 
C 16.796875 0 19.203125 2.390625 19.203125 5.296875 
z
" id="CMMI10-58"/>
      </defs>
      <g transform="translate(3.555621 321.754578)scale(0.2 -0.2)">
       <use transform="scale(0.996264)" xlink:href="#Nimbus_Roman_No9_L_Regular-48"/>
       <use transform="translate(49.8132 0)scale(0.996264)" xlink:href="#CMMI10-58"/>
       <use transform="translate(77.408707 0)scale(0.996264)" xlink:href="#Nimbus_Roman_No9_L_Regular-48"/>
      </g>
     </g>
    </g>
    <g id="ytick_2">
     <g id="line2d_6">
      <g>
       <use style="stroke:#000000;stroke-width:0.8;" x="36" xlink:href="#m88ad6a7b72" y="246.478552"/>
      </g>
     </g>
     <g id="text_7">
      <!-- $0.5$ -->
      <g transform="translate(3.555621 253.23313)scale(0.2 -0.2)">
       <use transform="scale(0.996264)" xlink:href="#Nimbus_Roman_No9_L_Regular-48"/>
       <use transform="translate(49.8132 0)scale(0.996264)" xlink:href="#CMMI10-58"/>
       <use transform="translate(77.408707 0)scale(0.996264)" xlink:href="#Nimbus_Roman_No9_L_Regular-53"/>
      </g>
     </g>
    </g>
    <g id="ytick_3">
     <g id="line2d_7">
      <g>
       <use style="stroke:#000000;stroke-width:0.8;" x="36" xlink:href="#m88ad6a7b72" y="177.957105"/>
      </g>
     </g>
     <g id="text_8">
      <!-- $1.0$ -->
      <g transform="translate(3.555621 184.711683)scale(0.2 -0.2)">
       <use transform="scale(0.996264)" xlink:href="#Nimbus_Roman_No9_L_Regular-49"/>
       <use transform="translate(49.8132 0)scale(0.996264)" xlink:href="#CMMI10-58"/>
       <use transform="translate(77.408707 0)scale(0.996264)" xlink:href="#Nimbus_Roman_No9_L_Regular-48"/>
      </g>
     </g>
    </g>
    <g id="ytick_4">
     <g id="line2d_8">
      <g>
       <use style="stroke:#000000;stroke-width:0.8;" x="36" xlink:href="#m88ad6a7b72" y="109.435657"/>
      </g>
     </g>
     <g id="text_9">
      <!-- $1.5$ -->
      <g transform="translate(3.555621 116.190235)scale(0.2 -0.2)">
       <use transform="scale(0.996264)" xlink:href="#Nimbus_Roman_No9_L_Regular-49"/>
       <use transform="translate(49.8132 0)scale(0.996264)" xlink:href="#CMMI10-58"/>
       <use transform="translate(77.408707 0)scale(0.996264)" xlink:href="#Nimbus_Roman_No9_L_Regular-53"/>
      </g>
     </g>
    </g>
    <g id="text_10">
     <!-- $\uparrow$ in protein recruitment speed $\tau_u/\tau_l$ -->
     <defs>
      <path d="M 27 55.28125 
C 29.40625 51.5 32.203125 48.71875 34.703125 46.828125 
C 40.796875 42.265625 46.90625 41.28125 47.09375 41.28125 
C 48.296875 41.28125 48.296875 42.359375 48.296875 43.15625 
C 48.296875 44.75 48.203125 44.84375 46 45.546875 
C 39.203125 47.4375 35.296875 51 33 53.484375 
C 27.90625 58.953125 26.703125 64.90625 26.09375 68.09375 
C 26 68.59375 25.59375 69 25 69 
C 24.09375 69 24 68.390625 23.796875 67.1875 
C 21.5 56.171875 14.40625 48.421875 3.40625 45.34375 
C 1.90625 44.84375 1.703125 44.84375 1.703125 43.15625 
C 1.703125 42.359375 1.703125 41.28125 2.90625 41.28125 
C 3.203125 41.28125 9.09375 42.359375 14.796875 46.4375 
C 18.09375 48.921875 20.796875 51.90625 23 55.28125 
L 23 -15.515625 
C 23 -17.3125 23 -19.109375 25 -19.109375 
C 27 -19.109375 27 -17.3125 27 -15.515625 
z
" id="CMSY10-34"/>
      <path d="M 0.90625 39.296875 
C 1.796875 39.390625 2.5 39.390625 3.40625 39.390625 
C 6.796875 39.390625 7.5 38.390625 7.5 33.703125 
L 7.5 -13.109375 
C 7.5 -18.3125 6.40625 -19.40625 0.5 -20 
L 0.5 -21.703125 
L 24.703125 -21.703125 
L 24.703125 -20 
C 17.203125 -19.90625 15.90625 -18.796875 15.90625 -12.46875 
L 15.90625 3.296875 
C 19.40625 0 21.796875 -1 26 -1 
C 37.796875 -1 47 10.1875 47 24.6875 
C 47 37.09375 40 46 30.296875 46 
C 24.703125 46 20.296875 43.484375 15.90625 38.09375 
L 15.90625 45.796875 
L 15.296875 46 
C 9.90625 43.890625 6.40625 42.59375 0.90625 40.890625 
z
M 15.90625 33.390625 
C 15.90625 36.390625 21.5 39.984375 26.09375 39.984375 
C 33.5 39.984375 38.40625 32.390625 38.40625 20.796875 
C 38.40625 9.6875 33.5 2.1875 26.296875 2.1875 
C 21.59375 2.1875 15.90625 5.796875 15.90625 8.796875 
z
" id="Nimbus_Roman_No9_L_Regular-112"/>
      <path d="M 31.5 31.390625 
L 31.09375 45 
L 30 45 
L 29.796875 44.796875 
C 28.90625 44.09375 28.796875 43.984375 28.40625 43.984375 
C 27.796875 43.984375 26.796875 44.1875 25.703125 44.6875 
C 23.5 45.59375 21.296875 46 18.703125 46 
C 10.796875 46 5.09375 40.890625 5.09375 33.671875 
C 5.09375 28.0625 8.296875 24.046875 16.796875 19.234375 
L 22.59375 15.921875 
C 26.09375 13.921875 27.796875 11.515625 27.796875 8.40625 
C 27.796875 4 24.59375 1.1875 19.5 1.1875 
C 16.09375 1.1875 13 2.5 11.09375 4.703125 
C 9 7.203125 8.09375 9.515625 6.796875 15.21875 
L 5.203125 15.21875 
L 5.203125 -0.40625 
L 6.5 -0.40625 
C 7.203125 0.59375 7.59375 0.796875 8.796875 0.796875 
C 9.703125 0.796875 11.09375 0.59375 13.40625 0 
C 16.203125 -0.609375 18.90625 -1 20.703125 -1 
C 28.40625 -1 34.796875 4.796875 34.796875 11.8125 
C 34.796875 16.828125 32.40625 20.140625 26.40625 23.75 
L 15.59375 30.15625 
C 12.796875 31.765625 11.296875 34.265625 11.296875 36.96875 
C 11.296875 40.984375 14.40625 43.796875 19 43.796875 
C 24.703125 43.796875 27.703125 40.390625 30 31.46875 
z
" id="Nimbus_Roman_No9_L_Regular-115"/>
      <path d="M 34.40625 -1 
L 49.09375 4.1875 
L 49.09375 5.796875 
C 47.296875 5.6875 47.09375 5.6875 46.796875 5.6875 
C 43.203125 5.6875 42.40625 6.796875 42.40625 11.390625 
L 42.40625 68.09375 
L 41.90625 68.296875 
C 37.09375 66.59375 33.59375 65.59375 27.203125 63.890625 
L 27.203125 62.296875 
C 28 62.390625 28.59375 62.390625 29.40625 62.390625 
C 33.09375 62.390625 34 61.390625 34 57.296875 
L 34 41.6875 
C 30.203125 44.890625 27.5 46 23.5 46 
C 12 46 2.703125 34.6875 2.703125 20.5 
C 2.703125 7.6875 10.203125 -1 21.203125 -1 
C 26.796875 -1 30.59375 1 34 5.6875 
L 34 -0.703125 
z
M 34 10.1875 
C 34 9.5 33.296875 8.296875 32.296875 7.1875 
C 30.5 5.1875 28 4.1875 25.09375 4.1875 
C 16.796875 4.1875 11.296875 12.1875 11.296875 24.5 
C 11.296875 35.796875 16.203125 43.1875 23.796875 43.1875 
C 29.09375 43.1875 34 38.5 34 33.1875 
z
" id="Nimbus_Roman_No9_L_Regular-100"/>
      <path d="M 3.59375 30.984375 
C 4.703125 33.953125 6 36.421875 7.5 38.3125 
C 8.90625 40 10.203125 40.484375 12.90625 40.484375 
L 20.203125 40.484375 
C 18.703125 29.59375 18.09375 22.171875 18.09375 16.015625 
C 18.09375 5.390625 21.796875 -1 28 -1 
C 32 -1 36 1.890625 37.59375 6 
C 38.796875 8.890625 39.203125 11.671875 39.40625 16.328125 
L 36.90625 16.328125 
C 36.09375 10.671875 34.703125 8.6875 31.59375 8.6875 
C 27.203125 8.6875 23.796875 12.859375 23.796875 18.203125 
C 23.796875 19.78125 24 22.859375 24.296875 26.328125 
C 24.40625 27.3125 24.59375 30.28125 24.796875 33.453125 
C 25.09375 37.21875 25.09375 38.21875 25.40625 40.484375 
L 41.796875 40.484375 
L 41.796875 50 
L 19.09375 50 
C 13.90625 50 10.796875 48.6875 7.59375 45.1875 
C 4.40625 41.6875 2.703125 37.921875 1 30.984375 
z
" id="Standard_Symbols_L-116"/>
      <path d="M 46.09375 11.59375 
C 40.90625 5.09375 39.40625 3.6875 37.796875 3.6875 
C 37.09375 3.6875 36.703125 4.296875 36.703125 5.390625 
C 36.703125 6 36.703125 6 38.59375 13.1875 
L 46.5 43.09375 
L 39.09375 43.09375 
C 33.40625 27.59375 32.703125 26 28.09375 18.6875 
C 22.09375 9.359375 17.203125 4.296875 14 4.296875 
C 12.796875 4.296875 11.90625 5.28125 11.90625 6.78125 
C 11.90625 7.171875 11.90625 7.375 12 7.671875 
L 21.09375 43.796875 
L 20.796875 44 
C 15.09375 42.6875 11.5 41.984375 5.796875 41.296875 
L 5.796875 39.90625 
C 9.59375 39.90625 9.796875 39.796875 10.703125 39.3125 
C 11.296875 39.109375 11.796875 38.21875 11.796875 37.515625 
C 11.796875 36.71875 11.296875 34.234375 10.40625 30.84375 
L 6.703125 16.71875 
C 4.90625 9.65625 4.203125 6.28125 4.203125 4.484375 
C 4.203125 0.890625 6 -1 9.5 -1 
C 16.59375 -1 21.90625 4.390625 33.40625 23.59375 
C 30.5 12.953125 28.90625 6.078125 28.90625 4 
C 28.90625 0.796875 30.703125 -1 33.703125 -1 
C 38.40625 -1 40.703125 1 47.5 10.6875 
z
" id="Nimbus_Roman_No9_L_Regular_Italic-117"/>
      <path d="M 43.90625 71.203125 
C 44.40625 72.5 44.40625 72.890625 44.40625 73 
C 44.40625 74.09375 43.5 75 42.40625 75 
C 41.703125 75 41 74.6875 40.703125 74.09375 
L 6 -21.203125 
C 5.5 -22.5 5.5 -22.90625 5.5 -23 
C 5.5 -24.109375 6.40625 -25 7.5 -25 
C 8.796875 -25 9.09375 -24.3125 9.703125 -22.609375 
z
" id="CMMI10-61"/>
      <path d="M 22.796875 12.390625 
C 21.90625 11.296875 21 10.1875 20.09375 9 
C 16.90625 4.796875 15 3.296875 13.203125 3.296875 
C 12.203125 3.296875 11.703125 4 11.703125 5.09375 
C 11.703125 5.796875 12 7 12.5 9 
C 12.59375 9.296875 12.703125 9.796875 12.796875 10 
L 27.90625 67.890625 
L 27.40625 68.390625 
C 21.5 67.09375 17.703125 66.390625 11.796875 65.703125 
L 11.796875 64.09375 
C 16.59375 64.09375 18.59375 63.390625 18.59375 61.796875 
C 18.59375 61.5 18.5 60.890625 18.203125 60 
L 4.5 7.1875 
C 4.203125 6.09375 4 5.09375 4 4.59375 
C 4 1 5.703125 -1 8.90625 -1 
C 14.09375 -1 17.59375 1.890625 24.09375 11.5 
z
" id="Nimbus_Roman_No9_L_Regular_Italic-108"/>
     </defs>
     <g transform="translate(-4.758036 320.834183)rotate(-90)scale(0.2 -0.2)">
      <use transform="translate(0 16.487732)scale(0.996264)" xlink:href="#CMSY10-34"/>
      <use transform="translate(74.719801 16.487732)scale(0.996264)" xlink:href="#Nimbus_Roman_No9_L_Regular-105"/>
      <use transform="translate(102.41497 16.487732)scale(0.996264)" xlink:href="#Nimbus_Roman_No9_L_Regular-110"/>
      <use transform="translate(177.134771 16.487732)scale(0.996264)" xlink:href="#Nimbus_Roman_No9_L_Regular-112"/>
      <use transform="translate(226.947972 16.487732)scale(0.996264)" xlink:href="#Nimbus_Roman_No9_L_Regular-114"/>
      <use transform="translate(260.123201 16.487732)scale(0.996264)" xlink:href="#Nimbus_Roman_No9_L_Regular-111"/>
      <use transform="translate(309.936402 16.487732)scale(0.996264)" xlink:href="#Nimbus_Roman_No9_L_Regular-116"/>
      <use transform="translate(337.631571 16.487732)scale(0.996264)" xlink:href="#Nimbus_Roman_No9_L_Regular-101"/>
      <use transform="translate(381.86514 16.487732)scale(0.996264)" xlink:href="#Nimbus_Roman_No9_L_Regular-105"/>
      <use transform="translate(409.56031 16.487732)scale(0.996264)" xlink:href="#Nimbus_Roman_No9_L_Regular-110"/>
      <use transform="translate(484.28011 16.487732)scale(0.996264)" xlink:href="#Nimbus_Roman_No9_L_Regular-114"/>
      <use transform="translate(517.45534 16.487732)scale(0.996264)" xlink:href="#Nimbus_Roman_No9_L_Regular-101"/>
      <use transform="translate(561.688909 16.487732)scale(0.996264)" xlink:href="#Nimbus_Roman_No9_L_Regular-99"/>
      <use transform="translate(605.922478 16.487732)scale(0.996264)" xlink:href="#Nimbus_Roman_No9_L_Regular-114"/>
      <use transform="translate(639.097707 16.487732)scale(0.996264)" xlink:href="#Nimbus_Roman_No9_L_Regular-117"/>
      <use transform="translate(688.910908 16.487732)scale(0.996264)" xlink:href="#Nimbus_Roman_No9_L_Regular-105"/>
      <use transform="translate(716.606077 16.487732)scale(0.996264)" xlink:href="#Nimbus_Roman_No9_L_Regular-116"/>
      <use transform="translate(744.301247 16.487732)scale(0.996264)" xlink:href="#Nimbus_Roman_No9_L_Regular-109"/>
      <use transform="translate(821.809617 16.487732)scale(0.996264)" xlink:href="#Nimbus_Roman_No9_L_Regular-101"/>
      <use transform="translate(866.043186 16.487732)scale(0.996264)" xlink:href="#Nimbus_Roman_No9_L_Regular-110"/>
      <use transform="translate(915.856386 16.487732)scale(0.996264)" xlink:href="#Nimbus_Roman_No9_L_Regular-116"/>
      <use transform="translate(968.458156 16.487732)scale(0.996264)" xlink:href="#Nimbus_Roman_No9_L_Regular-115"/>
      <use transform="translate(1007.211862 16.487732)scale(0.996264)" xlink:href="#Nimbus_Roman_No9_L_Regular-112"/>
      <use transform="translate(1057.025063 16.487732)scale(0.996264)" xlink:href="#Nimbus_Roman_No9_L_Regular-101"/>
      <use transform="translate(1101.258632 16.487732)scale(0.996264)" xlink:href="#Nimbus_Roman_No9_L_Regular-101"/>
      <use transform="translate(1145.4922 16.487732)scale(0.996264)" xlink:href="#Nimbus_Roman_No9_L_Regular-100"/>
      <use transform="translate(1220.212001 16.487732)scale(0.996264)" xlink:href="#Standard_Symbols_L-116"/>
      <use transform="translate(1263.946951 1.543817)scale(0.737241)" xlink:href="#Nimbus_Roman_No9_L_Regular_Italic-117"/>
      <use transform="translate(1301.307125 16.487732)scale(0.996264)" xlink:href="#CMMI10-61"/>
      <use transform="translate(1351.120326 16.487732)scale(0.996264)" xlink:href="#Standard_Symbols_L-116"/>
      <use transform="translate(1394.855276 0)scale(0.737241)" xlink:href="#Nimbus_Roman_No9_L_Regular_Italic-108"/>
     </g>
    </g>
   </g>
   <g id="line2d_9">
    <path clip-path="url(#p5037fa1b8f)" d="M 36 177.957105 
L 259.2 177.957105 
" style="fill:none;stroke:#000000;stroke-dasharray:5.55,2.4;stroke-dashoffset:0;stroke-width:1.5;"/>
   </g>
   <g id="patch_7">
    <path d="M 36 315 
L 36 43.2 
" style="fill:none;stroke:#000000;stroke-linecap:square;stroke-linejoin:miter;stroke-width:0.8;"/>
   </g>
   <g id="patch_8">
    <path d="M 259.2 315 
L 259.2 43.2 
" style="fill:none;stroke:#000000;stroke-linecap:square;stroke-linejoin:miter;stroke-width:0.8;"/>
   </g>
   <g id="patch_9">
    <path d="M 36 315 
L 259.2 315 
" style="fill:none;stroke:#000000;stroke-linecap:square;stroke-linejoin:miter;stroke-width:0.8;"/>
   </g>
   <g id="patch_10">
    <path d="M 36 43.2 
L 259.2 43.2 
" style="fill:none;stroke:#000000;stroke-linecap:square;stroke-linejoin:miter;stroke-width:0.8;"/>
   </g>
  </g>
 </g>
 <defs>
  <clipPath id="p5037fa1b8f">
   <rect height="271.8" width="223.2" x="36" y="43.2"/>
  </clipPath>
 </defs>
</svg>
