<?xml version="1.0" encoding="utf-8" standalone="no"?>
<!DOCTYPE svg PUBLIC "-//W3C//DTD SVG 1.1//EN"
  "http://www.w3.org/Graphics/SVG/1.1/DTD/svg11.dtd">
<!-- Created with matplotlib (http://matplotlib.org/) -->
<svg height="504pt" version="1.1" viewBox="0 0 504 504" width="504pt" xmlns="http://www.w3.org/2000/svg" xmlns:xlink="http://www.w3.org/1999/xlink">
 <defs>
  <style type="text/css">
*{stroke-linecap:butt;stroke-linejoin:round;}
  </style>
 </defs>
 <g id="figure_1">
  <g id="patch_1">
   <path d="M 0 504 
L 504 504 
L 504 0 
L 0 0 
z
" style="fill:#ffffff;"/>
  </g>
  <g id="axes_1">
   <g id="patch_2">
    <path d="M 63 441 
L 375.48 441 
L 375.48 60.48 
L 63 60.48 
z
" style="fill:#ffffff;"/>
   </g>
   <g id="PathCollection_1">
    <path clip-path="url(#p1a8f9b2275)" d="M 207.221538 441 
L 224.351455 441 
L 207.221538 425.434006 
L 204.020942 441 
z
" style="fill:#46075a;"/>
   </g>
   <g id="PathCollection_2">
    <path clip-path="url(#p1a8f9b2275)" d="M 207.221538 425.434006 
L 224.351455 441 
L 255.295385 441 
L 263.211479 441 
L 375.48 331.986145 
L 375.48 326.452066 
L 375.48 293.914733 
L 255.295385 316.948044 
L 252.128947 326.452066 
L 207.221538 394.519134 
L 196.696584 441 
L 204.020942 441 
z
" style="fill:#481467;"/>
   </g>
   <g id="PathCollection_3">
    <path clip-path="url(#p1a8f9b2275)" d="M 207.221538 394.519134 
L 252.128947 326.452066 
L 255.295385 316.948044 
L 375.48 293.914733 
L 375.48 192.38471 
L 255.295385 278.056295 
L 237.095641 326.452066 
L 207.221538 368.486226 
L 189.372227 441 
L 196.696584 441 
z
" style="fill:#482071;"/>
    <path clip-path="url(#p1a8f9b2275)" d="M 375.48 361.130442 
L 375.48 331.986145 
L 263.211479 441 
L 300.794743 441 
z
" style="fill:#482071;"/>
   </g>
   <g id="PathCollection_4">
    <path clip-path="url(#p1a8f9b2275)" d="M 207.221538 368.486226 
L 237.095641 326.452066 
L 255.295385 278.056295 
L 375.48 192.38471 
L 375.48 175.027934 
L 375.48 115.391486 
L 352.009829 175.027934 
L 255.295385 246.596075 
L 222.062335 326.452066 
L 207.221538 346.001629 
L 182.047869 441 
L 189.372227 441 
z
" style="fill:#472d7b;"/>
    <path clip-path="url(#p1a8f9b2275)" d="M 375.48 396.538952 
L 375.48 361.130442 
L 300.794743 441 
L 338.378008 441 
z
" style="fill:#472d7b;"/>
   </g>
   <g id="PathCollection_5">
    <path clip-path="url(#p1a8f9b2275)" d="M 207.221538 346.001629 
L 222.062335 326.452066 
L 255.295385 246.596075 
L 352.009829 175.027934 
L 375.48 115.391486 
L 375.48 60.48 
L 375.160839 60.48 
L 321.076829 175.027934 
L 255.295385 220.177873 
L 207.221538 325.795089 
L 207.147236 326.452066 
L 174.723512 441 
L 182.047869 441 
z
" style="fill:#453882;"/>
    <path clip-path="url(#p1a8f9b2275)" d="M 375.48 441 
L 375.48 396.538952 
L 338.378008 441 
z
" style="fill:#453882;"/>
   </g>
   <g id="PathCollection_6">
    <path clip-path="url(#p1a8f9b2275)" d="M 207.147236 326.452066 
L 207.221538 325.795089 
L 255.295385 220.177873 
L 321.076829 175.027934 
L 375.160839 60.48 
L 350.237119 60.48 
L 290.143829 175.027934 
L 255.295385 197.406589 
L 207.221538 281.191989 
L 201.344881 326.452066 
L 167.399154 441 
L 174.723512 441 
z
" style="fill:#414287;"/>
   </g>
   <g id="PathCollection_7">
    <path clip-path="url(#p1a8f9b2275)" d="M 201.344881 326.452066 
L 207.221538 281.191989 
L 255.295385 197.406589 
L 290.143829 175.027934 
L 350.237119 60.48 
L 325.313398 60.48 
L 259.210829 175.027934 
L 255.295385 177.396396 
L 207.221538 246.104357 
L 195.542525 326.452066 
L 160.074796 441 
L 167.399154 441 
z
" style="fill:#3d4d8a;"/>
   </g>
   <g id="PathCollection_8">
    <path clip-path="url(#p1a8f9b2275)" d="M 159.147692 441 
L 160.074796 441 
L 195.542525 326.452066 
L 207.221538 246.104357 
L 255.295385 177.396396 
L 259.210829 175.027934 
L 325.313398 60.48 
L 300.389678 60.48 
L 255.295385 128.450779 
L 239.643793 175.027934 
L 207.221538 217.177532 
L 189.740169 326.452066 
L 159.147692 419.040136 
L 155.255485 441 
z
" style="fill:#39568c;"/>
   </g>
   <g id="PathCollection_9">
    <path clip-path="url(#p1a8f9b2275)" d="M 159.147692 419.040136 
L 189.740169 326.452066 
L 207.221538 217.177532 
L 239.643793 175.027934 
L 255.295385 128.450779 
L 300.389678 60.48 
L 275.465958 60.48 
L 255.295385 87.499855 
L 221.723938 175.027934 
L 207.221538 192.56778 
L 183.937813 326.452066 
L 159.147692 397.029751 
L 150.79921 441 
L 155.255485 441 
z
" style="fill:#34608d;"/>
   </g>
   <g id="PathCollection_10">
    <path clip-path="url(#p1a8f9b2275)" d="M 159.147692 397.029751 
L 183.937813 326.452066 
L 207.221538 192.56778 
L 221.723938 175.027934 
L 255.295385 87.499855 
L 275.465958 60.48 
L 255.295385 60.48 
L 252.648053 60.48 
L 207.221538 166.169253 
L 206.090404 175.027934 
L 178.135457 326.452066 
L 159.147692 377.609316 
L 146.342935 441 
L 150.79921 441 
z
" style="fill:#30698e;"/>
   </g>
   <g id="PathCollection_11">
    <path clip-path="url(#p1a8f9b2275)" d="M 159.147692 377.609316 
L 178.135457 326.452066 
L 206.090404 175.027934 
L 207.221538 166.169253 
L 252.648053 60.48 
L 238.76644 60.48 
L 207.221538 126.191081 
L 200.159158 175.027934 
L 172.333101 326.452066 
L 159.147692 360.232981 
L 141.88666 441 
L 146.342935 441 
z
" style="fill:#2c728e;"/>
   </g>
   <g id="PathCollection_12">
    <path clip-path="url(#p1a8f9b2275)" d="M 159.147692 360.232981 
L 172.333101 326.452066 
L 200.159158 175.027934 
L 207.221538 126.191081 
L 238.76644 60.48 
L 224.884827 60.48 
L 207.221538 94.024932 
L 194.227912 175.027934 
L 166.530746 326.452066 
L 159.147692 344.511129 
L 137.430385 441 
L 141.88666 441 
z
" style="fill:#297b8e;"/>
   </g>
   <g id="PathCollection_13">
    <path clip-path="url(#p1a8f9b2275)" d="M 159.147692 344.511129 
L 166.530746 326.452066 
L 194.227912 175.027934 
L 207.221538 94.024932 
L 224.884827 60.48 
L 211.003215 60.48 
L 207.221538 67.11119 
L 188.296666 175.027934 
L 160.72839 326.452066 
L 159.147692 330.155907 
L 132.97411 441 
L 137.430385 441 
z
" style="fill:#25838e;"/>
   </g>
   <g id="PathCollection_14">
    <path clip-path="url(#p1a8f9b2275)" d="M 159.147692 330.155907 
L 160.72839 326.452066 
L 188.296666 175.027934 
L 207.221538 67.11119 
L 211.003215 60.48 
L 207.221538 60.48 
L 199.68664 60.48 
L 182.365421 175.027934 
L 159.147692 291.557057 
L 156.021503 326.452066 
L 128.517834 441 
L 132.97411 441 
z
" style="fill:#228c8d;"/>
   </g>
   <g id="PathCollection_15">
    <path clip-path="url(#p1a8f9b2275)" d="M 156.021503 326.452066 
L 159.147692 291.557057 
L 182.365421 175.027934 
L 199.68664 60.48 
L 189.330482 60.48 
L 176.434175 175.027934 
L 159.147692 253.151195 
L 151.724787 326.452066 
L 124.061559 441 
L 128.517834 441 
z
" style="fill:#1f948c;"/>
   </g>
   <g id="PathCollection_16">
    <path clip-path="url(#p1a8f9b2275)" d="M 151.724787 326.452066 
L 159.147692 253.151195 
L 176.434175 175.027934 
L 189.330482 60.48 
L 178.974324 60.48 
L 170.502929 175.027934 
L 159.147692 222.009182 
L 147.428072 326.452066 
L 119.605284 441 
L 124.061559 441 
z
" style="fill:#1e9d89;"/>
   </g>
   <g id="PathCollection_17">
    <path clip-path="url(#p1a8f9b2275)" d="M 147.428072 326.452066 
L 159.147692 222.009182 
L 170.502929 175.027934 
L 178.974324 60.48 
L 168.618166 60.48 
L 164.571683 175.027934 
L 159.147692 195.815532 
L 143.131357 326.452066 
L 115.149009 441 
L 119.605284 441 
z
" style="fill:#21a585;"/>
   </g>
   <g id="PathCollection_18">
    <path clip-path="url(#p1a8f9b2275)" d="M 111.073846 441 
L 115.149009 441 
L 143.131357 326.452066 
L 159.147692 195.815532 
L 164.571683 175.027934 
L 168.618166 60.48 
L 159.147692 60.48 
L 158.617905 60.48 
L 158.598658 175.027934 
L 138.834641 326.452066 
L 111.073846 438.855064 
L 110.445812 441 
z
" style="fill:#28ae80;"/>
   </g>
   <g id="PathCollection_19">
    <path clip-path="url(#p1a8f9b2275)" d="M 111.073846 438.855064 
L 138.834641 326.452066 
L 158.598658 175.027934 
L 158.617905 60.48 
L 152.423198 60.48 
L 152.178888 175.027934 
L 134.537926 326.452066 
L 111.073846 415.645618 
L 103.102321 441 
L 110.445812 441 
z
" style="fill:#34b679;"/>
   </g>
   <g id="PathCollection_20">
    <path clip-path="url(#p1a8f9b2275)" d="M 111.073846 415.645618 
L 134.537926 326.452066 
L 152.178888 175.027934 
L 152.423198 60.48 
L 146.22849 60.48 
L 145.759118 175.027934 
L 130.24121 326.452066 
L 111.073846 395.297993 
L 95.75883 441 
L 103.102321 441 
z
" style="fill:#42be71;"/>
   </g>
   <g id="PathCollection_21">
    <path clip-path="url(#p1a8f9b2275)" d="M 111.073846 395.297993 
L 130.24121 326.452066 
L 145.759118 175.027934 
L 146.22849 60.48 
L 140.033782 60.48 
L 139.339347 175.027934 
L 125.944495 326.452066 
L 111.073846 377.183281 
L 88.415339 441 
L 95.75883 441 
z
" style="fill:#54c568;"/>
   </g>
   <g id="PathCollection_22">
    <path clip-path="url(#p1a8f9b2275)" d="M 111.073846 377.183281 
L 125.944495 326.452066 
L 139.339347 175.027934 
L 140.033782 60.48 
L 133.839074 60.48 
L 132.919577 175.027934 
L 121.64778 326.452066 
L 111.073846 360.859512 
L 81.071848 441 
L 88.415339 441 
z
" style="fill:#67cc5c;"/>
   </g>
   <g id="PathCollection_23">
    <path clip-path="url(#p1a8f9b2275)" d="M 111.073846 360.859512 
L 121.64778 326.452066 
L 132.919577 175.027934 
L 133.839074 60.48 
L 127.644366 60.48 
L 126.499807 175.027934 
L 117.351064 326.452066 
L 111.073846 346.004202 
L 73.728357 441 
L 81.071848 441 
z
" style="fill:#7cd250;"/>
   </g>
   <g id="PathCollection_24">
    <path clip-path="url(#p1a8f9b2275)" d="M 111.073846 346.004202 
L 117.351064 326.452066 
L 126.499807 175.027934 
L 127.644366 60.48 
L 121.449658 60.48 
L 120.080037 175.027934 
L 113.054349 326.452066 
L 111.073846 332.374818 
L 66.384866 441 
L 73.728357 441 
z
" style="fill:#93d741;"/>
   </g>
   <g id="PathCollection_25">
    <path clip-path="url(#p1a8f9b2275)" d="M 111.073846 332.374818 
L 113.054349 326.452066 
L 120.080037 175.027934 
L 121.449658 60.48 
L 115.25495 60.48 
L 113.660267 175.027934 
L 111.073846 224.03646 
L 94.996716 326.452066 
L 63 393.322975 
L 63 441 
L 66.384866 441 
z
" style="fill:#addc30;"/>
   </g>
   <g id="PathCollection_26">
    <path clip-path="url(#p1a8f9b2275)" d="M 94.996716 326.452066 
L 111.073846 224.03646 
L 113.660267 175.027934 
L 115.25495 60.48 
L 111.073846 60.48 
L 102.74467 60.48 
L 97.238127 175.027934 
L 65.172661 326.452066 
L 63 330.229254 
L 63 393.322975 
z
" style="fill:#c5e021;"/>
   </g>
   <g id="PathCollection_27">
    <path clip-path="url(#p1a8f9b2275)" d="M 65.172661 326.452066 
L 97.238127 175.027934 
L 102.74467 60.48 
L 77.120559 60.48 
L 74.067228 175.027934 
L 63 212.73318 
L 63 326.452066 
L 63 330.229254 
z
" style="fill:#dde318;"/>
   </g>
   <g id="PathCollection_28">
    <path clip-path="url(#p1a8f9b2275)" d="M 74.067228 175.027934 
L 77.120559 60.48 
L 63 60.48 
L 63 175.027934 
L 63 212.73318 
z
" style="fill:#f4e61e;"/>
   </g>
   <g id="matplotlib.axis_1">
    <g id="xtick_1">
     <g id="line2d_1">
      <defs>
       <path d="M 0 0 
L 0 3.5 
" id="mbff40c3c49" style="stroke:#000000;stroke-width:0.8;"/>
      </defs>
      <g>
       <use style="stroke:#000000;stroke-width:0.8;" x="135.110769" xlink:href="#mbff40c3c49" y="441"/>
      </g>
     </g>
     <g id="text_1">
      <!-- $1$ -->
      <defs>
       <path d="M 29.09375 68 
L 11.09375 59 
L 11.09375 57.59375 
C 12.296875 58.09375 13.40625 58.484375 13.796875 58.6875 
C 15.59375 59.390625 17.296875 59.78125 18.296875 59.78125 
C 20.40625 59.78125 21.296875 58.296875 21.296875 55.078125 
L 21.296875 9.359375 
C 21.296875 6.03125 20.5 3.71875 18.90625 2.796875 
C 17.40625 1.890625 16 1.59375 11.796875 1.5 
L 11.796875 0 
L 39.40625 0 
L 39.40625 1.5 
C 31.5 1.59375 29.90625 2.609375 29.90625 7.453125 
L 29.90625 67.796875 
z
" id="Nimbus_Roman_No9_L_Regular-49"/>
      </defs>
      <g transform="translate(130.129449 461.509155)scale(0.2 -0.2)">
       <use transform="scale(0.996264)" xlink:href="#Nimbus_Roman_No9_L_Regular-49"/>
      </g>
     </g>
    </g>
    <g id="xtick_2">
     <g id="line2d_2">
      <g>
       <use style="stroke:#000000;stroke-width:0.8;" x="255.295385" xlink:href="#mbff40c3c49" y="441"/>
      </g>
     </g>
     <g id="text_2">
      <!-- $2$ -->
      <defs>
       <path d="M 47.5 13.734375 
L 46.203125 14.25 
C 42.5 8.5 41.203125 7.59375 36.703125 7.59375 
L 12.796875 7.59375 
L 29.59375 25.328125 
C 38.5 34.703125 42.40625 42.359375 42.40625 50.21875 
C 42.40625 60.28125 34.296875 68 23.90625 68 
C 18.40625 68 13.203125 65.796875 9.5 61.796875 
C 6.296875 58.375 4.796875 55.15625 3.09375 48 
L 5.203125 47.484375 
C 9.203125 57.359375 12.796875 60.59375 19.703125 60.59375 
C 28.09375 60.59375 33.796875 54.84375 33.796875 46.390625 
C 33.796875 38.53125 29.203125 29.15625 20.796875 20.1875 
L 3 1.1875 
L 3 0 
L 42 0 
z
" id="Nimbus_Roman_No9_L_Regular-50"/>
      </defs>
      <g transform="translate(250.314065 461.509155)scale(0.2 -0.2)">
       <use transform="scale(0.996264)" xlink:href="#Nimbus_Roman_No9_L_Regular-50"/>
      </g>
     </g>
    </g>
    <g id="xtick_3">
     <g id="line2d_3">
      <g>
       <use style="stroke:#000000;stroke-width:0.8;" x="375.48" xlink:href="#mbff40c3c49" y="441"/>
      </g>
     </g>
     <g id="text_3">
      <!-- $3$ -->
      <defs>
       <path d="M 15.296875 33.390625 
C 21.203125 33.390625 23.5 33.1875 25.90625 32.296875 
C 32.09375 30.09375 36 24.390625 36 17.5 
C 36 9.09375 30.296875 2.59375 22.90625 2.59375 
C 20.203125 2.59375 18.203125 3.296875 14.5 5.6875 
C 11.5 7.5 9.796875 8.1875 8.09375 8.1875 
C 5.796875 8.1875 4.296875 6.796875 4.296875 4.6875 
C 4.296875 1.1875 8.59375 -1 15.59375 -1 
C 23.296875 -1 31.203125 1.59375 35.90625 5.6875 
C 40.59375 9.796875 43.203125 15.59375 43.203125 22.296875 
C 43.203125 27.390625 41.59375 32.09375 38.703125 35.1875 
C 36.703125 37.390625 34.796875 38.59375 30.40625 40.5 
C 37.296875 45.1875 39.796875 48.890625 39.796875 54.296875 
C 39.796875 62.390625 33.40625 68 24.203125 68 
C 19.203125 68 14.796875 66.296875 11.203125 63.09375 
C 8.203125 60.390625 6.703125 57.796875 4.5 51.796875 
L 6 51.390625 
C 10.09375 58.703125 14.59375 61.984375 20.90625 61.984375 
C 27.40625 61.984375 31.90625 57.59375 31.90625 51.296875 
C 31.90625 47.6875 30.40625 44.09375 27.90625 41.59375 
C 24.90625 38.59375 22.09375 37.09375 15.296875 34.6875 
z
" id="Nimbus_Roman_No9_L_Regular-51"/>
      </defs>
      <g transform="translate(370.49868 461.509155)scale(0.2 -0.2)">
       <use transform="scale(0.996264)" xlink:href="#Nimbus_Roman_No9_L_Regular-51"/>
      </g>
     </g>
    </g>
    <g id="text_4">
     <!-- Distance $L_P/\sigma$ -->
     <defs>
      <path d="M 10.40625 10.890625 
C 10.40625 3.6875 9.203125 2.390625 1.59375 1.890625 
L 1.59375 0 
L 30 0 
C 41.59375 0 52.09375 3.296875 58.296875 8.875 
C 64.796875 14.75 68.5 23.625 68.5 33.296875 
C 68.5 42.265625 65.5 50.03125 60 55.515625 
C 53.203125 62.390625 42.296875 66 28.59375 66 
L 1.59375 66 
L 1.59375 64.09375 
C 9.5 63.390625 10.40625 62.484375 10.40625 55.09375 
z
M 20.59375 58.40625 
C 20.59375 61.5 21.703125 62.296875 25.796875 62.296875 
C 34.40625 62.296875 40.90625 60.6875 45.703125 57.3125 
C 53.5 51.921875 57.59375 43.359375 57.59375 32.59375 
C 57.59375 20.828125 53.5 12.46875 45.40625 7.78125 
C 40.296875 4.890625 34.5 3.6875 25.796875 3.6875 
C 21.796875 3.6875 20.59375 4.59375 20.59375 7.78125 
z
" id="Nimbus_Roman_No9_L_Regular-68"/>
      <path d="M 17.5 46 
L 2 40.5 
L 2 39 
L 2.796875 39.09375 
C 4 39.296875 5.296875 39.390625 6.203125 39.390625 
C 8.59375 39.390625 9.5 37.796875 9.5 33.390625 
L 9.5 10.1875 
C 9.5 3 8.5 1.890625 1.59375 1.5 
L 1.59375 0 
L 25.296875 0 
L 25.296875 1.5 
C 18.703125 2 17.90625 3 17.90625 10.1875 
L 17.90625 45.6875 
z
M 12.796875 68 
C 10.09375 68 7.796875 65.6875 7.796875 62.890625 
C 7.796875 60.09375 10 57.796875 12.796875 57.796875 
C 15.703125 57.796875 18 59.984375 18 62.890625 
C 18 65.6875 15.703125 68 12.796875 68 
z
" id="Nimbus_Roman_No9_L_Regular-105"/>
      <path d="M 31.5 31.390625 
L 31.09375 45 
L 30 45 
L 29.796875 44.796875 
C 28.90625 44.09375 28.796875 43.984375 28.40625 43.984375 
C 27.796875 43.984375 26.796875 44.1875 25.703125 44.6875 
C 23.5 45.59375 21.296875 46 18.703125 46 
C 10.796875 46 5.09375 40.890625 5.09375 33.671875 
C 5.09375 28.0625 8.296875 24.046875 16.796875 19.234375 
L 22.59375 15.921875 
C 26.09375 13.921875 27.796875 11.515625 27.796875 8.40625 
C 27.796875 4 24.59375 1.1875 19.5 1.1875 
C 16.09375 1.1875 13 2.5 11.09375 4.703125 
C 9 7.203125 8.09375 9.515625 6.796875 15.21875 
L 5.203125 15.21875 
L 5.203125 -0.40625 
L 6.5 -0.40625 
C 7.203125 0.59375 7.59375 0.796875 8.796875 0.796875 
C 9.703125 0.796875 11.09375 0.59375 13.40625 0 
C 16.203125 -0.609375 18.90625 -1 20.703125 -1 
C 28.40625 -1 34.796875 4.796875 34.796875 11.8125 
C 34.796875 16.828125 32.40625 20.140625 26.40625 23.75 
L 15.59375 30.15625 
C 12.796875 31.765625 11.296875 34.265625 11.296875 36.96875 
C 11.296875 40.984375 14.40625 43.796875 19 43.796875 
C 24.703125 43.796875 27.703125 40.390625 30 31.46875 
z
" id="Nimbus_Roman_No9_L_Regular-115"/>
      <path d="M 25.5 45 
L 15.40625 45 
L 15.40625 56.59375 
C 15.40625 57.59375 15.296875 57.890625 14.703125 57.890625 
C 14 57 13.40625 56.09375 12.703125 55.09375 
C 8.90625 49.59375 4.59375 44.796875 3 44.390625 
C 1.90625 43.6875 1.296875 42.984375 1.296875 42.484375 
C 1.296875 42.1875 1.40625 41.984375 1.703125 41.796875 
L 7 41.796875 
L 7 11.6875 
C 7 3.296875 10 -1 15.90625 -1 
C 20.796875 -1 24.59375 1.390625 27.90625 6.59375 
L 26.59375 7.6875 
C 24.5 5.1875 22.796875 4.1875 20.59375 4.1875 
C 16.90625 4.1875 15.40625 6.890625 15.40625 13.1875 
L 15.40625 41.796875 
L 25.5 41.796875 
z
" id="Nimbus_Roman_No9_L_Regular-116"/>
      <path d="M 44.203125 6.59375 
C 42.5 5.1875 41.296875 4.6875 39.796875 4.6875 
C 37.5 4.6875 36.796875 6.09375 36.796875 10.5 
L 36.796875 30 
C 36.796875 35.1875 36.296875 38.09375 34.796875 40.5 
C 32.59375 44.09375 28.296875 46 22.40625 46 
C 13 46 5.59375 41.09375 5.59375 34.796875 
C 5.59375 32.5 7.59375 30.5 9.90625 30.5 
C 12.296875 30.5 14.40625 32.5 14.40625 34.6875 
C 14.40625 35.09375 14.296875 35.59375 14.203125 36.296875 
C 14 37.1875 13.90625 38 13.90625 38.6875 
C 13.90625 41.390625 17.09375 43.59375 21.09375 43.59375 
C 26 43.59375 28.703125 40.6875 28.703125 35.296875 
L 28.703125 29.1875 
C 13.296875 23 11.59375 22.1875 7.296875 18.390625 
C 5.09375 16.390625 3.703125 13 3.703125 9.6875 
C 3.703125 3.390625 8.09375 -1 14.203125 -1 
C 18.59375 -1 22.703125 1.09375 28.796875 6.296875 
C 29.296875 1.09375 31.09375 -1 35.203125 -1 
C 38.59375 -1 40.703125 0.1875 44.203125 4 
z
M 28.703125 12.296875 
C 28.703125 9.1875 28.203125 8.296875 26.09375 7.09375 
C 23.703125 5.6875 20.90625 4.796875 18.796875 4.796875 
C 15.296875 4.796875 12.5 8.1875 12.5 12.5 
L 12.5 12.890625 
C 12.5 18.796875 16.59375 22.390625 28.703125 26.796875 
z
" id="Nimbus_Roman_No9_L_Regular-97"/>
      <path d="M 1.59375 39.796875 
C 2.203125 40.09375 3.203125 40.1875 4.296875 40.1875 
C 7.09375 40.1875 8 38.6875 8 33.796875 
L 8 9 
C 8 3.296875 6.90625 1.890625 1.796875 1.5 
L 1.796875 0 
L 23 0 
L 23 1.5 
C 17.90625 1.890625 16.40625 3.09375 16.40625 6.6875 
L 16.40625 34.796875 
C 21.203125 39.296875 23.40625 40.484375 26.703125 40.484375 
C 31.59375 40.484375 34 37.390625 34 30.796875 
L 34 9.890625 
C 34 3.59375 32.703125 1.890625 27.703125 1.5 
L 27.703125 0 
L 48.5 0 
L 48.5 1.5 
C 43.59375 2 42.40625 3.1875 42.40625 8.09375 
L 42.40625 31 
C 42.40625 40.390625 38 46 30.59375 46 
C 26 46 22.90625 44.296875 16.09375 37.890625 
L 16.09375 45.796875 
L 15.40625 46 
C 10.5 44.1875 7.09375 43.09375 1.59375 41.484375 
z
" id="Nimbus_Roman_No9_L_Regular-110"/>
      <path d="M 39.796875 15.59375 
C 35 8.59375 31.40625 6.1875 25.703125 6.1875 
C 16.59375 6.1875 10.203125 14.1875 10.203125 25.6875 
C 10.203125 35.984375 15.703125 43.09375 23.796875 43.09375 
C 27.40625 43.09375 28.703125 41.984375 29.703125 38.296875 
L 30.296875 36.09375 
C 31.09375 33.296875 32.90625 31.484375 35 31.484375 
C 37.59375 31.484375 39.796875 33.390625 39.796875 35.6875 
C 39.796875 41.296875 32.796875 46 24.40625 46 
C 19.5 46 14.40625 43.984375 10.296875 40.390625 
C 5.296875 35.984375 2.5 29.1875 2.5 21.296875 
C 2.5 8.296875 10.40625 -1 21.5 -1 
C 26 -1 30 0.59375 33.59375 3.6875 
C 36.296875 6.09375 38.203125 8.796875 41.203125 14.6875 
z
" id="Nimbus_Roman_No9_L_Regular-99"/>
      <path d="M 40.796875 16.4375 
C 36 8.8125 31.703125 5.890625 25.296875 5.890625 
C 19.59375 5.890625 15.296875 8.8125 12.40625 14.53125 
C 10.59375 18.34375 9.90625 21.65625 9.703125 27.796875 
L 40.5 27.796875 
C 39.703125 34.265625 38.703125 37.140625 36.203125 40.3125 
C 33.203125 43.890625 28.59375 46 23.40625 46 
C 18.40625 46 13.703125 44.1875 9.90625 40.8125 
C 5.203125 36.734375 2.5 29.6875 2.5 21.46875 
C 2.5 7.59375 9.703125 -1 21.203125 -1 
C 30.703125 -1 38.203125 4.890625 42.40625 15.734375 
z
M 9.90625 31 
C 11 38.71875 14.40625 42.390625 20.5 42.390625 
C 26.59375 42.390625 29 39.609375 30.296875 31 
z
" id="Nimbus_Roman_No9_L_Regular-101"/>
      <path d="M 40.296875 65 
L 13 65 
L 13 63.390625 
C 19.203125 62.796875 20.703125 62 20.703125 59.109375 
C 20.703125 57.71875 20.296875 55.4375 19.59375 52.953125 
L 7.296875 8.96875 
C 5.5 3.1875 4.796875 2.59375 -0.796875 1.59375 
L -0.796875 0 
L 50.09375 0 
L 55.90625 17.828125 
L 53.90625 18.421875 
C 50.40625 11.25 47.703125 8.0625 43.296875 5.875 
C 39.796875 4.1875 35.703125 3.59375 27 3.59375 
C 19.40625 3.59375 16.90625 4.390625 16.90625 6.96875 
C 16.90625 7.671875 17.40625 10.0625 17.90625 11.953125 
L 30.203125 56.03125 
C 31.703125 61.109375 34.296875 62.984375 40.296875 63.390625 
z
" id="Nimbus_Roman_No9_L_Regular_Italic-76"/>
      <path d="M 14.59375 63.390625 
C 20.296875 62.6875 21.703125 61.796875 21.703125 59.203125 
C 21.703125 57.8125 21.296875 55.71875 20 51.234375 
L 8.203125 8.9375 
C 6.40625 2.984375 5.703125 2.390625 0 1.59375 
L 0 0 
L 24.5 0 
L 24.5 1.59375 
C 18.203125 2.484375 17.703125 2.78125 17.703125 6.15625 
C 17.703125 7.359375 17.90625 8.34375 18.90625 11.921875 
L 24.203125 31.09375 
C 26.703125 30.484375 29.296875 30.296875 33.40625 30.296875 
C 41.59375 30.296875 48.296875 31.984375 52.59375 35.09375 
C 57.59375 38.78125 60.5 44.25 60.5 50.140625 
C 60.5 59.703125 53 65 39.40625 65 
L 14.59375 65 
z
M 32.203125 59.203125 
C 32.796875 61.296875 34 61.984375 36.796875 61.984375 
C 40.703125 61.984375 44.5 61 46.5 59.59375 
C 49.09375 57.8125 50.203125 54.8125 50.203125 50.140625 
C 50.203125 43.65625 47.90625 39.078125 43.5 36.484375 
C 40.40625 34.796875 36.5 34 30.296875 34 
C 28.59375 34 27.796875 34.09375 25.09375 34.484375 
z
" id="Nimbus_Roman_No9_L_Regular_Italic-80"/>
      <path d="M 43.90625 71.203125 
C 44.40625 72.5 44.40625 72.890625 44.40625 73 
C 44.40625 74.09375 43.5 75 42.40625 75 
C 41.703125 75 41 74.6875 40.703125 74.09375 
L 6 -21.203125 
C 5.5 -22.5 5.5 -22.90625 5.5 -23 
C 5.5 -24.109375 6.40625 -25 7.5 -25 
C 8.796875 -25 9.09375 -24.3125 9.703125 -22.609375 
z
" id="CMMI10-61"/>
      <path d="M 58.796875 41.296875 
L 58.796875 50 
L 36.09375 50 
C 28.203125 50 22.796875 49.09375 18.203125 47.09375 
C 8.5 42.6875 3 34.890625 3 25.59375 
C 3 19.09375 5.5 12.5 10.09375 7.296875 
C 15.296875 1.296875 21 -1.3125 28.90625 -1.3125 
C 35.703125 -1.3125 41.5 0.796875 46.09375 4.890625 
C 50.59375 9 53.296875 14.6875 53.296875 20.09375 
C 53.296875 27.6875 47.5 35.1875 36.90625 41.296875 
z
M 32.203125 41.296875 
C 40.796875 32.390625 42.703125 28.59375 42.703125 20.390625 
C 42.703125 10 37.703125 3 30.296875 3 
C 21.09375 3 13.5 13.09375 13.5 25.390625 
C 13.5 35 19.703125 41.296875 29.09375 41.296875 
z
" id="Standard_Symbols_L-115"/>
     </defs>
     <g transform="translate(160.60912 485.434435)scale(0.2 -0.2)">
      <use transform="translate(0 14.943915)scale(0.996264)" xlink:href="#Nimbus_Roman_No9_L_Regular-68"/>
      <use transform="translate(71.929985 14.943915)scale(0.996264)" xlink:href="#Nimbus_Roman_No9_L_Regular-105"/>
      <use transform="translate(99.625154 14.943915)scale(0.996264)" xlink:href="#Nimbus_Roman_No9_L_Regular-115"/>
      <use transform="translate(138.378861 14.943915)scale(0.996264)" xlink:href="#Nimbus_Roman_No9_L_Regular-116"/>
      <use transform="translate(166.07403 14.943915)scale(0.996264)" xlink:href="#Nimbus_Roman_No9_L_Regular-97"/>
      <use transform="translate(210.307599 14.943915)scale(0.996264)" xlink:href="#Nimbus_Roman_No9_L_Regular-110"/>
      <use transform="translate(260.120799 14.943915)scale(0.996264)" xlink:href="#Nimbus_Roman_No9_L_Regular-99"/>
      <use transform="translate(304.354368 14.943915)scale(0.996264)" xlink:href="#Nimbus_Roman_No9_L_Regular-101"/>
      <use transform="translate(373.494537 14.943915)scale(0.996264)" xlink:href="#Nimbus_Roman_No9_L_Regular_Italic-76"/>
      <use transform="translate(428.886214 0)scale(0.737241)" xlink:href="#Nimbus_Roman_No9_L_Regular_Italic-80"/>
      <use transform="translate(474.429675 14.943915)scale(0.996264)" xlink:href="#CMMI10-61"/>
      <use transform="translate(524.242875 14.943915)scale(0.996264)" xlink:href="#Standard_Symbols_L-115"/>
     </g>
    </g>
   </g>
   <g id="matplotlib.axis_2">
    <g id="ytick_1">
     <g id="line2d_4">
      <defs>
       <path d="M 0 0 
L -3.5 0 
" id="me24c4961f7" style="stroke:#000000;stroke-width:0.8;"/>
      </defs>
      <g>
       <use style="stroke:#000000;stroke-width:0.8;" x="63" xlink:href="#me24c4961f7" y="441"/>
      </g>
     </g>
     <g id="text_5">
      <!-- 0.001 -->
      <defs>
       <path d="M 25.40625 68 
C 19.90625 68 15.703125 66.296875 12 62.796875 
C 6.203125 57.203125 2.40625 45.6875 2.40625 34 
C 2.40625 23.09375 5.703125 11.390625 10.40625 5.796875 
C 14.09375 1.390625 19.203125 -1 25 -1 
C 30.09375 -1 34.40625 0.6875 38 4.1875 
C 43.796875 9.6875 47.59375 21.296875 47.59375 33.390625 
C 47.59375 53.890625 38.5 68 25.40625 68 
z
M 25.09375 65.390625 
C 33.5 65.390625 38 54.09375 38 33.1875 
C 38 12.296875 33.59375 1.59375 25 1.59375 
C 16.40625 1.59375 12 12.296875 12 33.09375 
C 12 54.296875 16.5 65.390625 25.09375 65.390625 
z
" id="Nimbus_Roman_No9_L_Regular-48"/>
       <path d="M 12.5 10.09375 
C 9.5 10.09375 7 7.5 7 4.390625 
C 7 1.5 9.5 -1 12.40625 -1 
C 15.5 -1 18.09375 1.5 18.09375 4.390625 
C 18.09375 7.5 15.5 10.09375 12.5 10.09375 
z
" id="Nimbus_Roman_No9_L_Regular-46"/>
      </defs>
      <g transform="translate(11.16812 447.754578)scale(0.2 -0.2)">
       <use transform="scale(0.996264)" xlink:href="#Nimbus_Roman_No9_L_Regular-48"/>
       <use transform="translate(49.8132 0)scale(0.996264)" xlink:href="#Nimbus_Roman_No9_L_Regular-46"/>
       <use transform="translate(74.719801 0)scale(0.996264)" xlink:href="#Nimbus_Roman_No9_L_Regular-48"/>
       <use transform="translate(124.533001 0)scale(0.996264)" xlink:href="#Nimbus_Roman_No9_L_Regular-48"/>
       <use transform="translate(174.346202 0)scale(0.996264)" xlink:href="#Nimbus_Roman_No9_L_Regular-49"/>
      </g>
     </g>
    </g>
    <g id="ytick_2">
     <g id="line2d_5">
      <g>
       <use style="stroke:#000000;stroke-width:0.8;" x="63" xlink:href="#me24c4961f7" y="60.48"/>
      </g>
     </g>
     <g id="text_6">
      <!-- 0.010 -->
      <g transform="translate(11.16812 67.234578)scale(0.2 -0.2)">
       <use transform="scale(0.996264)" xlink:href="#Nimbus_Roman_No9_L_Regular-48"/>
       <use transform="translate(49.8132 0)scale(0.996264)" xlink:href="#Nimbus_Roman_No9_L_Regular-46"/>
       <use transform="translate(74.719801 0)scale(0.996264)" xlink:href="#Nimbus_Roman_No9_L_Regular-48"/>
       <use transform="translate(124.533001 0)scale(0.996264)" xlink:href="#Nimbus_Roman_No9_L_Regular-49"/>
       <use transform="translate(174.346202 0)scale(0.996264)" xlink:href="#Nimbus_Roman_No9_L_Regular-48"/>
      </g>
     </g>
    </g>
    <g id="ytick_3">
     <g id="line2d_6">
      <defs>
       <path d="M 0 0 
L -2 0 
" id="mb280e927d8" style="stroke:#000000;stroke-width:0.6;"/>
      </defs>
      <g>
       <use style="stroke:#000000;stroke-width:0.6;" x="63" xlink:href="#mb280e927d8" y="326.452066"/>
      </g>
     </g>
     <g id="text_7">
      <!-- 0.002 -->
      <g transform="translate(12.76812 333.206644)scale(0.2 -0.2)">
       <use transform="scale(0.996264)" xlink:href="#Nimbus_Roman_No9_L_Regular-48"/>
       <use transform="translate(49.8132 0)scale(0.996264)" xlink:href="#Nimbus_Roman_No9_L_Regular-46"/>
       <use transform="translate(74.719801 0)scale(0.996264)" xlink:href="#Nimbus_Roman_No9_L_Regular-48"/>
       <use transform="translate(124.533001 0)scale(0.996264)" xlink:href="#Nimbus_Roman_No9_L_Regular-48"/>
       <use transform="translate(174.346202 0)scale(0.996264)" xlink:href="#Nimbus_Roman_No9_L_Regular-50"/>
      </g>
     </g>
    </g>
    <g id="ytick_4">
     <g id="line2d_7">
      <g>
       <use style="stroke:#000000;stroke-width:0.6;" x="63" xlink:href="#mb280e927d8" y="259.44582"/>
      </g>
     </g>
     <g id="text_8">
      <!-- 0.003 -->
      <g transform="translate(12.76812 266.200398)scale(0.2 -0.2)">
       <use transform="scale(0.996264)" xlink:href="#Nimbus_Roman_No9_L_Regular-48"/>
       <use transform="translate(49.8132 0)scale(0.996264)" xlink:href="#Nimbus_Roman_No9_L_Regular-46"/>
       <use transform="translate(74.719801 0)scale(0.996264)" xlink:href="#Nimbus_Roman_No9_L_Regular-48"/>
       <use transform="translate(124.533001 0)scale(0.996264)" xlink:href="#Nimbus_Roman_No9_L_Regular-48"/>
       <use transform="translate(174.346202 0)scale(0.996264)" xlink:href="#Nimbus_Roman_No9_L_Regular-51"/>
      </g>
     </g>
    </g>
    <g id="ytick_5">
     <g id="line2d_8">
      <g>
       <use style="stroke:#000000;stroke-width:0.6;" x="63" xlink:href="#mb280e927d8" y="211.904132"/>
      </g>
     </g>
     <g id="text_9">
      <!-- 0.004 -->
      <defs>
       <path d="M 47.203125 23.390625 
L 37 23.390625 
L 37 68 
L 32.59375 68 
L 1.203125 23.390625 
L 1.203125 17 
L 29.296875 17 
L 29.296875 0 
L 37 0 
L 37 17 
L 47.203125 17 
z
M 29.203125 23.390625 
L 5.203125 23.390625 
L 29.203125 57.765625 
z
" id="Nimbus_Roman_No9_L_Regular-52"/>
      </defs>
      <g transform="translate(12.76812 218.65871)scale(0.2 -0.2)">
       <use transform="scale(0.996264)" xlink:href="#Nimbus_Roman_No9_L_Regular-48"/>
       <use transform="translate(49.8132 0)scale(0.996264)" xlink:href="#Nimbus_Roman_No9_L_Regular-46"/>
       <use transform="translate(74.719801 0)scale(0.996264)" xlink:href="#Nimbus_Roman_No9_L_Regular-48"/>
       <use transform="translate(124.533001 0)scale(0.996264)" xlink:href="#Nimbus_Roman_No9_L_Regular-48"/>
       <use transform="translate(174.346202 0)scale(0.996264)" xlink:href="#Nimbus_Roman_No9_L_Regular-52"/>
      </g>
     </g>
    </g>
    <g id="ytick_6">
     <g id="line2d_9">
      <g>
       <use style="stroke:#000000;stroke-width:0.6;" x="63" xlink:href="#mb280e927d8" y="175.027934"/>
      </g>
     </g>
     <g id="text_10">
      <!-- 0.005 -->
      <defs>
       <path d="M 18.09375 58.09375 
L 37.703125 58.09375 
C 39.296875 58.09375 39.703125 58.296875 40 58.984375 
L 43.796875 67.890625 
L 42.90625 68.59375 
C 41.40625 66.5 40.40625 66 38.296875 66 
L 17.40625 66 
L 6.5 42.453125 
C 6.40625 42.265625 6.40625 42.15625 6.40625 41.96875 
C 6.40625 41.46875 6.796875 41.171875 7.59375 41.171875 
C 10.796875 41.171875 14.796875 40.484375 18.90625 39.1875 
C 30.40625 35.53125 35.703125 29.40625 35.703125 19.609375 
C 35.703125 10.109375 29.59375 2.6875 21.796875 2.6875 
C 19.796875 2.6875 18.09375 3.390625 15.09375 5.5625 
C 11.90625 7.84375 9.59375 8.828125 7.5 8.828125 
C 4.59375 8.828125 3.203125 7.640625 3.203125 5.171875 
C 3.203125 1.390625 7.90625 -1 15.40625 -1 
C 23.796875 -1 31 1.6875 36 6.75 
C 40.59375 11.203125 42.703125 16.84375 42.703125 24.359375 
C 42.703125 31.484375 40.796875 36.03125 35.796875 40.96875 
C 31.40625 45.328125 25.703125 47.609375 13.90625 49.6875 
z
" id="Nimbus_Roman_No9_L_Regular-53"/>
      </defs>
      <g transform="translate(12.76812 181.782512)scale(0.2 -0.2)">
       <use transform="scale(0.996264)" xlink:href="#Nimbus_Roman_No9_L_Regular-48"/>
       <use transform="translate(49.8132 0)scale(0.996264)" xlink:href="#Nimbus_Roman_No9_L_Regular-46"/>
       <use transform="translate(74.719801 0)scale(0.996264)" xlink:href="#Nimbus_Roman_No9_L_Regular-48"/>
       <use transform="translate(124.533001 0)scale(0.996264)" xlink:href="#Nimbus_Roman_No9_L_Regular-48"/>
       <use transform="translate(174.346202 0)scale(0.996264)" xlink:href="#Nimbus_Roman_No9_L_Regular-53"/>
      </g>
     </g>
    </g>
    <g id="ytick_7">
     <g id="line2d_10">
      <g>
       <use style="stroke:#000000;stroke-width:0.6;" x="63" xlink:href="#mb280e927d8" y="144.897886"/>
      </g>
     </g>
     <g id="text_11">
      <!-- 0.006 -->
      <defs>
       <path d="M 44.59375 68.59375 
C 33.203125 67.59375 27.40625 65.6875 20.09375 60.59375 
C 9.296875 52.890625 3.40625 41.484375 3.40625 28.140625 
C 3.40625 19.5 6.09375 10.75 10.40625 5.765625 
C 14.203125 1.390625 19.59375 -1 25.796875 -1 
C 38.203125 -1 46.796875 8.453125 46.796875 22.1875 
C 46.796875 34.90625 39.5 43 28 43 
C 23.59375 43 21.5 42.296875 15.203125 38.484375 
C 17.90625 53.59375 29.09375 64.390625 44.796875 67 
z
M 24.203125 38.390625 
C 32.796875 38.390625 37.796875 31.234375 37.796875 18.796875 
C 37.796875 7.859375 33.90625 1.796875 26.90625 1.796875 
C 18.09375 1.796875 12.703125 11.140625 12.703125 26.5625 
C 12.703125 31.625 13.5 34.421875 15.5 35.90625 
C 17.59375 37.5 20.703125 38.390625 24.203125 38.390625 
z
" id="Nimbus_Roman_No9_L_Regular-54"/>
      </defs>
      <g transform="translate(12.76812 151.652464)scale(0.2 -0.2)">
       <use transform="scale(0.996264)" xlink:href="#Nimbus_Roman_No9_L_Regular-48"/>
       <use transform="translate(49.8132 0)scale(0.996264)" xlink:href="#Nimbus_Roman_No9_L_Regular-46"/>
       <use transform="translate(74.719801 0)scale(0.996264)" xlink:href="#Nimbus_Roman_No9_L_Regular-48"/>
       <use transform="translate(124.533001 0)scale(0.996264)" xlink:href="#Nimbus_Roman_No9_L_Regular-48"/>
       <use transform="translate(174.346202 0)scale(0.996264)" xlink:href="#Nimbus_Roman_No9_L_Regular-54"/>
      </g>
     </g>
    </g>
    <g id="ytick_8">
     <g id="line2d_11">
      <g>
       <use style="stroke:#000000;stroke-width:0.6;" x="63" xlink:href="#mb280e927d8" y="119.423294"/>
      </g>
     </g>
     <g id="text_12">
      <!-- 0.007 -->
      <defs>
       <path d="M 44.90625 66 
L 7.90625 66 
L 2 51.296875 
L 3.703125 50.5 
C 8 57.296875 9.796875 58.59375 15.296875 58.59375 
L 37 58.59375 
L 17.203125 -1 
L 23.703125 -1 
L 44.90625 64.390625 
z
" id="Nimbus_Roman_No9_L_Regular-55"/>
      </defs>
      <g transform="translate(12.76812 126.177871)scale(0.2 -0.2)">
       <use transform="scale(0.996264)" xlink:href="#Nimbus_Roman_No9_L_Regular-48"/>
       <use transform="translate(49.8132 0)scale(0.996264)" xlink:href="#Nimbus_Roman_No9_L_Regular-46"/>
       <use transform="translate(74.719801 0)scale(0.996264)" xlink:href="#Nimbus_Roman_No9_L_Regular-48"/>
       <use transform="translate(124.533001 0)scale(0.996264)" xlink:href="#Nimbus_Roman_No9_L_Regular-48"/>
       <use transform="translate(174.346202 0)scale(0.996264)" xlink:href="#Nimbus_Roman_No9_L_Regular-55"/>
      </g>
     </g>
    </g>
    <g id="ytick_9">
     <g id="line2d_12">
      <g>
       <use style="stroke:#000000;stroke-width:0.6;" x="63" xlink:href="#mb280e927d8" y="97.356198"/>
      </g>
     </g>
     <g id="text_13">
      <!-- 0.008 -->
      <defs>
       <path d="M 29 37.5 
C 38.90625 42.796875 42.40625 47 42.40625 53.796875 
C 42.40625 62 35.203125 68 25.203125 68 
C 14.296875 68 6.203125 61.296875 6.203125 52.203125 
C 6.203125 45.6875 8.09375 42.796875 18.59375 33.59375 
C 7.796875 25.390625 5.59375 22.296875 5.59375 15.5 
C 5.59375 5.796875 13.5 -1 24.796875 -1 
C 36.796875 -1 44.5 5.59375 44.5 15.890625 
C 44.5 23.59375 41.09375 28.5 29 37.5 
z
M 27.203125 27.1875 
C 34.5 22 36.90625 18.390625 36.90625 12.796875 
C 36.90625 6.296875 32.40625 1.796875 25.90625 1.796875 
C 18.296875 1.796875 13.203125 7.59375 13.203125 16.296875 
C 13.203125 22.6875 15.40625 26.890625 21.203125 31.59375 
z
M 26.09375 39.296875 
C 17.203125 45.09375 13.59375 49.6875 13.59375 55.296875 
C 13.59375 61.09375 18.09375 65.1875 24.40625 65.1875 
C 31.203125 65.1875 35.5 60.796875 35.5 53.890625 
C 35.5 48.1875 32.703125 43.6875 27 39.890625 
C 26.5 39.59375 26.5 39.59375 26.09375 39.296875 
z
" id="Nimbus_Roman_No9_L_Regular-56"/>
      </defs>
      <g transform="translate(12.76812 104.110776)scale(0.2 -0.2)">
       <use transform="scale(0.996264)" xlink:href="#Nimbus_Roman_No9_L_Regular-48"/>
       <use transform="translate(49.8132 0)scale(0.996264)" xlink:href="#Nimbus_Roman_No9_L_Regular-46"/>
       <use transform="translate(74.719801 0)scale(0.996264)" xlink:href="#Nimbus_Roman_No9_L_Regular-48"/>
       <use transform="translate(124.533001 0)scale(0.996264)" xlink:href="#Nimbus_Roman_No9_L_Regular-48"/>
       <use transform="translate(174.346202 0)scale(0.996264)" xlink:href="#Nimbus_Roman_No9_L_Regular-56"/>
      </g>
     </g>
    </g>
    <g id="ytick_10">
     <g id="line2d_13">
      <g>
       <use style="stroke:#000000;stroke-width:0.6;" x="63" xlink:href="#mb280e927d8" y="77.89164"/>
      </g>
     </g>
     <g id="text_14">
      <!-- 0.009 -->
      <defs>
       <path d="M 5.90625 -1.90625 
C 17.09375 -0.609375 22.59375 1.296875 29.40625 6.1875 
C 39.796875 13.796875 45.90625 26.1875 45.90625 39.71875 
C 45.90625 56.265625 36.703125 68 23.796875 68 
C 11.90625 68 3 57.875 3 44.328125 
C 3 32.109375 10.203125 24 21 24 
C 26.5 24 30.703125 25.59375 36 29.703125 
C 31.90625 13.390625 20.796875 2.6875 5.59375 0.09375 
z
M 36.203125 35.8125 
C 36.203125 33.8125 35.796875 32.90625 34.703125 32 
C 31.90625 29.59375 28.203125 28.296875 24.59375 28.296875 
C 17 28.296875 12.203125 35.8125 12.203125 47.75 
C 12.203125 53.453125 13.796875 59.46875 15.90625 62.078125 
C 17.59375 64.09375 20.09375 65.1875 23 65.1875 
C 31.703125 65.1875 36.203125 56.5625 36.203125 39.71875 
z
" id="Nimbus_Roman_No9_L_Regular-57"/>
      </defs>
      <g transform="translate(12.76812 84.646218)scale(0.2 -0.2)">
       <use transform="scale(0.996264)" xlink:href="#Nimbus_Roman_No9_L_Regular-48"/>
       <use transform="translate(49.8132 0)scale(0.996264)" xlink:href="#Nimbus_Roman_No9_L_Regular-46"/>
       <use transform="translate(74.719801 0)scale(0.996264)" xlink:href="#Nimbus_Roman_No9_L_Regular-48"/>
       <use transform="translate(124.533001 0)scale(0.996264)" xlink:href="#Nimbus_Roman_No9_L_Regular-48"/>
       <use transform="translate(174.346202 0)scale(0.996264)" xlink:href="#Nimbus_Roman_No9_L_Regular-57"/>
      </g>
     </g>
    </g>
    <g id="text_15">
     <!-- Total RNA in system $\phi^{avg}_R$ -->
     <defs>
      <path d="M 25.40625 61.796875 
L 25.40625 11.953125 
C 25.40625 3.484375 24.296875 2.390625 16 1.890625 
L 16 0 
L 45.203125 0 
L 45.203125 1.890625 
C 37 2.296875 35.59375 3.59375 35.59375 10.859375 
L 35.59375 61.796875 
L 41 61.796875 
C 52.40625 61.796875 54.59375 60 56.90625 49.03125 
L 59.296875 49.03125 
L 58.703125 66 
L 2.296875 66 
L 1.703125 49.03125 
L 4.09375 49.03125 
C 6.5 59.90625 8.796875 61.796875 20 61.796875 
z
" id="Nimbus_Roman_No9_L_Regular-84"/>
      <path d="M 25 46 
C 12 46 2.90625 36.390625 2.90625 22.59375 
C 2.90625 9.09375 12.203125 -1 24.796875 -1 
C 37.40625 -1 47 9.59375 47 23.390625 
C 47 36.5 37.796875 46 25 46 
z
M 23.703125 43.1875 
C 32.09375 43.1875 38 33.59375 38 19.890625 
C 38 8.59375 33.5 1.796875 26 1.796875 
C 22.09375 1.796875 18.40625 4.1875 16.296875 8.1875 
C 13.5 13.390625 11.90625 20.390625 11.90625 27.5 
C 11.90625 37 16.59375 43.1875 23.703125 43.1875 
z
" id="Nimbus_Roman_No9_L_Regular-111"/>
      <path d="M 1.90625 62.296875 
L 2.5 62.296875 
C 3.59375 62.390625 4.796875 62.5 5.59375 62.5 
C 8.796875 62.5 9.796875 61.09375 9.796875 56.390625 
L 9.796875 8.6875 
C 9.796875 3.296875 8.40625 2 2.09375 1.5 
L 2.09375 0 
L 25.703125 0 
L 25.703125 1.5 
C 19.40625 1.890625 18.203125 2.890625 18.203125 8.390625 
L 18.203125 68.09375 
L 17.796875 68.296875 
C 12.59375 66.59375 8.796875 65.59375 1.90625 63.890625 
z
" id="Nimbus_Roman_No9_L_Regular-108"/>
      <path d="M 65.90625 1.890625 
C 62.09375 2.1875 60.09375 3.1875 57.203125 6.578125 
L 36.59375 31.796875 
C 43.296875 33.09375 46.296875 34.28125 49.59375 36.96875 
C 52.796875 39.5625 54.703125 43.75 54.703125 48.4375 
C 54.703125 52.71875 53.40625 56.40625 50.796875 59.296875 
C 47 63.390625 38.703125 66 29.296875 66 
L 1.703125 66 
L 1.703125 64.09375 
C 9.203125 63.296875 10.203125 62.203125 10.203125 55.125 
L 10.203125 11.953125 
C 10.203125 3.6875 9.203125 2.484375 1.703125 1.890625 
L 1.703125 0 
L 29.40625 0 
L 29.40625 1.890625 
C 21.703125 2.390625 20.40625 3.6875 20.40625 10.859375 
L 20.40625 30.5 
L 26 30.703125 
L 49.796875 0 
L 65.90625 0 
z
M 20.40625 58.6875 
C 20.40625 61.484375 21.5 62.296875 25.5 62.296875 
C 38 62.296875 43.796875 57.984375 43.796875 48.59375 
C 43.796875 43.59375 41.703125 39.390625 38.09375 37.484375 
C 33.5 34.890625 30 34.296875 20.40625 34.09375 
z
" id="Nimbus_Roman_No9_L_Regular-82"/>
      <path d="M 61.203125 -1 
L 61.203125 51.359375 
C 61.203125 57.328125 62.203125 61.015625 64.09375 62.3125 
C 65.5 63.296875 66.90625 63.703125 70.703125 64.09375 
L 70.703125 66 
L 47.203125 66 
L 47.203125 64.09375 
C 51 63.796875 52.40625 63.40625 53.90625 62.5 
C 55.90625 61.109375 56.796875 57.53125 56.796875 51.359375 
L 56.796875 17.8125 
L 18.296875 66 
L 1.203125 66 
L 1.203125 64.09375 
C 5.5 64.09375 6.90625 63.296875 10.90625 58.625 
L 10.90625 14.734375 
C 10.90625 4.390625 9.5 2.5 1.203125 1.890625 
L 1.203125 0 
L 24.703125 0 
L 24.703125 1.890625 
C 17 2.296875 15.296875 4.59375 15.296875 14.6875 
L 15.296875 53.890625 
L 59.5 -1 
z
" id="Nimbus_Roman_No9_L_Regular-78"/>
      <path d="M 70.59375 1.890625 
C 66.09375 2.203125 65.09375 3.203125 61.59375 10.71875 
L 36.703125 67 
L 34.703125 67 
L 13.90625 18.546875 
C 7.5 3.71875 6.296875 2.09375 1.5 1.890625 
L 1.5 0 
L 21.296875 0 
L 21.296875 1.890625 
C 16.5 1.890625 14.5 3.203125 14.5 6.046875 
C 14.5 7.265625 14.796875 8.6875 15.296875 10.015625 
L 19.90625 21.890625 
L 46.09375 21.890625 
L 50.203125 12.140625 
C 51.40625 9.40625 52.09375 6.765625 52.09375 5.34375 
C 52.09375 2.796875 50.40625 2 45.09375 1.890625 
L 45.09375 0 
L 70.59375 0 
z
M 21.59375 26 
L 33.09375 53 
L 44.703125 26 
z
" id="Nimbus_Roman_No9_L_Regular-65"/>
      <path d="M 47.5 45 
L 34 45 
L 34 43.484375 
C 37.203125 43.484375 38.796875 42.59375 38.796875 40.984375 
C 38.796875 40.578125 38.703125 39.984375 38.40625 39.28125 
L 28.703125 11.578125 
L 17.203125 36.96875 
C 16.59375 38.375 16.203125 39.6875 16.203125 40.78125 
C 16.203125 42.59375 17.703125 43.296875 22 43.484375 
L 22 45 
L 1.40625 45 
L 1.40625 43.59375 
C 4 43.1875 5.703125 42.09375 6.5 40.390625 
L 17.90625 15.703125 
L 18.203125 14.890625 
L 19.703125 11.890625 
C 22.5 6.859375 24.09375 3.25 24.09375 1.75 
C 24.09375 0.234375 21.796875 -6.078125 20.09375 -9.09375 
C 18.703125 -11.703125 16.5 -13.609375 15.09375 -13.609375 
C 14.5 -13.609375 13.59375 -13.40625 12.59375 -12.90625 
C 10.703125 -12.203125 9 -11.796875 7.296875 -11.796875 
C 5 -11.796875 3 -13.8125 3 -16.203125 
C 3 -19.5 6.203125 -22 10.40625 -22 
C 17.09375 -22 21.90625 -16.40625 27.296875 -1.96875 
L 42.703125 38.984375 
C 44 42.1875 45.09375 43.1875 47.5 43.484375 
z
" id="Nimbus_Roman_No9_L_Regular-121"/>
      <path d="M 1.90625 39.796875 
C 3.203125 40.09375 4 40.1875 5.09375 40.1875 
C 7.703125 40.1875 8.59375 38.59375 8.59375 33.796875 
L 8.59375 8.5 
C 8.59375 3.09375 7.203125 1.59375 1.59375 1.5 
L 1.59375 0 
L 23.796875 0 
L 23.796875 1.5 
C 18.5 1.6875 17 2.796875 17 6.6875 
L 17 34.890625 
C 17 35.09375 17.796875 36.09375 18.5 36.796875 
C 21 39.09375 25.296875 40.796875 28.796875 40.796875 
C 33.203125 40.796875 35.40625 37.296875 35.40625 30.296875 
L 35.40625 8.59375 
C 35.40625 3 34.296875 1.890625 28.59375 1.5 
L 28.59375 0 
L 51 0 
L 51 1.5 
C 45.296875 1.59375 43.796875 3.296875 43.796875 9.5 
L 43.796875 34.6875 
C 46.796875 39 50.09375 40.796875 54.703125 40.796875 
C 60.40625 40.796875 62.203125 38.09375 62.203125 29.796875 
L 62.203125 8.6875 
C 62.203125 3 61.40625 2.1875 55.59375 1.5 
L 55.59375 0 
L 77.5 0 
L 77.5 1.5 
L 74.90625 1.6875 
C 71.90625 1.890625 70.59375 3.6875 70.59375 7.59375 
L 70.59375 28.1875 
C 70.59375 40 66.703125 46 59 46 
C 53.203125 46 48.09375 43.390625 42.703125 37.59375 
C 40.90625 43.296875 37.5 46 32.09375 46 
C 27.703125 46 24.90625 44.59375 16.59375 38.296875 
L 16.59375 45.796875 
L 15.90625 46 
C 10.796875 44.09375 7.40625 42.984375 1.90625 41.484375 
z
" id="Nimbus_Roman_No9_L_Regular-109"/>
      <path d="M 27.90625 -0.46875 
C 40.203125 1.234375 49 12.46875 49 26.59375 
C 49 40.328125 40.59375 50.25 27.90625 51.15625 
L 27.90625 59.171875 
C 27.90625 62.890625 28 64.796875 28.203125 67.09375 
L 23.5 69 
C 23.703125 66.59375 23.796875 64.09375 23.796875 60.078125 
L 23.796875 51.15625 
C 11.796875 49.75 2.703125 38.328125 2.703125 24.5 
C 2.703125 10.5625 11.296875 0.34375 23.796875 -0.65625 
L 23.796875 -10.78125 
C 23.796875 -15.296875 23.703125 -18.109375 23.5 -20.90625 
L 28.203125 -22.015625 
C 28 -18.703125 28 -18.40625 27.90625 -14 
L 27.90625 -11.28125 
z
M 23.796875 3.546875 
C 21 4.65625 19 6.25 17.5 8.5625 
C 14.296875 13.46875 12.40625 21.09375 12.40625 29 
C 12.40625 40.328125 16.703125 47.34375 23.796875 47.65625 
z
M 27.90625 46.953125 
C 35 44.34375 39.296875 34.828125 39.296875 22.09375 
C 39.296875 10.265625 35.203125 3.453125 27.90625 3.046875 
z
" id="Standard_Symbols_L-102"/>
      <path d="M 46.40625 11.046875 
C 44.90625 9.5625 44.296875 9.0625 43.59375 8.265625 
C 40.59375 5.1875 39.296875 4.1875 38.40625 4.1875 
C 37.59375 4.1875 37 4.78125 37 5.484375 
C 37 7.46875 41.203125 24.484375 45.90625 41.59375 
C 46.203125 42.59375 46.296875 42.796875 46.5 43.6875 
L 45.796875 44 
L 39.703125 43.296875 
L 39.40625 42.984375 
L 38.296875 38.203125 
C 37.5 41.890625 34.59375 44 30.296875 44 
C 17.09375 44 1.703125 25.78125 1.703125 10.0625 
C 1.703125 3.09375 5.5 -1 11.90625 -1 
C 18.90625 -1 23.203125 2.296875 32 14.640625 
C 30 6.875 29.703125 5.578125 29.703125 3.1875 
C 29.703125 0.1875 30.90625 -1 33.703125 -1 
C 37.703125 -1 40.203125 0.890625 47.59375 10 
z
M 30.90625 42 
C 34.296875 41.796875 36.5 39.390625 36.5 35.890625 
C 36.5 27.5 31.5 15.6875 24.59375 8.296875 
C 22.203125 5.59375 18.796875 3.890625 15.90625 3.890625 
C 12.40625 3.890625 10.09375 6.796875 10.09375 11.390625 
C 10.09375 16.796875 13.90625 27.09375 18.203125 33.296875 
C 22.203125 39.09375 26.90625 42.296875 30.90625 42 
z
" id="Nimbus_Roman_No9_L_Regular_Italic-97"/>
      <path d="M 2.09375 40.1875 
C 3.203125 40.28125 4 40.28125 5.09375 40.28125 
C 9 40.28125 10 38.578125 11.40625 29.359375 
C 12.40625 22.4375 13.59375 7.3125 13.59375 1.5 
C 13.59375 -1.3125 13.796875 -2 14.5 -2 
C 17 -2 26.296875 8.609375 36.5 22.84375 
C 40 27.859375 42.59375 34.375 42.59375 38.078125 
C 42.59375 41.296875 40 44 37 44 
C 34.796875 44 33.296875 42.6875 33.296875 40.59375 
C 33.296875 38.984375 33.90625 37.78125 35.703125 36.171875 
C 37 34.96875 37.5 34.171875 37.5 33.171875 
C 37.5 28.5625 30.90625 17.4375 23.796875 10.015625 
L 20.703125 6.8125 
C 20 20.9375 19.40625 26.15625 18.09375 33.578125 
C 16.09375 43.796875 16.09375 44 15.203125 44 
C 14.703125 44 14 43.890625 13.203125 43.59375 
C 11.40625 43.09375 5.90625 42.09375 2.09375 41.484375 
z
" id="Nimbus_Roman_No9_L_Regular_Italic-118"/>
      <path d="M 47.203125 40 
L 41.09375 40 
C 40.796875 40 40.296875 40.25 39.5 41.015625 
C 36.796875 42.984375 33.5 44 29.703125 44 
C 18.59375 44 9.59375 35.890625 9.59375 26.6875 
C 9.59375 21.59375 11.796875 18.65625 17.5 16.09375 
C 11.59375 12.0625 9.796875 10.046875 9.796875 7.625 
C 9.796875 6.3125 10.59375 5.109375 12.5 3.6875 
C 2.59375 -2.859375 0.796875 -4.890625 0.796875 -9.53125 
C 0.796875 -16.484375 7.40625 -21 17.5 -21 
C 30.09375 -21 38.5 -15.078125 38.5 -6.296875 
C 38.5 0.0625 33.703125 4.5 24.203125 7.015625 
C 19.796875 8.125 17.203125 9.75 17.203125 11.265625 
C 17.203125 12.765625 19.5 15.390625 20.796875 15.390625 
C 21 15.390625 21.203125 15.390625 21.5 15.296875 
C 22.296875 15.09375 23.703125 15 24.59375 15 
C 33.703125 15 43.09375 22.96875 43.09375 30.609375 
C 43.09375 32.171875 42.796875 34.125 42.203125 36.09375 
L 47.203125 36.09375 
z
M 14.796875 2.578125 
C 14.90625 2.578125 15.09375 2.484375 15.296875 2.375 
C 15.59375 2.28125 16.59375 1.96875 18.203125 1.46875 
C 28.796875 -1.859375 32.5 -4.6875 32.5 -9.328125 
C 32.5 -14.765625 26.703125 -18.8125 19 -18.8125 
C 11 -18.8125 6.296875 -14.96875 6.296875 -8.515625 
C 6.296875 -6.09375 6.90625 -4.375 8.5 -2.46875 
C 9.796875 -0.75 14 2.578125 14.796875 2.578125 
z
M 29.59375 41.796875 
C 33.296875 41.796875 35.203125 38.984375 35.203125 34.328125 
C 35.203125 30.90625 34 26.59375 32.09375 23.265625 
C 29.90625 19.25 26.796875 17.09375 23.40625 17.09375 
C 19.59375 17.09375 17.40625 19.828125 17.40625 24.4375 
C 17.40625 33.453125 23.09375 41.796875 29.59375 41.796875 
z
" id="Nimbus_Roman_No9_L_Regular_Italic-103"/>
      <path d="M 56.703125 1.59375 
C 52.296875 1.890625 50.296875 3.578125 48.40625 8.765625 
L 39.09375 33.140625 
C 46.796875 34.828125 50.09375 36.21875 53.703125 39.40625 
C 57 42.296875 58.796875 46.171875 58.796875 50.65625 
C 58.796875 59.90625 51.40625 65 38 65 
L 13.203125 65 
L 13.203125 63.390625 
C 17.40625 62.796875 17.90625 62.6875 18.90625 61.984375 
C 19.703125 61.5 20.296875 60.296875 20.296875 59.203125 
C 20.296875 58.015625 19.796875 55.625 19.09375 52.9375 
L 6.796875 8.953125 
C 5 3.09375 4.296875 2.484375 -1.296875 1.59375 
L -1.296875 0 
L 23.09375 0 
L 23.09375 1.59375 
C 17 2.390625 16.296875 2.890625 16.296875 6.171875 
C 16.296875 7.171875 16.59375 8.453125 17.5 11.9375 
L 23.09375 32.734375 
L 29.59375 32.234375 
L 41.90625 0 
L 56.703125 0 
z
M 30.796875 59.203125 
C 31.40625 61.296875 32.703125 61.984375 35.90625 61.984375 
C 44.203125 61.984375 48.296875 58.21875 48.296875 50.84375 
C 48.296875 41 41.90625 35.921875 29.40625 35.921875 
C 27.796875 35.921875 26.703125 36.015625 24.296875 36.421875 
z
" id="Nimbus_Roman_No9_L_Regular_Italic-82"/>
     </defs>
     <g transform="translate(2.854462 353.997499)rotate(-90)scale(0.2 -0.2)">
      <use transform="translate(0 29.511935)scale(0.996264)" xlink:href="#Nimbus_Roman_No9_L_Regular-84"/>
      <use transform="translate(52.902187 29.511935)scale(0.996264)" xlink:href="#Nimbus_Roman_No9_L_Regular-111"/>
      <use transform="translate(102.715388 29.511935)scale(0.996264)" xlink:href="#Nimbus_Roman_No9_L_Regular-116"/>
      <use transform="translate(130.410558 29.511935)scale(0.996264)" xlink:href="#Nimbus_Roman_No9_L_Regular-97"/>
      <use transform="translate(174.644126 29.511935)scale(0.996264)" xlink:href="#Nimbus_Roman_No9_L_Regular-108"/>
      <use transform="translate(227.245896 29.511935)scale(0.996264)" xlink:href="#Nimbus_Roman_No9_L_Regular-82"/>
      <use transform="translate(293.695927 29.511935)scale(0.996264)" xlink:href="#Nimbus_Roman_No9_L_Regular-78"/>
      <use transform="translate(362.139186 29.511935)scale(0.996264)" xlink:href="#Nimbus_Roman_No9_L_Regular-65"/>
      <use transform="translate(458.975771 29.511935)scale(0.996264)" xlink:href="#Nimbus_Roman_No9_L_Regular-105"/>
      <use transform="translate(486.67094 29.511935)scale(0.996264)" xlink:href="#Nimbus_Roman_No9_L_Regular-110"/>
      <use transform="translate(561.390741 29.511935)scale(0.996264)" xlink:href="#Nimbus_Roman_No9_L_Regular-115"/>
      <use transform="translate(600.144447 29.511935)scale(0.996264)" xlink:href="#Nimbus_Roman_No9_L_Regular-121"/>
      <use transform="translate(649.957648 29.511935)scale(0.996264)" xlink:href="#Nimbus_Roman_No9_L_Regular-115"/>
      <use transform="translate(688.711354 29.511935)scale(0.996264)" xlink:href="#Nimbus_Roman_No9_L_Regular-116"/>
      <use transform="translate(716.406524 29.511935)scale(0.996264)" xlink:href="#Nimbus_Roman_No9_L_Regular-101"/>
      <use transform="translate(760.640092 29.511935)scale(0.996264)" xlink:href="#Nimbus_Roman_No9_L_Regular-109"/>
      <use transform="translate(863.055063 29.511935)scale(0.996264)" xlink:href="#Standard_Symbols_L-102"/>
      <use transform="translate(926.118228 78.821941)scale(0.737241)" xlink:href="#Nimbus_Roman_No9_L_Regular_Italic-97"/>
      <use transform="translate(962.98027 78.821941)scale(0.737241)" xlink:href="#Nimbus_Roman_No9_L_Regular_Italic-118"/>
      <use transform="translate(995.713356 78.821941)scale(0.737241)" xlink:href="#Nimbus_Roman_No9_L_Regular_Italic-103"/>
      <use transform="translate(914.960028 0)scale(0.737241)" xlink:href="#Nimbus_Roman_No9_L_Regular_Italic-82"/>
     </g>
    </g>
   </g>
   <g id="patch_3">
    <path d="M 63 441 
L 63 60.48 
" style="fill:none;stroke:#000000;stroke-linecap:square;stroke-linejoin:miter;stroke-width:0.8;"/>
   </g>
   <g id="patch_4">
    <path d="M 375.48 441 
L 375.48 60.48 
" style="fill:none;stroke:#000000;stroke-linecap:square;stroke-linejoin:miter;stroke-width:0.8;"/>
   </g>
   <g id="patch_5">
    <path d="M 63 441 
L 375.48 441 
" style="fill:none;stroke:#000000;stroke-linecap:square;stroke-linejoin:miter;stroke-width:0.8;"/>
   </g>
   <g id="patch_6">
    <path d="M 63 60.48 
L 375.48 60.48 
" style="fill:none;stroke:#000000;stroke-linecap:square;stroke-linejoin:miter;stroke-width:0.8;"/>
   </g>
  </g>
  <g id="axes_2">
   <g id="patch_7">
    <path clip-path="url(#pbf05d8cf4f)" d="M 395.01 441 
L 395.01 427.41 
L 395.01 74.07 
L 395.01 60.48 
L 414.036 60.48 
L 414.036 74.07 
L 414.036 427.41 
L 414.036 441 
z
" style="fill:#ffffff;stroke:#ffffff;stroke-linejoin:miter;stroke-width:0.01;"/>
   </g>
   <g id="QuadMesh_1">
    <path clip-path="url(#pbf05d8cf4f)" d="M 395.01 441 
L 414.036 441 
L 414.036 427.41 
L 395.01 427.41 
L 395.01 441 
" style="fill:#46075a;"/>
    <path clip-path="url(#pbf05d8cf4f)" d="M 395.01 427.41 
L 414.036 427.41 
L 414.036 413.82 
L 395.01 413.82 
L 395.01 427.41 
" style="fill:#481467;"/>
    <path clip-path="url(#pbf05d8cf4f)" d="M 395.01 413.82 
L 414.036 413.82 
L 414.036 400.23 
L 395.01 400.23 
L 395.01 413.82 
" style="fill:#482071;"/>
    <path clip-path="url(#pbf05d8cf4f)" d="M 395.01 400.23 
L 414.036 400.23 
L 414.036 386.64 
L 395.01 386.64 
L 395.01 400.23 
" style="fill:#472d7b;"/>
    <path clip-path="url(#pbf05d8cf4f)" d="M 395.01 386.64 
L 414.036 386.64 
L 414.036 373.05 
L 395.01 373.05 
L 395.01 386.64 
" style="fill:#453882;"/>
    <path clip-path="url(#pbf05d8cf4f)" d="M 395.01 373.05 
L 414.036 373.05 
L 414.036 359.46 
L 395.01 359.46 
L 395.01 373.05 
" style="fill:#414287;"/>
    <path clip-path="url(#pbf05d8cf4f)" d="M 395.01 359.46 
L 414.036 359.46 
L 414.036 345.87 
L 395.01 345.87 
L 395.01 359.46 
" style="fill:#3d4d8a;"/>
    <path clip-path="url(#pbf05d8cf4f)" d="M 395.01 345.87 
L 414.036 345.87 
L 414.036 332.28 
L 395.01 332.28 
L 395.01 345.87 
" style="fill:#39568c;"/>
    <path clip-path="url(#pbf05d8cf4f)" d="M 395.01 332.28 
L 414.036 332.28 
L 414.036 318.69 
L 395.01 318.69 
L 395.01 332.28 
" style="fill:#34608d;"/>
    <path clip-path="url(#pbf05d8cf4f)" d="M 395.01 318.69 
L 414.036 318.69 
L 414.036 305.1 
L 395.01 305.1 
L 395.01 318.69 
" style="fill:#30698e;"/>
    <path clip-path="url(#pbf05d8cf4f)" d="M 395.01 305.1 
L 414.036 305.1 
L 414.036 291.51 
L 395.01 291.51 
L 395.01 305.1 
" style="fill:#2c728e;"/>
    <path clip-path="url(#pbf05d8cf4f)" d="M 395.01 291.51 
L 414.036 291.51 
L 414.036 277.92 
L 395.01 277.92 
L 395.01 291.51 
" style="fill:#297b8e;"/>
    <path clip-path="url(#pbf05d8cf4f)" d="M 395.01 277.92 
L 414.036 277.92 
L 414.036 264.33 
L 395.01 264.33 
L 395.01 277.92 
" style="fill:#25838e;"/>
    <path clip-path="url(#pbf05d8cf4f)" d="M 395.01 264.33 
L 414.036 264.33 
L 414.036 250.74 
L 395.01 250.74 
L 395.01 264.33 
" style="fill:#228c8d;"/>
    <path clip-path="url(#pbf05d8cf4f)" d="M 395.01 250.74 
L 414.036 250.74 
L 414.036 237.15 
L 395.01 237.15 
L 395.01 250.74 
" style="fill:#1f948c;"/>
    <path clip-path="url(#pbf05d8cf4f)" d="M 395.01 237.15 
L 414.036 237.15 
L 414.036 223.56 
L 395.01 223.56 
L 395.01 237.15 
" style="fill:#1e9d89;"/>
    <path clip-path="url(#pbf05d8cf4f)" d="M 395.01 223.56 
L 414.036 223.56 
L 414.036 209.97 
L 395.01 209.97 
L 395.01 223.56 
" style="fill:#21a585;"/>
    <path clip-path="url(#pbf05d8cf4f)" d="M 395.01 209.97 
L 414.036 209.97 
L 414.036 196.38 
L 395.01 196.38 
L 395.01 209.97 
" style="fill:#28ae80;"/>
    <path clip-path="url(#pbf05d8cf4f)" d="M 395.01 196.38 
L 414.036 196.38 
L 414.036 182.79 
L 395.01 182.79 
L 395.01 196.38 
" style="fill:#34b679;"/>
    <path clip-path="url(#pbf05d8cf4f)" d="M 395.01 182.79 
L 414.036 182.79 
L 414.036 169.2 
L 395.01 169.2 
L 395.01 182.79 
" style="fill:#42be71;"/>
    <path clip-path="url(#pbf05d8cf4f)" d="M 395.01 169.2 
L 414.036 169.2 
L 414.036 155.61 
L 395.01 155.61 
L 395.01 169.2 
" style="fill:#54c568;"/>
    <path clip-path="url(#pbf05d8cf4f)" d="M 395.01 155.61 
L 414.036 155.61 
L 414.036 142.02 
L 395.01 142.02 
L 395.01 155.61 
" style="fill:#67cc5c;"/>
    <path clip-path="url(#pbf05d8cf4f)" d="M 395.01 142.02 
L 414.036 142.02 
L 414.036 128.43 
L 395.01 128.43 
L 395.01 142.02 
" style="fill:#7cd250;"/>
    <path clip-path="url(#pbf05d8cf4f)" d="M 395.01 128.43 
L 414.036 128.43 
L 414.036 114.84 
L 395.01 114.84 
L 395.01 128.43 
" style="fill:#93d741;"/>
    <path clip-path="url(#pbf05d8cf4f)" d="M 395.01 114.84 
L 414.036 114.84 
L 414.036 101.25 
L 395.01 101.25 
L 395.01 114.84 
" style="fill:#addc30;"/>
    <path clip-path="url(#pbf05d8cf4f)" d="M 395.01 101.25 
L 414.036 101.25 
L 414.036 87.66 
L 395.01 87.66 
L 395.01 101.25 
" style="fill:#c5e021;"/>
    <path clip-path="url(#pbf05d8cf4f)" d="M 395.01 87.66 
L 414.036 87.66 
L 414.036 74.07 
L 395.01 74.07 
L 395.01 87.66 
" style="fill:#dde318;"/>
    <path clip-path="url(#pbf05d8cf4f)" d="M 395.01 74.07 
L 414.036 74.07 
L 414.036 60.48 
L 395.01 60.48 
L 395.01 74.07 
" style="fill:#f4e61e;"/>
   </g>
   <g id="matplotlib.axis_3"/>
   <g id="matplotlib.axis_4">
    <g id="ytick_11">
     <g id="line2d_14">
      <defs>
       <path d="M 0 0 
L 3.5 0 
" id="m545613e503" style="stroke:#000000;stroke-width:0.8;"/>
      </defs>
      <g>
       <use style="stroke:#000000;stroke-width:0.8;" x="414.036" xlink:href="#m545613e503" y="441"/>
      </g>
     </g>
     <g id="text_16">
      <!-- $0.084$ -->
      <defs>
       <path d="M 19.203125 5.296875 
C 19.203125 8.1875 16.796875 10.59375 13.90625 10.59375 
C 11 10.59375 8.59375 8.1875 8.59375 5.296875 
C 8.59375 2.390625 11 0 13.90625 0 
C 16.796875 0 19.203125 2.390625 19.203125 5.296875 
z
" id="CMMI10-58"/>
      </defs>
      <g transform="translate(421.036 447.754578)scale(0.2 -0.2)">
       <use transform="scale(0.996264)" xlink:href="#Nimbus_Roman_No9_L_Regular-48"/>
       <use transform="translate(49.8132 0)scale(0.996264)" xlink:href="#CMMI10-58"/>
       <use transform="translate(77.408707 0)scale(0.996264)" xlink:href="#Nimbus_Roman_No9_L_Regular-48"/>
       <use transform="translate(127.221908 0)scale(0.996264)" xlink:href="#Nimbus_Roman_No9_L_Regular-56"/>
       <use transform="translate(177.035108 0)scale(0.996264)" xlink:href="#Nimbus_Roman_No9_L_Regular-52"/>
      </g>
     </g>
    </g>
    <g id="ytick_12">
     <g id="line2d_15">
      <g>
       <use style="stroke:#000000;stroke-width:0.8;" x="414.036" xlink:href="#m545613e503" y="400.23"/>
      </g>
     </g>
     <g id="text_17">
      <!-- $0.102$ -->
      <g transform="translate(421.036 406.984578)scale(0.2 -0.2)">
       <use transform="scale(0.996264)" xlink:href="#Nimbus_Roman_No9_L_Regular-48"/>
       <use transform="translate(49.8132 0)scale(0.996264)" xlink:href="#CMMI10-58"/>
       <use transform="translate(77.408707 0)scale(0.996264)" xlink:href="#Nimbus_Roman_No9_L_Regular-49"/>
       <use transform="translate(127.221908 0)scale(0.996264)" xlink:href="#Nimbus_Roman_No9_L_Regular-48"/>
       <use transform="translate(177.035108 0)scale(0.996264)" xlink:href="#Nimbus_Roman_No9_L_Regular-50"/>
      </g>
     </g>
    </g>
    <g id="ytick_13">
     <g id="line2d_16">
      <g>
       <use style="stroke:#000000;stroke-width:0.8;" x="414.036" xlink:href="#m545613e503" y="359.46"/>
      </g>
     </g>
     <g id="text_18">
      <!-- $0.120$ -->
      <g transform="translate(421.036 366.214578)scale(0.2 -0.2)">
       <use transform="scale(0.996264)" xlink:href="#Nimbus_Roman_No9_L_Regular-48"/>
       <use transform="translate(49.8132 0)scale(0.996264)" xlink:href="#CMMI10-58"/>
       <use transform="translate(77.408707 0)scale(0.996264)" xlink:href="#Nimbus_Roman_No9_L_Regular-49"/>
       <use transform="translate(127.221908 0)scale(0.996264)" xlink:href="#Nimbus_Roman_No9_L_Regular-50"/>
       <use transform="translate(177.035108 0)scale(0.996264)" xlink:href="#Nimbus_Roman_No9_L_Regular-48"/>
      </g>
     </g>
    </g>
    <g id="ytick_14">
     <g id="line2d_17">
      <g>
       <use style="stroke:#000000;stroke-width:0.8;" x="414.036" xlink:href="#m545613e503" y="318.69"/>
      </g>
     </g>
     <g id="text_19">
      <!-- $0.138$ -->
      <g transform="translate(421.036 325.444578)scale(0.2 -0.2)">
       <use transform="scale(0.996264)" xlink:href="#Nimbus_Roman_No9_L_Regular-48"/>
       <use transform="translate(49.8132 0)scale(0.996264)" xlink:href="#CMMI10-58"/>
       <use transform="translate(77.408707 0)scale(0.996264)" xlink:href="#Nimbus_Roman_No9_L_Regular-49"/>
       <use transform="translate(127.221908 0)scale(0.996264)" xlink:href="#Nimbus_Roman_No9_L_Regular-51"/>
       <use transform="translate(177.035108 0)scale(0.996264)" xlink:href="#Nimbus_Roman_No9_L_Regular-56"/>
      </g>
     </g>
    </g>
    <g id="ytick_15">
     <g id="line2d_18">
      <g>
       <use style="stroke:#000000;stroke-width:0.8;" x="414.036" xlink:href="#m545613e503" y="277.92"/>
      </g>
     </g>
     <g id="text_20">
      <!-- $0.156$ -->
      <g transform="translate(421.036 284.674578)scale(0.2 -0.2)">
       <use transform="scale(0.996264)" xlink:href="#Nimbus_Roman_No9_L_Regular-48"/>
       <use transform="translate(49.8132 0)scale(0.996264)" xlink:href="#CMMI10-58"/>
       <use transform="translate(77.408707 0)scale(0.996264)" xlink:href="#Nimbus_Roman_No9_L_Regular-49"/>
       <use transform="translate(127.221908 0)scale(0.996264)" xlink:href="#Nimbus_Roman_No9_L_Regular-53"/>
       <use transform="translate(177.035108 0)scale(0.996264)" xlink:href="#Nimbus_Roman_No9_L_Regular-54"/>
      </g>
     </g>
    </g>
    <g id="ytick_16">
     <g id="line2d_19">
      <g>
       <use style="stroke:#000000;stroke-width:0.8;" x="414.036" xlink:href="#m545613e503" y="237.15"/>
      </g>
     </g>
     <g id="text_21">
      <!-- $0.174$ -->
      <g transform="translate(421.036 243.904578)scale(0.2 -0.2)">
       <use transform="scale(0.996264)" xlink:href="#Nimbus_Roman_No9_L_Regular-48"/>
       <use transform="translate(49.8132 0)scale(0.996264)" xlink:href="#CMMI10-58"/>
       <use transform="translate(77.408707 0)scale(0.996264)" xlink:href="#Nimbus_Roman_No9_L_Regular-49"/>
       <use transform="translate(127.221908 0)scale(0.996264)" xlink:href="#Nimbus_Roman_No9_L_Regular-55"/>
       <use transform="translate(177.035108 0)scale(0.996264)" xlink:href="#Nimbus_Roman_No9_L_Regular-52"/>
      </g>
     </g>
    </g>
    <g id="ytick_17">
     <g id="line2d_20">
      <g>
       <use style="stroke:#000000;stroke-width:0.8;" x="414.036" xlink:href="#m545613e503" y="196.38"/>
      </g>
     </g>
     <g id="text_22">
      <!-- $0.192$ -->
      <g transform="translate(421.036 203.134578)scale(0.2 -0.2)">
       <use transform="scale(0.996264)" xlink:href="#Nimbus_Roman_No9_L_Regular-48"/>
       <use transform="translate(49.8132 0)scale(0.996264)" xlink:href="#CMMI10-58"/>
       <use transform="translate(77.408707 0)scale(0.996264)" xlink:href="#Nimbus_Roman_No9_L_Regular-49"/>
       <use transform="translate(127.221908 0)scale(0.996264)" xlink:href="#Nimbus_Roman_No9_L_Regular-57"/>
       <use transform="translate(177.035108 0)scale(0.996264)" xlink:href="#Nimbus_Roman_No9_L_Regular-50"/>
      </g>
     </g>
    </g>
    <g id="ytick_18">
     <g id="line2d_21">
      <g>
       <use style="stroke:#000000;stroke-width:0.8;" x="414.036" xlink:href="#m545613e503" y="155.61"/>
      </g>
     </g>
     <g id="text_23">
      <!-- $0.210$ -->
      <g transform="translate(421.036 162.364578)scale(0.2 -0.2)">
       <use transform="scale(0.996264)" xlink:href="#Nimbus_Roman_No9_L_Regular-48"/>
       <use transform="translate(49.8132 0)scale(0.996264)" xlink:href="#CMMI10-58"/>
       <use transform="translate(77.408707 0)scale(0.996264)" xlink:href="#Nimbus_Roman_No9_L_Regular-50"/>
       <use transform="translate(127.221908 0)scale(0.996264)" xlink:href="#Nimbus_Roman_No9_L_Regular-49"/>
       <use transform="translate(177.035108 0)scale(0.996264)" xlink:href="#Nimbus_Roman_No9_L_Regular-48"/>
      </g>
     </g>
    </g>
    <g id="ytick_19">
     <g id="line2d_22">
      <g>
       <use style="stroke:#000000;stroke-width:0.8;" x="414.036" xlink:href="#m545613e503" y="114.84"/>
      </g>
     </g>
     <g id="text_24">
      <!-- $0.228$ -->
      <g transform="translate(421.036 121.594578)scale(0.2 -0.2)">
       <use transform="scale(0.996264)" xlink:href="#Nimbus_Roman_No9_L_Regular-48"/>
       <use transform="translate(49.8132 0)scale(0.996264)" xlink:href="#CMMI10-58"/>
       <use transform="translate(77.408707 0)scale(0.996264)" xlink:href="#Nimbus_Roman_No9_L_Regular-50"/>
       <use transform="translate(127.221908 0)scale(0.996264)" xlink:href="#Nimbus_Roman_No9_L_Regular-50"/>
       <use transform="translate(177.035108 0)scale(0.996264)" xlink:href="#Nimbus_Roman_No9_L_Regular-56"/>
      </g>
     </g>
    </g>
    <g id="ytick_20">
     <g id="line2d_23">
      <g>
       <use style="stroke:#000000;stroke-width:0.8;" x="414.036" xlink:href="#m545613e503" y="74.07"/>
      </g>
     </g>
     <g id="text_25">
      <!-- $0.246$ -->
      <g transform="translate(421.036 80.824578)scale(0.2 -0.2)">
       <use transform="scale(0.996264)" xlink:href="#Nimbus_Roman_No9_L_Regular-48"/>
       <use transform="translate(49.8132 0)scale(0.996264)" xlink:href="#CMMI10-58"/>
       <use transform="translate(77.408707 0)scale(0.996264)" xlink:href="#Nimbus_Roman_No9_L_Regular-50"/>
       <use transform="translate(127.221908 0)scale(0.996264)" xlink:href="#Nimbus_Roman_No9_L_Regular-52"/>
       <use transform="translate(177.035108 0)scale(0.996264)" xlink:href="#Nimbus_Roman_No9_L_Regular-54"/>
      </g>
     </g>
    </g>
   </g>
   <g id="patch_8">
    <path d="M 395.01 441 
L 395.01 427.41 
L 395.01 74.07 
L 395.01 60.48 
L 414.036 60.48 
L 414.036 74.07 
L 414.036 427.41 
L 414.036 441 
z
" style="fill:none;stroke:#000000;stroke-linejoin:miter;stroke-width:0.8;"/>
   </g>
  </g>
 </g>
 <defs>
  <clipPath id="p1a8f9b2275">
   <rect height="380.52" width="312.48" x="63" y="60.48"/>
  </clipPath>
  <clipPath id="pbf05d8cf4f">
   <rect height="380.52" width="19.026" x="395.01" y="60.48"/>
  </clipPath>
 </defs>
</svg>
