<?xml version="1.0" encoding="utf-8" standalone="no"?>
<!DOCTYPE svg PUBLIC "-//W3C//DTD SVG 1.1//EN"
  "http://www.w3.org/Graphics/SVG/1.1/DTD/svg11.dtd">
<!-- Created with matplotlib (http://matplotlib.org/) -->
<svg height="360pt" version="1.1" viewBox="0 0 432 360" width="432pt" xmlns="http://www.w3.org/2000/svg" xmlns:xlink="http://www.w3.org/1999/xlink">
 <defs>
  <style type="text/css">
*{stroke-linecap:butt;stroke-linejoin:round;}
  </style>
 </defs>
 <g id="figure_1">
  <g id="patch_1">
   <path d="M 0 360 
L 432 360 
L 432 0 
L 0 0 
z
" style="fill:#ffffff;"/>
  </g>
  <g id="axes_1">
   <g id="patch_2">
    <path d="M 54 315 
L 388.8 315 
L 388.8 43.2 
L 54 43.2 
z
" style="fill:#ffffff;"/>
   </g>
   <g id="matplotlib.axis_1">
    <g id="xtick_1">
     <g id="line2d_1">
      <defs>
       <path d="M 0 0 
L 0 3.5 
" id="m3e67297bc2" style="stroke:#000000;stroke-width:0.8;"/>
      </defs>
      <g>
       <use style="stroke:#000000;stroke-width:0.8;" x="69.218182" xlink:href="#m3e67297bc2" y="315"/>
      </g>
     </g>
     <g id="text_1">
      <!-- $0.0$ -->
      <defs>
       <path d="M 25.40625 68 
C 19.90625 68 15.703125 66.296875 12 62.796875 
C 6.203125 57.203125 2.40625 45.6875 2.40625 34 
C 2.40625 23.09375 5.703125 11.390625 10.40625 5.796875 
C 14.09375 1.390625 19.203125 -1 25 -1 
C 30.09375 -1 34.40625 0.6875 38 4.1875 
C 43.796875 9.6875 47.59375 21.296875 47.59375 33.390625 
C 47.59375 53.890625 38.5 68 25.40625 68 
z
M 25.09375 65.390625 
C 33.5 65.390625 38 54.09375 38 33.1875 
C 38 12.296875 33.59375 1.59375 25 1.59375 
C 16.40625 1.59375 12 12.296875 12 33.09375 
C 12 54.296875 16.5 65.390625 25.09375 65.390625 
z
" id="Nimbus_Roman_No9_L_Regular-48"/>
       <path d="M 19.203125 5.296875 
C 19.203125 8.1875 16.796875 10.59375 13.90625 10.59375 
C 11 10.59375 8.59375 8.1875 8.59375 5.296875 
C 8.59375 2.390625 11 0 13.90625 0 
C 16.796875 0 19.203125 2.390625 19.203125 5.296875 
z
" id="CMMI10-58"/>
      </defs>
      <g transform="translate(56.495993 335.509155)scale(0.2 -0.2)">
       <use transform="scale(0.996264)" xlink:href="#Nimbus_Roman_No9_L_Regular-48"/>
       <use transform="translate(49.8132 0)scale(0.996264)" xlink:href="#CMMI10-58"/>
       <use transform="translate(77.408707 0)scale(0.996264)" xlink:href="#Nimbus_Roman_No9_L_Regular-48"/>
      </g>
     </g>
    </g>
    <g id="xtick_2">
     <g id="line2d_2">
      <g>
       <use style="stroke:#000000;stroke-width:0.8;" x="156.179221" xlink:href="#m3e67297bc2" y="315"/>
      </g>
     </g>
     <g id="text_2">
      <!-- $0.2$ -->
      <defs>
       <path d="M 47.5 13.734375 
L 46.203125 14.25 
C 42.5 8.5 41.203125 7.59375 36.703125 7.59375 
L 12.796875 7.59375 
L 29.59375 25.328125 
C 38.5 34.703125 42.40625 42.359375 42.40625 50.21875 
C 42.40625 60.28125 34.296875 68 23.90625 68 
C 18.40625 68 13.203125 65.796875 9.5 61.796875 
C 6.296875 58.375 4.796875 55.15625 3.09375 48 
L 5.203125 47.484375 
C 9.203125 57.359375 12.796875 60.59375 19.703125 60.59375 
C 28.09375 60.59375 33.796875 54.84375 33.796875 46.390625 
C 33.796875 38.53125 29.203125 29.15625 20.796875 20.1875 
L 3 1.1875 
L 3 0 
L 42 0 
z
" id="Nimbus_Roman_No9_L_Regular-50"/>
      </defs>
      <g transform="translate(143.457032 335.509155)scale(0.2 -0.2)">
       <use transform="scale(0.996264)" xlink:href="#Nimbus_Roman_No9_L_Regular-48"/>
       <use transform="translate(49.8132 0)scale(0.996264)" xlink:href="#CMMI10-58"/>
       <use transform="translate(77.408707 0)scale(0.996264)" xlink:href="#Nimbus_Roman_No9_L_Regular-50"/>
      </g>
     </g>
    </g>
    <g id="xtick_3">
     <g id="line2d_3">
      <g>
       <use style="stroke:#000000;stroke-width:0.8;" x="243.14026" xlink:href="#m3e67297bc2" y="315"/>
      </g>
     </g>
     <g id="text_3">
      <!-- $0.4$ -->
      <defs>
       <path d="M 47.203125 23.390625 
L 37 23.390625 
L 37 68 
L 32.59375 68 
L 1.203125 23.390625 
L 1.203125 17 
L 29.296875 17 
L 29.296875 0 
L 37 0 
L 37 17 
L 47.203125 17 
z
M 29.203125 23.390625 
L 5.203125 23.390625 
L 29.203125 57.765625 
z
" id="Nimbus_Roman_No9_L_Regular-52"/>
      </defs>
      <g transform="translate(230.41807 335.509155)scale(0.2 -0.2)">
       <use transform="scale(0.996264)" xlink:href="#Nimbus_Roman_No9_L_Regular-48"/>
       <use transform="translate(49.8132 0)scale(0.996264)" xlink:href="#CMMI10-58"/>
       <use transform="translate(77.408707 0)scale(0.996264)" xlink:href="#Nimbus_Roman_No9_L_Regular-52"/>
      </g>
     </g>
    </g>
    <g id="xtick_4">
     <g id="line2d_4">
      <g>
       <use style="stroke:#000000;stroke-width:0.8;" x="330.101299" xlink:href="#m3e67297bc2" y="315"/>
      </g>
     </g>
     <g id="text_4">
      <!-- $0.6$ -->
      <defs>
       <path d="M 44.59375 68.59375 
C 33.203125 67.59375 27.40625 65.6875 20.09375 60.59375 
C 9.296875 52.890625 3.40625 41.484375 3.40625 28.140625 
C 3.40625 19.5 6.09375 10.75 10.40625 5.765625 
C 14.203125 1.390625 19.59375 -1 25.796875 -1 
C 38.203125 -1 46.796875 8.453125 46.796875 22.1875 
C 46.796875 34.90625 39.5 43 28 43 
C 23.59375 43 21.5 42.296875 15.203125 38.484375 
C 17.90625 53.59375 29.09375 64.390625 44.796875 67 
z
M 24.203125 38.390625 
C 32.796875 38.390625 37.796875 31.234375 37.796875 18.796875 
C 37.796875 7.859375 33.90625 1.796875 26.90625 1.796875 
C 18.09375 1.796875 12.703125 11.140625 12.703125 26.5625 
C 12.703125 31.625 13.5 34.421875 15.5 35.90625 
C 17.59375 37.5 20.703125 38.390625 24.203125 38.390625 
z
" id="Nimbus_Roman_No9_L_Regular-54"/>
      </defs>
      <g transform="translate(317.379109 335.509155)scale(0.2 -0.2)">
       <use transform="scale(0.996264)" xlink:href="#Nimbus_Roman_No9_L_Regular-48"/>
       <use transform="translate(49.8132 0)scale(0.996264)" xlink:href="#CMMI10-58"/>
       <use transform="translate(77.408707 0)scale(0.996264)" xlink:href="#Nimbus_Roman_No9_L_Regular-54"/>
      </g>
     </g>
    </g>
    <g id="text_5">
     <!-- $\phi_P$ -->
     <defs>
      <path d="M 27.90625 -0.46875 
C 40.203125 1.234375 49 12.46875 49 26.59375 
C 49 40.328125 40.59375 50.25 27.90625 51.15625 
L 27.90625 59.171875 
C 27.90625 62.890625 28 64.796875 28.203125 67.09375 
L 23.5 69 
C 23.703125 66.59375 23.796875 64.09375 23.796875 60.078125 
L 23.796875 51.15625 
C 11.796875 49.75 2.703125 38.328125 2.703125 24.5 
C 2.703125 10.5625 11.296875 0.34375 23.796875 -0.65625 
L 23.796875 -10.78125 
C 23.796875 -15.296875 23.703125 -18.109375 23.5 -20.90625 
L 28.203125 -22.015625 
C 28 -18.703125 28 -18.40625 27.90625 -14 
L 27.90625 -11.28125 
z
M 23.796875 3.546875 
C 21 4.65625 19 6.25 17.5 8.5625 
C 14.296875 13.46875 12.40625 21.09375 12.40625 29 
C 12.40625 40.328125 16.703125 47.34375 23.796875 47.65625 
z
M 27.90625 46.953125 
C 35 44.34375 39.296875 34.828125 39.296875 22.09375 
C 39.296875 10.265625 35.203125 3.453125 27.90625 3.046875 
z
" id="Standard_Symbols_L-102"/>
      <path d="M 14.59375 63.390625 
C 20.296875 62.6875 21.703125 61.796875 21.703125 59.203125 
C 21.703125 57.8125 21.296875 55.71875 20 51.234375 
L 8.203125 8.9375 
C 6.40625 2.984375 5.703125 2.390625 0 1.59375 
L 0 0 
L 24.5 0 
L 24.5 1.59375 
C 18.203125 2.484375 17.703125 2.78125 17.703125 6.15625 
C 17.703125 7.359375 17.90625 8.34375 18.90625 11.921875 
L 24.203125 31.09375 
C 26.703125 30.484375 29.296875 30.296875 33.40625 30.296875 
C 41.59375 30.296875 48.296875 31.984375 52.59375 35.09375 
C 57.59375 38.78125 60.5 44.25 60.5 50.140625 
C 60.5 59.703125 53 65 39.40625 65 
L 14.59375 65 
z
M 32.203125 59.203125 
C 32.796875 61.296875 34 61.984375 36.796875 61.984375 
C 40.703125 61.984375 44.5 61 46.5 59.59375 
C 49.09375 57.8125 50.203125 54.8125 50.203125 50.140625 
C 50.203125 43.65625 47.90625 39.078125 43.5 36.484375 
C 40.40625 34.796875 36.5 34 30.296875 34 
C 28.59375 34 27.796875 34.09375 25.09375 34.484375 
z
" id="Nimbus_Roman_No9_L_Regular_Italic-80"/>
     </defs>
     <g transform="translate(211.704972 357.939796)scale(0.2 -0.2)">
      <use transform="translate(0 14.943915)scale(0.996264)" xlink:href="#Standard_Symbols_L-102"/>
      <use transform="translate(51.904966 0)scale(0.737241)" xlink:href="#Nimbus_Roman_No9_L_Regular_Italic-80"/>
     </g>
    </g>
   </g>
   <g id="matplotlib.axis_2">
    <g id="ytick_1">
     <g id="line2d_5">
      <defs>
       <path d="M 0 0 
L -3.5 0 
" id="m4bf701a605" style="stroke:#000000;stroke-width:0.8;"/>
      </defs>
      <g>
       <use style="stroke:#000000;stroke-width:0.8;" x="54" xlink:href="#m4bf701a605" y="308.848574"/>
      </g>
     </g>
     <g id="text_6">
      <!-- $-0.8$ -->
      <defs>
       <path d="M 65.90625 23 
C 67.59375 23 69.40625 23 69.40625 25 
C 69.40625 27 67.59375 27 65.90625 27 
L 11.796875 27 
C 10.09375 27 8.296875 27 8.296875 25 
C 8.296875 23 10.09375 23 11.796875 23 
z
" id="CMSY10-0"/>
       <path d="M 29 37.5 
C 38.90625 42.796875 42.40625 47 42.40625 53.796875 
C 42.40625 62 35.203125 68 25.203125 68 
C 14.296875 68 6.203125 61.296875 6.203125 52.203125 
C 6.203125 45.6875 8.09375 42.796875 18.59375 33.59375 
C 7.796875 25.390625 5.59375 22.296875 5.59375 15.5 
C 5.59375 5.796875 13.5 -1 24.796875 -1 
C 36.796875 -1 44.5 5.59375 44.5 15.890625 
C 44.5 23.59375 41.09375 28.5 29 37.5 
z
M 27.203125 27.1875 
C 34.5 22 36.90625 18.390625 36.90625 12.796875 
C 36.90625 6.296875 32.40625 1.796875 25.90625 1.796875 
C 18.296875 1.796875 13.203125 7.59375 13.203125 16.296875 
C 13.203125 22.6875 15.40625 26.890625 21.203125 31.59375 
z
M 26.09375 39.296875 
C 17.203125 45.09375 13.59375 49.6875 13.59375 55.296875 
C 13.59375 61.09375 18.09375 65.1875 24.40625 65.1875 
C 31.203125 65.1875 35.5 60.796875 35.5 53.890625 
C 35.5 48.1875 32.703125 43.6875 27 39.890625 
C 26.5 39.59375 26.5 39.59375 26.09375 39.296875 
z
" id="Nimbus_Roman_No9_L_Regular-56"/>
      </defs>
      <g transform="translate(6.073883 315.603151)scale(0.2 -0.2)">
       <use transform="scale(0.996264)" xlink:href="#CMSY10-0"/>
       <use transform="translate(77.408707 0)scale(0.996264)" xlink:href="#Nimbus_Roman_No9_L_Regular-48"/>
       <use transform="translate(127.221908 0)scale(0.996264)" xlink:href="#CMMI10-58"/>
       <use transform="translate(154.817414 0)scale(0.996264)" xlink:href="#Nimbus_Roman_No9_L_Regular-56"/>
      </g>
     </g>
    </g>
    <g id="ytick_2">
     <g id="line2d_6">
      <g>
       <use style="stroke:#000000;stroke-width:0.8;" x="54" xlink:href="#m4bf701a605" y="257.155915"/>
      </g>
     </g>
     <g id="text_7">
      <!-- $-0.6$ -->
      <g transform="translate(6.073883 263.910492)scale(0.2 -0.2)">
       <use transform="scale(0.996264)" xlink:href="#CMSY10-0"/>
       <use transform="translate(77.408707 0)scale(0.996264)" xlink:href="#Nimbus_Roman_No9_L_Regular-48"/>
       <use transform="translate(127.221908 0)scale(0.996264)" xlink:href="#CMMI10-58"/>
       <use transform="translate(154.817414 0)scale(0.996264)" xlink:href="#Nimbus_Roman_No9_L_Regular-54"/>
      </g>
     </g>
    </g>
    <g id="ytick_3">
     <g id="line2d_7">
      <g>
       <use style="stroke:#000000;stroke-width:0.8;" x="54" xlink:href="#m4bf701a605" y="205.463256"/>
      </g>
     </g>
     <g id="text_8">
      <!-- $-0.4$ -->
      <g transform="translate(6.073883 212.217834)scale(0.2 -0.2)">
       <use transform="scale(0.996264)" xlink:href="#CMSY10-0"/>
       <use transform="translate(77.408707 0)scale(0.996264)" xlink:href="#Nimbus_Roman_No9_L_Regular-48"/>
       <use transform="translate(127.221908 0)scale(0.996264)" xlink:href="#CMMI10-58"/>
       <use transform="translate(154.817414 0)scale(0.996264)" xlink:href="#Nimbus_Roman_No9_L_Regular-52"/>
      </g>
     </g>
    </g>
    <g id="ytick_4">
     <g id="line2d_8">
      <g>
       <use style="stroke:#000000;stroke-width:0.8;" x="54" xlink:href="#m4bf701a605" y="153.770597"/>
      </g>
     </g>
     <g id="text_9">
      <!-- $-0.2$ -->
      <g transform="translate(6.073883 160.525175)scale(0.2 -0.2)">
       <use transform="scale(0.996264)" xlink:href="#CMSY10-0"/>
       <use transform="translate(77.408707 0)scale(0.996264)" xlink:href="#Nimbus_Roman_No9_L_Regular-48"/>
       <use transform="translate(127.221908 0)scale(0.996264)" xlink:href="#CMMI10-58"/>
       <use transform="translate(154.817414 0)scale(0.996264)" xlink:href="#Nimbus_Roman_No9_L_Regular-50"/>
      </g>
     </g>
    </g>
    <g id="ytick_5">
     <g id="line2d_9">
      <g>
       <use style="stroke:#000000;stroke-width:0.8;" x="54" xlink:href="#m4bf701a605" y="102.077938"/>
      </g>
     </g>
     <g id="text_10">
      <!-- $0.0$ -->
      <g transform="translate(21.555621 108.832516)scale(0.2 -0.2)">
       <use transform="scale(0.996264)" xlink:href="#Nimbus_Roman_No9_L_Regular-48"/>
       <use transform="translate(49.8132 0)scale(0.996264)" xlink:href="#CMMI10-58"/>
       <use transform="translate(77.408707 0)scale(0.996264)" xlink:href="#Nimbus_Roman_No9_L_Regular-48"/>
      </g>
     </g>
    </g>
    <g id="ytick_6">
     <g id="line2d_10">
      <g>
       <use style="stroke:#000000;stroke-width:0.8;" x="54" xlink:href="#m4bf701a605" y="50.38528"/>
      </g>
     </g>
     <g id="text_11">
      <!-- $0.2$ -->
      <g transform="translate(21.555621 57.139857)scale(0.2 -0.2)">
       <use transform="scale(0.996264)" xlink:href="#Nimbus_Roman_No9_L_Regular-48"/>
       <use transform="translate(49.8132 0)scale(0.996264)" xlink:href="#CMMI10-58"/>
       <use transform="translate(77.408707 0)scale(0.996264)" xlink:href="#Nimbus_Roman_No9_L_Regular-50"/>
      </g>
     </g>
    </g>
    <g id="text_12">
     <!-- $\mu_P(\phi_P)$ -->
     <defs>
      <path d="M 44.203125 50 
L 35.296875 50 
L 35.40625 13.265625 
C 31.796875 8.1875 28.40625 6 24.203125 6 
C 18.40625 6 15 10.078125 15 17.046875 
L 15 50 
L 6.203125 50 
L 6.203125 2.1875 
C 6.203125 0.09375 5.796875 -2.40625 5.09375 -5.40625 
C 3.40625 -11.609375 3.296875 -12.203125 3.296875 -14.515625 
C 3.296875 -18.703125 5.40625 -21.703125 8.296875 -21.703125 
C 11.203125 -21.703125 13.203125 -18.703125 13.203125 -14.3125 
C 13.203125 -12.203125 12.90625 -10.90625 11.296875 -5.109375 
C 10.296875 -1.515625 10.09375 -0.515625 10.09375 2.296875 
L 10.09375 3.484375 
C 14.296875 -0.015625 16.59375 -1.109375 20 -1.109375 
C 25 -1.109375 30.09375 1.984375 35.40625 8.1875 
C 36.203125 4.984375 36.703125 3.796875 37.703125 2.296875 
C 39.203125 -0.109375 41.90625 -1.40625 44.796875 -1.40625 
C 51 -1.40625 55.296875 2.984375 56.703125 10.703125 
L 54 10.8125 
C 53.59375 7 51.5 4 49.203125 4 
C 46.203125 4 44.203125 7.59375 44.203125 13.015625 
z
" id="Standard_Symbols_L-109"/>
      <path d="M 33.09375 -24 
C 33.09375 -23.703125 33.09375 -23.5 31.40625 -21.8125 
C 18.90625 -9.203125 15.703125 9.6875 15.703125 25 
C 15.703125 42.390625 19.5 59.796875 31.796875 72.296875 
C 33.09375 73.5 33.09375 73.6875 33.09375 74 
C 33.09375 74.6875 32.703125 75 32.09375 75 
C 31.09375 75 22.09375 68.203125 16.203125 55.5 
C 11.09375 44.5 9.90625 33.390625 9.90625 25 
C 9.90625 17.1875 11 5.09375 16.5 -6.203125 
C 22.5 -18.5 31.09375 -25 32.09375 -25 
C 32.703125 -25 33.09375 -24.703125 33.09375 -24 
z
" id="CMR10-40"/>
      <path d="M 28.90625 25 
C 28.90625 32.796875 27.796875 44.890625 22.296875 56.203125 
C 16.296875 68.5 7.703125 75 6.703125 75 
C 6.09375 75 5.703125 74.59375 5.703125 74 
C 5.703125 73.6875 5.703125 73.5 7.59375 71.703125 
C 17.40625 61.796875 23.09375 45.890625 23.09375 25 
C 23.09375 7.890625 19.40625 -9.703125 7 -22.3125 
C 5.703125 -23.5 5.703125 -23.703125 5.703125 -24 
C 5.703125 -24.609375 6.09375 -25 6.703125 -25 
C 7.703125 -25 16.703125 -18.203125 22.59375 -5.5 
C 27.703125 5.5 28.90625 16.59375 28.90625 25 
z
" id="CMR10-41"/>
     </defs>
     <g transform="translate(-2.239775 207.275804)rotate(-90)scale(0.2 -0.2)">
      <use transform="translate(0 14.943915)scale(0.996264)" xlink:href="#Standard_Symbols_L-109"/>
      <use transform="translate(57.383779 0)scale(0.737241)" xlink:href="#Nimbus_Roman_No9_L_Regular_Italic-80"/>
      <use transform="translate(102.92724 14.943915)scale(0.996264)" xlink:href="#CMR10-40"/>
      <use transform="translate(141.581086 14.943915)scale(0.996264)" xlink:href="#Standard_Symbols_L-102"/>
      <use transform="translate(193.486051 0)scale(0.737241)" xlink:href="#Nimbus_Roman_No9_L_Regular_Italic-80"/>
      <use transform="translate(239.029512 14.943915)scale(0.996264)" xlink:href="#CMR10-41"/>
     </g>
    </g>
   </g>
   <g id="line2d_11">
    <path clip-path="url(#pd4d6eb83a7)" d="M 69.218182 250.952796 
L 72.292562 241.488478 
L 75.366942 232.38973 
L 78.441322 223.649975 
L 81.515702 215.262634 
L 84.590083 207.221129 
L 87.664463 199.518881 
L 90.738843 192.149311 
L 93.813223 185.105842 
L 96.887603 178.381895 
L 99.961983 171.970892 
L 103.036364 165.866254 
L 106.110744 160.061403 
L 109.185124 154.54976 
L 112.259504 149.324747 
L 115.333884 144.379786 
L 118.408264 139.708298 
L 121.482645 135.303705 
L 124.557025 131.159428 
L 127.631405 127.26889 
L 130.705785 123.625511 
L 133.780165 120.222713 
L 136.854545 117.053919 
L 139.928926 114.112548 
L 143.003306 111.392024 
L 146.077686 108.885768 
L 149.152066 106.587201 
L 152.226446 104.489745 
L 155.300826 102.586821 
L 158.375207 100.871851 
L 161.449587 99.338258 
L 164.523967 97.979461 
L 167.598347 96.788884 
L 170.672727 95.759947 
L 173.747107 94.886072 
L 176.821488 94.160681 
L 179.895868 93.577195 
L 182.970248 93.129036 
L 186.044628 92.809626 
L 189.119008 92.612386 
L 192.193388 92.530738 
L 195.267769 92.558103 
L 198.342149 92.687904 
L 201.416529 92.913561 
L 204.490909 93.228496 
L 207.565289 93.62613 
L 210.639669 94.099887 
L 213.71405 94.643186 
L 216.78843 95.24945 
L 219.86281 95.9121 
L 222.93719 96.624558 
L 226.01157 97.380246 
L 229.08595 98.172584 
L 232.160331 98.994995 
L 235.234711 99.840901 
L 238.309091 100.703722 
L 241.383471 101.576881 
L 244.457851 102.453799 
L 247.532231 103.327897 
L 250.606612 104.192598 
L 253.680992 105.041323 
L 256.755372 105.867493 
L 259.829752 106.66453 
L 262.904132 107.425857 
L 265.978512 108.144893 
L 269.052893 108.815061 
L 272.127273 109.429783 
L 275.201653 109.98248 
L 278.276033 110.466574 
L 281.350413 110.875486 
L 284.424793 111.202638 
L 287.499174 111.441452 
L 290.573554 111.585349 
L 293.647934 111.62775 
L 296.722314 111.562078 
L 299.796694 111.381754 
L 302.871074 111.080199 
L 305.945455 110.650836 
L 309.019835 110.087086 
L 312.094215 109.38237 
L 315.168595 108.530109 
L 318.242975 107.523727 
L 321.317355 106.356644 
L 324.391736 105.022281 
L 327.466116 103.514061 
L 330.540496 101.825405 
L 333.614876 99.949735 
L 336.689256 97.880472 
L 339.763636 95.611038 
L 342.838017 93.134854 
L 345.912397 90.445342 
L 348.986777 87.535924 
L 352.061157 84.400022 
L 355.135537 81.031056 
L 358.209917 77.422449 
L 361.284298 73.567621 
L 364.358678 69.459996 
L 367.433058 65.092994 
L 370.507438 60.460036 
L 373.581818 55.554545 
" style="fill:none;stroke:#1f77b4;stroke-linecap:square;stroke-width:1.5;"/>
   </g>
   <g id="line2d_12">
    <path clip-path="url(#pd4d6eb83a7)" d="M 69.218182 302.645455 
L 72.292562 293.181136 
L 75.366942 284.082389 
L 78.441322 275.342634 
L 81.515702 266.955293 
L 84.590083 258.913788 
L 87.664463 251.21154 
L 90.738843 243.84197 
L 93.813223 236.798501 
L 96.887603 230.074554 
L 99.961983 223.663551 
L 103.036364 217.558913 
L 106.110744 211.754061 
L 109.185124 206.242419 
L 112.259504 201.017406 
L 115.333884 196.072445 
L 118.408264 191.400957 
L 121.482645 186.996364 
L 124.557025 182.852087 
L 127.631405 178.961548 
L 130.705785 175.31817 
L 133.780165 171.915372 
L 136.854545 168.746577 
L 139.928926 165.805207 
L 143.003306 163.084683 
L 146.077686 160.578427 
L 149.152066 158.27986 
L 152.226446 156.182403 
L 155.300826 154.27948 
L 158.375207 152.56451 
L 161.449587 151.030916 
L 164.523967 149.67212 
L 167.598347 148.481543 
L 170.672727 147.452606 
L 173.747107 146.578731 
L 176.821488 145.85334 
L 179.895868 145.269854 
L 182.970248 144.821695 
L 186.044628 144.502285 
L 189.119008 144.305045 
L 192.193388 144.223397 
L 195.267769 144.250762 
L 198.342149 144.380562 
L 201.416529 144.606219 
L 204.490909 144.921154 
L 207.565289 145.318789 
L 210.639669 145.792545 
L 213.71405 146.335845 
L 216.78843 146.942109 
L 219.86281 147.604759 
L 222.93719 148.317217 
L 226.01157 149.072904 
L 229.08595 149.865243 
L 232.160331 150.687654 
L 235.234711 151.53356 
L 238.309091 152.396381 
L 241.383471 153.26954 
L 244.457851 154.146457 
L 247.532231 155.020556 
L 250.606612 155.885257 
L 253.680992 156.733982 
L 256.755372 157.560152 
L 259.829752 158.357189 
L 262.904132 159.118515 
L 265.978512 159.837552 
L 269.052893 160.50772 
L 272.127273 161.122442 
L 275.201653 161.675139 
L 278.276033 162.159233 
L 281.350413 162.568145 
L 284.424793 162.895297 
L 287.499174 163.134111 
L 290.573554 163.278007 
L 293.647934 163.320409 
L 296.722314 163.254737 
L 299.796694 163.074413 
L 302.871074 162.772858 
L 305.945455 162.343495 
L 309.019835 161.779744 
L 312.094215 161.075028 
L 315.168595 160.222768 
L 318.242975 159.216386 
L 321.317355 158.049303 
L 324.391736 156.71494 
L 327.466116 155.20672 
L 330.540496 153.518064 
L 333.614876 151.642394 
L 336.689256 149.573131 
L 339.763636 147.303697 
L 342.838017 144.827513 
L 345.912397 142.138001 
L 348.986777 139.228583 
L 352.061157 136.092681 
L 355.135537 132.723715 
L 358.209917 129.115107 
L 361.284298 125.26028 
L 364.358678 121.152655 
L 367.433058 116.785652 
L 370.507438 112.152695 
L 373.581818 107.247204 
" style="fill:none;stroke:#ff7f0e;stroke-linecap:square;stroke-width:1.5;"/>
   </g>
   <g id="patch_3">
    <path d="M 54 315 
L 54 43.2 
" style="fill:none;stroke:#000000;stroke-linecap:square;stroke-linejoin:miter;stroke-width:0.8;"/>
   </g>
   <g id="patch_4">
    <path d="M 388.8 315 
L 388.8 43.2 
" style="fill:none;stroke:#000000;stroke-linecap:square;stroke-linejoin:miter;stroke-width:0.8;"/>
   </g>
   <g id="patch_5">
    <path d="M 54 315 
L 388.8 315 
" style="fill:none;stroke:#000000;stroke-linecap:square;stroke-linejoin:miter;stroke-width:0.8;"/>
   </g>
   <g id="patch_6">
    <path d="M 54 43.2 
L 388.8 43.2 
" style="fill:none;stroke:#000000;stroke-linecap:square;stroke-linejoin:miter;stroke-width:0.8;"/>
   </g>
   <g id="legend_1">
    <g id="patch_7">
     <path d="M 259.603453 305 
L 374.8 305 
Q 378.8 305 378.8 301 
L 378.8 246.372684 
Q 378.8 242.372684 374.8 242.372684 
L 259.603453 242.372684 
Q 255.603453 242.372684 255.603453 246.372684 
L 255.603453 301 
Q 255.603453 305 259.603453 305 
z
" style="fill:#ffffff;opacity:0.8;stroke:#cccccc;stroke-linejoin:miter;"/>
    </g>
    <g id="line2d_13">
     <path d="M 263.603453 257.372684 
L 303.603453 257.372684 
" style="fill:none;stroke:#1f77b4;stroke-linecap:square;stroke-width:1.5;"/>
    </g>
    <g id="line2d_14"/>
    <g id="text_13">
     <!-- $r \rightarrow \infty$ -->
     <defs>
      <path d="M 12.09375 0 
C 17.296875 16.953125 19 21.25 23.59375 28.828125 
C 26.90625 34.40625 29.703125 37.5 31.40625 37.5 
C 32 37.5 32.5 37.109375 33 36.109375 
C 33.796875 34.40625 34.59375 33.90625 36.59375 33.90625 
C 39.5 33.90625 41.203125 35.703125 41.203125 38.796875 
C 41.203125 41.890625 39.296875 44 36.5 44 
C 34.203125 44 31.5 42.484375 28.90625 39.796875 
C 24.796875 35.609375 20.796875 29.71875 19.203125 25.734375 
L 17.796875 22.140625 
L 23.09375 43.796875 
L 22.796875 44 
C 15.5 42.6875 14.59375 42.484375 7.296875 41.296875 
L 7.296875 39.59375 
C 9.703125 40.09375 10 40.09375 10.703125 40.09375 
C 12.90625 40.09375 14.203125 39.09375 14.203125 37.296875 
C 14.203125 35.90625 14.203125 35.90625 12.59375 29.125 
L 4.5 0 
z
" id="Nimbus_Roman_No9_L_Regular_Italic-114"/>
      <path d="M 83.40625 23 
C 77.90625 18.796875 75.203125 14.6875 74.40625 13.390625 
C 69.90625 6.484375 69.09375 0.1875 69.09375 0.09375 
C 69.09375 -1.109375 70.296875 -1.109375 71.09375 -1.109375 
C 72.796875 -1.109375 72.90625 -0.90625 73.296875 0.890625 
C 75.59375 10.6875 81.5 19.09375 92.796875 23.6875 
C 94 24.09375 94.296875 24.296875 94.296875 25 
C 94.296875 25.6875 93.703125 26 93.5 26.09375 
C 89.09375 27.796875 77 32.796875 73.203125 49.59375 
C 72.90625 50.796875 72.796875 51.09375 71.09375 51.09375 
C 70.296875 51.09375 69.09375 51.09375 69.09375 49.890625 
C 69.09375 49.6875 70 43.390625 74.203125 36.6875 
C 76.203125 33.6875 79.09375 30.1875 83.40625 27 
L 9.09375 27 
C 7.296875 27 5.5 27 5.5 25 
C 5.5 23 7.296875 23 9.09375 23 
z
" id="CMSY10-33"/>
      <path d="M 35.703125 22.84375 
C 41.5 15.890625 48.5 11.796875 54.796875 11.796875 
C 63.09375 11.796875 68.796875 17.875 68.796875 26.640625 
C 68.796875 35.21875 62.90625 41.1875 54.296875 41.1875 
C 47.59375 41.1875 41.203125 37.296875 35.703125 30.25 
C 30 37.296875 23.40625 41.1875 17.09375 41.1875 
C 8.703125 41.1875 2.59375 34.921875 2.59375 26.34375 
C 2.59375 17.875 8.40625 11.796875 16.703125 11.796875 
C 22.40625 11.796875 28.09375 14.484375 32.703125 19.421875 
z
M 39.09375 26.4375 
C 43.40625 32.296875 49.296875 36 54.59375 36 
C 60 36 63.796875 32 63.796875 26.4375 
C 63.796875 20.6875 60.296875 17 54.90625 17 
C 49.59375 17 46.09375 19.140625 39.09375 26.4375 
z
M 32.40625 26.640625 
C 27.59375 20.59375 21.5 17 16.296875 17 
C 11.09375 17 7.59375 20.984375 7.59375 26.640625 
C 7.59375 32.1875 11.296875 36 16.703125 36 
C 21.5 36 26 33.453125 31.703125 27.421875 
C 32.09375 27.03125 32.09375 27.03125 32.40625 26.640625 
z
" id="Standard_Symbols_L-165"/>
     </defs>
     <g transform="translate(319.603453 264.372684)scale(0.2 -0.2)">
      <use transform="scale(0.996264)" xlink:href="#Nimbus_Roman_No9_L_Regular_Italic-114"/>
      <use transform="translate(63.184035 0)scale(0.996264)" xlink:href="#CMSY10-33"/>
      <use transform="translate(184.949582 0)scale(0.996264)" xlink:href="#Standard_Symbols_L-165"/>
     </g>
    </g>
    <g id="line2d_15">
     <path d="M 263.603453 285.686342 
L 303.603453 285.686342 
" style="fill:none;stroke:#ff7f0e;stroke-linecap:square;stroke-width:1.5;"/>
    </g>
    <g id="line2d_16"/>
    <g id="text_14">
     <!-- $r = 0 $ -->
     <defs>
      <path d="M 68.703125 32.984375 
C 70.203125 32.984375 72.09375 32.984375 72.09375 34.984375 
C 72.09375 37 70.203125 37 68.796875 37 
L 8.90625 37 
C 7.5 37 5.59375 37 5.59375 34.984375 
C 5.59375 32.984375 7.5 32.984375 9 32.984375 
z
M 68.796875 13 
C 70.203125 13 72.09375 13 72.09375 15 
C 72.09375 17 70.203125 17 68.703125 17 
L 9 17 
C 7.5 17 5.59375 17 5.59375 15 
C 5.59375 13 7.5 13 8.90625 13 
z
" id="CMR10-61"/>
     </defs>
     <g transform="translate(319.603453 292.686342)scale(0.2 -0.2)">
      <use transform="scale(0.996264)" xlink:href="#Nimbus_Roman_No9_L_Regular_Italic-114"/>
      <use transform="translate(63.184035 0)scale(0.996264)" xlink:href="#CMR10-61"/>
      <use transform="translate(162.731888 0)scale(0.996264)" xlink:href="#Nimbus_Roman_No9_L_Regular-48"/>
     </g>
    </g>
   </g>
  </g>
 </g>
 <defs>
  <clipPath id="pd4d6eb83a7">
   <rect height="271.8" width="334.8" x="54" y="43.2"/>
  </clipPath>
 </defs>
</svg>
