<?xml version="1.0" encoding="utf-8" standalone="no"?>
<!DOCTYPE svg PUBLIC "-//W3C//DTD SVG 1.1//EN"
  "http://www.w3.org/Graphics/SVG/1.1/DTD/svg11.dtd">
<!-- Created with matplotlib (http://matplotlib.org/) -->
<svg height="360pt" version="1.1" viewBox="0 0 360 360" width="360pt" xmlns="http://www.w3.org/2000/svg" xmlns:xlink="http://www.w3.org/1999/xlink">
 <defs>
  <style type="text/css">
*{stroke-linecap:butt;stroke-linejoin:round;}
  </style>
 </defs>
 <g id="figure_1">
  <g id="patch_1">
   <path d="M 0 360 
L 360 360 
L 360 0 
L 0 0 
z
" style="fill:#ffffff;"/>
  </g>
  <g id="axes_1">
   <g id="patch_2">
    <path d="M 45 320.4 
L 324 320.4 
L 324 43.2 
L 45 43.2 
z
" style="fill:#ffffff;"/>
   </g>
   <g id="matplotlib.axis_1">
    <g id="xtick_1">
     <g id="line2d_1">
      <defs>
       <path d="M 0 0 
L 0 3.5 
" id="m0bc48d111d" style="stroke:#000000;stroke-width:0.8;"/>
      </defs>
      <g>
       <use style="stroke:#000000;stroke-width:0.8;" x="55.119835" xlink:href="#m0bc48d111d" y="320.4"/>
      </g>
     </g>
     <g id="text_1">
      <!-- $0.0$ -->
      <defs>
       <path d="M 25.40625 68 
C 19.90625 68 15.703125 66.296875 12 62.796875 
C 6.203125 57.203125 2.40625 45.6875 2.40625 34 
C 2.40625 23.09375 5.703125 11.390625 10.40625 5.796875 
C 14.09375 1.390625 19.203125 -1 25 -1 
C 30.09375 -1 34.40625 0.6875 38 4.1875 
C 43.796875 9.6875 47.59375 21.296875 47.59375 33.390625 
C 47.59375 53.890625 38.5 68 25.40625 68 
z
M 25.09375 65.390625 
C 33.5 65.390625 38 54.09375 38 33.1875 
C 38 12.296875 33.59375 1.59375 25 1.59375 
C 16.40625 1.59375 12 12.296875 12 33.09375 
C 12 54.296875 16.5 65.390625 25.09375 65.390625 
z
" id="Nimbus_Roman_No9_L_Regular-48"/>
       <path d="M 19.203125 5.296875 
C 19.203125 8.1875 16.796875 10.59375 13.90625 10.59375 
C 11 10.59375 8.59375 8.1875 8.59375 5.296875 
C 8.59375 2.390625 11 0 13.90625 0 
C 16.796875 0 19.203125 2.390625 19.203125 5.296875 
z
" id="CMMI10-58"/>
      </defs>
      <g transform="translate(42.397645 340.909155)scale(0.2 -0.2)">
       <use transform="scale(0.996264)" xlink:href="#Nimbus_Roman_No9_L_Regular-48"/>
       <use transform="translate(49.8132 0)scale(0.996264)" xlink:href="#CMMI10-58"/>
       <use transform="translate(77.408707 0)scale(0.996264)" xlink:href="#Nimbus_Roman_No9_L_Regular-48"/>
      </g>
     </g>
    </g>
    <g id="xtick_2">
     <g id="line2d_2">
      <g>
       <use style="stroke:#000000;stroke-width:0.8;" x="183.219008" xlink:href="#m0bc48d111d" y="320.4"/>
      </g>
     </g>
     <g id="text_2">
      <!-- $0.2$ -->
      <defs>
       <path d="M 47.5 13.734375 
L 46.203125 14.25 
C 42.5 8.5 41.203125 7.59375 36.703125 7.59375 
L 12.796875 7.59375 
L 29.59375 25.328125 
C 38.5 34.703125 42.40625 42.359375 42.40625 50.21875 
C 42.40625 60.28125 34.296875 68 23.90625 68 
C 18.40625 68 13.203125 65.796875 9.5 61.796875 
C 6.296875 58.375 4.796875 55.15625 3.09375 48 
L 5.203125 47.484375 
C 9.203125 57.359375 12.796875 60.59375 19.703125 60.59375 
C 28.09375 60.59375 33.796875 54.84375 33.796875 46.390625 
C 33.796875 38.53125 29.203125 29.15625 20.796875 20.1875 
L 3 1.1875 
L 3 0 
L 42 0 
z
" id="Nimbus_Roman_No9_L_Regular-50"/>
      </defs>
      <g transform="translate(170.496819 340.909155)scale(0.2 -0.2)">
       <use transform="scale(0.996264)" xlink:href="#Nimbus_Roman_No9_L_Regular-48"/>
       <use transform="translate(49.8132 0)scale(0.996264)" xlink:href="#CMMI10-58"/>
       <use transform="translate(77.408707 0)scale(0.996264)" xlink:href="#Nimbus_Roman_No9_L_Regular-50"/>
      </g>
     </g>
    </g>
    <g id="xtick_3">
     <g id="line2d_3">
      <g>
       <use style="stroke:#000000;stroke-width:0.8;" x="311.318182" xlink:href="#m0bc48d111d" y="320.4"/>
      </g>
     </g>
     <g id="text_3">
      <!-- $0.4$ -->
      <defs>
       <path d="M 47.203125 23.390625 
L 37 23.390625 
L 37 68 
L 32.59375 68 
L 1.203125 23.390625 
L 1.203125 17 
L 29.296875 17 
L 29.296875 0 
L 37 0 
L 37 17 
L 47.203125 17 
z
M 29.203125 23.390625 
L 5.203125 23.390625 
L 29.203125 57.765625 
z
" id="Nimbus_Roman_No9_L_Regular-52"/>
      </defs>
      <g transform="translate(298.595993 340.909155)scale(0.2 -0.2)">
       <use transform="scale(0.996264)" xlink:href="#Nimbus_Roman_No9_L_Regular-48"/>
       <use transform="translate(49.8132 0)scale(0.996264)" xlink:href="#CMMI10-58"/>
       <use transform="translate(77.408707 0)scale(0.996264)" xlink:href="#Nimbus_Roman_No9_L_Regular-52"/>
      </g>
     </g>
    </g>
    <g id="text_4">
     <!-- RNA:Protein ($\phi_R/\phi_P$) -->
     <defs>
      <path d="M 65.90625 1.890625 
C 62.09375 2.1875 60.09375 3.1875 57.203125 6.578125 
L 36.59375 31.796875 
C 43.296875 33.09375 46.296875 34.28125 49.59375 36.96875 
C 52.796875 39.5625 54.703125 43.75 54.703125 48.4375 
C 54.703125 52.71875 53.40625 56.40625 50.796875 59.296875 
C 47 63.390625 38.703125 66 29.296875 66 
L 1.703125 66 
L 1.703125 64.09375 
C 9.203125 63.296875 10.203125 62.203125 10.203125 55.125 
L 10.203125 11.953125 
C 10.203125 3.6875 9.203125 2.484375 1.703125 1.890625 
L 1.703125 0 
L 29.40625 0 
L 29.40625 1.890625 
C 21.703125 2.390625 20.40625 3.6875 20.40625 10.859375 
L 20.40625 30.5 
L 26 30.703125 
L 49.796875 0 
L 65.90625 0 
z
M 20.40625 58.6875 
C 20.40625 61.484375 21.5 62.296875 25.5 62.296875 
C 38 62.296875 43.796875 57.984375 43.796875 48.59375 
C 43.796875 43.59375 41.703125 39.390625 38.09375 37.484375 
C 33.5 34.890625 30 34.296875 20.40625 34.09375 
z
" id="Nimbus_Roman_No9_L_Regular-82"/>
      <path d="M 61.203125 -1 
L 61.203125 51.359375 
C 61.203125 57.328125 62.203125 61.015625 64.09375 62.3125 
C 65.5 63.296875 66.90625 63.703125 70.703125 64.09375 
L 70.703125 66 
L 47.203125 66 
L 47.203125 64.09375 
C 51 63.796875 52.40625 63.40625 53.90625 62.5 
C 55.90625 61.109375 56.796875 57.53125 56.796875 51.359375 
L 56.796875 17.8125 
L 18.296875 66 
L 1.203125 66 
L 1.203125 64.09375 
C 5.5 64.09375 6.90625 63.296875 10.90625 58.625 
L 10.90625 14.734375 
C 10.90625 4.390625 9.5 2.5 1.203125 1.890625 
L 1.203125 0 
L 24.703125 0 
L 24.703125 1.890625 
C 17 2.296875 15.296875 4.59375 15.296875 14.6875 
L 15.296875 53.890625 
L 59.5 -1 
z
" id="Nimbus_Roman_No9_L_Regular-78"/>
      <path d="M 70.59375 1.890625 
C 66.09375 2.203125 65.09375 3.203125 61.59375 10.71875 
L 36.703125 67 
L 34.703125 67 
L 13.90625 18.546875 
C 7.5 3.71875 6.296875 2.09375 1.5 1.890625 
L 1.5 0 
L 21.296875 0 
L 21.296875 1.890625 
C 16.5 1.890625 14.5 3.203125 14.5 6.046875 
C 14.5 7.265625 14.796875 8.6875 15.296875 10.015625 
L 19.90625 21.890625 
L 46.09375 21.890625 
L 50.203125 12.140625 
C 51.40625 9.40625 52.09375 6.765625 52.09375 5.34375 
C 52.09375 2.796875 50.40625 2 45.09375 1.890625 
L 45.09375 0 
L 70.59375 0 
z
M 21.59375 26 
L 33.09375 53 
L 44.703125 26 
z
" id="Nimbus_Roman_No9_L_Regular-65"/>
      <path d="M 13.59375 46 
C 10.59375 46 8.09375 43.390625 8.09375 40.296875 
C 8.09375 37.390625 10.59375 34.890625 13.5 34.890625 
C 16.59375 34.890625 19.203125 37.390625 19.203125 40.296875 
C 19.203125 43.390625 16.59375 46 13.59375 46 
z
M 13.59375 10.09375 
C 10.59375 10.09375 8.09375 7.5 8.09375 4.390625 
C 8.09375 1.5 10.59375 -1 13.5 -1 
C 16.59375 -1 19.203125 1.5 19.203125 4.390625 
C 19.203125 7.5 16.59375 10.09375 13.59375 10.09375 
z
" id="Nimbus_Roman_No9_L_Regular-58"/>
      <path d="M 20.203125 29.296875 
C 22.796875 29.09375 24.5 28.984375 27.09375 28.984375 
C 34.90625 28.984375 40.296875 29.984375 44.59375 32.390625 
C 50.59375 35.5625 54.203125 41.578125 54.203125 48.078125 
C 54.203125 52.234375 52.796875 55.984375 50.09375 58.84375 
C 46.09375 63.1875 37.40625 66 28 66 
L 1.59375 66 
L 1.59375 64.09375 
C 9 63.296875 10 62.296875 10 55.125 
L 10 11.953125 
C 10 3.59375 9.203125 2.59375 1.59375 1.890625 
L 1.59375 0 
L 29.59375 0 
L 29.59375 1.890625 
C 21.703125 2.1875 20.203125 3.59375 20.203125 10.859375 
z
M 20.203125 58.9375 
C 20.203125 61.59375 20.90625 62.296875 23.59375 62.296875 
C 37.09375 62.296875 43.296875 57.65625 43.296875 47.5 
C 43.296875 37.921875 37.40625 33 25.90625 33 
C 23.90625 33 22.5 33.09375 20.203125 33.28125 
z
" id="Nimbus_Roman_No9_L_Regular-80"/>
      <path d="M 0.703125 39 
C 2.09375 39.296875 3 39.390625 4.203125 39.390625 
C 6.703125 39.390625 7.59375 37.796875 7.59375 33.390625 
L 7.59375 8.390625 
C 7.59375 3.390625 6.90625 2.6875 0.5 1.5 
L 0.5 0 
L 24.5 0 
L 24.5 1.5 
C 17.703125 1.796875 16 3.296875 16 9 
L 16 31.5 
C 16 34.6875 20.296875 39.6875 23 39.6875 
C 23.59375 39.6875 24.5 39.1875 25.59375 38.1875 
C 27.203125 36.796875 28.296875 36.1875 29.59375 36.1875 
C 32 36.1875 33.5 37.890625 33.5 40.6875 
C 33.5 43.984375 31.40625 46 28 46 
C 23.796875 46 20.90625 43.6875 16 36.59375 
L 16 45.796875 
L 15.5 46 
C 10.203125 43.796875 6.59375 42.5 0.703125 40.59375 
z
" id="Nimbus_Roman_No9_L_Regular-114"/>
      <path d="M 25 46 
C 12 46 2.90625 36.390625 2.90625 22.59375 
C 2.90625 9.09375 12.203125 -1 24.796875 -1 
C 37.40625 -1 47 9.59375 47 23.390625 
C 47 36.5 37.796875 46 25 46 
z
M 23.703125 43.1875 
C 32.09375 43.1875 38 33.59375 38 19.890625 
C 38 8.59375 33.5 1.796875 26 1.796875 
C 22.09375 1.796875 18.40625 4.1875 16.296875 8.1875 
C 13.5 13.390625 11.90625 20.390625 11.90625 27.5 
C 11.90625 37 16.59375 43.1875 23.703125 43.1875 
z
" id="Nimbus_Roman_No9_L_Regular-111"/>
      <path d="M 25.5 45 
L 15.40625 45 
L 15.40625 56.59375 
C 15.40625 57.59375 15.296875 57.890625 14.703125 57.890625 
C 14 57 13.40625 56.09375 12.703125 55.09375 
C 8.90625 49.59375 4.59375 44.796875 3 44.390625 
C 1.90625 43.6875 1.296875 42.984375 1.296875 42.484375 
C 1.296875 42.1875 1.40625 41.984375 1.703125 41.796875 
L 7 41.796875 
L 7 11.6875 
C 7 3.296875 10 -1 15.90625 -1 
C 20.796875 -1 24.59375 1.390625 27.90625 6.59375 
L 26.59375 7.6875 
C 24.5 5.1875 22.796875 4.1875 20.59375 4.1875 
C 16.90625 4.1875 15.40625 6.890625 15.40625 13.1875 
L 15.40625 41.796875 
L 25.5 41.796875 
z
" id="Nimbus_Roman_No9_L_Regular-116"/>
      <path d="M 40.796875 16.4375 
C 36 8.8125 31.703125 5.890625 25.296875 5.890625 
C 19.59375 5.890625 15.296875 8.8125 12.40625 14.53125 
C 10.59375 18.34375 9.90625 21.65625 9.703125 27.796875 
L 40.5 27.796875 
C 39.703125 34.265625 38.703125 37.140625 36.203125 40.3125 
C 33.203125 43.890625 28.59375 46 23.40625 46 
C 18.40625 46 13.703125 44.1875 9.90625 40.8125 
C 5.203125 36.734375 2.5 29.6875 2.5 21.46875 
C 2.5 7.59375 9.703125 -1 21.203125 -1 
C 30.703125 -1 38.203125 4.890625 42.40625 15.734375 
z
M 9.90625 31 
C 11 38.71875 14.40625 42.390625 20.5 42.390625 
C 26.59375 42.390625 29 39.609375 30.296875 31 
z
" id="Nimbus_Roman_No9_L_Regular-101"/>
      <path d="M 17.5 46 
L 2 40.5 
L 2 39 
L 2.796875 39.09375 
C 4 39.296875 5.296875 39.390625 6.203125 39.390625 
C 8.59375 39.390625 9.5 37.796875 9.5 33.390625 
L 9.5 10.1875 
C 9.5 3 8.5 1.890625 1.59375 1.5 
L 1.59375 0 
L 25.296875 0 
L 25.296875 1.5 
C 18.703125 2 17.90625 3 17.90625 10.1875 
L 17.90625 45.6875 
z
M 12.796875 68 
C 10.09375 68 7.796875 65.6875 7.796875 62.890625 
C 7.796875 60.09375 10 57.796875 12.796875 57.796875 
C 15.703125 57.796875 18 59.984375 18 62.890625 
C 18 65.6875 15.703125 68 12.796875 68 
z
" id="Nimbus_Roman_No9_L_Regular-105"/>
      <path d="M 1.59375 39.796875 
C 2.203125 40.09375 3.203125 40.1875 4.296875 40.1875 
C 7.09375 40.1875 8 38.6875 8 33.796875 
L 8 9 
C 8 3.296875 6.90625 1.890625 1.796875 1.5 
L 1.796875 0 
L 23 0 
L 23 1.5 
C 17.90625 1.890625 16.40625 3.09375 16.40625 6.6875 
L 16.40625 34.796875 
C 21.203125 39.296875 23.40625 40.484375 26.703125 40.484375 
C 31.59375 40.484375 34 37.390625 34 30.796875 
L 34 9.890625 
C 34 3.59375 32.703125 1.890625 27.703125 1.5 
L 27.703125 0 
L 48.5 0 
L 48.5 1.5 
C 43.59375 2 42.40625 3.1875 42.40625 8.09375 
L 42.40625 31 
C 42.40625 40.390625 38 46 30.59375 46 
C 26 46 22.90625 44.296875 16.09375 37.890625 
L 16.09375 45.796875 
L 15.40625 46 
C 10.5 44.1875 7.09375 43.09375 1.59375 41.484375 
z
" id="Nimbus_Roman_No9_L_Regular-110"/>
      <path d="M 29.5 68 
C 22.09375 63.1875 19.09375 60.59375 15.40625 55.984375 
C 8.296875 47.296875 4.796875 37.296875 4.796875 25.59375 
C 4.796875 12.890625 8.5 3.09375 17.296875 -7.109375 
C 21.40625 -11.90625 24 -14.109375 29.203125 -17.3125 
L 30.40625 -15.71875 
C 22.40625 -9.40625 19.59375 -5.90625 16.90625 1.59375 
C 14.5 8.28125 13.40625 15.890625 13.40625 25.890625 
C 13.40625 36.390625 14.703125 44.59375 17.40625 50.796875 
C 20.203125 56.984375 23.203125 60.59375 30.40625 66.390625 
z
" id="Nimbus_Roman_No9_L_Regular-40"/>
      <path d="M 27.90625 -0.46875 
C 40.203125 1.234375 49 12.46875 49 26.59375 
C 49 40.328125 40.59375 50.25 27.90625 51.15625 
L 27.90625 59.171875 
C 27.90625 62.890625 28 64.796875 28.203125 67.09375 
L 23.5 69 
C 23.703125 66.59375 23.796875 64.09375 23.796875 60.078125 
L 23.796875 51.15625 
C 11.796875 49.75 2.703125 38.328125 2.703125 24.5 
C 2.703125 10.5625 11.296875 0.34375 23.796875 -0.65625 
L 23.796875 -10.78125 
C 23.796875 -15.296875 23.703125 -18.109375 23.5 -20.90625 
L 28.203125 -22.015625 
C 28 -18.703125 28 -18.40625 27.90625 -14 
L 27.90625 -11.28125 
z
M 23.796875 3.546875 
C 21 4.65625 19 6.25 17.5 8.5625 
C 14.296875 13.46875 12.40625 21.09375 12.40625 29 
C 12.40625 40.328125 16.703125 47.34375 23.796875 47.65625 
z
M 27.90625 46.953125 
C 35 44.34375 39.296875 34.828125 39.296875 22.09375 
C 39.296875 10.265625 35.203125 3.453125 27.90625 3.046875 
z
" id="Standard_Symbols_L-102"/>
      <path d="M 56.703125 1.59375 
C 52.296875 1.890625 50.296875 3.578125 48.40625 8.765625 
L 39.09375 33.140625 
C 46.796875 34.828125 50.09375 36.21875 53.703125 39.40625 
C 57 42.296875 58.796875 46.171875 58.796875 50.65625 
C 58.796875 59.90625 51.40625 65 38 65 
L 13.203125 65 
L 13.203125 63.390625 
C 17.40625 62.796875 17.90625 62.6875 18.90625 61.984375 
C 19.703125 61.5 20.296875 60.296875 20.296875 59.203125 
C 20.296875 58.015625 19.796875 55.625 19.09375 52.9375 
L 6.796875 8.953125 
C 5 3.09375 4.296875 2.484375 -1.296875 1.59375 
L -1.296875 0 
L 23.09375 0 
L 23.09375 1.59375 
C 17 2.390625 16.296875 2.890625 16.296875 6.171875 
C 16.296875 7.171875 16.59375 8.453125 17.5 11.9375 
L 23.09375 32.734375 
L 29.59375 32.234375 
L 41.90625 0 
L 56.703125 0 
z
M 30.796875 59.203125 
C 31.40625 61.296875 32.703125 61.984375 35.90625 61.984375 
C 44.203125 61.984375 48.296875 58.21875 48.296875 50.84375 
C 48.296875 41 41.90625 35.921875 29.40625 35.921875 
C 27.796875 35.921875 26.703125 36.015625 24.296875 36.421875 
z
" id="Nimbus_Roman_No9_L_Regular_Italic-82"/>
      <path d="M 43.90625 71.203125 
C 44.40625 72.5 44.40625 72.890625 44.40625 73 
C 44.40625 74.09375 43.5 75 42.40625 75 
C 41.703125 75 41 74.6875 40.703125 74.09375 
L 6 -21.203125 
C 5.5 -22.5 5.5 -22.90625 5.5 -23 
C 5.5 -24.109375 6.40625 -25 7.5 -25 
C 8.796875 -25 9.09375 -24.3125 9.703125 -22.609375 
z
" id="CMMI10-61"/>
      <path d="M 14.59375 63.390625 
C 20.296875 62.6875 21.703125 61.796875 21.703125 59.203125 
C 21.703125 57.8125 21.296875 55.71875 20 51.234375 
L 8.203125 8.9375 
C 6.40625 2.984375 5.703125 2.390625 0 1.59375 
L 0 0 
L 24.5 0 
L 24.5 1.59375 
C 18.203125 2.484375 17.703125 2.78125 17.703125 6.15625 
C 17.703125 7.359375 17.90625 8.34375 18.90625 11.921875 
L 24.203125 31.09375 
C 26.703125 30.484375 29.296875 30.296875 33.40625 30.296875 
C 41.59375 30.296875 48.296875 31.984375 52.59375 35.09375 
C 57.59375 38.78125 60.5 44.25 60.5 50.140625 
C 60.5 59.703125 53 65 39.40625 65 
L 14.59375 65 
z
M 32.203125 59.203125 
C 32.796875 61.296875 34 61.984375 36.796875 61.984375 
C 40.703125 61.984375 44.5 61 46.5 59.59375 
C 49.09375 57.8125 50.203125 54.8125 50.203125 50.140625 
C 50.203125 43.65625 47.90625 39.078125 43.5 36.484375 
C 40.40625 34.796875 36.5 34 30.296875 34 
C 28.59375 34 27.796875 34.09375 25.09375 34.484375 
z
" id="Nimbus_Roman_No9_L_Regular_Italic-80"/>
      <path d="M 3.796875 -17.3125 
C 11.203125 -12.515625 14.203125 -9.90625 17.90625 -5.3125 
C 25 3.390625 28.5 13.390625 28.5 25.09375 
C 28.5 37.890625 24.796875 47.59375 16 57.796875 
C 11.90625 62.59375 9.296875 64.796875 4.09375 68 
L 2.90625 66.390625 
C 10.90625 60.09375 13.59375 56.59375 16.40625 49.09375 
C 18.796875 42.390625 19.90625 34.796875 19.90625 24.796875 
C 19.90625 14.390625 18.59375 6.09375 15.90625 -0.015625 
C 13.09375 -6.3125 10.09375 -9.90625 2.90625 -15.71875 
z
" id="Nimbus_Roman_No9_L_Regular-41"/>
     </defs>
     <g transform="translate(98.271249 364.834435)scale(0.2 -0.2)">
      <use transform="translate(0 14.943915)scale(0.996264)" xlink:href="#Nimbus_Roman_No9_L_Regular-82"/>
      <use transform="translate(66.450031 14.943915)scale(0.996264)" xlink:href="#Nimbus_Roman_No9_L_Regular-78"/>
      <use transform="translate(134.89329 14.943915)scale(0.996264)" xlink:href="#Nimbus_Roman_No9_L_Regular-65"/>
      <use transform="translate(206.823274 14.943915)scale(0.996264)" xlink:href="#Nimbus_Roman_No9_L_Regular-58"/>
      <use transform="translate(234.518444 14.943915)scale(0.996264)" xlink:href="#Nimbus_Roman_No9_L_Regular-80"/>
      <use transform="translate(289.910121 14.943915)scale(0.996264)" xlink:href="#Nimbus_Roman_No9_L_Regular-114"/>
      <use transform="translate(323.085351 14.943915)scale(0.996264)" xlink:href="#Nimbus_Roman_No9_L_Regular-111"/>
      <use transform="translate(372.898551 14.943915)scale(0.996264)" xlink:href="#Nimbus_Roman_No9_L_Regular-116"/>
      <use transform="translate(400.593721 14.943915)scale(0.996264)" xlink:href="#Nimbus_Roman_No9_L_Regular-101"/>
      <use transform="translate(444.82729 14.943915)scale(0.996264)" xlink:href="#Nimbus_Roman_No9_L_Regular-105"/>
      <use transform="translate(472.522459 14.943915)scale(0.996264)" xlink:href="#Nimbus_Roman_No9_L_Regular-110"/>
      <use transform="translate(547.24226 14.943915)scale(0.996264)" xlink:href="#Nimbus_Roman_No9_L_Regular-40"/>
      <use transform="translate(580.41749 14.943915)scale(0.996264)" xlink:href="#Standard_Symbols_L-102"/>
      <use transform="translate(632.322455 0)scale(0.737241)" xlink:href="#Nimbus_Roman_No9_L_Regular_Italic-82"/>
      <use transform="translate(677.865931 14.943915)scale(0.996264)" xlink:href="#CMMI10-61"/>
      <use transform="translate(727.679132 14.943915)scale(0.996264)" xlink:href="#Standard_Symbols_L-102"/>
      <use transform="translate(779.584097 0)scale(0.737241)" xlink:href="#Nimbus_Roman_No9_L_Regular_Italic-80"/>
      <use transform="translate(825.127558 14.943915)scale(0.996264)" xlink:href="#Nimbus_Roman_No9_L_Regular-41"/>
     </g>
    </g>
   </g>
   <g id="matplotlib.axis_2">
    <g id="ytick_1">
     <g id="line2d_4">
      <defs>
       <path d="M 0 0 
L -3.5 0 
" id="m527ca45585" style="stroke:#000000;stroke-width:0.8;"/>
      </defs>
      <g>
       <use style="stroke:#000000;stroke-width:0.8;" x="45" xlink:href="#m527ca45585" y="307.8"/>
      </g>
     </g>
     <g id="text_5">
      <!-- $1$ -->
      <defs>
       <path d="M 29.09375 68 
L 11.09375 59 
L 11.09375 57.59375 
C 12.296875 58.09375 13.40625 58.484375 13.796875 58.6875 
C 15.59375 59.390625 17.296875 59.78125 18.296875 59.78125 
C 20.40625 59.78125 21.296875 58.296875 21.296875 55.078125 
L 21.296875 9.359375 
C 21.296875 6.03125 20.5 3.71875 18.90625 2.796875 
C 17.40625 1.890625 16 1.59375 11.796875 1.5 
L 11.796875 0 
L 39.40625 0 
L 39.40625 1.5 
C 31.5 1.59375 29.90625 2.609375 29.90625 7.453125 
L 29.90625 67.796875 
z
" id="Nimbus_Roman_No9_L_Regular-49"/>
      </defs>
      <g transform="translate(28.03736 314.554578)scale(0.2 -0.2)">
       <use transform="scale(0.996264)" xlink:href="#Nimbus_Roman_No9_L_Regular-49"/>
      </g>
     </g>
    </g>
    <g id="ytick_2">
     <g id="line2d_5">
      <g>
       <use style="stroke:#000000;stroke-width:0.8;" x="45" xlink:href="#m527ca45585" y="222.029511"/>
      </g>
     </g>
     <g id="text_6">
      <!-- $2$ -->
      <g transform="translate(28.03736 228.784088)scale(0.2 -0.2)">
       <use transform="scale(0.996264)" xlink:href="#Nimbus_Roman_No9_L_Regular-50"/>
      </g>
     </g>
    </g>
    <g id="ytick_3">
     <g id="line2d_6">
      <g>
       <use style="stroke:#000000;stroke-width:0.8;" x="45" xlink:href="#m527ca45585" y="136.259021"/>
      </g>
     </g>
     <g id="text_7">
      <!-- $3$ -->
      <defs>
       <path d="M 15.296875 33.390625 
C 21.203125 33.390625 23.5 33.1875 25.90625 32.296875 
C 32.09375 30.09375 36 24.390625 36 17.5 
C 36 9.09375 30.296875 2.59375 22.90625 2.59375 
C 20.203125 2.59375 18.203125 3.296875 14.5 5.6875 
C 11.5 7.5 9.796875 8.1875 8.09375 8.1875 
C 5.796875 8.1875 4.296875 6.796875 4.296875 4.6875 
C 4.296875 1.1875 8.59375 -1 15.59375 -1 
C 23.296875 -1 31.203125 1.59375 35.90625 5.6875 
C 40.59375 9.796875 43.203125 15.59375 43.203125 22.296875 
C 43.203125 27.390625 41.59375 32.09375 38.703125 35.1875 
C 36.703125 37.390625 34.796875 38.59375 30.40625 40.5 
C 37.296875 45.1875 39.796875 48.890625 39.796875 54.296875 
C 39.796875 62.390625 33.40625 68 24.203125 68 
C 19.203125 68 14.796875 66.296875 11.203125 63.09375 
C 8.203125 60.390625 6.703125 57.796875 4.5 51.796875 
L 6 51.390625 
C 10.09375 58.703125 14.59375 61.984375 20.90625 61.984375 
C 27.40625 61.984375 31.90625 57.59375 31.90625 51.296875 
C 31.90625 47.6875 30.40625 44.09375 27.90625 41.59375 
C 24.90625 38.59375 22.09375 37.09375 15.296875 34.6875 
z
" id="Nimbus_Roman_No9_L_Regular-51"/>
      </defs>
      <g transform="translate(28.03736 143.013599)scale(0.2 -0.2)">
       <use transform="scale(0.996264)" xlink:href="#Nimbus_Roman_No9_L_Regular-51"/>
      </g>
     </g>
    </g>
    <g id="ytick_4">
     <g id="line2d_7">
      <g>
       <use style="stroke:#000000;stroke-width:0.8;" x="45" xlink:href="#m527ca45585" y="50.488532"/>
      </g>
     </g>
     <g id="text_8">
      <!-- $4$ -->
      <g transform="translate(28.03736 57.24311)scale(0.2 -0.2)">
       <use transform="scale(0.996264)" xlink:href="#Nimbus_Roman_No9_L_Regular-52"/>
      </g>
     </g>
    </g>
    <g id="text_9">
     <!-- Partition ratio ($\phi^{dense}_P/\phi^{light}_P$) -->
     <defs>
      <path d="M 44.203125 6.59375 
C 42.5 5.1875 41.296875 4.6875 39.796875 4.6875 
C 37.5 4.6875 36.796875 6.09375 36.796875 10.5 
L 36.796875 30 
C 36.796875 35.1875 36.296875 38.09375 34.796875 40.5 
C 32.59375 44.09375 28.296875 46 22.40625 46 
C 13 46 5.59375 41.09375 5.59375 34.796875 
C 5.59375 32.5 7.59375 30.5 9.90625 30.5 
C 12.296875 30.5 14.40625 32.5 14.40625 34.6875 
C 14.40625 35.09375 14.296875 35.59375 14.203125 36.296875 
C 14 37.1875 13.90625 38 13.90625 38.6875 
C 13.90625 41.390625 17.09375 43.59375 21.09375 43.59375 
C 26 43.59375 28.703125 40.6875 28.703125 35.296875 
L 28.703125 29.1875 
C 13.296875 23 11.59375 22.1875 7.296875 18.390625 
C 5.09375 16.390625 3.703125 13 3.703125 9.6875 
C 3.703125 3.390625 8.09375 -1 14.203125 -1 
C 18.59375 -1 22.703125 1.09375 28.796875 6.296875 
C 29.296875 1.09375 31.09375 -1 35.203125 -1 
C 38.59375 -1 40.703125 0.1875 44.203125 4 
z
M 28.703125 12.296875 
C 28.703125 9.1875 28.203125 8.296875 26.09375 7.09375 
C 23.703125 5.6875 20.90625 4.796875 18.796875 4.796875 
C 15.296875 4.796875 12.5 8.1875 12.5 12.5 
L 12.5 12.890625 
C 12.5 18.796875 16.59375 22.390625 28.703125 26.796875 
z
" id="Nimbus_Roman_No9_L_Regular-97"/>
      <path d="M 46.296875 11.15625 
C 40.90625 4.984375 39.796875 4.09375 38.09375 4.09375 
C 37.09375 4.09375 36.296875 4.984375 36.296875 6.078125 
C 36.296875 7.46875 39.5 19.609375 42.796875 30.546875 
C 45.5 39.703125 47.59375 47.6875 52.703125 67.6875 
L 52.203125 68.1875 
C 46.90625 67.09375 43.296875 66.5 36.90625 65.890625 
L 36.90625 64.1875 
C 42.40625 64 43.09375 63.6875 43.09375 61.59375 
C 43.09375 60.296875 43 59.6875 41.59375 54.59375 
L 37.203125 38.203125 
C 36.40625 42.390625 34.59375 44 30.703125 44 
C 17.703125 44 1.5 25.28125 1.5 10.359375 
C 1.5 3.296875 5.5 -1 12 -1 
C 18.796875 -1 23.203125 2.1875 30 12.140625 
C 28.90625 7.078125 28.703125 5.578125 28.703125 3.296875 
C 28.703125 0.796875 30.40625 -1 32.90625 -1 
C 37.09375 -1 42.296875 3.09375 47.5 10.390625 
z
M 31.09375 41.890625 
C 34.09375 41.6875 35.59375 39.796875 35.59375 36.1875 
C 35.59375 21 25.203125 3.796875 16 3.796875 
C 12.59375 3.796875 10.203125 6.5 10.203125 10.390625 
C 10.203125 18.6875 15.203125 30.296875 21.796875 37.296875 
C 24.59375 40.1875 28.296875 42.09375 31.09375 41.890625 
z
" id="Nimbus_Roman_No9_L_Regular_Italic-100"/>
      <path d="M 35.796875 10.953125 
C 28.59375 5.078125 25.5 3.5 21.203125 3.5 
C 15.5 3.5 11.796875 7.078125 11.796875 12.4375 
C 11.796875 13.9375 12 15.421875 12.796875 18.609375 
L 15.59375 19.015625 
C 30.59375 21.09375 41.203125 28.65625 41.203125 37.21875 
C 41.203125 41.390625 38.203125 44 33.203125 44 
C 18.796875 44 3.09375 27.5625 3.09375 12.640625 
C 3.09375 4.59375 8.5 -1 16.296875 -1 
C 23.40625 -1 31.09375 3.09375 37 9.765625 
z
M 15.203125 25.171875 
C 18.59375 34.03125 26 41.6875 31.09375 41.6875 
C 33.203125 41.6875 34.59375 40.09375 34.59375 37.8125 
C 34.59375 34.734375 32.703125 31.140625 29.59375 28.15625 
C 25.90625 24.6875 22.09375 22.890625 13.5 20.796875 
z
" id="Nimbus_Roman_No9_L_Regular_Italic-101"/>
      <path d="M 46 11.59375 
L 43.90625 8.984375 
C 41 5.296875 39.203125 3.6875 37.796875 3.6875 
C 37 3.6875 36.203125 4.5 36.203125 5.296875 
C 36.203125 6 36.203125 6 37.59375 11.59375 
L 43.296875 32.1875 
C 43.796875 34.296875 44.203125 36.484375 44.203125 37.890625 
C 44.203125 41.484375 41.5 44 37.59375 44 
C 31.203125 44 24.90625 37.984375 14.59375 21.984375 
L 21.296875 43.796875 
L 21 44 
C 15.59375 42.890625 13.5 42.484375 4.796875 40.890625 
L 4.796875 39.296875 
C 9.90625 39.1875 11.203125 38.59375 11.203125 36.59375 
C 11.203125 35.984375 11.09375 35.390625 11 34.890625 
L 1.40625 -0.109375 
L 8.90625 -0.109375 
C 13.59375 15.6875 14.5 17.890625 18.90625 24.6875 
C 24.90625 33.890625 30 38.890625 33.703125 38.890625 
C 35.203125 38.890625 36.09375 37.796875 36.09375 35.984375 
C 36.09375 34.796875 35.5 31.484375 34.703125 28.390625 
L 30.296875 11.890625 
C 29 6.796875 28.703125 5.390625 28.703125 4.390625 
C 28.703125 0.59375 30.09375 -1 33.40625 -1 
C 37.90625 -1 40.5 1.09375 47.40625 10.296875 
z
" id="Nimbus_Roman_No9_L_Regular_Italic-110"/>
      <path d="M 3.59375 14.890625 
L 1.59375 -1 
L 3.203125 -1 
C 4 0.59375 4.59375 1.09375 5.59375 1.09375 
C 6.703125 1.09375 8.5 0.6875 10.5 0.1875 
C 12.703125 -0.703125 14.40625 -1 16 -1 
C 24.40625 -1 30.40625 4.375 30.40625 11.9375 
C 30.40625 15.71875 28.296875 20.09375 23.59375 25.875 
C 19.796875 30.546875 18.203125 33.625 18.203125 36.3125 
C 18.203125 39.59375 20.296875 41.6875 23.796875 41.6875 
C 29 41.6875 32 38 33 30.25 
L 34.59375 30.25 
L 36.59375 44 
L 35.203125 44 
C 34.40625 42.59375 33.59375 42.1875 32.203125 42.1875 
C 31.5 42.1875 30.5 42.390625 28.59375 42.890625 
C 26.09375 43.796875 24.59375 44 23 44 
C 15.703125 44 10.90625 39.703125 10.90625 33.03125 
C 10.90625 29.84375 13 25.5625 17.203125 20.203125 
C 21.09375 15.125 22.796875 11.640625 22.796875 8.75 
C 22.796875 4.28125 19.796875 1.09375 15.40625 1.09375 
C 9.90625 1.09375 6.796875 5.171875 5.203125 14.625 
z
" id="Nimbus_Roman_No9_L_Regular_Italic-115"/>
      <path d="M 22.796875 12.390625 
C 21.90625 11.296875 21 10.1875 20.09375 9 
C 16.90625 4.796875 15 3.296875 13.203125 3.296875 
C 12.203125 3.296875 11.703125 4 11.703125 5.09375 
C 11.703125 5.796875 12 7 12.5 9 
C 12.59375 9.296875 12.703125 9.796875 12.796875 10 
L 27.90625 67.890625 
L 27.40625 68.390625 
C 21.5 67.09375 17.703125 66.390625 11.796875 65.703125 
L 11.796875 64.09375 
C 16.59375 64.09375 18.59375 63.390625 18.59375 61.796875 
C 18.59375 61.5 18.5 60.890625 18.203125 60 
L 4.5 7.1875 
C 4.203125 6.09375 4 5.09375 4 4.59375 
C 4 1 5.703125 -1 8.90625 -1 
C 14.09375 -1 17.59375 1.890625 24.09375 11.5 
z
" id="Nimbus_Roman_No9_L_Regular_Italic-108"/>
      <path d="M 22.203125 11.453125 
C 19.796875 8.265625 19.09375 7.46875 18.09375 6.375 
C 16.40625 4.6875 14.90625 3.6875 14 3.6875 
C 13.203125 3.6875 12.40625 4.484375 12.40625 5.1875 
C 12.40625 6.171875 12.703125 7.671875 13.40625 9.5625 
C 13.40625 9.859375 13.703125 10.5625 13.90625 11.359375 
L 13.90625 11.546875 
L 14 11.75 
L 22.796875 43.796875 
L 22.5 44 
C 12.40625 42.09375 10.40625 41.796875 6.5 41.484375 
L 6.5 39.90625 
C 11.796875 39.796875 12.796875 39.5 12.796875 37.515625 
C 12.796875 36.71875 12.5 35.125 11.90625 33.140625 
L 7.09375 15.53125 
C 5.5 9.765625 4.90625 6.671875 4.90625 4.6875 
C 4.90625 1 6.5 -1 9.5 -1 
C 14.09375 -1 17.796875 2 23.5 10.359375 
z
M 21.40625 65 
C 18.703125 65 16.703125 62.703125 16.703125 59.75 
C 16.703125 56.59375 18.59375 54.53125 21.5 54.53125 
C 24.09375 54.53125 26.40625 56.796875 26.40625 59.546875 
C 26.40625 62.40625 24.09375 65 21.40625 65 
z
" id="Nimbus_Roman_No9_L_Regular_Italic-105"/>
      <path d="M 47.203125 40 
L 41.09375 40 
C 40.796875 40 40.296875 40.25 39.5 41.015625 
C 36.796875 42.984375 33.5 44 29.703125 44 
C 18.59375 44 9.59375 35.890625 9.59375 26.6875 
C 9.59375 21.59375 11.796875 18.65625 17.5 16.09375 
C 11.59375 12.0625 9.796875 10.046875 9.796875 7.625 
C 9.796875 6.3125 10.59375 5.109375 12.5 3.6875 
C 2.59375 -2.859375 0.796875 -4.890625 0.796875 -9.53125 
C 0.796875 -16.484375 7.40625 -21 17.5 -21 
C 30.09375 -21 38.5 -15.078125 38.5 -6.296875 
C 38.5 0.0625 33.703125 4.5 24.203125 7.015625 
C 19.796875 8.125 17.203125 9.75 17.203125 11.265625 
C 17.203125 12.765625 19.5 15.390625 20.796875 15.390625 
C 21 15.390625 21.203125 15.390625 21.5 15.296875 
C 22.296875 15.09375 23.703125 15 24.59375 15 
C 33.703125 15 43.09375 22.96875 43.09375 30.609375 
C 43.09375 32.171875 42.796875 34.125 42.203125 36.09375 
L 47.203125 36.09375 
z
M 14.796875 2.578125 
C 14.90625 2.578125 15.09375 2.484375 15.296875 2.375 
C 15.59375 2.28125 16.59375 1.96875 18.203125 1.46875 
C 28.796875 -1.859375 32.5 -4.6875 32.5 -9.328125 
C 32.5 -14.765625 26.703125 -18.8125 19 -18.8125 
C 11 -18.8125 6.296875 -14.96875 6.296875 -8.515625 
C 6.296875 -6.09375 6.90625 -4.375 8.5 -2.46875 
C 9.796875 -0.75 14 2.578125 14.796875 2.578125 
z
M 29.59375 41.796875 
C 33.296875 41.796875 35.203125 38.984375 35.203125 34.328125 
C 35.203125 30.90625 34 26.59375 32.09375 23.265625 
C 29.90625 19.25 26.796875 17.09375 23.40625 17.09375 
C 19.59375 17.09375 17.40625 19.828125 17.40625 24.4375 
C 17.40625 33.453125 23.09375 41.796875 29.59375 41.796875 
z
" id="Nimbus_Roman_No9_L_Regular_Italic-103"/>
      <path d="M 46.5 11.59375 
C 41.09375 4.796875 39.90625 3.6875 38.296875 3.6875 
C 37.40625 3.6875 36.703125 4.59375 36.703125 5.5 
C 36.703125 6.5 38.296875 12.796875 40 17.984375 
C 42.90625 27.484375 44.796875 34.890625 44.796875 37.296875 
C 44.796875 41.296875 42.09375 44 38.203125 44 
C 31.703125 44 24.59375 37.390625 15.296875 22.890625 
L 27.296875 67.6875 
L 26.796875 68.1875 
C 21 66.890625 17.09375 66.1875 11.09375 65.5 
L 11.09375 64 
L 13.703125 64 
C 13.796875 64 13.90625 64 14 64.09375 
C 15.40625 64.6875 17.796875 63 17.796875 61.59375 
C 17.796875 60.1875 17.296875 57.6875 16.40625 54.796875 
C 16.296875 54.6875 16 53.296875 15.40625 51.09375 
L 1.90625 -0.109375 
L 9.40625 -0.109375 
C 13.40625 15.296875 14.703125 18.6875 18.703125 24.796875 
C 23.90625 32.6875 30.703125 38.890625 34.203125 38.890625 
C 35.703125 38.890625 37 37.6875 37 36.390625 
C 37 35.984375 36.703125 34.6875 36.296875 33.09375 
L 30.796875 12.390625 
C 29.5 7.484375 28.796875 4.390625 28.796875 3.1875 
C 28.796875 0.59375 30.5 -1 33.203125 -1 
C 38.296875 -1 41.796875 1.6875 47.796875 10.390625 
z
" id="Nimbus_Roman_No9_L_Regular_Italic-104"/>
      <path d="M 29.59375 43 
L 21.59375 43 
L 24.40625 53.296875 
C 24.5 53.5 24.5 53.6875 24.5 53.796875 
C 24.5 54.5 24.203125 54.796875 23.703125 54.796875 
C 23.09375 54.796875 22.796875 54.6875 22.203125 53.890625 
C 18.296875 48.796875 12.09375 43.796875 8.90625 42.890625 
C 6.40625 42.09375 5.703125 41.484375 5.703125 40.390625 
C 5.703125 40.296875 5.703125 40.09375 5.796875 39.796875 
L 13.203125 39.796875 
L 6 12.21875 
C 5.796875 11.3125 5.703125 11.015625 5.40625 10.109375 
C 4.5 7.09375 3.703125 3.59375 3.703125 2.796875 
C 3.703125 0.59375 5.796875 -1 8.5 -1 
C 13.09375 -1 16.40625 1.796875 22.703125 11.109375 
L 21.40625 11.8125 
C 16.5 5.5 14.90625 3.890625 13.296875 3.890625 
C 12.40625 3.890625 11.796875 4.6875 11.796875 5.890625 
C 11.796875 6 11.796875 6.09375 11.90625 6.40625 
L 20.703125 39.796875 
L 29.09375 39.796875 
z
" id="Nimbus_Roman_No9_L_Regular_Italic-116"/>
     </defs>
     <g transform="translate(19.723702 295.324805)rotate(-90)scale(0.2 -0.2)">
      <use transform="translate(0 29.511935)scale(0.996264)" xlink:href="#Nimbus_Roman_No9_L_Regular-80"/>
      <use transform="translate(53.898284 29.511935)scale(0.996264)" xlink:href="#Nimbus_Roman_No9_L_Regular-97"/>
      <use transform="translate(98.131853 29.511935)scale(0.996264)" xlink:href="#Nimbus_Roman_No9_L_Regular-114"/>
      <use transform="translate(131.307083 29.511935)scale(0.996264)" xlink:href="#Nimbus_Roman_No9_L_Regular-116"/>
      <use transform="translate(159.002252 29.511935)scale(0.996264)" xlink:href="#Nimbus_Roman_No9_L_Regular-105"/>
      <use transform="translate(186.697422 29.511935)scale(0.996264)" xlink:href="#Nimbus_Roman_No9_L_Regular-116"/>
      <use transform="translate(214.392592 29.511935)scale(0.996264)" xlink:href="#Nimbus_Roman_No9_L_Regular-105"/>
      <use transform="translate(242.087761 29.511935)scale(0.996264)" xlink:href="#Nimbus_Roman_No9_L_Regular-111"/>
      <use transform="translate(291.900962 29.511935)scale(0.996264)" xlink:href="#Nimbus_Roman_No9_L_Regular-110"/>
      <use transform="translate(366.620762 29.511935)scale(0.996264)" xlink:href="#Nimbus_Roman_No9_L_Regular-114"/>
      <use transform="translate(399.795992 29.511935)scale(0.996264)" xlink:href="#Nimbus_Roman_No9_L_Regular-97"/>
      <use transform="translate(444.029561 29.511935)scale(0.996264)" xlink:href="#Nimbus_Roman_No9_L_Regular-116"/>
      <use transform="translate(471.72473 29.511935)scale(0.996264)" xlink:href="#Nimbus_Roman_No9_L_Regular-105"/>
      <use transform="translate(499.4199 29.511935)scale(0.996264)" xlink:href="#Nimbus_Roman_No9_L_Regular-111"/>
      <use transform="translate(574.139701 29.511935)scale(0.996264)" xlink:href="#Nimbus_Roman_No9_L_Regular-40"/>
      <use transform="translate(607.31493 29.511935)scale(0.996264)" xlink:href="#Standard_Symbols_L-102"/>
      <use transform="translate(670.378096 65.675166)scale(0.737241)" xlink:href="#Nimbus_Roman_No9_L_Regular_Italic-100"/>
      <use transform="translate(711.073085 65.675166)scale(0.737241)" xlink:href="#Nimbus_Roman_No9_L_Regular_Italic-101"/>
      <use transform="translate(743.806171 65.675166)scale(0.737241)" xlink:href="#Nimbus_Roman_No9_L_Regular_Italic-110"/>
      <use transform="translate(780.668213 65.675166)scale(0.737241)" xlink:href="#Nimbus_Roman_No9_L_Regular_Italic-115"/>
      <use transform="translate(809.346162 65.675166)scale(0.737241)" xlink:href="#Nimbus_Roman_No9_L_Regular_Italic-101"/>
      <use transform="translate(659.219896 1.081956)scale(0.737241)" xlink:href="#Nimbus_Roman_No9_L_Regular_Italic-80"/>
      <use transform="translate(842.57738 29.511935)scale(0.996264)" xlink:href="#CMMI10-61"/>
      <use transform="translate(892.390581 29.511935)scale(0.996264)" xlink:href="#Standard_Symbols_L-102"/>
      <use transform="translate(955.453746 78.821941)scale(0.737241)" xlink:href="#Nimbus_Roman_No9_L_Regular_Italic-108"/>
      <use transform="translate(979.707445 78.821941)scale(0.737241)" xlink:href="#Nimbus_Roman_No9_L_Regular_Italic-105"/>
      <use transform="translate(1000.202016 78.821941)scale(0.737241)" xlink:href="#Nimbus_Roman_No9_L_Regular_Italic-103"/>
      <use transform="translate(1037.064058 78.821941)scale(0.737241)" xlink:href="#Nimbus_Roman_No9_L_Regular_Italic-104"/>
      <use transform="translate(1072.083021 78.821941)scale(0.737241)" xlink:href="#Nimbus_Roman_No9_L_Regular_Italic-116"/>
      <use transform="translate(944.295546 0)scale(0.737241)" xlink:href="#Nimbus_Roman_No9_L_Regular_Italic-80"/>
      <use transform="translate(1098.088391 29.511935)scale(0.996264)" xlink:href="#Nimbus_Roman_No9_L_Regular-41"/>
     </g>
    </g>
   </g>
   <g id="line2d_8">
    <path clip-path="url(#pae7703f8ab)" d="M 57.681818 112.157059 
L 67.929752 98.48977 
L 80.739669 80.024766 
L 106.359504 55.8 
L 131.979339 63.992402 
L 157.599174 89.91817 
L 183.219008 121.397545 
L 208.838843 154.745803 
L 234.458678 189.045197 
L 260.078512 224.812278 
L 285.698347 265.749205 
L 311.318182 307.8 
" style="fill:none;stroke:#000000;stroke-linecap:square;stroke-width:1.5;"/>
    <defs>
     <path d="M 0 3 
C 0.795609 3 1.55874 2.683901 2.12132 2.12132 
C 2.683901 1.55874 3 0.795609 3 0 
C 3 -0.795609 2.683901 -1.55874 2.12132 -2.12132 
C 1.55874 -2.683901 0.795609 -3 0 -3 
C -0.795609 -3 -1.55874 -2.683901 -2.12132 -2.12132 
C -2.683901 -1.55874 -3 -0.795609 -3 0 
C -3 0.795609 -2.683901 1.55874 -2.12132 2.12132 
C -1.55874 2.683901 -0.795609 3 0 3 
z
" id="m96dd3c6d22" style="stroke:#000000;"/>
    </defs>
    <g clip-path="url(#pae7703f8ab)">
     <use style="stroke:#000000;" x="57.681818" xlink:href="#m96dd3c6d22" y="112.157059"/>
     <use style="stroke:#000000;" x="67.929752" xlink:href="#m96dd3c6d22" y="98.48977"/>
     <use style="stroke:#000000;" x="80.739669" xlink:href="#m96dd3c6d22" y="80.024766"/>
     <use style="stroke:#000000;" x="106.359504" xlink:href="#m96dd3c6d22" y="55.8"/>
     <use style="stroke:#000000;" x="131.979339" xlink:href="#m96dd3c6d22" y="63.992402"/>
     <use style="stroke:#000000;" x="157.599174" xlink:href="#m96dd3c6d22" y="89.91817"/>
     <use style="stroke:#000000;" x="183.219008" xlink:href="#m96dd3c6d22" y="121.397545"/>
     <use style="stroke:#000000;" x="208.838843" xlink:href="#m96dd3c6d22" y="154.745803"/>
     <use style="stroke:#000000;" x="234.458678" xlink:href="#m96dd3c6d22" y="189.045197"/>
     <use style="stroke:#000000;" x="260.078512" xlink:href="#m96dd3c6d22" y="224.812278"/>
     <use style="stroke:#000000;" x="285.698347" xlink:href="#m96dd3c6d22" y="265.749205"/>
     <use style="stroke:#000000;" x="311.318182" xlink:href="#m96dd3c6d22" y="307.8"/>
    </g>
   </g>
   <g id="patch_3">
    <path d="M 45 320.4 
L 45 43.2 
" style="fill:none;stroke:#000000;stroke-linecap:square;stroke-linejoin:miter;stroke-width:0.8;"/>
   </g>
   <g id="patch_4">
    <path d="M 324 320.4 
L 324 43.2 
" style="fill:none;stroke:#000000;stroke-linecap:square;stroke-linejoin:miter;stroke-width:0.8;"/>
   </g>
   <g id="patch_5">
    <path d="M 45 320.4 
L 324 320.4 
" style="fill:none;stroke:#000000;stroke-linecap:square;stroke-linejoin:miter;stroke-width:0.8;"/>
   </g>
   <g id="patch_6">
    <path d="M 45 43.2 
L 324 43.2 
" style="fill:none;stroke:#000000;stroke-linecap:square;stroke-linejoin:miter;stroke-width:0.8;"/>
   </g>
  </g>
 </g>
 <defs>
  <clipPath id="pae7703f8ab">
   <rect height="277.2" width="279" x="45" y="43.2"/>
  </clipPath>
 </defs>
</svg>
