<?xml version="1.0" encoding="utf-8" standalone="no"?>
<!DOCTYPE svg PUBLIC "-//W3C//DTD SVG 1.1//EN"
  "http://www.w3.org/Graphics/SVG/1.1/DTD/svg11.dtd">
<!-- Created with matplotlib (http://matplotlib.org/) -->
<svg height="360pt" version="1.1" viewBox="0 0 432 360" width="432pt" xmlns="http://www.w3.org/2000/svg" xmlns:xlink="http://www.w3.org/1999/xlink">
 <defs>
  <style type="text/css">
*{stroke-linecap:butt;stroke-linejoin:round;}
  </style>
 </defs>
 <g id="figure_1">
  <g id="patch_1">
   <path d="M 0 360 
L 432 360 
L 432 0 
L 0 0 
z
" style="fill:#ffffff;"/>
  </g>
  <g id="axes_1">
   <g id="patch_2">
    <path d="M 54 315 
L 388.8 315 
L 388.8 43.2 
L 54 43.2 
z
" style="fill:#ffffff;"/>
   </g>
   <g id="matplotlib.axis_1">
    <g id="xtick_1">
     <g id="line2d_1">
      <defs>
       <path d="M 0 0 
L 0 3.5 
" id="m2223c134aa" style="stroke:#000000;stroke-width:0.8;"/>
      </defs>
      <g>
       <use style="stroke:#000000;stroke-width:0.8;" x="152.226446" xlink:href="#m2223c134aa" y="315"/>
      </g>
     </g>
     <g id="text_1">
      <!-- $0.2$ -->
      <defs>
       <path d="M 25.40625 68 
C 19.90625 68 15.703125 66.296875 12 62.796875 
C 6.203125 57.203125 2.40625 45.6875 2.40625 34 
C 2.40625 23.09375 5.703125 11.390625 10.40625 5.796875 
C 14.09375 1.390625 19.203125 -1 25 -1 
C 30.09375 -1 34.40625 0.6875 38 4.1875 
C 43.796875 9.6875 47.59375 21.296875 47.59375 33.390625 
C 47.59375 53.890625 38.5 68 25.40625 68 
z
M 25.09375 65.390625 
C 33.5 65.390625 38 54.09375 38 33.1875 
C 38 12.296875 33.59375 1.59375 25 1.59375 
C 16.40625 1.59375 12 12.296875 12 33.09375 
C 12 54.296875 16.5 65.390625 25.09375 65.390625 
z
" id="Nimbus_Roman_No9_L_Regular-48"/>
       <path d="M 19.203125 5.296875 
C 19.203125 8.1875 16.796875 10.59375 13.90625 10.59375 
C 11 10.59375 8.59375 8.1875 8.59375 5.296875 
C 8.59375 2.390625 11 0 13.90625 0 
C 16.796875 0 19.203125 2.390625 19.203125 5.296875 
z
" id="CMMI10-58"/>
       <path d="M 47.5 13.734375 
L 46.203125 14.25 
C 42.5 8.5 41.203125 7.59375 36.703125 7.59375 
L 12.796875 7.59375 
L 29.59375 25.328125 
C 38.5 34.703125 42.40625 42.359375 42.40625 50.21875 
C 42.40625 60.28125 34.296875 68 23.90625 68 
C 18.40625 68 13.203125 65.796875 9.5 61.796875 
C 6.296875 58.375 4.796875 55.15625 3.09375 48 
L 5.203125 47.484375 
C 9.203125 57.359375 12.796875 60.59375 19.703125 60.59375 
C 28.09375 60.59375 33.796875 54.84375 33.796875 46.390625 
C 33.796875 38.53125 29.203125 29.15625 20.796875 20.1875 
L 3 1.1875 
L 3 0 
L 42 0 
z
" id="Nimbus_Roman_No9_L_Regular-50"/>
      </defs>
      <g transform="translate(139.504257 335.509155)scale(0.2 -0.2)">
       <use transform="scale(0.996264)" xlink:href="#Nimbus_Roman_No9_L_Regular-48"/>
       <use transform="translate(49.8132 0)scale(0.996264)" xlink:href="#CMMI10-58"/>
       <use transform="translate(77.408707 0)scale(0.996264)" xlink:href="#Nimbus_Roman_No9_L_Regular-50"/>
      </g>
     </g>
    </g>
    <g id="xtick_2">
     <g id="line2d_2">
      <g>
       <use style="stroke:#000000;stroke-width:0.8;" x="262.904132" xlink:href="#m2223c134aa" y="315"/>
      </g>
     </g>
     <g id="text_2">
      <!-- $0.4$ -->
      <defs>
       <path d="M 47.203125 23.390625 
L 37 23.390625 
L 37 68 
L 32.59375 68 
L 1.203125 23.390625 
L 1.203125 17 
L 29.296875 17 
L 29.296875 0 
L 37 0 
L 37 17 
L 47.203125 17 
z
M 29.203125 23.390625 
L 5.203125 23.390625 
L 29.203125 57.765625 
z
" id="Nimbus_Roman_No9_L_Regular-52"/>
      </defs>
      <g transform="translate(250.181943 335.509155)scale(0.2 -0.2)">
       <use transform="scale(0.996264)" xlink:href="#Nimbus_Roman_No9_L_Regular-48"/>
       <use transform="translate(49.8132 0)scale(0.996264)" xlink:href="#CMMI10-58"/>
       <use transform="translate(77.408707 0)scale(0.996264)" xlink:href="#Nimbus_Roman_No9_L_Regular-52"/>
      </g>
     </g>
    </g>
    <g id="xtick_3">
     <g id="line2d_3">
      <g>
       <use style="stroke:#000000;stroke-width:0.8;" x="373.581818" xlink:href="#m2223c134aa" y="315"/>
      </g>
     </g>
     <g id="text_3">
      <!-- $0.6$ -->
      <defs>
       <path d="M 44.59375 68.59375 
C 33.203125 67.59375 27.40625 65.6875 20.09375 60.59375 
C 9.296875 52.890625 3.40625 41.484375 3.40625 28.140625 
C 3.40625 19.5 6.09375 10.75 10.40625 5.765625 
C 14.203125 1.390625 19.59375 -1 25.796875 -1 
C 38.203125 -1 46.796875 8.453125 46.796875 22.1875 
C 46.796875 34.90625 39.5 43 28 43 
C 23.59375 43 21.5 42.296875 15.203125 38.484375 
C 17.90625 53.59375 29.09375 64.390625 44.796875 67 
z
M 24.203125 38.390625 
C 32.796875 38.390625 37.796875 31.234375 37.796875 18.796875 
C 37.796875 7.859375 33.90625 1.796875 26.90625 1.796875 
C 18.09375 1.796875 12.703125 11.140625 12.703125 26.5625 
C 12.703125 31.625 13.5 34.421875 15.5 35.90625 
C 17.59375 37.5 20.703125 38.390625 24.203125 38.390625 
z
" id="Nimbus_Roman_No9_L_Regular-54"/>
      </defs>
      <g transform="translate(360.859629 335.509155)scale(0.2 -0.2)">
       <use transform="scale(0.996264)" xlink:href="#Nimbus_Roman_No9_L_Regular-48"/>
       <use transform="translate(49.8132 0)scale(0.996264)" xlink:href="#CMMI10-58"/>
       <use transform="translate(77.408707 0)scale(0.996264)" xlink:href="#Nimbus_Roman_No9_L_Regular-54"/>
      </g>
     </g>
    </g>
    <g id="text_4">
     <!-- $\phi_P$ -->
     <defs>
      <path d="M 27.90625 -0.46875 
C 40.203125 1.234375 49 12.46875 49 26.59375 
C 49 40.328125 40.59375 50.25 27.90625 51.15625 
L 27.90625 59.171875 
C 27.90625 62.890625 28 64.796875 28.203125 67.09375 
L 23.5 69 
C 23.703125 66.59375 23.796875 64.09375 23.796875 60.078125 
L 23.796875 51.15625 
C 11.796875 49.75 2.703125 38.328125 2.703125 24.5 
C 2.703125 10.5625 11.296875 0.34375 23.796875 -0.65625 
L 23.796875 -10.78125 
C 23.796875 -15.296875 23.703125 -18.109375 23.5 -20.90625 
L 28.203125 -22.015625 
C 28 -18.703125 28 -18.40625 27.90625 -14 
L 27.90625 -11.28125 
z
M 23.796875 3.546875 
C 21 4.65625 19 6.25 17.5 8.5625 
C 14.296875 13.46875 12.40625 21.09375 12.40625 29 
C 12.40625 40.328125 16.703125 47.34375 23.796875 47.65625 
z
M 27.90625 46.953125 
C 35 44.34375 39.296875 34.828125 39.296875 22.09375 
C 39.296875 10.265625 35.203125 3.453125 27.90625 3.046875 
z
" id="Standard_Symbols_L-102"/>
      <path d="M 14.59375 63.390625 
C 20.296875 62.6875 21.703125 61.796875 21.703125 59.203125 
C 21.703125 57.8125 21.296875 55.71875 20 51.234375 
L 8.203125 8.9375 
C 6.40625 2.984375 5.703125 2.390625 0 1.59375 
L 0 0 
L 24.5 0 
L 24.5 1.59375 
C 18.203125 2.484375 17.703125 2.78125 17.703125 6.15625 
C 17.703125 7.359375 17.90625 8.34375 18.90625 11.921875 
L 24.203125 31.09375 
C 26.703125 30.484375 29.296875 30.296875 33.40625 30.296875 
C 41.59375 30.296875 48.296875 31.984375 52.59375 35.09375 
C 57.59375 38.78125 60.5 44.25 60.5 50.140625 
C 60.5 59.703125 53 65 39.40625 65 
L 14.59375 65 
z
M 32.203125 59.203125 
C 32.796875 61.296875 34 61.984375 36.796875 61.984375 
C 40.703125 61.984375 44.5 61 46.5 59.59375 
C 49.09375 57.8125 50.203125 54.8125 50.203125 50.140625 
C 50.203125 43.65625 47.90625 39.078125 43.5 36.484375 
C 40.40625 34.796875 36.5 34 30.296875 34 
C 28.59375 34 27.796875 34.09375 25.09375 34.484375 
z
" id="Nimbus_Roman_No9_L_Regular_Italic-80"/>
     </defs>
     <g transform="translate(211.704972 357.939796)scale(0.2 -0.2)">
      <use transform="translate(0 14.943915)scale(0.996264)" xlink:href="#Standard_Symbols_L-102"/>
      <use transform="translate(51.904966 0)scale(0.737241)" xlink:href="#Nimbus_Roman_No9_L_Regular_Italic-80"/>
     </g>
    </g>
   </g>
   <g id="matplotlib.axis_2">
    <g id="ytick_1">
     <g id="line2d_4">
      <defs>
       <path d="M 0 0 
L -3.5 0 
" id="m474b44087a" style="stroke:#000000;stroke-width:0.8;"/>
      </defs>
      <g>
       <use style="stroke:#000000;stroke-width:0.8;" x="54" xlink:href="#m474b44087a" y="293.038284"/>
      </g>
     </g>
     <g id="text_5">
      <!-- $-1.50$ -->
      <defs>
       <path d="M 65.90625 23 
C 67.59375 23 69.40625 23 69.40625 25 
C 69.40625 27 67.59375 27 65.90625 27 
L 11.796875 27 
C 10.09375 27 8.296875 27 8.296875 25 
C 8.296875 23 10.09375 23 11.796875 23 
z
" id="CMSY10-0"/>
       <path d="M 29.09375 68 
L 11.09375 59 
L 11.09375 57.59375 
C 12.296875 58.09375 13.40625 58.484375 13.796875 58.6875 
C 15.59375 59.390625 17.296875 59.78125 18.296875 59.78125 
C 20.40625 59.78125 21.296875 58.296875 21.296875 55.078125 
L 21.296875 9.359375 
C 21.296875 6.03125 20.5 3.71875 18.90625 2.796875 
C 17.40625 1.890625 16 1.59375 11.796875 1.5 
L 11.796875 0 
L 39.40625 0 
L 39.40625 1.5 
C 31.5 1.59375 29.90625 2.609375 29.90625 7.453125 
L 29.90625 67.796875 
z
" id="Nimbus_Roman_No9_L_Regular-49"/>
       <path d="M 18.09375 58.09375 
L 37.703125 58.09375 
C 39.296875 58.09375 39.703125 58.296875 40 58.984375 
L 43.796875 67.890625 
L 42.90625 68.59375 
C 41.40625 66.5 40.40625 66 38.296875 66 
L 17.40625 66 
L 6.5 42.453125 
C 6.40625 42.265625 6.40625 42.15625 6.40625 41.96875 
C 6.40625 41.46875 6.796875 41.171875 7.59375 41.171875 
C 10.796875 41.171875 14.796875 40.484375 18.90625 39.1875 
C 30.40625 35.53125 35.703125 29.40625 35.703125 19.609375 
C 35.703125 10.109375 29.59375 2.6875 21.796875 2.6875 
C 19.796875 2.6875 18.09375 3.390625 15.09375 5.5625 
C 11.90625 7.84375 9.59375 8.828125 7.5 8.828125 
C 4.59375 8.828125 3.203125 7.640625 3.203125 5.171875 
C 3.203125 1.390625 7.90625 -1 15.40625 -1 
C 23.796875 -1 31 1.6875 36 6.75 
C 40.59375 11.203125 42.703125 16.84375 42.703125 24.359375 
C 42.703125 31.484375 40.796875 36.03125 35.796875 40.96875 
C 31.40625 45.328125 25.703125 47.609375 13.90625 49.6875 
z
" id="Nimbus_Roman_No9_L_Regular-53"/>
      </defs>
      <g transform="translate(-3.888757 299.792861)scale(0.2 -0.2)">
       <use transform="scale(0.996264)" xlink:href="#CMSY10-0"/>
       <use transform="translate(77.408707 0)scale(0.996264)" xlink:href="#Nimbus_Roman_No9_L_Regular-49"/>
       <use transform="translate(127.221908 0)scale(0.996264)" xlink:href="#CMMI10-58"/>
       <use transform="translate(154.817414 0)scale(0.996264)" xlink:href="#Nimbus_Roman_No9_L_Regular-53"/>
       <use transform="translate(204.630615 0)scale(0.996264)" xlink:href="#Nimbus_Roman_No9_L_Regular-48"/>
      </g>
     </g>
    </g>
    <g id="ytick_2">
     <g id="line2d_5">
      <g>
       <use style="stroke:#000000;stroke-width:0.8;" x="54" xlink:href="#m474b44087a" y="231.870738"/>
      </g>
     </g>
     <g id="text_6">
      <!-- $-1.45$ -->
      <g transform="translate(-3.888757 238.625316)scale(0.2 -0.2)">
       <use transform="scale(0.996264)" xlink:href="#CMSY10-0"/>
       <use transform="translate(77.408707 0)scale(0.996264)" xlink:href="#Nimbus_Roman_No9_L_Regular-49"/>
       <use transform="translate(127.221908 0)scale(0.996264)" xlink:href="#CMMI10-58"/>
       <use transform="translate(154.817414 0)scale(0.996264)" xlink:href="#Nimbus_Roman_No9_L_Regular-52"/>
       <use transform="translate(204.630615 0)scale(0.996264)" xlink:href="#Nimbus_Roman_No9_L_Regular-53"/>
      </g>
     </g>
    </g>
    <g id="ytick_3">
     <g id="line2d_6">
      <g>
       <use style="stroke:#000000;stroke-width:0.8;" x="54" xlink:href="#m474b44087a" y="170.703193"/>
      </g>
     </g>
     <g id="text_7">
      <!-- $-1.40$ -->
      <g transform="translate(-3.888757 177.45777)scale(0.2 -0.2)">
       <use transform="scale(0.996264)" xlink:href="#CMSY10-0"/>
       <use transform="translate(77.408707 0)scale(0.996264)" xlink:href="#Nimbus_Roman_No9_L_Regular-49"/>
       <use transform="translate(127.221908 0)scale(0.996264)" xlink:href="#CMMI10-58"/>
       <use transform="translate(154.817414 0)scale(0.996264)" xlink:href="#Nimbus_Roman_No9_L_Regular-52"/>
       <use transform="translate(204.630615 0)scale(0.996264)" xlink:href="#Nimbus_Roman_No9_L_Regular-48"/>
      </g>
     </g>
    </g>
    <g id="ytick_4">
     <g id="line2d_7">
      <g>
       <use style="stroke:#000000;stroke-width:0.8;" x="54" xlink:href="#m474b44087a" y="109.535647"/>
      </g>
     </g>
     <g id="text_8">
      <!-- $-1.35$ -->
      <defs>
       <path d="M 15.296875 33.390625 
C 21.203125 33.390625 23.5 33.1875 25.90625 32.296875 
C 32.09375 30.09375 36 24.390625 36 17.5 
C 36 9.09375 30.296875 2.59375 22.90625 2.59375 
C 20.203125 2.59375 18.203125 3.296875 14.5 5.6875 
C 11.5 7.5 9.796875 8.1875 8.09375 8.1875 
C 5.796875 8.1875 4.296875 6.796875 4.296875 4.6875 
C 4.296875 1.1875 8.59375 -1 15.59375 -1 
C 23.296875 -1 31.203125 1.59375 35.90625 5.6875 
C 40.59375 9.796875 43.203125 15.59375 43.203125 22.296875 
C 43.203125 27.390625 41.59375 32.09375 38.703125 35.1875 
C 36.703125 37.390625 34.796875 38.59375 30.40625 40.5 
C 37.296875 45.1875 39.796875 48.890625 39.796875 54.296875 
C 39.796875 62.390625 33.40625 68 24.203125 68 
C 19.203125 68 14.796875 66.296875 11.203125 63.09375 
C 8.203125 60.390625 6.703125 57.796875 4.5 51.796875 
L 6 51.390625 
C 10.09375 58.703125 14.59375 61.984375 20.90625 61.984375 
C 27.40625 61.984375 31.90625 57.59375 31.90625 51.296875 
C 31.90625 47.6875 30.40625 44.09375 27.90625 41.59375 
C 24.90625 38.59375 22.09375 37.09375 15.296875 34.6875 
z
" id="Nimbus_Roman_No9_L_Regular-51"/>
      </defs>
      <g transform="translate(-3.888757 116.290225)scale(0.2 -0.2)">
       <use transform="scale(0.996264)" xlink:href="#CMSY10-0"/>
       <use transform="translate(77.408707 0)scale(0.996264)" xlink:href="#Nimbus_Roman_No9_L_Regular-49"/>
       <use transform="translate(127.221908 0)scale(0.996264)" xlink:href="#CMMI10-58"/>
       <use transform="translate(154.817414 0)scale(0.996264)" xlink:href="#Nimbus_Roman_No9_L_Regular-51"/>
       <use transform="translate(204.630615 0)scale(0.996264)" xlink:href="#Nimbus_Roman_No9_L_Regular-53"/>
      </g>
     </g>
    </g>
    <g id="ytick_5">
     <g id="line2d_8">
      <g>
       <use style="stroke:#000000;stroke-width:0.8;" x="54" xlink:href="#m474b44087a" y="48.368102"/>
      </g>
     </g>
     <g id="text_9">
      <!-- $-1.30$ -->
      <g transform="translate(-3.888757 55.122679)scale(0.2 -0.2)">
       <use transform="scale(0.996264)" xlink:href="#CMSY10-0"/>
       <use transform="translate(77.408707 0)scale(0.996264)" xlink:href="#Nimbus_Roman_No9_L_Regular-49"/>
       <use transform="translate(127.221908 0)scale(0.996264)" xlink:href="#CMMI10-58"/>
       <use transform="translate(154.817414 0)scale(0.996264)" xlink:href="#Nimbus_Roman_No9_L_Regular-51"/>
       <use transform="translate(204.630615 0)scale(0.996264)" xlink:href="#Nimbus_Roman_No9_L_Regular-48"/>
      </g>
     </g>
    </g>
    <g id="text_10">
     <!-- $\mu_P(\phi_P)$ -->
     <defs>
      <path d="M 44.203125 50 
L 35.296875 50 
L 35.40625 13.265625 
C 31.796875 8.1875 28.40625 6 24.203125 6 
C 18.40625 6 15 10.078125 15 17.046875 
L 15 50 
L 6.203125 50 
L 6.203125 2.1875 
C 6.203125 0.09375 5.796875 -2.40625 5.09375 -5.40625 
C 3.40625 -11.609375 3.296875 -12.203125 3.296875 -14.515625 
C 3.296875 -18.703125 5.40625 -21.703125 8.296875 -21.703125 
C 11.203125 -21.703125 13.203125 -18.703125 13.203125 -14.3125 
C 13.203125 -12.203125 12.90625 -10.90625 11.296875 -5.109375 
C 10.296875 -1.515625 10.09375 -0.515625 10.09375 2.296875 
L 10.09375 3.484375 
C 14.296875 -0.015625 16.59375 -1.109375 20 -1.109375 
C 25 -1.109375 30.09375 1.984375 35.40625 8.1875 
C 36.203125 4.984375 36.703125 3.796875 37.703125 2.296875 
C 39.203125 -0.109375 41.90625 -1.40625 44.796875 -1.40625 
C 51 -1.40625 55.296875 2.984375 56.703125 10.703125 
L 54 10.8125 
C 53.59375 7 51.5 4 49.203125 4 
C 46.203125 4 44.203125 7.59375 44.203125 13.015625 
z
" id="Standard_Symbols_L-109"/>
      <path d="M 33.09375 -24 
C 33.09375 -23.703125 33.09375 -23.5 31.40625 -21.8125 
C 18.90625 -9.203125 15.703125 9.6875 15.703125 25 
C 15.703125 42.390625 19.5 59.796875 31.796875 72.296875 
C 33.09375 73.5 33.09375 73.6875 33.09375 74 
C 33.09375 74.6875 32.703125 75 32.09375 75 
C 31.09375 75 22.09375 68.203125 16.203125 55.5 
C 11.09375 44.5 9.90625 33.390625 9.90625 25 
C 9.90625 17.1875 11 5.09375 16.5 -6.203125 
C 22.5 -18.5 31.09375 -25 32.09375 -25 
C 32.703125 -25 33.09375 -24.703125 33.09375 -24 
z
" id="CMR10-40"/>
      <path d="M 28.90625 25 
C 28.90625 32.796875 27.796875 44.890625 22.296875 56.203125 
C 16.296875 68.5 7.703125 75 6.703125 75 
C 6.09375 75 5.703125 74.59375 5.703125 74 
C 5.703125 73.6875 5.703125 73.5 7.59375 71.703125 
C 17.40625 61.796875 23.09375 45.890625 23.09375 25 
C 23.09375 7.890625 19.40625 -9.703125 7 -22.3125 
C 5.703125 -23.5 5.703125 -23.703125 5.703125 -24 
C 5.703125 -24.609375 6.09375 -25 6.703125 -25 
C 7.703125 -25 16.703125 -18.203125 22.59375 -5.5 
C 27.703125 5.5 28.90625 16.59375 28.90625 25 
z
" id="CMR10-41"/>
     </defs>
     <g transform="translate(-12.202415 207.275804)rotate(-90)scale(0.2 -0.2)">
      <use transform="translate(0 14.943915)scale(0.996264)" xlink:href="#Standard_Symbols_L-109"/>
      <use transform="translate(57.383779 0)scale(0.737241)" xlink:href="#Nimbus_Roman_No9_L_Regular_Italic-80"/>
      <use transform="translate(102.92724 14.943915)scale(0.996264)" xlink:href="#CMR10-40"/>
      <use transform="translate(141.581086 14.943915)scale(0.996264)" xlink:href="#Standard_Symbols_L-102"/>
      <use transform="translate(193.486051 0)scale(0.737241)" xlink:href="#Nimbus_Roman_No9_L_Regular_Italic-80"/>
      <use transform="translate(239.029512 14.943915)scale(0.996264)" xlink:href="#CMR10-41"/>
     </g>
    </g>
   </g>
   <g id="line2d_9">
    <path clip-path="url(#pc00e7b5d1d)" d="M 69.218182 241.477909 
L 72.292562 223.4763 
L 75.366942 207.891377 
L 78.441322 194.29409 
L 81.515702 182.358484 
L 84.590083 171.831064 
L 87.664463 162.510762 
L 90.738843 154.23537 
L 93.813223 146.872108 
L 96.887603 140.310878 
L 99.961983 134.459355 
L 103.036364 129.239334 
L 106.110744 124.583965 
L 109.185124 120.435643 
L 112.259504 116.744356 
L 115.333884 113.466388 
L 118.408264 110.563295 
L 121.482645 108.001066 
L 124.557025 105.749459 
L 127.631405 103.781445 
L 130.705785 102.072759 
L 133.780165 100.60152 
L 136.854545 99.347915 
L 139.928926 98.293937 
L 143.003306 97.423161 
L 146.077686 96.720547 
L 149.152066 96.172284 
L 152.226446 95.765647 
L 155.300826 95.488874 
L 158.375207 95.331062 
L 161.449587 95.282076 
L 164.523967 95.33247 
L 167.598347 95.473412 
L 170.672727 95.69663 
L 173.747107 95.994348 
L 176.821488 96.359248 
L 179.895868 96.784416 
L 182.970248 97.263311 
L 186.044628 97.789731 
L 189.119008 98.357775 
L 192.193388 98.961824 
L 195.267769 99.596508 
L 198.342149 100.25669 
L 201.416529 100.937442 
L 204.490909 101.634025 
L 207.565289 102.341875 
L 210.639669 103.056587 
L 213.71405 103.773898 
L 216.78843 104.489677 
L 219.86281 105.199909 
L 222.93719 105.900689 
L 226.01157 106.588207 
L 229.08595 107.25874 
L 232.160331 107.908645 
L 235.234711 108.534345 
L 238.309091 109.132328 
L 241.383471 109.699133 
L 244.457851 110.23135 
L 247.532231 110.725604 
L 250.606612 111.178559 
L 253.680992 111.586904 
L 256.755372 111.947352 
L 259.829752 112.256629 
L 262.904132 112.511476 
L 265.978512 112.708637 
L 269.052893 112.844859 
L 272.127273 112.916883 
L 275.201653 112.921441 
L 278.276033 112.855252 
L 281.350413 112.715014 
L 284.424793 112.497406 
L 287.499174 112.199073 
L 290.573554 111.816632 
L 293.647934 111.34666 
L 296.722314 110.785692 
L 299.796694 110.130217 
L 302.871074 109.376671 
L 305.945455 108.521432 
L 309.019835 107.560819 
L 312.094215 106.49108 
L 315.168595 105.308394 
L 318.242975 104.00886 
L 321.317355 102.588494 
L 324.391736 101.043222 
L 327.466116 99.368874 
L 330.540496 97.56118 
L 333.614876 95.615759 
L 336.689256 93.528117 
L 339.763636 91.293634 
L 342.838017 88.907564 
L 345.912397 86.365019 
L 348.986777 83.660967 
L 352.061157 80.790219 
L 355.135537 77.747424 
L 358.209917 74.527054 
L 361.284298 71.123396 
L 364.358678 67.530543 
L 367.433058 63.74238 
L 370.507438 59.75257 
L 373.581818 55.554545 
" style="fill:none;stroke:#1f77b4;stroke-linecap:square;stroke-width:1.5;"/>
   </g>
   <g id="line2d_10">
    <path clip-path="url(#pc00e7b5d1d)" d="M 69.218182 302.645455 
L 72.292562 284.643845 
L 75.366942 269.058923 
L 78.441322 255.461636 
L 81.515702 243.526029 
L 84.590083 232.99861 
L 87.664463 223.678307 
L 90.738843 215.402916 
L 93.813223 208.039653 
L 96.887603 201.478423 
L 99.961983 195.626901 
L 103.036364 190.406879 
L 106.110744 185.751511 
L 109.185124 181.603189 
L 112.259504 177.911901 
L 115.333884 174.633934 
L 118.408264 171.73084 
L 121.482645 169.168611 
L 124.557025 166.917004 
L 127.631405 164.948991 
L 130.705785 163.240305 
L 133.780165 161.769065 
L 136.854545 160.515461 
L 139.928926 159.461483 
L 143.003306 158.590706 
L 146.077686 157.888092 
L 149.152066 157.33983 
L 152.226446 156.933193 
L 155.300826 156.65642 
L 158.375207 156.498608 
L 161.449587 156.449622 
L 164.523967 156.500015 
L 167.598347 156.640958 
L 170.672727 156.864175 
L 173.747107 157.161894 
L 176.821488 157.526793 
L 179.895868 157.951961 
L 182.970248 158.430857 
L 186.044628 158.957276 
L 189.119008 159.525321 
L 192.193388 160.129369 
L 195.267769 160.764053 
L 198.342149 161.424236 
L 201.416529 162.104987 
L 204.490909 162.80157 
L 207.565289 163.509421 
L 210.639669 164.224133 
L 213.71405 164.941444 
L 216.78843 165.657222 
L 219.86281 166.367454 
L 222.93719 167.068234 
L 226.01157 167.755752 
L 229.08595 168.426286 
L 232.160331 169.07619 
L 235.234711 169.701891 
L 238.309091 170.299873 
L 241.383471 170.866679 
L 244.457851 171.398895 
L 247.532231 171.89315 
L 250.606612 172.346105 
L 253.680992 172.75445 
L 256.755372 173.114897 
L 259.829752 173.424174 
L 262.904132 173.679021 
L 265.978512 173.876183 
L 269.052893 174.012405 
L 272.127273 174.084429 
L 275.201653 174.088987 
L 278.276033 174.022797 
L 281.350413 173.88256 
L 284.424793 173.664951 
L 287.499174 173.366619 
L 290.573554 172.984178 
L 293.647934 172.514206 
L 296.722314 171.953238 
L 299.796694 171.297763 
L 302.871074 170.544216 
L 305.945455 169.688978 
L 309.019835 168.728364 
L 312.094215 167.658626 
L 315.168595 166.47594 
L 318.242975 165.176406 
L 321.317355 163.75604 
L 324.391736 162.210767 
L 327.466116 160.53642 
L 330.540496 158.728726 
L 333.614876 156.783305 
L 336.689256 154.695662 
L 339.763636 152.46118 
L 342.838017 150.075109 
L 345.912397 147.532564 
L 348.986777 144.828512 
L 352.061157 141.957765 
L 355.135537 138.91497 
L 358.209917 135.694599 
L 361.284298 132.290942 
L 364.358678 128.698089 
L 367.433058 124.909925 
L 370.507438 120.920116 
L 373.581818 116.722091 
" style="fill:none;stroke:#ff7f0e;stroke-linecap:square;stroke-width:1.5;"/>
   </g>
   <g id="patch_3">
    <path d="M 54 315 
L 54 43.2 
" style="fill:none;stroke:#000000;stroke-linecap:square;stroke-linejoin:miter;stroke-width:0.8;"/>
   </g>
   <g id="patch_4">
    <path d="M 388.8 315 
L 388.8 43.2 
" style="fill:none;stroke:#000000;stroke-linecap:square;stroke-linejoin:miter;stroke-width:0.8;"/>
   </g>
   <g id="patch_5">
    <path d="M 54 315 
L 388.8 315 
" style="fill:none;stroke:#000000;stroke-linecap:square;stroke-linejoin:miter;stroke-width:0.8;"/>
   </g>
   <g id="patch_6">
    <path d="M 54 43.2 
L 388.8 43.2 
" style="fill:none;stroke:#000000;stroke-linecap:square;stroke-linejoin:miter;stroke-width:0.8;"/>
   </g>
   <g id="legend_1">
    <g id="patch_7">
     <path d="M 259.603453 305 
L 374.8 305 
Q 378.8 305 378.8 301 
L 378.8 246.372684 
Q 378.8 242.372684 374.8 242.372684 
L 259.603453 242.372684 
Q 255.603453 242.372684 255.603453 246.372684 
L 255.603453 301 
Q 255.603453 305 259.603453 305 
z
" style="fill:#ffffff;opacity:0.8;stroke:#cccccc;stroke-linejoin:miter;"/>
    </g>
    <g id="line2d_11">
     <path d="M 263.603453 257.372684 
L 303.603453 257.372684 
" style="fill:none;stroke:#1f77b4;stroke-linecap:square;stroke-width:1.5;"/>
    </g>
    <g id="line2d_12"/>
    <g id="text_11">
     <!-- $r \rightarrow \infty$ -->
     <defs>
      <path d="M 12.09375 0 
C 17.296875 16.953125 19 21.25 23.59375 28.828125 
C 26.90625 34.40625 29.703125 37.5 31.40625 37.5 
C 32 37.5 32.5 37.109375 33 36.109375 
C 33.796875 34.40625 34.59375 33.90625 36.59375 33.90625 
C 39.5 33.90625 41.203125 35.703125 41.203125 38.796875 
C 41.203125 41.890625 39.296875 44 36.5 44 
C 34.203125 44 31.5 42.484375 28.90625 39.796875 
C 24.796875 35.609375 20.796875 29.71875 19.203125 25.734375 
L 17.796875 22.140625 
L 23.09375 43.796875 
L 22.796875 44 
C 15.5 42.6875 14.59375 42.484375 7.296875 41.296875 
L 7.296875 39.59375 
C 9.703125 40.09375 10 40.09375 10.703125 40.09375 
C 12.90625 40.09375 14.203125 39.09375 14.203125 37.296875 
C 14.203125 35.90625 14.203125 35.90625 12.59375 29.125 
L 4.5 0 
z
" id="Nimbus_Roman_No9_L_Regular_Italic-114"/>
      <path d="M 83.40625 23 
C 77.90625 18.796875 75.203125 14.6875 74.40625 13.390625 
C 69.90625 6.484375 69.09375 0.1875 69.09375 0.09375 
C 69.09375 -1.109375 70.296875 -1.109375 71.09375 -1.109375 
C 72.796875 -1.109375 72.90625 -0.90625 73.296875 0.890625 
C 75.59375 10.6875 81.5 19.09375 92.796875 23.6875 
C 94 24.09375 94.296875 24.296875 94.296875 25 
C 94.296875 25.6875 93.703125 26 93.5 26.09375 
C 89.09375 27.796875 77 32.796875 73.203125 49.59375 
C 72.90625 50.796875 72.796875 51.09375 71.09375 51.09375 
C 70.296875 51.09375 69.09375 51.09375 69.09375 49.890625 
C 69.09375 49.6875 70 43.390625 74.203125 36.6875 
C 76.203125 33.6875 79.09375 30.1875 83.40625 27 
L 9.09375 27 
C 7.296875 27 5.5 27 5.5 25 
C 5.5 23 7.296875 23 9.09375 23 
z
" id="CMSY10-33"/>
      <path d="M 35.703125 22.84375 
C 41.5 15.890625 48.5 11.796875 54.796875 11.796875 
C 63.09375 11.796875 68.796875 17.875 68.796875 26.640625 
C 68.796875 35.21875 62.90625 41.1875 54.296875 41.1875 
C 47.59375 41.1875 41.203125 37.296875 35.703125 30.25 
C 30 37.296875 23.40625 41.1875 17.09375 41.1875 
C 8.703125 41.1875 2.59375 34.921875 2.59375 26.34375 
C 2.59375 17.875 8.40625 11.796875 16.703125 11.796875 
C 22.40625 11.796875 28.09375 14.484375 32.703125 19.421875 
z
M 39.09375 26.4375 
C 43.40625 32.296875 49.296875 36 54.59375 36 
C 60 36 63.796875 32 63.796875 26.4375 
C 63.796875 20.6875 60.296875 17 54.90625 17 
C 49.59375 17 46.09375 19.140625 39.09375 26.4375 
z
M 32.40625 26.640625 
C 27.59375 20.59375 21.5 17 16.296875 17 
C 11.09375 17 7.59375 20.984375 7.59375 26.640625 
C 7.59375 32.1875 11.296875 36 16.703125 36 
C 21.5 36 26 33.453125 31.703125 27.421875 
C 32.09375 27.03125 32.09375 27.03125 32.40625 26.640625 
z
" id="Standard_Symbols_L-165"/>
     </defs>
     <g transform="translate(319.603453 264.372684)scale(0.2 -0.2)">
      <use transform="scale(0.996264)" xlink:href="#Nimbus_Roman_No9_L_Regular_Italic-114"/>
      <use transform="translate(63.184035 0)scale(0.996264)" xlink:href="#CMSY10-33"/>
      <use transform="translate(184.949582 0)scale(0.996264)" xlink:href="#Standard_Symbols_L-165"/>
     </g>
    </g>
    <g id="line2d_13">
     <path d="M 263.603453 285.686342 
L 303.603453 285.686342 
" style="fill:none;stroke:#ff7f0e;stroke-linecap:square;stroke-width:1.5;"/>
    </g>
    <g id="line2d_14"/>
    <g id="text_12">
     <!-- $r = 0 $ -->
     <defs>
      <path d="M 68.703125 32.984375 
C 70.203125 32.984375 72.09375 32.984375 72.09375 34.984375 
C 72.09375 37 70.203125 37 68.796875 37 
L 8.90625 37 
C 7.5 37 5.59375 37 5.59375 34.984375 
C 5.59375 32.984375 7.5 32.984375 9 32.984375 
z
M 68.796875 13 
C 70.203125 13 72.09375 13 72.09375 15 
C 72.09375 17 70.203125 17 68.703125 17 
L 9 17 
C 7.5 17 5.59375 17 5.59375 15 
C 5.59375 13 7.5 13 8.90625 13 
z
" id="CMR10-61"/>
     </defs>
     <g transform="translate(319.603453 292.686342)scale(0.2 -0.2)">
      <use transform="scale(0.996264)" xlink:href="#Nimbus_Roman_No9_L_Regular_Italic-114"/>
      <use transform="translate(63.184035 0)scale(0.996264)" xlink:href="#CMR10-61"/>
      <use transform="translate(162.731888 0)scale(0.996264)" xlink:href="#Nimbus_Roman_No9_L_Regular-48"/>
     </g>
    </g>
   </g>
  </g>
 </g>
 <defs>
  <clipPath id="pc00e7b5d1d">
   <rect height="271.8" width="334.8" x="54" y="43.2"/>
  </clipPath>
 </defs>
</svg>
