<?xml version="1.0" encoding="utf-8" standalone="no"?>
<!DOCTYPE svg PUBLIC "-//W3C//DTD SVG 1.1//EN"
  "http://www.w3.org/Graphics/SVG/1.1/DTD/svg11.dtd">
<!-- Created with matplotlib (http://matplotlib.org/) -->
<svg height="360pt" version="1.1" viewBox="0 0 360 360" width="360pt" xmlns="http://www.w3.org/2000/svg" xmlns:xlink="http://www.w3.org/1999/xlink">
 <defs>
  <style type="text/css">
*{stroke-linecap:butt;stroke-linejoin:round;}
  </style>
 </defs>
 <g id="figure_1">
  <g id="patch_1">
   <path d="M 0 360 
L 360 360 
L 360 0 
L 0 0 
z
" style="fill:#ffffff;"/>
  </g>
  <g id="axes_1">
   <g id="patch_2">
    <path d="M 45 315 
L 324 315 
L 324 43.2 
L 45 43.2 
z
" style="fill:#ffffff;"/>
   </g>
   <g id="matplotlib.axis_1">
    <g id="xtick_1">
     <g id="line2d_1">
      <defs>
       <path d="M 0 0 
L 0 3.5 
" id="m6c0ee2ad7f" style="stroke:#000000;stroke-width:0.8;"/>
      </defs>
      <g>
       <use style="stroke:#000000;stroke-width:0.8;" x="57.681818" xlink:href="#m6c0ee2ad7f" y="315"/>
      </g>
     </g>
     <g id="text_1">
      <!-- $10^{-4}$ -->
      <defs>
       <path d="M 29.09375 68 
L 11.09375 59 
L 11.09375 57.59375 
C 12.296875 58.09375 13.40625 58.484375 13.796875 58.6875 
C 15.59375 59.390625 17.296875 59.78125 18.296875 59.78125 
C 20.40625 59.78125 21.296875 58.296875 21.296875 55.078125 
L 21.296875 9.359375 
C 21.296875 6.03125 20.5 3.71875 18.90625 2.796875 
C 17.40625 1.890625 16 1.59375 11.796875 1.5 
L 11.796875 0 
L 39.40625 0 
L 39.40625 1.5 
C 31.5 1.59375 29.90625 2.609375 29.90625 7.453125 
L 29.90625 67.796875 
z
" id="Nimbus_Roman_No9_L_Regular-49"/>
       <path d="M 25.40625 68 
C 19.90625 68 15.703125 66.296875 12 62.796875 
C 6.203125 57.203125 2.40625 45.6875 2.40625 34 
C 2.40625 23.09375 5.703125 11.390625 10.40625 5.796875 
C 14.09375 1.390625 19.203125 -1 25 -1 
C 30.09375 -1 34.40625 0.6875 38 4.1875 
C 43.796875 9.6875 47.59375 21.296875 47.59375 33.390625 
C 47.59375 53.890625 38.5 68 25.40625 68 
z
M 25.09375 65.390625 
C 33.5 65.390625 38 54.09375 38 33.1875 
C 38 12.296875 33.59375 1.59375 25 1.59375 
C 16.40625 1.59375 12 12.296875 12 33.09375 
C 12 54.296875 16.5 65.390625 25.09375 65.390625 
z
" id="Nimbus_Roman_No9_L_Regular-48"/>
       <path d="M 65.90625 23 
C 67.59375 23 69.40625 23 69.40625 25 
C 69.40625 27 67.59375 27 65.90625 27 
L 11.796875 27 
C 10.09375 27 8.296875 27 8.296875 25 
C 8.296875 23 10.09375 23 11.796875 23 
z
" id="CMSY10-0"/>
       <path d="M 47.203125 23.390625 
L 37 23.390625 
L 37 68 
L 32.59375 68 
L 1.203125 23.390625 
L 1.203125 17 
L 29.296875 17 
L 29.296875 0 
L 37 0 
L 37 17 
L 47.203125 17 
z
M 29.203125 23.390625 
L 5.203125 23.390625 
L 29.203125 57.765625 
z
" id="Nimbus_Roman_No9_L_Regular-52"/>
      </defs>
      <g transform="translate(38.304691 335.509155)scale(0.2 -0.2)">
       <use transform="scale(0.996264)" xlink:href="#Nimbus_Roman_No9_L_Regular-49"/>
       <use transform="translate(49.8132 0)scale(0.996264)" xlink:href="#Nimbus_Roman_No9_L_Regular-48"/>
       <use transform="translate(99.626401 36.163231)scale(0.737241)" xlink:href="#CMSY10-0"/>
       <use transform="translate(156.909271 36.163231)scale(0.737241)" xlink:href="#Nimbus_Roman_No9_L_Regular-52"/>
      </g>
     </g>
    </g>
    <g id="xtick_2">
     <g id="line2d_2">
      <g>
       <use style="stroke:#000000;stroke-width:0.8;" x="142.227273" xlink:href="#m6c0ee2ad7f" y="315"/>
      </g>
     </g>
     <g id="text_2">
      <!-- $10^{-3}$ -->
      <defs>
       <path d="M 15.296875 33.390625 
C 21.203125 33.390625 23.5 33.1875 25.90625 32.296875 
C 32.09375 30.09375 36 24.390625 36 17.5 
C 36 9.09375 30.296875 2.59375 22.90625 2.59375 
C 20.203125 2.59375 18.203125 3.296875 14.5 5.6875 
C 11.5 7.5 9.796875 8.1875 8.09375 8.1875 
C 5.796875 8.1875 4.296875 6.796875 4.296875 4.6875 
C 4.296875 1.1875 8.59375 -1 15.59375 -1 
C 23.296875 -1 31.203125 1.59375 35.90625 5.6875 
C 40.59375 9.796875 43.203125 15.59375 43.203125 22.296875 
C 43.203125 27.390625 41.59375 32.09375 38.703125 35.1875 
C 36.703125 37.390625 34.796875 38.59375 30.40625 40.5 
C 37.296875 45.1875 39.796875 48.890625 39.796875 54.296875 
C 39.796875 62.390625 33.40625 68 24.203125 68 
C 19.203125 68 14.796875 66.296875 11.203125 63.09375 
C 8.203125 60.390625 6.703125 57.796875 4.5 51.796875 
L 6 51.390625 
C 10.09375 58.703125 14.59375 61.984375 20.90625 61.984375 
C 27.40625 61.984375 31.90625 57.59375 31.90625 51.296875 
C 31.90625 47.6875 30.40625 44.09375 27.90625 41.59375 
C 24.90625 38.59375 22.09375 37.09375 15.296875 34.6875 
z
" id="Nimbus_Roman_No9_L_Regular-51"/>
      </defs>
      <g transform="translate(122.850146 335.509155)scale(0.2 -0.2)">
       <use transform="scale(0.996264)" xlink:href="#Nimbus_Roman_No9_L_Regular-49"/>
       <use transform="translate(49.8132 0)scale(0.996264)" xlink:href="#Nimbus_Roman_No9_L_Regular-48"/>
       <use transform="translate(99.626401 36.163231)scale(0.737241)" xlink:href="#CMSY10-0"/>
       <use transform="translate(156.909271 36.163231)scale(0.737241)" xlink:href="#Nimbus_Roman_No9_L_Regular-51"/>
      </g>
     </g>
    </g>
    <g id="xtick_3">
     <g id="line2d_3">
      <g>
       <use style="stroke:#000000;stroke-width:0.8;" x="226.772727" xlink:href="#m6c0ee2ad7f" y="315"/>
      </g>
     </g>
     <g id="text_3">
      <!-- $10^{-2}$ -->
      <defs>
       <path d="M 47.5 13.734375 
L 46.203125 14.25 
C 42.5 8.5 41.203125 7.59375 36.703125 7.59375 
L 12.796875 7.59375 
L 29.59375 25.328125 
C 38.5 34.703125 42.40625 42.359375 42.40625 50.21875 
C 42.40625 60.28125 34.296875 68 23.90625 68 
C 18.40625 68 13.203125 65.796875 9.5 61.796875 
C 6.296875 58.375 4.796875 55.15625 3.09375 48 
L 5.203125 47.484375 
C 9.203125 57.359375 12.796875 60.59375 19.703125 60.59375 
C 28.09375 60.59375 33.796875 54.84375 33.796875 46.390625 
C 33.796875 38.53125 29.203125 29.15625 20.796875 20.1875 
L 3 1.1875 
L 3 0 
L 42 0 
z
" id="Nimbus_Roman_No9_L_Regular-50"/>
      </defs>
      <g transform="translate(207.395601 335.509155)scale(0.2 -0.2)">
       <use transform="scale(0.996264)" xlink:href="#Nimbus_Roman_No9_L_Regular-49"/>
       <use transform="translate(49.8132 0)scale(0.996264)" xlink:href="#Nimbus_Roman_No9_L_Regular-48"/>
       <use transform="translate(99.626401 36.163231)scale(0.737241)" xlink:href="#CMSY10-0"/>
       <use transform="translate(156.909271 36.163231)scale(0.737241)" xlink:href="#Nimbus_Roman_No9_L_Regular-50"/>
      </g>
     </g>
    </g>
    <g id="xtick_4">
     <g id="line2d_4">
      <g>
       <use style="stroke:#000000;stroke-width:0.8;" x="311.318182" xlink:href="#m6c0ee2ad7f" y="315"/>
      </g>
     </g>
     <g id="text_4">
      <!-- $10^{-1}$ -->
      <g transform="translate(291.941055 335.509155)scale(0.2 -0.2)">
       <use transform="scale(0.996264)" xlink:href="#Nimbus_Roman_No9_L_Regular-49"/>
       <use transform="translate(49.8132 0)scale(0.996264)" xlink:href="#Nimbus_Roman_No9_L_Regular-48"/>
       <use transform="translate(99.626401 36.163231)scale(0.737241)" xlink:href="#CMSY10-0"/>
       <use transform="translate(156.909271 36.163231)scale(0.737241)" xlink:href="#Nimbus_Roman_No9_L_Regular-49"/>
      </g>
     </g>
    </g>
    <g id="xtick_5">
     <g id="line2d_5">
      <defs>
       <path d="M 0 0 
L 0 2 
" id="m525cb5cc64" style="stroke:#000000;stroke-width:0.6;"/>
      </defs>
      <g>
       <use style="stroke:#000000;stroke-width:0.6;" x="44.585562" xlink:href="#m525cb5cc64" y="315"/>
      </g>
     </g>
    </g>
    <g id="xtick_6">
     <g id="line2d_6">
      <g>
       <use style="stroke:#000000;stroke-width:0.6;" x="49.488517" xlink:href="#m525cb5cc64" y="315"/>
      </g>
     </g>
    </g>
    <g id="xtick_7">
     <g id="line2d_7">
      <g>
       <use style="stroke:#000000;stroke-width:0.6;" x="53.81323" xlink:href="#m525cb5cc64" y="315"/>
      </g>
     </g>
    </g>
    <g id="xtick_8">
     <g id="line2d_8">
      <g>
       <use style="stroke:#000000;stroke-width:0.6;" x="83.132536" xlink:href="#m525cb5cc64" y="315"/>
      </g>
     </g>
    </g>
    <g id="xtick_9">
     <g id="line2d_9">
      <g>
       <use style="stroke:#000000;stroke-width:0.6;" x="98.020252" xlink:href="#m525cb5cc64" y="315"/>
      </g>
     </g>
    </g>
    <g id="xtick_10">
     <g id="line2d_10">
      <g>
       <use style="stroke:#000000;stroke-width:0.6;" x="108.583254" xlink:href="#m525cb5cc64" y="315"/>
      </g>
     </g>
    </g>
    <g id="xtick_11">
     <g id="line2d_11">
      <g>
       <use style="stroke:#000000;stroke-width:0.6;" x="116.776555" xlink:href="#m525cb5cc64" y="315"/>
      </g>
     </g>
    </g>
    <g id="xtick_12">
     <g id="line2d_12">
      <g>
       <use style="stroke:#000000;stroke-width:0.6;" x="123.470969" xlink:href="#m525cb5cc64" y="315"/>
      </g>
     </g>
    </g>
    <g id="xtick_13">
     <g id="line2d_13">
      <g>
       <use style="stroke:#000000;stroke-width:0.6;" x="129.131016" xlink:href="#m525cb5cc64" y="315"/>
      </g>
     </g>
    </g>
    <g id="xtick_14">
     <g id="line2d_14">
      <g>
       <use style="stroke:#000000;stroke-width:0.6;" x="134.033972" xlink:href="#m525cb5cc64" y="315"/>
      </g>
     </g>
    </g>
    <g id="xtick_15">
     <g id="line2d_15">
      <g>
       <use style="stroke:#000000;stroke-width:0.6;" x="138.358685" xlink:href="#m525cb5cc64" y="315"/>
      </g>
     </g>
    </g>
    <g id="xtick_16">
     <g id="line2d_16">
      <g>
       <use style="stroke:#000000;stroke-width:0.6;" x="167.677991" xlink:href="#m525cb5cc64" y="315"/>
      </g>
     </g>
    </g>
    <g id="xtick_17">
     <g id="line2d_17">
      <g>
       <use style="stroke:#000000;stroke-width:0.6;" x="182.565706" xlink:href="#m525cb5cc64" y="315"/>
      </g>
     </g>
    </g>
    <g id="xtick_18">
     <g id="line2d_18">
      <g>
       <use style="stroke:#000000;stroke-width:0.6;" x="193.128708" xlink:href="#m525cb5cc64" y="315"/>
      </g>
     </g>
    </g>
    <g id="xtick_19">
     <g id="line2d_19">
      <g>
       <use style="stroke:#000000;stroke-width:0.6;" x="201.322009" xlink:href="#m525cb5cc64" y="315"/>
      </g>
     </g>
    </g>
    <g id="xtick_20">
     <g id="line2d_20">
      <g>
       <use style="stroke:#000000;stroke-width:0.6;" x="208.016424" xlink:href="#m525cb5cc64" y="315"/>
      </g>
     </g>
    </g>
    <g id="xtick_21">
     <g id="line2d_21">
      <g>
       <use style="stroke:#000000;stroke-width:0.6;" x="213.676471" xlink:href="#m525cb5cc64" y="315"/>
      </g>
     </g>
    </g>
    <g id="xtick_22">
     <g id="line2d_22">
      <g>
       <use style="stroke:#000000;stroke-width:0.6;" x="218.579426" xlink:href="#m525cb5cc64" y="315"/>
      </g>
     </g>
    </g>
    <g id="xtick_23">
     <g id="line2d_23">
      <g>
       <use style="stroke:#000000;stroke-width:0.6;" x="222.904139" xlink:href="#m525cb5cc64" y="315"/>
      </g>
     </g>
    </g>
    <g id="xtick_24">
     <g id="line2d_24">
      <g>
       <use style="stroke:#000000;stroke-width:0.6;" x="252.223445" xlink:href="#m525cb5cc64" y="315"/>
      </g>
     </g>
    </g>
    <g id="xtick_25">
     <g id="line2d_25">
      <g>
       <use style="stroke:#000000;stroke-width:0.6;" x="267.111161" xlink:href="#m525cb5cc64" y="315"/>
      </g>
     </g>
    </g>
    <g id="xtick_26">
     <g id="line2d_26">
      <g>
       <use style="stroke:#000000;stroke-width:0.6;" x="277.674163" xlink:href="#m525cb5cc64" y="315"/>
      </g>
     </g>
    </g>
    <g id="xtick_27">
     <g id="line2d_27">
      <g>
       <use style="stroke:#000000;stroke-width:0.6;" x="285.867464" xlink:href="#m525cb5cc64" y="315"/>
      </g>
     </g>
    </g>
    <g id="xtick_28">
     <g id="line2d_28">
      <g>
       <use style="stroke:#000000;stroke-width:0.6;" x="292.561878" xlink:href="#m525cb5cc64" y="315"/>
      </g>
     </g>
    </g>
    <g id="xtick_29">
     <g id="line2d_29">
      <g>
       <use style="stroke:#000000;stroke-width:0.6;" x="298.221925" xlink:href="#m525cb5cc64" y="315"/>
      </g>
     </g>
    </g>
    <g id="xtick_30">
     <g id="line2d_30">
      <g>
       <use style="stroke:#000000;stroke-width:0.6;" x="303.124881" xlink:href="#m525cb5cc64" y="315"/>
      </g>
     </g>
    </g>
    <g id="xtick_31">
     <g id="line2d_31">
      <g>
       <use style="stroke:#000000;stroke-width:0.6;" x="307.449594" xlink:href="#m525cb5cc64" y="315"/>
      </g>
     </g>
    </g>
    <g id="text_5">
     <!-- $\phi_R$ -->
     <defs>
      <path d="M 27.90625 -0.46875 
C 40.203125 1.234375 49 12.46875 49 26.59375 
C 49 40.328125 40.59375 50.25 27.90625 51.15625 
L 27.90625 59.171875 
C 27.90625 62.890625 28 64.796875 28.203125 67.09375 
L 23.5 69 
C 23.703125 66.59375 23.796875 64.09375 23.796875 60.078125 
L 23.796875 51.15625 
C 11.796875 49.75 2.703125 38.328125 2.703125 24.5 
C 2.703125 10.5625 11.296875 0.34375 23.796875 -0.65625 
L 23.796875 -10.78125 
C 23.796875 -15.296875 23.703125 -18.109375 23.5 -20.90625 
L 28.203125 -22.015625 
C 28 -18.703125 28 -18.40625 27.90625 -14 
L 27.90625 -11.28125 
z
M 23.796875 3.546875 
C 21 4.65625 19 6.25 17.5 8.5625 
C 14.296875 13.46875 12.40625 21.09375 12.40625 29 
C 12.40625 40.328125 16.703125 47.34375 23.796875 47.65625 
z
M 27.90625 46.953125 
C 35 44.34375 39.296875 34.828125 39.296875 22.09375 
C 39.296875 10.265625 35.203125 3.453125 27.90625 3.046875 
z
" id="Standard_Symbols_L-102"/>
      <path d="M 56.703125 1.59375 
C 52.296875 1.890625 50.296875 3.578125 48.40625 8.765625 
L 39.09375 33.140625 
C 46.796875 34.828125 50.09375 36.21875 53.703125 39.40625 
C 57 42.296875 58.796875 46.171875 58.796875 50.65625 
C 58.796875 59.90625 51.40625 65 38 65 
L 13.203125 65 
L 13.203125 63.390625 
C 17.40625 62.796875 17.90625 62.6875 18.90625 61.984375 
C 19.703125 61.5 20.296875 60.296875 20.296875 59.203125 
C 20.296875 58.015625 19.796875 55.625 19.09375 52.9375 
L 6.796875 8.953125 
C 5 3.09375 4.296875 2.484375 -1.296875 1.59375 
L -1.296875 0 
L 23.09375 0 
L 23.09375 1.59375 
C 17 2.390625 16.296875 2.890625 16.296875 6.171875 
C 16.296875 7.171875 16.59375 8.453125 17.5 11.9375 
L 23.09375 32.734375 
L 29.59375 32.234375 
L 41.90625 0 
L 56.703125 0 
z
M 30.796875 59.203125 
C 31.40625 61.296875 32.703125 61.984375 35.90625 61.984375 
C 44.203125 61.984375 48.296875 58.21875 48.296875 50.84375 
C 48.296875 41 41.90625 35.921875 29.40625 35.921875 
C 27.796875 35.921875 26.703125 36.015625 24.296875 36.421875 
z
" id="Nimbus_Roman_No9_L_Regular_Italic-82"/>
     </defs>
     <g transform="translate(174.804972 357.939796)scale(0.2 -0.2)">
      <use transform="translate(0 14.943915)scale(0.996264)" xlink:href="#Standard_Symbols_L-102"/>
      <use transform="translate(51.904966 0)scale(0.737241)" xlink:href="#Nimbus_Roman_No9_L_Regular_Italic-82"/>
     </g>
    </g>
   </g>
   <g id="matplotlib.axis_2">
    <g id="ytick_1">
     <g id="line2d_32">
      <defs>
       <path d="M 0 0 
L -3.5 0 
" id="me19a338d36" style="stroke:#000000;stroke-width:0.8;"/>
      </defs>
      <g>
       <use style="stroke:#000000;stroke-width:0.8;" x="45" xlink:href="#me19a338d36" y="313.283121"/>
      </g>
     </g>
     <g id="text_6">
      <!-- $-1.4$ -->
      <defs>
       <path d="M 19.203125 5.296875 
C 19.203125 8.1875 16.796875 10.59375 13.90625 10.59375 
C 11 10.59375 8.59375 8.1875 8.59375 5.296875 
C 8.59375 2.390625 11 0 13.90625 0 
C 16.796875 0 19.203125 2.390625 19.203125 5.296875 
z
" id="CMMI10-58"/>
      </defs>
      <g transform="translate(-2.926117 320.037699)scale(0.2 -0.2)">
       <use transform="scale(0.996264)" xlink:href="#CMSY10-0"/>
       <use transform="translate(77.408707 0)scale(0.996264)" xlink:href="#Nimbus_Roman_No9_L_Regular-49"/>
       <use transform="translate(127.221908 0)scale(0.996264)" xlink:href="#CMMI10-58"/>
       <use transform="translate(154.817414 0)scale(0.996264)" xlink:href="#Nimbus_Roman_No9_L_Regular-52"/>
      </g>
     </g>
    </g>
    <g id="ytick_2">
     <g id="line2d_33">
      <g>
       <use style="stroke:#000000;stroke-width:0.8;" x="45" xlink:href="#me19a338d36" y="254.662402"/>
      </g>
     </g>
     <g id="text_7">
      <!-- $-1.2$ -->
      <g transform="translate(-2.926117 261.41698)scale(0.2 -0.2)">
       <use transform="scale(0.996264)" xlink:href="#CMSY10-0"/>
       <use transform="translate(77.408707 0)scale(0.996264)" xlink:href="#Nimbus_Roman_No9_L_Regular-49"/>
       <use transform="translate(127.221908 0)scale(0.996264)" xlink:href="#CMMI10-58"/>
       <use transform="translate(154.817414 0)scale(0.996264)" xlink:href="#Nimbus_Roman_No9_L_Regular-50"/>
      </g>
     </g>
    </g>
    <g id="ytick_3">
     <g id="line2d_34">
      <g>
       <use style="stroke:#000000;stroke-width:0.8;" x="45" xlink:href="#me19a338d36" y="196.041683"/>
      </g>
     </g>
     <g id="text_8">
      <!-- $-1.0$ -->
      <g transform="translate(-2.926117 202.79626)scale(0.2 -0.2)">
       <use transform="scale(0.996264)" xlink:href="#CMSY10-0"/>
       <use transform="translate(77.408707 0)scale(0.996264)" xlink:href="#Nimbus_Roman_No9_L_Regular-49"/>
       <use transform="translate(127.221908 0)scale(0.996264)" xlink:href="#CMMI10-58"/>
       <use transform="translate(154.817414 0)scale(0.996264)" xlink:href="#Nimbus_Roman_No9_L_Regular-48"/>
      </g>
     </g>
    </g>
    <g id="ytick_4">
     <g id="line2d_35">
      <g>
       <use style="stroke:#000000;stroke-width:0.8;" x="45" xlink:href="#me19a338d36" y="137.420963"/>
      </g>
     </g>
     <g id="text_9">
      <!-- $-0.8$ -->
      <defs>
       <path d="M 29 37.5 
C 38.90625 42.796875 42.40625 47 42.40625 53.796875 
C 42.40625 62 35.203125 68 25.203125 68 
C 14.296875 68 6.203125 61.296875 6.203125 52.203125 
C 6.203125 45.6875 8.09375 42.796875 18.59375 33.59375 
C 7.796875 25.390625 5.59375 22.296875 5.59375 15.5 
C 5.59375 5.796875 13.5 -1 24.796875 -1 
C 36.796875 -1 44.5 5.59375 44.5 15.890625 
C 44.5 23.59375 41.09375 28.5 29 37.5 
z
M 27.203125 27.1875 
C 34.5 22 36.90625 18.390625 36.90625 12.796875 
C 36.90625 6.296875 32.40625 1.796875 25.90625 1.796875 
C 18.296875 1.796875 13.203125 7.59375 13.203125 16.296875 
C 13.203125 22.6875 15.40625 26.890625 21.203125 31.59375 
z
M 26.09375 39.296875 
C 17.203125 45.09375 13.59375 49.6875 13.59375 55.296875 
C 13.59375 61.09375 18.09375 65.1875 24.40625 65.1875 
C 31.203125 65.1875 35.5 60.796875 35.5 53.890625 
C 35.5 48.1875 32.703125 43.6875 27 39.890625 
C 26.5 39.59375 26.5 39.59375 26.09375 39.296875 
z
" id="Nimbus_Roman_No9_L_Regular-56"/>
      </defs>
      <g transform="translate(-2.926117 144.175541)scale(0.2 -0.2)">
       <use transform="scale(0.996264)" xlink:href="#CMSY10-0"/>
       <use transform="translate(77.408707 0)scale(0.996264)" xlink:href="#Nimbus_Roman_No9_L_Regular-48"/>
       <use transform="translate(127.221908 0)scale(0.996264)" xlink:href="#CMMI10-58"/>
       <use transform="translate(154.817414 0)scale(0.996264)" xlink:href="#Nimbus_Roman_No9_L_Regular-56"/>
      </g>
     </g>
    </g>
    <g id="ytick_5">
     <g id="line2d_36">
      <g>
       <use style="stroke:#000000;stroke-width:0.8;" x="45" xlink:href="#me19a338d36" y="78.800244"/>
      </g>
     </g>
     <g id="text_10">
      <!-- $-0.6$ -->
      <defs>
       <path d="M 44.59375 68.59375 
C 33.203125 67.59375 27.40625 65.6875 20.09375 60.59375 
C 9.296875 52.890625 3.40625 41.484375 3.40625 28.140625 
C 3.40625 19.5 6.09375 10.75 10.40625 5.765625 
C 14.203125 1.390625 19.59375 -1 25.796875 -1 
C 38.203125 -1 46.796875 8.453125 46.796875 22.1875 
C 46.796875 34.90625 39.5 43 28 43 
C 23.59375 43 21.5 42.296875 15.203125 38.484375 
C 17.90625 53.59375 29.09375 64.390625 44.796875 67 
z
M 24.203125 38.390625 
C 32.796875 38.390625 37.796875 31.234375 37.796875 18.796875 
C 37.796875 7.859375 33.90625 1.796875 26.90625 1.796875 
C 18.09375 1.796875 12.703125 11.140625 12.703125 26.5625 
C 12.703125 31.625 13.5 34.421875 15.5 35.90625 
C 17.59375 37.5 20.703125 38.390625 24.203125 38.390625 
z
" id="Nimbus_Roman_No9_L_Regular-54"/>
      </defs>
      <g transform="translate(-2.926117 85.554822)scale(0.2 -0.2)">
       <use transform="scale(0.996264)" xlink:href="#CMSY10-0"/>
       <use transform="translate(77.408707 0)scale(0.996264)" xlink:href="#Nimbus_Roman_No9_L_Regular-48"/>
       <use transform="translate(127.221908 0)scale(0.996264)" xlink:href="#CMMI10-58"/>
       <use transform="translate(154.817414 0)scale(0.996264)" xlink:href="#Nimbus_Roman_No9_L_Regular-54"/>
      </g>
     </g>
    </g>
    <g id="text_11">
     <!-- $\mu_R(\phi_R)$ -->
     <defs>
      <path d="M 44.203125 50 
L 35.296875 50 
L 35.40625 13.265625 
C 31.796875 8.1875 28.40625 6 24.203125 6 
C 18.40625 6 15 10.078125 15 17.046875 
L 15 50 
L 6.203125 50 
L 6.203125 2.1875 
C 6.203125 0.09375 5.796875 -2.40625 5.09375 -5.40625 
C 3.40625 -11.609375 3.296875 -12.203125 3.296875 -14.515625 
C 3.296875 -18.703125 5.40625 -21.703125 8.296875 -21.703125 
C 11.203125 -21.703125 13.203125 -18.703125 13.203125 -14.3125 
C 13.203125 -12.203125 12.90625 -10.90625 11.296875 -5.109375 
C 10.296875 -1.515625 10.09375 -0.515625 10.09375 2.296875 
L 10.09375 3.484375 
C 14.296875 -0.015625 16.59375 -1.109375 20 -1.109375 
C 25 -1.109375 30.09375 1.984375 35.40625 8.1875 
C 36.203125 4.984375 36.703125 3.796875 37.703125 2.296875 
C 39.203125 -0.109375 41.90625 -1.40625 44.796875 -1.40625 
C 51 -1.40625 55.296875 2.984375 56.703125 10.703125 
L 54 10.8125 
C 53.59375 7 51.5 4 49.203125 4 
C 46.203125 4 44.203125 7.59375 44.203125 13.015625 
z
" id="Standard_Symbols_L-109"/>
      <path d="M 33.09375 -24 
C 33.09375 -23.703125 33.09375 -23.5 31.40625 -21.8125 
C 18.90625 -9.203125 15.703125 9.6875 15.703125 25 
C 15.703125 42.390625 19.5 59.796875 31.796875 72.296875 
C 33.09375 73.5 33.09375 73.6875 33.09375 74 
C 33.09375 74.6875 32.703125 75 32.09375 75 
C 31.09375 75 22.09375 68.203125 16.203125 55.5 
C 11.09375 44.5 9.90625 33.390625 9.90625 25 
C 9.90625 17.1875 11 5.09375 16.5 -6.203125 
C 22.5 -18.5 31.09375 -25 32.09375 -25 
C 32.703125 -25 33.09375 -24.703125 33.09375 -24 
z
" id="CMR10-40"/>
      <path d="M 28.90625 25 
C 28.90625 32.796875 27.796875 44.890625 22.296875 56.203125 
C 16.296875 68.5 7.703125 75 6.703125 75 
C 6.09375 75 5.703125 74.59375 5.703125 74 
C 5.703125 73.6875 5.703125 73.5 7.59375 71.703125 
C 17.40625 61.796875 23.09375 45.890625 23.09375 25 
C 23.09375 7.890625 19.40625 -9.703125 7 -22.3125 
C 5.703125 -23.5 5.703125 -23.703125 5.703125 -24 
C 5.703125 -24.609375 6.09375 -25 6.703125 -25 
C 7.703125 -25 16.703125 -18.203125 22.59375 -5.5 
C 27.703125 5.5 28.90625 16.59375 28.90625 25 
z
" id="CMR10-41"/>
     </defs>
     <g transform="translate(-11.239775 207.27582)rotate(-90)scale(0.2 -0.2)">
      <use transform="translate(0 14.943915)scale(0.996264)" xlink:href="#Standard_Symbols_L-109"/>
      <use transform="translate(57.383779 0)scale(0.737241)" xlink:href="#Nimbus_Roman_No9_L_Regular_Italic-82"/>
      <use transform="translate(102.927255 14.943915)scale(0.996264)" xlink:href="#CMR10-40"/>
      <use transform="translate(141.581101 14.943915)scale(0.996264)" xlink:href="#Standard_Symbols_L-102"/>
      <use transform="translate(193.486067 0)scale(0.737241)" xlink:href="#Nimbus_Roman_No9_L_Regular_Italic-82"/>
      <use transform="translate(239.029543 14.943915)scale(0.996264)" xlink:href="#CMR10-41"/>
     </g>
    </g>
   </g>
   <g id="line2d_37">
    <path clip-path="url(#p1d198f415d)" d="M 57.681818 302.645455 
L 146.02904 287.061552 
L 169.785983 281.789371 
L 184.091287 278.02587 
L 194.359582 274.906589 
L 202.374917 272.146698 
L 208.950206 269.616413 
L 214.524926 267.24557 
L 219.363756 264.991911 
L 223.638516 262.828004 
L 227.467093 260.735027 
L 230.933887 258.699505 
L 234.101409 256.711457 
L 237.017246 254.763286 
L 239.718467 252.849072 
L 242.234512 250.964115 
L 244.589149 249.10462 
L 246.801843 247.267478 
L 248.88874 245.45011 
L 250.863378 243.650356 
L 252.737218 241.866384 
L 254.520056 240.096629 
L 256.22032 238.339746 
L 257.845324 236.594567 
L 259.401448 234.860071 
L 260.894294 233.135364 
L 262.328809 231.419656 
L 263.709381 229.712246 
L 265.039918 228.012508 
L 266.323923 226.319883 
L 267.564539 224.633868 
L 268.764603 222.95401 
L 269.926683 221.279898 
L 271.05311 219.611159 
L 272.146007 217.947455 
L 273.207311 216.288474 
L 274.238799 214.633932 
L 275.2421 212.983569 
L 276.218714 211.337145 
L 277.170023 209.694438 
L 278.097306 208.055243 
L 279.001747 206.419371 
L 279.884444 204.786645 
L 280.746417 203.156903 
L 281.588619 201.529991 
L 282.411935 199.905767 
L 283.217195 198.284098 
L 284.005172 196.664861 
L 284.776594 195.047937 
L 285.532141 193.433218 
L 286.272454 191.820601 
L 286.998135 190.209989 
L 287.709752 188.60129 
L 288.407839 186.994419 
L 289.0929 185.389295 
L 289.765414 183.785839 
L 290.425832 182.183981 
L 291.07458 180.58365 
L 291.712065 178.984781 
L 292.33867 177.387312 
L 292.954762 175.791185 
L 293.560686 174.196342 
L 294.156773 172.602731 
L 294.743337 171.0103 
L 295.320679 169.419002 
L 295.889082 167.828789 
L 296.448821 166.239618 
L 297.000154 164.651446 
L 297.543331 163.064233 
L 298.07859 161.47794 
L 298.606158 159.89253 
L 299.126253 158.307968 
L 299.639084 156.724219 
L 300.144851 155.14125 
L 300.643745 153.559031 
L 301.135952 151.977531 
L 301.621647 150.39672 
L 302.101002 148.816573 
L 302.57418 147.23706 
L 303.041337 145.658157 
L 303.502625 144.079838 
L 303.958189 142.50208 
L 304.408171 140.924859 
L 304.852704 139.348154 
L 305.29192 137.771941 
L 305.725944 136.196201 
L 306.154898 134.620914 
L 306.578898 133.046059 
L 306.998058 131.471618 
L 307.412487 129.897573 
L 307.82229 128.323907 
L 308.22757 126.750601 
L 308.628425 125.17764 
L 309.024952 123.605007 
L 309.417241 122.032687 
L 309.805384 120.460664 
L 310.189467 118.888925 
L 310.569574 117.317454 
L 310.945786 115.746239 
L 311.318182 114.175265 
" style="fill:none;stroke:#000000;stroke-linecap:square;stroke-width:1.5;"/>
   </g>
   <g id="line2d_38">
    <path clip-path="url(#p1d198f415d)" d="M 57.681818 244.024735 
L 146.02904 228.440833 
L 169.785983 223.168652 
L 184.091287 219.405151 
L 194.359582 216.28587 
L 202.374917 213.525979 
L 208.950206 210.995694 
L 214.524926 208.624851 
L 219.363756 206.371192 
L 223.638516 204.207284 
L 227.467093 202.114307 
L 230.933887 200.078785 
L 234.101409 198.090738 
L 237.017246 196.142567 
L 239.718467 194.228353 
L 242.234512 192.343396 
L 244.589149 190.483901 
L 246.801843 188.646759 
L 248.88874 186.829391 
L 250.863378 185.029637 
L 252.737218 183.245664 
L 254.520056 181.47591 
L 256.22032 179.719027 
L 257.845324 177.973847 
L 259.401448 176.239352 
L 260.894294 174.514645 
L 262.328809 172.798937 
L 263.709381 171.091526 
L 265.039918 169.391788 
L 266.323923 167.699163 
L 267.564539 166.013148 
L 268.764603 164.33329 
L 269.926683 162.659179 
L 271.05311 160.99044 
L 272.146007 159.326735 
L 273.207311 157.667754 
L 274.238799 156.013213 
L 275.2421 154.36285 
L 276.218714 152.716426 
L 277.170023 151.073718 
L 278.097306 149.434524 
L 279.001747 147.798652 
L 279.884444 146.165926 
L 280.746417 144.536184 
L 281.588619 142.909271 
L 282.411935 141.285048 
L 283.217195 139.663379 
L 284.005172 138.044141 
L 284.776594 136.427218 
L 285.532141 134.812499 
L 286.272454 133.199882 
L 286.998135 131.589269 
L 287.709752 129.980571 
L 288.407839 128.3737 
L 289.0929 126.768575 
L 289.765414 125.16512 
L 290.425832 123.563261 
L 291.07458 121.96293 
L 291.712065 120.364062 
L 292.33867 118.766593 
L 292.954762 117.170465 
L 293.560686 115.575623 
L 294.156773 113.982012 
L 294.743337 112.389581 
L 295.320679 110.798283 
L 295.889082 109.20807 
L 296.448821 107.618899 
L 297.000154 106.030727 
L 297.543331 104.443514 
L 298.07859 102.857221 
L 298.606158 101.271811 
L 299.126253 99.687248 
L 299.639084 98.103499 
L 300.144851 96.520531 
L 300.643745 94.938311 
L 301.135952 93.356811 
L 301.621647 91.776001 
L 302.101002 90.195853 
L 302.57418 88.616341 
L 303.041337 87.037438 
L 303.502625 85.459119 
L 303.958189 83.881361 
L 304.408171 82.30414 
L 304.852704 80.727434 
L 305.29192 79.151222 
L 305.725944 77.575482 
L 306.154898 76.000194 
L 306.578898 74.42534 
L 306.998058 72.850899 
L 307.412487 71.276854 
L 307.82229 69.703187 
L 308.22757 68.129882 
L 308.628425 66.55692 
L 309.024952 64.984287 
L 309.417241 63.411967 
L 309.805384 61.839945 
L 310.189467 60.268206 
L 310.569574 58.696735 
L 310.945786 57.125519 
L 311.318182 55.554545 
" style="fill:none;stroke:#ff0000;stroke-linecap:square;stroke-width:1.5;"/>
   </g>
   <g id="patch_3">
    <path d="M 45 315 
L 45 43.2 
" style="fill:none;stroke:#000000;stroke-linecap:square;stroke-linejoin:miter;stroke-width:0.8;"/>
   </g>
   <g id="patch_4">
    <path d="M 324 315 
L 324 43.2 
" style="fill:none;stroke:#000000;stroke-linecap:square;stroke-linejoin:miter;stroke-width:0.8;"/>
   </g>
   <g id="patch_5">
    <path d="M 45 315 
L 324 315 
" style="fill:none;stroke:#000000;stroke-linecap:square;stroke-linejoin:miter;stroke-width:0.8;"/>
   </g>
   <g id="patch_6">
    <path d="M 45 43.2 
L 324 43.2 
" style="fill:none;stroke:#000000;stroke-linecap:square;stroke-linejoin:miter;stroke-width:0.8;"/>
   </g>
   <g id="legend_1">
    <g id="patch_7">
     <path d="M 59 115.827316 
L 174.196547 115.827316 
Q 178.196547 115.827316 178.196547 111.827316 
L 178.196547 57.2 
Q 178.196547 53.2 174.196547 53.2 
L 59 53.2 
Q 55 53.2 55 57.2 
L 55 111.827316 
Q 55 115.827316 59 115.827316 
z
" style="fill:#ffffff;opacity:0.8;stroke:#cccccc;stroke-linejoin:miter;"/>
    </g>
    <g id="line2d_39">
     <path d="M 63 68.2 
L 103 68.2 
" style="fill:none;stroke:#000000;stroke-linecap:square;stroke-width:1.5;"/>
    </g>
    <g id="line2d_40"/>
    <g id="text_12">
     <!-- $r=0$ -->
     <defs>
      <path d="M 12.09375 0 
C 17.296875 16.953125 19 21.25 23.59375 28.828125 
C 26.90625 34.40625 29.703125 37.5 31.40625 37.5 
C 32 37.5 32.5 37.109375 33 36.109375 
C 33.796875 34.40625 34.59375 33.90625 36.59375 33.90625 
C 39.5 33.90625 41.203125 35.703125 41.203125 38.796875 
C 41.203125 41.890625 39.296875 44 36.5 44 
C 34.203125 44 31.5 42.484375 28.90625 39.796875 
C 24.796875 35.609375 20.796875 29.71875 19.203125 25.734375 
L 17.796875 22.140625 
L 23.09375 43.796875 
L 22.796875 44 
C 15.5 42.6875 14.59375 42.484375 7.296875 41.296875 
L 7.296875 39.59375 
C 9.703125 40.09375 10 40.09375 10.703125 40.09375 
C 12.90625 40.09375 14.203125 39.09375 14.203125 37.296875 
C 14.203125 35.90625 14.203125 35.90625 12.59375 29.125 
L 4.5 0 
z
" id="Nimbus_Roman_No9_L_Regular_Italic-114"/>
      <path d="M 68.703125 32.984375 
C 70.203125 32.984375 72.09375 32.984375 72.09375 34.984375 
C 72.09375 37 70.203125 37 68.796875 37 
L 8.90625 37 
C 7.5 37 5.59375 37 5.59375 34.984375 
C 5.59375 32.984375 7.5 32.984375 9 32.984375 
z
M 68.796875 13 
C 70.203125 13 72.09375 13 72.09375 15 
C 72.09375 17 70.203125 17 68.703125 17 
L 9 17 
C 7.5 17 5.59375 17 5.59375 15 
C 5.59375 13 7.5 13 8.90625 13 
z
" id="CMR10-61"/>
     </defs>
     <g transform="translate(119 75.2)scale(0.2 -0.2)">
      <use transform="scale(0.996264)" xlink:href="#Nimbus_Roman_No9_L_Regular_Italic-114"/>
      <use transform="translate(63.184035 0)scale(0.996264)" xlink:href="#CMR10-61"/>
      <use transform="translate(162.731888 0)scale(0.996264)" xlink:href="#Nimbus_Roman_No9_L_Regular-48"/>
     </g>
    </g>
    <g id="line2d_41">
     <path d="M 63 96.513658 
L 103 96.513658 
" style="fill:none;stroke:#ff0000;stroke-linecap:square;stroke-width:1.5;"/>
    </g>
    <g id="line2d_42"/>
    <g id="text_13">
     <!-- $r \rightarrow \infty$ -->
     <defs>
      <path d="M 83.40625 23 
C 77.90625 18.796875 75.203125 14.6875 74.40625 13.390625 
C 69.90625 6.484375 69.09375 0.1875 69.09375 0.09375 
C 69.09375 -1.109375 70.296875 -1.109375 71.09375 -1.109375 
C 72.796875 -1.109375 72.90625 -0.90625 73.296875 0.890625 
C 75.59375 10.6875 81.5 19.09375 92.796875 23.6875 
C 94 24.09375 94.296875 24.296875 94.296875 25 
C 94.296875 25.6875 93.703125 26 93.5 26.09375 
C 89.09375 27.796875 77 32.796875 73.203125 49.59375 
C 72.90625 50.796875 72.796875 51.09375 71.09375 51.09375 
C 70.296875 51.09375 69.09375 51.09375 69.09375 49.890625 
C 69.09375 49.6875 70 43.390625 74.203125 36.6875 
C 76.203125 33.6875 79.09375 30.1875 83.40625 27 
L 9.09375 27 
C 7.296875 27 5.5 27 5.5 25 
C 5.5 23 7.296875 23 9.09375 23 
z
" id="CMSY10-33"/>
      <path d="M 35.703125 22.84375 
C 41.5 15.890625 48.5 11.796875 54.796875 11.796875 
C 63.09375 11.796875 68.796875 17.875 68.796875 26.640625 
C 68.796875 35.21875 62.90625 41.1875 54.296875 41.1875 
C 47.59375 41.1875 41.203125 37.296875 35.703125 30.25 
C 30 37.296875 23.40625 41.1875 17.09375 41.1875 
C 8.703125 41.1875 2.59375 34.921875 2.59375 26.34375 
C 2.59375 17.875 8.40625 11.796875 16.703125 11.796875 
C 22.40625 11.796875 28.09375 14.484375 32.703125 19.421875 
z
M 39.09375 26.4375 
C 43.40625 32.296875 49.296875 36 54.59375 36 
C 60 36 63.796875 32 63.796875 26.4375 
C 63.796875 20.6875 60.296875 17 54.90625 17 
C 49.59375 17 46.09375 19.140625 39.09375 26.4375 
z
M 32.40625 26.640625 
C 27.59375 20.59375 21.5 17 16.296875 17 
C 11.09375 17 7.59375 20.984375 7.59375 26.640625 
C 7.59375 32.1875 11.296875 36 16.703125 36 
C 21.5 36 26 33.453125 31.703125 27.421875 
C 32.09375 27.03125 32.09375 27.03125 32.40625 26.640625 
z
" id="Standard_Symbols_L-165"/>
     </defs>
     <g transform="translate(119 103.513658)scale(0.2 -0.2)">
      <use transform="scale(0.996264)" xlink:href="#Nimbus_Roman_No9_L_Regular_Italic-114"/>
      <use transform="translate(63.184035 0)scale(0.996264)" xlink:href="#CMSY10-33"/>
      <use transform="translate(184.949582 0)scale(0.996264)" xlink:href="#Standard_Symbols_L-165"/>
     </g>
    </g>
   </g>
  </g>
 </g>
 <defs>
  <clipPath id="p1d198f415d">
   <rect height="271.8" width="279" x="45" y="43.2"/>
  </clipPath>
 </defs>
</svg>
