<?xml version="1.0" encoding="utf-8" standalone="no"?>
<!DOCTYPE svg PUBLIC "-//W3C//DTD SVG 1.1//EN"
  "http://www.w3.org/Graphics/SVG/1.1/DTD/svg11.dtd">
<!-- Created with matplotlib (http://matplotlib.org/) -->
<svg height="432pt" version="1.1" viewBox="0 0 432 432" width="432pt" xmlns="http://www.w3.org/2000/svg" xmlns:xlink="http://www.w3.org/1999/xlink">
 <defs>
  <style type="text/css">
*{stroke-linecap:butt;stroke-linejoin:round;}
  </style>
 </defs>
 <g id="figure_1">
  <g id="patch_1">
   <path d="M 0 432 
L 432 432 
L 432 0 
L 0 0 
z
" style="fill:#ffffff;"/>
  </g>
  <g id="axes_1">
   <g id="patch_2">
    <path d="M 54 378 
L 321.84 378 
L 321.84 51.84 
L 54 51.84 
z
" style="fill:#ffffff;"/>
   </g>
   <g id="PathCollection_1">
    <path clip-path="url(#pec7faa7af7)" d="M 120.96 378 
L 187.92 378 
L 254.88 378 
L 282.863663 378 
L 268.786549 312.768 
L 254.88 290.393598 
L 210.887101 247.536 
L 187.92 203.251946 
L 166.417141 182.304 
L 151.467367 117.072 
L 123.644168 51.84 
L 120.96 51.84 
L 54 51.84 
L 54 117.072 
L 54 182.304 
L 54 247.536 
L 54 312.768 
L 54 378 
z
" style="fill:#48186a;"/>
   </g>
   <g id="PathCollection_2">
    <path clip-path="url(#pec7faa7af7)" d="M 282.693097 312.768 
L 254.88 268.019196 
L 233.854203 247.536 
L 203.147204 182.304 
L 187.92 134.682999 
L 181.974735 117.072 
L 159.932965 51.84 
L 123.644168 51.84 
L 151.467367 117.072 
L 166.417141 182.304 
L 187.92 203.251946 
L 210.887101 247.536 
L 254.88 290.393598 
L 268.786549 312.768 
L 282.863663 378 
L 310.847326 378 
z
" style="fill:#424086;"/>
   </g>
   <g id="PathCollection_3">
    <path clip-path="url(#pec7faa7af7)" d="M 321.84 378 
L 321.84 361.648047 
L 296.599646 312.768 
L 256.804814 247.536 
L 254.88 241.23333 
L 232.043295 182.304 
L 212.246793 117.072 
L 195.199439 51.84 
L 187.92 51.84 
L 159.932965 51.84 
L 181.974735 117.072 
L 187.92 134.682999 
L 203.147204 182.304 
L 233.854203 247.536 
L 254.88 268.019196 
L 282.693097 312.768 
L 310.847326 378 
z
" style="fill:#33638d;"/>
   </g>
   <g id="PathCollection_4">
    <path clip-path="url(#pec7faa7af7)" d="M 321.84 361.648047 
L 321.84 334.716858 
L 310.506194 312.768 
L 279.576824 247.536 
L 260.088799 182.304 
L 254.88 160.265679 
L 242.461895 117.072 
L 227.019438 51.84 
L 195.199439 51.84 
L 212.246793 117.072 
L 232.043295 182.304 
L 254.88 241.23333 
L 256.804814 247.536 
L 296.599646 312.768 
z
" style="fill:#26828e;"/>
   </g>
   <g id="PathCollection_5">
    <path clip-path="url(#pec7faa7af7)" d="M 321.84 334.716858 
L 321.84 312.768 
L 321.84 301.174442 
L 302.348834 247.536 
L 284.928594 182.304 
L 270.506309 117.072 
L 258.335918 51.84 
L 254.88 51.84 
L 227.019438 51.84 
L 242.461895 117.072 
L 254.88 160.265679 
L 260.088799 182.304 
L 279.576824 247.536 
L 310.506194 312.768 
z
" style="fill:#1fa088;"/>
   </g>
   <g id="PathCollection_6">
    <path clip-path="url(#pec7faa7af7)" d="M 321.84 301.174442 
L 321.84 247.536 
L 321.84 232.619449 
L 309.768389 182.304 
L 297.036095 117.072 
L 286.109396 51.84 
L 258.335918 51.84 
L 270.506309 117.072 
L 284.928594 182.304 
L 302.348834 247.536 
z
" style="fill:#3fbc73;"/>
   </g>
   <g id="PathCollection_7">
    <path clip-path="url(#pec7faa7af7)" d="M 321.84 232.619449 
L 321.84 182.304 
L 321.84 117.072 
L 321.84 105.000975 
L 313.882873 51.84 
L 286.109396 51.84 
L 297.036095 117.072 
L 309.768389 182.304 
z
" style="fill:#84d44b;"/>
   </g>
   <g id="PathCollection_8">
    <path clip-path="url(#pec7faa7af7)" d="M 321.84 105.000975 
L 321.84 51.84 
L 313.882873 51.84 
z
" style="fill:#d8e219;"/>
   </g>
   <g id="matplotlib.axis_1">
    <g id="xtick_1">
     <g id="line2d_1">
      <defs>
       <path d="M 0 0 
L 0 3.5 
" id="m308eb9ce77" style="stroke:#000000;stroke-width:0.8;"/>
      </defs>
      <g>
       <use style="stroke:#000000;stroke-width:0.8;" x="120.96" xlink:href="#m308eb9ce77" y="378"/>
      </g>
     </g>
     <g id="text_1">
      <!-- $0.10$ -->
      <defs>
       <path d="M 25.40625 68 
C 19.90625 68 15.703125 66.296875 12 62.796875 
C 6.203125 57.203125 2.40625 45.6875 2.40625 34 
C 2.40625 23.09375 5.703125 11.390625 10.40625 5.796875 
C 14.09375 1.390625 19.203125 -1 25 -1 
C 30.09375 -1 34.40625 0.6875 38 4.1875 
C 43.796875 9.6875 47.59375 21.296875 47.59375 33.390625 
C 47.59375 53.890625 38.5 68 25.40625 68 
z
M 25.09375 65.390625 
C 33.5 65.390625 38 54.09375 38 33.1875 
C 38 12.296875 33.59375 1.59375 25 1.59375 
C 16.40625 1.59375 12 12.296875 12 33.09375 
C 12 54.296875 16.5 65.390625 25.09375 65.390625 
z
" id="Nimbus_Roman_No9_L_Regular-48"/>
       <path d="M 19.203125 5.296875 
C 19.203125 8.1875 16.796875 10.59375 13.90625 10.59375 
C 11 10.59375 8.59375 8.1875 8.59375 5.296875 
C 8.59375 2.390625 11 0 13.90625 0 
C 16.796875 0 19.203125 2.390625 19.203125 5.296875 
z
" id="CMMI10-58"/>
       <path d="M 29.09375 68 
L 11.09375 59 
L 11.09375 57.59375 
C 12.296875 58.09375 13.40625 58.484375 13.796875 58.6875 
C 15.59375 59.390625 17.296875 59.78125 18.296875 59.78125 
C 20.40625 59.78125 21.296875 58.296875 21.296875 55.078125 
L 21.296875 9.359375 
C 21.296875 6.03125 20.5 3.71875 18.90625 2.796875 
C 17.40625 1.890625 16 1.59375 11.796875 1.5 
L 11.796875 0 
L 39.40625 0 
L 39.40625 1.5 
C 31.5 1.59375 29.90625 2.609375 29.90625 7.453125 
L 29.90625 67.796875 
z
" id="Nimbus_Roman_No9_L_Regular-49"/>
      </defs>
      <g transform="translate(103.256491 398.509155)scale(0.2 -0.2)">
       <use transform="scale(0.996264)" xlink:href="#Nimbus_Roman_No9_L_Regular-48"/>
       <use transform="translate(49.8132 0)scale(0.996264)" xlink:href="#CMMI10-58"/>
       <use transform="translate(77.408707 0)scale(0.996264)" xlink:href="#Nimbus_Roman_No9_L_Regular-49"/>
       <use transform="translate(127.221908 0)scale(0.996264)" xlink:href="#Nimbus_Roman_No9_L_Regular-48"/>
      </g>
     </g>
    </g>
    <g id="xtick_2">
     <g id="line2d_2">
      <g>
       <use style="stroke:#000000;stroke-width:0.8;" x="204.66" xlink:href="#m308eb9ce77" y="378"/>
      </g>
     </g>
     <g id="text_2">
      <!-- $0.15$ -->
      <defs>
       <path d="M 18.09375 58.09375 
L 37.703125 58.09375 
C 39.296875 58.09375 39.703125 58.296875 40 58.984375 
L 43.796875 67.890625 
L 42.90625 68.59375 
C 41.40625 66.5 40.40625 66 38.296875 66 
L 17.40625 66 
L 6.5 42.453125 
C 6.40625 42.265625 6.40625 42.15625 6.40625 41.96875 
C 6.40625 41.46875 6.796875 41.171875 7.59375 41.171875 
C 10.796875 41.171875 14.796875 40.484375 18.90625 39.1875 
C 30.40625 35.53125 35.703125 29.40625 35.703125 19.609375 
C 35.703125 10.109375 29.59375 2.6875 21.796875 2.6875 
C 19.796875 2.6875 18.09375 3.390625 15.09375 5.5625 
C 11.90625 7.84375 9.59375 8.828125 7.5 8.828125 
C 4.59375 8.828125 3.203125 7.640625 3.203125 5.171875 
C 3.203125 1.390625 7.90625 -1 15.40625 -1 
C 23.796875 -1 31 1.6875 36 6.75 
C 40.59375 11.203125 42.703125 16.84375 42.703125 24.359375 
C 42.703125 31.484375 40.796875 36.03125 35.796875 40.96875 
C 31.40625 45.328125 25.703125 47.609375 13.90625 49.6875 
z
" id="Nimbus_Roman_No9_L_Regular-53"/>
      </defs>
      <g transform="translate(186.956491 398.509155)scale(0.2 -0.2)">
       <use transform="scale(0.996264)" xlink:href="#Nimbus_Roman_No9_L_Regular-48"/>
       <use transform="translate(49.8132 0)scale(0.996264)" xlink:href="#CMMI10-58"/>
       <use transform="translate(77.408707 0)scale(0.996264)" xlink:href="#Nimbus_Roman_No9_L_Regular-49"/>
       <use transform="translate(127.221908 0)scale(0.996264)" xlink:href="#Nimbus_Roman_No9_L_Regular-53"/>
      </g>
     </g>
    </g>
    <g id="xtick_3">
     <g id="line2d_3">
      <g>
       <use style="stroke:#000000;stroke-width:0.8;" x="288.36" xlink:href="#m308eb9ce77" y="378"/>
      </g>
     </g>
     <g id="text_3">
      <!-- $0.20$ -->
      <defs>
       <path d="M 47.5 13.734375 
L 46.203125 14.25 
C 42.5 8.5 41.203125 7.59375 36.703125 7.59375 
L 12.796875 7.59375 
L 29.59375 25.328125 
C 38.5 34.703125 42.40625 42.359375 42.40625 50.21875 
C 42.40625 60.28125 34.296875 68 23.90625 68 
C 18.40625 68 13.203125 65.796875 9.5 61.796875 
C 6.296875 58.375 4.796875 55.15625 3.09375 48 
L 5.203125 47.484375 
C 9.203125 57.359375 12.796875 60.59375 19.703125 60.59375 
C 28.09375 60.59375 33.796875 54.84375 33.796875 46.390625 
C 33.796875 38.53125 29.203125 29.15625 20.796875 20.1875 
L 3 1.1875 
L 3 0 
L 42 0 
z
" id="Nimbus_Roman_No9_L_Regular-50"/>
      </defs>
      <g transform="translate(270.656491 398.509155)scale(0.2 -0.2)">
       <use transform="scale(0.996264)" xlink:href="#Nimbus_Roman_No9_L_Regular-48"/>
       <use transform="translate(49.8132 0)scale(0.996264)" xlink:href="#CMMI10-58"/>
       <use transform="translate(77.408707 0)scale(0.996264)" xlink:href="#Nimbus_Roman_No9_L_Regular-50"/>
       <use transform="translate(127.221908 0)scale(0.996264)" xlink:href="#Nimbus_Roman_No9_L_Regular-48"/>
      </g>
     </g>
    </g>
    <g id="text_4">
     <!-- $\bar{\phi}_P$ -->
     <defs>
      <path d="M 3.203125 41.796875 
L 10.09375 41.796875 
L 10.09375 10.5 
C 10.09375 6 9.5 3.5 8.09375 2.59375 
C 7.09375 1.890625 6.09375 1.6875 3.203125 1.5 
L 3.203125 0 
L 25.59375 0 
L 25.59375 1.5 
C 19.90625 2.09375 18.5 3.296875 18.5 7.890625 
L 18.5 41.796875 
L 37.296875 41.796875 
L 37.296875 8.390625 
C 37.296875 3.5 35.796875 1.890625 30.59375 1.5 
L 30.59375 0 
L 52.09375 0 
L 52.09375 1.5 
C 46.703125 1.890625 45.703125 2.890625 45.703125 8.09375 
L 45.703125 67.6875 
L 45.203125 67.890625 
C 44.40625 67.796875 43.296875 67.390625 42.09375 66.796875 
C 40.203125 65.890625 38.796875 65.390625 37.90625 65.390625 
C 37.40625 65.390625 36.40625 65.6875 34.90625 66.1875 
C 32.09375 67.390625 29.203125 68 26.796875 68 
C 22.09375 68 17.5 65.59375 14.703125 61.75 
C 11.703125 57.5 10.703125 53.65625 10.296875 45 
L 3.203125 45 
z
M 37.296875 45 
L 18.5 45 
L 18.5 50.109375 
C 18.5 60.359375 20.59375 65.296875 25 65.296875 
C 27.203125 65.296875 28.40625 64.5 30.203125 61.84375 
C 32.09375 58.890625 33.40625 58 35.703125 58 
C 36.40625 58 36.796875 58.1875 37.296875 58.6875 
z
" id="Nimbus_Roman_No9_L_Regular-175"/>
      <path d="M 27.90625 -0.46875 
C 40.203125 1.234375 49 12.46875 49 26.59375 
C 49 40.328125 40.59375 50.25 27.90625 51.15625 
L 27.90625 59.171875 
C 27.90625 62.890625 28 64.796875 28.203125 67.09375 
L 23.5 69 
C 23.703125 66.59375 23.796875 64.09375 23.796875 60.078125 
L 23.796875 51.15625 
C 11.796875 49.75 2.703125 38.328125 2.703125 24.5 
C 2.703125 10.5625 11.296875 0.34375 23.796875 -0.65625 
L 23.796875 -10.78125 
C 23.796875 -15.296875 23.703125 -18.109375 23.5 -20.90625 
L 28.203125 -22.015625 
C 28 -18.703125 28 -18.40625 27.90625 -14 
L 27.90625 -11.28125 
z
M 23.796875 3.546875 
C 21 4.65625 19 6.25 17.5 8.5625 
C 14.296875 13.46875 12.40625 21.09375 12.40625 29 
C 12.40625 40.328125 16.703125 47.34375 23.796875 47.65625 
z
M 27.90625 46.953125 
C 35 44.34375 39.296875 34.828125 39.296875 22.09375 
C 39.296875 10.265625 35.203125 3.453125 27.90625 3.046875 
z
" id="Standard_Symbols_L-102"/>
      <path d="M 14.59375 63.390625 
C 20.296875 62.6875 21.703125 61.796875 21.703125 59.203125 
C 21.703125 57.8125 21.296875 55.71875 20 51.234375 
L 8.203125 8.9375 
C 6.40625 2.984375 5.703125 2.390625 0 1.59375 
L 0 0 
L 24.5 0 
L 24.5 1.59375 
C 18.203125 2.484375 17.703125 2.78125 17.703125 6.15625 
C 17.703125 7.359375 17.90625 8.34375 18.90625 11.921875 
L 24.203125 31.09375 
C 26.703125 30.484375 29.296875 30.296875 33.40625 30.296875 
C 41.59375 30.296875 48.296875 31.984375 52.59375 35.09375 
C 57.59375 38.78125 60.5 44.25 60.5 50.140625 
C 60.5 59.703125 53 65 39.40625 65 
L 14.59375 65 
z
M 32.203125 59.203125 
C 32.796875 61.296875 34 61.984375 36.796875 61.984375 
C 40.703125 61.984375 44.5 61 46.5 59.59375 
C 49.09375 57.8125 50.203125 54.8125 50.203125 50.140625 
C 50.203125 43.65625 47.90625 39.078125 43.5 36.484375 
C 40.40625 34.796875 36.5 34 30.296875 34 
C 28.59375 34 27.796875 34.09375 25.09375 34.484375 
z
" id="Nimbus_Roman_No9_L_Regular_Italic-80"/>
     </defs>
     <g transform="translate(178.224972 423.85866)scale(0.2 -0.2)">
      <use transform="translate(22.415925 37.060045)scale(0.996264)" xlink:href="#Nimbus_Roman_No9_L_Regular-175"/>
      <use transform="translate(0 14.943915)scale(0.996264)" xlink:href="#Standard_Symbols_L-102"/>
      <use transform="translate(51.904966 0)scale(0.737241)" xlink:href="#Nimbus_Roman_No9_L_Regular_Italic-80"/>
     </g>
    </g>
   </g>
   <g id="matplotlib.axis_2">
    <g id="ytick_1">
     <g id="line2d_4">
      <defs>
       <path d="M 0 0 
L -3.5 0 
" id="mc9215d4727" style="stroke:#000000;stroke-width:0.8;"/>
      </defs>
      <g>
       <use style="stroke:#000000;stroke-width:0.8;" x="54" xlink:href="#mc9215d4727" y="378"/>
      </g>
     </g>
     <g id="text_5">
      <!-- $0.00$ -->
      <g transform="translate(11.592981 384.754578)scale(0.2 -0.2)">
       <use transform="scale(0.996264)" xlink:href="#Nimbus_Roman_No9_L_Regular-48"/>
       <use transform="translate(49.8132 0)scale(0.996264)" xlink:href="#CMMI10-58"/>
       <use transform="translate(77.408707 0)scale(0.996264)" xlink:href="#Nimbus_Roman_No9_L_Regular-48"/>
       <use transform="translate(127.221908 0)scale(0.996264)" xlink:href="#Nimbus_Roman_No9_L_Regular-48"/>
      </g>
     </g>
    </g>
    <g id="ytick_2">
     <g id="line2d_5">
      <g>
       <use style="stroke:#000000;stroke-width:0.8;" x="54" xlink:href="#mc9215d4727" y="312.768"/>
      </g>
     </g>
     <g id="text_6">
      <!-- $0.05$ -->
      <g transform="translate(11.592981 319.522578)scale(0.2 -0.2)">
       <use transform="scale(0.996264)" xlink:href="#Nimbus_Roman_No9_L_Regular-48"/>
       <use transform="translate(49.8132 0)scale(0.996264)" xlink:href="#CMMI10-58"/>
       <use transform="translate(77.408707 0)scale(0.996264)" xlink:href="#Nimbus_Roman_No9_L_Regular-48"/>
       <use transform="translate(127.221908 0)scale(0.996264)" xlink:href="#Nimbus_Roman_No9_L_Regular-53"/>
      </g>
     </g>
    </g>
    <g id="ytick_3">
     <g id="line2d_6">
      <g>
       <use style="stroke:#000000;stroke-width:0.8;" x="54" xlink:href="#mc9215d4727" y="247.536"/>
      </g>
     </g>
     <g id="text_7">
      <!-- $0.10$ -->
      <g transform="translate(11.592981 254.290578)scale(0.2 -0.2)">
       <use transform="scale(0.996264)" xlink:href="#Nimbus_Roman_No9_L_Regular-48"/>
       <use transform="translate(49.8132 0)scale(0.996264)" xlink:href="#CMMI10-58"/>
       <use transform="translate(77.408707 0)scale(0.996264)" xlink:href="#Nimbus_Roman_No9_L_Regular-49"/>
       <use transform="translate(127.221908 0)scale(0.996264)" xlink:href="#Nimbus_Roman_No9_L_Regular-48"/>
      </g>
     </g>
    </g>
    <g id="ytick_4">
     <g id="line2d_7">
      <g>
       <use style="stroke:#000000;stroke-width:0.8;" x="54" xlink:href="#mc9215d4727" y="182.304"/>
      </g>
     </g>
     <g id="text_8">
      <!-- $0.15$ -->
      <g transform="translate(11.592981 189.058578)scale(0.2 -0.2)">
       <use transform="scale(0.996264)" xlink:href="#Nimbus_Roman_No9_L_Regular-48"/>
       <use transform="translate(49.8132 0)scale(0.996264)" xlink:href="#CMMI10-58"/>
       <use transform="translate(77.408707 0)scale(0.996264)" xlink:href="#Nimbus_Roman_No9_L_Regular-49"/>
       <use transform="translate(127.221908 0)scale(0.996264)" xlink:href="#Nimbus_Roman_No9_L_Regular-53"/>
      </g>
     </g>
    </g>
    <g id="ytick_5">
     <g id="line2d_8">
      <g>
       <use style="stroke:#000000;stroke-width:0.8;" x="54" xlink:href="#mc9215d4727" y="117.072"/>
      </g>
     </g>
     <g id="text_9">
      <!-- $0.20$ -->
      <g transform="translate(11.592981 123.826578)scale(0.2 -0.2)">
       <use transform="scale(0.996264)" xlink:href="#Nimbus_Roman_No9_L_Regular-48"/>
       <use transform="translate(49.8132 0)scale(0.996264)" xlink:href="#CMMI10-58"/>
       <use transform="translate(77.408707 0)scale(0.996264)" xlink:href="#Nimbus_Roman_No9_L_Regular-50"/>
       <use transform="translate(127.221908 0)scale(0.996264)" xlink:href="#Nimbus_Roman_No9_L_Regular-48"/>
      </g>
     </g>
    </g>
    <g id="ytick_6">
     <g id="line2d_9">
      <g>
       <use style="stroke:#000000;stroke-width:0.8;" x="54" xlink:href="#mc9215d4727" y="51.84"/>
      </g>
     </g>
     <g id="text_10">
      <!-- $0.25$ -->
      <g transform="translate(11.592981 58.594578)scale(0.2 -0.2)">
       <use transform="scale(0.996264)" xlink:href="#Nimbus_Roman_No9_L_Regular-48"/>
       <use transform="translate(49.8132 0)scale(0.996264)" xlink:href="#CMMI10-58"/>
       <use transform="translate(77.408707 0)scale(0.996264)" xlink:href="#Nimbus_Roman_No9_L_Regular-50"/>
       <use transform="translate(127.221908 0)scale(0.996264)" xlink:href="#Nimbus_Roman_No9_L_Regular-53"/>
      </g>
     </g>
    </g>
    <g id="text_11">
     <!-- $c_P$ -->
     <defs>
      <path d="M 35 10.65625 
C 29.5 4.78125 25.59375 2.59375 20.703125 2.59375 
C 15 2.59375 11.59375 6.875 11.59375 13.9375 
C 11.59375 22.390625 15.09375 31.25 20.703125 37.109375 
C 23.59375 40.09375 27.59375 41.890625 31.5 41.890625 
C 33.796875 41.890625 35.296875 41.09375 35.296875 39.90625 
C 35.296875 39.40625 35.09375 38.90625 34.703125 38.015625 
C 34 36.71875 33.796875 36.015625 33.796875 35.125 
C 33.796875 32.734375 35.296875 31.34375 37.703125 31.34375 
C 40.40625 31.34375 42.5 33.328125 42.5 35.921875 
C 42.5 40.5 38 44 32 44 
C 17 44 3 29.453125 3 13.9375 
C 3 4.484375 8.40625 -1 17.703125 -1 
C 25.09375 -1 30.59375 2.09375 36.59375 9.65625 
z
" id="Nimbus_Roman_No9_L_Regular_Italic-99"/>
     </defs>
     <g transform="translate(3.279324 223.847885)rotate(-90)scale(0.2 -0.2)">
      <use transform="translate(0 14.943915)scale(0.996264)" xlink:href="#Nimbus_Roman_No9_L_Regular_Italic-99"/>
      <use transform="translate(44.233569 0)scale(0.737241)" xlink:href="#Nimbus_Roman_No9_L_Regular_Italic-80"/>
     </g>
    </g>
   </g>
   <g id="line2d_10">
    <path clip-path="url(#pec7faa7af7)" d="M 62.393159 -1 
L 68.096842 14.911023 
L 82.193684 52.026913 
L 96.290526 86.990166 
L 110.387368 119.856877 
L 124.484211 150.683142 
L 138.581053 179.525054 
L 152.677895 206.438709 
L 166.774737 231.4802 
L 180.871579 254.705624 
L 194.968421 276.171075 
L 209.065263 295.932647 
L 223.162105 314.046435 
L 237.258947 330.568535 
L 251.355789 345.55504 
L 265.452632 359.062046 
L 279.549474 371.145647 
L 293.646316 381.861938 
L 307.743158 391.267014 
L 321.84 399.41697 
" style="fill:none;stroke:#000000;stroke-dasharray:5.55,2.4;stroke-dashoffset:0;stroke-width:1.5;"/>
   </g>
   <g id="patch_3">
    <path d="M 54 378 
L 54 51.84 
" style="fill:none;stroke:#000000;stroke-linecap:square;stroke-linejoin:miter;stroke-width:0.8;"/>
   </g>
   <g id="patch_4">
    <path d="M 321.84 378 
L 321.84 51.84 
" style="fill:none;stroke:#000000;stroke-linecap:square;stroke-linejoin:miter;stroke-width:0.8;"/>
   </g>
   <g id="patch_5">
    <path d="M 54 378 
L 321.84 378 
" style="fill:none;stroke:#000000;stroke-linecap:square;stroke-linejoin:miter;stroke-width:0.8;"/>
   </g>
   <g id="patch_6">
    <path d="M 54 51.84 
L 321.84 51.84 
" style="fill:none;stroke:#000000;stroke-linecap:square;stroke-linejoin:miter;stroke-width:0.8;"/>
   </g>
  </g>
  <g id="axes_2">
   <g id="patch_7">
    <path clip-path="url(#p9544898630)" d="M 338.58 378 
L 338.58 337.23 
L 338.58 92.61 
L 338.58 51.84 
L 354.888 51.84 
L 354.888 92.61 
L 354.888 337.23 
L 354.888 378 
z
" style="fill:#ffffff;stroke:#ffffff;stroke-linejoin:miter;stroke-width:0.01;"/>
   </g>
   <g id="QuadMesh_1">
    <path clip-path="url(#p9544898630)" d="M 338.58 378 
L 354.888 378 
L 354.888 337.23 
L 338.58 337.23 
L 338.58 378 
" style="fill:#48186a;"/>
    <path clip-path="url(#p9544898630)" d="M 338.58 337.23 
L 354.888 337.23 
L 354.888 296.46 
L 338.58 296.46 
L 338.58 337.23 
" style="fill:#424086;"/>
    <path clip-path="url(#p9544898630)" d="M 338.58 296.46 
L 354.888 296.46 
L 354.888 255.69 
L 338.58 255.69 
L 338.58 296.46 
" style="fill:#33638d;"/>
    <path clip-path="url(#p9544898630)" d="M 338.58 255.69 
L 354.888 255.69 
L 354.888 214.92 
L 338.58 214.92 
L 338.58 255.69 
" style="fill:#26828e;"/>
    <path clip-path="url(#p9544898630)" d="M 338.58 214.92 
L 354.888 214.92 
L 354.888 174.15 
L 338.58 174.15 
L 338.58 214.92 
" style="fill:#1fa088;"/>
    <path clip-path="url(#p9544898630)" d="M 338.58 174.15 
L 354.888 174.15 
L 354.888 133.38 
L 338.58 133.38 
L 338.58 174.15 
" style="fill:#3fbc73;"/>
    <path clip-path="url(#p9544898630)" d="M 338.58 133.38 
L 354.888 133.38 
L 354.888 92.61 
L 338.58 92.61 
L 338.58 133.38 
" style="fill:#84d44b;"/>
    <path clip-path="url(#p9544898630)" d="M 338.58 92.61 
L 354.888 92.61 
L 354.888 51.84 
L 338.58 51.84 
L 338.58 92.61 
" style="fill:#d8e219;"/>
   </g>
   <g id="matplotlib.axis_3"/>
   <g id="matplotlib.axis_4">
    <g id="ytick_7">
     <g id="line2d_11">
      <defs>
       <path d="M 0 0 
L 3.5 0 
" id="m2046bf0f70" style="stroke:#000000;stroke-width:0.8;"/>
      </defs>
      <g>
       <use style="stroke:#000000;stroke-width:0.8;" x="354.888" xlink:href="#m2046bf0f70" y="378"/>
      </g>
     </g>
     <g id="text_12">
      <!-- $0.0000$ -->
      <g transform="translate(361.888 384.754578)scale(0.2 -0.2)">
       <use transform="scale(0.996264)" xlink:href="#Nimbus_Roman_No9_L_Regular-48"/>
       <use transform="translate(49.8132 0)scale(0.996264)" xlink:href="#CMMI10-58"/>
       <use transform="translate(77.408707 0)scale(0.996264)" xlink:href="#Nimbus_Roman_No9_L_Regular-48"/>
       <use transform="translate(127.221908 0)scale(0.996264)" xlink:href="#Nimbus_Roman_No9_L_Regular-48"/>
       <use transform="translate(177.035108 0)scale(0.996264)" xlink:href="#Nimbus_Roman_No9_L_Regular-48"/>
       <use transform="translate(226.848309 0)scale(0.996264)" xlink:href="#Nimbus_Roman_No9_L_Regular-48"/>
      </g>
     </g>
    </g>
    <g id="ytick_8">
     <g id="line2d_12">
      <g>
       <use style="stroke:#000000;stroke-width:0.8;" x="354.888" xlink:href="#m2046bf0f70" y="337.23"/>
      </g>
     </g>
     <g id="text_13">
      <!-- $0.0025$ -->
      <g transform="translate(361.888 343.984578)scale(0.2 -0.2)">
       <use transform="scale(0.996264)" xlink:href="#Nimbus_Roman_No9_L_Regular-48"/>
       <use transform="translate(49.8132 0)scale(0.996264)" xlink:href="#CMMI10-58"/>
       <use transform="translate(77.408707 0)scale(0.996264)" xlink:href="#Nimbus_Roman_No9_L_Regular-48"/>
       <use transform="translate(127.221908 0)scale(0.996264)" xlink:href="#Nimbus_Roman_No9_L_Regular-48"/>
       <use transform="translate(177.035108 0)scale(0.996264)" xlink:href="#Nimbus_Roman_No9_L_Regular-50"/>
       <use transform="translate(226.848309 0)scale(0.996264)" xlink:href="#Nimbus_Roman_No9_L_Regular-53"/>
      </g>
     </g>
    </g>
    <g id="ytick_9">
     <g id="line2d_13">
      <g>
       <use style="stroke:#000000;stroke-width:0.8;" x="354.888" xlink:href="#m2046bf0f70" y="296.46"/>
      </g>
     </g>
     <g id="text_14">
      <!-- $0.0050$ -->
      <g transform="translate(361.888 303.214578)scale(0.2 -0.2)">
       <use transform="scale(0.996264)" xlink:href="#Nimbus_Roman_No9_L_Regular-48"/>
       <use transform="translate(49.8132 0)scale(0.996264)" xlink:href="#CMMI10-58"/>
       <use transform="translate(77.408707 0)scale(0.996264)" xlink:href="#Nimbus_Roman_No9_L_Regular-48"/>
       <use transform="translate(127.221908 0)scale(0.996264)" xlink:href="#Nimbus_Roman_No9_L_Regular-48"/>
       <use transform="translate(177.035108 0)scale(0.996264)" xlink:href="#Nimbus_Roman_No9_L_Regular-53"/>
       <use transform="translate(226.848309 0)scale(0.996264)" xlink:href="#Nimbus_Roman_No9_L_Regular-48"/>
      </g>
     </g>
    </g>
    <g id="ytick_10">
     <g id="line2d_14">
      <g>
       <use style="stroke:#000000;stroke-width:0.8;" x="354.888" xlink:href="#m2046bf0f70" y="255.69"/>
      </g>
     </g>
     <g id="text_15">
      <!-- $0.0075$ -->
      <defs>
       <path d="M 44.90625 66 
L 7.90625 66 
L 2 51.296875 
L 3.703125 50.5 
C 8 57.296875 9.796875 58.59375 15.296875 58.59375 
L 37 58.59375 
L 17.203125 -1 
L 23.703125 -1 
L 44.90625 64.390625 
z
" id="Nimbus_Roman_No9_L_Regular-55"/>
      </defs>
      <g transform="translate(361.888 262.444578)scale(0.2 -0.2)">
       <use transform="scale(0.996264)" xlink:href="#Nimbus_Roman_No9_L_Regular-48"/>
       <use transform="translate(49.8132 0)scale(0.996264)" xlink:href="#CMMI10-58"/>
       <use transform="translate(77.408707 0)scale(0.996264)" xlink:href="#Nimbus_Roman_No9_L_Regular-48"/>
       <use transform="translate(127.221908 0)scale(0.996264)" xlink:href="#Nimbus_Roman_No9_L_Regular-48"/>
       <use transform="translate(177.035108 0)scale(0.996264)" xlink:href="#Nimbus_Roman_No9_L_Regular-55"/>
       <use transform="translate(226.848309 0)scale(0.996264)" xlink:href="#Nimbus_Roman_No9_L_Regular-53"/>
      </g>
     </g>
    </g>
    <g id="ytick_11">
     <g id="line2d_15">
      <g>
       <use style="stroke:#000000;stroke-width:0.8;" x="354.888" xlink:href="#m2046bf0f70" y="214.92"/>
      </g>
     </g>
     <g id="text_16">
      <!-- $0.0100$ -->
      <g transform="translate(361.888 221.674578)scale(0.2 -0.2)">
       <use transform="scale(0.996264)" xlink:href="#Nimbus_Roman_No9_L_Regular-48"/>
       <use transform="translate(49.8132 0)scale(0.996264)" xlink:href="#CMMI10-58"/>
       <use transform="translate(77.408707 0)scale(0.996264)" xlink:href="#Nimbus_Roman_No9_L_Regular-48"/>
       <use transform="translate(127.221908 0)scale(0.996264)" xlink:href="#Nimbus_Roman_No9_L_Regular-49"/>
       <use transform="translate(177.035108 0)scale(0.996264)" xlink:href="#Nimbus_Roman_No9_L_Regular-48"/>
       <use transform="translate(226.848309 0)scale(0.996264)" xlink:href="#Nimbus_Roman_No9_L_Regular-48"/>
      </g>
     </g>
    </g>
    <g id="ytick_12">
     <g id="line2d_16">
      <g>
       <use style="stroke:#000000;stroke-width:0.8;" x="354.888" xlink:href="#m2046bf0f70" y="174.15"/>
      </g>
     </g>
     <g id="text_17">
      <!-- $0.0125$ -->
      <g transform="translate(361.888 180.904578)scale(0.2 -0.2)">
       <use transform="scale(0.996264)" xlink:href="#Nimbus_Roman_No9_L_Regular-48"/>
       <use transform="translate(49.8132 0)scale(0.996264)" xlink:href="#CMMI10-58"/>
       <use transform="translate(77.408707 0)scale(0.996264)" xlink:href="#Nimbus_Roman_No9_L_Regular-48"/>
       <use transform="translate(127.221908 0)scale(0.996264)" xlink:href="#Nimbus_Roman_No9_L_Regular-49"/>
       <use transform="translate(177.035108 0)scale(0.996264)" xlink:href="#Nimbus_Roman_No9_L_Regular-50"/>
       <use transform="translate(226.848309 0)scale(0.996264)" xlink:href="#Nimbus_Roman_No9_L_Regular-53"/>
      </g>
     </g>
    </g>
    <g id="ytick_13">
     <g id="line2d_17">
      <g>
       <use style="stroke:#000000;stroke-width:0.8;" x="354.888" xlink:href="#m2046bf0f70" y="133.38"/>
      </g>
     </g>
     <g id="text_18">
      <!-- $0.0150$ -->
      <g transform="translate(361.888 140.134578)scale(0.2 -0.2)">
       <use transform="scale(0.996264)" xlink:href="#Nimbus_Roman_No9_L_Regular-48"/>
       <use transform="translate(49.8132 0)scale(0.996264)" xlink:href="#CMMI10-58"/>
       <use transform="translate(77.408707 0)scale(0.996264)" xlink:href="#Nimbus_Roman_No9_L_Regular-48"/>
       <use transform="translate(127.221908 0)scale(0.996264)" xlink:href="#Nimbus_Roman_No9_L_Regular-49"/>
       <use transform="translate(177.035108 0)scale(0.996264)" xlink:href="#Nimbus_Roman_No9_L_Regular-53"/>
       <use transform="translate(226.848309 0)scale(0.996264)" xlink:href="#Nimbus_Roman_No9_L_Regular-48"/>
      </g>
     </g>
    </g>
    <g id="ytick_14">
     <g id="line2d_18">
      <g>
       <use style="stroke:#000000;stroke-width:0.8;" x="354.888" xlink:href="#m2046bf0f70" y="92.61"/>
      </g>
     </g>
     <g id="text_19">
      <!-- $0.0175$ -->
      <g transform="translate(361.888 99.364578)scale(0.2 -0.2)">
       <use transform="scale(0.996264)" xlink:href="#Nimbus_Roman_No9_L_Regular-48"/>
       <use transform="translate(49.8132 0)scale(0.996264)" xlink:href="#CMMI10-58"/>
       <use transform="translate(77.408707 0)scale(0.996264)" xlink:href="#Nimbus_Roman_No9_L_Regular-48"/>
       <use transform="translate(127.221908 0)scale(0.996264)" xlink:href="#Nimbus_Roman_No9_L_Regular-49"/>
       <use transform="translate(177.035108 0)scale(0.996264)" xlink:href="#Nimbus_Roman_No9_L_Regular-55"/>
       <use transform="translate(226.848309 0)scale(0.996264)" xlink:href="#Nimbus_Roman_No9_L_Regular-53"/>
      </g>
     </g>
    </g>
    <g id="ytick_15">
     <g id="line2d_19">
      <g>
       <use style="stroke:#000000;stroke-width:0.8;" x="354.888" xlink:href="#m2046bf0f70" y="51.84"/>
      </g>
     </g>
     <g id="text_20">
      <!-- $0.0200$ -->
      <g transform="translate(361.888 58.594578)scale(0.2 -0.2)">
       <use transform="scale(0.996264)" xlink:href="#Nimbus_Roman_No9_L_Regular-48"/>
       <use transform="translate(49.8132 0)scale(0.996264)" xlink:href="#CMMI10-58"/>
       <use transform="translate(77.408707 0)scale(0.996264)" xlink:href="#Nimbus_Roman_No9_L_Regular-48"/>
       <use transform="translate(127.221908 0)scale(0.996264)" xlink:href="#Nimbus_Roman_No9_L_Regular-50"/>
       <use transform="translate(177.035108 0)scale(0.996264)" xlink:href="#Nimbus_Roman_No9_L_Regular-48"/>
       <use transform="translate(226.848309 0)scale(0.996264)" xlink:href="#Nimbus_Roman_No9_L_Regular-48"/>
      </g>
     </g>
    </g>
   </g>
   <g id="patch_8">
    <path d="M 338.58 378 
L 338.58 337.23 
L 338.58 92.61 
L 338.58 51.84 
L 354.888 51.84 
L 354.888 92.61 
L 354.888 337.23 
L 354.888 378 
z
" style="fill:none;stroke:#000000;stroke-linejoin:miter;stroke-width:0.8;"/>
   </g>
  </g>
 </g>
 <defs>
  <clipPath id="pec7faa7af7">
   <rect height="326.16" width="267.84" x="54" y="51.84"/>
  </clipPath>
  <clipPath id="p9544898630">
   <rect height="326.16" width="16.308" x="338.58" y="51.84"/>
  </clipPath>
 </defs>
</svg>
