<?xml version="1.0" encoding="utf-8" standalone="no"?>
<!DOCTYPE svg PUBLIC "-//W3C//DTD SVG 1.1//EN"
  "http://www.w3.org/Graphics/SVG/1.1/DTD/svg11.dtd">
<!-- Created with matplotlib (http://matplotlib.org/) -->
<svg height="432pt" version="1.1" viewBox="0 0 432 432" width="432pt" xmlns="http://www.w3.org/2000/svg" xmlns:xlink="http://www.w3.org/1999/xlink">
 <defs>
  <style type="text/css">
*{stroke-linecap:butt;stroke-linejoin:round;}
  </style>
 </defs>
 <g id="figure_1">
  <g id="patch_1">
   <path d="M 0 432 
L 432 432 
L 432 0 
L 0 0 
z
" style="fill:#ffffff;"/>
  </g>
  <g id="axes_1">
   <g id="patch_2">
    <path d="M 54 378 
L 321.84 378 
L 321.84 51.84 
L 54 51.84 
z
" style="fill:#ffffff;"/>
   </g>
   <g id="PathCollection_1">
    <path clip-path="url(#p9ea22b7621)" d="M 73.131429 378 
L 92.262857 378 
L 130.525714 378 
L 168.788571 378 
L 207.051429 378 
L 245.314286 378 
L 283.577143 378 
L 321.84 378 
L 321.84 377.831929 
L 283.577143 367.621135 
L 260.736933 352.250526 
L 245.314286 335.450563 
L 221.614756 309.334737 
L 207.051429 288.397795 
L 187.893393 266.418947 
L 168.788571 233.083021 
L 160.247358 223.503158 
L 130.525714 94.698289 
L 120.972817 51.84 
L 92.262857 51.84 
L 73.131429 51.84 
L 54 51.84 
L 54 223.503158 
L 54 266.418947 
L 54 309.334737 
L 54 352.250526 
L 54 378 
z
" style="fill:#48186a;"/>
   </g>
   <g id="PathCollection_2">
    <path clip-path="url(#p9ea22b7621)" d="M 283.577143 367.621135 
L 321.84 377.831929 
L 321.84 370.843033 
L 283.577143 357.24227 
L 276.159579 352.250526 
L 245.314286 318.6506 
L 236.860348 309.334737 
L 207.051429 266.479997 
L 206.998214 266.418947 
L 188.348335 223.503158 
L 168.788571 145.124942 
L 147.373389 51.84 
L 130.525714 51.84 
L 120.972817 51.84 
L 130.525714 94.698289 
L 160.247358 223.503158 
L 168.788571 233.083021 
L 187.893393 266.418947 
L 207.051429 288.397795 
L 221.614756 309.334737 
L 245.314286 335.450563 
L 260.736933 352.250526 
z
" style="fill:#424086;"/>
   </g>
   <g id="PathCollection_3">
    <path clip-path="url(#p9ea22b7621)" d="M 283.577143 357.24227 
L 321.84 370.843033 
L 321.84 363.854136 
L 292.690103 352.250526 
L 283.577143 338.921055 
L 255.983906 309.334737 
L 245.314286 288.37624 
L 233.11575 266.418947 
L 216.156107 223.503158 
L 207.051429 182.086862 
L 173.824236 51.84 
L 168.788571 51.84 
L 147.373389 51.84 
L 168.788571 145.124942 
L 188.348335 223.503158 
L 206.998214 266.418947 
L 207.051429 266.479997 
L 236.860348 309.334737 
L 245.314286 318.6506 
L 276.159579 352.250526 
z
" style="fill:#33638d;"/>
   </g>
   <g id="PathCollection_4">
    <path clip-path="url(#p9ea22b7621)" d="M 321.84 363.854136 
L 321.84 356.86524 
L 310.247192 352.250526 
L 283.577143 313.240407 
L 279.934578 309.334737 
L 259.550962 266.418947 
L 245.314286 225.075653 
L 244.734611 223.503158 
L 207.051429 52.086034 
L 206.988663 51.84 
L 173.824236 51.84 
L 207.051429 182.086862 
L 216.156107 223.503158 
L 233.11575 266.418947 
L 245.314286 288.37624 
L 255.983906 309.334737 
L 283.577143 338.921055 
L 292.690103 352.250526 
z
" style="fill:#26828e;"/>
   </g>
   <g id="PathCollection_5">
    <path clip-path="url(#p9ea22b7621)" d="M 321.84 356.86524 
L 321.84 352.250526 
L 321.84 339.707594 
L 302.9984 309.334737 
L 286.13439 266.418947 
L 283.577143 257.13337 
L 273.249161 223.503158 
L 245.314286 75.928154 
L 240.030426 51.84 
L 207.051429 51.84 
L 206.988663 51.84 
L 207.051429 52.086034 
L 244.734611 223.503158 
L 245.314286 225.075653 
L 259.550962 266.418947 
L 279.934578 309.334737 
L 283.577143 313.240407 
L 310.247192 352.250526 
z
" style="fill:#1fa088;"/>
   </g>
   <g id="PathCollection_6">
    <path clip-path="url(#p9ea22b7621)" d="M 321.84 339.707594 
L 321.84 309.334737 
L 321.84 296.0671 
L 311.704014 266.418947 
L 300.832235 223.503158 
L 283.577143 112.368706 
L 272.384106 51.84 
L 245.314286 51.84 
L 240.030426 51.84 
L 245.314286 75.928154 
L 273.249161 223.503158 
L 283.577143 257.13337 
L 286.13439 266.418947 
L 302.9984 309.334737 
z
" style="fill:#3fbc73;"/>
   </g>
   <g id="PathCollection_7">
    <path clip-path="url(#p9ea22b7621)" d="M 321.84 296.0671 
L 321.84 266.418947 
L 321.84 223.503158 
L 321.84 175.689603 
L 303.85317 51.84 
L 283.577143 51.84 
L 272.384106 51.84 
L 283.577143 112.368706 
L 300.832235 223.503158 
L 311.704014 266.418947 
z
" style="fill:#84d44b;"/>
   </g>
   <g id="PathCollection_8">
    <path clip-path="url(#p9ea22b7621)" d="M 321.84 175.689603 
L 321.84 51.84 
L 303.85317 51.84 
z
" style="fill:#d8e219;"/>
   </g>
   <g id="matplotlib.axis_1">
    <g id="xtick_1">
     <g id="line2d_1">
      <defs>
       <path d="M 0 0 
L 0 3.5 
" id="mccc88cf861" style="stroke:#000000;stroke-width:0.8;"/>
      </defs>
      <g>
       <use style="stroke:#000000;stroke-width:0.8;" x="111.394286" xlink:href="#mccc88cf861" y="378"/>
      </g>
     </g>
     <g id="text_1">
      <!-- $0.05$ -->
      <defs>
       <path d="M 25.40625 68 
C 19.90625 68 15.703125 66.296875 12 62.796875 
C 6.203125 57.203125 2.40625 45.6875 2.40625 34 
C 2.40625 23.09375 5.703125 11.390625 10.40625 5.796875 
C 14.09375 1.390625 19.203125 -1 25 -1 
C 30.09375 -1 34.40625 0.6875 38 4.1875 
C 43.796875 9.6875 47.59375 21.296875 47.59375 33.390625 
C 47.59375 53.890625 38.5 68 25.40625 68 
z
M 25.09375 65.390625 
C 33.5 65.390625 38 54.09375 38 33.1875 
C 38 12.296875 33.59375 1.59375 25 1.59375 
C 16.40625 1.59375 12 12.296875 12 33.09375 
C 12 54.296875 16.5 65.390625 25.09375 65.390625 
z
" id="Nimbus_Roman_No9_L_Regular-48"/>
       <path d="M 19.203125 5.296875 
C 19.203125 8.1875 16.796875 10.59375 13.90625 10.59375 
C 11 10.59375 8.59375 8.1875 8.59375 5.296875 
C 8.59375 2.390625 11 0 13.90625 0 
C 16.796875 0 19.203125 2.390625 19.203125 5.296875 
z
" id="CMMI10-58"/>
       <path d="M 18.09375 58.09375 
L 37.703125 58.09375 
C 39.296875 58.09375 39.703125 58.296875 40 58.984375 
L 43.796875 67.890625 
L 42.90625 68.59375 
C 41.40625 66.5 40.40625 66 38.296875 66 
L 17.40625 66 
L 6.5 42.453125 
C 6.40625 42.265625 6.40625 42.15625 6.40625 41.96875 
C 6.40625 41.46875 6.796875 41.171875 7.59375 41.171875 
C 10.796875 41.171875 14.796875 40.484375 18.90625 39.1875 
C 30.40625 35.53125 35.703125 29.40625 35.703125 19.609375 
C 35.703125 10.109375 29.59375 2.6875 21.796875 2.6875 
C 19.796875 2.6875 18.09375 3.390625 15.09375 5.5625 
C 11.90625 7.84375 9.59375 8.828125 7.5 8.828125 
C 4.59375 8.828125 3.203125 7.640625 3.203125 5.171875 
C 3.203125 1.390625 7.90625 -1 15.40625 -1 
C 23.796875 -1 31 1.6875 36 6.75 
C 40.59375 11.203125 42.703125 16.84375 42.703125 24.359375 
C 42.703125 31.484375 40.796875 36.03125 35.796875 40.96875 
C 31.40625 45.328125 25.703125 47.609375 13.90625 49.6875 
z
" id="Nimbus_Roman_No9_L_Regular-53"/>
      </defs>
      <g transform="translate(93.690776 398.509155)scale(0.2 -0.2)">
       <use transform="scale(0.996264)" xlink:href="#Nimbus_Roman_No9_L_Regular-48"/>
       <use transform="translate(49.8132 0)scale(0.996264)" xlink:href="#CMMI10-58"/>
       <use transform="translate(77.408707 0)scale(0.996264)" xlink:href="#Nimbus_Roman_No9_L_Regular-48"/>
       <use transform="translate(127.221908 0)scale(0.996264)" xlink:href="#Nimbus_Roman_No9_L_Regular-53"/>
      </g>
     </g>
    </g>
    <g id="xtick_2">
     <g id="line2d_2">
      <g>
       <use style="stroke:#000000;stroke-width:0.8;" x="207.051429" xlink:href="#mccc88cf861" y="378"/>
      </g>
     </g>
     <g id="text_2">
      <!-- $0.10$ -->
      <defs>
       <path d="M 29.09375 68 
L 11.09375 59 
L 11.09375 57.59375 
C 12.296875 58.09375 13.40625 58.484375 13.796875 58.6875 
C 15.59375 59.390625 17.296875 59.78125 18.296875 59.78125 
C 20.40625 59.78125 21.296875 58.296875 21.296875 55.078125 
L 21.296875 9.359375 
C 21.296875 6.03125 20.5 3.71875 18.90625 2.796875 
C 17.40625 1.890625 16 1.59375 11.796875 1.5 
L 11.796875 0 
L 39.40625 0 
L 39.40625 1.5 
C 31.5 1.59375 29.90625 2.609375 29.90625 7.453125 
L 29.90625 67.796875 
z
" id="Nimbus_Roman_No9_L_Regular-49"/>
      </defs>
      <g transform="translate(189.347919 398.509155)scale(0.2 -0.2)">
       <use transform="scale(0.996264)" xlink:href="#Nimbus_Roman_No9_L_Regular-48"/>
       <use transform="translate(49.8132 0)scale(0.996264)" xlink:href="#CMMI10-58"/>
       <use transform="translate(77.408707 0)scale(0.996264)" xlink:href="#Nimbus_Roman_No9_L_Regular-49"/>
       <use transform="translate(127.221908 0)scale(0.996264)" xlink:href="#Nimbus_Roman_No9_L_Regular-48"/>
      </g>
     </g>
    </g>
    <g id="xtick_3">
     <g id="line2d_3">
      <g>
       <use style="stroke:#000000;stroke-width:0.8;" x="302.708571" xlink:href="#mccc88cf861" y="378"/>
      </g>
     </g>
     <g id="text_3">
      <!-- $0.15$ -->
      <g transform="translate(285.005062 398.509155)scale(0.2 -0.2)">
       <use transform="scale(0.996264)" xlink:href="#Nimbus_Roman_No9_L_Regular-48"/>
       <use transform="translate(49.8132 0)scale(0.996264)" xlink:href="#CMMI10-58"/>
       <use transform="translate(77.408707 0)scale(0.996264)" xlink:href="#Nimbus_Roman_No9_L_Regular-49"/>
       <use transform="translate(127.221908 0)scale(0.996264)" xlink:href="#Nimbus_Roman_No9_L_Regular-53"/>
      </g>
     </g>
    </g>
    <g id="text_4">
     <!-- $\phi^{avg}_P$ -->
     <defs>
      <path d="M 27.90625 -0.46875 
C 40.203125 1.234375 49 12.46875 49 26.59375 
C 49 40.328125 40.59375 50.25 27.90625 51.15625 
L 27.90625 59.171875 
C 27.90625 62.890625 28 64.796875 28.203125 67.09375 
L 23.5 69 
C 23.703125 66.59375 23.796875 64.09375 23.796875 60.078125 
L 23.796875 51.15625 
C 11.796875 49.75 2.703125 38.328125 2.703125 24.5 
C 2.703125 10.5625 11.296875 0.34375 23.796875 -0.65625 
L 23.796875 -10.78125 
C 23.796875 -15.296875 23.703125 -18.109375 23.5 -20.90625 
L 28.203125 -22.015625 
C 28 -18.703125 28 -18.40625 27.90625 -14 
L 27.90625 -11.28125 
z
M 23.796875 3.546875 
C 21 4.65625 19 6.25 17.5 8.5625 
C 14.296875 13.46875 12.40625 21.09375 12.40625 29 
C 12.40625 40.328125 16.703125 47.34375 23.796875 47.65625 
z
M 27.90625 46.953125 
C 35 44.34375 39.296875 34.828125 39.296875 22.09375 
C 39.296875 10.265625 35.203125 3.453125 27.90625 3.046875 
z
" id="Standard_Symbols_L-102"/>
      <path d="M 46.40625 11.046875 
C 44.90625 9.5625 44.296875 9.0625 43.59375 8.265625 
C 40.59375 5.1875 39.296875 4.1875 38.40625 4.1875 
C 37.59375 4.1875 37 4.78125 37 5.484375 
C 37 7.46875 41.203125 24.484375 45.90625 41.59375 
C 46.203125 42.59375 46.296875 42.796875 46.5 43.6875 
L 45.796875 44 
L 39.703125 43.296875 
L 39.40625 42.984375 
L 38.296875 38.203125 
C 37.5 41.890625 34.59375 44 30.296875 44 
C 17.09375 44 1.703125 25.78125 1.703125 10.0625 
C 1.703125 3.09375 5.5 -1 11.90625 -1 
C 18.90625 -1 23.203125 2.296875 32 14.640625 
C 30 6.875 29.703125 5.578125 29.703125 3.1875 
C 29.703125 0.1875 30.90625 -1 33.703125 -1 
C 37.703125 -1 40.203125 0.890625 47.59375 10 
z
M 30.90625 42 
C 34.296875 41.796875 36.5 39.390625 36.5 35.890625 
C 36.5 27.5 31.5 15.6875 24.59375 8.296875 
C 22.203125 5.59375 18.796875 3.890625 15.90625 3.890625 
C 12.40625 3.890625 10.09375 6.796875 10.09375 11.390625 
C 10.09375 16.796875 13.90625 27.09375 18.203125 33.296875 
C 22.203125 39.09375 26.90625 42.296875 30.90625 42 
z
" id="Nimbus_Roman_No9_L_Regular_Italic-97"/>
      <path d="M 2.09375 40.1875 
C 3.203125 40.28125 4 40.28125 5.09375 40.28125 
C 9 40.28125 10 38.578125 11.40625 29.359375 
C 12.40625 22.4375 13.59375 7.3125 13.59375 1.5 
C 13.59375 -1.3125 13.796875 -2 14.5 -2 
C 17 -2 26.296875 8.609375 36.5 22.84375 
C 40 27.859375 42.59375 34.375 42.59375 38.078125 
C 42.59375 41.296875 40 44 37 44 
C 34.796875 44 33.296875 42.6875 33.296875 40.59375 
C 33.296875 38.984375 33.90625 37.78125 35.703125 36.171875 
C 37 34.96875 37.5 34.171875 37.5 33.171875 
C 37.5 28.5625 30.90625 17.4375 23.796875 10.015625 
L 20.703125 6.8125 
C 20 20.9375 19.40625 26.15625 18.09375 33.578125 
C 16.09375 43.796875 16.09375 44 15.203125 44 
C 14.703125 44 14 43.890625 13.203125 43.59375 
C 11.40625 43.09375 5.90625 42.09375 2.09375 41.484375 
z
" id="Nimbus_Roman_No9_L_Regular_Italic-118"/>
      <path d="M 47.203125 40 
L 41.09375 40 
C 40.796875 40 40.296875 40.25 39.5 41.015625 
C 36.796875 42.984375 33.5 44 29.703125 44 
C 18.59375 44 9.59375 35.890625 9.59375 26.6875 
C 9.59375 21.59375 11.796875 18.65625 17.5 16.09375 
C 11.59375 12.0625 9.796875 10.046875 9.796875 7.625 
C 9.796875 6.3125 10.59375 5.109375 12.5 3.6875 
C 2.59375 -2.859375 0.796875 -4.890625 0.796875 -9.53125 
C 0.796875 -16.484375 7.40625 -21 17.5 -21 
C 30.09375 -21 38.5 -15.078125 38.5 -6.296875 
C 38.5 0.0625 33.703125 4.5 24.203125 7.015625 
C 19.796875 8.125 17.203125 9.75 17.203125 11.265625 
C 17.203125 12.765625 19.5 15.390625 20.796875 15.390625 
C 21 15.390625 21.203125 15.390625 21.5 15.296875 
C 22.296875 15.09375 23.703125 15 24.59375 15 
C 33.703125 15 43.09375 22.96875 43.09375 30.609375 
C 43.09375 32.171875 42.796875 34.125 42.203125 36.09375 
L 47.203125 36.09375 
z
M 14.796875 2.578125 
C 14.90625 2.578125 15.09375 2.484375 15.296875 2.375 
C 15.59375 2.28125 16.59375 1.96875 18.203125 1.46875 
C 28.796875 -1.859375 32.5 -4.6875 32.5 -9.328125 
C 32.5 -14.765625 26.703125 -18.8125 19 -18.8125 
C 11 -18.8125 6.296875 -14.96875 6.296875 -8.515625 
C 6.296875 -6.09375 6.90625 -4.375 8.5 -2.46875 
C 9.796875 -0.75 14 2.578125 14.796875 2.578125 
z
M 29.59375 41.796875 
C 33.296875 41.796875 35.203125 38.984375 35.203125 34.328125 
C 35.203125 30.90625 34 26.59375 32.09375 23.265625 
C 29.90625 19.25 26.796875 17.09375 23.40625 17.09375 
C 19.59375 17.09375 17.40625 19.828125 17.40625 24.4375 
C 17.40625 33.453125 23.09375 41.796875 29.59375 41.796875 
z
" id="Nimbus_Roman_No9_L_Regular_Italic-103"/>
      <path d="M 14.59375 63.390625 
C 20.296875 62.6875 21.703125 61.796875 21.703125 59.203125 
C 21.703125 57.8125 21.296875 55.71875 20 51.234375 
L 8.203125 8.9375 
C 6.40625 2.984375 5.703125 2.390625 0 1.59375 
L 0 0 
L 24.5 0 
L 24.5 1.59375 
C 18.203125 2.484375 17.703125 2.78125 17.703125 6.15625 
C 17.703125 7.359375 17.90625 8.34375 18.90625 11.921875 
L 24.203125 31.09375 
C 26.703125 30.484375 29.296875 30.296875 33.40625 30.296875 
C 41.59375 30.296875 48.296875 31.984375 52.59375 35.09375 
C 57.59375 38.78125 60.5 44.25 60.5 50.140625 
C 60.5 59.703125 53 65 39.40625 65 
L 14.59375 65 
z
M 32.203125 59.203125 
C 32.796875 61.296875 34 61.984375 36.796875 61.984375 
C 40.703125 61.984375 44.5 61 46.5 59.59375 
C 49.09375 57.8125 50.203125 54.8125 50.203125 50.140625 
C 50.203125 43.65625 47.90625 39.078125 43.5 36.484375 
C 40.40625 34.796875 36.5 34 30.296875 34 
C 28.59375 34 27.796875 34.09375 25.09375 34.484375 
z
" id="Nimbus_Roman_No9_L_Regular_Italic-80"/>
     </defs>
     <g transform="translate(170.967968 424.827485)scale(0.2 -0.2)">
      <use transform="translate(0 29.511935)scale(0.996264)" xlink:href="#Standard_Symbols_L-102"/>
      <use transform="translate(63.063165 78.821941)scale(0.737241)" xlink:href="#Nimbus_Roman_No9_L_Regular_Italic-97"/>
      <use transform="translate(99.925207 78.821941)scale(0.737241)" xlink:href="#Nimbus_Roman_No9_L_Regular_Italic-118"/>
      <use transform="translate(132.658293 78.821941)scale(0.737241)" xlink:href="#Nimbus_Roman_No9_L_Regular_Italic-103"/>
      <use transform="translate(51.904966 0)scale(0.737241)" xlink:href="#Nimbus_Roman_No9_L_Regular_Italic-80"/>
     </g>
    </g>
   </g>
   <g id="matplotlib.axis_2">
    <g id="ytick_1">
     <g id="line2d_4">
      <defs>
       <path d="M 0 0 
L -3.5 0 
" id="mf94331fe54" style="stroke:#000000;stroke-width:0.8;"/>
      </defs>
      <g>
       <use style="stroke:#000000;stroke-width:0.8;" x="54" xlink:href="#mf94331fe54" y="352.250526"/>
      </g>
     </g>
     <g id="text_5">
      <!-- $0.025$ -->
      <defs>
       <path d="M 47.5 13.734375 
L 46.203125 14.25 
C 42.5 8.5 41.203125 7.59375 36.703125 7.59375 
L 12.796875 7.59375 
L 29.59375 25.328125 
C 38.5 34.703125 42.40625 42.359375 42.40625 50.21875 
C 42.40625 60.28125 34.296875 68 23.90625 68 
C 18.40625 68 13.203125 65.796875 9.5 61.796875 
C 6.296875 58.375 4.796875 55.15625 3.09375 48 
L 5.203125 47.484375 
C 9.203125 57.359375 12.796875 60.59375 19.703125 60.59375 
C 28.09375 60.59375 33.796875 54.84375 33.796875 46.390625 
C 33.796875 38.53125 29.203125 29.15625 20.796875 20.1875 
L 3 1.1875 
L 3 0 
L 42 0 
z
" id="Nimbus_Roman_No9_L_Regular-50"/>
      </defs>
      <g transform="translate(1.630341 359.005104)scale(0.2 -0.2)">
       <use transform="scale(0.996264)" xlink:href="#Nimbus_Roman_No9_L_Regular-48"/>
       <use transform="translate(49.8132 0)scale(0.996264)" xlink:href="#CMMI10-58"/>
       <use transform="translate(77.408707 0)scale(0.996264)" xlink:href="#Nimbus_Roman_No9_L_Regular-48"/>
       <use transform="translate(127.221908 0)scale(0.996264)" xlink:href="#Nimbus_Roman_No9_L_Regular-50"/>
       <use transform="translate(177.035108 0)scale(0.996264)" xlink:href="#Nimbus_Roman_No9_L_Regular-53"/>
      </g>
     </g>
    </g>
    <g id="ytick_2">
     <g id="line2d_5">
      <g>
       <use style="stroke:#000000;stroke-width:0.8;" x="54" xlink:href="#mf94331fe54" y="309.334737"/>
      </g>
     </g>
     <g id="text_6">
      <!-- $0.050$ -->
      <g transform="translate(1.630341 316.089314)scale(0.2 -0.2)">
       <use transform="scale(0.996264)" xlink:href="#Nimbus_Roman_No9_L_Regular-48"/>
       <use transform="translate(49.8132 0)scale(0.996264)" xlink:href="#CMMI10-58"/>
       <use transform="translate(77.408707 0)scale(0.996264)" xlink:href="#Nimbus_Roman_No9_L_Regular-48"/>
       <use transform="translate(127.221908 0)scale(0.996264)" xlink:href="#Nimbus_Roman_No9_L_Regular-53"/>
       <use transform="translate(177.035108 0)scale(0.996264)" xlink:href="#Nimbus_Roman_No9_L_Regular-48"/>
      </g>
     </g>
    </g>
    <g id="ytick_3">
     <g id="line2d_6">
      <g>
       <use style="stroke:#000000;stroke-width:0.8;" x="54" xlink:href="#mf94331fe54" y="266.418947"/>
      </g>
     </g>
     <g id="text_7">
      <!-- $0.075$ -->
      <defs>
       <path d="M 44.90625 66 
L 7.90625 66 
L 2 51.296875 
L 3.703125 50.5 
C 8 57.296875 9.796875 58.59375 15.296875 58.59375 
L 37 58.59375 
L 17.203125 -1 
L 23.703125 -1 
L 44.90625 64.390625 
z
" id="Nimbus_Roman_No9_L_Regular-55"/>
      </defs>
      <g transform="translate(1.630341 273.173525)scale(0.2 -0.2)">
       <use transform="scale(0.996264)" xlink:href="#Nimbus_Roman_No9_L_Regular-48"/>
       <use transform="translate(49.8132 0)scale(0.996264)" xlink:href="#CMMI10-58"/>
       <use transform="translate(77.408707 0)scale(0.996264)" xlink:href="#Nimbus_Roman_No9_L_Regular-48"/>
       <use transform="translate(127.221908 0)scale(0.996264)" xlink:href="#Nimbus_Roman_No9_L_Regular-55"/>
       <use transform="translate(177.035108 0)scale(0.996264)" xlink:href="#Nimbus_Roman_No9_L_Regular-53"/>
      </g>
     </g>
    </g>
    <g id="ytick_4">
     <g id="line2d_7">
      <g>
       <use style="stroke:#000000;stroke-width:0.8;" x="54" xlink:href="#mf94331fe54" y="223.503158"/>
      </g>
     </g>
     <g id="text_8">
      <!-- $0.100$ -->
      <g transform="translate(1.630341 230.257735)scale(0.2 -0.2)">
       <use transform="scale(0.996264)" xlink:href="#Nimbus_Roman_No9_L_Regular-48"/>
       <use transform="translate(49.8132 0)scale(0.996264)" xlink:href="#CMMI10-58"/>
       <use transform="translate(77.408707 0)scale(0.996264)" xlink:href="#Nimbus_Roman_No9_L_Regular-49"/>
       <use transform="translate(127.221908 0)scale(0.996264)" xlink:href="#Nimbus_Roman_No9_L_Regular-48"/>
       <use transform="translate(177.035108 0)scale(0.996264)" xlink:href="#Nimbus_Roman_No9_L_Regular-48"/>
      </g>
     </g>
    </g>
    <g id="ytick_5">
     <g id="line2d_8">
      <g>
       <use style="stroke:#000000;stroke-width:0.8;" x="54" xlink:href="#mf94331fe54" y="180.587368"/>
      </g>
     </g>
     <g id="text_9">
      <!-- $0.125$ -->
      <g transform="translate(1.630341 187.341946)scale(0.2 -0.2)">
       <use transform="scale(0.996264)" xlink:href="#Nimbus_Roman_No9_L_Regular-48"/>
       <use transform="translate(49.8132 0)scale(0.996264)" xlink:href="#CMMI10-58"/>
       <use transform="translate(77.408707 0)scale(0.996264)" xlink:href="#Nimbus_Roman_No9_L_Regular-49"/>
       <use transform="translate(127.221908 0)scale(0.996264)" xlink:href="#Nimbus_Roman_No9_L_Regular-50"/>
       <use transform="translate(177.035108 0)scale(0.996264)" xlink:href="#Nimbus_Roman_No9_L_Regular-53"/>
      </g>
     </g>
    </g>
    <g id="ytick_6">
     <g id="line2d_9">
      <g>
       <use style="stroke:#000000;stroke-width:0.8;" x="54" xlink:href="#mf94331fe54" y="137.671579"/>
      </g>
     </g>
     <g id="text_10">
      <!-- $0.150$ -->
      <g transform="translate(1.630341 144.426157)scale(0.2 -0.2)">
       <use transform="scale(0.996264)" xlink:href="#Nimbus_Roman_No9_L_Regular-48"/>
       <use transform="translate(49.8132 0)scale(0.996264)" xlink:href="#CMMI10-58"/>
       <use transform="translate(77.408707 0)scale(0.996264)" xlink:href="#Nimbus_Roman_No9_L_Regular-49"/>
       <use transform="translate(127.221908 0)scale(0.996264)" xlink:href="#Nimbus_Roman_No9_L_Regular-53"/>
       <use transform="translate(177.035108 0)scale(0.996264)" xlink:href="#Nimbus_Roman_No9_L_Regular-48"/>
      </g>
     </g>
    </g>
    <g id="ytick_7">
     <g id="line2d_10">
      <g>
       <use style="stroke:#000000;stroke-width:0.8;" x="54" xlink:href="#mf94331fe54" y="94.755789"/>
      </g>
     </g>
     <g id="text_11">
      <!-- $0.175$ -->
      <g transform="translate(1.630341 101.510367)scale(0.2 -0.2)">
       <use transform="scale(0.996264)" xlink:href="#Nimbus_Roman_No9_L_Regular-48"/>
       <use transform="translate(49.8132 0)scale(0.996264)" xlink:href="#CMMI10-58"/>
       <use transform="translate(77.408707 0)scale(0.996264)" xlink:href="#Nimbus_Roman_No9_L_Regular-49"/>
       <use transform="translate(127.221908 0)scale(0.996264)" xlink:href="#Nimbus_Roman_No9_L_Regular-55"/>
       <use transform="translate(177.035108 0)scale(0.996264)" xlink:href="#Nimbus_Roman_No9_L_Regular-53"/>
      </g>
     </g>
    </g>
    <g id="ytick_8">
     <g id="line2d_11">
      <g>
       <use style="stroke:#000000;stroke-width:0.8;" x="54" xlink:href="#mf94331fe54" y="51.84"/>
      </g>
     </g>
     <g id="text_12">
      <!-- $0.200$ -->
      <g transform="translate(1.630341 58.594578)scale(0.2 -0.2)">
       <use transform="scale(0.996264)" xlink:href="#Nimbus_Roman_No9_L_Regular-48"/>
       <use transform="translate(49.8132 0)scale(0.996264)" xlink:href="#CMMI10-58"/>
       <use transform="translate(77.408707 0)scale(0.996264)" xlink:href="#Nimbus_Roman_No9_L_Regular-50"/>
       <use transform="translate(127.221908 0)scale(0.996264)" xlink:href="#Nimbus_Roman_No9_L_Regular-48"/>
       <use transform="translate(177.035108 0)scale(0.996264)" xlink:href="#Nimbus_Roman_No9_L_Regular-48"/>
      </g>
     </g>
    </g>
    <g id="text_13">
     <!-- $c_P$ -->
     <defs>
      <path d="M 35 10.65625 
C 29.5 4.78125 25.59375 2.59375 20.703125 2.59375 
C 15 2.59375 11.59375 6.875 11.59375 13.9375 
C 11.59375 22.390625 15.09375 31.25 20.703125 37.109375 
C 23.59375 40.09375 27.59375 41.890625 31.5 41.890625 
C 33.796875 41.890625 35.296875 41.09375 35.296875 39.90625 
C 35.296875 39.40625 35.09375 38.90625 34.703125 38.015625 
C 34 36.71875 33.796875 36.015625 33.796875 35.125 
C 33.796875 32.734375 35.296875 31.34375 37.703125 31.34375 
C 40.40625 31.34375 42.5 33.328125 42.5 35.921875 
C 42.5 40.5 38 44 32 44 
C 17 44 3 29.453125 3 13.9375 
C 3 4.484375 8.40625 -1 17.703125 -1 
C 25.09375 -1 30.59375 2.09375 36.59375 9.65625 
z
" id="Nimbus_Roman_No9_L_Regular_Italic-99"/>
     </defs>
     <g transform="translate(-6.683316 223.847885)rotate(-90)scale(0.2 -0.2)">
      <use transform="translate(0 14.943915)scale(0.996264)" xlink:href="#Nimbus_Roman_No9_L_Regular_Italic-99"/>
      <use transform="translate(44.233569 0)scale(0.737241)" xlink:href="#Nimbus_Roman_No9_L_Regular_Italic-80"/>
     </g>
    </g>
   </g>
   <g id="line2d_12">
    <path clip-path="url(#p9ea22b7621)" d="M 63.665526 -1 
L 68.096842 28.176275 
L 82.193684 95.255847 
L 96.290526 146.629009 
L 110.387368 187.425014 
L 124.484211 220.622786 
L 138.581053 248.107113 
L 152.677895 271.146749 
L 166.774737 290.636911 
L 180.871579 307.233086 
L 194.968421 321.429815 
L 209.065263 333.609572 
L 223.162105 344.074385 
L 237.258947 353.067048 
L 251.355789 360.785774 
L 265.452632 367.39458 
L 279.549474 373.030822 
L 293.646316 377.810765 
L 307.743158 381.833774 
L 321.84 385.185513 
" style="fill:none;stroke:#000000;stroke-dasharray:5.55,2.4;stroke-dashoffset:0;stroke-width:1.5;"/>
   </g>
   <g id="patch_3">
    <path d="M 54 378 
L 54 51.84 
" style="fill:none;stroke:#000000;stroke-linecap:square;stroke-linejoin:miter;stroke-width:0.8;"/>
   </g>
   <g id="patch_4">
    <path d="M 321.84 378 
L 321.84 51.84 
" style="fill:none;stroke:#000000;stroke-linecap:square;stroke-linejoin:miter;stroke-width:0.8;"/>
   </g>
   <g id="patch_5">
    <path d="M 54 378 
L 321.84 378 
" style="fill:none;stroke:#000000;stroke-linecap:square;stroke-linejoin:miter;stroke-width:0.8;"/>
   </g>
   <g id="patch_6">
    <path d="M 54 51.84 
L 321.84 51.84 
" style="fill:none;stroke:#000000;stroke-linecap:square;stroke-linejoin:miter;stroke-width:0.8;"/>
   </g>
  </g>
  <g id="axes_2">
   <g id="patch_7">
    <path clip-path="url(#p77591e152d)" d="M 338.58 378 
L 338.58 337.23 
L 338.58 92.61 
L 338.58 51.84 
L 354.888 51.84 
L 354.888 92.61 
L 354.888 337.23 
L 354.888 378 
z
" style="fill:#ffffff;stroke:#ffffff;stroke-linejoin:miter;stroke-width:0.01;"/>
   </g>
   <g id="QuadMesh_1">
    <path clip-path="url(#p77591e152d)" d="M 338.58 378 
L 354.888 378 
L 354.888 337.23 
L 338.58 337.23 
L 338.58 378 
" style="fill:#48186a;"/>
    <path clip-path="url(#p77591e152d)" d="M 338.58 337.23 
L 354.888 337.23 
L 354.888 296.46 
L 338.58 296.46 
L 338.58 337.23 
" style="fill:#424086;"/>
    <path clip-path="url(#p77591e152d)" d="M 338.58 296.46 
L 354.888 296.46 
L 354.888 255.69 
L 338.58 255.69 
L 338.58 296.46 
" style="fill:#33638d;"/>
    <path clip-path="url(#p77591e152d)" d="M 338.58 255.69 
L 354.888 255.69 
L 354.888 214.92 
L 338.58 214.92 
L 338.58 255.69 
" style="fill:#26828e;"/>
    <path clip-path="url(#p77591e152d)" d="M 338.58 214.92 
L 354.888 214.92 
L 354.888 174.15 
L 338.58 174.15 
L 338.58 214.92 
" style="fill:#1fa088;"/>
    <path clip-path="url(#p77591e152d)" d="M 338.58 174.15 
L 354.888 174.15 
L 354.888 133.38 
L 338.58 133.38 
L 338.58 174.15 
" style="fill:#3fbc73;"/>
    <path clip-path="url(#p77591e152d)" d="M 338.58 133.38 
L 354.888 133.38 
L 354.888 92.61 
L 338.58 92.61 
L 338.58 133.38 
" style="fill:#84d44b;"/>
    <path clip-path="url(#p77591e152d)" d="M 338.58 92.61 
L 354.888 92.61 
L 354.888 51.84 
L 338.58 51.84 
L 338.58 92.61 
" style="fill:#d8e219;"/>
   </g>
   <g id="matplotlib.axis_3"/>
   <g id="matplotlib.axis_4">
    <g id="ytick_9">
     <g id="line2d_13">
      <defs>
       <path d="M 0 0 
L 3.5 0 
" id="m29d4e407ef" style="stroke:#000000;stroke-width:0.8;"/>
      </defs>
      <g>
       <use style="stroke:#000000;stroke-width:0.8;" x="354.888" xlink:href="#m29d4e407ef" y="378"/>
      </g>
     </g>
     <g id="text_14">
      <!-- $0.0$ -->
      <g transform="translate(361.888 384.754578)scale(0.2 -0.2)">
       <use transform="scale(0.996264)" xlink:href="#Nimbus_Roman_No9_L_Regular-48"/>
       <use transform="translate(49.8132 0)scale(0.996264)" xlink:href="#CMMI10-58"/>
       <use transform="translate(77.408707 0)scale(0.996264)" xlink:href="#Nimbus_Roman_No9_L_Regular-48"/>
      </g>
     </g>
    </g>
    <g id="ytick_10">
     <g id="line2d_14">
      <g>
       <use style="stroke:#000000;stroke-width:0.8;" x="354.888" xlink:href="#m29d4e407ef" y="337.23"/>
      </g>
     </g>
     <g id="text_15">
      <!-- $0.4$ -->
      <defs>
       <path d="M 47.203125 23.390625 
L 37 23.390625 
L 37 68 
L 32.59375 68 
L 1.203125 23.390625 
L 1.203125 17 
L 29.296875 17 
L 29.296875 0 
L 37 0 
L 37 17 
L 47.203125 17 
z
M 29.203125 23.390625 
L 5.203125 23.390625 
L 29.203125 57.765625 
z
" id="Nimbus_Roman_No9_L_Regular-52"/>
      </defs>
      <g transform="translate(361.888 343.984578)scale(0.2 -0.2)">
       <use transform="scale(0.996264)" xlink:href="#Nimbus_Roman_No9_L_Regular-48"/>
       <use transform="translate(49.8132 0)scale(0.996264)" xlink:href="#CMMI10-58"/>
       <use transform="translate(77.408707 0)scale(0.996264)" xlink:href="#Nimbus_Roman_No9_L_Regular-52"/>
      </g>
     </g>
    </g>
    <g id="ytick_11">
     <g id="line2d_15">
      <g>
       <use style="stroke:#000000;stroke-width:0.8;" x="354.888" xlink:href="#m29d4e407ef" y="296.46"/>
      </g>
     </g>
     <g id="text_16">
      <!-- $0.8$ -->
      <defs>
       <path d="M 29 37.5 
C 38.90625 42.796875 42.40625 47 42.40625 53.796875 
C 42.40625 62 35.203125 68 25.203125 68 
C 14.296875 68 6.203125 61.296875 6.203125 52.203125 
C 6.203125 45.6875 8.09375 42.796875 18.59375 33.59375 
C 7.796875 25.390625 5.59375 22.296875 5.59375 15.5 
C 5.59375 5.796875 13.5 -1 24.796875 -1 
C 36.796875 -1 44.5 5.59375 44.5 15.890625 
C 44.5 23.59375 41.09375 28.5 29 37.5 
z
M 27.203125 27.1875 
C 34.5 22 36.90625 18.390625 36.90625 12.796875 
C 36.90625 6.296875 32.40625 1.796875 25.90625 1.796875 
C 18.296875 1.796875 13.203125 7.59375 13.203125 16.296875 
C 13.203125 22.6875 15.40625 26.890625 21.203125 31.59375 
z
M 26.09375 39.296875 
C 17.203125 45.09375 13.59375 49.6875 13.59375 55.296875 
C 13.59375 61.09375 18.09375 65.1875 24.40625 65.1875 
C 31.203125 65.1875 35.5 60.796875 35.5 53.890625 
C 35.5 48.1875 32.703125 43.6875 27 39.890625 
C 26.5 39.59375 26.5 39.59375 26.09375 39.296875 
z
" id="Nimbus_Roman_No9_L_Regular-56"/>
      </defs>
      <g transform="translate(361.888 303.214578)scale(0.2 -0.2)">
       <use transform="scale(0.996264)" xlink:href="#Nimbus_Roman_No9_L_Regular-48"/>
       <use transform="translate(49.8132 0)scale(0.996264)" xlink:href="#CMMI10-58"/>
       <use transform="translate(77.408707 0)scale(0.996264)" xlink:href="#Nimbus_Roman_No9_L_Regular-56"/>
      </g>
     </g>
    </g>
    <g id="ytick_12">
     <g id="line2d_16">
      <g>
       <use style="stroke:#000000;stroke-width:0.8;" x="354.888" xlink:href="#m29d4e407ef" y="255.69"/>
      </g>
     </g>
     <g id="text_17">
      <!-- $1.2$ -->
      <g transform="translate(361.888 262.444578)scale(0.2 -0.2)">
       <use transform="scale(0.996264)" xlink:href="#Nimbus_Roman_No9_L_Regular-49"/>
       <use transform="translate(49.8132 0)scale(0.996264)" xlink:href="#CMMI10-58"/>
       <use transform="translate(77.408707 0)scale(0.996264)" xlink:href="#Nimbus_Roman_No9_L_Regular-50"/>
      </g>
     </g>
    </g>
    <g id="ytick_13">
     <g id="line2d_17">
      <g>
       <use style="stroke:#000000;stroke-width:0.8;" x="354.888" xlink:href="#m29d4e407ef" y="214.92"/>
      </g>
     </g>
     <g id="text_18">
      <!-- $1.6$ -->
      <defs>
       <path d="M 44.59375 68.59375 
C 33.203125 67.59375 27.40625 65.6875 20.09375 60.59375 
C 9.296875 52.890625 3.40625 41.484375 3.40625 28.140625 
C 3.40625 19.5 6.09375 10.75 10.40625 5.765625 
C 14.203125 1.390625 19.59375 -1 25.796875 -1 
C 38.203125 -1 46.796875 8.453125 46.796875 22.1875 
C 46.796875 34.90625 39.5 43 28 43 
C 23.59375 43 21.5 42.296875 15.203125 38.484375 
C 17.90625 53.59375 29.09375 64.390625 44.796875 67 
z
M 24.203125 38.390625 
C 32.796875 38.390625 37.796875 31.234375 37.796875 18.796875 
C 37.796875 7.859375 33.90625 1.796875 26.90625 1.796875 
C 18.09375 1.796875 12.703125 11.140625 12.703125 26.5625 
C 12.703125 31.625 13.5 34.421875 15.5 35.90625 
C 17.59375 37.5 20.703125 38.390625 24.203125 38.390625 
z
" id="Nimbus_Roman_No9_L_Regular-54"/>
      </defs>
      <g transform="translate(361.888 221.674578)scale(0.2 -0.2)">
       <use transform="scale(0.996264)" xlink:href="#Nimbus_Roman_No9_L_Regular-49"/>
       <use transform="translate(49.8132 0)scale(0.996264)" xlink:href="#CMMI10-58"/>
       <use transform="translate(77.408707 0)scale(0.996264)" xlink:href="#Nimbus_Roman_No9_L_Regular-54"/>
      </g>
     </g>
    </g>
    <g id="ytick_14">
     <g id="line2d_18">
      <g>
       <use style="stroke:#000000;stroke-width:0.8;" x="354.888" xlink:href="#m29d4e407ef" y="174.15"/>
      </g>
     </g>
     <g id="text_19">
      <!-- $2.0$ -->
      <g transform="translate(361.888 180.904578)scale(0.2 -0.2)">
       <use transform="scale(0.996264)" xlink:href="#Nimbus_Roman_No9_L_Regular-50"/>
       <use transform="translate(49.8132 0)scale(0.996264)" xlink:href="#CMMI10-58"/>
       <use transform="translate(77.408707 0)scale(0.996264)" xlink:href="#Nimbus_Roman_No9_L_Regular-48"/>
      </g>
     </g>
    </g>
    <g id="ytick_15">
     <g id="line2d_19">
      <g>
       <use style="stroke:#000000;stroke-width:0.8;" x="354.888" xlink:href="#m29d4e407ef" y="133.38"/>
      </g>
     </g>
     <g id="text_20">
      <!-- $2.4$ -->
      <g transform="translate(361.888 140.134578)scale(0.2 -0.2)">
       <use transform="scale(0.996264)" xlink:href="#Nimbus_Roman_No9_L_Regular-50"/>
       <use transform="translate(49.8132 0)scale(0.996264)" xlink:href="#CMMI10-58"/>
       <use transform="translate(77.408707 0)scale(0.996264)" xlink:href="#Nimbus_Roman_No9_L_Regular-52"/>
      </g>
     </g>
    </g>
    <g id="ytick_16">
     <g id="line2d_20">
      <g>
       <use style="stroke:#000000;stroke-width:0.8;" x="354.888" xlink:href="#m29d4e407ef" y="92.61"/>
      </g>
     </g>
     <g id="text_21">
      <!-- $2.8$ -->
      <g transform="translate(361.888 99.364578)scale(0.2 -0.2)">
       <use transform="scale(0.996264)" xlink:href="#Nimbus_Roman_No9_L_Regular-50"/>
       <use transform="translate(49.8132 0)scale(0.996264)" xlink:href="#CMMI10-58"/>
       <use transform="translate(77.408707 0)scale(0.996264)" xlink:href="#Nimbus_Roman_No9_L_Regular-56"/>
      </g>
     </g>
    </g>
    <g id="ytick_17">
     <g id="line2d_21">
      <g>
       <use style="stroke:#000000;stroke-width:0.8;" x="354.888" xlink:href="#m29d4e407ef" y="51.84"/>
      </g>
     </g>
     <g id="text_22">
      <!-- $3.2$ -->
      <defs>
       <path d="M 15.296875 33.390625 
C 21.203125 33.390625 23.5 33.1875 25.90625 32.296875 
C 32.09375 30.09375 36 24.390625 36 17.5 
C 36 9.09375 30.296875 2.59375 22.90625 2.59375 
C 20.203125 2.59375 18.203125 3.296875 14.5 5.6875 
C 11.5 7.5 9.796875 8.1875 8.09375 8.1875 
C 5.796875 8.1875 4.296875 6.796875 4.296875 4.6875 
C 4.296875 1.1875 8.59375 -1 15.59375 -1 
C 23.296875 -1 31.203125 1.59375 35.90625 5.6875 
C 40.59375 9.796875 43.203125 15.59375 43.203125 22.296875 
C 43.203125 27.390625 41.59375 32.09375 38.703125 35.1875 
C 36.703125 37.390625 34.796875 38.59375 30.40625 40.5 
C 37.296875 45.1875 39.796875 48.890625 39.796875 54.296875 
C 39.796875 62.390625 33.40625 68 24.203125 68 
C 19.203125 68 14.796875 66.296875 11.203125 63.09375 
C 8.203125 60.390625 6.703125 57.796875 4.5 51.796875 
L 6 51.390625 
C 10.09375 58.703125 14.59375 61.984375 20.90625 61.984375 
C 27.40625 61.984375 31.90625 57.59375 31.90625 51.296875 
C 31.90625 47.6875 30.40625 44.09375 27.90625 41.59375 
C 24.90625 38.59375 22.09375 37.09375 15.296875 34.6875 
z
" id="Nimbus_Roman_No9_L_Regular-51"/>
      </defs>
      <g transform="translate(361.888 58.594578)scale(0.2 -0.2)">
       <use transform="scale(0.996264)" xlink:href="#Nimbus_Roman_No9_L_Regular-51"/>
       <use transform="translate(49.8132 0)scale(0.996264)" xlink:href="#CMMI10-58"/>
       <use transform="translate(77.408707 0)scale(0.996264)" xlink:href="#Nimbus_Roman_No9_L_Regular-50"/>
      </g>
     </g>
    </g>
   </g>
   <g id="patch_8">
    <path d="M 338.58 378 
L 338.58 337.23 
L 338.58 92.61 
L 338.58 51.84 
L 354.888 51.84 
L 354.888 92.61 
L 354.888 337.23 
L 354.888 378 
z
" style="fill:none;stroke:#000000;stroke-linejoin:miter;stroke-width:0.8;"/>
   </g>
  </g>
 </g>
 <defs>
  <clipPath id="p9ea22b7621">
   <rect height="326.16" width="267.84" x="54" y="51.84"/>
  </clipPath>
  <clipPath id="p77591e152d">
   <rect height="326.16" width="16.308" x="338.58" y="51.84"/>
  </clipPath>
 </defs>
</svg>
