<?xml version="1.0" encoding="utf-8" standalone="no"?>
<!DOCTYPE svg PUBLIC "-//W3C//DTD SVG 1.1//EN"
  "http://www.w3.org/Graphics/SVG/1.1/DTD/svg11.dtd">
<!-- Created with matplotlib (https://matplotlib.org/) -->
<svg height="432pt" version="1.1" viewBox="0 0 432 432" width="432pt" xmlns="http://www.w3.org/2000/svg" xmlns:xlink="http://www.w3.org/1999/xlink">
 <defs>
  <style type="text/css">
*{stroke-linecap:butt;stroke-linejoin:round;}
  </style>
 </defs>
 <g id="figure_1">
  <g id="patch_1">
   <path d="M 0 432 
L 432 432 
L 432 0 
L 0 0 
z
" style="fill:#ffffff;"/>
  </g>
  <g id="axes_1">
   <g id="patch_2">
    <path d="M 54 378 
L 388.8 378 
L 388.8 51.84 
L 54 51.84 
z
" style="fill:#ffffff;"/>
   </g>
   <g id="matplotlib.axis_1">
    <g id="xtick_1">
     <g id="line2d_1">
      <defs>
       <path d="M 0 0 
L 0 3.5 
" id="m18d3b4796f" style="stroke:#000000;stroke-width:0.8;"/>
      </defs>
      <g>
       <use style="stroke:#000000;stroke-width:0.8;" x="156.179221" xlink:href="#m18d3b4796f" y="378"/>
      </g>
     </g>
     <g id="text_1">
      <!-- $\mathdefault{0.05}$ -->
      <defs>
       <path d="M 25.40625 68 
C 19.90625 68 15.703125 66.296875 12 62.796875 
C 6.203125 57.203125 2.40625 45.6875 2.40625 34 
C 2.40625 23.09375 5.703125 11.390625 10.40625 5.796875 
C 14.09375 1.390625 19.203125 -1 25 -1 
C 30.09375 -1 34.40625 0.6875 38 4.1875 
C 43.796875 9.6875 47.59375 21.296875 47.59375 33.390625 
C 47.59375 53.890625 38.5 68 25.40625 68 
z
M 25.09375 65.390625 
C 33.5 65.390625 38 54.09375 38 33.1875 
C 38 12.296875 33.59375 1.59375 25 1.59375 
C 16.40625 1.59375 12 12.296875 12 33.09375 
C 12 54.296875 16.5 65.390625 25.09375 65.390625 
z
" id="Nimbus_Roman_No9_L_Regular-48"/>
       <path d="M 19.203125 5.296875 
C 19.203125 8.1875 16.796875 10.59375 13.90625 10.59375 
C 11 10.59375 8.59375 8.1875 8.59375 5.296875 
C 8.59375 2.390625 11 0 13.90625 0 
C 16.796875 0 19.203125 2.390625 19.203125 5.296875 
z
" id="CMMI10-58"/>
       <path d="M 18.09375 58.09375 
L 37.703125 58.09375 
C 39.296875 58.09375 39.703125 58.296875 40 58.984375 
L 43.796875 67.890625 
L 42.90625 68.59375 
C 41.40625 66.5 40.40625 66 38.296875 66 
L 17.40625 66 
L 6.5 42.453125 
C 6.40625 42.265625 6.40625 42.15625 6.40625 41.96875 
C 6.40625 41.46875 6.796875 41.171875 7.59375 41.171875 
C 10.796875 41.171875 14.796875 40.484375 18.90625 39.1875 
C 30.40625 35.53125 35.703125 29.40625 35.703125 19.609375 
C 35.703125 10.109375 29.59375 2.6875 21.796875 2.6875 
C 19.796875 2.6875 18.09375 3.390625 15.09375 5.5625 
C 11.90625 7.84375 9.59375 8.828125 7.5 8.828125 
C 4.59375 8.828125 3.203125 7.640625 3.203125 5.171875 
C 3.203125 1.390625 7.90625 -1 15.40625 -1 
C 23.796875 -1 31 1.6875 36 6.75 
C 40.59375 11.203125 42.703125 16.84375 42.703125 24.359375 
C 42.703125 31.484375 40.796875 36.03125 35.796875 40.96875 
C 31.40625 45.328125 25.703125 47.609375 13.90625 49.6875 
z
" id="Nimbus_Roman_No9_L_Regular-53"/>
      </defs>
      <g transform="translate(138.475711 398.509155)scale(0.2 -0.2)">
       <use transform="scale(0.996264)" xlink:href="#Nimbus_Roman_No9_L_Regular-48"/>
       <use transform="translate(49.8132 0)scale(0.996264)" xlink:href="#CMMI10-58"/>
       <use transform="translate(77.408707 0)scale(0.996264)" xlink:href="#Nimbus_Roman_No9_L_Regular-48"/>
       <use transform="translate(127.221908 0)scale(0.996264)" xlink:href="#Nimbus_Roman_No9_L_Regular-53"/>
      </g>
     </g>
    </g>
    <g id="xtick_2">
     <g id="line2d_2">
      <g>
       <use style="stroke:#000000;stroke-width:0.8;" x="276.958442" xlink:href="#m18d3b4796f" y="378"/>
      </g>
     </g>
     <g id="text_2">
      <!-- $\mathdefault{0.10}$ -->
      <defs>
       <path d="M 29.09375 68 
L 11.09375 59 
L 11.09375 57.59375 
C 12.296875 58.09375 13.40625 58.484375 13.796875 58.6875 
C 15.59375 59.390625 17.296875 59.78125 18.296875 59.78125 
C 20.40625 59.78125 21.296875 58.296875 21.296875 55.078125 
L 21.296875 9.359375 
C 21.296875 6.03125 20.5 3.71875 18.90625 2.796875 
C 17.40625 1.890625 16 1.59375 11.796875 1.5 
L 11.796875 0 
L 39.40625 0 
L 39.40625 1.5 
C 31.5 1.59375 29.90625 2.609375 29.90625 7.453125 
L 29.90625 67.796875 
z
" id="Nimbus_Roman_No9_L_Regular-49"/>
      </defs>
      <g transform="translate(259.254932 398.509155)scale(0.2 -0.2)">
       <use transform="scale(0.996264)" xlink:href="#Nimbus_Roman_No9_L_Regular-48"/>
       <use transform="translate(49.8132 0)scale(0.996264)" xlink:href="#CMMI10-58"/>
       <use transform="translate(77.408707 0)scale(0.996264)" xlink:href="#Nimbus_Roman_No9_L_Regular-49"/>
       <use transform="translate(127.221908 0)scale(0.996264)" xlink:href="#Nimbus_Roman_No9_L_Regular-48"/>
      </g>
     </g>
    </g>
    <g id="text_3">
     <!-- lncRNA amounts $N^{tot}_R/N^{tot}_P$ -->
     <defs>
      <path d="M 1.90625 62.296875 
L 2.5 62.296875 
C 3.59375 62.390625 4.796875 62.5 5.59375 62.5 
C 8.796875 62.5 9.796875 61.09375 9.796875 56.390625 
L 9.796875 8.6875 
C 9.796875 3.296875 8.40625 2 2.09375 1.5 
L 2.09375 0 
L 25.703125 0 
L 25.703125 1.5 
C 19.40625 1.890625 18.203125 2.890625 18.203125 8.390625 
L 18.203125 68.09375 
L 17.796875 68.296875 
C 12.59375 66.59375 8.796875 65.59375 1.90625 63.890625 
z
" id="Nimbus_Roman_No9_L_Regular-108"/>
      <path d="M 1.59375 39.796875 
C 2.203125 40.09375 3.203125 40.1875 4.296875 40.1875 
C 7.09375 40.1875 8 38.6875 8 33.796875 
L 8 9 
C 8 3.296875 6.90625 1.890625 1.796875 1.5 
L 1.796875 0 
L 23 0 
L 23 1.5 
C 17.90625 1.890625 16.40625 3.09375 16.40625 6.6875 
L 16.40625 34.796875 
C 21.203125 39.296875 23.40625 40.484375 26.703125 40.484375 
C 31.59375 40.484375 34 37.390625 34 30.796875 
L 34 9.890625 
C 34 3.59375 32.703125 1.890625 27.703125 1.5 
L 27.703125 0 
L 48.5 0 
L 48.5 1.5 
C 43.59375 2 42.40625 3.1875 42.40625 8.09375 
L 42.40625 31 
C 42.40625 40.390625 38 46 30.59375 46 
C 26 46 22.90625 44.296875 16.09375 37.890625 
L 16.09375 45.796875 
L 15.40625 46 
C 10.5 44.1875 7.09375 43.09375 1.59375 41.484375 
z
" id="Nimbus_Roman_No9_L_Regular-110"/>
      <path d="M 39.796875 15.59375 
C 35 8.59375 31.40625 6.1875 25.703125 6.1875 
C 16.59375 6.1875 10.203125 14.1875 10.203125 25.6875 
C 10.203125 35.984375 15.703125 43.09375 23.796875 43.09375 
C 27.40625 43.09375 28.703125 41.984375 29.703125 38.296875 
L 30.296875 36.09375 
C 31.09375 33.296875 32.90625 31.484375 35 31.484375 
C 37.59375 31.484375 39.796875 33.390625 39.796875 35.6875 
C 39.796875 41.296875 32.796875 46 24.40625 46 
C 19.5 46 14.40625 43.984375 10.296875 40.390625 
C 5.296875 35.984375 2.5 29.1875 2.5 21.296875 
C 2.5 8.296875 10.40625 -1 21.5 -1 
C 26 -1 30 0.59375 33.59375 3.6875 
C 36.296875 6.09375 38.203125 8.796875 41.203125 14.6875 
z
" id="Nimbus_Roman_No9_L_Regular-99"/>
      <path d="M 65.90625 1.890625 
C 62.09375 2.1875 60.09375 3.1875 57.203125 6.578125 
L 36.59375 31.796875 
C 43.296875 33.09375 46.296875 34.28125 49.59375 36.96875 
C 52.796875 39.5625 54.703125 43.75 54.703125 48.4375 
C 54.703125 52.71875 53.40625 56.40625 50.796875 59.296875 
C 47 63.390625 38.703125 66 29.296875 66 
L 1.703125 66 
L 1.703125 64.09375 
C 9.203125 63.296875 10.203125 62.203125 10.203125 55.125 
L 10.203125 11.953125 
C 10.203125 3.6875 9.203125 2.484375 1.703125 1.890625 
L 1.703125 0 
L 29.40625 0 
L 29.40625 1.890625 
C 21.703125 2.390625 20.40625 3.6875 20.40625 10.859375 
L 20.40625 30.5 
L 26 30.703125 
L 49.796875 0 
L 65.90625 0 
z
M 20.40625 58.6875 
C 20.40625 61.484375 21.5 62.296875 25.5 62.296875 
C 38 62.296875 43.796875 57.984375 43.796875 48.59375 
C 43.796875 43.59375 41.703125 39.390625 38.09375 37.484375 
C 33.5 34.890625 30 34.296875 20.40625 34.09375 
z
" id="Nimbus_Roman_No9_L_Regular-82"/>
      <path d="M 61.203125 -1 
L 61.203125 51.359375 
C 61.203125 57.328125 62.203125 61.015625 64.09375 62.3125 
C 65.5 63.296875 66.90625 63.703125 70.703125 64.09375 
L 70.703125 66 
L 47.203125 66 
L 47.203125 64.09375 
C 51 63.796875 52.40625 63.40625 53.90625 62.5 
C 55.90625 61.109375 56.796875 57.53125 56.796875 51.359375 
L 56.796875 17.8125 
L 18.296875 66 
L 1.203125 66 
L 1.203125 64.09375 
C 5.5 64.09375 6.90625 63.296875 10.90625 58.625 
L 10.90625 14.734375 
C 10.90625 4.390625 9.5 2.5 1.203125 1.890625 
L 1.203125 0 
L 24.703125 0 
L 24.703125 1.890625 
C 17 2.296875 15.296875 4.59375 15.296875 14.6875 
L 15.296875 53.890625 
L 59.5 -1 
z
" id="Nimbus_Roman_No9_L_Regular-78"/>
      <path d="M 70.59375 1.890625 
C 66.09375 2.203125 65.09375 3.203125 61.59375 10.71875 
L 36.703125 67 
L 34.703125 67 
L 13.90625 18.546875 
C 7.5 3.71875 6.296875 2.09375 1.5 1.890625 
L 1.5 0 
L 21.296875 0 
L 21.296875 1.890625 
C 16.5 1.890625 14.5 3.203125 14.5 6.046875 
C 14.5 7.265625 14.796875 8.6875 15.296875 10.015625 
L 19.90625 21.890625 
L 46.09375 21.890625 
L 50.203125 12.140625 
C 51.40625 9.40625 52.09375 6.765625 52.09375 5.34375 
C 52.09375 2.796875 50.40625 2 45.09375 1.890625 
L 45.09375 0 
L 70.59375 0 
z
M 21.59375 26 
L 33.09375 53 
L 44.703125 26 
z
" id="Nimbus_Roman_No9_L_Regular-65"/>
      <path d="M 44.203125 6.59375 
C 42.5 5.1875 41.296875 4.6875 39.796875 4.6875 
C 37.5 4.6875 36.796875 6.09375 36.796875 10.5 
L 36.796875 30 
C 36.796875 35.1875 36.296875 38.09375 34.796875 40.5 
C 32.59375 44.09375 28.296875 46 22.40625 46 
C 13 46 5.59375 41.09375 5.59375 34.796875 
C 5.59375 32.5 7.59375 30.5 9.90625 30.5 
C 12.296875 30.5 14.40625 32.5 14.40625 34.6875 
C 14.40625 35.09375 14.296875 35.59375 14.203125 36.296875 
C 14 37.1875 13.90625 38 13.90625 38.6875 
C 13.90625 41.390625 17.09375 43.59375 21.09375 43.59375 
C 26 43.59375 28.703125 40.6875 28.703125 35.296875 
L 28.703125 29.1875 
C 13.296875 23 11.59375 22.1875 7.296875 18.390625 
C 5.09375 16.390625 3.703125 13 3.703125 9.6875 
C 3.703125 3.390625 8.09375 -1 14.203125 -1 
C 18.59375 -1 22.703125 1.09375 28.796875 6.296875 
C 29.296875 1.09375 31.09375 -1 35.203125 -1 
C 38.59375 -1 40.703125 0.1875 44.203125 4 
z
M 28.703125 12.296875 
C 28.703125 9.1875 28.203125 8.296875 26.09375 7.09375 
C 23.703125 5.6875 20.90625 4.796875 18.796875 4.796875 
C 15.296875 4.796875 12.5 8.1875 12.5 12.5 
L 12.5 12.890625 
C 12.5 18.796875 16.59375 22.390625 28.703125 26.796875 
z
" id="Nimbus_Roman_No9_L_Regular-97"/>
      <path d="M 1.90625 39.796875 
C 3.203125 40.09375 4 40.1875 5.09375 40.1875 
C 7.703125 40.1875 8.59375 38.59375 8.59375 33.796875 
L 8.59375 8.5 
C 8.59375 3.09375 7.203125 1.59375 1.59375 1.5 
L 1.59375 0 
L 23.796875 0 
L 23.796875 1.5 
C 18.5 1.6875 17 2.796875 17 6.6875 
L 17 34.890625 
C 17 35.09375 17.796875 36.09375 18.5 36.796875 
C 21 39.09375 25.296875 40.796875 28.796875 40.796875 
C 33.203125 40.796875 35.40625 37.296875 35.40625 30.296875 
L 35.40625 8.59375 
C 35.40625 3 34.296875 1.890625 28.59375 1.5 
L 28.59375 0 
L 51 0 
L 51 1.5 
C 45.296875 1.59375 43.796875 3.296875 43.796875 9.5 
L 43.796875 34.6875 
C 46.796875 39 50.09375 40.796875 54.703125 40.796875 
C 60.40625 40.796875 62.203125 38.09375 62.203125 29.796875 
L 62.203125 8.6875 
C 62.203125 3 61.40625 2.1875 55.59375 1.5 
L 55.59375 0 
L 77.5 0 
L 77.5 1.5 
L 74.90625 1.6875 
C 71.90625 1.890625 70.59375 3.6875 70.59375 7.59375 
L 70.59375 28.1875 
C 70.59375 40 66.703125 46 59 46 
C 53.203125 46 48.09375 43.390625 42.703125 37.59375 
C 40.90625 43.296875 37.5 46 32.09375 46 
C 27.703125 46 24.90625 44.59375 16.59375 38.296875 
L 16.59375 45.796875 
L 15.90625 46 
C 10.796875 44.09375 7.40625 42.984375 1.90625 41.484375 
z
" id="Nimbus_Roman_No9_L_Regular-109"/>
      <path d="M 25 46 
C 12 46 2.90625 36.390625 2.90625 22.59375 
C 2.90625 9.09375 12.203125 -1 24.796875 -1 
C 37.40625 -1 47 9.59375 47 23.390625 
C 47 36.5 37.796875 46 25 46 
z
M 23.703125 43.1875 
C 32.09375 43.1875 38 33.59375 38 19.890625 
C 38 8.59375 33.5 1.796875 26 1.796875 
C 22.09375 1.796875 18.40625 4.1875 16.296875 8.1875 
C 13.5 13.390625 11.90625 20.390625 11.90625 27.5 
C 11.90625 37 16.59375 43.1875 23.703125 43.1875 
z
" id="Nimbus_Roman_No9_L_Regular-111"/>
      <path d="M 47.90625 4.984375 
L 47.40625 4.984375 
C 42.796875 4.984375 41.703125 6.09375 41.703125 10.6875 
L 41.703125 45 
L 25.90625 45 
L 25.90625 43.296875 
C 32.09375 43 33.296875 42 33.296875 37 
L 33.296875 13.5 
C 33.296875 10.6875 32.796875 9.296875 31.40625 8.1875 
C 28.703125 6 25.59375 4.796875 22.59375 4.796875 
C 18.703125 4.796875 15.5 8.1875 15.5 12.390625 
L 15.5 45 
L 0.90625 45 
L 0.90625 43.59375 
C 5.703125 43.296875 7.09375 41.796875 7.09375 37.1875 
L 7.09375 12 
C 7.09375 4.09375 11.90625 -1 19.203125 -1 
C 22.90625 -1 26.796875 0.59375 29.5 3.296875 
L 33.796875 7.59375 
L 33.796875 -0.703125 
L 34.203125 -1 
C 39.203125 1 42.796875 2.09375 47.90625 3.5 
z
" id="Nimbus_Roman_No9_L_Regular-117"/>
      <path d="M 25.5 45 
L 15.40625 45 
L 15.40625 56.59375 
C 15.40625 57.59375 15.296875 57.890625 14.703125 57.890625 
C 14 57 13.40625 56.09375 12.703125 55.09375 
C 8.90625 49.59375 4.59375 44.796875 3 44.390625 
C 1.90625 43.6875 1.296875 42.984375 1.296875 42.484375 
C 1.296875 42.1875 1.40625 41.984375 1.703125 41.796875 
L 7 41.796875 
L 7 11.6875 
C 7 3.296875 10 -1 15.90625 -1 
C 20.796875 -1 24.59375 1.390625 27.90625 6.59375 
L 26.59375 7.6875 
C 24.5 5.1875 22.796875 4.1875 20.59375 4.1875 
C 16.90625 4.1875 15.40625 6.890625 15.40625 13.1875 
L 15.40625 41.796875 
L 25.5 41.796875 
z
" id="Nimbus_Roman_No9_L_Regular-116"/>
      <path d="M 31.5 31.390625 
L 31.09375 45 
L 30 45 
L 29.796875 44.796875 
C 28.90625 44.09375 28.796875 43.984375 28.40625 43.984375 
C 27.796875 43.984375 26.796875 44.1875 25.703125 44.6875 
C 23.5 45.59375 21.296875 46 18.703125 46 
C 10.796875 46 5.09375 40.890625 5.09375 33.671875 
C 5.09375 28.0625 8.296875 24.046875 16.796875 19.234375 
L 22.59375 15.921875 
C 26.09375 13.921875 27.796875 11.515625 27.796875 8.40625 
C 27.796875 4 24.59375 1.1875 19.5 1.1875 
C 16.09375 1.1875 13 2.5 11.09375 4.703125 
C 9 7.203125 8.09375 9.515625 6.796875 15.21875 
L 5.203125 15.21875 
L 5.203125 -0.40625 
L 6.5 -0.40625 
C 7.203125 0.59375 7.59375 0.796875 8.796875 0.796875 
C 9.703125 0.796875 11.09375 0.59375 13.40625 0 
C 16.203125 -0.609375 18.90625 -1 20.703125 -1 
C 28.40625 -1 34.796875 4.796875 34.796875 11.8125 
C 34.796875 16.828125 32.40625 20.140625 26.40625 23.75 
L 15.59375 30.15625 
C 12.796875 31.765625 11.296875 34.265625 11.296875 36.96875 
C 11.296875 40.984375 14.40625 43.796875 19 43.796875 
C 24.703125 43.796875 27.703125 40.390625 30 31.46875 
z
" id="Nimbus_Roman_No9_L_Regular-115"/>
      <path d="M 72.703125 65 
L 52.796875 65 
L 52.796875 63.390625 
C 58.5 62.890625 59.796875 61.890625 59.796875 58.265625 
C 59.796875 57.0625 59.59375 55.859375 58.90625 53.859375 
C 58.796875 53.5625 58.703125 53.15625 58.703125 53.0625 
L 48.5 14.9375 
L 27.703125 65 
L 11.59375 65 
L 11.59375 63.390625 
C 16.296875 62.984375 18.40625 61.6875 20.203125 57.765625 
L 8.296875 15.9375 
C 4.5 3.109375 3.703125 1.890625 -2 1.09375 
L -2 -0.5 
L 17.796875 -0.5 
L 17.796875 1.09375 
C 12.703125 1.5 10.796875 2.59375 10.796875 5.40625 
C 10.796875 6.71875 11.09375 8.71875 11.703125 10.828125 
L 23.09375 53.15625 
L 46.09375 -2 
L 47.90625 -2 
L 62.296875 48.4375 
C 66 61.390625 66.40625 61.984375 72.703125 63.390625 
z
" id="Nimbus_Roman_No9_L_Regular_Italic-78"/>
      <path d="M 29.59375 43 
L 21.59375 43 
L 24.40625 53.296875 
C 24.5 53.5 24.5 53.6875 24.5 53.796875 
C 24.5 54.5 24.203125 54.796875 23.703125 54.796875 
C 23.09375 54.796875 22.796875 54.6875 22.203125 53.890625 
C 18.296875 48.796875 12.09375 43.796875 8.90625 42.890625 
C 6.40625 42.09375 5.703125 41.484375 5.703125 40.390625 
C 5.703125 40.296875 5.703125 40.09375 5.796875 39.796875 
L 13.203125 39.796875 
L 6 12.21875 
C 5.796875 11.3125 5.703125 11.015625 5.40625 10.109375 
C 4.5 7.09375 3.703125 3.59375 3.703125 2.796875 
C 3.703125 0.59375 5.796875 -1 8.5 -1 
C 13.09375 -1 16.40625 1.796875 22.703125 11.109375 
L 21.40625 11.8125 
C 16.5 5.5 14.90625 3.890625 13.296875 3.890625 
C 12.40625 3.890625 11.796875 4.6875 11.796875 5.890625 
C 11.796875 6 11.796875 6.09375 11.90625 6.40625 
L 20.703125 39.796875 
L 29.09375 39.796875 
z
" id="Nimbus_Roman_No9_L_Regular_Italic-116"/>
      <path d="M 32.5 44 
C 17.5 44 2.703125 28.5625 2.703125 12.9375 
C 2.703125 4.375 8.296875 -1 17.40625 -1 
C 24 -1 30.40625 1.984375 36.203125 7.65625 
C 42.796875 14.125 46.796875 22.59375 46.796875 30.046875 
C 46.796875 38.3125 41 44 32.5 44 
z
M 31.296875 41.890625 
C 35.59375 41.890625 38.40625 38.21875 38.40625 32.546875 
C 38.40625 25.28125 35.09375 15.328125 30.703125 8.859375 
C 27 3.578125 23.203125 1.09375 18.90625 1.09375 
C 14.203125 1.09375 11.09375 4.671875 11.09375 10.15625 
C 11.09375 17.515625 14 26.265625 18.90625 33.34375 
C 22.796875 38.90625 27 41.890625 31.296875 41.890625 
z
" id="Nimbus_Roman_No9_L_Regular_Italic-111"/>
      <path d="M 56.703125 1.59375 
C 52.296875 1.890625 50.296875 3.578125 48.40625 8.765625 
L 39.09375 33.140625 
C 46.796875 34.828125 50.09375 36.21875 53.703125 39.40625 
C 57 42.296875 58.796875 46.171875 58.796875 50.65625 
C 58.796875 59.90625 51.40625 65 38 65 
L 13.203125 65 
L 13.203125 63.390625 
C 17.40625 62.796875 17.90625 62.6875 18.90625 61.984375 
C 19.703125 61.5 20.296875 60.296875 20.296875 59.203125 
C 20.296875 58.015625 19.796875 55.625 19.09375 52.9375 
L 6.796875 8.953125 
C 5 3.09375 4.296875 2.484375 -1.296875 1.59375 
L -1.296875 0 
L 23.09375 0 
L 23.09375 1.59375 
C 17 2.390625 16.296875 2.890625 16.296875 6.171875 
C 16.296875 7.171875 16.59375 8.453125 17.5 11.9375 
L 23.09375 32.734375 
L 29.59375 32.234375 
L 41.90625 0 
L 56.703125 0 
z
M 30.796875 59.203125 
C 31.40625 61.296875 32.703125 61.984375 35.90625 61.984375 
C 44.203125 61.984375 48.296875 58.21875 48.296875 50.84375 
C 48.296875 41 41.90625 35.921875 29.40625 35.921875 
C 27.796875 35.921875 26.703125 36.015625 24.296875 36.421875 
z
" id="Nimbus_Roman_No9_L_Regular_Italic-82"/>
      <path d="M 43.90625 71.203125 
C 44.40625 72.5 44.40625 72.890625 44.40625 73 
C 44.40625 74.09375 43.5 75 42.40625 75 
C 41.703125 75 41 74.6875 40.703125 74.09375 
L 6 -21.203125 
C 5.5 -22.5 5.5 -22.90625 5.5 -23 
C 5.5 -24.109375 6.40625 -25 7.5 -25 
C 8.796875 -25 9.09375 -24.3125 9.703125 -22.609375 
z
" id="CMMI10-61"/>
      <path d="M 14.59375 63.390625 
C 20.296875 62.6875 21.703125 61.796875 21.703125 59.203125 
C 21.703125 57.8125 21.296875 55.71875 20 51.234375 
L 8.203125 8.9375 
C 6.40625 2.984375 5.703125 2.390625 0 1.59375 
L 0 0 
L 24.5 0 
L 24.5 1.59375 
C 18.203125 2.484375 17.703125 2.78125 17.703125 6.15625 
C 17.703125 7.359375 17.90625 8.34375 18.90625 11.921875 
L 24.203125 31.09375 
C 26.703125 30.484375 29.296875 30.296875 33.40625 30.296875 
C 41.59375 30.296875 48.296875 31.984375 52.59375 35.09375 
C 57.59375 38.78125 60.5 44.25 60.5 50.140625 
C 60.5 59.703125 53 65 39.40625 65 
L 14.59375 65 
z
M 32.203125 59.203125 
C 32.796875 61.296875 34 61.984375 36.796875 61.984375 
C 40.703125 61.984375 44.5 61 46.5 59.59375 
C 49.09375 57.8125 50.203125 54.8125 50.203125 50.140625 
C 50.203125 43.65625 47.90625 39.078125 43.5 36.484375 
C 40.40625 34.796875 36.5 34 30.296875 34 
C 28.59375 34 27.796875 34.09375 25.09375 34.484375 
z
" id="Nimbus_Roman_No9_L_Regular_Italic-80"/>
     </defs>
     <g transform="translate(113.746526 421.929052)scale(0.2 -0.2)">
      <use transform="scale(0.996264)" xlink:href="#Nimbus_Roman_No9_L_Regular-108"/>
      <use transform="translate(27.69517 0)scale(0.996264)" xlink:href="#Nimbus_Roman_No9_L_Regular-110"/>
      <use transform="translate(77.50837 0)scale(0.996264)" xlink:href="#Nimbus_Roman_No9_L_Regular-99"/>
      <use transform="translate(121.741939 0)scale(0.996264)" xlink:href="#Nimbus_Roman_No9_L_Regular-82"/>
      <use transform="translate(188.19197 0)scale(0.996264)" xlink:href="#Nimbus_Roman_No9_L_Regular-78"/>
      <use transform="translate(256.635228 0)scale(0.996264)" xlink:href="#Nimbus_Roman_No9_L_Regular-65"/>
      <use transform="translate(353.471813 0)scale(0.996264)" xlink:href="#Nimbus_Roman_No9_L_Regular-97"/>
      <use transform="translate(397.705382 0)scale(0.996264)" xlink:href="#Nimbus_Roman_No9_L_Regular-109"/>
      <use transform="translate(475.213752 0)scale(0.996264)" xlink:href="#Nimbus_Roman_No9_L_Regular-111"/>
      <use transform="translate(525.026953 0)scale(0.996264)" xlink:href="#Nimbus_Roman_No9_L_Regular-117"/>
      <use transform="translate(574.840153 0)scale(0.996264)" xlink:href="#Nimbus_Roman_No9_L_Regular-110"/>
      <use transform="translate(624.653354 0)scale(0.996264)" xlink:href="#Nimbus_Roman_No9_L_Regular-116"/>
      <use transform="translate(652.348523 0)scale(0.996264)" xlink:href="#Nimbus_Roman_No9_L_Regular-115"/>
      <use transform="translate(716.00883 0)scale(0.996264)" xlink:href="#Nimbus_Roman_No9_L_Regular_Italic-78"/>
      <use transform="translate(786.593107 36.163231)scale(0.737241)" xlink:href="#Nimbus_Roman_No9_L_Regular_Italic-116"/>
      <use transform="translate(812.100345 36.163231)scale(0.737241)" xlink:href="#Nimbus_Roman_No9_L_Regular_Italic-111"/>
      <use transform="translate(847.119308 36.163231)scale(0.737241)" xlink:href="#Nimbus_Roman_No9_L_Regular_Italic-116"/>
      <use transform="translate(779.96814 -28.429978)scale(0.737241)" xlink:href="#Nimbus_Roman_No9_L_Regular_Italic-82"/>
      <use transform="translate(873.124678 0)scale(0.996264)" xlink:href="#CMMI10-61"/>
      <use transform="translate(922.937878 0)scale(0.996264)" xlink:href="#Nimbus_Roman_No9_L_Regular_Italic-78"/>
      <use transform="translate(993.522156 36.163231)scale(0.737241)" xlink:href="#Nimbus_Roman_No9_L_Regular_Italic-116"/>
      <use transform="translate(1019.029394 36.163231)scale(0.737241)" xlink:href="#Nimbus_Roman_No9_L_Regular_Italic-111"/>
      <use transform="translate(1054.048356 36.163231)scale(0.737241)" xlink:href="#Nimbus_Roman_No9_L_Regular_Italic-116"/>
      <use transform="translate(986.897189 -28.429978)scale(0.737241)" xlink:href="#Nimbus_Roman_No9_L_Regular_Italic-80"/>
     </g>
    </g>
   </g>
   <g id="matplotlib.axis_2">
    <g id="ytick_1">
     <g id="line2d_3">
      <defs>
       <path d="M 0 0 
L -3.5 0 
" id="mb12f2cfd1b" style="stroke:#000000;stroke-width:0.8;"/>
      </defs>
      <g>
       <use style="stroke:#000000;stroke-width:0.8;" x="54" xlink:href="#mb12f2cfd1b" y="360.74123"/>
      </g>
     </g>
     <g id="text_4">
      <!-- $\mathdefault{0.90}$ -->
      <defs>
       <path d="M 5.90625 -1.90625 
C 17.09375 -0.609375 22.59375 1.296875 29.40625 6.1875 
C 39.796875 13.796875 45.90625 26.1875 45.90625 39.71875 
C 45.90625 56.265625 36.703125 68 23.796875 68 
C 11.90625 68 3 57.875 3 44.328125 
C 3 32.109375 10.203125 24 21 24 
C 26.5 24 30.703125 25.59375 36 29.703125 
C 31.90625 13.390625 20.796875 2.6875 5.59375 0.09375 
z
M 36.203125 35.8125 
C 36.203125 33.8125 35.796875 32.90625 34.703125 32 
C 31.90625 29.59375 28.203125 28.296875 24.59375 28.296875 
C 17 28.296875 12.203125 35.8125 12.203125 47.75 
C 12.203125 53.453125 13.796875 59.46875 15.90625 62.078125 
C 17.59375 64.09375 20.09375 65.1875 23 65.1875 
C 31.703125 65.1875 36.203125 56.5625 36.203125 39.71875 
z
" id="Nimbus_Roman_No9_L_Regular-57"/>
      </defs>
      <g transform="translate(11.592981 367.495807)scale(0.2 -0.2)">
       <use transform="scale(0.996264)" xlink:href="#Nimbus_Roman_No9_L_Regular-48"/>
       <use transform="translate(49.8132 0)scale(0.996264)" xlink:href="#CMMI10-58"/>
       <use transform="translate(77.408707 0)scale(0.996264)" xlink:href="#Nimbus_Roman_No9_L_Regular-57"/>
       <use transform="translate(127.221908 0)scale(0.996264)" xlink:href="#Nimbus_Roman_No9_L_Regular-48"/>
      </g>
     </g>
    </g>
    <g id="ytick_2">
     <g id="line2d_4">
      <g>
       <use style="stroke:#000000;stroke-width:0.8;" x="54" xlink:href="#mb12f2cfd1b" y="310.666695"/>
      </g>
     </g>
     <g id="text_5">
      <!-- $\mathdefault{0.92}$ -->
      <defs>
       <path d="M 47.5 13.734375 
L 46.203125 14.25 
C 42.5 8.5 41.203125 7.59375 36.703125 7.59375 
L 12.796875 7.59375 
L 29.59375 25.328125 
C 38.5 34.703125 42.40625 42.359375 42.40625 50.21875 
C 42.40625 60.28125 34.296875 68 23.90625 68 
C 18.40625 68 13.203125 65.796875 9.5 61.796875 
C 6.296875 58.375 4.796875 55.15625 3.09375 48 
L 5.203125 47.484375 
C 9.203125 57.359375 12.796875 60.59375 19.703125 60.59375 
C 28.09375 60.59375 33.796875 54.84375 33.796875 46.390625 
C 33.796875 38.53125 29.203125 29.15625 20.796875 20.1875 
L 3 1.1875 
L 3 0 
L 42 0 
z
" id="Nimbus_Roman_No9_L_Regular-50"/>
      </defs>
      <g transform="translate(11.592981 317.421272)scale(0.2 -0.2)">
       <use transform="scale(0.996264)" xlink:href="#Nimbus_Roman_No9_L_Regular-48"/>
       <use transform="translate(49.8132 0)scale(0.996264)" xlink:href="#CMMI10-58"/>
       <use transform="translate(77.408707 0)scale(0.996264)" xlink:href="#Nimbus_Roman_No9_L_Regular-57"/>
       <use transform="translate(127.221908 0)scale(0.996264)" xlink:href="#Nimbus_Roman_No9_L_Regular-50"/>
      </g>
     </g>
    </g>
    <g id="ytick_3">
     <g id="line2d_5">
      <g>
       <use style="stroke:#000000;stroke-width:0.8;" x="54" xlink:href="#mb12f2cfd1b" y="260.59216"/>
      </g>
     </g>
     <g id="text_6">
      <!-- $\mathdefault{0.94}$ -->
      <defs>
       <path d="M 47.203125 23.390625 
L 37 23.390625 
L 37 68 
L 32.59375 68 
L 1.203125 23.390625 
L 1.203125 17 
L 29.296875 17 
L 29.296875 0 
L 37 0 
L 37 17 
L 47.203125 17 
z
M 29.203125 23.390625 
L 5.203125 23.390625 
L 29.203125 57.765625 
z
" id="Nimbus_Roman_No9_L_Regular-52"/>
      </defs>
      <g transform="translate(11.592981 267.346738)scale(0.2 -0.2)">
       <use transform="scale(0.996264)" xlink:href="#Nimbus_Roman_No9_L_Regular-48"/>
       <use transform="translate(49.8132 0)scale(0.996264)" xlink:href="#CMMI10-58"/>
       <use transform="translate(77.408707 0)scale(0.996264)" xlink:href="#Nimbus_Roman_No9_L_Regular-57"/>
       <use transform="translate(127.221908 0)scale(0.996264)" xlink:href="#Nimbus_Roman_No9_L_Regular-52"/>
      </g>
     </g>
    </g>
    <g id="ytick_4">
     <g id="line2d_6">
      <g>
       <use style="stroke:#000000;stroke-width:0.8;" x="54" xlink:href="#mb12f2cfd1b" y="210.517625"/>
      </g>
     </g>
     <g id="text_7">
      <!-- $\mathdefault{0.96}$ -->
      <defs>
       <path d="M 44.59375 68.59375 
C 33.203125 67.59375 27.40625 65.6875 20.09375 60.59375 
C 9.296875 52.890625 3.40625 41.484375 3.40625 28.140625 
C 3.40625 19.5 6.09375 10.75 10.40625 5.765625 
C 14.203125 1.390625 19.59375 -1 25.796875 -1 
C 38.203125 -1 46.796875 8.453125 46.796875 22.1875 
C 46.796875 34.90625 39.5 43 28 43 
C 23.59375 43 21.5 42.296875 15.203125 38.484375 
C 17.90625 53.59375 29.09375 64.390625 44.796875 67 
z
M 24.203125 38.390625 
C 32.796875 38.390625 37.796875 31.234375 37.796875 18.796875 
C 37.796875 7.859375 33.90625 1.796875 26.90625 1.796875 
C 18.09375 1.796875 12.703125 11.140625 12.703125 26.5625 
C 12.703125 31.625 13.5 34.421875 15.5 35.90625 
C 17.59375 37.5 20.703125 38.390625 24.203125 38.390625 
z
" id="Nimbus_Roman_No9_L_Regular-54"/>
      </defs>
      <g transform="translate(11.592981 217.272203)scale(0.2 -0.2)">
       <use transform="scale(0.996264)" xlink:href="#Nimbus_Roman_No9_L_Regular-48"/>
       <use transform="translate(49.8132 0)scale(0.996264)" xlink:href="#CMMI10-58"/>
       <use transform="translate(77.408707 0)scale(0.996264)" xlink:href="#Nimbus_Roman_No9_L_Regular-57"/>
       <use transform="translate(127.221908 0)scale(0.996264)" xlink:href="#Nimbus_Roman_No9_L_Regular-54"/>
      </g>
     </g>
    </g>
    <g id="ytick_5">
     <g id="line2d_7">
      <g>
       <use style="stroke:#000000;stroke-width:0.8;" x="54" xlink:href="#mb12f2cfd1b" y="160.443091"/>
      </g>
     </g>
     <g id="text_8">
      <!-- $\mathdefault{0.98}$ -->
      <defs>
       <path d="M 29 37.5 
C 38.90625 42.796875 42.40625 47 42.40625 53.796875 
C 42.40625 62 35.203125 68 25.203125 68 
C 14.296875 68 6.203125 61.296875 6.203125 52.203125 
C 6.203125 45.6875 8.09375 42.796875 18.59375 33.59375 
C 7.796875 25.390625 5.59375 22.296875 5.59375 15.5 
C 5.59375 5.796875 13.5 -1 24.796875 -1 
C 36.796875 -1 44.5 5.59375 44.5 15.890625 
C 44.5 23.59375 41.09375 28.5 29 37.5 
z
M 27.203125 27.1875 
C 34.5 22 36.90625 18.390625 36.90625 12.796875 
C 36.90625 6.296875 32.40625 1.796875 25.90625 1.796875 
C 18.296875 1.796875 13.203125 7.59375 13.203125 16.296875 
C 13.203125 22.6875 15.40625 26.890625 21.203125 31.59375 
z
M 26.09375 39.296875 
C 17.203125 45.09375 13.59375 49.6875 13.59375 55.296875 
C 13.59375 61.09375 18.09375 65.1875 24.40625 65.1875 
C 31.203125 65.1875 35.5 60.796875 35.5 53.890625 
C 35.5 48.1875 32.703125 43.6875 27 39.890625 
C 26.5 39.59375 26.5 39.59375 26.09375 39.296875 
z
" id="Nimbus_Roman_No9_L_Regular-56"/>
      </defs>
      <g transform="translate(11.592981 167.197668)scale(0.2 -0.2)">
       <use transform="scale(0.996264)" xlink:href="#Nimbus_Roman_No9_L_Regular-48"/>
       <use transform="translate(49.8132 0)scale(0.996264)" xlink:href="#CMMI10-58"/>
       <use transform="translate(77.408707 0)scale(0.996264)" xlink:href="#Nimbus_Roman_No9_L_Regular-57"/>
       <use transform="translate(127.221908 0)scale(0.996264)" xlink:href="#Nimbus_Roman_No9_L_Regular-56"/>
      </g>
     </g>
    </g>
    <g id="ytick_6">
     <g id="line2d_8">
      <g>
       <use style="stroke:#000000;stroke-width:0.8;" x="54" xlink:href="#mb12f2cfd1b" y="110.368556"/>
      </g>
     </g>
     <g id="text_9">
      <!-- $\mathdefault{1.00}$ -->
      <g transform="translate(11.592981 117.123134)scale(0.2 -0.2)">
       <use transform="scale(0.996264)" xlink:href="#Nimbus_Roman_No9_L_Regular-49"/>
       <use transform="translate(49.8132 0)scale(0.996264)" xlink:href="#CMMI10-58"/>
       <use transform="translate(77.408707 0)scale(0.996264)" xlink:href="#Nimbus_Roman_No9_L_Regular-48"/>
       <use transform="translate(127.221908 0)scale(0.996264)" xlink:href="#Nimbus_Roman_No9_L_Regular-48"/>
      </g>
     </g>
    </g>
    <g id="ytick_7">
     <g id="line2d_9">
      <g>
       <use style="stroke:#000000;stroke-width:0.8;" x="54" xlink:href="#mb12f2cfd1b" y="60.294021"/>
      </g>
     </g>
     <g id="text_10">
      <!-- $\mathdefault{1.02}$ -->
      <g transform="translate(11.592981 67.048599)scale(0.2 -0.2)">
       <use transform="scale(0.996264)" xlink:href="#Nimbus_Roman_No9_L_Regular-49"/>
       <use transform="translate(49.8132 0)scale(0.996264)" xlink:href="#CMMI10-58"/>
       <use transform="translate(77.408707 0)scale(0.996264)" xlink:href="#Nimbus_Roman_No9_L_Regular-48"/>
       <use transform="translate(127.221908 0)scale(0.996264)" xlink:href="#Nimbus_Roman_No9_L_Regular-50"/>
      </g>
     </g>
    </g>
    <g id="text_11">
     <!-- Relative change in mRNA levels -->
     <defs>
      <path d="M 40.796875 16.4375 
C 36 8.8125 31.703125 5.890625 25.296875 5.890625 
C 19.59375 5.890625 15.296875 8.8125 12.40625 14.53125 
C 10.59375 18.34375 9.90625 21.65625 9.703125 27.796875 
L 40.5 27.796875 
C 39.703125 34.265625 38.703125 37.140625 36.203125 40.3125 
C 33.203125 43.890625 28.59375 46 23.40625 46 
C 18.40625 46 13.703125 44.1875 9.90625 40.8125 
C 5.203125 36.734375 2.5 29.6875 2.5 21.46875 
C 2.5 7.59375 9.703125 -1 21.203125 -1 
C 30.703125 -1 38.203125 4.890625 42.40625 15.734375 
z
M 9.90625 31 
C 11 38.71875 14.40625 42.390625 20.5 42.390625 
C 26.59375 42.390625 29 39.609375 30.296875 31 
z
" id="Nimbus_Roman_No9_L_Regular-101"/>
      <path d="M 17.5 46 
L 2 40.5 
L 2 39 
L 2.796875 39.09375 
C 4 39.296875 5.296875 39.390625 6.203125 39.390625 
C 8.59375 39.390625 9.5 37.796875 9.5 33.390625 
L 9.5 10.1875 
C 9.5 3 8.5 1.890625 1.59375 1.5 
L 1.59375 0 
L 25.296875 0 
L 25.296875 1.5 
C 18.703125 2 17.90625 3 17.90625 10.1875 
L 17.90625 45.6875 
z
M 12.796875 68 
C 10.09375 68 7.796875 65.6875 7.796875 62.890625 
C 7.796875 60.09375 10 57.796875 12.796875 57.796875 
C 15.703125 57.796875 18 59.984375 18 62.890625 
C 18 65.6875 15.703125 68 12.796875 68 
z
" id="Nimbus_Roman_No9_L_Regular-105"/>
      <path d="M 47.703125 45 
L 33.796875 45 
L 33.796875 43.484375 
C 37 43.1875 38.5 42.203125 38.5 40.3125 
C 38.5 39.328125 38.296875 38.34375 37.90625 37.34375 
L 28 11.6875 
L 17.796875 37.046875 
C 17.203125 38.4375 16.90625 39.828125 16.90625 40.71875 
C 16.90625 42.5 18 43.1875 21.5 43.484375 
L 21.5 45 
L 1.90625 45 
L 1.90625 43.484375 
C 5.703125 43.296875 6.40625 42.296875 11 32.09375 
L 23 3.671875 
C 23.203125 3.078125 23.5 2.375 23.796875 1.59375 
C 24.40625 -0.203125 25 -1 25.59375 -1 
C 26.203125 -1 26.90625 0.296875 28.40625 3.96875 
L 41.203125 35.765625 
C 44.09375 42.5 44.703125 43.1875 47.703125 43.484375 
z
" id="Nimbus_Roman_No9_L_Regular-118"/>
      <path d="M 15.703125 34.296875 
C 19.90625 38.890625 22.90625 40.59375 26.796875 40.59375 
C 31.796875 40.59375 34.296875 37 34.296875 30 
L 34.296875 10.1875 
C 34.296875 3.390625 33.296875 2.09375 27.5 1.5 
L 27.5 0 
L 48.703125 0 
L 48.703125 1.5 
C 43.296875 2.5 42.703125 3.296875 42.703125 10.1875 
L 42.703125 30.09375 
C 42.703125 40.59375 38.5 46 30.40625 46 
C 24.5 46 20.296875 43.59375 15.703125 37.59375 
L 15.703125 68 
L 15.203125 68.296875 
C 11.796875 67.09375 9.296875 66.296875 3.703125 64.6875 
L 1 63.890625 
L 1 62.296875 
C 1.40625 62.390625 1.703125 62.390625 2.203125 62.390625 
C 6.5 62.390625 7.296875 61.59375 7.296875 57.296875 
L 7.296875 10.1875 
C 7.296875 3.1875 6.703125 2.296875 0.90625 1.5 
L 0.90625 0 
L 22.5 0 
L 22.5 1.5 
C 16.703125 2.09375 15.703125 3.296875 15.703125 10.1875 
z
" id="Nimbus_Roman_No9_L_Regular-104"/>
      <path d="M 47 38.09375 
L 47 42 
L 39.296875 42 
C 37.296875 42 35.796875 42.71875 33.796875 43.6875 
L 31.59375 44.484375 
C 28.90625 45.484375 26.203125 46 23.59375 46 
C 14.296875 46 6.90625 38.09375 6.90625 29.328125 
C 6.90625 23.265625 9.59375 19.609375 16.203125 16.390625 
C 14.296875 14.59375 12.5 12.90625 11.90625 12.40625 
C 8.59375 9.53125 7.296875 7.546875 7.296875 5.5625 
C 7.296875 3.484375 8.5 2.296875 12.59375 0.296875 
C 5.5 -4.9375 2.796875 -8.265625 2.796875 -11.984375 
C 2.796875 -17.3125 10.59375 -21.703125 20.09375 -21.703125 
C 27.59375 -21.703125 35.40625 -19.109375 40.59375 -14.90625 
C 44.40625 -11.78125 46.09375 -8.5625 46.09375 -4.734375 
C 46.09375 1.5 41.40625 5.671875 34 5.96875 
L 21.09375 6.5625 
C 15.796875 6.75 13.296875 7.65625 13.296875 9.234375 
C 13.296875 11.21875 16.59375 14.703125 19.296875 15.5 
C 20.203125 15.390625 20.90625 15.296875 21.203125 15.296875 
C 23.09375 15.09375 24.40625 15 25 15 
C 28.703125 15 32.703125 16.5 35.796875 19.125 
C 39.09375 21.828125 40.59375 25.1875 40.59375 30 
C 40.59375 32.796875 40.09375 35.015625 38.703125 38.09375 
z
M 14.703125 0 
C 18 -0.71875 26 -1.3125 30.90625 -1.3125 
C 40 -1.3125 43.296875 -2.625 43.296875 -6.25 
C 43.296875 -12.078125 35.703125 -16 24.40625 -16 
C 15.59375 -16 9.796875 -13.09375 9.796875 -8.65625 
C 9.796875 -6.34375 10.5 -5.03125 14.703125 0 
z
M 15.203125 33.28125 
C 15.203125 38.984375 18 43.1875 22.59375 43.1875 
C 25.703125 43.1875 28.296875 40.796875 29.90625 37.796875 
C 31.703125 34.4375 32.90625 30 32.90625 26.25 
C 32.90625 20.859375 30 17.5 25.40625 17.5 
C 19.40625 17.5 15.203125 23.75 15.203125 32.984375 
z
" id="Nimbus_Roman_No9_L_Regular-103"/>
     </defs>
     <g transform="translate(3.279324 344.931184)rotate(-90)scale(0.2 -0.2)">
      <use transform="scale(0.996264)" xlink:href="#Nimbus_Roman_No9_L_Regular-82"/>
      <use transform="translate(66.450031 0)scale(0.996264)" xlink:href="#Nimbus_Roman_No9_L_Regular-101"/>
      <use transform="translate(110.6836 0)scale(0.996264)" xlink:href="#Nimbus_Roman_No9_L_Regular-108"/>
      <use transform="translate(138.378769 0)scale(0.996264)" xlink:href="#Nimbus_Roman_No9_L_Regular-97"/>
      <use transform="translate(182.612338 0)scale(0.996264)" xlink:href="#Nimbus_Roman_No9_L_Regular-116"/>
      <use transform="translate(210.307508 0)scale(0.996264)" xlink:href="#Nimbus_Roman_No9_L_Regular-105"/>
      <use transform="translate(235.512048 0)scale(0.996264)" xlink:href="#Nimbus_Roman_No9_L_Regular-118"/>
      <use transform="translate(283.831856 0)scale(0.996264)" xlink:href="#Nimbus_Roman_No9_L_Regular-101"/>
      <use transform="translate(352.972024 0)scale(0.996264)" xlink:href="#Nimbus_Roman_No9_L_Regular-99"/>
      <use transform="translate(397.205593 0)scale(0.996264)" xlink:href="#Nimbus_Roman_No9_L_Regular-104"/>
      <use transform="translate(447.018794 0)scale(0.996264)" xlink:href="#Nimbus_Roman_No9_L_Regular-97"/>
      <use transform="translate(491.252362 0)scale(0.996264)" xlink:href="#Nimbus_Roman_No9_L_Regular-110"/>
      <use transform="translate(541.065563 0)scale(0.996264)" xlink:href="#Nimbus_Roman_No9_L_Regular-103"/>
      <use transform="translate(590.878763 0)scale(0.996264)" xlink:href="#Nimbus_Roman_No9_L_Regular-101"/>
      <use transform="translate(660.018932 0)scale(0.996264)" xlink:href="#Nimbus_Roman_No9_L_Regular-105"/>
      <use transform="translate(687.714102 0)scale(0.996264)" xlink:href="#Nimbus_Roman_No9_L_Regular-110"/>
      <use transform="translate(762.433903 0)scale(0.996264)" xlink:href="#Nimbus_Roman_No9_L_Regular-109"/>
      <use transform="translate(839.942273 0)scale(0.996264)" xlink:href="#Nimbus_Roman_No9_L_Regular-82"/>
      <use transform="translate(906.392304 0)scale(0.996264)" xlink:href="#Nimbus_Roman_No9_L_Regular-78"/>
      <use transform="translate(974.835562 0)scale(0.996264)" xlink:href="#Nimbus_Roman_No9_L_Regular-65"/>
      <use transform="translate(1071.672147 0)scale(0.996264)" xlink:href="#Nimbus_Roman_No9_L_Regular-108"/>
      <use transform="translate(1099.367317 0)scale(0.996264)" xlink:href="#Nimbus_Roman_No9_L_Regular-101"/>
      <use transform="translate(1141.110256 0)scale(0.996264)" xlink:href="#Nimbus_Roman_No9_L_Regular-118"/>
      <use transform="translate(1189.430064 0)scale(0.996264)" xlink:href="#Nimbus_Roman_No9_L_Regular-101"/>
      <use transform="translate(1233.663633 0)scale(0.996264)" xlink:href="#Nimbus_Roman_No9_L_Regular-108"/>
      <use transform="translate(1261.358802 0)scale(0.996264)" xlink:href="#Nimbus_Roman_No9_L_Regular-115"/>
     </g>
    </g>
   </g>
   <g id="line2d_10">
    <path clip-path="url(#p5156195f51)" d="M 69.218182 110.368556 
L 204.490909 66.665455 
L 373.581818 160.797772 
" style="fill:none;stroke:#cecfe5;stroke-linecap:square;stroke-width:1.5;"/>
    <defs>
     <path d="M 0 3 
C 0.795609 3 1.55874 2.683901 2.12132 2.12132 
C 2.683901 1.55874 3 0.795609 3 0 
C 3 -0.795609 2.683901 -1.55874 2.12132 -2.12132 
C 1.55874 -2.683901 0.795609 -3 0 -3 
C -0.795609 -3 -1.55874 -2.683901 -2.12132 -2.12132 
C -2.683901 -1.55874 -3 -0.795609 -3 0 
C -3 0.795609 -2.683901 1.55874 -2.12132 2.12132 
C -1.55874 2.683901 -0.795609 3 0 3 
z
" id="m988b1522f5" style="stroke:#cecfe5;"/>
    </defs>
    <g clip-path="url(#p5156195f51)">
     <use style="fill:#cecfe5;stroke:#cecfe5;" x="69.218182" xlink:href="#m988b1522f5" y="110.368556"/>
     <use style="fill:#cecfe5;stroke:#cecfe5;" x="204.490909" xlink:href="#m988b1522f5" y="66.665455"/>
     <use style="fill:#cecfe5;stroke:#cecfe5;" x="373.581818" xlink:href="#m988b1522f5" y="160.797772"/>
    </g>
   </g>
   <g id="line2d_11">
    <path clip-path="url(#p5156195f51)" d="M 69.218182 110.368556 
L 204.490909 252.505488 
L 373.581818 363.174545 
" style="fill:none;stroke:#7b74b5;stroke-linecap:square;stroke-width:1.5;"/>
    <defs>
     <path d="M 0 3 
C 0.795609 3 1.55874 2.683901 2.12132 2.12132 
C 2.683901 1.55874 3 0.795609 3 0 
C 3 -0.795609 2.683901 -1.55874 2.12132 -2.12132 
C 1.55874 -2.683901 0.795609 -3 0 -3 
C -0.795609 -3 -1.55874 -2.683901 -2.12132 -2.12132 
C -2.683901 -1.55874 -3 -0.795609 -3 0 
C -3 0.795609 -2.683901 1.55874 -2.12132 2.12132 
C -1.55874 2.683901 -0.795609 3 0 3 
z
" id="mb43a6fef46" style="stroke:#7b74b5;"/>
    </defs>
    <g clip-path="url(#p5156195f51)">
     <use style="fill:#7b74b5;stroke:#7b74b5;" x="69.218182" xlink:href="#mb43a6fef46" y="110.368556"/>
     <use style="fill:#7b74b5;stroke:#7b74b5;" x="204.490909" xlink:href="#mb43a6fef46" y="252.505488"/>
     <use style="fill:#7b74b5;stroke:#7b74b5;" x="373.581818" xlink:href="#mb43a6fef46" y="363.174545"/>
    </g>
   </g>
   <g id="line2d_12">
    <path clip-path="url(#p5156195f51)" d="M 69.218182 110.368556 
L 204.490909 270.966597 
L 373.581818 355.150546 
" style="fill:none;stroke:#3f007d;stroke-linecap:square;stroke-width:1.5;"/>
    <defs>
     <path d="M 0 3 
C 0.795609 3 1.55874 2.683901 2.12132 2.12132 
C 2.683901 1.55874 3 0.795609 3 0 
C 3 -0.795609 2.683901 -1.55874 2.12132 -2.12132 
C 1.55874 -2.683901 0.795609 -3 0 -3 
C -0.795609 -3 -1.55874 -2.683901 -2.12132 -2.12132 
C -2.683901 -1.55874 -3 -0.795609 -3 0 
C -3 0.795609 -2.683901 1.55874 -2.12132 2.12132 
C -1.55874 2.683901 -0.795609 3 0 3 
z
" id="m1666d3bf39" style="stroke:#3f007d;"/>
    </defs>
    <g clip-path="url(#p5156195f51)">
     <use style="fill:#3f007d;stroke:#3f007d;" x="69.218182" xlink:href="#m1666d3bf39" y="110.368556"/>
     <use style="fill:#3f007d;stroke:#3f007d;" x="204.490909" xlink:href="#m1666d3bf39" y="270.966597"/>
     <use style="fill:#3f007d;stroke:#3f007d;" x="373.581818" xlink:href="#m1666d3bf39" y="355.150546"/>
    </g>
   </g>
   <g id="patch_3">
    <path d="M 54 378 
L 54 51.84 
" style="fill:none;stroke:#000000;stroke-linecap:square;stroke-linejoin:miter;stroke-width:0.8;"/>
   </g>
   <g id="patch_4">
    <path d="M 388.8 378 
L 388.8 51.84 
" style="fill:none;stroke:#000000;stroke-linecap:square;stroke-linejoin:miter;stroke-width:0.8;"/>
   </g>
   <g id="patch_5">
    <path d="M 54 378 
L 388.8 378 
" style="fill:none;stroke:#000000;stroke-linecap:square;stroke-linejoin:miter;stroke-width:0.8;"/>
   </g>
   <g id="patch_6">
    <path d="M 54 51.84 
L 388.8 51.84 
" style="fill:none;stroke:#000000;stroke-linecap:square;stroke-linejoin:miter;stroke-width:0.8;"/>
   </g>
   <g id="legend_1">
    <g id="patch_7">
     <path d="M 402.8 260.390487 
L 559.980708 260.390487 
Q 563.980708 260.390487 563.980708 256.390487 
L 563.980708 173.449513 
Q 563.980708 169.449513 559.980708 169.449513 
L 402.8 169.449513 
Q 398.8 169.449513 398.8 173.449513 
L 398.8 256.390487 
Q 398.8 260.390487 402.8 260.390487 
z
" style="fill:#ffffff;opacity:0.8;stroke:#cccccc;stroke-linejoin:miter;"/>
    </g>
    <g id="line2d_13">
     <path d="M 406.8 184.449513 
L 433 184.449513 
" style="fill:none;stroke:#cecfe5;stroke-linecap:square;stroke-width:1.5;"/>
    </g>
    <g id="line2d_14">
     <g>
      <use style="fill:#cecfe5;stroke:#cecfe5;" x="426.8" xlink:href="#m988b1522f5" y="184.449513"/>
     </g>
    </g>
    <g id="text_12">
     <!-- $k_{RE}=$0.005 -->
     <defs>
      <path d="M 41.40625 11 
L 39.90625 8.390625 
C 38.09375 5.296875 36.90625 4.1875 35.40625 4.1875 
C 33.296875 4.1875 31.203125 7.5 27.296875 17.09375 
C 26.796875 18.390625 25.296875 22 23.59375 25.890625 
C 38.296875 39 41.40625 41 46.09375 41.296875 
L 46.09375 42.890625 
L 27.796875 42.890625 
L 27.796875 41.296875 
L 29.40625 41.296875 
C 31.90625 41.296875 33.296875 40.59375 33.296875 39.5 
C 33.296875 37.5 28.296875 32.59375 19 25.5 
C 17.59375 24.390625 16.40625 23.390625 14.703125 22.1875 
L 26.703125 67.890625 
L 26.203125 68.390625 
C 20.296875 67.09375 16.5 66.390625 10.59375 65.703125 
L 10.59375 64.09375 
C 15.40625 64.203125 17.296875 63.5 17.40625 61.59375 
C 17.203125 59.890625 16.5 57.203125 15.203125 52.59375 
C 14.796875 51.203125 14.5 50.09375 14.296875 49.296875 
L 14.09375 48.390625 
L 1.40625 0.09375 
L 8.90625 0.09375 
L 13.703125 18.09375 
L 17.90625 21.296875 
C 19.5 16.890625 22.09375 10.796875 23.90625 7.1875 
C 27.09375 0.890625 28.90625 -1 31.796875 -1 
C 35.796875 -1 38.40625 1.5 42.90625 9.890625 
z
" id="Nimbus_Roman_No9_L_Regular_Italic-107"/>
      <path d="M 63.40625 65 
L 13.703125 65 
L 13.703125 63.390625 
C 19.90625 62.796875 21.40625 61.984375 21.40625 59.296875 
C 21.40625 58.203125 20.796875 54.734375 20.296875 52.9375 
L 8 8.96875 
C 6.296875 3.296875 5.5 2.59375 -0.109375 1.59375 
L -0.109375 0 
L 50.59375 0 
L 56.796875 16.125 
L 55.203125 16.921875 
C 50.5 10.5625 47.90625 7.96875 43.59375 5.984375 
C 39.90625 4.28125 33.09375 3.296875 25.59375 3.296875 
C 20 3.296875 17.59375 4.28125 17.59375 6.671875 
C 17.59375 7.765625 18.703125 12.4375 21.203125 21.203125 
C 22.5 25.578125 23.40625 28.859375 24.40625 32.640625 
C 27.90625 32.4375 31 32.34375 32.203125 32.34375 
C 36.09375 32.4375 38.90625 31.84375 40 30.84375 
C 40.5 30.359375 40.703125 29.453125 40.703125 27.765625 
C 40.703125 26.078125 40.5 24.78125 40 22.59375 
L 42 22.09375 
L 48.796875 45.171875 
L 47 45.578125 
C 43.203125 37.125 42.296875 36.515625 33.203125 36.125 
C 32 36.125 28.796875 36.03125 25.296875 35.921875 
L 31.90625 59.109375 
C 32.5 61.296875 33.59375 61.6875 39.203125 61.6875 
C 54.90625 61.6875 58.40625 60.390625 58.40625 54.421875 
C 58.40625 53.140625 58.296875 51.640625 58.203125 49.953125 
L 60.296875 49.75 
z
" id="Nimbus_Roman_No9_L_Regular_Italic-69"/>
      <path d="M 68.703125 32.984375 
C 70.203125 32.984375 72.09375 32.984375 72.09375 34.984375 
C 72.09375 37 70.203125 37 68.796875 37 
L 8.90625 37 
C 7.5 37 5.59375 37 5.59375 34.984375 
C 5.59375 32.984375 7.5 32.984375 9 32.984375 
z
M 68.796875 13 
C 70.203125 13 72.09375 13 72.09375 15 
C 72.09375 17 70.203125 17 68.703125 17 
L 9 17 
C 7.5 17 5.59375 17 5.59375 15 
C 5.59375 13 7.5 13 8.90625 13 
z
" id="CMR10-61"/>
      <path d="M 12.5 10.09375 
C 9.5 10.09375 7 7.5 7 4.390625 
C 7 1.5 9.5 -1 12.40625 -1 
C 15.5 -1 18.09375 1.5 18.09375 4.390625 
C 18.09375 7.5 15.5 10.09375 12.5 10.09375 
z
" id="Nimbus_Roman_No9_L_Regular-46"/>
     </defs>
     <g transform="translate(462.8 191.449513)scale(0.2 -0.2)">
      <use transform="scale(0.996264)" xlink:href="#Nimbus_Roman_No9_L_Regular_Italic-107"/>
      <use transform="translate(44.233569 -14.943915)scale(0.737241)" xlink:href="#Nimbus_Roman_No9_L_Regular_Italic-82"/>
      <use transform="translate(89.278913 -14.943915)scale(0.737241)" xlink:href="#Nimbus_Roman_No9_L_Regular_Italic-69"/>
      <use transform="translate(162.343239 0)scale(0.996264)" xlink:href="#CMR10-61"/>
      <use transform="translate(239.751946 0)scale(0.996264)" xlink:href="#Nimbus_Roman_No9_L_Regular-48"/>
      <use transform="translate(289.565147 0)scale(0.996264)" xlink:href="#Nimbus_Roman_No9_L_Regular-46"/>
      <use transform="translate(314.471747 0)scale(0.996264)" xlink:href="#Nimbus_Roman_No9_L_Regular-48"/>
      <use transform="translate(364.284948 0)scale(0.996264)" xlink:href="#Nimbus_Roman_No9_L_Regular-48"/>
      <use transform="translate(414.098148 0)scale(0.996264)" xlink:href="#Nimbus_Roman_No9_L_Regular-53"/>
     </g>
    </g>
    <g id="line2d_15">
     <path d="M 406.8 212.763171 
L 433 212.763171 
" style="fill:none;stroke:#7b74b5;stroke-linecap:square;stroke-width:1.5;"/>
    </g>
    <g id="line2d_16">
     <g>
      <use style="fill:#7b74b5;stroke:#7b74b5;" x="426.8" xlink:href="#mb43a6fef46" y="212.763171"/>
     </g>
    </g>
    <g id="text_13">
     <!-- $k_{RE}=$0.02 -->
     <g transform="translate(462.8 219.763171)scale(0.2 -0.2)">
      <use transform="scale(0.996264)" xlink:href="#Nimbus_Roman_No9_L_Regular_Italic-107"/>
      <use transform="translate(44.233569 -14.943915)scale(0.737241)" xlink:href="#Nimbus_Roman_No9_L_Regular_Italic-82"/>
      <use transform="translate(89.278913 -14.943915)scale(0.737241)" xlink:href="#Nimbus_Roman_No9_L_Regular_Italic-69"/>
      <use transform="translate(162.343239 0)scale(0.996264)" xlink:href="#CMR10-61"/>
      <use transform="translate(239.751946 0)scale(0.996264)" xlink:href="#Nimbus_Roman_No9_L_Regular-48"/>
      <use transform="translate(289.565147 0)scale(0.996264)" xlink:href="#Nimbus_Roman_No9_L_Regular-46"/>
      <use transform="translate(314.471747 0)scale(0.996264)" xlink:href="#Nimbus_Roman_No9_L_Regular-48"/>
      <use transform="translate(364.284948 0)scale(0.996264)" xlink:href="#Nimbus_Roman_No9_L_Regular-50"/>
     </g>
    </g>
    <g id="line2d_17">
     <path d="M 406.8 241.076829 
L 433 241.076829 
" style="fill:none;stroke:#3f007d;stroke-linecap:square;stroke-width:1.5;"/>
    </g>
    <g id="line2d_18">
     <g>
      <use style="fill:#3f007d;stroke:#3f007d;" x="426.8" xlink:href="#m1666d3bf39" y="241.076829"/>
     </g>
    </g>
    <g id="text_14">
     <!-- $k_{RE}=$0.05 -->
     <g transform="translate(462.8 248.076829)scale(0.2 -0.2)">
      <use transform="scale(0.996264)" xlink:href="#Nimbus_Roman_No9_L_Regular_Italic-107"/>
      <use transform="translate(44.233569 -14.943915)scale(0.737241)" xlink:href="#Nimbus_Roman_No9_L_Regular_Italic-82"/>
      <use transform="translate(89.278913 -14.943915)scale(0.737241)" xlink:href="#Nimbus_Roman_No9_L_Regular_Italic-69"/>
      <use transform="translate(162.343239 0)scale(0.996264)" xlink:href="#CMR10-61"/>
      <use transform="translate(239.751946 0)scale(0.996264)" xlink:href="#Nimbus_Roman_No9_L_Regular-48"/>
      <use transform="translate(289.565147 0)scale(0.996264)" xlink:href="#Nimbus_Roman_No9_L_Regular-46"/>
      <use transform="translate(314.471747 0)scale(0.996264)" xlink:href="#Nimbus_Roman_No9_L_Regular-48"/>
      <use transform="translate(364.284948 0)scale(0.996264)" xlink:href="#Nimbus_Roman_No9_L_Regular-53"/>
     </g>
    </g>
   </g>
  </g>
 </g>
 <defs>
  <clipPath id="p5156195f51">
   <rect height="326.16" width="334.8" x="54" y="51.84"/>
  </clipPath>
 </defs>
</svg>
