<?xml version="1.0" encoding="utf-8" standalone="no"?>
<!DOCTYPE svg PUBLIC "-//W3C//DTD SVG 1.1//EN"
  "http://www.w3.org/Graphics/SVG/1.1/DTD/svg11.dtd">
<!-- Created with matplotlib (http://matplotlib.org/) -->
<svg height="504pt" version="1.1" viewBox="0 0 504 504" width="504pt" xmlns="http://www.w3.org/2000/svg" xmlns:xlink="http://www.w3.org/1999/xlink">
 <defs>
  <style type="text/css">
*{stroke-linecap:butt;stroke-linejoin:round;}
  </style>
 </defs>
 <g id="figure_1">
  <g id="patch_1">
   <path d="M 0 504 
L 504 504 
L 504 0 
L 0 0 
z
" style="fill:#ffffff;"/>
  </g>
  <g id="axes_1">
   <g id="patch_2">
    <path d="M 63 441 
L 375.48 441 
L 375.48 60.48 
L 63 60.48 
z
" style="fill:#ffffff;"/>
   </g>
   <g id="PathCollection_1">
    <path clip-path="url(#pc1094c849b)" d="M 259.7025 81.022604 
L 273.946455 78.065971 
L 294.555 71.699163 
L 331.927326 60.48 
L 294.555 60.48 
L 259.7025 60.48 
L 253.412172 60.48 
L 258.811715 78.065971 
z
" style="fill:#46075a;"/>
   </g>
   <g id="PathCollection_2">
    <path clip-path="url(#pc1094c849b)" d="M 259.7025 103.180193 
L 270.086206 100.73823 
L 294.555 91.376205 
L 335.404528 78.065971 
L 363.053992 60.48 
L 331.927326 60.48 
L 294.555 71.699163 
L 273.946455 78.065971 
L 259.7025 81.022604 
L 258.811715 78.065971 
L 253.412172 60.48 
L 246.207386 60.48 
L 252.483327 78.065971 
L 258.964566 100.73823 
z
" style="fill:#481668;"/>
   </g>
   <g id="PathCollection_3">
    <path clip-path="url(#pc1094c849b)" d="M 259.7025 126.045669 
L 294.555 112.328849 
L 332.141744 100.73823 
L 365.142037 78.065971 
L 375.48 67.642 
L 375.48 60.48 
L 363.053992 60.48 
L 335.404528 78.065971 
L 294.555 91.376205 
L 270.086206 100.73823 
L 259.7025 103.180193 
L 258.964566 100.73823 
L 252.483327 78.065971 
L 246.207386 60.48 
L 237.794753 60.48 
L 245.242201 78.065971 
L 252.633467 100.73823 
z
" style="fill:#482374;"/>
   </g>
   <g id="PathCollection_4">
    <path clip-path="url(#pc1094c849b)" d="M 259.7025 149.250758 
L 294.555 136.222012 
L 310.71202 132.692985 
L 364.611016 100.73823 
L 375.48 88.380696 
L 375.48 78.065971 
L 375.48 67.642 
L 365.142037 78.065971 
L 332.141744 100.73823 
L 294.555 112.328849 
L 259.7025 126.045669 
L 252.633467 100.73823 
L 245.242201 78.065971 
L 237.794753 60.48 
L 227.686088 60.48 
L 236.779948 78.065971 
L 245.38879 100.73823 
L 254.80779 132.692985 
z
" style="fill:#472f7d;"/>
   </g>
   <g id="PathCollection_5">
    <path clip-path="url(#pc1094c849b)" d="M 259.7025 178.237817 
L 294.555 161.63626 
L 359.792089 132.692985 
L 375.48 113.736568 
L 375.48 100.73823 
L 375.48 88.380696 
L 364.611016 100.73823 
L 310.71202 132.692985 
L 294.555 136.222012 
L 259.7025 149.250758 
L 254.80779 132.692985 
L 245.38879 100.73823 
L 236.779948 78.065971 
L 227.686088 60.48 
L 215.020314 60.48 
L 226.599478 78.065971 
L 236.921684 100.73823 
L 247.53997 132.692985 
z
" style="fill:#443b84;"/>
   </g>
   <g id="PathCollection_6">
    <path clip-path="url(#pc1094c849b)" d="M 259.7025 213.375554 
L 294.555 197.140556 
L 329.815663 187.32 
L 375.48 147.518993 
L 375.48 132.692985 
L 375.48 113.736568 
L 359.792089 132.692985 
L 294.555 161.63626 
L 259.7025 178.237817 
L 247.53997 132.692985 
L 236.921684 100.73823 
L 226.599478 78.065971 
L 215.020314 60.48 
L 198.049193 60.48 
L 213.820553 78.065971 
L 226.734181 100.73823 
L 239.041214 132.692985 
L 253.537026 187.32 
z
" style="fill:#3f4788;"/>
   </g>
   <g id="PathCollection_7">
    <path clip-path="url(#pc1094c849b)" d="M 259.7025 265.74531 
L 276.997646 259.532985 
L 294.555 249.401544 
L 352.720553 227.57823 
L 375.48 201.728936 
L 375.48 187.32 
L 375.48 147.518993 
L 329.815663 187.32 
L 294.555 197.140556 
L 259.7025 213.375554 
L 253.537026 187.32 
L 239.041214 132.692985 
L 226.734181 100.73823 
L 213.820553 78.065971 
L 198.049193 60.48 
L 178.7775 60.48 
L 178.095559 60.48 
L 178.7775 64.023756 
L 196.644781 78.065971 
L 213.944152 100.73823 
L 228.807809 132.692985 
L 244.001188 187.32 
L 252.013229 227.57823 
L 258.356644 259.532985 
z
" style="fill:#3b528b;"/>
   </g>
   <g id="PathCollection_8">
    <path clip-path="url(#pc1094c849b)" d="M 143.925 441 
L 178.7775 441 
L 259.7025 441 
L 294.555 441 
L 375.48 441 
L 375.48 314.16 
L 375.48 259.532985 
L 375.48 227.57823 
L 375.48 201.728936 
L 352.720553 227.57823 
L 294.555 249.401544 
L 276.997646 259.532985 
L 259.7025 265.74531 
L 258.356644 259.532985 
L 252.013229 227.57823 
L 244.001188 187.32 
L 228.807809 132.692985 
L 213.944152 100.73823 
L 196.644781 78.065971 
L 178.7775 64.023756 
L 178.095559 60.48 
L 174.663867 60.48 
L 177.918801 78.065971 
L 178.7775 83.465132 
L 196.748226 100.73823 
L 215.945202 132.692985 
L 232.223431 187.32 
L 238.06689 227.57823 
L 240.841659 259.532985 
L 243.545363 314.16 
L 178.7775 441 
L 143.925 441 
L 63 441 
z
" style="fill:#365c8d;"/>
   </g>
   <g id="PathCollection_9">
    <path clip-path="url(#pc1094c849b)" d="M 143.925 441 
L 178.7775 441 
L 243.545363 314.16 
L 240.841659 259.532985 
L 238.06689 227.57823 
L 232.223431 187.32 
L 215.945202 132.692985 
L 196.748226 100.73823 
L 178.7775 83.465132 
L 177.918801 78.065971 
L 174.663867 60.48 
L 170.980696 60.48 
L 174.54645 78.065971 
L 177.929157 100.73823 
L 178.7775 107.572719 
L 198.617243 132.692985 
L 216.814765 187.32 
L 218.701212 227.57823 
L 213.736224 259.532985 
L 178.7775 306.864399 
L 177.751322 314.16 
L 143.925 370.891341 
L 63 371.906707 
L 63 441 
z
" style="fill:#31668e;"/>
   </g>
   <g id="PathCollection_10">
    <path clip-path="url(#pc1094c849b)" d="M 143.925 370.891341 
L 177.751322 314.16 
L 178.7775 306.864399 
L 213.736224 259.532985 
L 218.701212 227.57823 
L 216.814765 187.32 
L 198.617243 132.692985 
L 178.7775 107.572719 
L 177.929157 100.73823 
L 174.54645 78.065971 
L 170.980696 60.48 
L 167.006252 60.48 
L 170.931553 78.065971 
L 174.566256 100.73823 
L 178.076463 132.692985 
L 178.7775 145.591924 
L 194.485376 187.32 
L 186.794935 227.57823 
L 178.7775 237.584083 
L 176.521035 259.532985 
L 161.671633 314.16 
L 143.925 334.385277 
L 63 335.665272 
L 63 371.906707 
z
" style="fill:#2d708e;"/>
   </g>
   <g id="PathCollection_11">
    <path clip-path="url(#pc1094c849b)" d="M 143.925 334.385277 
L 161.671633 314.16 
L 176.521035 259.532985 
L 178.7775 237.584083 
L 186.794935 227.57823 
L 194.485376 187.32 
L 178.7775 145.591924 
L 178.076463 132.692985 
L 174.566256 100.73823 
L 170.931553 78.065971 
L 167.006252 60.48 
L 162.690481 60.48 
L 167.036498 78.065971 
L 170.962214 100.73823 
L 174.555581 132.692985 
L 176.531169 187.32 
L 173.886429 227.57823 
L 168.130788 259.532985 
L 143.925 307.289913 
L 63 311.36521 
L 63 314.16 
L 63 335.665272 
z
" style="fill:#29798e;"/>
   </g>
   <g id="PathCollection_12">
    <path clip-path="url(#pc1094c849b)" d="M 143.925 307.289913 
L 168.130788 259.532985 
L 173.886429 227.57823 
L 176.531169 187.32 
L 174.555581 132.692985 
L 170.962214 100.73823 
L 167.036498 78.065971 
L 162.690481 60.48 
L 157.969199 60.48 
L 162.814185 78.065971 
L 167.079761 100.73823 
L 170.769466 132.692985 
L 171.907797 187.32 
L 167.313244 227.57823 
L 158.05446 259.532985 
L 143.925 281.002452 
L 63 294.795967 
L 63 311.36521 
z
" style="fill:#26828e;"/>
   </g>
   <g id="PathCollection_13">
    <path clip-path="url(#pc1094c849b)" d="M 143.925 281.002452 
L 158.05446 259.532985 
L 167.313244 227.57823 
L 171.907797 187.32 
L 170.769466 132.692985 
L 167.079761 100.73823 
L 162.814185 78.065971 
L 157.969199 60.48 
L 152.758226 60.48 
L 158.204535 78.065971 
L 162.872253 100.73823 
L 166.674878 132.692985 
L 166.815861 187.32 
L 159.749669 227.57823 
L 145.43951 259.532985 
L 143.925 261.324376 
L 63 281.112363 
L 63 294.795967 
z
" style="fill:#228c8d;"/>
   </g>
   <g id="PathCollection_14">
    <path clip-path="url(#pc1094c849b)" d="M 143.925 261.324376 
L 145.43951 259.532985 
L 159.749669 227.57823 
L 166.815861 187.32 
L 166.674878 132.692985 
L 162.872253 100.73823 
L 158.204535 78.065971 
L 152.758226 60.48 
L 146.944099 60.48 
L 153.129239 78.065971 
L 158.280246 100.73823 
L 162.217057 132.692985 
L 161.14956 187.32 
L 150.843396 227.57823 
L 143.925 239.630209 
L 119.65505 259.532985 
L 63 269.456816 
L 63 281.112363 
z
" style="fill:#1f948c;"/>
   </g>
   <g id="PathCollection_15">
    <path clip-path="url(#pc1094c849b)" d="M 119.65505 259.532985 
L 143.925 239.630209 
L 150.843396 227.57823 
L 161.14956 187.32 
L 162.217057 132.692985 
L 158.280246 100.73823 
L 153.129239 78.065971 
L 146.944099 60.48 
L 143.925 60.48 
L 141.54795 60.48 
L 143.925 68.383051 
L 147.483542 78.065971 
L 153.226333 100.73823 
L 157.325228 132.692985 
L 154.762649 187.32 
L 143.925 218.160835 
L 139.854049 227.57823 
L 63 259.234636 
L 63 259.532985 
L 63 269.456816 
z
" style="fill:#1f9e89;"/>
   </g>
   <g id="PathCollection_16">
    <path clip-path="url(#pc1094c849b)" d="M 139.854049 227.57823 
L 143.925 218.160835 
L 154.762649 187.32 
L 157.325228 132.692985 
L 153.226333 100.73823 
L 147.483542 78.065971 
L 143.925 68.383051 
L 141.54795 60.48 
L 136.679625 60.48 
L 142.012726 78.065971 
L 143.925 86.715465 
L 147.607086 100.73823 
L 151.905676 132.692985 
L 147.444767 187.32 
L 143.925 195.415743 
L 125.355348 227.57823 
L 63 247.665324 
L 63 259.234636 
z
" style="fill:#22a785;"/>
   </g>
   <g id="PathCollection_17">
    <path clip-path="url(#pc1094c849b)" d="M 125.355348 227.57823 
L 143.925 195.415743 
L 147.444767 187.32 
L 151.905676 132.692985 
L 147.607086 100.73823 
L 143.925 86.715465 
L 142.012726 78.065971 
L 136.679625 60.48 
L 131.288912 60.48 
L 137.203808 78.065971 
L 142.060299 100.73823 
L 143.925 117.72736 
L 145.830619 132.692985 
L 143.925 147.259068 
L 139.62172 187.32 
L 104.900662 227.57823 
L 63 237.579002 
L 63 247.665324 
z
" style="fill:#2ab07f;"/>
   </g>
   <g id="PathCollection_18">
    <path clip-path="url(#pc1094c849b)" d="M 104.900662 227.57823 
L 139.62172 187.32 
L 143.925 147.259068 
L 145.830619 132.692985 
L 143.925 117.72736 
L 142.060299 100.73823 
L 137.203808 78.065971 
L 131.288912 60.48 
L 125.250077 60.48 
L 131.885853 78.065971 
L 137.108004 100.73823 
L 140.208666 132.692985 
L 131.023102 187.32 
L 69.845778 227.57823 
L 63 228.638317 
L 63 237.579002 
z
" style="fill:#38b977;"/>
   </g>
   <g id="PathCollection_19">
    <path clip-path="url(#pc1094c849b)" d="M 69.845778 227.57823 
L 131.023102 187.32 
L 140.208666 132.692985 
L 137.108004 100.73823 
L 131.885853 78.065971 
L 125.250077 60.48 
L 118.3857 60.48 
L 125.938196 78.065971 
L 131.614125 100.73823 
L 134.463139 132.692985 
L 120.644402 187.32 
L 63 216.473609 
L 63 227.57823 
L 63 228.638317 
z
" style="fill:#4ac16d;"/>
   </g>
   <g id="PathCollection_20">
    <path clip-path="url(#pc1094c849b)" d="M 120.644402 187.32 
L 134.463139 132.692985 
L 131.614125 100.73823 
L 125.938196 78.065971 
L 118.3857 60.48 
L 110.433782 60.48 
L 119.191428 78.065971 
L 125.445492 100.73823 
L 127.975362 132.692985 
L 107.550928 187.32 
L 63 205.430158 
L 63 216.473609 
z
" style="fill:#5ec962;"/>
   </g>
   <g id="PathCollection_21">
    <path clip-path="url(#pc1094c849b)" d="M 107.550928 187.32 
L 127.975362 132.692985 
L 125.445492 100.73823 
L 119.191428 78.065971 
L 110.433782 60.48 
L 100.983639 60.48 
L 111.396988 78.065971 
L 118.412847 100.73823 
L 120.524699 132.692985 
L 89.799374 187.32 
L 63 195.745711 
L 63 205.430158 
z
" style="fill:#73d056;"/>
   </g>
   <g id="PathCollection_22">
    <path clip-path="url(#pc1094c849b)" d="M 89.799374 187.32 
L 120.524699 132.692985 
L 118.412847 100.73823 
L 111.396988 78.065971 
L 100.983639 60.48 
L 89.336531 60.48 
L 102.168607 78.065971 
L 110.23411 100.73823 
L 111.77468 132.692985 
L 63 186.74278 
L 63 187.32 
L 63 195.745711 
z
" style="fill:#8bd646;"/>
   </g>
   <g id="PathCollection_23">
    <path clip-path="url(#pc1094c849b)" d="M 111.77468 132.692985 
L 110.23411 100.73823 
L 102.168607 78.065971 
L 89.336531 60.48 
L 74.151425 60.48 
L 90.857009 78.065971 
L 100.461594 100.73823 
L 101.174337 132.692985 
L 63 165.965602 
L 63 186.74278 
z
" style="fill:#a5db36;"/>
   </g>
   <g id="PathCollection_24">
    <path clip-path="url(#pc1094c849b)" d="M 101.174337 132.692985 
L 100.461594 100.73823 
L 90.857009 78.065971 
L 74.151425 60.48 
L 63 60.48 
L 63 66.853928 
L 76.238876 78.065971 
L 88.320055 100.73823 
L 87.725329 132.692985 
L 63 149.538947 
L 63 165.965602 
z
" style="fill:#c0df25;"/>
   </g>
   <g id="PathCollection_25">
    <path clip-path="url(#pc1094c849b)" d="M 87.725329 132.692985 
L 88.320055 100.73823 
L 76.238876 78.065971 
L 63 66.853928 
L 63 78.065971 
L 63 86.626199 
L 72.280503 100.73823 
L 69.310497 132.692985 
L 63 135.952624 
L 63 149.538947 
z
" style="fill:#dae319;"/>
   </g>
   <g id="PathCollection_26">
    <path clip-path="url(#pc1094c849b)" d="M 69.310497 132.692985 
L 72.280503 100.73823 
L 63 86.626199 
L 63 100.73823 
L 63 132.692985 
L 63 135.952624 
z
" style="fill:#f4e61e;"/>
   </g>
   <g id="matplotlib.axis_1">
    <g id="xtick_1">
     <g id="line2d_1">
      <defs>
       <path d="M 0 0 
L 0 3.5 
" id="me594b96c39" style="stroke:#000000;stroke-width:0.8;"/>
      </defs>
      <g>
       <use style="stroke:#000000;stroke-width:0.8;" x="63" xlink:href="#me594b96c39" y="441"/>
      </g>
     </g>
     <g id="text_1">
      <!-- $10^{-3}$ -->
      <defs>
       <path d="M 29.09375 68 
L 11.09375 59 
L 11.09375 57.59375 
C 12.296875 58.09375 13.40625 58.484375 13.796875 58.6875 
C 15.59375 59.390625 17.296875 59.78125 18.296875 59.78125 
C 20.40625 59.78125 21.296875 58.296875 21.296875 55.078125 
L 21.296875 9.359375 
C 21.296875 6.03125 20.5 3.71875 18.90625 2.796875 
C 17.40625 1.890625 16 1.59375 11.796875 1.5 
L 11.796875 0 
L 39.40625 0 
L 39.40625 1.5 
C 31.5 1.59375 29.90625 2.609375 29.90625 7.453125 
L 29.90625 67.796875 
z
" id="Nimbus_Roman_No9_L_Regular-49"/>
       <path d="M 25.40625 68 
C 19.90625 68 15.703125 66.296875 12 62.796875 
C 6.203125 57.203125 2.40625 45.6875 2.40625 34 
C 2.40625 23.09375 5.703125 11.390625 10.40625 5.796875 
C 14.09375 1.390625 19.203125 -1 25 -1 
C 30.09375 -1 34.40625 0.6875 38 4.1875 
C 43.796875 9.6875 47.59375 21.296875 47.59375 33.390625 
C 47.59375 53.890625 38.5 68 25.40625 68 
z
M 25.09375 65.390625 
C 33.5 65.390625 38 54.09375 38 33.1875 
C 38 12.296875 33.59375 1.59375 25 1.59375 
C 16.40625 1.59375 12 12.296875 12 33.09375 
C 12 54.296875 16.5 65.390625 25.09375 65.390625 
z
" id="Nimbus_Roman_No9_L_Regular-48"/>
       <path d="M 65.90625 23 
C 67.59375 23 69.40625 23 69.40625 25 
C 69.40625 27 67.59375 27 65.90625 27 
L 11.796875 27 
C 10.09375 27 8.296875 27 8.296875 25 
C 8.296875 23 10.09375 23 11.796875 23 
z
" id="CMSY10-0"/>
       <path d="M 15.296875 33.390625 
C 21.203125 33.390625 23.5 33.1875 25.90625 32.296875 
C 32.09375 30.09375 36 24.390625 36 17.5 
C 36 9.09375 30.296875 2.59375 22.90625 2.59375 
C 20.203125 2.59375 18.203125 3.296875 14.5 5.6875 
C 11.5 7.5 9.796875 8.1875 8.09375 8.1875 
C 5.796875 8.1875 4.296875 6.796875 4.296875 4.6875 
C 4.296875 1.1875 8.59375 -1 15.59375 -1 
C 23.296875 -1 31.203125 1.59375 35.90625 5.6875 
C 40.59375 9.796875 43.203125 15.59375 43.203125 22.296875 
C 43.203125 27.390625 41.59375 32.09375 38.703125 35.1875 
C 36.703125 37.390625 34.796875 38.59375 30.40625 40.5 
C 37.296875 45.1875 39.796875 48.890625 39.796875 54.296875 
C 39.796875 62.390625 33.40625 68 24.203125 68 
C 19.203125 68 14.796875 66.296875 11.203125 63.09375 
C 8.203125 60.390625 6.703125 57.796875 4.5 51.796875 
L 6 51.390625 
C 10.09375 58.703125 14.59375 61.984375 20.90625 61.984375 
C 27.40625 61.984375 31.90625 57.59375 31.90625 51.296875 
C 31.90625 47.6875 30.40625 44.09375 27.90625 41.59375 
C 24.90625 38.59375 22.09375 37.09375 15.296875 34.6875 
z
" id="Nimbus_Roman_No9_L_Regular-51"/>
      </defs>
      <g transform="translate(43.622873 461.509155)scale(0.2 -0.2)">
       <use transform="scale(0.996264)" xlink:href="#Nimbus_Roman_No9_L_Regular-49"/>
       <use transform="translate(49.8132 0)scale(0.996264)" xlink:href="#Nimbus_Roman_No9_L_Regular-48"/>
       <use transform="translate(99.626401 36.163231)scale(0.737241)" xlink:href="#CMSY10-0"/>
       <use transform="translate(156.909271 36.163231)scale(0.737241)" xlink:href="#Nimbus_Roman_No9_L_Regular-51"/>
      </g>
     </g>
    </g>
    <g id="xtick_2">
     <g id="line2d_2">
      <g>
       <use style="stroke:#000000;stroke-width:0.8;" x="178.7775" xlink:href="#me594b96c39" y="441"/>
      </g>
     </g>
     <g id="text_2">
      <!-- $10^{-2}$ -->
      <defs>
       <path d="M 47.5 13.734375 
L 46.203125 14.25 
C 42.5 8.5 41.203125 7.59375 36.703125 7.59375 
L 12.796875 7.59375 
L 29.59375 25.328125 
C 38.5 34.703125 42.40625 42.359375 42.40625 50.21875 
C 42.40625 60.28125 34.296875 68 23.90625 68 
C 18.40625 68 13.203125 65.796875 9.5 61.796875 
C 6.296875 58.375 4.796875 55.15625 3.09375 48 
L 5.203125 47.484375 
C 9.203125 57.359375 12.796875 60.59375 19.703125 60.59375 
C 28.09375 60.59375 33.796875 54.84375 33.796875 46.390625 
C 33.796875 38.53125 29.203125 29.15625 20.796875 20.1875 
L 3 1.1875 
L 3 0 
L 42 0 
z
" id="Nimbus_Roman_No9_L_Regular-50"/>
      </defs>
      <g transform="translate(159.400373 461.509155)scale(0.2 -0.2)">
       <use transform="scale(0.996264)" xlink:href="#Nimbus_Roman_No9_L_Regular-49"/>
       <use transform="translate(49.8132 0)scale(0.996264)" xlink:href="#Nimbus_Roman_No9_L_Regular-48"/>
       <use transform="translate(99.626401 36.163231)scale(0.737241)" xlink:href="#CMSY10-0"/>
       <use transform="translate(156.909271 36.163231)scale(0.737241)" xlink:href="#Nimbus_Roman_No9_L_Regular-50"/>
      </g>
     </g>
    </g>
    <g id="xtick_3">
     <g id="line2d_3">
      <g>
       <use style="stroke:#000000;stroke-width:0.8;" x="294.555" xlink:href="#me594b96c39" y="441"/>
      </g>
     </g>
     <g id="text_3">
      <!-- $10^{-1}$ -->
      <g transform="translate(275.177874 461.509155)scale(0.2 -0.2)">
       <use transform="scale(0.996264)" xlink:href="#Nimbus_Roman_No9_L_Regular-49"/>
       <use transform="translate(49.8132 0)scale(0.996264)" xlink:href="#Nimbus_Roman_No9_L_Regular-48"/>
       <use transform="translate(99.626401 36.163231)scale(0.737241)" xlink:href="#CMSY10-0"/>
       <use transform="translate(156.909271 36.163231)scale(0.737241)" xlink:href="#Nimbus_Roman_No9_L_Regular-49"/>
      </g>
     </g>
    </g>
    <g id="xtick_4">
     <g id="line2d_4">
      <defs>
       <path d="M 0 0 
L 0 2 
" id="m4ece21901f" style="stroke:#000000;stroke-width:0.6;"/>
      </defs>
      <g>
       <use style="stroke:#000000;stroke-width:0.6;" x="97.8525" xlink:href="#m4ece21901f" y="441"/>
      </g>
     </g>
    </g>
    <g id="xtick_5">
     <g id="line2d_5">
      <g>
       <use style="stroke:#000000;stroke-width:0.6;" x="118.239906" xlink:href="#m4ece21901f" y="441"/>
      </g>
     </g>
    </g>
    <g id="xtick_6">
     <g id="line2d_6">
      <g>
       <use style="stroke:#000000;stroke-width:0.6;" x="132.705001" xlink:href="#m4ece21901f" y="441"/>
      </g>
     </g>
    </g>
    <g id="xtick_7">
     <g id="line2d_7">
      <g>
       <use style="stroke:#000000;stroke-width:0.6;" x="143.925" xlink:href="#m4ece21901f" y="441"/>
      </g>
     </g>
    </g>
    <g id="xtick_8">
     <g id="line2d_8">
      <g>
       <use style="stroke:#000000;stroke-width:0.6;" x="153.092406" xlink:href="#m4ece21901f" y="441"/>
      </g>
     </g>
    </g>
    <g id="xtick_9">
     <g id="line2d_9">
      <g>
       <use style="stroke:#000000;stroke-width:0.6;" x="160.843338" xlink:href="#m4ece21901f" y="441"/>
      </g>
     </g>
    </g>
    <g id="xtick_10">
     <g id="line2d_10">
      <g>
       <use style="stroke:#000000;stroke-width:0.6;" x="167.557501" xlink:href="#m4ece21901f" y="441"/>
      </g>
     </g>
    </g>
    <g id="xtick_11">
     <g id="line2d_11">
      <g>
       <use style="stroke:#000000;stroke-width:0.6;" x="173.479812" xlink:href="#m4ece21901f" y="441"/>
      </g>
     </g>
    </g>
    <g id="xtick_12">
     <g id="line2d_12">
      <g>
       <use style="stroke:#000000;stroke-width:0.6;" x="213.63" xlink:href="#m4ece21901f" y="441"/>
      </g>
     </g>
    </g>
    <g id="xtick_13">
     <g id="line2d_13">
      <g>
       <use style="stroke:#000000;stroke-width:0.6;" x="234.017406" xlink:href="#m4ece21901f" y="441"/>
      </g>
     </g>
    </g>
    <g id="xtick_14">
     <g id="line2d_14">
      <g>
       <use style="stroke:#000000;stroke-width:0.6;" x="248.482501" xlink:href="#m4ece21901f" y="441"/>
      </g>
     </g>
    </g>
    <g id="xtick_15">
     <g id="line2d_15">
      <g>
       <use style="stroke:#000000;stroke-width:0.6;" x="259.7025" xlink:href="#m4ece21901f" y="441"/>
      </g>
     </g>
    </g>
    <g id="xtick_16">
     <g id="line2d_16">
      <g>
       <use style="stroke:#000000;stroke-width:0.6;" x="268.869907" xlink:href="#m4ece21901f" y="441"/>
      </g>
     </g>
    </g>
    <g id="xtick_17">
     <g id="line2d_17">
      <g>
       <use style="stroke:#000000;stroke-width:0.6;" x="276.620839" xlink:href="#m4ece21901f" y="441"/>
      </g>
     </g>
    </g>
    <g id="xtick_18">
     <g id="line2d_18">
      <g>
       <use style="stroke:#000000;stroke-width:0.6;" x="283.335001" xlink:href="#m4ece21901f" y="441"/>
      </g>
     </g>
    </g>
    <g id="xtick_19">
     <g id="line2d_19">
      <g>
       <use style="stroke:#000000;stroke-width:0.6;" x="289.257312" xlink:href="#m4ece21901f" y="441"/>
      </g>
     </g>
    </g>
    <g id="xtick_20">
     <g id="line2d_20">
      <g>
       <use style="stroke:#000000;stroke-width:0.6;" x="329.407501" xlink:href="#m4ece21901f" y="441"/>
      </g>
     </g>
    </g>
    <g id="xtick_21">
     <g id="line2d_21">
      <g>
       <use style="stroke:#000000;stroke-width:0.6;" x="349.794906" xlink:href="#m4ece21901f" y="441"/>
      </g>
     </g>
    </g>
    <g id="xtick_22">
     <g id="line2d_22">
      <g>
       <use style="stroke:#000000;stroke-width:0.6;" x="364.260001" xlink:href="#m4ece21901f" y="441"/>
      </g>
     </g>
    </g>
    <g id="xtick_23">
     <g id="line2d_23">
      <g>
       <use style="stroke:#000000;stroke-width:0.6;" x="375.48" xlink:href="#m4ece21901f" y="441"/>
      </g>
     </g>
    </g>
    <g id="text_4">
     <!-- mRNA transcription rate $k_{M}$ -->
     <defs>
      <path d="M 1.90625 39.796875 
C 3.203125 40.09375 4 40.1875 5.09375 40.1875 
C 7.703125 40.1875 8.59375 38.59375 8.59375 33.796875 
L 8.59375 8.5 
C 8.59375 3.09375 7.203125 1.59375 1.59375 1.5 
L 1.59375 0 
L 23.796875 0 
L 23.796875 1.5 
C 18.5 1.6875 17 2.796875 17 6.6875 
L 17 34.890625 
C 17 35.09375 17.796875 36.09375 18.5 36.796875 
C 21 39.09375 25.296875 40.796875 28.796875 40.796875 
C 33.203125 40.796875 35.40625 37.296875 35.40625 30.296875 
L 35.40625 8.59375 
C 35.40625 3 34.296875 1.890625 28.59375 1.5 
L 28.59375 0 
L 51 0 
L 51 1.5 
C 45.296875 1.59375 43.796875 3.296875 43.796875 9.5 
L 43.796875 34.6875 
C 46.796875 39 50.09375 40.796875 54.703125 40.796875 
C 60.40625 40.796875 62.203125 38.09375 62.203125 29.796875 
L 62.203125 8.6875 
C 62.203125 3 61.40625 2.1875 55.59375 1.5 
L 55.59375 0 
L 77.5 0 
L 77.5 1.5 
L 74.90625 1.6875 
C 71.90625 1.890625 70.59375 3.6875 70.59375 7.59375 
L 70.59375 28.1875 
C 70.59375 40 66.703125 46 59 46 
C 53.203125 46 48.09375 43.390625 42.703125 37.59375 
C 40.90625 43.296875 37.5 46 32.09375 46 
C 27.703125 46 24.90625 44.59375 16.59375 38.296875 
L 16.59375 45.796875 
L 15.90625 46 
C 10.796875 44.09375 7.40625 42.984375 1.90625 41.484375 
z
" id="Nimbus_Roman_No9_L_Regular-109"/>
      <path d="M 65.90625 1.890625 
C 62.09375 2.1875 60.09375 3.1875 57.203125 6.578125 
L 36.59375 31.796875 
C 43.296875 33.09375 46.296875 34.28125 49.59375 36.96875 
C 52.796875 39.5625 54.703125 43.75 54.703125 48.4375 
C 54.703125 52.71875 53.40625 56.40625 50.796875 59.296875 
C 47 63.390625 38.703125 66 29.296875 66 
L 1.703125 66 
L 1.703125 64.09375 
C 9.203125 63.296875 10.203125 62.203125 10.203125 55.125 
L 10.203125 11.953125 
C 10.203125 3.6875 9.203125 2.484375 1.703125 1.890625 
L 1.703125 0 
L 29.40625 0 
L 29.40625 1.890625 
C 21.703125 2.390625 20.40625 3.6875 20.40625 10.859375 
L 20.40625 30.5 
L 26 30.703125 
L 49.796875 0 
L 65.90625 0 
z
M 20.40625 58.6875 
C 20.40625 61.484375 21.5 62.296875 25.5 62.296875 
C 38 62.296875 43.796875 57.984375 43.796875 48.59375 
C 43.796875 43.59375 41.703125 39.390625 38.09375 37.484375 
C 33.5 34.890625 30 34.296875 20.40625 34.09375 
z
" id="Nimbus_Roman_No9_L_Regular-82"/>
      <path d="M 61.203125 -1 
L 61.203125 51.359375 
C 61.203125 57.328125 62.203125 61.015625 64.09375 62.3125 
C 65.5 63.296875 66.90625 63.703125 70.703125 64.09375 
L 70.703125 66 
L 47.203125 66 
L 47.203125 64.09375 
C 51 63.796875 52.40625 63.40625 53.90625 62.5 
C 55.90625 61.109375 56.796875 57.53125 56.796875 51.359375 
L 56.796875 17.8125 
L 18.296875 66 
L 1.203125 66 
L 1.203125 64.09375 
C 5.5 64.09375 6.90625 63.296875 10.90625 58.625 
L 10.90625 14.734375 
C 10.90625 4.390625 9.5 2.5 1.203125 1.890625 
L 1.203125 0 
L 24.703125 0 
L 24.703125 1.890625 
C 17 2.296875 15.296875 4.59375 15.296875 14.6875 
L 15.296875 53.890625 
L 59.5 -1 
z
" id="Nimbus_Roman_No9_L_Regular-78"/>
      <path d="M 70.59375 1.890625 
C 66.09375 2.203125 65.09375 3.203125 61.59375 10.71875 
L 36.703125 67 
L 34.703125 67 
L 13.90625 18.546875 
C 7.5 3.71875 6.296875 2.09375 1.5 1.890625 
L 1.5 0 
L 21.296875 0 
L 21.296875 1.890625 
C 16.5 1.890625 14.5 3.203125 14.5 6.046875 
C 14.5 7.265625 14.796875 8.6875 15.296875 10.015625 
L 19.90625 21.890625 
L 46.09375 21.890625 
L 50.203125 12.140625 
C 51.40625 9.40625 52.09375 6.765625 52.09375 5.34375 
C 52.09375 2.796875 50.40625 2 45.09375 1.890625 
L 45.09375 0 
L 70.59375 0 
z
M 21.59375 26 
L 33.09375 53 
L 44.703125 26 
z
" id="Nimbus_Roman_No9_L_Regular-65"/>
      <path d="M 25.5 45 
L 15.40625 45 
L 15.40625 56.59375 
C 15.40625 57.59375 15.296875 57.890625 14.703125 57.890625 
C 14 57 13.40625 56.09375 12.703125 55.09375 
C 8.90625 49.59375 4.59375 44.796875 3 44.390625 
C 1.90625 43.6875 1.296875 42.984375 1.296875 42.484375 
C 1.296875 42.1875 1.40625 41.984375 1.703125 41.796875 
L 7 41.796875 
L 7 11.6875 
C 7 3.296875 10 -1 15.90625 -1 
C 20.796875 -1 24.59375 1.390625 27.90625 6.59375 
L 26.59375 7.6875 
C 24.5 5.1875 22.796875 4.1875 20.59375 4.1875 
C 16.90625 4.1875 15.40625 6.890625 15.40625 13.1875 
L 15.40625 41.796875 
L 25.5 41.796875 
z
" id="Nimbus_Roman_No9_L_Regular-116"/>
      <path d="M 0.703125 39 
C 2.09375 39.296875 3 39.390625 4.203125 39.390625 
C 6.703125 39.390625 7.59375 37.796875 7.59375 33.390625 
L 7.59375 8.390625 
C 7.59375 3.390625 6.90625 2.6875 0.5 1.5 
L 0.5 0 
L 24.5 0 
L 24.5 1.5 
C 17.703125 1.796875 16 3.296875 16 9 
L 16 31.5 
C 16 34.6875 20.296875 39.6875 23 39.6875 
C 23.59375 39.6875 24.5 39.1875 25.59375 38.1875 
C 27.203125 36.796875 28.296875 36.1875 29.59375 36.1875 
C 32 36.1875 33.5 37.890625 33.5 40.6875 
C 33.5 43.984375 31.40625 46 28 46 
C 23.796875 46 20.90625 43.6875 16 36.59375 
L 16 45.796875 
L 15.5 46 
C 10.203125 43.796875 6.59375 42.5 0.703125 40.59375 
z
" id="Nimbus_Roman_No9_L_Regular-114"/>
      <path d="M 44.203125 6.59375 
C 42.5 5.1875 41.296875 4.6875 39.796875 4.6875 
C 37.5 4.6875 36.796875 6.09375 36.796875 10.5 
L 36.796875 30 
C 36.796875 35.1875 36.296875 38.09375 34.796875 40.5 
C 32.59375 44.09375 28.296875 46 22.40625 46 
C 13 46 5.59375 41.09375 5.59375 34.796875 
C 5.59375 32.5 7.59375 30.5 9.90625 30.5 
C 12.296875 30.5 14.40625 32.5 14.40625 34.6875 
C 14.40625 35.09375 14.296875 35.59375 14.203125 36.296875 
C 14 37.1875 13.90625 38 13.90625 38.6875 
C 13.90625 41.390625 17.09375 43.59375 21.09375 43.59375 
C 26 43.59375 28.703125 40.6875 28.703125 35.296875 
L 28.703125 29.1875 
C 13.296875 23 11.59375 22.1875 7.296875 18.390625 
C 5.09375 16.390625 3.703125 13 3.703125 9.6875 
C 3.703125 3.390625 8.09375 -1 14.203125 -1 
C 18.59375 -1 22.703125 1.09375 28.796875 6.296875 
C 29.296875 1.09375 31.09375 -1 35.203125 -1 
C 38.59375 -1 40.703125 0.1875 44.203125 4 
z
M 28.703125 12.296875 
C 28.703125 9.1875 28.203125 8.296875 26.09375 7.09375 
C 23.703125 5.6875 20.90625 4.796875 18.796875 4.796875 
C 15.296875 4.796875 12.5 8.1875 12.5 12.5 
L 12.5 12.890625 
C 12.5 18.796875 16.59375 22.390625 28.703125 26.796875 
z
" id="Nimbus_Roman_No9_L_Regular-97"/>
      <path d="M 1.59375 39.796875 
C 2.203125 40.09375 3.203125 40.1875 4.296875 40.1875 
C 7.09375 40.1875 8 38.6875 8 33.796875 
L 8 9 
C 8 3.296875 6.90625 1.890625 1.796875 1.5 
L 1.796875 0 
L 23 0 
L 23 1.5 
C 17.90625 1.890625 16.40625 3.09375 16.40625 6.6875 
L 16.40625 34.796875 
C 21.203125 39.296875 23.40625 40.484375 26.703125 40.484375 
C 31.59375 40.484375 34 37.390625 34 30.796875 
L 34 9.890625 
C 34 3.59375 32.703125 1.890625 27.703125 1.5 
L 27.703125 0 
L 48.5 0 
L 48.5 1.5 
C 43.59375 2 42.40625 3.1875 42.40625 8.09375 
L 42.40625 31 
C 42.40625 40.390625 38 46 30.59375 46 
C 26 46 22.90625 44.296875 16.09375 37.890625 
L 16.09375 45.796875 
L 15.40625 46 
C 10.5 44.1875 7.09375 43.09375 1.59375 41.484375 
z
" id="Nimbus_Roman_No9_L_Regular-110"/>
      <path d="M 31.5 31.390625 
L 31.09375 45 
L 30 45 
L 29.796875 44.796875 
C 28.90625 44.09375 28.796875 43.984375 28.40625 43.984375 
C 27.796875 43.984375 26.796875 44.1875 25.703125 44.6875 
C 23.5 45.59375 21.296875 46 18.703125 46 
C 10.796875 46 5.09375 40.890625 5.09375 33.671875 
C 5.09375 28.0625 8.296875 24.046875 16.796875 19.234375 
L 22.59375 15.921875 
C 26.09375 13.921875 27.796875 11.515625 27.796875 8.40625 
C 27.796875 4 24.59375 1.1875 19.5 1.1875 
C 16.09375 1.1875 13 2.5 11.09375 4.703125 
C 9 7.203125 8.09375 9.515625 6.796875 15.21875 
L 5.203125 15.21875 
L 5.203125 -0.40625 
L 6.5 -0.40625 
C 7.203125 0.59375 7.59375 0.796875 8.796875 0.796875 
C 9.703125 0.796875 11.09375 0.59375 13.40625 0 
C 16.203125 -0.609375 18.90625 -1 20.703125 -1 
C 28.40625 -1 34.796875 4.796875 34.796875 11.8125 
C 34.796875 16.828125 32.40625 20.140625 26.40625 23.75 
L 15.59375 30.15625 
C 12.796875 31.765625 11.296875 34.265625 11.296875 36.96875 
C 11.296875 40.984375 14.40625 43.796875 19 43.796875 
C 24.703125 43.796875 27.703125 40.390625 30 31.46875 
z
" id="Nimbus_Roman_No9_L_Regular-115"/>
      <path d="M 39.796875 15.59375 
C 35 8.59375 31.40625 6.1875 25.703125 6.1875 
C 16.59375 6.1875 10.203125 14.1875 10.203125 25.6875 
C 10.203125 35.984375 15.703125 43.09375 23.796875 43.09375 
C 27.40625 43.09375 28.703125 41.984375 29.703125 38.296875 
L 30.296875 36.09375 
C 31.09375 33.296875 32.90625 31.484375 35 31.484375 
C 37.59375 31.484375 39.796875 33.390625 39.796875 35.6875 
C 39.796875 41.296875 32.796875 46 24.40625 46 
C 19.5 46 14.40625 43.984375 10.296875 40.390625 
C 5.296875 35.984375 2.5 29.1875 2.5 21.296875 
C 2.5 8.296875 10.40625 -1 21.5 -1 
C 26 -1 30 0.59375 33.59375 3.6875 
C 36.296875 6.09375 38.203125 8.796875 41.203125 14.6875 
z
" id="Nimbus_Roman_No9_L_Regular-99"/>
      <path d="M 17.5 46 
L 2 40.5 
L 2 39 
L 2.796875 39.09375 
C 4 39.296875 5.296875 39.390625 6.203125 39.390625 
C 8.59375 39.390625 9.5 37.796875 9.5 33.390625 
L 9.5 10.1875 
C 9.5 3 8.5 1.890625 1.59375 1.5 
L 1.59375 0 
L 25.296875 0 
L 25.296875 1.5 
C 18.703125 2 17.90625 3 17.90625 10.1875 
L 17.90625 45.6875 
z
M 12.796875 68 
C 10.09375 68 7.796875 65.6875 7.796875 62.890625 
C 7.796875 60.09375 10 57.796875 12.796875 57.796875 
C 15.703125 57.796875 18 59.984375 18 62.890625 
C 18 65.6875 15.703125 68 12.796875 68 
z
" id="Nimbus_Roman_No9_L_Regular-105"/>
      <path d="M 0.90625 39.296875 
C 1.796875 39.390625 2.5 39.390625 3.40625 39.390625 
C 6.796875 39.390625 7.5 38.390625 7.5 33.703125 
L 7.5 -13.109375 
C 7.5 -18.3125 6.40625 -19.40625 0.5 -20 
L 0.5 -21.703125 
L 24.703125 -21.703125 
L 24.703125 -20 
C 17.203125 -19.90625 15.90625 -18.796875 15.90625 -12.46875 
L 15.90625 3.296875 
C 19.40625 0 21.796875 -1 26 -1 
C 37.796875 -1 47 10.1875 47 24.6875 
C 47 37.09375 40 46 30.296875 46 
C 24.703125 46 20.296875 43.484375 15.90625 38.09375 
L 15.90625 45.796875 
L 15.296875 46 
C 9.90625 43.890625 6.40625 42.59375 0.90625 40.890625 
z
M 15.90625 33.390625 
C 15.90625 36.390625 21.5 39.984375 26.09375 39.984375 
C 33.5 39.984375 38.40625 32.390625 38.40625 20.796875 
C 38.40625 9.6875 33.5 2.1875 26.296875 2.1875 
C 21.59375 2.1875 15.90625 5.796875 15.90625 8.796875 
z
" id="Nimbus_Roman_No9_L_Regular-112"/>
      <path d="M 25 46 
C 12 46 2.90625 36.390625 2.90625 22.59375 
C 2.90625 9.09375 12.203125 -1 24.796875 -1 
C 37.40625 -1 47 9.59375 47 23.390625 
C 47 36.5 37.796875 46 25 46 
z
M 23.703125 43.1875 
C 32.09375 43.1875 38 33.59375 38 19.890625 
C 38 8.59375 33.5 1.796875 26 1.796875 
C 22.09375 1.796875 18.40625 4.1875 16.296875 8.1875 
C 13.5 13.390625 11.90625 20.390625 11.90625 27.5 
C 11.90625 37 16.59375 43.1875 23.703125 43.1875 
z
" id="Nimbus_Roman_No9_L_Regular-111"/>
      <path d="M 40.796875 16.4375 
C 36 8.8125 31.703125 5.890625 25.296875 5.890625 
C 19.59375 5.890625 15.296875 8.8125 12.40625 14.53125 
C 10.59375 18.34375 9.90625 21.65625 9.703125 27.796875 
L 40.5 27.796875 
C 39.703125 34.265625 38.703125 37.140625 36.203125 40.3125 
C 33.203125 43.890625 28.59375 46 23.40625 46 
C 18.40625 46 13.703125 44.1875 9.90625 40.8125 
C 5.203125 36.734375 2.5 29.6875 2.5 21.46875 
C 2.5 7.59375 9.703125 -1 21.203125 -1 
C 30.703125 -1 38.203125 4.890625 42.40625 15.734375 
z
M 9.90625 31 
C 11 38.71875 14.40625 42.390625 20.5 42.390625 
C 26.59375 42.390625 29 39.609375 30.296875 31 
z
" id="Nimbus_Roman_No9_L_Regular-101"/>
      <path d="M 41.40625 11 
L 39.90625 8.390625 
C 38.09375 5.296875 36.90625 4.1875 35.40625 4.1875 
C 33.296875 4.1875 31.203125 7.5 27.296875 17.09375 
C 26.796875 18.390625 25.296875 22 23.59375 25.890625 
C 38.296875 39 41.40625 41 46.09375 41.296875 
L 46.09375 42.890625 
L 27.796875 42.890625 
L 27.796875 41.296875 
L 29.40625 41.296875 
C 31.90625 41.296875 33.296875 40.59375 33.296875 39.5 
C 33.296875 37.5 28.296875 32.59375 19 25.5 
C 17.59375 24.390625 16.40625 23.390625 14.703125 22.1875 
L 26.703125 67.890625 
L 26.203125 68.390625 
C 20.296875 67.09375 16.5 66.390625 10.59375 65.703125 
L 10.59375 64.09375 
C 15.40625 64.203125 17.296875 63.5 17.40625 61.59375 
C 17.203125 59.890625 16.5 57.203125 15.203125 52.59375 
C 14.796875 51.203125 14.5 50.09375 14.296875 49.296875 
L 14.09375 48.390625 
L 1.40625 0.09375 
L 8.90625 0.09375 
L 13.703125 18.09375 
L 17.90625 21.296875 
C 19.5 16.890625 22.09375 10.796875 23.90625 7.1875 
C 27.09375 0.890625 28.90625 -1 31.796875 -1 
C 35.796875 -1 38.40625 1.5 42.90625 9.890625 
z
" id="Nimbus_Roman_No9_L_Regular_Italic-107"/>
      <path d="M 87.296875 65 
L 70.59375 65 
L 37 15.921875 
L 31.5 65 
L 13.40625 65 
L 13.40625 63.390625 
C 18.40625 63.09375 20.796875 62 20.796875 59.71875 
C 20.796875 58.921875 20.40625 57.421875 19.796875 55.625 
C 19.59375 55.234375 19.296875 54.140625 18.90625 52.640625 
C 18.796875 52.34375 18.703125 51.953125 18.59375 51.546875 
L 8 14.53125 
C 4.90625 4.1875 3.40625 2.1875 -1.796875 1.59375 
L -1.796875 0 
L 18 0 
L 18 1.59375 
C 12.90625 2 10.90625 3.1875 10.90625 5.96875 
C 10.90625 6.96875 11.296875 9.5625 11.796875 11.25 
L 23.59375 54.34375 
L 29.703125 0 
L 31.40625 0 
L 69.09375 55.828125 
L 56.203125 9.0625 
C 54.59375 3.78125 52.59375 2.296875 46.09375 1.59375 
L 46.09375 0 
L 73.40625 0 
L 73.40625 1.59375 
C 66.59375 2.1875 65.703125 2.78125 65.703125 5.875 
C 65.703125 7.5625 65.90625 8.859375 66.796875 11.9375 
L 79.09375 56.03125 
C 80.90625 62 81.40625 62.5 87.296875 63.390625 
z
" id="Nimbus_Roman_No9_L_Regular_Italic-77"/>
     </defs>
     <g transform="translate(107.476124 483.331968)scale(0.2 -0.2)">
      <use transform="translate(0 14.943915)scale(0.996264)" xlink:href="#Nimbus_Roman_No9_L_Regular-109"/>
      <use transform="translate(77.50837 14.943915)scale(0.996264)" xlink:href="#Nimbus_Roman_No9_L_Regular-82"/>
      <use transform="translate(143.958401 14.943915)scale(0.996264)" xlink:href="#Nimbus_Roman_No9_L_Regular-78"/>
      <use transform="translate(212.40166 14.943915)scale(0.996264)" xlink:href="#Nimbus_Roman_No9_L_Regular-65"/>
      <use transform="translate(309.238245 14.943915)scale(0.996264)" xlink:href="#Nimbus_Roman_No9_L_Regular-116"/>
      <use transform="translate(336.933414 14.943915)scale(0.996264)" xlink:href="#Nimbus_Roman_No9_L_Regular-114"/>
      <use transform="translate(370.108644 14.943915)scale(0.996264)" xlink:href="#Nimbus_Roman_No9_L_Regular-97"/>
      <use transform="translate(414.342213 14.943915)scale(0.996264)" xlink:href="#Nimbus_Roman_No9_L_Regular-110"/>
      <use transform="translate(464.155413 14.943915)scale(0.996264)" xlink:href="#Nimbus_Roman_No9_L_Regular-115"/>
      <use transform="translate(502.909119 14.943915)scale(0.996264)" xlink:href="#Nimbus_Roman_No9_L_Regular-99"/>
      <use transform="translate(547.142688 14.943915)scale(0.996264)" xlink:href="#Nimbus_Roman_No9_L_Regular-114"/>
      <use transform="translate(580.317918 14.943915)scale(0.996264)" xlink:href="#Nimbus_Roman_No9_L_Regular-105"/>
      <use transform="translate(608.013088 14.943915)scale(0.996264)" xlink:href="#Nimbus_Roman_No9_L_Regular-112"/>
      <use transform="translate(657.826288 14.943915)scale(0.996264)" xlink:href="#Nimbus_Roman_No9_L_Regular-116"/>
      <use transform="translate(685.521458 14.943915)scale(0.996264)" xlink:href="#Nimbus_Roman_No9_L_Regular-105"/>
      <use transform="translate(713.216627 14.943915)scale(0.996264)" xlink:href="#Nimbus_Roman_No9_L_Regular-111"/>
      <use transform="translate(763.029828 14.943915)scale(0.996264)" xlink:href="#Nimbus_Roman_No9_L_Regular-110"/>
      <use transform="translate(837.749628 14.943915)scale(0.996264)" xlink:href="#Nimbus_Roman_No9_L_Regular-114"/>
      <use transform="translate(870.924858 14.943915)scale(0.996264)" xlink:href="#Nimbus_Roman_No9_L_Regular-97"/>
      <use transform="translate(915.158427 14.943915)scale(0.996264)" xlink:href="#Nimbus_Roman_No9_L_Regular-116"/>
      <use transform="translate(942.853596 14.943915)scale(0.996264)" xlink:href="#Nimbus_Roman_No9_L_Regular-101"/>
      <use transform="translate(1011.993765 14.943915)scale(0.996264)" xlink:href="#Nimbus_Roman_No9_L_Regular_Italic-107"/>
      <use transform="translate(1056.227334 0)scale(0.737241)" xlink:href="#Nimbus_Roman_No9_L_Regular_Italic-77"/>
     </g>
    </g>
   </g>
   <g id="matplotlib.axis_2">
    <g id="ytick_1">
     <g id="line2d_24">
      <defs>
       <path d="M 0 0 
L -3.5 0 
" id="m7c45c5bb71" style="stroke:#000000;stroke-width:0.8;"/>
      </defs>
      <g>
       <use style="stroke:#000000;stroke-width:0.8;" x="63" xlink:href="#m7c45c5bb71" y="314.16"/>
      </g>
     </g>
     <g id="text_5">
      <!-- $10^{-3}$ -->
      <g transform="translate(17.245747 320.914578)scale(0.2 -0.2)">
       <use transform="scale(0.996264)" xlink:href="#Nimbus_Roman_No9_L_Regular-49"/>
       <use transform="translate(49.8132 0)scale(0.996264)" xlink:href="#Nimbus_Roman_No9_L_Regular-48"/>
       <use transform="translate(99.626401 36.163231)scale(0.737241)" xlink:href="#CMSY10-0"/>
       <use transform="translate(156.909271 36.163231)scale(0.737241)" xlink:href="#Nimbus_Roman_No9_L_Regular-51"/>
      </g>
     </g>
    </g>
    <g id="ytick_2">
     <g id="line2d_25">
      <g>
       <use style="stroke:#000000;stroke-width:0.8;" x="63" xlink:href="#m7c45c5bb71" y="132.692985"/>
      </g>
     </g>
     <g id="text_6">
      <!-- $10^{-2}$ -->
      <g transform="translate(17.245747 139.447563)scale(0.2 -0.2)">
       <use transform="scale(0.996264)" xlink:href="#Nimbus_Roman_No9_L_Regular-49"/>
       <use transform="translate(49.8132 0)scale(0.996264)" xlink:href="#Nimbus_Roman_No9_L_Regular-48"/>
       <use transform="translate(99.626401 36.163231)scale(0.737241)" xlink:href="#CMSY10-0"/>
       <use transform="translate(156.909271 36.163231)scale(0.737241)" xlink:href="#Nimbus_Roman_No9_L_Regular-50"/>
      </g>
     </g>
    </g>
    <g id="ytick_3">
     <g id="line2d_26">
      <defs>
       <path d="M 0 0 
L -2 0 
" id="m45229b9ee1" style="stroke:#000000;stroke-width:0.6;"/>
      </defs>
      <g>
       <use style="stroke:#000000;stroke-width:0.6;" x="63" xlink:href="#m45229b9ee1" y="441"/>
      </g>
     </g>
    </g>
    <g id="ytick_4">
     <g id="line2d_27">
      <g>
       <use style="stroke:#000000;stroke-width:0.6;" x="63" xlink:href="#m45229b9ee1" y="409.045245"/>
      </g>
     </g>
    </g>
    <g id="ytick_5">
     <g id="line2d_28">
      <g>
       <use style="stroke:#000000;stroke-width:0.6;" x="63" xlink:href="#m45229b9ee1" y="386.372985"/>
      </g>
     </g>
    </g>
    <g id="ytick_6">
     <g id="line2d_29">
      <g>
       <use style="stroke:#000000;stroke-width:0.6;" x="63" xlink:href="#m45229b9ee1" y="368.787015"/>
      </g>
     </g>
    </g>
    <g id="ytick_7">
     <g id="line2d_30">
      <g>
       <use style="stroke:#000000;stroke-width:0.6;" x="63" xlink:href="#m45229b9ee1" y="354.41823"/>
      </g>
     </g>
    </g>
    <g id="ytick_8">
     <g id="line2d_31">
      <g>
       <use style="stroke:#000000;stroke-width:0.6;" x="63" xlink:href="#m45229b9ee1" y="342.269596"/>
      </g>
     </g>
    </g>
    <g id="ytick_9">
     <g id="line2d_32">
      <g>
       <use style="stroke:#000000;stroke-width:0.6;" x="63" xlink:href="#m45229b9ee1" y="331.745971"/>
      </g>
     </g>
    </g>
    <g id="ytick_10">
     <g id="line2d_33">
      <g>
       <use style="stroke:#000000;stroke-width:0.6;" x="63" xlink:href="#m45229b9ee1" y="322.463475"/>
      </g>
     </g>
    </g>
    <g id="ytick_11">
     <g id="line2d_34">
      <g>
       <use style="stroke:#000000;stroke-width:0.6;" x="63" xlink:href="#m45229b9ee1" y="259.532985"/>
      </g>
     </g>
    </g>
    <g id="ytick_12">
     <g id="line2d_35">
      <g>
       <use style="stroke:#000000;stroke-width:0.6;" x="63" xlink:href="#m45229b9ee1" y="227.57823"/>
      </g>
     </g>
    </g>
    <g id="ytick_13">
     <g id="line2d_36">
      <g>
       <use style="stroke:#000000;stroke-width:0.6;" x="63" xlink:href="#m45229b9ee1" y="204.905971"/>
      </g>
     </g>
    </g>
    <g id="ytick_14">
     <g id="line2d_37">
      <g>
       <use style="stroke:#000000;stroke-width:0.6;" x="63" xlink:href="#m45229b9ee1" y="187.32"/>
      </g>
     </g>
    </g>
    <g id="ytick_15">
     <g id="line2d_38">
      <g>
       <use style="stroke:#000000;stroke-width:0.6;" x="63" xlink:href="#m45229b9ee1" y="172.951216"/>
      </g>
     </g>
    </g>
    <g id="ytick_16">
     <g id="line2d_39">
      <g>
       <use style="stroke:#000000;stroke-width:0.6;" x="63" xlink:href="#m45229b9ee1" y="160.802582"/>
      </g>
     </g>
    </g>
    <g id="ytick_17">
     <g id="line2d_40">
      <g>
       <use style="stroke:#000000;stroke-width:0.6;" x="63" xlink:href="#m45229b9ee1" y="150.278956"/>
      </g>
     </g>
    </g>
    <g id="ytick_18">
     <g id="line2d_41">
      <g>
       <use style="stroke:#000000;stroke-width:0.6;" x="63" xlink:href="#m45229b9ee1" y="140.996461"/>
      </g>
     </g>
    </g>
    <g id="ytick_19">
     <g id="line2d_42">
      <g>
       <use style="stroke:#000000;stroke-width:0.6;" x="63" xlink:href="#m45229b9ee1" y="78.065971"/>
      </g>
     </g>
    </g>
    <g id="text_7">
     <!-- lncRNA transcription rate $k_{R}$ -->
     <defs>
      <path d="M 1.90625 62.296875 
L 2.5 62.296875 
C 3.59375 62.390625 4.796875 62.5 5.59375 62.5 
C 8.796875 62.5 9.796875 61.09375 9.796875 56.390625 
L 9.796875 8.6875 
C 9.796875 3.296875 8.40625 2 2.09375 1.5 
L 2.09375 0 
L 25.703125 0 
L 25.703125 1.5 
C 19.40625 1.890625 18.203125 2.890625 18.203125 8.390625 
L 18.203125 68.09375 
L 17.796875 68.296875 
C 12.59375 66.59375 8.796875 65.59375 1.90625 63.890625 
z
" id="Nimbus_Roman_No9_L_Regular-108"/>
      <path d="M 56.703125 1.59375 
C 52.296875 1.890625 50.296875 3.578125 48.40625 8.765625 
L 39.09375 33.140625 
C 46.796875 34.828125 50.09375 36.21875 53.703125 39.40625 
C 57 42.296875 58.796875 46.171875 58.796875 50.65625 
C 58.796875 59.90625 51.40625 65 38 65 
L 13.203125 65 
L 13.203125 63.390625 
C 17.40625 62.796875 17.90625 62.6875 18.90625 61.984375 
C 19.703125 61.5 20.296875 60.296875 20.296875 59.203125 
C 20.296875 58.015625 19.796875 55.625 19.09375 52.9375 
L 6.796875 8.953125 
C 5 3.09375 4.296875 2.484375 -1.296875 1.59375 
L -1.296875 0 
L 23.09375 0 
L 23.09375 1.59375 
C 17 2.390625 16.296875 2.890625 16.296875 6.171875 
C 16.296875 7.171875 16.59375 8.453125 17.5 11.9375 
L 23.09375 32.734375 
L 29.59375 32.234375 
L 41.90625 0 
L 56.703125 0 
z
M 30.796875 59.203125 
C 31.40625 61.296875 32.703125 61.984375 35.90625 61.984375 
C 44.203125 61.984375 48.296875 58.21875 48.296875 50.84375 
C 48.296875 41 41.90625 35.921875 29.40625 35.921875 
C 27.796875 35.921875 26.703125 36.015625 24.296875 36.421875 
z
" id="Nimbus_Roman_No9_L_Regular_Italic-82"/>
     </defs>
     <g transform="translate(8.932089 365.290576)rotate(-90)scale(0.2 -0.2)">
      <use transform="translate(0 14.943915)scale(0.996264)" xlink:href="#Nimbus_Roman_No9_L_Regular-108"/>
      <use transform="translate(27.69517 14.943915)scale(0.996264)" xlink:href="#Nimbus_Roman_No9_L_Regular-110"/>
      <use transform="translate(77.50837 14.943915)scale(0.996264)" xlink:href="#Nimbus_Roman_No9_L_Regular-99"/>
      <use transform="translate(121.741939 14.943915)scale(0.996264)" xlink:href="#Nimbus_Roman_No9_L_Regular-82"/>
      <use transform="translate(188.19197 14.943915)scale(0.996264)" xlink:href="#Nimbus_Roman_No9_L_Regular-78"/>
      <use transform="translate(256.635228 14.943915)scale(0.996264)" xlink:href="#Nimbus_Roman_No9_L_Regular-65"/>
      <use transform="translate(353.471813 14.943915)scale(0.996264)" xlink:href="#Nimbus_Roman_No9_L_Regular-116"/>
      <use transform="translate(381.166983 14.943915)scale(0.996264)" xlink:href="#Nimbus_Roman_No9_L_Regular-114"/>
      <use transform="translate(414.342213 14.943915)scale(0.996264)" xlink:href="#Nimbus_Roman_No9_L_Regular-97"/>
      <use transform="translate(458.575781 14.943915)scale(0.996264)" xlink:href="#Nimbus_Roman_No9_L_Regular-110"/>
      <use transform="translate(508.388982 14.943915)scale(0.996264)" xlink:href="#Nimbus_Roman_No9_L_Regular-115"/>
      <use transform="translate(547.142688 14.943915)scale(0.996264)" xlink:href="#Nimbus_Roman_No9_L_Regular-99"/>
      <use transform="translate(591.376257 14.943915)scale(0.996264)" xlink:href="#Nimbus_Roman_No9_L_Regular-114"/>
      <use transform="translate(624.551487 14.943915)scale(0.996264)" xlink:href="#Nimbus_Roman_No9_L_Regular-105"/>
      <use transform="translate(652.246656 14.943915)scale(0.996264)" xlink:href="#Nimbus_Roman_No9_L_Regular-112"/>
      <use transform="translate(702.059857 14.943915)scale(0.996264)" xlink:href="#Nimbus_Roman_No9_L_Regular-116"/>
      <use transform="translate(729.755026 14.943915)scale(0.996264)" xlink:href="#Nimbus_Roman_No9_L_Regular-105"/>
      <use transform="translate(757.450196 14.943915)scale(0.996264)" xlink:href="#Nimbus_Roman_No9_L_Regular-111"/>
      <use transform="translate(807.263396 14.943915)scale(0.996264)" xlink:href="#Nimbus_Roman_No9_L_Regular-110"/>
      <use transform="translate(881.983197 14.943915)scale(0.996264)" xlink:href="#Nimbus_Roman_No9_L_Regular-114"/>
      <use transform="translate(915.158427 14.943915)scale(0.996264)" xlink:href="#Nimbus_Roman_No9_L_Regular-97"/>
      <use transform="translate(959.391996 14.943915)scale(0.996264)" xlink:href="#Nimbus_Roman_No9_L_Regular-116"/>
      <use transform="translate(987.087165 14.943915)scale(0.996264)" xlink:href="#Nimbus_Roman_No9_L_Regular-101"/>
      <use transform="translate(1056.227334 14.943915)scale(0.996264)" xlink:href="#Nimbus_Roman_No9_L_Regular_Italic-107"/>
      <use transform="translate(1100.460903 0)scale(0.737241)" xlink:href="#Nimbus_Roman_No9_L_Regular_Italic-82"/>
     </g>
    </g>
   </g>
   <g id="patch_3">
    <path d="M 63 441 
L 63 60.48 
" style="fill:none;stroke:#000000;stroke-linecap:square;stroke-linejoin:miter;stroke-width:0.8;"/>
   </g>
   <g id="patch_4">
    <path d="M 375.48 441 
L 375.48 60.48 
" style="fill:none;stroke:#000000;stroke-linecap:square;stroke-linejoin:miter;stroke-width:0.8;"/>
   </g>
   <g id="patch_5">
    <path d="M 63 441 
L 375.48 441 
" style="fill:none;stroke:#000000;stroke-linecap:square;stroke-linejoin:miter;stroke-width:0.8;"/>
   </g>
   <g id="patch_6">
    <path d="M 63 60.48 
L 375.48 60.48 
" style="fill:none;stroke:#000000;stroke-linecap:square;stroke-linejoin:miter;stroke-width:0.8;"/>
   </g>
  </g>
  <g id="axes_2">
   <g id="patch_7">
    <path clip-path="url(#p6d1495af5e)" d="M 395.01 441 
L 395.01 426.364615 
L 395.01 75.115385 
L 395.01 60.48 
L 414.036 60.48 
L 414.036 75.115385 
L 414.036 426.364615 
L 414.036 441 
z
" style="fill:#ffffff;stroke:#ffffff;stroke-linejoin:miter;stroke-width:0.01;"/>
   </g>
   <g id="QuadMesh_1">
    <path clip-path="url(#p6d1495af5e)" d="M 395.01 441 
L 414.036 441 
L 414.036 426.364615 
L 395.01 426.364615 
L 395.01 441 
" style="fill:#46075a;"/>
    <path clip-path="url(#p6d1495af5e)" d="M 395.01 426.364615 
L 414.036 426.364615 
L 414.036 411.729231 
L 395.01 411.729231 
L 395.01 426.364615 
" style="fill:#481668;"/>
    <path clip-path="url(#p6d1495af5e)" d="M 395.01 411.729231 
L 414.036 411.729231 
L 414.036 397.093846 
L 395.01 397.093846 
L 395.01 411.729231 
" style="fill:#482374;"/>
    <path clip-path="url(#p6d1495af5e)" d="M 395.01 397.093846 
L 414.036 397.093846 
L 414.036 382.458462 
L 395.01 382.458462 
L 395.01 397.093846 
" style="fill:#472f7d;"/>
    <path clip-path="url(#p6d1495af5e)" d="M 395.01 382.458462 
L 414.036 382.458462 
L 414.036 367.823077 
L 395.01 367.823077 
L 395.01 382.458462 
" style="fill:#443b84;"/>
    <path clip-path="url(#p6d1495af5e)" d="M 395.01 367.823077 
L 414.036 367.823077 
L 414.036 353.187692 
L 395.01 353.187692 
L 395.01 367.823077 
" style="fill:#3f4788;"/>
    <path clip-path="url(#p6d1495af5e)" d="M 395.01 353.187692 
L 414.036 353.187692 
L 414.036 338.552308 
L 395.01 338.552308 
L 395.01 353.187692 
" style="fill:#3b528b;"/>
    <path clip-path="url(#p6d1495af5e)" d="M 395.01 338.552308 
L 414.036 338.552308 
L 414.036 323.916923 
L 395.01 323.916923 
L 395.01 338.552308 
" style="fill:#365c8d;"/>
    <path clip-path="url(#p6d1495af5e)" d="M 395.01 323.916923 
L 414.036 323.916923 
L 414.036 309.281538 
L 395.01 309.281538 
L 395.01 323.916923 
" style="fill:#31668e;"/>
    <path clip-path="url(#p6d1495af5e)" d="M 395.01 309.281538 
L 414.036 309.281538 
L 414.036 294.646154 
L 395.01 294.646154 
L 395.01 309.281538 
" style="fill:#2d708e;"/>
    <path clip-path="url(#p6d1495af5e)" d="M 395.01 294.646154 
L 414.036 294.646154 
L 414.036 280.010769 
L 395.01 280.010769 
L 395.01 294.646154 
" style="fill:#29798e;"/>
    <path clip-path="url(#p6d1495af5e)" d="M 395.01 280.010769 
L 414.036 280.010769 
L 414.036 265.375385 
L 395.01 265.375385 
L 395.01 280.010769 
" style="fill:#26828e;"/>
    <path clip-path="url(#p6d1495af5e)" d="M 395.01 265.375385 
L 414.036 265.375385 
L 414.036 250.74 
L 395.01 250.74 
L 395.01 265.375385 
" style="fill:#228c8d;"/>
    <path clip-path="url(#p6d1495af5e)" d="M 395.01 250.74 
L 414.036 250.74 
L 414.036 236.104615 
L 395.01 236.104615 
L 395.01 250.74 
" style="fill:#1f948c;"/>
    <path clip-path="url(#p6d1495af5e)" d="M 395.01 236.104615 
L 414.036 236.104615 
L 414.036 221.469231 
L 395.01 221.469231 
L 395.01 236.104615 
" style="fill:#1f9e89;"/>
    <path clip-path="url(#p6d1495af5e)" d="M 395.01 221.469231 
L 414.036 221.469231 
L 414.036 206.833846 
L 395.01 206.833846 
L 395.01 221.469231 
" style="fill:#22a785;"/>
    <path clip-path="url(#p6d1495af5e)" d="M 395.01 206.833846 
L 414.036 206.833846 
L 414.036 192.198462 
L 395.01 192.198462 
L 395.01 206.833846 
" style="fill:#2ab07f;"/>
    <path clip-path="url(#p6d1495af5e)" d="M 395.01 192.198462 
L 414.036 192.198462 
L 414.036 177.563077 
L 395.01 177.563077 
L 395.01 192.198462 
" style="fill:#38b977;"/>
    <path clip-path="url(#p6d1495af5e)" d="M 395.01 177.563077 
L 414.036 177.563077 
L 414.036 162.927692 
L 395.01 162.927692 
L 395.01 177.563077 
" style="fill:#4ac16d;"/>
    <path clip-path="url(#p6d1495af5e)" d="M 395.01 162.927692 
L 414.036 162.927692 
L 414.036 148.292308 
L 395.01 148.292308 
L 395.01 162.927692 
" style="fill:#5ec962;"/>
    <path clip-path="url(#p6d1495af5e)" d="M 395.01 148.292308 
L 414.036 148.292308 
L 414.036 133.656923 
L 395.01 133.656923 
L 395.01 148.292308 
" style="fill:#73d056;"/>
    <path clip-path="url(#p6d1495af5e)" d="M 395.01 133.656923 
L 414.036 133.656923 
L 414.036 119.021538 
L 395.01 119.021538 
L 395.01 133.656923 
" style="fill:#8bd646;"/>
    <path clip-path="url(#p6d1495af5e)" d="M 395.01 119.021538 
L 414.036 119.021538 
L 414.036 104.386154 
L 395.01 104.386154 
L 395.01 119.021538 
" style="fill:#a5db36;"/>
    <path clip-path="url(#p6d1495af5e)" d="M 395.01 104.386154 
L 414.036 104.386154 
L 414.036 89.750769 
L 395.01 89.750769 
L 395.01 104.386154 
" style="fill:#c0df25;"/>
    <path clip-path="url(#p6d1495af5e)" d="M 395.01 89.750769 
L 414.036 89.750769 
L 414.036 75.115385 
L 395.01 75.115385 
L 395.01 89.750769 
" style="fill:#dae319;"/>
    <path clip-path="url(#p6d1495af5e)" d="M 395.01 75.115385 
L 414.036 75.115385 
L 414.036 60.48 
L 395.01 60.48 
L 395.01 75.115385 
" style="fill:#f4e61e;"/>
   </g>
   <g id="matplotlib.axis_3"/>
   <g id="matplotlib.axis_4">
    <g id="ytick_20">
     <g id="line2d_43">
      <defs>
       <path d="M 0 0 
L 3.5 0 
" id="mde563adc36" style="stroke:#000000;stroke-width:0.8;"/>
      </defs>
      <g>
       <use style="stroke:#000000;stroke-width:0.8;" x="414.036" xlink:href="#mde563adc36" y="441"/>
      </g>
     </g>
     <g id="text_8">
      <!-- $0.60$ -->
      <defs>
       <path d="M 19.203125 5.296875 
C 19.203125 8.1875 16.796875 10.59375 13.90625 10.59375 
C 11 10.59375 8.59375 8.1875 8.59375 5.296875 
C 8.59375 2.390625 11 0 13.90625 0 
C 16.796875 0 19.203125 2.390625 19.203125 5.296875 
z
" id="CMMI10-58"/>
       <path d="M 44.59375 68.59375 
C 33.203125 67.59375 27.40625 65.6875 20.09375 60.59375 
C 9.296875 52.890625 3.40625 41.484375 3.40625 28.140625 
C 3.40625 19.5 6.09375 10.75 10.40625 5.765625 
C 14.203125 1.390625 19.59375 -1 25.796875 -1 
C 38.203125 -1 46.796875 8.453125 46.796875 22.1875 
C 46.796875 34.90625 39.5 43 28 43 
C 23.59375 43 21.5 42.296875 15.203125 38.484375 
C 17.90625 53.59375 29.09375 64.390625 44.796875 67 
z
M 24.203125 38.390625 
C 32.796875 38.390625 37.796875 31.234375 37.796875 18.796875 
C 37.796875 7.859375 33.90625 1.796875 26.90625 1.796875 
C 18.09375 1.796875 12.703125 11.140625 12.703125 26.5625 
C 12.703125 31.625 13.5 34.421875 15.5 35.90625 
C 17.59375 37.5 20.703125 38.390625 24.203125 38.390625 
z
" id="Nimbus_Roman_No9_L_Regular-54"/>
      </defs>
      <g transform="translate(421.036 447.754578)scale(0.2 -0.2)">
       <use transform="scale(0.996264)" xlink:href="#Nimbus_Roman_No9_L_Regular-48"/>
       <use transform="translate(49.8132 0)scale(0.996264)" xlink:href="#CMMI10-58"/>
       <use transform="translate(77.408707 0)scale(0.996264)" xlink:href="#Nimbus_Roman_No9_L_Regular-54"/>
       <use transform="translate(127.221908 0)scale(0.996264)" xlink:href="#Nimbus_Roman_No9_L_Regular-48"/>
      </g>
     </g>
    </g>
    <g id="ytick_21">
     <g id="line2d_44">
      <g>
       <use style="stroke:#000000;stroke-width:0.8;" x="414.036" xlink:href="#mde563adc36" y="397.093846"/>
      </g>
     </g>
     <g id="text_9">
      <!-- $0.75$ -->
      <defs>
       <path d="M 44.90625 66 
L 7.90625 66 
L 2 51.296875 
L 3.703125 50.5 
C 8 57.296875 9.796875 58.59375 15.296875 58.59375 
L 37 58.59375 
L 17.203125 -1 
L 23.703125 -1 
L 44.90625 64.390625 
z
" id="Nimbus_Roman_No9_L_Regular-55"/>
       <path d="M 18.09375 58.09375 
L 37.703125 58.09375 
C 39.296875 58.09375 39.703125 58.296875 40 58.984375 
L 43.796875 67.890625 
L 42.90625 68.59375 
C 41.40625 66.5 40.40625 66 38.296875 66 
L 17.40625 66 
L 6.5 42.453125 
C 6.40625 42.265625 6.40625 42.15625 6.40625 41.96875 
C 6.40625 41.46875 6.796875 41.171875 7.59375 41.171875 
C 10.796875 41.171875 14.796875 40.484375 18.90625 39.1875 
C 30.40625 35.53125 35.703125 29.40625 35.703125 19.609375 
C 35.703125 10.109375 29.59375 2.6875 21.796875 2.6875 
C 19.796875 2.6875 18.09375 3.390625 15.09375 5.5625 
C 11.90625 7.84375 9.59375 8.828125 7.5 8.828125 
C 4.59375 8.828125 3.203125 7.640625 3.203125 5.171875 
C 3.203125 1.390625 7.90625 -1 15.40625 -1 
C 23.796875 -1 31 1.6875 36 6.75 
C 40.59375 11.203125 42.703125 16.84375 42.703125 24.359375 
C 42.703125 31.484375 40.796875 36.03125 35.796875 40.96875 
C 31.40625 45.328125 25.703125 47.609375 13.90625 49.6875 
z
" id="Nimbus_Roman_No9_L_Regular-53"/>
      </defs>
      <g transform="translate(421.036 403.848424)scale(0.2 -0.2)">
       <use transform="scale(0.996264)" xlink:href="#Nimbus_Roman_No9_L_Regular-48"/>
       <use transform="translate(49.8132 0)scale(0.996264)" xlink:href="#CMMI10-58"/>
       <use transform="translate(77.408707 0)scale(0.996264)" xlink:href="#Nimbus_Roman_No9_L_Regular-55"/>
       <use transform="translate(127.221908 0)scale(0.996264)" xlink:href="#Nimbus_Roman_No9_L_Regular-53"/>
      </g>
     </g>
    </g>
    <g id="ytick_22">
     <g id="line2d_45">
      <g>
       <use style="stroke:#000000;stroke-width:0.8;" x="414.036" xlink:href="#mde563adc36" y="353.187692"/>
      </g>
     </g>
     <g id="text_10">
      <!-- $0.90$ -->
      <defs>
       <path d="M 5.90625 -1.90625 
C 17.09375 -0.609375 22.59375 1.296875 29.40625 6.1875 
C 39.796875 13.796875 45.90625 26.1875 45.90625 39.71875 
C 45.90625 56.265625 36.703125 68 23.796875 68 
C 11.90625 68 3 57.875 3 44.328125 
C 3 32.109375 10.203125 24 21 24 
C 26.5 24 30.703125 25.59375 36 29.703125 
C 31.90625 13.390625 20.796875 2.6875 5.59375 0.09375 
z
M 36.203125 35.8125 
C 36.203125 33.8125 35.796875 32.90625 34.703125 32 
C 31.90625 29.59375 28.203125 28.296875 24.59375 28.296875 
C 17 28.296875 12.203125 35.8125 12.203125 47.75 
C 12.203125 53.453125 13.796875 59.46875 15.90625 62.078125 
C 17.59375 64.09375 20.09375 65.1875 23 65.1875 
C 31.703125 65.1875 36.203125 56.5625 36.203125 39.71875 
z
" id="Nimbus_Roman_No9_L_Regular-57"/>
      </defs>
      <g transform="translate(421.036 359.94227)scale(0.2 -0.2)">
       <use transform="scale(0.996264)" xlink:href="#Nimbus_Roman_No9_L_Regular-48"/>
       <use transform="translate(49.8132 0)scale(0.996264)" xlink:href="#CMMI10-58"/>
       <use transform="translate(77.408707 0)scale(0.996264)" xlink:href="#Nimbus_Roman_No9_L_Regular-57"/>
       <use transform="translate(127.221908 0)scale(0.996264)" xlink:href="#Nimbus_Roman_No9_L_Regular-48"/>
      </g>
     </g>
    </g>
    <g id="ytick_23">
     <g id="line2d_46">
      <g>
       <use style="stroke:#000000;stroke-width:0.8;" x="414.036" xlink:href="#mde563adc36" y="309.281538"/>
      </g>
     </g>
     <g id="text_11">
      <!-- $1.05$ -->
      <g transform="translate(421.036 316.036116)scale(0.2 -0.2)">
       <use transform="scale(0.996264)" xlink:href="#Nimbus_Roman_No9_L_Regular-49"/>
       <use transform="translate(49.8132 0)scale(0.996264)" xlink:href="#CMMI10-58"/>
       <use transform="translate(77.408707 0)scale(0.996264)" xlink:href="#Nimbus_Roman_No9_L_Regular-48"/>
       <use transform="translate(127.221908 0)scale(0.996264)" xlink:href="#Nimbus_Roman_No9_L_Regular-53"/>
      </g>
     </g>
    </g>
    <g id="ytick_24">
     <g id="line2d_47">
      <g>
       <use style="stroke:#000000;stroke-width:0.8;" x="414.036" xlink:href="#mde563adc36" y="265.375385"/>
      </g>
     </g>
     <g id="text_12">
      <!-- $1.20$ -->
      <g transform="translate(421.036 272.129962)scale(0.2 -0.2)">
       <use transform="scale(0.996264)" xlink:href="#Nimbus_Roman_No9_L_Regular-49"/>
       <use transform="translate(49.8132 0)scale(0.996264)" xlink:href="#CMMI10-58"/>
       <use transform="translate(77.408707 0)scale(0.996264)" xlink:href="#Nimbus_Roman_No9_L_Regular-50"/>
       <use transform="translate(127.221908 0)scale(0.996264)" xlink:href="#Nimbus_Roman_No9_L_Regular-48"/>
      </g>
     </g>
    </g>
    <g id="ytick_25">
     <g id="line2d_48">
      <g>
       <use style="stroke:#000000;stroke-width:0.8;" x="414.036" xlink:href="#mde563adc36" y="221.469231"/>
      </g>
     </g>
     <g id="text_13">
      <!-- $1.35$ -->
      <g transform="translate(421.036 228.223808)scale(0.2 -0.2)">
       <use transform="scale(0.996264)" xlink:href="#Nimbus_Roman_No9_L_Regular-49"/>
       <use transform="translate(49.8132 0)scale(0.996264)" xlink:href="#CMMI10-58"/>
       <use transform="translate(77.408707 0)scale(0.996264)" xlink:href="#Nimbus_Roman_No9_L_Regular-51"/>
       <use transform="translate(127.221908 0)scale(0.996264)" xlink:href="#Nimbus_Roman_No9_L_Regular-53"/>
      </g>
     </g>
    </g>
    <g id="ytick_26">
     <g id="line2d_49">
      <g>
       <use style="stroke:#000000;stroke-width:0.8;" x="414.036" xlink:href="#mde563adc36" y="177.563077"/>
      </g>
     </g>
     <g id="text_14">
      <!-- $1.50$ -->
      <g transform="translate(421.036 184.317654)scale(0.2 -0.2)">
       <use transform="scale(0.996264)" xlink:href="#Nimbus_Roman_No9_L_Regular-49"/>
       <use transform="translate(49.8132 0)scale(0.996264)" xlink:href="#CMMI10-58"/>
       <use transform="translate(77.408707 0)scale(0.996264)" xlink:href="#Nimbus_Roman_No9_L_Regular-53"/>
       <use transform="translate(127.221908 0)scale(0.996264)" xlink:href="#Nimbus_Roman_No9_L_Regular-48"/>
      </g>
     </g>
    </g>
    <g id="ytick_27">
     <g id="line2d_50">
      <g>
       <use style="stroke:#000000;stroke-width:0.8;" x="414.036" xlink:href="#mde563adc36" y="133.656923"/>
      </g>
     </g>
     <g id="text_15">
      <!-- $1.65$ -->
      <g transform="translate(421.036 140.411501)scale(0.2 -0.2)">
       <use transform="scale(0.996264)" xlink:href="#Nimbus_Roman_No9_L_Regular-49"/>
       <use transform="translate(49.8132 0)scale(0.996264)" xlink:href="#CMMI10-58"/>
       <use transform="translate(77.408707 0)scale(0.996264)" xlink:href="#Nimbus_Roman_No9_L_Regular-54"/>
       <use transform="translate(127.221908 0)scale(0.996264)" xlink:href="#Nimbus_Roman_No9_L_Regular-53"/>
      </g>
     </g>
    </g>
    <g id="ytick_28">
     <g id="line2d_51">
      <g>
       <use style="stroke:#000000;stroke-width:0.8;" x="414.036" xlink:href="#mde563adc36" y="89.750769"/>
      </g>
     </g>
     <g id="text_16">
      <!-- $1.80$ -->
      <defs>
       <path d="M 29 37.5 
C 38.90625 42.796875 42.40625 47 42.40625 53.796875 
C 42.40625 62 35.203125 68 25.203125 68 
C 14.296875 68 6.203125 61.296875 6.203125 52.203125 
C 6.203125 45.6875 8.09375 42.796875 18.59375 33.59375 
C 7.796875 25.390625 5.59375 22.296875 5.59375 15.5 
C 5.59375 5.796875 13.5 -1 24.796875 -1 
C 36.796875 -1 44.5 5.59375 44.5 15.890625 
C 44.5 23.59375 41.09375 28.5 29 37.5 
z
M 27.203125 27.1875 
C 34.5 22 36.90625 18.390625 36.90625 12.796875 
C 36.90625 6.296875 32.40625 1.796875 25.90625 1.796875 
C 18.296875 1.796875 13.203125 7.59375 13.203125 16.296875 
C 13.203125 22.6875 15.40625 26.890625 21.203125 31.59375 
z
M 26.09375 39.296875 
C 17.203125 45.09375 13.59375 49.6875 13.59375 55.296875 
C 13.59375 61.09375 18.09375 65.1875 24.40625 65.1875 
C 31.203125 65.1875 35.5 60.796875 35.5 53.890625 
C 35.5 48.1875 32.703125 43.6875 27 39.890625 
C 26.5 39.59375 26.5 39.59375 26.09375 39.296875 
z
" id="Nimbus_Roman_No9_L_Regular-56"/>
      </defs>
      <g transform="translate(421.036 96.505347)scale(0.2 -0.2)">
       <use transform="scale(0.996264)" xlink:href="#Nimbus_Roman_No9_L_Regular-49"/>
       <use transform="translate(49.8132 0)scale(0.996264)" xlink:href="#CMMI10-58"/>
       <use transform="translate(77.408707 0)scale(0.996264)" xlink:href="#Nimbus_Roman_No9_L_Regular-56"/>
       <use transform="translate(127.221908 0)scale(0.996264)" xlink:href="#Nimbus_Roman_No9_L_Regular-48"/>
      </g>
     </g>
    </g>
   </g>
   <g id="patch_8">
    <path d="M 395.01 441 
L 395.01 426.364615 
L 395.01 75.115385 
L 395.01 60.48 
L 414.036 60.48 
L 414.036 75.115385 
L 414.036 426.364615 
L 414.036 441 
z
" style="fill:none;stroke:#000000;stroke-linejoin:miter;stroke-width:0.8;"/>
   </g>
  </g>
 </g>
 <defs>
  <clipPath id="pc1094c849b">
   <rect height="380.52" width="312.48" x="63" y="60.48"/>
  </clipPath>
  <clipPath id="p6d1495af5e">
   <rect height="380.52" width="19.026" x="395.01" y="60.48"/>
  </clipPath>
 </defs>
</svg>
