<?xml version="1.0" encoding="utf-8" standalone="no"?>
<!DOCTYPE svg PUBLIC "-//W3C//DTD SVG 1.1//EN"
  "http://www.w3.org/Graphics/SVG/1.1/DTD/svg11.dtd">
<!-- Created with matplotlib (http://matplotlib.org/) -->
<svg height="576pt" version="1.1" viewBox="0 0 720 576" width="720pt" xmlns="http://www.w3.org/2000/svg" xmlns:xlink="http://www.w3.org/1999/xlink">
 <defs>
  <style type="text/css">
*{stroke-linecap:butt;stroke-linejoin:round;}
  </style>
 </defs>
 <g id="figure_1">
  <g id="patch_1">
   <path d="M 0 576 
L 720 576 
L 720 0 
L 0 0 
z
" style="fill:#ffffff;"/>
  </g>
  <g id="axes_1">
   <g id="patch_2">
    <path d="M 90 504 
L 648 504 
L 648 69.12 
L 90 69.12 
z
" style="fill:#ffffff;"/>
   </g>
   <g id="matplotlib.axis_1">
    <g id="xtick_1">
     <g id="line2d_1">
      <defs>
       <path d="M 0 0 
L 0 3.5 
" id="m1d9bb04a57" style="stroke:#000000;stroke-width:0.8;"/>
      </defs>
      <g>
       <use style="stroke:#000000;stroke-width:0.8;" x="115.363636" xlink:href="#m1d9bb04a57" y="504"/>
      </g>
     </g>
     <g id="text_1">
      <!-- 0.0 -->
      <defs>
       <path d="M 31.78125 66.40625 
Q 24.171875 66.40625 20.328125 58.90625 
Q 16.5 51.421875 16.5 36.375 
Q 16.5 21.390625 20.328125 13.890625 
Q 24.171875 6.390625 31.78125 6.390625 
Q 39.453125 6.390625 43.28125 13.890625 
Q 47.125 21.390625 47.125 36.375 
Q 47.125 51.421875 43.28125 58.90625 
Q 39.453125 66.40625 31.78125 66.40625 
z
M 31.78125 74.21875 
Q 44.046875 74.21875 50.515625 64.515625 
Q 56.984375 54.828125 56.984375 36.375 
Q 56.984375 17.96875 50.515625 8.265625 
Q 44.046875 -1.421875 31.78125 -1.421875 
Q 19.53125 -1.421875 13.0625 8.265625 
Q 6.59375 17.96875 6.59375 36.375 
Q 6.59375 54.828125 13.0625 64.515625 
Q 19.53125 74.21875 31.78125 74.21875 
z
" id="DejaVuSans-30"/>
       <path d="M 10.6875 12.40625 
L 21 12.40625 
L 21 0 
L 10.6875 0 
z
" id="DejaVuSans-2e"/>
      </defs>
      <g transform="translate(99.460511 526.196875)scale(0.2 -0.2)">
       <use xlink:href="#DejaVuSans-30"/>
       <use x="63.623047" xlink:href="#DejaVuSans-2e"/>
       <use x="95.410156" xlink:href="#DejaVuSans-30"/>
      </g>
     </g>
    </g>
    <g id="xtick_2">
     <g id="line2d_2">
      <g>
       <use style="stroke:#000000;stroke-width:0.8;" x="183.528088" xlink:href="#m1d9bb04a57" y="504"/>
      </g>
     </g>
     <g id="text_2">
      <!-- 0.5 -->
      <defs>
       <path d="M 10.796875 72.90625 
L 49.515625 72.90625 
L 49.515625 64.59375 
L 19.828125 64.59375 
L 19.828125 46.734375 
Q 21.96875 47.46875 24.109375 47.828125 
Q 26.265625 48.1875 28.421875 48.1875 
Q 40.625 48.1875 47.75 41.5 
Q 54.890625 34.8125 54.890625 23.390625 
Q 54.890625 11.625 47.5625 5.09375 
Q 40.234375 -1.421875 26.90625 -1.421875 
Q 22.3125 -1.421875 17.546875 -0.640625 
Q 12.796875 0.140625 7.71875 1.703125 
L 7.71875 11.625 
Q 12.109375 9.234375 16.796875 8.0625 
Q 21.484375 6.890625 26.703125 6.890625 
Q 35.15625 6.890625 40.078125 11.328125 
Q 45.015625 15.765625 45.015625 23.390625 
Q 45.015625 31 40.078125 35.4375 
Q 35.15625 39.890625 26.703125 39.890625 
Q 22.75 39.890625 18.8125 39.015625 
Q 14.890625 38.140625 10.796875 36.28125 
z
" id="DejaVuSans-35"/>
      </defs>
      <g transform="translate(167.624963 526.196875)scale(0.2 -0.2)">
       <use xlink:href="#DejaVuSans-30"/>
       <use x="63.623047" xlink:href="#DejaVuSans-2e"/>
       <use x="95.410156" xlink:href="#DejaVuSans-35"/>
      </g>
     </g>
    </g>
    <g id="xtick_3">
     <g id="line2d_3">
      <g>
       <use style="stroke:#000000;stroke-width:0.8;" x="251.69254" xlink:href="#m1d9bb04a57" y="504"/>
      </g>
     </g>
     <g id="text_3">
      <!-- 1.0 -->
      <defs>
       <path d="M 12.40625 8.296875 
L 28.515625 8.296875 
L 28.515625 63.921875 
L 10.984375 60.40625 
L 10.984375 69.390625 
L 28.421875 72.90625 
L 38.28125 72.90625 
L 38.28125 8.296875 
L 54.390625 8.296875 
L 54.390625 0 
L 12.40625 0 
z
" id="DejaVuSans-31"/>
      </defs>
      <g transform="translate(235.789415 526.196875)scale(0.2 -0.2)">
       <use xlink:href="#DejaVuSans-31"/>
       <use x="63.623047" xlink:href="#DejaVuSans-2e"/>
       <use x="95.410156" xlink:href="#DejaVuSans-30"/>
      </g>
     </g>
    </g>
    <g id="xtick_4">
     <g id="line2d_4">
      <g>
       <use style="stroke:#000000;stroke-width:0.8;" x="319.856992" xlink:href="#m1d9bb04a57" y="504"/>
      </g>
     </g>
     <g id="text_4">
      <!-- 1.5 -->
      <g transform="translate(303.953867 526.196875)scale(0.2 -0.2)">
       <use xlink:href="#DejaVuSans-31"/>
       <use x="63.623047" xlink:href="#DejaVuSans-2e"/>
       <use x="95.410156" xlink:href="#DejaVuSans-35"/>
      </g>
     </g>
    </g>
    <g id="xtick_5">
     <g id="line2d_5">
      <g>
       <use style="stroke:#000000;stroke-width:0.8;" x="388.021444" xlink:href="#m1d9bb04a57" y="504"/>
      </g>
     </g>
     <g id="text_5">
      <!-- 2.0 -->
      <defs>
       <path d="M 19.1875 8.296875 
L 53.609375 8.296875 
L 53.609375 0 
L 7.328125 0 
L 7.328125 8.296875 
Q 12.9375 14.109375 22.625 23.890625 
Q 32.328125 33.6875 34.8125 36.53125 
Q 39.546875 41.84375 41.421875 45.53125 
Q 43.3125 49.21875 43.3125 52.78125 
Q 43.3125 58.59375 39.234375 62.25 
Q 35.15625 65.921875 28.609375 65.921875 
Q 23.96875 65.921875 18.8125 64.3125 
Q 13.671875 62.703125 7.8125 59.421875 
L 7.8125 69.390625 
Q 13.765625 71.78125 18.9375 73 
Q 24.125 74.21875 28.421875 74.21875 
Q 39.75 74.21875 46.484375 68.546875 
Q 53.21875 62.890625 53.21875 53.421875 
Q 53.21875 48.921875 51.53125 44.890625 
Q 49.859375 40.875 45.40625 35.40625 
Q 44.1875 33.984375 37.640625 27.21875 
Q 31.109375 20.453125 19.1875 8.296875 
z
" id="DejaVuSans-32"/>
      </defs>
      <g transform="translate(372.118319 526.196875)scale(0.2 -0.2)">
       <use xlink:href="#DejaVuSans-32"/>
       <use x="63.623047" xlink:href="#DejaVuSans-2e"/>
       <use x="95.410156" xlink:href="#DejaVuSans-30"/>
      </g>
     </g>
    </g>
    <g id="xtick_6">
     <g id="line2d_6">
      <g>
       <use style="stroke:#000000;stroke-width:0.8;" x="456.185896" xlink:href="#m1d9bb04a57" y="504"/>
      </g>
     </g>
     <g id="text_6">
      <!-- 2.5 -->
      <g transform="translate(440.282771 526.196875)scale(0.2 -0.2)">
       <use xlink:href="#DejaVuSans-32"/>
       <use x="63.623047" xlink:href="#DejaVuSans-2e"/>
       <use x="95.410156" xlink:href="#DejaVuSans-35"/>
      </g>
     </g>
    </g>
    <g id="xtick_7">
     <g id="line2d_7">
      <g>
       <use style="stroke:#000000;stroke-width:0.8;" x="524.350348" xlink:href="#m1d9bb04a57" y="504"/>
      </g>
     </g>
     <g id="text_7">
      <!-- 3.0 -->
      <defs>
       <path d="M 40.578125 39.3125 
Q 47.65625 37.796875 51.625 33 
Q 55.609375 28.21875 55.609375 21.1875 
Q 55.609375 10.40625 48.1875 4.484375 
Q 40.765625 -1.421875 27.09375 -1.421875 
Q 22.515625 -1.421875 17.65625 -0.515625 
Q 12.796875 0.390625 7.625 2.203125 
L 7.625 11.71875 
Q 11.71875 9.328125 16.59375 8.109375 
Q 21.484375 6.890625 26.8125 6.890625 
Q 36.078125 6.890625 40.9375 10.546875 
Q 45.796875 14.203125 45.796875 21.1875 
Q 45.796875 27.640625 41.28125 31.265625 
Q 36.765625 34.90625 28.71875 34.90625 
L 20.21875 34.90625 
L 20.21875 43.015625 
L 29.109375 43.015625 
Q 36.375 43.015625 40.234375 45.921875 
Q 44.09375 48.828125 44.09375 54.296875 
Q 44.09375 59.90625 40.109375 62.90625 
Q 36.140625 65.921875 28.71875 65.921875 
Q 24.65625 65.921875 20.015625 65.03125 
Q 15.375 64.15625 9.8125 62.3125 
L 9.8125 71.09375 
Q 15.4375 72.65625 20.34375 73.4375 
Q 25.25 74.21875 29.59375 74.21875 
Q 40.828125 74.21875 47.359375 69.109375 
Q 53.90625 64.015625 53.90625 55.328125 
Q 53.90625 49.265625 50.4375 45.09375 
Q 46.96875 40.921875 40.578125 39.3125 
z
" id="DejaVuSans-33"/>
      </defs>
      <g transform="translate(508.447223 526.196875)scale(0.2 -0.2)">
       <use xlink:href="#DejaVuSans-33"/>
       <use x="63.623047" xlink:href="#DejaVuSans-2e"/>
       <use x="95.410156" xlink:href="#DejaVuSans-30"/>
      </g>
     </g>
    </g>
    <g id="xtick_8">
     <g id="line2d_8">
      <g>
       <use style="stroke:#000000;stroke-width:0.8;" x="592.5148" xlink:href="#m1d9bb04a57" y="504"/>
      </g>
     </g>
     <g id="text_8">
      <!-- 3.5 -->
      <g transform="translate(576.611675 526.196875)scale(0.2 -0.2)">
       <use xlink:href="#DejaVuSans-33"/>
       <use x="63.623047" xlink:href="#DejaVuSans-2e"/>
       <use x="95.410156" xlink:href="#DejaVuSans-35"/>
      </g>
     </g>
    </g>
    <g id="text_9">
     <!-- Dimensionless time ($k_d\tau$) -->
     <defs>
      <path d="M 19.671875 64.796875 
L 19.671875 8.109375 
L 31.59375 8.109375 
Q 46.6875 8.109375 53.6875 14.9375 
Q 60.6875 21.78125 60.6875 36.53125 
Q 60.6875 51.171875 53.6875 57.984375 
Q 46.6875 64.796875 31.59375 64.796875 
z
M 9.8125 72.90625 
L 30.078125 72.90625 
Q 51.265625 72.90625 61.171875 64.09375 
Q 71.09375 55.28125 71.09375 36.53125 
Q 71.09375 17.671875 61.125 8.828125 
Q 51.171875 0 30.078125 0 
L 9.8125 0 
z
" id="DejaVuSans-44"/>
      <path d="M 9.421875 54.6875 
L 18.40625 54.6875 
L 18.40625 0 
L 9.421875 0 
z
M 9.421875 75.984375 
L 18.40625 75.984375 
L 18.40625 64.59375 
L 9.421875 64.59375 
z
" id="DejaVuSans-69"/>
      <path d="M 52 44.1875 
Q 55.375 50.25 60.0625 53.125 
Q 64.75 56 71.09375 56 
Q 79.640625 56 84.28125 50.015625 
Q 88.921875 44.046875 88.921875 33.015625 
L 88.921875 0 
L 79.890625 0 
L 79.890625 32.71875 
Q 79.890625 40.578125 77.09375 44.375 
Q 74.3125 48.1875 68.609375 48.1875 
Q 61.625 48.1875 57.5625 43.546875 
Q 53.515625 38.921875 53.515625 30.90625 
L 53.515625 0 
L 44.484375 0 
L 44.484375 32.71875 
Q 44.484375 40.625 41.703125 44.40625 
Q 38.921875 48.1875 33.109375 48.1875 
Q 26.21875 48.1875 22.15625 43.53125 
Q 18.109375 38.875 18.109375 30.90625 
L 18.109375 0 
L 9.078125 0 
L 9.078125 54.6875 
L 18.109375 54.6875 
L 18.109375 46.1875 
Q 21.1875 51.21875 25.484375 53.609375 
Q 29.78125 56 35.6875 56 
Q 41.65625 56 45.828125 52.96875 
Q 50 49.953125 52 44.1875 
z
" id="DejaVuSans-6d"/>
      <path d="M 56.203125 29.59375 
L 56.203125 25.203125 
L 14.890625 25.203125 
Q 15.484375 15.921875 20.484375 11.0625 
Q 25.484375 6.203125 34.421875 6.203125 
Q 39.59375 6.203125 44.453125 7.46875 
Q 49.3125 8.734375 54.109375 11.28125 
L 54.109375 2.78125 
Q 49.265625 0.734375 44.1875 -0.34375 
Q 39.109375 -1.421875 33.890625 -1.421875 
Q 20.796875 -1.421875 13.15625 6.1875 
Q 5.515625 13.8125 5.515625 26.8125 
Q 5.515625 40.234375 12.765625 48.109375 
Q 20.015625 56 32.328125 56 
Q 43.359375 56 49.78125 48.890625 
Q 56.203125 41.796875 56.203125 29.59375 
z
M 47.21875 32.234375 
Q 47.125 39.59375 43.09375 43.984375 
Q 39.0625 48.390625 32.421875 48.390625 
Q 24.90625 48.390625 20.390625 44.140625 
Q 15.875 39.890625 15.1875 32.171875 
z
" id="DejaVuSans-65"/>
      <path d="M 54.890625 33.015625 
L 54.890625 0 
L 45.90625 0 
L 45.90625 32.71875 
Q 45.90625 40.484375 42.875 44.328125 
Q 39.84375 48.1875 33.796875 48.1875 
Q 26.515625 48.1875 22.3125 43.546875 
Q 18.109375 38.921875 18.109375 30.90625 
L 18.109375 0 
L 9.078125 0 
L 9.078125 54.6875 
L 18.109375 54.6875 
L 18.109375 46.1875 
Q 21.34375 51.125 25.703125 53.5625 
Q 30.078125 56 35.796875 56 
Q 45.21875 56 50.046875 50.171875 
Q 54.890625 44.34375 54.890625 33.015625 
z
" id="DejaVuSans-6e"/>
      <path d="M 44.28125 53.078125 
L 44.28125 44.578125 
Q 40.484375 46.53125 36.375 47.5 
Q 32.28125 48.484375 27.875 48.484375 
Q 21.1875 48.484375 17.84375 46.4375 
Q 14.5 44.390625 14.5 40.28125 
Q 14.5 37.15625 16.890625 35.375 
Q 19.28125 33.59375 26.515625 31.984375 
L 29.59375 31.296875 
Q 39.15625 29.25 43.1875 25.515625 
Q 47.21875 21.78125 47.21875 15.09375 
Q 47.21875 7.46875 41.1875 3.015625 
Q 35.15625 -1.421875 24.609375 -1.421875 
Q 20.21875 -1.421875 15.453125 -0.5625 
Q 10.6875 0.296875 5.421875 2 
L 5.421875 11.28125 
Q 10.40625 8.6875 15.234375 7.390625 
Q 20.0625 6.109375 24.8125 6.109375 
Q 31.15625 6.109375 34.5625 8.28125 
Q 37.984375 10.453125 37.984375 14.40625 
Q 37.984375 18.0625 35.515625 20.015625 
Q 33.0625 21.96875 24.703125 23.78125 
L 21.578125 24.515625 
Q 13.234375 26.265625 9.515625 29.90625 
Q 5.8125 33.546875 5.8125 39.890625 
Q 5.8125 47.609375 11.28125 51.796875 
Q 16.75 56 26.8125 56 
Q 31.78125 56 36.171875 55.265625 
Q 40.578125 54.546875 44.28125 53.078125 
z
" id="DejaVuSans-73"/>
      <path d="M 30.609375 48.390625 
Q 23.390625 48.390625 19.1875 42.75 
Q 14.984375 37.109375 14.984375 27.296875 
Q 14.984375 17.484375 19.15625 11.84375 
Q 23.34375 6.203125 30.609375 6.203125 
Q 37.796875 6.203125 41.984375 11.859375 
Q 46.1875 17.53125 46.1875 27.296875 
Q 46.1875 37.015625 41.984375 42.703125 
Q 37.796875 48.390625 30.609375 48.390625 
z
M 30.609375 56 
Q 42.328125 56 49.015625 48.375 
Q 55.71875 40.765625 55.71875 27.296875 
Q 55.71875 13.875 49.015625 6.21875 
Q 42.328125 -1.421875 30.609375 -1.421875 
Q 18.84375 -1.421875 12.171875 6.21875 
Q 5.515625 13.875 5.515625 27.296875 
Q 5.515625 40.765625 12.171875 48.375 
Q 18.84375 56 30.609375 56 
z
" id="DejaVuSans-6f"/>
      <path d="M 9.421875 75.984375 
L 18.40625 75.984375 
L 18.40625 0 
L 9.421875 0 
z
" id="DejaVuSans-6c"/>
      <path id="DejaVuSans-20"/>
      <path d="M 18.3125 70.21875 
L 18.3125 54.6875 
L 36.8125 54.6875 
L 36.8125 47.703125 
L 18.3125 47.703125 
L 18.3125 18.015625 
Q 18.3125 11.328125 20.140625 9.421875 
Q 21.96875 7.515625 27.59375 7.515625 
L 36.8125 7.515625 
L 36.8125 0 
L 27.59375 0 
Q 17.1875 0 13.234375 3.875 
Q 9.28125 7.765625 9.28125 18.015625 
L 9.28125 47.703125 
L 2.6875 47.703125 
L 2.6875 54.6875 
L 9.28125 54.6875 
L 9.28125 70.21875 
z
" id="DejaVuSans-74"/>
      <path d="M 31 75.875 
Q 24.46875 64.65625 21.28125 53.65625 
Q 18.109375 42.671875 18.109375 31.390625 
Q 18.109375 20.125 21.3125 9.0625 
Q 24.515625 -2 31 -13.1875 
L 23.1875 -13.1875 
Q 15.875 -1.703125 12.234375 9.375 
Q 8.59375 20.453125 8.59375 31.390625 
Q 8.59375 42.28125 12.203125 53.3125 
Q 15.828125 64.359375 23.1875 75.875 
z
" id="DejaVuSans-28"/>
      <path d="M 18.3125 75.984375 
L 27.296875 75.984375 
L 18.703125 31.6875 
L 49.515625 54.6875 
L 61.1875 54.6875 
L 26.8125 28.515625 
L 51.90625 0 
L 41.015625 0 
L 17.671875 26.703125 
L 12.5 0 
L 3.515625 0 
z
" id="DejaVuSans-Oblique-6b"/>
      <path d="M 41.796875 8.203125 
Q 38.1875 3.46875 33.25 1.015625 
Q 28.328125 -1.421875 22.3125 -1.421875 
Q 14.109375 -1.421875 9.34375 4.171875 
Q 4.59375 9.765625 4.59375 19.484375 
Q 4.59375 27.59375 7.46875 34.9375 
Q 10.359375 42.28125 15.828125 48.09375 
Q 19.4375 51.953125 23.96875 53.96875 
Q 28.515625 56 33.5 56 
Q 38.765625 56 42.796875 53.453125 
Q 46.828125 50.921875 49.03125 46.1875 
L 54.890625 75.984375 
L 63.921875 75.984375 
L 49.125 0 
L 40.09375 0 
z
M 13.921875 21.09375 
Q 13.921875 14.015625 17.109375 10.0625 
Q 20.3125 6.109375 25.984375 6.109375 
Q 30.171875 6.109375 33.765625 8.125 
Q 37.359375 10.15625 40.09375 14.109375 
Q 42.96875 18.21875 44.625 23.578125 
Q 46.296875 28.953125 46.296875 34.1875 
Q 46.296875 40.96875 43.09375 44.765625 
Q 39.890625 48.578125 34.28125 48.578125 
Q 30.03125 48.578125 26.359375 46.578125 
Q 22.703125 44.578125 20.125 40.828125 
Q 17.28125 36.765625 15.59375 31.390625 
Q 13.921875 26.03125 13.921875 21.09375 
z
" id="DejaVuSans-Oblique-64"/>
      <path d="M 32.859375 9.96875 
Q 34.1875 7.625 39.453125 7.625 
L 43.75 7.625 
L 42.28125 0 
L 36.921875 0 
Q 28.125 0 25 4.6875 
Q 21.921875 9.46875 23.96875 19.828125 
L 29 45.703125 
L 8.453125 45.703125 
L 10.203125 54.6875 
L 60.640625 54.6875 
L 58.890625 45.703125 
L 38.1875 45.703125 
L 33.015625 19.28125 
Q 31.640625 12.203125 32.859375 9.96875 
z
" id="DejaVuSans-Oblique-3c4"/>
      <path d="M 8.015625 75.875 
L 15.828125 75.875 
Q 23.140625 64.359375 26.78125 53.3125 
Q 30.421875 42.28125 30.421875 31.390625 
Q 30.421875 20.453125 26.78125 9.375 
Q 23.140625 -1.703125 15.828125 -13.1875 
L 8.015625 -13.1875 
Q 14.5 -2 17.703125 9.0625 
Q 20.90625 20.125 20.90625 31.390625 
Q 20.90625 42.671875 17.703125 53.65625 
Q 14.5 64.65625 8.015625 75.875 
z
" id="DejaVuSans-29"/>
     </defs>
     <g transform="translate(243.2 549.553125)scale(0.2 -0.2)">
      <use transform="translate(0 0.015625)" xlink:href="#DejaVuSans-44"/>
      <use transform="translate(77.001953 0.015625)" xlink:href="#DejaVuSans-69"/>
      <use transform="translate(104.785156 0.015625)" xlink:href="#DejaVuSans-6d"/>
      <use transform="translate(202.197266 0.015625)" xlink:href="#DejaVuSans-65"/>
      <use transform="translate(263.720703 0.015625)" xlink:href="#DejaVuSans-6e"/>
      <use transform="translate(327.099609 0.015625)" xlink:href="#DejaVuSans-73"/>
      <use transform="translate(379.199219 0.015625)" xlink:href="#DejaVuSans-69"/>
      <use transform="translate(406.982422 0.015625)" xlink:href="#DejaVuSans-6f"/>
      <use transform="translate(468.164062 0.015625)" xlink:href="#DejaVuSans-6e"/>
      <use transform="translate(531.542969 0.015625)" xlink:href="#DejaVuSans-6c"/>
      <use transform="translate(559.326172 0.015625)" xlink:href="#DejaVuSans-65"/>
      <use transform="translate(620.849609 0.015625)" xlink:href="#DejaVuSans-73"/>
      <use transform="translate(672.949219 0.015625)" xlink:href="#DejaVuSans-73"/>
      <use transform="translate(725.048828 0.015625)" xlink:href="#DejaVuSans-20"/>
      <use transform="translate(756.835938 0.015625)" xlink:href="#DejaVuSans-74"/>
      <use transform="translate(796.044922 0.015625)" xlink:href="#DejaVuSans-69"/>
      <use transform="translate(823.828125 0.015625)" xlink:href="#DejaVuSans-6d"/>
      <use transform="translate(921.240234 0.015625)" xlink:href="#DejaVuSans-65"/>
      <use transform="translate(982.763672 0.015625)" xlink:href="#DejaVuSans-20"/>
      <use transform="translate(1014.550781 0.015625)" xlink:href="#DejaVuSans-28"/>
      <use transform="translate(1053.564453 0.015625)" xlink:href="#DejaVuSans-Oblique-6b"/>
      <use transform="translate(1111.474609 -16.390625)scale(0.7)" xlink:href="#DejaVuSans-Oblique-64"/>
      <use transform="translate(1158.642578 0.015625)" xlink:href="#DejaVuSans-Oblique-3c4"/>
      <use transform="translate(1218.847656 0.015625)" xlink:href="#DejaVuSans-29"/>
     </g>
    </g>
   </g>
   <g id="matplotlib.axis_2">
    <g id="ytick_1">
     <g id="line2d_9">
      <defs>
       <path d="M 0 0 
L -3.5 0 
" id="m3c5fa7ce44" style="stroke:#000000;stroke-width:0.8;"/>
      </defs>
      <g>
       <use style="stroke:#000000;stroke-width:0.8;" x="90" xlink:href="#m3c5fa7ce44" y="500.392786"/>
      </g>
     </g>
     <g id="text_10">
      <!-- 0.0 -->
      <g transform="translate(51.19375 507.991224)scale(0.2 -0.2)">
       <use xlink:href="#DejaVuSans-30"/>
       <use x="63.623047" xlink:href="#DejaVuSans-2e"/>
       <use x="95.410156" xlink:href="#DejaVuSans-30"/>
      </g>
     </g>
    </g>
    <g id="ytick_2">
     <g id="line2d_10">
      <g>
       <use style="stroke:#000000;stroke-width:0.8;" x="90" xlink:href="#m3c5fa7ce44" y="422.257643"/>
      </g>
     </g>
     <g id="text_11">
      <!-- 0.5 -->
      <g transform="translate(51.19375 429.85608)scale(0.2 -0.2)">
       <use xlink:href="#DejaVuSans-30"/>
       <use x="63.623047" xlink:href="#DejaVuSans-2e"/>
       <use x="95.410156" xlink:href="#DejaVuSans-35"/>
      </g>
     </g>
    </g>
    <g id="ytick_3">
     <g id="line2d_11">
      <g>
       <use style="stroke:#000000;stroke-width:0.8;" x="90" xlink:href="#m3c5fa7ce44" y="344.122499"/>
      </g>
     </g>
     <g id="text_12">
      <!-- 1.0 -->
      <g transform="translate(51.19375 351.720937)scale(0.2 -0.2)">
       <use xlink:href="#DejaVuSans-31"/>
       <use x="63.623047" xlink:href="#DejaVuSans-2e"/>
       <use x="95.410156" xlink:href="#DejaVuSans-30"/>
      </g>
     </g>
    </g>
    <g id="ytick_4">
     <g id="line2d_12">
      <g>
       <use style="stroke:#000000;stroke-width:0.8;" x="90" xlink:href="#m3c5fa7ce44" y="265.987356"/>
      </g>
     </g>
     <g id="text_13">
      <!-- 1.5 -->
      <g transform="translate(51.19375 273.585793)scale(0.2 -0.2)">
       <use xlink:href="#DejaVuSans-31"/>
       <use x="63.623047" xlink:href="#DejaVuSans-2e"/>
       <use x="95.410156" xlink:href="#DejaVuSans-35"/>
      </g>
     </g>
    </g>
    <g id="ytick_5">
     <g id="line2d_13">
      <g>
       <use style="stroke:#000000;stroke-width:0.8;" x="90" xlink:href="#m3c5fa7ce44" y="187.852213"/>
      </g>
     </g>
     <g id="text_14">
      <!-- 2.0 -->
      <g transform="translate(51.19375 195.45065)scale(0.2 -0.2)">
       <use xlink:href="#DejaVuSans-32"/>
       <use x="63.623047" xlink:href="#DejaVuSans-2e"/>
       <use x="95.410156" xlink:href="#DejaVuSans-30"/>
      </g>
     </g>
    </g>
    <g id="ytick_6">
     <g id="line2d_14">
      <g>
       <use style="stroke:#000000;stroke-width:0.8;" x="90" xlink:href="#m3c5fa7ce44" y="109.717069"/>
      </g>
     </g>
     <g id="text_15">
      <!-- 2.5 -->
      <g transform="translate(51.19375 117.315507)scale(0.2 -0.2)">
       <use xlink:href="#DejaVuSans-32"/>
       <use x="63.623047" xlink:href="#DejaVuSans-2e"/>
       <use x="95.410156" xlink:href="#DejaVuSans-35"/>
      </g>
     </g>
    </g>
    <g id="text_16">
     <!-- Dimensionless mRNA rate -->
     <defs>
      <path d="M 44.390625 34.1875 
Q 47.5625 33.109375 50.5625 29.59375 
Q 53.5625 26.078125 56.59375 19.921875 
L 66.609375 0 
L 56 0 
L 46.6875 18.703125 
Q 43.0625 26.03125 39.671875 28.421875 
Q 36.28125 30.8125 30.421875 30.8125 
L 19.671875 30.8125 
L 19.671875 0 
L 9.8125 0 
L 9.8125 72.90625 
L 32.078125 72.90625 
Q 44.578125 72.90625 50.734375 67.671875 
Q 56.890625 62.453125 56.890625 51.90625 
Q 56.890625 45.015625 53.6875 40.46875 
Q 50.484375 35.9375 44.390625 34.1875 
z
M 19.671875 64.796875 
L 19.671875 38.921875 
L 32.078125 38.921875 
Q 39.203125 38.921875 42.84375 42.21875 
Q 46.484375 45.515625 46.484375 51.90625 
Q 46.484375 58.296875 42.84375 61.546875 
Q 39.203125 64.796875 32.078125 64.796875 
z
" id="DejaVuSans-52"/>
      <path d="M 9.8125 72.90625 
L 23.09375 72.90625 
L 55.421875 11.921875 
L 55.421875 72.90625 
L 64.984375 72.90625 
L 64.984375 0 
L 51.703125 0 
L 19.390625 60.984375 
L 19.390625 0 
L 9.8125 0 
z
" id="DejaVuSans-4e"/>
      <path d="M 34.1875 63.1875 
L 20.796875 26.90625 
L 47.609375 26.90625 
z
M 28.609375 72.90625 
L 39.796875 72.90625 
L 67.578125 0 
L 57.328125 0 
L 50.6875 18.703125 
L 17.828125 18.703125 
L 11.1875 0 
L 0.78125 0 
z
" id="DejaVuSans-41"/>
      <path d="M 41.109375 46.296875 
Q 39.59375 47.171875 37.8125 47.578125 
Q 36.03125 48 33.890625 48 
Q 26.265625 48 22.1875 43.046875 
Q 18.109375 38.09375 18.109375 28.8125 
L 18.109375 0 
L 9.078125 0 
L 9.078125 54.6875 
L 18.109375 54.6875 
L 18.109375 46.1875 
Q 20.953125 51.171875 25.484375 53.578125 
Q 30.03125 56 36.53125 56 
Q 37.453125 56 38.578125 55.875 
Q 39.703125 55.765625 41.0625 55.515625 
z
" id="DejaVuSans-72"/>
      <path d="M 34.28125 27.484375 
Q 23.390625 27.484375 19.1875 25 
Q 14.984375 22.515625 14.984375 16.5 
Q 14.984375 11.71875 18.140625 8.90625 
Q 21.296875 6.109375 26.703125 6.109375 
Q 34.1875 6.109375 38.703125 11.40625 
Q 43.21875 16.703125 43.21875 25.484375 
L 43.21875 27.484375 
z
M 52.203125 31.203125 
L 52.203125 0 
L 43.21875 0 
L 43.21875 8.296875 
Q 40.140625 3.328125 35.546875 0.953125 
Q 30.953125 -1.421875 24.3125 -1.421875 
Q 15.921875 -1.421875 10.953125 3.296875 
Q 6 8.015625 6 15.921875 
Q 6 25.140625 12.171875 29.828125 
Q 18.359375 34.515625 30.609375 34.515625 
L 43.21875 34.515625 
L 43.21875 35.40625 
Q 43.21875 41.609375 39.140625 45 
Q 35.0625 48.390625 27.6875 48.390625 
Q 23 48.390625 18.546875 47.265625 
Q 14.109375 46.140625 10.015625 43.890625 
L 10.015625 52.203125 
Q 14.9375 54.109375 19.578125 55.046875 
Q 24.21875 56 28.609375 56 
Q 40.484375 56 46.34375 49.84375 
Q 52.203125 43.703125 52.203125 31.203125 
z
" id="DejaVuSans-61"/>
     </defs>
     <g transform="translate(43.034375 416.742813)rotate(-90)scale(0.2 -0.2)">
      <use xlink:href="#DejaVuSans-44"/>
      <use x="77.001953" xlink:href="#DejaVuSans-69"/>
      <use x="104.785156" xlink:href="#DejaVuSans-6d"/>
      <use x="202.197266" xlink:href="#DejaVuSans-65"/>
      <use x="263.720703" xlink:href="#DejaVuSans-6e"/>
      <use x="327.099609" xlink:href="#DejaVuSans-73"/>
      <use x="379.199219" xlink:href="#DejaVuSans-69"/>
      <use x="406.982422" xlink:href="#DejaVuSans-6f"/>
      <use x="468.164062" xlink:href="#DejaVuSans-6e"/>
      <use x="531.542969" xlink:href="#DejaVuSans-6c"/>
      <use x="559.326172" xlink:href="#DejaVuSans-65"/>
      <use x="620.849609" xlink:href="#DejaVuSans-73"/>
      <use x="672.949219" xlink:href="#DejaVuSans-73"/>
      <use x="725.048828" xlink:href="#DejaVuSans-20"/>
      <use x="756.835938" xlink:href="#DejaVuSans-6d"/>
      <use x="854.248047" xlink:href="#DejaVuSans-52"/>
      <use x="923.730469" xlink:href="#DejaVuSans-4e"/>
      <use x="998.535156" xlink:href="#DejaVuSans-41"/>
      <use x="1066.943359" xlink:href="#DejaVuSans-20"/>
      <use x="1098.730469" xlink:href="#DejaVuSans-72"/>
      <use x="1139.84375" xlink:href="#DejaVuSans-61"/>
      <use x="1201.123047" xlink:href="#DejaVuSans-74"/>
      <use x="1240.332031" xlink:href="#DejaVuSans-65"/>
     </g>
    </g>
   </g>
   <g id="line2d_15">
    <path clip-path="url(#p5d2421619f)" d="M 115.363636 300.366097 
L 115.680985 297.876554 
L 131.852344 232.53406 
L 159.118122 200.017945 
L 186.383905 191.226627 
L 213.649693 190.384491 
L 240.915472 196.444481 
L 268.181243 210.103392 
L 295.44703 229.789934 
L 322.712817 253.06056 
L 349.978588 277.80104 
L 377.244376 302.490254 
L 404.510163 326.133755 
L 431.775918 348.13826 
L 459.041705 368.197156 
L 486.30746 386.200171 
L 513.573247 402.165578 
L 540.839034 416.191505 
L 568.104822 428.421624 
L 595.370576 439.02166 
L 622.636364 448.163853 
" style="fill:none;stroke:#000000;stroke-linecap:square;stroke-width:1.5;"/>
    <defs>
     <path d="M 0 3 
C 0.795609 3 1.55874 2.683901 2.12132 2.12132 
C 2.683901 1.55874 3 0.795609 3 0 
C 3 -0.795609 2.683901 -1.55874 2.12132 -2.12132 
C 1.55874 -2.683901 0.795609 -3 0 -3 
C -0.795609 -3 -1.55874 -2.683901 -2.12132 -2.12132 
C -2.683901 -1.55874 -3 -0.795609 -3 0 
C -3 0.795609 -2.683901 1.55874 -2.12132 2.12132 
C -1.55874 2.683901 -0.795609 3 0 3 
z
" id="m06c5ff7fdb" style="stroke:#000000;"/>
    </defs>
    <g clip-path="url(#p5d2421619f)">
     <use style="stroke:#000000;" x="115.363636" xlink:href="#m06c5ff7fdb" y="300.366097"/>
     <use style="stroke:#000000;" x="115.680985" xlink:href="#m06c5ff7fdb" y="297.876554"/>
     <use style="stroke:#000000;" x="131.852344" xlink:href="#m06c5ff7fdb" y="232.53406"/>
     <use style="stroke:#000000;" x="159.118122" xlink:href="#m06c5ff7fdb" y="200.017945"/>
     <use style="stroke:#000000;" x="186.383905" xlink:href="#m06c5ff7fdb" y="191.226627"/>
     <use style="stroke:#000000;" x="213.649693" xlink:href="#m06c5ff7fdb" y="190.384491"/>
     <use style="stroke:#000000;" x="240.915472" xlink:href="#m06c5ff7fdb" y="196.444481"/>
     <use style="stroke:#000000;" x="268.181243" xlink:href="#m06c5ff7fdb" y="210.103392"/>
     <use style="stroke:#000000;" x="295.44703" xlink:href="#m06c5ff7fdb" y="229.789934"/>
     <use style="stroke:#000000;" x="322.712817" xlink:href="#m06c5ff7fdb" y="253.06056"/>
     <use style="stroke:#000000;" x="349.978588" xlink:href="#m06c5ff7fdb" y="277.80104"/>
     <use style="stroke:#000000;" x="377.244376" xlink:href="#m06c5ff7fdb" y="302.490254"/>
     <use style="stroke:#000000;" x="404.510163" xlink:href="#m06c5ff7fdb" y="326.133755"/>
     <use style="stroke:#000000;" x="431.775918" xlink:href="#m06c5ff7fdb" y="348.13826"/>
     <use style="stroke:#000000;" x="459.041705" xlink:href="#m06c5ff7fdb" y="368.197156"/>
     <use style="stroke:#000000;" x="486.30746" xlink:href="#m06c5ff7fdb" y="386.200171"/>
     <use style="stroke:#000000;" x="513.573247" xlink:href="#m06c5ff7fdb" y="402.165578"/>
     <use style="stroke:#000000;" x="540.839034" xlink:href="#m06c5ff7fdb" y="416.191505"/>
     <use style="stroke:#000000;" x="568.104822" xlink:href="#m06c5ff7fdb" y="428.421624"/>
     <use style="stroke:#000000;" x="595.370576" xlink:href="#m06c5ff7fdb" y="439.02166"/>
     <use style="stroke:#000000;" x="622.636364" xlink:href="#m06c5ff7fdb" y="448.163853"/>
    </g>
   </g>
   <g id="line2d_16">
    <path clip-path="url(#p5d2421619f)" d="M 115.363636 300.366097 
L 115.680985 297.876498 
L 131.852344 232.341419 
L 159.118122 198.617836 
L 186.383905 187.352549 
L 213.649693 183.123796 
L 240.915472 186.182172 
L 268.181243 197.937305 
L 295.44703 216.684096 
L 322.712817 239.700586 
L 349.978588 264.653883 
L 377.244376 289.862935 
L 404.510163 314.216625 
L 431.775918 337.037717 
L 459.041705 357.960825 
L 486.30746 376.835372 
L 513.573247 393.653013 
L 540.839034 408.494857 
L 568.104822 421.494344 
L 595.370576 432.811615 
L 622.636364 442.616539 
" style="fill:none;stroke:#69422a;stroke-linecap:square;stroke-width:1.5;"/>
    <defs>
     <path d="M 0 3 
C 0.795609 3 1.55874 2.683901 2.12132 2.12132 
C 2.683901 1.55874 3 0.795609 3 0 
C 3 -0.795609 2.683901 -1.55874 2.12132 -2.12132 
C 1.55874 -2.683901 0.795609 -3 0 -3 
C -0.795609 -3 -1.55874 -2.683901 -2.12132 -2.12132 
C -2.683901 -1.55874 -3 -0.795609 -3 0 
C -3 0.795609 -2.683901 1.55874 -2.12132 2.12132 
C -1.55874 2.683901 -0.795609 3 0 3 
z
" id="mea35b57a2b" style="stroke:#69422a;"/>
    </defs>
    <g clip-path="url(#p5d2421619f)">
     <use style="fill:#69422a;stroke:#69422a;" x="115.363636" xlink:href="#mea35b57a2b" y="300.366097"/>
     <use style="fill:#69422a;stroke:#69422a;" x="115.680985" xlink:href="#mea35b57a2b" y="297.876498"/>
     <use style="fill:#69422a;stroke:#69422a;" x="131.852344" xlink:href="#mea35b57a2b" y="232.341419"/>
     <use style="fill:#69422a;stroke:#69422a;" x="159.118122" xlink:href="#mea35b57a2b" y="198.617836"/>
     <use style="fill:#69422a;stroke:#69422a;" x="186.383905" xlink:href="#mea35b57a2b" y="187.352549"/>
     <use style="fill:#69422a;stroke:#69422a;" x="213.649693" xlink:href="#mea35b57a2b" y="183.123796"/>
     <use style="fill:#69422a;stroke:#69422a;" x="240.915472" xlink:href="#mea35b57a2b" y="186.182172"/>
     <use style="fill:#69422a;stroke:#69422a;" x="268.181243" xlink:href="#mea35b57a2b" y="197.937305"/>
     <use style="fill:#69422a;stroke:#69422a;" x="295.44703" xlink:href="#mea35b57a2b" y="216.684096"/>
     <use style="fill:#69422a;stroke:#69422a;" x="322.712817" xlink:href="#mea35b57a2b" y="239.700586"/>
     <use style="fill:#69422a;stroke:#69422a;" x="349.978588" xlink:href="#mea35b57a2b" y="264.653883"/>
     <use style="fill:#69422a;stroke:#69422a;" x="377.244376" xlink:href="#mea35b57a2b" y="289.862935"/>
     <use style="fill:#69422a;stroke:#69422a;" x="404.510163" xlink:href="#mea35b57a2b" y="314.216625"/>
     <use style="fill:#69422a;stroke:#69422a;" x="431.775918" xlink:href="#mea35b57a2b" y="337.037717"/>
     <use style="fill:#69422a;stroke:#69422a;" x="459.041705" xlink:href="#mea35b57a2b" y="357.960825"/>
     <use style="fill:#69422a;stroke:#69422a;" x="486.30746" xlink:href="#mea35b57a2b" y="376.835372"/>
     <use style="fill:#69422a;stroke:#69422a;" x="513.573247" xlink:href="#mea35b57a2b" y="393.653013"/>
     <use style="fill:#69422a;stroke:#69422a;" x="540.839034" xlink:href="#mea35b57a2b" y="408.494857"/>
     <use style="fill:#69422a;stroke:#69422a;" x="568.104822" xlink:href="#mea35b57a2b" y="421.494344"/>
     <use style="fill:#69422a;stroke:#69422a;" x="595.370576" xlink:href="#mea35b57a2b" y="432.811615"/>
     <use style="fill:#69422a;stroke:#69422a;" x="622.636364" xlink:href="#mea35b57a2b" y="442.616539"/>
    </g>
   </g>
   <g id="line2d_17">
    <path clip-path="url(#p5d2421619f)" d="M 115.363636 300.366097 
L 115.680985 297.876218 
L 131.852344 231.570612 
L 159.118122 192.950301 
L 186.383905 171.497667 
L 213.649693 154.593458 
L 240.915472 149.295705 
L 268.181243 158.339686 
L 295.44703 178.204693 
L 322.712817 204.582782 
L 349.978588 234.047544 
L 377.244376 264.172215 
L 404.510163 293.357469 
L 431.775918 320.631923 
L 459.041705 345.476725 
L 486.30746 367.684788 
L 513.573247 387.253847 
L 540.839034 404.308121 
L 568.104822 419.04325 
L 595.370576 431.688592 
L 622.636364 442.482606 
" style="fill:none;stroke:#d28555;stroke-linecap:square;stroke-width:1.5;"/>
    <defs>
     <path d="M 0 3 
C 0.795609 3 1.55874 2.683901 2.12132 2.12132 
C 2.683901 1.55874 3 0.795609 3 0 
C 3 -0.795609 2.683901 -1.55874 2.12132 -2.12132 
C 1.55874 -2.683901 0.795609 -3 0 -3 
C -0.795609 -3 -1.55874 -2.683901 -2.12132 -2.12132 
C -2.683901 -1.55874 -3 -0.795609 -3 0 
C -3 0.795609 -2.683901 1.55874 -2.12132 2.12132 
C -1.55874 2.683901 -0.795609 3 0 3 
z
" id="mb1649a322a" style="stroke:#d28555;"/>
    </defs>
    <g clip-path="url(#p5d2421619f)">
     <use style="fill:#d28555;stroke:#d28555;" x="115.363636" xlink:href="#mb1649a322a" y="300.366097"/>
     <use style="fill:#d28555;stroke:#d28555;" x="115.680985" xlink:href="#mb1649a322a" y="297.876218"/>
     <use style="fill:#d28555;stroke:#d28555;" x="131.852344" xlink:href="#mb1649a322a" y="231.570612"/>
     <use style="fill:#d28555;stroke:#d28555;" x="159.118122" xlink:href="#mb1649a322a" y="192.950301"/>
     <use style="fill:#d28555;stroke:#d28555;" x="186.383905" xlink:href="#mb1649a322a" y="171.497667"/>
     <use style="fill:#d28555;stroke:#d28555;" x="213.649693" xlink:href="#mb1649a322a" y="154.593458"/>
     <use style="fill:#d28555;stroke:#d28555;" x="240.915472" xlink:href="#mb1649a322a" y="149.295705"/>
     <use style="fill:#d28555;stroke:#d28555;" x="268.181243" xlink:href="#mb1649a322a" y="158.339686"/>
     <use style="fill:#d28555;stroke:#d28555;" x="295.44703" xlink:href="#mb1649a322a" y="178.204693"/>
     <use style="fill:#d28555;stroke:#d28555;" x="322.712817" xlink:href="#mb1649a322a" y="204.582782"/>
     <use style="fill:#d28555;stroke:#d28555;" x="349.978588" xlink:href="#mb1649a322a" y="234.047544"/>
     <use style="fill:#d28555;stroke:#d28555;" x="377.244376" xlink:href="#mb1649a322a" y="264.172215"/>
     <use style="fill:#d28555;stroke:#d28555;" x="404.510163" xlink:href="#mb1649a322a" y="293.357469"/>
     <use style="fill:#d28555;stroke:#d28555;" x="431.775918" xlink:href="#mb1649a322a" y="320.631923"/>
     <use style="fill:#d28555;stroke:#d28555;" x="459.041705" xlink:href="#mb1649a322a" y="345.476725"/>
     <use style="fill:#d28555;stroke:#d28555;" x="486.30746" xlink:href="#mb1649a322a" y="367.684788"/>
     <use style="fill:#d28555;stroke:#d28555;" x="513.573247" xlink:href="#mb1649a322a" y="387.253847"/>
     <use style="fill:#d28555;stroke:#d28555;" x="540.839034" xlink:href="#mb1649a322a" y="404.308121"/>
     <use style="fill:#d28555;stroke:#d28555;" x="568.104822" xlink:href="#mb1649a322a" y="419.04325"/>
     <use style="fill:#d28555;stroke:#d28555;" x="595.370576" xlink:href="#mb1649a322a" y="431.688592"/>
     <use style="fill:#d28555;stroke:#d28555;" x="622.636364" xlink:href="#mb1649a322a" y="442.482606"/>
    </g>
   </g>
   <g id="line2d_18">
    <path clip-path="url(#p5d2421619f)" d="M 115.363636 300.366097 
L 115.680985 297.873256 
L 131.852344 222.905654 
L 159.118122 134.179085 
L 186.383905 88.887273 
L 213.649693 113.135169 
L 240.915472 165.007592 
L 268.181243 221.586618 
L 295.44703 273.856973 
L 322.712817 318.678258 
L 349.978588 355.578928 
L 377.244376 385.254774 
L 404.510163 408.810831 
L 431.775918 427.392966 
L 459.041705 442.028192 
L 486.30746 453.572769 
L 513.573247 462.711924 
L 540.839034 469.980958 
L 568.104822 475.792439 
L 595.370576 480.462401 
L 622.636364 484.232727 
" style="fill:none;stroke:#ffc77f;stroke-linecap:square;stroke-width:1.5;"/>
    <defs>
     <path d="M 0 3 
C 0.795609 3 1.55874 2.683901 2.12132 2.12132 
C 2.683901 1.55874 3 0.795609 3 0 
C 3 -0.795609 2.683901 -1.55874 2.12132 -2.12132 
C 1.55874 -2.683901 0.795609 -3 0 -3 
C -0.795609 -3 -1.55874 -2.683901 -2.12132 -2.12132 
C -2.683901 -1.55874 -3 -0.795609 -3 0 
C -3 0.795609 -2.683901 1.55874 -2.12132 2.12132 
C -1.55874 2.683901 -0.795609 3 0 3 
z
" id="mc4820fdafc" style="stroke:#ffc77f;"/>
    </defs>
    <g clip-path="url(#p5d2421619f)">
     <use style="fill:#ffc77f;stroke:#ffc77f;" x="115.363636" xlink:href="#mc4820fdafc" y="300.366097"/>
     <use style="fill:#ffc77f;stroke:#ffc77f;" x="115.680985" xlink:href="#mc4820fdafc" y="297.873256"/>
     <use style="fill:#ffc77f;stroke:#ffc77f;" x="131.852344" xlink:href="#mc4820fdafc" y="222.905654"/>
     <use style="fill:#ffc77f;stroke:#ffc77f;" x="159.118122" xlink:href="#mc4820fdafc" y="134.179085"/>
     <use style="fill:#ffc77f;stroke:#ffc77f;" x="186.383905" xlink:href="#mc4820fdafc" y="88.887273"/>
     <use style="fill:#ffc77f;stroke:#ffc77f;" x="213.649693" xlink:href="#mc4820fdafc" y="113.135169"/>
     <use style="fill:#ffc77f;stroke:#ffc77f;" x="240.915472" xlink:href="#mc4820fdafc" y="165.007592"/>
     <use style="fill:#ffc77f;stroke:#ffc77f;" x="268.181243" xlink:href="#mc4820fdafc" y="221.586618"/>
     <use style="fill:#ffc77f;stroke:#ffc77f;" x="295.44703" xlink:href="#mc4820fdafc" y="273.856973"/>
     <use style="fill:#ffc77f;stroke:#ffc77f;" x="322.712817" xlink:href="#mc4820fdafc" y="318.678258"/>
     <use style="fill:#ffc77f;stroke:#ffc77f;" x="349.978588" xlink:href="#mc4820fdafc" y="355.578928"/>
     <use style="fill:#ffc77f;stroke:#ffc77f;" x="377.244376" xlink:href="#mc4820fdafc" y="385.254774"/>
     <use style="fill:#ffc77f;stroke:#ffc77f;" x="404.510163" xlink:href="#mc4820fdafc" y="408.810831"/>
     <use style="fill:#ffc77f;stroke:#ffc77f;" x="431.775918" xlink:href="#mc4820fdafc" y="427.392966"/>
     <use style="fill:#ffc77f;stroke:#ffc77f;" x="459.041705" xlink:href="#mc4820fdafc" y="442.028192"/>
     <use style="fill:#ffc77f;stroke:#ffc77f;" x="486.30746" xlink:href="#mc4820fdafc" y="453.572769"/>
     <use style="fill:#ffc77f;stroke:#ffc77f;" x="513.573247" xlink:href="#mc4820fdafc" y="462.711924"/>
     <use style="fill:#ffc77f;stroke:#ffc77f;" x="540.839034" xlink:href="#mc4820fdafc" y="469.980958"/>
     <use style="fill:#ffc77f;stroke:#ffc77f;" x="568.104822" xlink:href="#mc4820fdafc" y="475.792439"/>
     <use style="fill:#ffc77f;stroke:#ffc77f;" x="595.370576" xlink:href="#mc4820fdafc" y="480.462401"/>
     <use style="fill:#ffc77f;stroke:#ffc77f;" x="622.636364" xlink:href="#mc4820fdafc" y="484.232727"/>
    </g>
   </g>
   <g id="patch_3">
    <path d="M 90 504 
L 90 69.12 
" style="fill:none;stroke:#000000;stroke-linecap:square;stroke-linejoin:miter;stroke-width:0.8;"/>
   </g>
   <g id="patch_4">
    <path d="M 648 504 
L 648 69.12 
" style="fill:none;stroke:#000000;stroke-linecap:square;stroke-linejoin:miter;stroke-width:0.8;"/>
   </g>
   <g id="patch_5">
    <path d="M 90 504 
L 648 504 
" style="fill:none;stroke:#000000;stroke-linecap:square;stroke-linejoin:miter;stroke-width:0.8;"/>
   </g>
   <g id="patch_6">
    <path d="M 90 69.12 
L 648 69.12 
" style="fill:none;stroke:#000000;stroke-linecap:square;stroke-linejoin:miter;stroke-width:0.8;"/>
   </g>
   <g id="legend_1">
    <g id="patch_7">
     <path d="M 460 202.545 
L 634 202.545 
Q 638 202.545 638 198.545 
L 638 83.12 
Q 638 79.12 634 79.12 
L 460 79.12 
Q 456 79.12 456 83.12 
L 456 198.545 
Q 456 202.545 460 202.545 
z
" style="fill:#ffffff;opacity:0.8;stroke:#cccccc;stroke-linejoin:miter;"/>
    </g>
    <g id="line2d_19">
     <path d="M 464 95.316875 
L 504 95.316875 
" style="fill:none;stroke:#000000;stroke-linecap:square;stroke-width:1.5;"/>
    </g>
    <g id="line2d_20">
     <g>
      <use style="stroke:#000000;" x="484" xlink:href="#m06c5ff7fdb" y="95.316875"/>
     </g>
    </g>
    <g id="text_17">
     <!-- $k_{l}/k_{m}$=0.0 -->
     <defs>
      <path d="M 18.3125 75.984375 
L 27.296875 75.984375 
L 12.5 0 
L 3.515625 0 
z
" id="DejaVuSans-Oblique-6c"/>
      <path d="M 25.390625 72.90625 
L 33.6875 72.90625 
L 8.296875 -9.28125 
L 0 -9.28125 
z
" id="DejaVuSans-2f"/>
      <path d="M 89.796875 33.015625 
L 83.40625 0 
L 74.421875 0 
L 80.71875 32.71875 
Q 81.109375 34.8125 81.296875 36.328125 
Q 81.5 37.84375 81.5 38.921875 
Q 81.5 43.3125 79.046875 45.75 
Q 76.609375 48.1875 72.21875 48.1875 
Q 65.671875 48.1875 60.546875 43.28125 
Q 55.421875 38.375 53.90625 30.515625 
L 47.90625 0 
L 38.921875 0 
L 45.3125 32.71875 
Q 45.703125 34.515625 45.890625 36.046875 
Q 46.09375 37.59375 46.09375 38.8125 
Q 46.09375 43.265625 43.65625 45.71875 
Q 41.21875 48.1875 36.921875 48.1875 
Q 30.28125 48.1875 25.140625 43.28125 
Q 20.015625 38.375 18.5 30.515625 
L 12.5 0 
L 3.515625 0 
L 14.203125 54.6875 
L 23.1875 54.6875 
L 21.484375 46.1875 
Q 25.140625 50.984375 30.046875 53.484375 
Q 34.96875 56 40.578125 56 
Q 46.53125 56 50.359375 52.875 
Q 54.203125 49.75 54.984375 44.1875 
Q 59.078125 49.953125 64.46875 52.96875 
Q 69.875 56 75.875 56 
Q 82.90625 56 86.734375 51.953125 
Q 90.578125 47.90625 90.578125 40.484375 
Q 90.578125 38.875 90.375 36.9375 
Q 90.1875 35.015625 89.796875 33.015625 
z
" id="DejaVuSans-Oblique-6d"/>
      <path d="M 10.59375 45.40625 
L 73.1875 45.40625 
L 73.1875 37.203125 
L 10.59375 37.203125 
z
M 10.59375 25.484375 
L 73.1875 25.484375 
L 73.1875 17.1875 
L 10.59375 17.1875 
z
" id="DejaVuSans-3d"/>
     </defs>
     <g transform="translate(520 102.316875)scale(0.2 -0.2)">
      <use transform="translate(0 0.015625)" xlink:href="#DejaVuSans-Oblique-6b"/>
      <use transform="translate(57.910156 -16.390625)scale(0.7)" xlink:href="#DejaVuSans-Oblique-6c"/>
      <use transform="translate(80.092773 0.015625)" xlink:href="#DejaVuSans-2f"/>
      <use transform="translate(113.78418 0.015625)" xlink:href="#DejaVuSans-Oblique-6b"/>
      <use transform="translate(171.694336 -16.390625)scale(0.7)" xlink:href="#DejaVuSans-Oblique-6d"/>
      <use transform="translate(242.617188 0.015625)" xlink:href="#DejaVuSans-3d"/>
      <use transform="translate(326.40625 0.015625)" xlink:href="#DejaVuSans-30"/>
      <use transform="translate(390.029297 0.015625)" xlink:href="#DejaVuSans-2e"/>
      <use transform="translate(421.816406 0.015625)" xlink:href="#DejaVuSans-30"/>
     </g>
    </g>
    <g id="line2d_21">
     <path d="M 464 124.673125 
L 504 124.673125 
" style="fill:none;stroke:#69422a;stroke-linecap:square;stroke-width:1.5;"/>
    </g>
    <g id="line2d_22">
     <g>
      <use style="fill:#69422a;stroke:#69422a;" x="484" xlink:href="#mea35b57a2b" y="124.673125"/>
     </g>
    </g>
    <g id="text_18">
     <!-- $k_{l}/k_{m}$=1.0 -->
     <g transform="translate(520 131.673125)scale(0.2 -0.2)">
      <use transform="translate(0 0.015625)" xlink:href="#DejaVuSans-Oblique-6b"/>
      <use transform="translate(57.910156 -16.390625)scale(0.7)" xlink:href="#DejaVuSans-Oblique-6c"/>
      <use transform="translate(80.092773 0.015625)" xlink:href="#DejaVuSans-2f"/>
      <use transform="translate(113.78418 0.015625)" xlink:href="#DejaVuSans-Oblique-6b"/>
      <use transform="translate(171.694336 -16.390625)scale(0.7)" xlink:href="#DejaVuSans-Oblique-6d"/>
      <use transform="translate(242.617188 0.015625)" xlink:href="#DejaVuSans-3d"/>
      <use transform="translate(326.40625 0.015625)" xlink:href="#DejaVuSans-31"/>
      <use transform="translate(390.029297 0.015625)" xlink:href="#DejaVuSans-2e"/>
      <use transform="translate(421.816406 0.015625)" xlink:href="#DejaVuSans-30"/>
     </g>
    </g>
    <g id="line2d_23">
     <path d="M 464 154.029375 
L 504 154.029375 
" style="fill:none;stroke:#d28555;stroke-linecap:square;stroke-width:1.5;"/>
    </g>
    <g id="line2d_24">
     <g>
      <use style="fill:#d28555;stroke:#d28555;" x="484" xlink:href="#mb1649a322a" y="154.029375"/>
     </g>
    </g>
    <g id="text_19">
     <!-- $k_{l}/k_{m}$=5.0 -->
     <g transform="translate(520 161.029375)scale(0.2 -0.2)">
      <use transform="translate(0 0.015625)" xlink:href="#DejaVuSans-Oblique-6b"/>
      <use transform="translate(57.910156 -16.390625)scale(0.7)" xlink:href="#DejaVuSans-Oblique-6c"/>
      <use transform="translate(80.092773 0.015625)" xlink:href="#DejaVuSans-2f"/>
      <use transform="translate(113.78418 0.015625)" xlink:href="#DejaVuSans-Oblique-6b"/>
      <use transform="translate(171.694336 -16.390625)scale(0.7)" xlink:href="#DejaVuSans-Oblique-6d"/>
      <use transform="translate(242.617188 0.015625)" xlink:href="#DejaVuSans-3d"/>
      <use transform="translate(326.40625 0.015625)" xlink:href="#DejaVuSans-35"/>
      <use transform="translate(390.029297 0.015625)" xlink:href="#DejaVuSans-2e"/>
      <use transform="translate(421.816406 0.015625)" xlink:href="#DejaVuSans-30"/>
     </g>
    </g>
    <g id="line2d_25">
     <path d="M 464 183.385625 
L 504 183.385625 
" style="fill:none;stroke:#ffc77f;stroke-linecap:square;stroke-width:1.5;"/>
    </g>
    <g id="line2d_26">
     <g>
      <use style="fill:#ffc77f;stroke:#ffc77f;" x="484" xlink:href="#mc4820fdafc" y="183.385625"/>
     </g>
    </g>
    <g id="text_20">
     <!-- $k_{l}/k_{m}$=50.0 -->
     <g transform="translate(520 190.385625)scale(0.2 -0.2)">
      <use transform="translate(0 0.015625)" xlink:href="#DejaVuSans-Oblique-6b"/>
      <use transform="translate(57.910156 -16.390625)scale(0.7)" xlink:href="#DejaVuSans-Oblique-6c"/>
      <use transform="translate(80.092773 0.015625)" xlink:href="#DejaVuSans-2f"/>
      <use transform="translate(113.78418 0.015625)" xlink:href="#DejaVuSans-Oblique-6b"/>
      <use transform="translate(171.694336 -16.390625)scale(0.7)" xlink:href="#DejaVuSans-Oblique-6d"/>
      <use transform="translate(242.617188 0.015625)" xlink:href="#DejaVuSans-3d"/>
      <use transform="translate(326.40625 0.015625)" xlink:href="#DejaVuSans-35"/>
      <use transform="translate(390.029297 0.015625)" xlink:href="#DejaVuSans-30"/>
      <use transform="translate(453.652344 0.015625)" xlink:href="#DejaVuSans-2e"/>
      <use transform="translate(485.439453 0.015625)" xlink:href="#DejaVuSans-30"/>
     </g>
    </g>
   </g>
  </g>
 </g>
 <defs>
  <clipPath id="p5d2421619f">
   <rect height="434.88" width="558" x="90" y="69.12"/>
  </clipPath>
 </defs>
</svg>
