<?xml version="1.0" encoding="utf-8" standalone="no"?>
<!DOCTYPE svg PUBLIC "-//W3C//DTD SVG 1.1//EN"
  "http://www.w3.org/Graphics/SVG/1.1/DTD/svg11.dtd">
<!-- Created with matplotlib (http://matplotlib.org/) -->
<svg height="432pt" version="1.1" viewBox="0 0 504 432" width="504pt" xmlns="http://www.w3.org/2000/svg" xmlns:xlink="http://www.w3.org/1999/xlink">
 <defs>
  <style type="text/css">
*{stroke-linecap:butt;stroke-linejoin:round;}
  </style>
 </defs>
 <g id="figure_1">
  <g id="patch_1">
   <path d="M 0 432 
L 504 432 
L 504 0 
L 0 0 
z
" style="fill:#ffffff;"/>
  </g>
  <g id="axes_1">
   <g id="patch_2">
    <path d="M 63 384.48 
L 375.48 384.48 
L 375.48 51.84 
L 63 51.84 
z
" style="fill:#ffffff;"/>
   </g>
   <g id="PathCollection_1">
    <path clip-path="url(#p69e263c5ef)" d="M 375.48 384.48 
L 375.48 367.848 
L 375.48 351.216 
L 375.48 321.135488 
L 372.634937 351.216 
L 370.064891 367.848 
L 365.825376 384.48 
z
" style="fill:#46085c;"/>
   </g>
   <g id="PathCollection_2">
    <path clip-path="url(#p69e263c5ef)" d="M 370.064891 367.848 
L 372.634937 351.216 
L 375.48 321.135488 
L 375.48 218.16 
L 375.48 119.717843 
L 370.868732 218.16 
L 353.377623 351.216 
L 346.357916 367.848 
L 334.59048 384.48 
L 365.825376 384.48 
z
" style="fill:#481a6c;"/>
   </g>
   <g id="PathCollection_3">
    <path clip-path="url(#p69e263c5ef)" d="M 346.357916 367.848 
L 353.377623 351.216 
L 370.868732 218.16 
L 375.48 119.717843 
L 375.48 51.84 
L 369.989222 51.84 
L 361.538706 218.16 
L 334.12031 351.216 
L 322.650941 367.848 
L 303.355584 384.48 
L 334.59048 384.48 
z
" style="fill:#482979;"/>
   </g>
   <g id="PathCollection_4">
    <path clip-path="url(#p69e263c5ef)" d="M 322.650941 367.848 
L 334.12031 351.216 
L 361.538706 218.16 
L 369.989222 51.84 
L 361.659917 51.84 
L 352.20868 218.16 
L 314.862997 351.216 
L 298.943965 367.848 
L 272.120688 384.48 
L 303.355584 384.48 
z
" style="fill:#453781;"/>
    <path clip-path="url(#p69e263c5ef)" d="M 66.640626 51.84 
L 63 51.84 
L 63 57.867627 
z
" style="fill:#453781;"/>
   </g>
   <g id="PathCollection_5">
    <path clip-path="url(#p69e263c5ef)" d="M 250.488 384.48 
L 272.120688 384.48 
L 298.943965 367.848 
L 314.862997 351.216 
L 352.20868 218.16 
L 361.659917 51.84 
L 353.330611 51.84 
L 342.878654 218.16 
L 295.605684 351.216 
L 275.23699 367.848 
L 250.488 380.696443 
L 235.41618 384.48 
z
" style="fill:#404588;"/>
    <path clip-path="url(#p69e263c5ef)" d="M 82.117658 51.84 
L 66.640626 51.84 
L 63 57.867627 
L 63 83.492278 
z
" style="fill:#404588;"/>
   </g>
   <g id="PathCollection_6">
    <path clip-path="url(#p69e263c5ef)" d="M 187.992 384.48 
L 235.41618 384.48 
L 250.488 380.696443 
L 275.23699 367.848 
L 295.605684 351.216 
L 342.878654 218.16 
L 353.330611 51.84 
L 345.001306 51.84 
L 333.548628 218.16 
L 276.348371 351.216 
L 251.530014 367.848 
L 250.488 368.388962 
L 187.992 384.289625 
L 185.354148 384.48 
z
" style="fill:#3b528b;"/>
    <path clip-path="url(#p69e263c5ef)" d="M 97.594689 51.84 
L 82.117658 51.84 
L 63 83.492278 
L 63 109.116928 
z
" style="fill:#3b528b;"/>
   </g>
   <g id="PathCollection_7">
    <path clip-path="url(#p69e263c5ef)" d="M 125.496 384.48 
L 185.354148 384.48 
L 187.992 384.289625 
L 250.488 368.388962 
L 251.530014 367.848 
L 276.348371 351.216 
L 333.548628 218.16 
L 345.001306 51.84 
L 336.672 51.84 
L 324.218602 218.16 
L 257.091058 351.216 
L 250.488 355.606435 
L 228.990827 367.848 
L 187.992 378.466169 
L 125.496 383.471045 
L 63 384.48 
z
" style="fill:#355e8d;"/>
    <path clip-path="url(#p69e263c5ef)" d="M 113.07172 51.84 
L 97.594689 51.84 
L 63 109.116928 
L 63 134.741579 
z
" style="fill:#355e8d;"/>
   </g>
   <g id="PathCollection_8">
    <path clip-path="url(#p69e263c5ef)" d="M 125.496 383.471045 
L 187.992 378.466169 
L 228.990827 367.848 
L 250.488 355.606435 
L 257.091058 351.216 
L 324.218602 218.16 
L 336.672 51.84 
L 328.342694 51.84 
L 314.888575 218.16 
L 250.488 339.65021 
L 240.163103 351.216 
L 206.505329 367.848 
L 187.992 372.642714 
L 125.496 379.562982 
L 63 381.029786 
L 63 384.48 
z
" style="fill:#306a8e;"/>
    <path clip-path="url(#p69e263c5ef)" d="M 125.496 54.291728 
L 127.164016 51.84 
L 125.496 51.84 
L 113.07172 51.84 
L 63 134.741579 
L 63 160.366229 
z
" style="fill:#306a8e;"/>
   </g>
   <g id="PathCollection_9">
    <path clip-path="url(#p69e263c5ef)" d="M 125.496 379.562982 
L 187.992 372.642714 
L 206.505329 367.848 
L 240.163103 351.216 
L 250.488 339.65021 
L 314.888575 218.16 
L 328.342694 51.84 
L 320.013389 51.84 
L 305.558549 218.16 
L 250.488 322.04933 
L 224.45062 351.216 
L 187.992 366.671346 
L 182.914403 367.848 
L 125.496 375.654919 
L 63 377.579571 
L 63 381.029786 
z
" style="fill:#2b748e;"/>
    <path clip-path="url(#p69e263c5ef)" d="M 125.496 66.721654 
L 135.620625 51.84 
L 127.164016 51.84 
L 125.496 54.291728 
L 63 160.366229 
L 63 185.99088 
z
" style="fill:#2b748e;"/>
   </g>
   <g id="PathCollection_10">
    <path clip-path="url(#p69e263c5ef)" d="M 125.496 375.654919 
L 182.914403 367.848 
L 187.992 366.671346 
L 224.45062 351.216 
L 250.488 322.04933 
L 305.558549 218.16 
L 320.013389 51.84 
L 311.684083 51.84 
L 296.228523 218.16 
L 250.488 304.448449 
L 208.738137 351.216 
L 187.992 360.010593 
L 154.171345 367.848 
L 125.496 371.746856 
L 63 374.129357 
L 63 377.579571 
z
" style="fill:#27808e;"/>
    <path clip-path="url(#p69e263c5ef)" d="M 125.496 79.151579 
L 144.077234 51.84 
L 135.620625 51.84 
L 125.496 66.721654 
L 63 185.99088 
L 63 211.61553 
z
" style="fill:#27808e;"/>
   </g>
   <g id="PathCollection_11">
    <path clip-path="url(#p69e263c5ef)" d="M 125.496 371.746856 
L 154.171345 367.848 
L 187.992 360.010593 
L 208.738137 351.216 
L 250.488 304.448449 
L 296.228523 218.16 
L 311.684083 51.84 
L 303.354778 51.84 
L 286.898497 218.16 
L 250.488 286.847568 
L 193.025653 351.216 
L 187.992 353.34984 
L 125.496 367.836546 
L 125.31709 367.848 
L 63 370.679142 
L 63 374.129357 
z
" style="fill:#228b8d;"/>
    <path clip-path="url(#p69e263c5ef)" d="M 67.25831 218.16 
L 125.496 91.581505 
L 152.533844 51.84 
L 144.077234 51.84 
L 125.496 79.151579 
L 63 211.61553 
L 63 218.16 
L 63 236.780173 
z
" style="fill:#228b8d;"/>
   </g>
   <g id="PathCollection_12">
    <path clip-path="url(#p69e263c5ef)" d="M 125.31709 367.848 
L 125.496 367.836546 
L 187.992 353.34984 
L 193.025653 351.216 
L 250.488 286.847568 
L 286.898497 218.16 
L 303.354778 51.84 
L 295.025472 51.84 
L 277.568471 218.16 
L 250.488 269.246688 
L 187.992 341.077024 
L 174.28194 351.216 
L 125.496 362.97451 
L 63 367.05338 
L 63 367.848 
L 63 370.679142 
z
" style="fill:#1f958b;"/>
    <path clip-path="url(#p69e263c5ef)" d="M 72.977213 218.16 
L 125.496 104.01143 
L 160.990453 51.84 
L 152.533844 51.84 
L 125.496 91.581505 
L 67.25831 218.16 
L 63 236.780173 
L 63 261.787035 
z
" style="fill:#1f958b;"/>
   </g>
   <g id="PathCollection_13">
    <path clip-path="url(#p69e263c5ef)" d="M 125.496 362.97451 
L 174.28194 351.216 
L 187.992 341.077024 
L 250.488 269.246688 
L 277.568471 218.16 
L 295.025472 51.84 
L 286.696166 51.84 
L 268.238445 218.16 
L 250.488 251.645807 
L 187.992 326.158865 
L 154.109403 351.216 
L 125.496 358.112474 
L 63 362.624802 
L 63 367.05338 
z
" style="fill:#1fa188;"/>
    <path clip-path="url(#p69e263c5ef)" d="M 78.696116 218.16 
L 125.496 116.441356 
L 169.447062 51.84 
L 160.990453 51.84 
L 125.496 104.01143 
L 72.977213 218.16 
L 63 261.787035 
L 63 286.793896 
z
" style="fill:#1fa188;"/>
   </g>
   <g id="PathCollection_14">
    <path clip-path="url(#p69e263c5ef)" d="M 125.496 358.112474 
L 154.109403 351.216 
L 187.992 326.158865 
L 250.488 251.645807 
L 268.238445 218.16 
L 286.696166 51.84 
L 278.366861 51.84 
L 258.908419 218.16 
L 250.488 234.044927 
L 187.992 311.240706 
L 133.936866 351.216 
L 125.496 353.250439 
L 63 358.196224 
L 63 362.624802 
z
" style="fill:#25ac82;"/>
    <path clip-path="url(#p69e263c5ef)" d="M 84.415019 218.16 
L 125.496 128.871281 
L 177.903672 51.84 
L 169.447062 51.84 
L 125.496 116.441356 
L 78.696116 218.16 
L 63 286.793896 
L 63 311.800758 
z
" style="fill:#25ac82;"/>
   </g>
   <g id="PathCollection_15">
    <path clip-path="url(#p69e263c5ef)" d="M 125.496 353.250439 
L 133.936866 351.216 
L 187.992 311.240706 
L 250.488 234.044927 
L 258.908419 218.16 
L 278.366861 51.84 
L 270.037555 51.84 
L 250.488 211.526961 
L 249.34635 218.16 
L 187.992 296.322547 
L 125.496 339.777468 
L 94.102539 351.216 
L 63 353.767645 
L 63 358.196224 
z
" style="fill:#32b67a;"/>
    <path clip-path="url(#p69e263c5ef)" d="M 90.133922 218.16 
L 125.496 141.301206 
L 186.360281 51.84 
L 177.903672 51.84 
L 125.496 128.871281 
L 84.415019 218.16 
L 63 311.800758 
L 63 336.807619 
z
" style="fill:#32b67a;"/>
   </g>
   <g id="PathCollection_16">
    <path clip-path="url(#p69e263c5ef)" d="M 94.102539 351.216 
L 125.496 339.777468 
L 187.992 296.322547 
L 249.34635 218.16 
L 250.488 211.526961 
L 270.037555 51.84 
L 261.70825 51.84 
L 250.488 143.490554 
L 237.636215 218.16 
L 187.992 281.404387 
L 125.496 320.108983 
L 95.852825 218.16 
L 125.496 153.731132 
L 187.992 78.438437 
L 211.406232 51.84 
L 187.992 51.84 
L 186.360281 51.84 
L 125.496 141.301206 
L 90.133922 218.16 
L 63 336.807619 
L 63 351.216 
L 63 353.767645 
z
" style="fill:#46c06f;"/>
   </g>
   <g id="PathCollection_17">
    <path clip-path="url(#p69e263c5ef)" d="M 125.496 320.108983 
L 187.992 281.404387 
L 237.636215 218.16 
L 250.488 143.490554 
L 261.70825 51.84 
L 253.378944 51.84 
L 250.488 75.454147 
L 240.41842 51.84 
L 211.406232 51.84 
L 187.992 78.438437 
L 125.496 153.731132 
L 95.852825 218.16 
z
M 101.571728 218.16 
L 125.496 166.161057 
L 187.992 111.396121 
L 225.92608 218.16 
L 187.992 266.486228 
L 125.496 300.440497 
z
" style="fill:#5cc863;"/>
   </g>
   <g id="PathCollection_18">
    <path clip-path="url(#p69e263c5ef)" d="M 125.496 300.440497 
L 187.992 266.486228 
L 225.92608 218.16 
L 187.992 111.396121 
L 125.496 166.161057 
L 101.571728 218.16 
z
M 107.290631 218.16 
L 125.496 178.590983 
L 187.992 144.353805 
L 214.215945 218.16 
L 187.992 251.568069 
L 125.496 280.772012 
z
" style="fill:#77d153;"/>
    <path clip-path="url(#p69e263c5ef)" d="M 250.488 75.454147 
L 253.378944 51.84 
L 250.488 51.84 
L 240.41842 51.84 
z
" style="fill:#77d153;"/>
   </g>
   <g id="PathCollection_19">
    <path clip-path="url(#p69e263c5ef)" d="M 125.496 280.772012 
L 187.992 251.568069 
L 214.215945 218.16 
L 187.992 144.353805 
L 125.496 178.590983 
L 107.290631 218.16 
z
M 113.009535 218.16 
L 125.496 191.020908 
L 187.992 177.311489 
L 202.50581 218.16 
L 187.992 236.649909 
L 125.496 261.103526 
z
" style="fill:#95d840;"/>
   </g>
   <g id="PathCollection_20">
    <path clip-path="url(#p69e263c5ef)" d="M 125.496 261.103526 
L 187.992 236.649909 
L 202.50581 218.16 
L 187.992 177.311489 
L 125.496 191.020908 
L 113.009535 218.16 
z
M 118.728438 218.16 
L 125.496 203.450834 
L 187.992 210.269173 
L 190.795675 218.16 
L 187.992 221.73175 
L 125.496 241.435041 
z
" style="fill:#b2dd2d;"/>
   </g>
   <g id="PathCollection_21">
    <path clip-path="url(#p69e263c5ef)" d="M 125.496 241.435041 
L 187.992 221.73175 
L 190.795675 218.16 
L 187.992 210.269173 
L 125.496 203.450834 
L 118.728438 218.16 
z
M 124.447341 218.16 
L 125.496 215.880759 
L 137.636249 218.16 
L 125.496 221.766555 
z
" style="fill:#d2e21b;"/>
   </g>
   <g id="PathCollection_22">
    <path clip-path="url(#p69e263c5ef)" d="M 125.496 221.766555 
L 137.636249 218.16 
L 125.496 215.880759 
L 124.447341 218.16 
z
" style="fill:#f1e51d;"/>
   </g>
   <g id="matplotlib.axis_1">
    <g id="xtick_1">
     <g id="line2d_1">
      <defs>
       <path d="M 0 0 
L 0 3.5 
" id="m00a431edb0" style="stroke:#000000;stroke-width:0.8;"/>
      </defs>
      <g>
       <use style="stroke:#000000;stroke-width:0.8;" x="63" xlink:href="#m00a431edb0" y="384.48"/>
      </g>
     </g>
     <g id="text_1">
      <!-- 0.0 -->
      <defs>
       <path d="M 31.78125 66.40625 
Q 24.171875 66.40625 20.328125 58.90625 
Q 16.5 51.421875 16.5 36.375 
Q 16.5 21.390625 20.328125 13.890625 
Q 24.171875 6.390625 31.78125 6.390625 
Q 39.453125 6.390625 43.28125 13.890625 
Q 47.125 21.390625 47.125 36.375 
Q 47.125 51.421875 43.28125 58.90625 
Q 39.453125 66.40625 31.78125 66.40625 
z
M 31.78125 74.21875 
Q 44.046875 74.21875 50.515625 64.515625 
Q 56.984375 54.828125 56.984375 36.375 
Q 56.984375 17.96875 50.515625 8.265625 
Q 44.046875 -1.421875 31.78125 -1.421875 
Q 19.53125 -1.421875 13.0625 8.265625 
Q 6.59375 17.96875 6.59375 36.375 
Q 6.59375 54.828125 13.0625 64.515625 
Q 19.53125 74.21875 31.78125 74.21875 
z
" id="DejaVuSans-30"/>
       <path d="M 10.6875 12.40625 
L 21 12.40625 
L 21 0 
L 10.6875 0 
z
" id="DejaVuSans-2e"/>
      </defs>
      <g transform="translate(55.048437 399.078438)scale(0.1 -0.1)">
       <use xlink:href="#DejaVuSans-30"/>
       <use x="63.623047" xlink:href="#DejaVuSans-2e"/>
       <use x="95.410156" xlink:href="#DejaVuSans-30"/>
      </g>
     </g>
    </g>
    <g id="xtick_2">
     <g id="line2d_2">
      <g>
       <use style="stroke:#000000;stroke-width:0.8;" x="107.191345" xlink:href="#m00a431edb0" y="384.48"/>
      </g>
     </g>
     <g id="text_2">
      <!-- 0.5 -->
      <defs>
       <path d="M 10.796875 72.90625 
L 49.515625 72.90625 
L 49.515625 64.59375 
L 19.828125 64.59375 
L 19.828125 46.734375 
Q 21.96875 47.46875 24.109375 47.828125 
Q 26.265625 48.1875 28.421875 48.1875 
Q 40.625 48.1875 47.75 41.5 
Q 54.890625 34.8125 54.890625 23.390625 
Q 54.890625 11.625 47.5625 5.09375 
Q 40.234375 -1.421875 26.90625 -1.421875 
Q 22.3125 -1.421875 17.546875 -0.640625 
Q 12.796875 0.140625 7.71875 1.703125 
L 7.71875 11.625 
Q 12.109375 9.234375 16.796875 8.0625 
Q 21.484375 6.890625 26.703125 6.890625 
Q 35.15625 6.890625 40.078125 11.328125 
Q 45.015625 15.765625 45.015625 23.390625 
Q 45.015625 31 40.078125 35.4375 
Q 35.15625 39.890625 26.703125 39.890625 
Q 22.75 39.890625 18.8125 39.015625 
Q 14.890625 38.140625 10.796875 36.28125 
z
" id="DejaVuSans-35"/>
      </defs>
      <g transform="translate(99.239783 399.078438)scale(0.1 -0.1)">
       <use xlink:href="#DejaVuSans-30"/>
       <use x="63.623047" xlink:href="#DejaVuSans-2e"/>
       <use x="95.410156" xlink:href="#DejaVuSans-35"/>
      </g>
     </g>
    </g>
    <g id="xtick_3">
     <g id="line2d_3">
      <g>
       <use style="stroke:#000000;stroke-width:0.8;" x="151.382691" xlink:href="#m00a431edb0" y="384.48"/>
      </g>
     </g>
     <g id="text_3">
      <!-- 1.0 -->
      <defs>
       <path d="M 12.40625 8.296875 
L 28.515625 8.296875 
L 28.515625 63.921875 
L 10.984375 60.40625 
L 10.984375 69.390625 
L 28.421875 72.90625 
L 38.28125 72.90625 
L 38.28125 8.296875 
L 54.390625 8.296875 
L 54.390625 0 
L 12.40625 0 
z
" id="DejaVuSans-31"/>
      </defs>
      <g transform="translate(143.431128 399.078438)scale(0.1 -0.1)">
       <use xlink:href="#DejaVuSans-31"/>
       <use x="63.623047" xlink:href="#DejaVuSans-2e"/>
       <use x="95.410156" xlink:href="#DejaVuSans-30"/>
      </g>
     </g>
    </g>
    <g id="xtick_4">
     <g id="line2d_4">
      <g>
       <use style="stroke:#000000;stroke-width:0.8;" x="195.574036" xlink:href="#m00a431edb0" y="384.48"/>
      </g>
     </g>
     <g id="text_4">
      <!-- 1.5 -->
      <g transform="translate(187.622474 399.078438)scale(0.1 -0.1)">
       <use xlink:href="#DejaVuSans-31"/>
       <use x="63.623047" xlink:href="#DejaVuSans-2e"/>
       <use x="95.410156" xlink:href="#DejaVuSans-35"/>
      </g>
     </g>
    </g>
    <g id="xtick_5">
     <g id="line2d_5">
      <g>
       <use style="stroke:#000000;stroke-width:0.8;" x="239.765382" xlink:href="#m00a431edb0" y="384.48"/>
      </g>
     </g>
     <g id="text_5">
      <!-- 2.0 -->
      <defs>
       <path d="M 19.1875 8.296875 
L 53.609375 8.296875 
L 53.609375 0 
L 7.328125 0 
L 7.328125 8.296875 
Q 12.9375 14.109375 22.625 23.890625 
Q 32.328125 33.6875 34.8125 36.53125 
Q 39.546875 41.84375 41.421875 45.53125 
Q 43.3125 49.21875 43.3125 52.78125 
Q 43.3125 58.59375 39.234375 62.25 
Q 35.15625 65.921875 28.609375 65.921875 
Q 23.96875 65.921875 18.8125 64.3125 
Q 13.671875 62.703125 7.8125 59.421875 
L 7.8125 69.390625 
Q 13.765625 71.78125 18.9375 73 
Q 24.125 74.21875 28.421875 74.21875 
Q 39.75 74.21875 46.484375 68.546875 
Q 53.21875 62.890625 53.21875 53.421875 
Q 53.21875 48.921875 51.53125 44.890625 
Q 49.859375 40.875 45.40625 35.40625 
Q 44.1875 33.984375 37.640625 27.21875 
Q 31.109375 20.453125 19.1875 8.296875 
z
" id="DejaVuSans-32"/>
      </defs>
      <g transform="translate(231.813819 399.078438)scale(0.1 -0.1)">
       <use xlink:href="#DejaVuSans-32"/>
       <use x="63.623047" xlink:href="#DejaVuSans-2e"/>
       <use x="95.410156" xlink:href="#DejaVuSans-30"/>
      </g>
     </g>
    </g>
    <g id="xtick_6">
     <g id="line2d_6">
      <g>
       <use style="stroke:#000000;stroke-width:0.8;" x="283.956727" xlink:href="#m00a431edb0" y="384.48"/>
      </g>
     </g>
     <g id="text_6">
      <!-- 2.5 -->
      <g transform="translate(276.005164 399.078438)scale(0.1 -0.1)">
       <use xlink:href="#DejaVuSans-32"/>
       <use x="63.623047" xlink:href="#DejaVuSans-2e"/>
       <use x="95.410156" xlink:href="#DejaVuSans-35"/>
      </g>
     </g>
    </g>
    <g id="xtick_7">
     <g id="line2d_7">
      <g>
       <use style="stroke:#000000;stroke-width:0.8;" x="328.148072" xlink:href="#m00a431edb0" y="384.48"/>
      </g>
     </g>
     <g id="text_7">
      <!-- 3.0 -->
      <defs>
       <path d="M 40.578125 39.3125 
Q 47.65625 37.796875 51.625 33 
Q 55.609375 28.21875 55.609375 21.1875 
Q 55.609375 10.40625 48.1875 4.484375 
Q 40.765625 -1.421875 27.09375 -1.421875 
Q 22.515625 -1.421875 17.65625 -0.515625 
Q 12.796875 0.390625 7.625 2.203125 
L 7.625 11.71875 
Q 11.71875 9.328125 16.59375 8.109375 
Q 21.484375 6.890625 26.8125 6.890625 
Q 36.078125 6.890625 40.9375 10.546875 
Q 45.796875 14.203125 45.796875 21.1875 
Q 45.796875 27.640625 41.28125 31.265625 
Q 36.765625 34.90625 28.71875 34.90625 
L 20.21875 34.90625 
L 20.21875 43.015625 
L 29.109375 43.015625 
Q 36.375 43.015625 40.234375 45.921875 
Q 44.09375 48.828125 44.09375 54.296875 
Q 44.09375 59.90625 40.109375 62.90625 
Q 36.140625 65.921875 28.71875 65.921875 
Q 24.65625 65.921875 20.015625 65.03125 
Q 15.375 64.15625 9.8125 62.3125 
L 9.8125 71.09375 
Q 15.4375 72.65625 20.34375 73.4375 
Q 25.25 74.21875 29.59375 74.21875 
Q 40.828125 74.21875 47.359375 69.109375 
Q 53.90625 64.015625 53.90625 55.328125 
Q 53.90625 49.265625 50.4375 45.09375 
Q 46.96875 40.921875 40.578125 39.3125 
z
" id="DejaVuSans-33"/>
      </defs>
      <g transform="translate(320.19651 399.078438)scale(0.1 -0.1)">
       <use xlink:href="#DejaVuSans-33"/>
       <use x="63.623047" xlink:href="#DejaVuSans-2e"/>
       <use x="95.410156" xlink:href="#DejaVuSans-30"/>
      </g>
     </g>
    </g>
    <g id="xtick_8">
     <g id="line2d_8">
      <g>
       <use style="stroke:#000000;stroke-width:0.8;" x="372.339418" xlink:href="#m00a431edb0" y="384.48"/>
      </g>
     </g>
     <g id="text_8">
      <!-- 3.5 -->
      <g transform="translate(364.387855 399.078438)scale(0.1 -0.1)">
       <use xlink:href="#DejaVuSans-33"/>
       <use x="63.623047" xlink:href="#DejaVuSans-2e"/>
       <use x="95.410156" xlink:href="#DejaVuSans-35"/>
      </g>
     </g>
    </g>
    <g id="text_9">
     <!-- $L_p/\sigma$ -->
     <defs>
      <path d="M 16.796875 72.90625 
L 26.703125 72.90625 
L 14.203125 8.203125 
L 49.703125 8.203125 
L 48.09375 0 
L 2.6875 0 
z
" id="DejaVuSans-Oblique-4c"/>
      <path d="M 49.609375 33.6875 
Q 49.609375 40.875 46.484375 44.671875 
Q 43.359375 48.484375 37.5 48.484375 
Q 33.5 48.484375 29.859375 46.4375 
Q 26.21875 44.390625 23.390625 40.484375 
Q 20.609375 36.625 18.9375 31.15625 
Q 17.28125 25.6875 17.28125 20.3125 
Q 17.28125 13.484375 20.40625 9.796875 
Q 23.53125 6.109375 29.296875 6.109375 
Q 33.546875 6.109375 37.1875 8.109375 
Q 40.828125 10.109375 43.40625 13.921875 
Q 46.1875 17.921875 47.890625 23.34375 
Q 49.609375 28.765625 49.609375 33.6875 
z
M 21.78125 46.390625 
Q 25.390625 51.125 30.296875 53.5625 
Q 35.203125 56 41.21875 56 
Q 49.609375 56 54.25 50.5 
Q 58.890625 45.015625 58.890625 35.109375 
Q 58.890625 27 56 19.65625 
Q 53.125 12.3125 47.703125 6.5 
Q 44.09375 2.640625 39.546875 0.609375 
Q 35.015625 -1.421875 29.984375 -1.421875 
Q 24.171875 -1.421875 20.21875 1 
Q 16.265625 3.421875 14.3125 8.203125 
L 8.6875 -20.796875 
L -0.296875 -20.796875 
L 14.40625 54.6875 
L 23.390625 54.6875 
z
" id="DejaVuSans-Oblique-70"/>
      <path d="M 25.390625 72.90625 
L 33.6875 72.90625 
L 8.296875 -9.28125 
L 0 -9.28125 
z
" id="DejaVuSans-2f"/>
      <path d="M 34.671875 47.5625 
Q 27.25 47.5625 22.21875 42.1875 
Q 16.890625 36.578125 15.140625 27.296875 
Q 13.1875 17.484375 16.3125 11.8125 
Q 19.390625 6.203125 26.65625 6.203125 
Q 33.84375 6.203125 39.109375 11.859375 
Q 44.4375 17.53125 46.34375 27.296875 
Q 48.046875 36.234375 45.015625 42.1875 
Q 42.1875 47.5625 34.671875 47.5625 
z
M 36.078125 54.734375 
L 65.921875 54.6875 
L 64.15625 45.703125 
L 54.109375 45.703125 
Q 57.90625 38.09375 55.859375 27.296875 
Q 53.21875 13.875 45.0625 6.25 
Q 36.859375 -1.421875 25.140625 -1.421875 
Q 13.375 -1.421875 8.203125 6.25 
Q 3.03125 13.875 5.671875 27.296875 
Q 8.25 40.765625 16.40625 48.390625 
Q 23.1875 54.734375 36.078125 54.734375 
z
" id="DejaVuSans-Oblique-3c3"/>
     </defs>
     <g transform="translate(199.24 419.758125)scale(0.2 -0.2)">
      <use transform="translate(0 0.09375)" xlink:href="#DejaVuSans-Oblique-4c"/>
      <use transform="translate(55.712891 -16.3125)scale(0.7)" xlink:href="#DejaVuSans-Oblique-70"/>
      <use transform="translate(102.880859 0.09375)" xlink:href="#DejaVuSans-2f"/>
      <use transform="translate(136.572266 0.09375)" xlink:href="#DejaVuSans-Oblique-3c3"/>
     </g>
    </g>
   </g>
   <g id="matplotlib.axis_2">
    <g id="ytick_1">
     <g id="line2d_9">
      <defs>
       <path d="M 0 0 
L -3.5 0 
" id="m79587a403f" style="stroke:#000000;stroke-width:0.8;"/>
      </defs>
      <g>
       <use style="stroke:#000000;stroke-width:0.8;" x="63" xlink:href="#m79587a403f" y="384.48"/>
      </g>
     </g>
     <g id="text_10">
      <!-- 0 -->
      <g transform="translate(49.6375 388.279219)scale(0.1 -0.1)">
       <use xlink:href="#DejaVuSans-30"/>
      </g>
     </g>
    </g>
    <g id="ytick_2">
     <g id="line2d_10">
      <g>
       <use style="stroke:#000000;stroke-width:0.8;" x="63" xlink:href="#m79587a403f" y="317.952"/>
      </g>
     </g>
     <g id="text_11">
      <!-- 10 -->
      <g transform="translate(43.275 321.751219)scale(0.1 -0.1)">
       <use xlink:href="#DejaVuSans-31"/>
       <use x="63.623047" xlink:href="#DejaVuSans-30"/>
      </g>
     </g>
    </g>
    <g id="ytick_3">
     <g id="line2d_11">
      <g>
       <use style="stroke:#000000;stroke-width:0.8;" x="63" xlink:href="#m79587a403f" y="251.424"/>
      </g>
     </g>
     <g id="text_12">
      <!-- 20 -->
      <g transform="translate(43.275 255.223219)scale(0.1 -0.1)">
       <use xlink:href="#DejaVuSans-32"/>
       <use x="63.623047" xlink:href="#DejaVuSans-30"/>
      </g>
     </g>
    </g>
    <g id="ytick_4">
     <g id="line2d_12">
      <g>
       <use style="stroke:#000000;stroke-width:0.8;" x="63" xlink:href="#m79587a403f" y="184.896"/>
      </g>
     </g>
     <g id="text_13">
      <!-- 30 -->
      <g transform="translate(43.275 188.695219)scale(0.1 -0.1)">
       <use xlink:href="#DejaVuSans-33"/>
       <use x="63.623047" xlink:href="#DejaVuSans-30"/>
      </g>
     </g>
    </g>
    <g id="ytick_5">
     <g id="line2d_13">
      <g>
       <use style="stroke:#000000;stroke-width:0.8;" x="63" xlink:href="#m79587a403f" y="118.368"/>
      </g>
     </g>
     <g id="text_14">
      <!-- 40 -->
      <defs>
       <path d="M 37.796875 64.3125 
L 12.890625 25.390625 
L 37.796875 25.390625 
z
M 35.203125 72.90625 
L 47.609375 72.90625 
L 47.609375 25.390625 
L 58.015625 25.390625 
L 58.015625 17.1875 
L 47.609375 17.1875 
L 47.609375 0 
L 37.796875 0 
L 37.796875 17.1875 
L 4.890625 17.1875 
L 4.890625 26.703125 
z
" id="DejaVuSans-34"/>
      </defs>
      <g transform="translate(43.275 122.167219)scale(0.1 -0.1)">
       <use xlink:href="#DejaVuSans-34"/>
       <use x="63.623047" xlink:href="#DejaVuSans-30"/>
      </g>
     </g>
    </g>
    <g id="ytick_6">
     <g id="line2d_14">
      <g>
       <use style="stroke:#000000;stroke-width:0.8;" x="63" xlink:href="#m79587a403f" y="51.84"/>
      </g>
     </g>
     <g id="text_15">
      <!-- 50 -->
      <g transform="translate(43.275 55.639219)scale(0.1 -0.1)">
       <use xlink:href="#DejaVuSans-35"/>
       <use x="63.623047" xlink:href="#DejaVuSans-30"/>
      </g>
     </g>
    </g>
    <g id="text_16">
     <!-- $k_{l}/k_m$ -->
     <defs>
      <path d="M 18.3125 75.984375 
L 27.296875 75.984375 
L 18.703125 31.6875 
L 49.515625 54.6875 
L 61.1875 54.6875 
L 26.8125 28.515625 
L 51.90625 0 
L 41.015625 0 
L 17.671875 26.703125 
L 12.5 0 
L 3.515625 0 
z
" id="DejaVuSans-Oblique-6b"/>
      <path d="M 18.3125 75.984375 
L 27.296875 75.984375 
L 12.5 0 
L 3.515625 0 
z
" id="DejaVuSans-Oblique-6c"/>
      <path d="M 89.796875 33.015625 
L 83.40625 0 
L 74.421875 0 
L 80.71875 32.71875 
Q 81.109375 34.8125 81.296875 36.328125 
Q 81.5 37.84375 81.5 38.921875 
Q 81.5 43.3125 79.046875 45.75 
Q 76.609375 48.1875 72.21875 48.1875 
Q 65.671875 48.1875 60.546875 43.28125 
Q 55.421875 38.375 53.90625 30.515625 
L 47.90625 0 
L 38.921875 0 
L 45.3125 32.71875 
Q 45.703125 34.515625 45.890625 36.046875 
Q 46.09375 37.59375 46.09375 38.8125 
Q 46.09375 43.265625 43.65625 45.71875 
Q 41.21875 48.1875 36.921875 48.1875 
Q 30.28125 48.1875 25.140625 43.28125 
Q 20.015625 38.375 18.5 30.515625 
L 12.5 0 
L 3.515625 0 
L 14.203125 54.6875 
L 23.1875 54.6875 
L 21.484375 46.1875 
Q 25.140625 50.984375 30.046875 53.484375 
Q 34.96875 56 40.578125 56 
Q 46.53125 56 50.359375 52.875 
Q 54.203125 49.75 54.984375 44.1875 
Q 59.078125 49.953125 64.46875 52.96875 
Q 69.875 56 75.875 56 
Q 82.90625 56 86.734375 51.953125 
Q 90.578125 47.90625 90.578125 40.484375 
Q 90.578125 38.875 90.375 36.9375 
Q 90.1875 35.015625 89.796875 33.015625 
z
" id="DejaVuSans-Oblique-6d"/>
     </defs>
     <g transform="translate(35.115625 242.46)rotate(-90)scale(0.2 -0.2)">
      <use transform="translate(0 0.015625)" xlink:href="#DejaVuSans-Oblique-6b"/>
      <use transform="translate(57.910156 -16.390625)scale(0.7)" xlink:href="#DejaVuSans-Oblique-6c"/>
      <use transform="translate(80.092773 0.015625)" xlink:href="#DejaVuSans-2f"/>
      <use transform="translate(113.78418 0.015625)" xlink:href="#DejaVuSans-Oblique-6b"/>
      <use transform="translate(171.694336 -16.390625)scale(0.7)" xlink:href="#DejaVuSans-Oblique-6d"/>
     </g>
    </g>
   </g>
   <g id="patch_3">
    <path d="M 63 384.48 
L 63 51.84 
" style="fill:none;stroke:#000000;stroke-linecap:square;stroke-linejoin:miter;stroke-width:0.8;"/>
   </g>
   <g id="patch_4">
    <path d="M 375.48 384.48 
L 375.48 51.84 
" style="fill:none;stroke:#000000;stroke-linecap:square;stroke-linejoin:miter;stroke-width:0.8;"/>
   </g>
   <g id="patch_5">
    <path d="M 63 384.48 
L 375.48 384.48 
" style="fill:none;stroke:#000000;stroke-linecap:square;stroke-linejoin:miter;stroke-width:0.8;"/>
   </g>
   <g id="patch_6">
    <path d="M 63 51.84 
L 375.48 51.84 
" style="fill:none;stroke:#000000;stroke-linecap:square;stroke-linejoin:miter;stroke-width:0.8;"/>
   </g>
  </g>
  <g id="axes_2">
   <g id="patch_7">
    <path clip-path="url(#p803b4e4c63)" d="M 395.01 384.48 
L 395.01 369.36 
L 395.01 66.96 
L 395.01 51.84 
L 411.642 51.84 
L 411.642 66.96 
L 411.642 369.36 
L 411.642 384.48 
z
" style="fill:#ffffff;stroke:#ffffff;stroke-linejoin:miter;stroke-width:0.01;"/>
   </g>
   <g id="QuadMesh_1">
    <path clip-path="url(#p803b4e4c63)" d="M 395.01 384.48 
L 411.642 384.48 
L 411.642 369.36 
L 395.01 369.36 
L 395.01 384.48 
" style="fill:#46085c;"/>
    <path clip-path="url(#p803b4e4c63)" d="M 395.01 369.36 
L 411.642 369.36 
L 411.642 354.24 
L 395.01 354.24 
L 395.01 369.36 
" style="fill:#481a6c;"/>
    <path clip-path="url(#p803b4e4c63)" d="M 395.01 354.24 
L 411.642 354.24 
L 411.642 339.12 
L 395.01 339.12 
L 395.01 354.24 
" style="fill:#482979;"/>
    <path clip-path="url(#p803b4e4c63)" d="M 395.01 339.12 
L 411.642 339.12 
L 411.642 324 
L 395.01 324 
L 395.01 339.12 
" style="fill:#453781;"/>
    <path clip-path="url(#p803b4e4c63)" d="M 395.01 324 
L 411.642 324 
L 411.642 308.88 
L 395.01 308.88 
L 395.01 324 
" style="fill:#404588;"/>
    <path clip-path="url(#p803b4e4c63)" d="M 395.01 308.88 
L 411.642 308.88 
L 411.642 293.76 
L 395.01 293.76 
L 395.01 308.88 
" style="fill:#3b528b;"/>
    <path clip-path="url(#p803b4e4c63)" d="M 395.01 293.76 
L 411.642 293.76 
L 411.642 278.64 
L 395.01 278.64 
L 395.01 293.76 
" style="fill:#355e8d;"/>
    <path clip-path="url(#p803b4e4c63)" d="M 395.01 278.64 
L 411.642 278.64 
L 411.642 263.52 
L 395.01 263.52 
L 395.01 278.64 
" style="fill:#306a8e;"/>
    <path clip-path="url(#p803b4e4c63)" d="M 395.01 263.52 
L 411.642 263.52 
L 411.642 248.4 
L 395.01 248.4 
L 395.01 263.52 
" style="fill:#2b748e;"/>
    <path clip-path="url(#p803b4e4c63)" d="M 395.01 248.4 
L 411.642 248.4 
L 411.642 233.28 
L 395.01 233.28 
L 395.01 248.4 
" style="fill:#27808e;"/>
    <path clip-path="url(#p803b4e4c63)" d="M 395.01 233.28 
L 411.642 233.28 
L 411.642 218.16 
L 395.01 218.16 
L 395.01 233.28 
" style="fill:#228b8d;"/>
    <path clip-path="url(#p803b4e4c63)" d="M 395.01 218.16 
L 411.642 218.16 
L 411.642 203.04 
L 395.01 203.04 
L 395.01 218.16 
" style="fill:#1f958b;"/>
    <path clip-path="url(#p803b4e4c63)" d="M 395.01 203.04 
L 411.642 203.04 
L 411.642 187.92 
L 395.01 187.92 
L 395.01 203.04 
" style="fill:#1fa188;"/>
    <path clip-path="url(#p803b4e4c63)" d="M 395.01 187.92 
L 411.642 187.92 
L 411.642 172.8 
L 395.01 172.8 
L 395.01 187.92 
" style="fill:#25ac82;"/>
    <path clip-path="url(#p803b4e4c63)" d="M 395.01 172.8 
L 411.642 172.8 
L 411.642 157.68 
L 395.01 157.68 
L 395.01 172.8 
" style="fill:#32b67a;"/>
    <path clip-path="url(#p803b4e4c63)" d="M 395.01 157.68 
L 411.642 157.68 
L 411.642 142.56 
L 395.01 142.56 
L 395.01 157.68 
" style="fill:#46c06f;"/>
    <path clip-path="url(#p803b4e4c63)" d="M 395.01 142.56 
L 411.642 142.56 
L 411.642 127.44 
L 395.01 127.44 
L 395.01 142.56 
" style="fill:#5cc863;"/>
    <path clip-path="url(#p803b4e4c63)" d="M 395.01 127.44 
L 411.642 127.44 
L 411.642 112.32 
L 395.01 112.32 
L 395.01 127.44 
" style="fill:#77d153;"/>
    <path clip-path="url(#p803b4e4c63)" d="M 395.01 112.32 
L 411.642 112.32 
L 411.642 97.2 
L 395.01 97.2 
L 395.01 112.32 
" style="fill:#95d840;"/>
    <path clip-path="url(#p803b4e4c63)" d="M 395.01 97.2 
L 411.642 97.2 
L 411.642 82.08 
L 395.01 82.08 
L 395.01 97.2 
" style="fill:#b2dd2d;"/>
    <path clip-path="url(#p803b4e4c63)" d="M 395.01 82.08 
L 411.642 82.08 
L 411.642 66.96 
L 395.01 66.96 
L 395.01 82.08 
" style="fill:#d2e21b;"/>
    <path clip-path="url(#p803b4e4c63)" d="M 395.01 66.96 
L 411.642 66.96 
L 411.642 51.84 
L 395.01 51.84 
L 395.01 66.96 
" style="fill:#f1e51d;"/>
   </g>
   <g id="matplotlib.axis_3"/>
   <g id="matplotlib.axis_4">
    <g id="ytick_7">
     <g id="line2d_15">
      <defs>
       <path d="M 0 0 
L 3.5 0 
" id="m508917c144" style="stroke:#000000;stroke-width:0.8;"/>
      </defs>
      <g>
       <use style="stroke:#000000;stroke-width:0.8;" x="411.642" xlink:href="#m508917c144" y="384.48"/>
      </g>
     </g>
     <g id="text_17">
      <!-- 0.944 -->
      <defs>
       <path d="M 10.984375 1.515625 
L 10.984375 10.5 
Q 14.703125 8.734375 18.5 7.8125 
Q 22.3125 6.890625 25.984375 6.890625 
Q 35.75 6.890625 40.890625 13.453125 
Q 46.046875 20.015625 46.78125 33.40625 
Q 43.953125 29.203125 39.59375 26.953125 
Q 35.25 24.703125 29.984375 24.703125 
Q 19.046875 24.703125 12.671875 31.3125 
Q 6.296875 37.9375 6.296875 49.421875 
Q 6.296875 60.640625 12.9375 67.421875 
Q 19.578125 74.21875 30.609375 74.21875 
Q 43.265625 74.21875 49.921875 64.515625 
Q 56.59375 54.828125 56.59375 36.375 
Q 56.59375 19.140625 48.40625 8.859375 
Q 40.234375 -1.421875 26.421875 -1.421875 
Q 22.703125 -1.421875 18.890625 -0.6875 
Q 15.09375 0.046875 10.984375 1.515625 
z
M 30.609375 32.421875 
Q 37.25 32.421875 41.125 36.953125 
Q 45.015625 41.5 45.015625 49.421875 
Q 45.015625 57.28125 41.125 61.84375 
Q 37.25 66.40625 30.609375 66.40625 
Q 23.96875 66.40625 20.09375 61.84375 
Q 16.21875 57.28125 16.21875 49.421875 
Q 16.21875 41.5 20.09375 36.953125 
Q 23.96875 32.421875 30.609375 32.421875 
z
" id="DejaVuSans-39"/>
      </defs>
      <g transform="translate(418.642 388.279219)scale(0.1 -0.1)">
       <use xlink:href="#DejaVuSans-30"/>
       <use x="63.623047" xlink:href="#DejaVuSans-2e"/>
       <use x="95.410156" xlink:href="#DejaVuSans-39"/>
       <use x="159.033203" xlink:href="#DejaVuSans-34"/>
       <use x="222.65625" xlink:href="#DejaVuSans-34"/>
      </g>
     </g>
    </g>
    <g id="ytick_8">
     <g id="line2d_16">
      <g>
       <use style="stroke:#000000;stroke-width:0.8;" x="411.642" xlink:href="#m508917c144" y="339.12"/>
      </g>
     </g>
     <g id="text_18">
      <!-- 0.968 -->
      <defs>
       <path d="M 33.015625 40.375 
Q 26.375 40.375 22.484375 35.828125 
Q 18.609375 31.296875 18.609375 23.390625 
Q 18.609375 15.53125 22.484375 10.953125 
Q 26.375 6.390625 33.015625 6.390625 
Q 39.65625 6.390625 43.53125 10.953125 
Q 47.40625 15.53125 47.40625 23.390625 
Q 47.40625 31.296875 43.53125 35.828125 
Q 39.65625 40.375 33.015625 40.375 
z
M 52.59375 71.296875 
L 52.59375 62.3125 
Q 48.875 64.0625 45.09375 64.984375 
Q 41.3125 65.921875 37.59375 65.921875 
Q 27.828125 65.921875 22.671875 59.328125 
Q 17.53125 52.734375 16.796875 39.40625 
Q 19.671875 43.65625 24.015625 45.921875 
Q 28.375 48.1875 33.59375 48.1875 
Q 44.578125 48.1875 50.953125 41.515625 
Q 57.328125 34.859375 57.328125 23.390625 
Q 57.328125 12.15625 50.6875 5.359375 
Q 44.046875 -1.421875 33.015625 -1.421875 
Q 20.359375 -1.421875 13.671875 8.265625 
Q 6.984375 17.96875 6.984375 36.375 
Q 6.984375 53.65625 15.1875 63.9375 
Q 23.390625 74.21875 37.203125 74.21875 
Q 40.921875 74.21875 44.703125 73.484375 
Q 48.484375 72.75 52.59375 71.296875 
z
" id="DejaVuSans-36"/>
       <path d="M 31.78125 34.625 
Q 24.75 34.625 20.71875 30.859375 
Q 16.703125 27.09375 16.703125 20.515625 
Q 16.703125 13.921875 20.71875 10.15625 
Q 24.75 6.390625 31.78125 6.390625 
Q 38.8125 6.390625 42.859375 10.171875 
Q 46.921875 13.96875 46.921875 20.515625 
Q 46.921875 27.09375 42.890625 30.859375 
Q 38.875 34.625 31.78125 34.625 
z
M 21.921875 38.8125 
Q 15.578125 40.375 12.03125 44.71875 
Q 8.5 49.078125 8.5 55.328125 
Q 8.5 64.0625 14.71875 69.140625 
Q 20.953125 74.21875 31.78125 74.21875 
Q 42.671875 74.21875 48.875 69.140625 
Q 55.078125 64.0625 55.078125 55.328125 
Q 55.078125 49.078125 51.53125 44.71875 
Q 48 40.375 41.703125 38.8125 
Q 48.828125 37.15625 52.796875 32.3125 
Q 56.78125 27.484375 56.78125 20.515625 
Q 56.78125 9.90625 50.3125 4.234375 
Q 43.84375 -1.421875 31.78125 -1.421875 
Q 19.734375 -1.421875 13.25 4.234375 
Q 6.78125 9.90625 6.78125 20.515625 
Q 6.78125 27.484375 10.78125 32.3125 
Q 14.796875 37.15625 21.921875 38.8125 
z
M 18.3125 54.390625 
Q 18.3125 48.734375 21.84375 45.5625 
Q 25.390625 42.390625 31.78125 42.390625 
Q 38.140625 42.390625 41.71875 45.5625 
Q 45.3125 48.734375 45.3125 54.390625 
Q 45.3125 60.0625 41.71875 63.234375 
Q 38.140625 66.40625 31.78125 66.40625 
Q 25.390625 66.40625 21.84375 63.234375 
Q 18.3125 60.0625 18.3125 54.390625 
z
" id="DejaVuSans-38"/>
      </defs>
      <g transform="translate(418.642 342.919219)scale(0.1 -0.1)">
       <use xlink:href="#DejaVuSans-30"/>
       <use x="63.623047" xlink:href="#DejaVuSans-2e"/>
       <use x="95.410156" xlink:href="#DejaVuSans-39"/>
       <use x="159.033203" xlink:href="#DejaVuSans-36"/>
       <use x="222.65625" xlink:href="#DejaVuSans-38"/>
      </g>
     </g>
    </g>
    <g id="ytick_9">
     <g id="line2d_17">
      <g>
       <use style="stroke:#000000;stroke-width:0.8;" x="411.642" xlink:href="#m508917c144" y="293.76"/>
      </g>
     </g>
     <g id="text_19">
      <!-- 0.992 -->
      <g transform="translate(418.642 297.559219)scale(0.1 -0.1)">
       <use xlink:href="#DejaVuSans-30"/>
       <use x="63.623047" xlink:href="#DejaVuSans-2e"/>
       <use x="95.410156" xlink:href="#DejaVuSans-39"/>
       <use x="159.033203" xlink:href="#DejaVuSans-39"/>
       <use x="222.65625" xlink:href="#DejaVuSans-32"/>
      </g>
     </g>
    </g>
    <g id="ytick_10">
     <g id="line2d_18">
      <g>
       <use style="stroke:#000000;stroke-width:0.8;" x="411.642" xlink:href="#m508917c144" y="248.4"/>
      </g>
     </g>
     <g id="text_20">
      <!-- 1.016 -->
      <g transform="translate(418.642 252.199219)scale(0.1 -0.1)">
       <use xlink:href="#DejaVuSans-31"/>
       <use x="63.623047" xlink:href="#DejaVuSans-2e"/>
       <use x="95.410156" xlink:href="#DejaVuSans-30"/>
       <use x="159.033203" xlink:href="#DejaVuSans-31"/>
       <use x="222.65625" xlink:href="#DejaVuSans-36"/>
      </g>
     </g>
    </g>
    <g id="ytick_11">
     <g id="line2d_19">
      <g>
       <use style="stroke:#000000;stroke-width:0.8;" x="411.642" xlink:href="#m508917c144" y="203.04"/>
      </g>
     </g>
     <g id="text_21">
      <!-- 1.040 -->
      <g transform="translate(418.642 206.839219)scale(0.1 -0.1)">
       <use xlink:href="#DejaVuSans-31"/>
       <use x="63.623047" xlink:href="#DejaVuSans-2e"/>
       <use x="95.410156" xlink:href="#DejaVuSans-30"/>
       <use x="159.033203" xlink:href="#DejaVuSans-34"/>
       <use x="222.65625" xlink:href="#DejaVuSans-30"/>
      </g>
     </g>
    </g>
    <g id="ytick_12">
     <g id="line2d_20">
      <g>
       <use style="stroke:#000000;stroke-width:0.8;" x="411.642" xlink:href="#m508917c144" y="157.68"/>
      </g>
     </g>
     <g id="text_22">
      <!-- 1.064 -->
      <g transform="translate(418.642 161.479219)scale(0.1 -0.1)">
       <use xlink:href="#DejaVuSans-31"/>
       <use x="63.623047" xlink:href="#DejaVuSans-2e"/>
       <use x="95.410156" xlink:href="#DejaVuSans-30"/>
       <use x="159.033203" xlink:href="#DejaVuSans-36"/>
       <use x="222.65625" xlink:href="#DejaVuSans-34"/>
      </g>
     </g>
    </g>
    <g id="ytick_13">
     <g id="line2d_21">
      <g>
       <use style="stroke:#000000;stroke-width:0.8;" x="411.642" xlink:href="#m508917c144" y="112.32"/>
      </g>
     </g>
     <g id="text_23">
      <!-- 1.088 -->
      <g transform="translate(418.642 116.119219)scale(0.1 -0.1)">
       <use xlink:href="#DejaVuSans-31"/>
       <use x="63.623047" xlink:href="#DejaVuSans-2e"/>
       <use x="95.410156" xlink:href="#DejaVuSans-30"/>
       <use x="159.033203" xlink:href="#DejaVuSans-38"/>
       <use x="222.65625" xlink:href="#DejaVuSans-38"/>
      </g>
     </g>
    </g>
    <g id="ytick_14">
     <g id="line2d_22">
      <g>
       <use style="stroke:#000000;stroke-width:0.8;" x="411.642" xlink:href="#m508917c144" y="66.96"/>
      </g>
     </g>
     <g id="text_24">
      <!-- 1.112 -->
      <g transform="translate(418.642 70.759219)scale(0.1 -0.1)">
       <use xlink:href="#DejaVuSans-31"/>
       <use x="63.623047" xlink:href="#DejaVuSans-2e"/>
       <use x="95.410156" xlink:href="#DejaVuSans-31"/>
       <use x="159.033203" xlink:href="#DejaVuSans-31"/>
       <use x="222.65625" xlink:href="#DejaVuSans-32"/>
      </g>
     </g>
    </g>
   </g>
   <g id="patch_8">
    <path d="M 395.01 384.48 
L 395.01 369.36 
L 395.01 66.96 
L 395.01 51.84 
L 411.642 51.84 
L 411.642 66.96 
L 411.642 369.36 
L 411.642 384.48 
z
" style="fill:none;stroke:#000000;stroke-linejoin:miter;stroke-width:0.8;"/>
   </g>
  </g>
 </g>
 <defs>
  <clipPath id="p69e263c5ef">
   <rect height="332.64" width="312.48" x="63" y="51.84"/>
  </clipPath>
  <clipPath id="p803b4e4c63">
   <rect height="332.64" width="16.632" x="395.01" y="51.84"/>
  </clipPath>
 </defs>
</svg>
